/* XPM */
static char * btn_iconify_fo_xpm[] = {
"12 12 53 1",
" 	c None",
".	c #8BA3A3",
"+	c #799599",
"@	c #F8F8F8",
"#	c #F3F3F3",
"$	c #F1F1F1",
"%	c #EEEEEE",
"&	c #E9E9E9",
"*	c #E5E5E5",
"=	c #E0E0E0",
"-	c #D4D4D4",
";	c #BEBEBE",
">	c #969696",
",	c #7A919A",
"'	c #88A2A2",
")	c #F0F0F0",
"!	c #E6E6E6",
"~	c #E2E2E2",
"{	c #DEDEDE",
"]	c #D8D8D8",
"^	c #D3D3D3",
"/	c #CFCFCF",
"(	c #C9C9C9",
"_	c #C4C4C4",
":	c #818181",
"<	c #889CA3",
"[	c #769499",
"}	c #EBEBEB",
"|	c #BFBFBF",
"1	c #7D7D7D",
"2	c #E8E8E8",
"3	c #B8B8B8",
"4	c #7B7B7B",
"5	c #E4E4E4",
"6	c #B3B3B3",
"7	c #787878",
"8	c #ACACAC",
"9	c #747474",
"0	c #DADADA",
"a	c #000000",
"b	c #A6A6A6",
"c	c #717171",
"d	c #D1D1D1",
"e	c #949494",
"f	c #8F8F8F",
"g	c #8B8B8B",
"h	c #868686",
"i	c #9F9F9F",
"j	c #6E6E6E",
"k	c #999999",
"l	c #6C6C6C",
"m	c #848484",
"n	c #4B4B4B",
"............",
"+@#$%&*=-;>,",
"')!~{]^/(_:<",
"[}~{]^/(_|1+",
"'2{]^/(_|34<",
"+5]^/(_|367,",
"'=^/(_|3689<",
"[0/aaaaa8bc+",
"'d(_efgh:ij<",
"[3_|368bikl+",
"'m:1479cjln<",
"+++++++++,,,"};
