/* XPM */
static char * btn_close_pr_xpm[] = {
"12 12 48 1",
" 	c None",
".	c #848484",
"+	c #B2B2B2",
"@	c #AEAEAE",
"#	c #ABABAB",
"$	c #A8A8A8",
"%	c #A4A4A4",
"&	c #A1A1A1",
"*	c #9D9D9D",
"=	c #9A9A9A",
"-	c #F5F5F5",
";	c #ECECEC",
">	c #E4E4E4",
",	c #DCDCDC",
"'	c #D4D4D4",
")	c #CBCBCB",
"!	c #C3C3C3",
"~	c #BBBBBB",
"{	c #B6B6B6",
"]	c #000000",
"^	c #C8C8C8",
"/	c #C4C4C4",
"(	c #424242",
"_	c #ADADAD",
":	c #9E9E9E",
"<	c #7E7E7E",
"[	c #AFAFAF",
"}	c #B0B0B0",
"|	c #292929",
"1	c #949494",
"2	c #878787",
"3	c #959595",
"4	c #ACACAC",
"5	c #CCCCCC",
"6	c #8F8F8F",
"7	c #7D7D7D",
"8	c #868686",
"9	c #898989",
"0	c #838383",
"a	c #A5A5A5",
"b	c #7F7F7F",
"c	c #929292",
"d	c #888888",
"e	c #686868",
"f	c #B3B3B3",
"g	c #A2A2A2",
"h	c #8A8A8A",
"i	c #818181",
"            ",
" .+@#$%&*=$ ",
" +-;>,')!~{ ",
" @;>]^)/]@+ ",
" #>,/(_(:<[ ",
" $,')}|1234 ",
" %')5(6(7=$ ",
" &)!]389]0a ",
" *!~}bc=de& ",
" =~f#g=chi: ",
" ${+[4$a&:{ ",
"            "};
