/* XPM */
static char * btn_maximize_pr_xpm[] = {
"12 12 52 1",
" 	c None",
".	c #848484",
"+	c #B2B2B2",
"@	c #AEAEAE",
"#	c #ABABAB",
"$	c #A8A8A8",
"%	c #A4A4A4",
"&	c #A1A1A1",
"*	c #9D9D9D",
"=	c #9A9A9A",
"-	c #F5F5F5",
";	c #ECECEC",
">	c #E4E4E4",
",	c #DCDCDC",
"'	c #D4D4D4",
")	c #CCCCCC",
"!	c #C4C4C4",
"~	c #BCBCBC",
"{	c #B6B6B6",
"]	c #565656",
"^	c #535353",
"/	c #505050",
"(	c #4C4C4C",
"_	c #494949",
":	c #B4B4B4",
"<	c #A0A0A0",
"[	c #999999",
"}	c #939393",
"|	c #3C3C3C",
"1	c #868686",
"2	c #AFAFAF",
"3	c #696969",
"4	c #424242",
"5	c #474747",
"6	c #808080",
"7	c #ACACAC",
"8	c #676767",
"9	c #444444",
"0	c #7A7A7A",
"a	c #636363",
"b	c #434343",
"c	c #373737",
"d	c #414141",
"e	c #747474",
"f	c #A5A5A5",
"g	c #616161",
"h	c #585858",
"i	c #5C5C5C",
"j	c #595959",
"k	c #6D6D6D",
"l	c #8C8C8C",
"m	c #9E9E9E",
"            ",
" .+@#$%&*=$ ",
" +-;>,')!~{ ",
" @;>]^/(_:+ ",
" #>,^<[}|12 ",
" $,3/4(!567 ",
" %'8[}|190$ ",
" &)a}:bcdef ",
" *!ghij0ek& ",
" =~:160el.m ",
" ${+27$f&m{ ",
"            "};
