/* XPM */
static char * btn_iconify_pr_xpm[] = {
"12 12 32 1",
" 	c None",
".	c #848484",
"+	c #B2B2B2",
"@	c #AEAEAE",
"#	c #ABABAB",
"$	c #A8A8A8",
"%	c #A4A4A4",
"&	c #A1A1A1",
"*	c #9D9D9D",
"=	c #9A9A9A",
"-	c #F5F5F5",
";	c #ECECEC",
">	c #E4E4E4",
",	c #DCDCDC",
"'	c #D4D4D4",
")	c #CCCCCC",
"!	c #C4C4C4",
"~	c #BCBCBC",
"{	c #B6B6B6",
"]	c #B4B4B4",
"^	c #ACACAC",
"/	c #AFAFAF",
"(	c #9C9C9C",
"_	c #000000",
":	c #949494",
"<	c #A5A5A5",
"[	c #8C8C8C",
"}	c #868686",
"|	c #7F7F7F",
"1	c #797979",
"2	c #737373",
"3	c #9E9E9E",
"            ",
" .+@#$%&*=$ ",
" +-;>,')!~{ ",
" @;>,')!~]+ ",
" #>,')!~]^/ ",
" $,')!~]^%^ ",
" %')!~]^%($ ",
" &)!_____:< ",
" *!~][}|12& ",
" =~]^%(:[.3 ",
" ${+/^$<&3{ ",
"            "};
