/* XPM */
static char * win_unfocus_xpm[] = {
"200 12 94 2",
"  	c None",
". 	c #515169",
"+ 	c #53536B",
"@ 	c #54546C",
"# 	c #55556D",
"$ 	c #565670",
"% 	c #575770",
"& 	c #585872",
"* 	c #5A5A73",
"= 	c #5B5B75",
"- 	c #5C5C77",
"; 	c #5C5C78",
"> 	c #5E5E79",
", 	c #60607A",
"' 	c #60607B",
") 	c #62627E",
"! 	c #62627F",
"~ 	c #636380",
"{ 	c #656582",
"] 	c #666682",
"^ 	c #686884",
"/ 	c #696984",
"( 	c #696987",
"_ 	c #6A6A87",
": 	c #6B6B88",
"< 	c #6B6B89",
"[ 	c #6D6D8A",
"} 	c #6E6E8B",
"| 	c #6F6F8C",
"1 	c #70708F",
"2 	c #71718F",
"3 	c #717190",
"4 	c #727291",
"5 	c #747490",
"6 	c #757591",
"7 	c #767693",
"8 	c #777793",
"9 	c #787895",
"0 	c #7A7A96",
"a 	c #7B7B97",
"b 	c #7C7C97",
"c 	c #7C7C98",
"d 	c #7F7F98",
"e 	c #80809A",
"f 	c #81819A",
"g 	c #83839D",
"h 	c #84849D",
"i 	c #85859E",
"j 	c #86869F",
"k 	c #8787A0",
"l 	c #8989A0",
"m 	c #8A8AA0",
"n 	c #8B8BA2",
"o 	c #222233",
"p 	c #242436",
"q 	c #252536",
"r 	c #282839",
"s 	c #28283A",
"t 	c #2A2A3D",
"u 	c #2B2B3E",
"v 	c #2C2C3F",
"w 	c #2E2E41",
"x 	c #2F2F42",
"y 	c #323246",
"z 	c #343448",
"A 	c #36364B",
"B 	c #38384D",
"C 	c #3B3B50",
"D 	c #3C3C52",
"E 	c #3E3E55",
"F 	c #3F3F55",
"G 	c #414157",
"H 	c #434359",
"I 	c #45455D",
"J 	c #46465E",
"K 	c #484860",
"L 	c #4B4B62",
"M 	c #4C4C63",
"N 	c #4E4E67",
"O 	c #52526B",
"P 	c #656581",
"Q 	c #787894",
"R 	c #6E6E8C",
"S 	c #141422",
"T 	c #181827",
"U 	c #1B1B2A",
"V 	c #1D1D2C",
"W 	c #202031",
"X 	c #62627D",
"Y 	c #141420",
"Z 	c #141421",
"` 	c #494961",
" .	c #45455B",
"..	c #4D4D66",
". . . + + @ @ @ @ # # $ $ % & & * = = = - - - ; ; > > , , ' ' ' ' ) ) ! ! ! ~ ~ ~ ~ { { ] ] ] ] ^ / ( ( ( _ : : < < < < [ [ [ } } | | | | 1 2 2 2 2 3 4 4 4 4 5 6 6 6 7 7 8 8 8 8 9 9 9 9 9 9 9 0 0 0 a a a b b b c c c c c d d d d d e e e e f f f f f f f g g g g g g g g h h h h h h h h h h i i i i i i i i i i j j j j j j j j j k k k k k k k l l l l l l l l m m m m m m n n n n n n n n n n n n n n n n ",
"o o o o o o o p p p q q q q r r r r s s s s s t t t t u u u u v v v v w w w x x x x x y y y y z z A B B B B B B B B C C D E E E E F F G G G H H H H H I I J J J J K K K L L L L L M M N N N . . . . O O @ @ @ # # # # # $ $ % * * * * = = - - ; ; ; ; > > , , ' ' ' ' ' ) ) ! ! ! P P P { { ] ] ^ ^ / / ( ( _ : : < < < < [ [ [ } | | 1 1 1 2 2 2 3 4 5 5 5 5 6 7 7 7 8 Q 9 9 9 9 9 0 0 0 0 0 0 0 0 0 0 0 0 0 a ",
"F G G H H H H H H I J J J J K K K K L L M M N N N . . . . O O @ @ @ @ # # $ $ % % % * * = = = = - - ; ; > > , , ' ' ' ' ) ) ) ! ! ! ~ ~ ~ { ] ] ] ] ^ ^ ^ / ( ( _ _ : : < < [ [ [ } } R R | | 2 2 2 2 2 3 4 4 5 5 5 5 5 6 7 8 8 8 8 8 8 9 9 9 0 0 0 0 0 0 a a b b b b c c c d d d d d e e e e f f f f f g g g g g g g h h h h h h h h i i i i i i j j j j j j j j j k k k k l l l l l l l l l l l l l l l l l m ",
"S T T T U U U U U U U U U U V V V V V W W o o o o o o o o o o p p q q q q r r r r r r s s s s s s t t u u u u v v v v v v w w x x x x x x y y y y y z A A B B B B B B B C D E E E E F F G G G H H I I I I I J J J K K K L L L L M N . . . . . O O O @ @ # $ $ $ $ * * = = = = - - ; > , ' ' ' X X ) ! ! ! P P P ] ] ] ^ / ( ( _ : : < < < [ } | | | | 2 2 2 3 4 5 5 5 7 7 8 8 Q Q 9 9 9 9 9 9 9 9 9 0 0 0 0 0 0 ",
"v v v w w x x x x x x y y z z z z A A B B B B C C C D D E E E F F G G H H H H H H I I J J J J J K K L L L L M N . . . . . . . O @ @ # # # # $ $ % * = = = = = - - ; , , , ' ' ' ' ) ! ! ! ! ~ { ] ] ^ ^ ^ / ( _ _ : < < < [ [ R R | | 2 2 2 2 4 4 5 5 5 6 7 8 8 8 8 Q 9 9 9 0 0 0 0 b b b c c c d d d e e e f f f f f g g g g g g h h h h h h i i i i j j j j j j j k k k k k k l l l l l l l l l l l l l l m m ",
"Y Y Y Y Y Y Y Y Y Z Z Z Z Z Z Z Z Z Z S S T T T U U U U U U U U U U U U V V V W W W W o o o o o o p p q q q q r r r r r s s s s s s t t u v v v v v v v w w x x x y y y z A A B B B B C C C D D E F G G H H H I I I J J K K K L L M M N N . . . . O @ @ # # $ $ $ * * = = = = - - > , , ' ' ' ) ! ! ! ! ~ { { ] ] ] ^ / ( _ _ : < < [ [ [ R R 1 1 1 1 3 3 4 4 5 6 6 7 7 8 Q Q Q 9 9 9 9 0 0 0 0 0 0 0 0 0 0 0 a ",
"r r r s s s s s s s s t u u u u v v v v v w w x x x x y y y y y z z A A A A B B B B C C D D D E F F G G H H I I I I J J K K K ` L L M N N . . . + @ @ @ # # # $ % * = = = = ; > > > ' ' ' ' ! ! ! ~ ~ { ] ] ^ / / ( ( _ : < < [ [ R | | 1 2 2 3 3 4 5 5 5 6 8 8 8 8 8 9 9 9 0 0 0 a b b c c c d d d d e e f f f f f f g g g g g g h h h h h h i i i i i j j j j j j k k k k k k l l l l l l l l l l l l l l m m ",
"Y Y Y Y Y Y Y Y Y Y Y Y Y Y Y Z Z Z Z Z Z Z Z Z Z S S S T T U U U U U U U U U U U U V V W W W o o o o o o o o p p p q q r r r r s s s s s s u u u u u v v v w w x x x y y A A A A B B B B C C D E E F G H H H H H I J J J K K L L L M N N . . . . O @ @ # # $ $ $ * * = = = = - ; > , , ' ' ' ) ! ! ~ ~ P { { ] ] ^ ^ / _ _ _ : < [ [ [ [ R | 1 1 1 2 3 3 4 4 5 6 6 6 7 8 Q Q Q 9 9 9 9 9 9 9 0 0 0 0 0 0 0 0 0 ",
"w x x x x y y y y z z A A B B B B B C C D D D E E E F F G G H H H  . .I I I J J J J K ` L L L L M M N . . . . . O O O @ @ @ @ # $ % & & & * = = - - ; ; ; ; > , ' ' ' ' ' ! ! ! ! ~ ~ { { ] ] ] ^ ^ / ( _ : : : : < < [ [ } } | | 2 2 2 2 3 3 5 5 5 5 5 6 7 8 8 8 9 9 9 9 9 0 0 0 a b b b c c c d d d e e e f f f f f g g g g g g h h h h h h i i i i i j j j j j j j k k k k k l l l l l l l l l l l l l l l m ",
"Z Z Z S S T T T T T T U U U U U U U U V V W W o o o o o o o o o o o o o o p p q q q r r r r r r s s s s s s t t u u u v v v v v v v w x x x x y y y z z z A A B B B B B C D E E E E E E F F G H H I I I I I J J J K L L L L L L M N . . . . . @ @ @ @ # $ % % % * * = = - - - ; ; > , ' ' ' X ) ! ! ~ P P { ] ] ] ^ ^ / ( _ _ : < < [ [ [ R R 1 1 1 1 2 3 4 4 5 6 6 6 7 8 Q Q Q 9 9 9 9 9 9 9 0 0 0 0 0 0 0 0 0 ",
"F G G H H  . . . .I J J J J ` ` ` ` L L ........N . . . . + + @ @ @ @ # # $ $ % % & * * = = = = ; ; > > > , ' ' ' ' ' ) ) ! ! ! ! ~ P P P { ] ] ] ] ^ ^ ^ / ( ( _ _ : : < < [ [ [ } } R R | | 2 2 2 2 2 3 4 4 5 5 5 5 5 6 7 8 8 8 8 8 8 9 9 9 9 9 9 0 0 0 0 0 b b b b c c c c d d d d d e e e f f f f f f f g g g g g g g h h h h h h h h i i i i i j j j j j j j j k k k k k l l l l l l l l l l l l l l l m m ",
"o o o o o p p q q q r r r r r r s s s s s s t t t u u v v v v v v w w w w x x x x y y z z z z z A A B B B B B C C C D D E E E F F G G H H H H H I I I J J J J J J ` L L L L L L L ..N . . . . . . + @ @ @ @ # # # $ $ % & & * = = = = - ; ; > , , , , , ' ' ) ) ) ) ! ! ! ~ ~ { { ] ] ] ] ^ / / / ( ( : : < < < < [ [ [ } R R | | 1 2 2 2 3 4 5 5 5 5 5 7 7 8 8 8 8 Q Q 9 9 9 0 0 0 0 0 0 0 0 0 0 0 0 0 0 a a a "};
