/* XPM */
static char * abiword_11x11_xpm[] = {
"48 48 473 2",
"  	c None",
". 	c #28508D",
"+ 	c #254F8B",
"@ 	c #264F8C",
"# 	c #27508B",
"$ 	c #325891",
"% 	c #96AECD",
"& 	c #C3D5E8",
"* 	c #BED1E6",
"= 	c #8CA6C8",
"- 	c #325A91",
"; 	c #4E70A1",
"> 	c #BED0E6",
", 	c #ADC6E3",
"' 	c #95B7DB",
") 	c #98B8DB",
"! 	c #B1C9E4",
"~ 	c #BCCEE3",
"{ 	c #4B6EA0",
"] 	c #5477A5",
"^ 	c #BFD2E6",
"/ 	c #9AB9DC",
"( 	c #8EB1D7",
"_ 	c #8DB0D7",
": 	c #8CAFD6",
"< 	c #9BB9DB",
"[ 	c #BDD0E6",
"} 	c #5274A4",
"| 	c #44689C",
"1 	c #BBCEE4",
"2 	c #96B6DA",
"3 	c #8BAFD6",
"4 	c #8BAED6",
"5 	c #8AAED5",
"6 	c #8AADD5",
"7 	c #95B5D8",
"8 	c #BBCDE3",
"9 	c #486B9E",
"0 	c #355B94",
"a 	c #B4C8E0",
"b 	c #9AB9DB",
"c 	c #89ADD4",
"d 	c #89ACD4",
"e 	c #88ACD4",
"f 	c #88ABD4",
"g 	c #87ABD3",
"h 	c #95B4D8",
"i 	c #B2C6DE",
"j 	c #335A91",
"k 	c #29518D",
"l 	c #9EB4D1",
"m 	c #A3BFDE",
"n 	c #86AAD3",
"o 	c #85A9D2",
"p 	c #84A9D2",
"q 	c #9EBBDB",
"r 	c #9DB4D2",
"s 	c #28518D",
"t 	c #244F8A",
"u 	c #7390B8",
"v 	c #B0C8E3",
"w 	c #A2BDDD",
"x 	c #BBCFE6",
"y 	c #B8CDE5",
"z 	c #9BB9DA",
"A 	c #83A8D1",
"B 	c #82A7D1",
"C 	c #82A7D0",
"D 	c #81A6D0",
"E 	c #AEC6E1",
"F 	c #6E8CB5",
"G 	c #244D89",
"H 	c #3B6197",
"I 	c #B6CAE2",
"J 	c #8BADD5",
"K 	c #88ACD3",
"L 	c #B1C8E2",
"M 	c #97B0CF",
"N 	c #396196",
"O 	c #466BA0",
"P 	c #A4BBD7",
"Q 	c #A7C1DE",
"R 	c #80A5CF",
"S 	c #7FA4CF",
"T 	c #86A9D0",
"U 	c #B2C7E0",
"V 	c #3A5F96",
"W 	c #28518C",
"X 	c #9FB6D3",
"Y 	c #99B8DA",
"Z 	c #84A8D2",
"` 	c #B0C7E2",
" .	c #7996BD",
"..	c #254E8A",
"+.	c #29528D",
"@.	c #9DB5D3",
"#.	c #A2BDDC",
"$.	c #7DA3CE",
"%.	c #7DA2CD",
"&.	c #7CA2CD",
"*.	c #95B3D6",
"=.	c #97AFCF",
"-.	c #6182AE",
";.	c #ACC5E1",
">.	c #A8C1DE",
",.	c #88A2C4",
"'.	c #29538D",
").	c #A3BAD7",
"!.	c #97B5D8",
"~.	c #7AA0CC",
"{.	c #7A9FCB",
"].	c #ACC3DF",
"^.	c #5577A7",
"/.	c #2B548E",
"(.	c #ACC2DC",
"_.	c #88ABD2",
":.	c #99B7D8",
"<.	c #9CB4D2",
"[.	c #27518D",
"}.	c #335B93",
"|.	c #AEC4DE",
"1.	c #87A9D1",
"2.	c #779ECA",
"3.	c #779DCA",
"4.	c #86A8D0",
"5.	c #A6BDD9",
"6.	c #27518C",
"7.	c #24518C",
"8.	c #7593BB",
"9.	c #A0BBDA",
"0.	c #7EA3CE",
"a.	c #ADC4DE",
"b.	c #345A92",
"c.	c #234C8A",
"d.	c #5377A7",
"e.	c #799FCA",
"f.	c #759CC9",
"g.	c #749BC8",
"h.	c #9EB9D9",
"i.	c #6D8DB7",
"j.	c #244E8C",
"k.	c #335992",
"l.	c #ADC3DE",
"m.	c #7CA1CD",
"n.	c #7DA2CE",
"o.	c #ABC3DF",
"p.	c #5C7DAB",
"q.	c #244C8A",
"r.	c #254E8B",
"s.	c #7E9CC3",
"t.	c #9BB7D8",
"u.	c #739AC8",
"v.	c #7299C7",
"w.	c #A7BEDA",
"x.	c #2B538D",
"y.	c #244F8B",
"z.	c #86A2C7",
"A.	c #94B3D6",
"B.	c #799FCB",
"C.	c #98B5D7",
"D.	c #89A4C8",
"E.	c #9FB8D7",
"F.	c #86A8CF",
"G.	c #7097C6",
"H.	c #6F97C6",
"I.	c #94B1D4",
"J.	c #7090BA",
"K.	c #254F89",
"L.	c #40659C",
"M.	c #AAC1DE",
"N.	c #7A9FCC",
"O.	c #789ECB",
"P.	c #80A4CE",
"Q.	c #A8BFDC",
"R.	c #2D5490",
"S.	c #446A9F",
"T.	c #A7BFDC",
"U.	c #749AC8",
"V.	c #6D95C4",
"W.	c #749AC7",
"X.	c #A3BCD9",
"Y.	c #254F8C",
"Z.	c #8BA7CA",
"`.	c #8CACD2",
" +	c #769DCA",
".+	c #769CC9",
"++	c #9FBADA",
"@+	c #6183B0",
"#+	c #244E8B",
"$+	c #254E8C",
"%+	c #7091BB",
"&+	c #96B2D4",
"*+	c #6B93C3",
"=+	c #6A92C3",
"-+	c #91AED2",
";+	c #6788B5",
">+	c #234E8A",
",+	c #3D649A",
"'+	c #A5BFDB",
")+	c #759BC9",
"!+	c #87A9D0",
"~+	c #96B0D2",
"{+	c #244E8A",
"]+	c #95B0D1",
"^+	c #7DA0CA",
"/+	c #6890C1",
"(+	c #6F96C4",
"_+	c #9BB4D4",
":+	c #27518B",
"<+	c #26508B",
"[+	c #83A0C6",
"}+	c #8BABD1",
"|+	c #739BC8",
"1+	c #A3BCDB",
"2+	c #234D89",
"3+	c #4A6FA2",
"4+	c #9CB7D7",
"5+	c #6891C1",
"6+	c #658EC0",
"7+	c #8DACD0",
"8+	c #5A7CAC",
"9+	c #244C89",
"0+	c #355C94",
"a+	c #A3BCDA",
"b+	c #729AC7",
"c+	c #88A9D0",
"d+	c #82A1C6",
"e+	c #234E89",
"f+	c #7B9BC3",
"g+	c #85A6CD",
"h+	c #628CBE",
"i+	c #7298C5",
"j+	c #8DA9CD",
"k+	c #264F8B",
"l+	c #7A99C1",
"m+	c #89A9D0",
"n+	c #6E96C5",
"o+	c #A0B9D9",
"p+	c #3A6298",
"q+	c #2E5790",
"r+	c #97B2D3",
"s+	c #6B92C2",
"t+	c #608ABD",
"u+	c #93AFD2",
"v+	c #2F5892",
"w+	c #9EB8D7",
"x+	c #6F97C5",
"y+	c #6C94C4",
"z+	c #7C9BC3",
"A+	c #234D8A",
"B+	c #5D81B1",
"C+	c #8BA9CF",
"D+	c #5E88BC",
"E+	c #789BC6",
"F+	c #7697C0",
"G+	c #244D8A",
"H+	c #6C8DB8",
"I+	c #8AA9CF",
"J+	c #6C94C3",
"K+	c #9AB5D5",
"L+	c #365E95",
"M+	c #234D88",
"N+	c #86A4C9",
"O+	c #6E94C2",
"P+	c #6088BC",
"Q+	c #92AED2",
"R+	c #2C558F",
"S+	c #95B0D2",
"T+	c #7197C6",
"U+	c #80A2CB",
"V+	c #7999C1",
"W+	c #234B88",
"X+	c #446BA0",
"Y+	c #8CAACE",
"Z+	c #5985BA",
"`+	c #7E9FC8",
" @	c #5A7DAE",
".@	c #4F73A6",
"+@	c #90AED2",
"@@	c #668FC1",
"#@	c #6690C0",
"$@	c #95B1D4",
"%@	c #3D6499",
"&@	c #234C89",
"*@	c #7393BE",
"=@	c #7297C3",
"-@	c #658CBD",
";@	c #7F9FC6",
">@	c #224C88",
",@	c #7E9DC5",
"'@	c #779CC7",
")@	c #648DBF",
"!@	c #749AC6",
"~@	c #82A1C8",
"{@	c #224D8A",
"]@	c #315A92",
"^@	c #88A7CD",
"/@	c #5984B9",
"(@	c #88A6CC",
"_@	c #315A93",
":@	c #325993",
"<@	c #93AED3",
"[@	c #628BBE",
"}@	c #87A7CD",
"|@	c #5176A8",
"1@	c #214B89",
"2@	c #6186B5",
"3@	c #7497C3",
"4@	c #7296C3",
"5@	c #587DAD",
"6@	c #224E8A",
"7@	c #234E8B",
"8@	c #6286B4",
"9@	c #7FA0C9",
"0@	c #658FC0",
"a@	c #8DAACE",
"b@	c #204988",
"c@	c #214B87",
"d@	c #81A0C8",
"e@	c #688EBE",
"f@	c #7597C2",
"g@	c #224D89",
"h@	c #83A3C9",
"i@	c #6991C1",
"j@	c #7499C5",
"k@	c #6C8FBB",
"l@	c #234F8A",
"m@	c #28528F",
"n@	c #204A87",
"o@	c #224C8A",
"p@	c #5276AA",
"q@	c #7598C3",
"r@	c #7F9FC8",
"s@	c #2D558F",
"t@	c #355D96",
"u@	c #5D87BB",
"v@	c #5B86BA",
"w@	c #80A1C9",
"x@	c #476DA2",
"y@	c #2A5490",
"z@	c #39659F",
"A@	c #4471A9",
"B@	c #35609A",
"C@	c #224C89",
"D@	c #7C9DC6",
"E@	c #486EA3",
"F@	c #244D8B",
"G@	c #5A81B1",
"H@	c #779BC6",
"I@	c #5A85B9",
"J@	c #5A84B9",
"K@	c #86A6CC",
"L@	c #214C8A",
"M@	c #3A649C",
"N@	c #577EAF",
"O@	c #7093C0",
"P@	c #7D9EC7",
"Q@	c #406CA5",
"R@	c #446CA0",
"S@	c #7D9EC6",
"T@	c #5E83B3",
"U@	c #7798C3",
"V@	c #668DBE",
"W@	c #5783B8",
"X@	c #82A3C9",
"Y@	c #204B88",
"Z@	c #214B88",
"`@	c #214C88",
" #	c #38619A",
".#	c #5178AC",
"+#	c #688DBA",
"@#	c #7A9CC6",
"##	c #81A1C9",
"$#	c #80A0C8",
"%#	c #7193BE",
"&#	c #396099",
"*#	c #6B8DBC",
"=#	c #6F92BE",
"-#	c #2A548E",
";#	c #82A2CA",
">#	c #5782B8",
",#	c #5581B7",
"'#	c #5680B6",
")#	c #264F89",
"!#	c #244B88",
"~#	c #395F98",
"{#	c #4B71A7",
"]#	c #5C82B2",
"^#	c #6D91BD",
"/#	c #7B9DC6",
"(#	c #779AC5",
"_#	c #6A90BF",
":#	c #7597C3",
"<#	c #7495C0",
"[#	c #466DA2",
"}#	c #386199",
"|#	c #7799C3",
"1#	c #29538F",
"2#	c #456CA1",
"3#	c #7498C4",
"4#	c #537FB6",
"5#	c #537FB5",
"6#	c #527EB5",
"7#	c #5E87BA",
"8#	c #7598C4",
"9#	c #7A9CC5",
"0#	c #789AC5",
"a#	c #7396C3",
"b#	c #6D92C0",
"c#	c #638ABB",
"d#	c #5B84B8",
"e#	c #517DB3",
"f#	c #547FB5",
"g#	c #6B90BF",
"h#	c #7194C0",
"i#	c #224B89",
"j#	c #4F78AC",
"k#	c #315C96",
"l#	c #587DAE",
"m#	c #517DB4",
"n#	c #507DB4",
"o#	c #4F7CB3",
"p#	c #4E7BB3",
"q#	c #4D7AB2",
"r#	c #4C79B1",
"s#	c #5883B7",
"t#	c #6D91BF",
"u#	c #6F92BF",
"v#	c #496FA5",
"w#	c #204B89",
"x#	c #305C9A",
"y#	c #668AB8",
"z#	c #5C86B9",
"A#	c #4B78B1",
"B#	c #4A78B1",
"C#	c #5C85B8",
"D#	c #7093C1",
"E#	c #668AB9",
"F#	c #3F689E",
"G#	c #214C89",
"H#	c #2B5694",
"I#	c #6C90BD",
"J#	c #5580B5",
"K#	c #4A77B0",
"L#	c #4977B0",
"M#	c #527DB4",
"N#	c #6289BA",
"O#	c #6F94C1",
"P#	c #5D82B3",
"Q#	c #375E98",
"R#	c #6A8FBC",
"S#	c #537EB5",
"T#	c #4976B0",
"U#	c #517CB3",
"V#	c #5D85B8",
"W#	c #658AB8",
"X#	c #486FA4",
"Y#	c #2A528E",
"Z#	c #6088BA",
"`#	c #6087BA",
" $	c #628ABB",
".$	c #6A90BE",
"+$	c #6186B6",
"@$	c #4A70A7",
"#$	c #305792",
"$$	c #1E457A",
"%$	c #2F5891",
"&$	c #40689F",
"*$	c #436BA2",
"=$	c #3C6399",
"-$	c #214A85",
";$	c #1D4175",
">$	c #1D4378",
"                                                                                                ",
"                                                                                                ",
"                                                                                                ",
"                                                                                                ",
"                                              . + @ #                                           ",
"                                            $ % & * = -                                         ",
"                                          ; > , ' ) ! ~ {                                       ",
"                                        ] ^ / ( ( _ : < [ }                                     ",
"                                      | 1 2 _ : 3 4 5 6 7 8 9                                   ",
"                                    0 a b 4 5 6 c d e f g h i j                                 ",
"                                  k l m c d e f g n n o o p q r s                               ",
"                                t u v f g n g w x y z A B C D E F G                             ",
"                                H I J o o K L M N O P Q R R S T U V                             ",
"                              W X Y A A Z `  ...    +.@.#.$.%.&.*.=...                          ",
"                              -.;.C D D >.,.+         '.).!.~.~.{.].^.                          ",
"                            /.(._.R S :.<.[.            }.|.1.2.3.4.5.6.                        ",
"                          7.8.9.0.$.1.a.b.              c.d.].e.f.g.h.i.j.                      ",
"                          k.l.R m.n.o.p.q.                r.s.t.u.v.e.w.x.                      ",
"                        y.z.A.~.B.C.D.r.                    [.E.F.G.H.I.J.K.                    ",
"                        L.M.N.O.P.Q.R.                        S.T.U.V.W.X.s                     ",
"                      Y.Z.`. +.+++@+#+                        $+%+&+*+=+-+;+>+                  ",
"                      ,+'+)+g.!+~+{+                            r.]+^+/+(+_+:+                  ",
"                    <+[+}+v.|+1+O                               2+3+4+5+6+7+8+9+                ",
"                    0+a+b+G.c+d+t                                 e+f+g+h+i+j+c.                ",
"                  k+l+m+n+H.o+p+                                    q+r+s+t+u+S.                ",
"                  v+w+x+y+g+z+#+                                    A+B+C+D+E+F+G+              ",
"                + H+I+=+J+K+L+                                        M+N+O+P+Q+R+              ",
"                G S+T+/+U+V+#+                                        W+X+Y+Z+`+ @A+            ",
"                .@+@@@#@$@%@                                            &@*@=@-@;@>@            ",
"              {+,@'@)@!@~@{@                                              ]@^@/@(@_@            ",
"              :@<@)@[@}@|@1@                                              A+2@3@4@5@6@          ",
"            7@8@9@t+0@a@..                                        >+b@c@    '.d@e@f@g@          ",
"            >@h@i@D+j@k@#+                                l@2+2+m@n@o@      o@p@q@r@s@          ",
"            t@^@u@v@w@x@                            #+1@y@z@A@B@C@            g@f@D@E@          ",
"          F@G@H@I@J@K@6.                    c.L@F@M@N@O@P@Q@+ A+              1@R@S@T@>+        ",
"          g@U@V@W@J@X@Y@          Z@>+`@A+ #.#+#@###$#%#&#{@                    `@*#=#Z@        ",
"          -#;#>#,#'#w@X+<+)#!#-#~#{#]#^#/#(#_#e@:#<#[#2+                          }#|#1#        ",
"          2#3#4#5#6#7#8#9#9#@#0#a#b#c#d#e#f#g#h#E@2+i#                            >@j#k#        ",
"        2+l#e@m#n#n#o#o#p#p#q#q#r#r#r#s#t#u#v#9+w#                                  Y.x#Z@      ",
"        {+y#z#o#p#p#q#q#r#r#A#B#r#C#D#E#F#M+G#                                      >@H#{@      ",
"        g@I#J#q#r#r#A#B#K#L#M#N#O#P#Q#C@                                              Z@g@      ",
"        g@R#S#B#K#L#T#U#V#g#W#X#Y#o@                                                  Z@c@      ",
"        M+{#t#Z#`# $.$+$@$#$`@$$                                                        n@      ",
"          Z@%$&$*$=$# -$;$                                                                      ",
"                >$                                                                              ",
"                                                                                                ",
"                                                                                                ",
"                                                                                                "};
