/* XPM */
static char * moc_32x32_xpm[] = {
"48 48 852 2",
"  	c None",
". 	c #B96E67",
"+ 	c #BC716B",
"@ 	c #BB6F6B",
"# 	c #BB6D6A",
"$ 	c #BB6D69",
"% 	c #BA6C68",
"& 	c #BA6B67",
"* 	c #B66461",
"= 	c #C07767",
"- 	c #F4C0BB",
"; 	c #F4C3BC",
"> 	c #F4C2BB",
", 	c #F5C2BB",
"' 	c #F6BFB7",
") 	c #BA6861",
"! 	c #C38067",
"~ 	c #F5C1B6",
"{ 	c #F07465",
"] 	c #F07464",
"^ 	c #F17462",
"/ 	c #F6C0B3",
"( 	c #BD6F60",
"_ 	c #C58965",
": 	c #F6C4B4",
"< 	c #F27C64",
"[ 	c #F17C64",
"} 	c #F17C63",
"| 	c #F17C62",
"1 	c #F6C2B0",
"2 	c #C0795F",
"3 	c #C99366",
"4 	c #F6C6B2",
"5 	c #F18364",
"6 	c #F28463",
"7 	c #F28362",
"8 	c #F6C5AE",
"9 	c #C48360",
"0 	c #B86B62",
"a 	c #BC7068",
"b 	c #BB6F69",
"c 	c #BC6F69",
"d 	c #BE7269",
"e 	c #BE746A",
"f 	c #BF7469",
"g 	c #BD7165",
"h 	c #CC9B64",
"i 	c #F6C8B0",
"j 	c #F28B64",
"k 	c #F28A64",
"l 	c #F28B63",
"m 	c #F6C7AB",
"n 	c #C98D5F",
"o 	c #BE7563",
"p 	c #F4C1B9",
"q 	c #F6C3BA",
"r 	c #F6C4B9",
"s 	c #F6C4B7",
"t 	c #F6C2B3",
"u 	c #BF7364",
"v 	c #D0A565",
"w 	c #F6CAAD",
"x 	c #F29164",
"y 	c #F29163",
"z 	c #F39464",
"A 	c #F29363",
"B 	c #F7CAA9",
"C 	c #CB9760",
"D 	c #C28161",
"E 	c #F6C1B4",
"F 	c #F17661",
"G 	c #F17861",
"H 	c #F17A62",
"I 	c #F17B62",
"J 	c #F6C4B0",
"K 	c #C27D64",
"L 	c #CBAA64",
"M 	c #F6CCAB",
"N 	c #F39964",
"O 	c #F39A64",
"P 	c #F39A63",
"Q 	c #F6CCA7",
"R 	c #D0A263",
"S 	c #C47F63",
"T 	c #C58167",
"U 	c #C37C65",
"V 	c #C27A63",
"W 	c #C17861",
"X 	c #C0765F",
"Y 	c #BF735D",
"Z 	c #BB6954",
"` 	c #C58A5F",
" .	c #F6C3B1",
"..	c #F17E60",
"+.	c #F18061",
"@.	c #F28161",
"#.	c #F28462",
"$.	c #F6C5AD",
"%.	c #C78964",
"&.	c #C6B164",
"*.	c #F7CFA9",
"=.	c #F4A064",
"-.	c #F4A063",
";.	c #F4A164",
">.	c #F4A264",
",.	c #F6CFA5",
"'.	c #D5AB65",
").	c #C98C64",
"!.	c #F6C7AC",
"~.	c #F7CAAD",
"{.	c #F7C8AC",
"].	c #F7C7AB",
"^.	c #F7C6AA",
"/.	c #F7C2A7",
"(.	c #BD6D54",
"_.	c #C9945D",
":.	c #F6C6B0",
"<.	c #F1845F",
"[.	c #F2865F",
"}.	c #F28A61",
"|.	c #F28B62",
"1.	c #F7C9AA",
"2.	c #CB9363",
"3.	c #C1B565",
"4.	c #F7D1A7",
"5.	c #F4A664",
"6.	c #F4A866",
"7.	c #F4A966",
"8.	c #F3A865",
"9.	c #F6D2A3",
"0.	c #D1B265",
"a.	c #CF9964",
"b.	c #F7CAA7",
"c.	c #F38A60",
"d.	c #F3875E",
"e.	c #F3865D",
"f.	c #F3845B",
"g.	c #F7C4A3",
"h.	c #C27A55",
"i.	c #CC9E5D",
"j.	c #F6C6AC",
"k.	c #F38D5E",
"l.	c #F38F5F",
"m.	c #F39060",
"n.	c #F29361",
"o.	c #F6CCA8",
"p.	c #CE9D64",
"q.	c #BBBB64",
"r.	c #F6D4A5",
"s.	c #F4AE65",
"t.	c #F4AD65",
"u.	c #F4AE66",
"v.	c #F5B167",
"w.	c #F7D6A1",
"x.	c #CDB865",
"y.	c #D3A464",
"z.	c #F7CDA4",
"A.	c #F49462",
"B.	c #F49360",
"C.	c #F3905E",
"D.	c #F38D5B",
"E.	c #F7C8A0",
"F.	c #C88955",
"G.	c #C3A45B",
"H.	c #F3935C",
"I.	c #F3955D",
"J.	c #F2985F",
"K.	c #F39A60",
"L.	c #F6CDA6",
"M.	c #D1A663",
"N.	c #B6C065",
"O.	c #F7D6A2",
"P.	c #F5B465",
"Q.	c #F6B567",
"R.	c #F6B766",
"S.	c #F6B666",
"T.	c #F8D89E",
"U.	c #CABD68",
"V.	c #D8AE67",
"W.	c #F8D0A2",
"X.	c #F59D63",
"Y.	c #F59C61",
"Z.	c #F59A5F",
"`.	c #F5985D",
" +	c #F8CC9E",
".+	c #CC9456",
"++	c #B9A95A",
"@+	c #F7CCA8",
"#+	c #F49B5B",
"$+	c #F39D5D",
"%+	c #F39F5E",
"&+	c #F4A160",
"*+	c #F6D0A3",
"=+	c #D1AF64",
"-+	c #B3C665",
";+	c #F8D9A1",
">+	c #F6BA65",
",+	c #F6BB66",
"'+	c #F6BD67",
")+	c #F6BE68",
"!+	c #F8DB9D",
"~+	c #C6C569",
"{+	c #D7B868",
"]+	c #F8D49F",
"^+	c #F6A864",
"/+	c #F6A662",
"(+	c #F6A460",
"_+	c #F6A05D",
":+	c #F9CE9C",
"<+	c #D0A058",
"[+	c #B1B057",
"}+	c #F6CEA6",
"|+	c #F4A15A",
"1+	c #F3A35C",
"2+	c #F3A55E",
"3+	c #F4A85E",
"4+	c #F7D3A1",
"5+	c #CBB462",
"6+	c #AECB64",
"7+	c #F6DB9E",
"8+	c #F3BF66",
"9+	c #F4C067",
"0+	c #F4C268",
"a+	c #F4C269",
"b+	c #F7DC9B",
"c+	c #C5CA6A",
"d+	c #D3C16A",
"e+	c #FAD79C",
"f+	c #F6B166",
"g+	c #F6AF63",
"h+	c #F6AC61",
"i+	c #F6A95F",
"j+	c #F9D199",
"k+	c #D6AC58",
"l+	c #A7B657",
"m+	c #F7D0A2",
"n+	c #F3A659",
"o+	c #F4A95A",
"p+	c #F4AC5C",
"q+	c #F5AE5D",
"r+	c #F8D49E",
"s+	c #C4BA62",
"t+	c #ACCB64",
"u+	c #F5DC9E",
"v+	c #EFC367",
"w+	c #F0C468",
"x+	c #F0C56A",
"y+	c #F2C76A",
"z+	c #F6DF99",
"A+	c #C4D06C",
"B+	c #CFC86B",
"C+	c #F9DB9B",
"D+	c #F7B867",
"E+	c #F6B665",
"F+	c #F6B361",
"G+	c #F6B15E",
"H+	c #F9D496",
"I+	c #CDB257",
"J+	c #C77F54",
"K+	c #C57C54",
"L+	c #C17350",
"M+	c #BE6D4E",
"N+	c #BB674A",
"O+	c #B86045",
"P+	c #B55840",
"Q+	c #B04B35",
"R+	c #9DBB53",
"S+	c #F8D4A0",
"T+	c #F4AD56",
"U+	c #F4B057",
"V+	c #F5B159",
"W+	c #F5B45D",
"X+	c #F8D79D",
"Y+	c #BCBE60",
"Z+	c #AECA62",
"`+	c #F2DD9B",
" @	c #EBC767",
".@	c #EDC969",
"+@	c #EECB6A",
"@@	c #EECD6C",
"#@	c #F5E197",
"$@	c #C1D36D",
"%@	c #CBCE6D",
"&@	c #FADC98",
"*@	c #F7C067",
"=@	c #F7BE65",
"-@	c #F7BB62",
";@	c #F8B95E",
">@	c #FAD794",
",@	c #C6B855",
"'@	c #CC8E52",
")@	c #F9C89F",
"!@	c #F9C69F",
"~@	c #F9C4A0",
"{@	c #F9C19F",
"]@	c #F9BF9F",
"^@	c #F8B99C",
"/@	c #B35232",
"(@	c #A97C21",
"_@	c #95BF50",
":@	c #F5D59D",
"<@	c #EEB255",
"[@	c #EFB357",
"}@	c #EFB55A",
"|@	c #EFB85B",
"1@	c #F5D89B",
"2@	c #B4C360",
"3@	c #AFCB61",
"4@	c #F1E09A",
"5@	c #E8CA66",
"6@	c #E9CC69",
"7@	c #EACE6B",
"8@	c #EBD06D",
"9@	c #F4E397",
"0@	c #C6D66E",
"a@	c #CAD36E",
"b@	c #F9E096",
"c@	c #F8C76A",
"d@	c #F8C566",
"e@	c #F8C262",
"f@	c #F8BF5D",
"g@	c #FAD992",
"h@	c #BFBF56",
"i@	c #D19D51",
"j@	c #F9C898",
"k@	c #F48348",
"l@	c #F47D44",
"m@	c #F4773F",
"n@	c #F3703A",
"o@	c #F9BD95",
"p@	c #BB6731",
"q@	c #AA7E23",
"r@	c #AA7B21",
"s@	c #94BF50",
"t@	c #F1D79C",
"u@	c #E7B755",
"v@	c #E7B857",
"w@	c #E8BA59",
"x@	c #E9BC5A",
"y@	c #F3DB99",
"z@	c #ACC95D",
"A@	c #AFCC5F",
"B@	c #EFE197",
"C@	c #E4CC67",
"D@	c #E5CF69",
"E@	c #E6D06B",
"F@	c #E8D26C",
"G@	c #F2E495",
"H@	c #C8D76F",
"I@	c #CBD870",
"J@	c #F9E294",
"K@	c #F4CC6A",
"L@	c #F4CA66",
"M@	c #F3C561",
"N@	c #F2C25B",
"O@	c #F8DB8F",
"P@	c #B4C351",
"Q@	c #D2A84B",
"R@	c #F9CC94",
"S@	c #F68D45",
"T@	c #F68941",
"U@	c #F5833D",
"V@	c #F57D39",
"W@	c #F9BF93",
"X@	c #C07A2E",
"Y@	c #A87C24",
"Z@	c #A6771E",
"`@	c #B78428",
" #	c #81B52F",
".#	c #EDD590",
"+#	c #DEB747",
"@#	c #E0BA4E",
"##	c #E1BD55",
"$#	c #E2BF55",
"%#	c #EFDC95",
"&#	c #A8C958",
"*#	c #ACCA5B",
"=#	c #ECE194",
"-#	c #DECE60",
";#	c #DFCF61",
">#	c #E1D062",
",#	c #E3D263",
"'#	c #F1E58C",
")#	c #C5D561",
"!#	c #C7D661",
"~#	c #F8E289",
"{#	c #EFCB58",
"]#	c #EFC854",
"^#	c #EEC44F",
"/#	c #EDC24B",
"(#	c #F5DB84",
"_#	c #A5C542",
":#	c #C0AC3D",
"<#	c #FBCC8A",
"[#	c #F79135",
"}#	c #F68D31",
"|#	c #F68930",
"1#	c #F6852D",
"2#	c #F9C28B",
"3#	c #BF8A29",
"4#	c #A17928",
"5#	c #A87B20",
"6#	c #A4751A",
"7#	c #C08C2E",
"8#	c #77AF1E",
"9#	c #E8D583",
"0#	c #D1B32B",
"a#	c #D3B52F",
"b#	c #D5B832",
"c#	c #D6BB36",
"d#	c #EBDA83",
"e#	c #99C03A",
"f#	c #9EC23D",
"g#	c #E9E185",
"h#	c #D6CC49",
"i#	c #D9CE4D",
"j#	c #DBD151",
"k#	c #DDD254",
"l#	c #EEE484",
"m#	c #BDD155",
"n#	c #BFD156",
"o#	c #F4E286",
"p#	c #EACD56",
"q#	c #E8CA52",
"r#	c #E7C84F",
"s#	c #E6C64B",
"t#	c #F1DC84",
"u#	c #A3C542",
"v#	c #AFB63C",
"w#	c #FBD088",
"x#	c #F79D35",
"y#	c #F79931",
"z#	c #F7952D",
"A#	c #F69129",
"B#	c #FAC786",
"C#	c #A89421",
"D#	c #9E772B",
"E#	c #A4761D",
"F#	c #A27118",
"G#	c #B48023",
"H#	c #C08B2D",
"I#	c #76B01E",
"J#	c #E1D882",
"K#	c #C7B92B",
"L#	c #C9BC2F",
"M#	c #CBBD33",
"N#	c #CDC036",
"O#	c #E6DC82",
"P#	c #98BF39",
"Q#	c #9CC23C",
"R#	c #E5E183",
"S#	c #D0CF49",
"T#	c #D3D04C",
"U#	c #D5D24F",
"V#	c #D7D452",
"W#	c #EAE483",
"X#	c #B7CE50",
"Y#	c #B8CF51",
"Z#	c #F1E285",
"`#	c #E2CE52",
" $	c #E1CD50",
".$	c #E0CB4D",
"+$	c #DEC94A",
"@$	c #EDDF83",
"#$	c #A1C33F",
"$$	c #9EBF3B",
"%$	c #F9D486",
"&$	c #F4A833",
"*$	c #F4A530",
"=$	c #F3A22C",
"-$	c #F39F28",
";$	c #F8CC84",
">$	c #91A120",
",$	c #9D772B",
"'$	c #9D7122",
")$	c #A5761D",
"!$	c #A06E15",
"~$	c #BE8729",
"{$	c #BF8A2D",
"]$	c #74AF1D",
"^$	c #DCDC83",
"/$	c #BDBF2D",
"($	c #BFC130",
"_$	c #C2C334",
":$	c #C4C538",
"<$	c #E0DE82",
"[$	c #95BE36",
"}$	c #98C13A",
"|$	c #E1E383",
"1$	c #C9D248",
"2$	c #CBD34B",
"3$	c #CDD44D",
"4$	c #CFD54F",
"5$	c #E6E583",
"6$	c #B1CC4C",
"7$	c #B2CC4C",
"8$	c #ECE385",
"9$	c #D9D04F",
"0$	c #D8CF4D",
"a$	c #D7CE4B",
"b$	c #D5CC49",
"c$	c #E7E083",
"d$	c #9DC23D",
"e$	c #F3D785",
"f$	c #E6B035",
"g$	c #E5AF32",
"h$	c #E4AC2E",
"i$	c #E3A92A",
"j$	c #F0D083",
"k$	c #79B020",
"l$	c #9C752A",
"m$	c #986F26",
"n$	c #9F7118",
"o$	c #9E6C12",
"p$	c #AD781C",
"q$	c #BF8A2C",
"r$	c #72AE1B",
"s$	c #D6DE82",
"t$	c #B3C52C",
"u$	c #B5C730",
"v$	c #B7C833",
"w$	c #BAC936",
"x$	c #DBE182",
"y$	c #92BD34",
"z$	c #96BF38",
"A$	c #DCE583",
"B$	c #C0D445",
"C$	c #C3D649",
"D$	c #C5D74B",
"E$	c #C7D74C",
"F$	c #E1E683",
"G$	c #ABC947",
"H$	c #E6E484",
"I$	c #D0D24D",
"J$	c #CFD14B",
"K$	c #CDD149",
"L$	c #CBD047",
"M$	c #E2E182",
"N$	c #9AC13B",
"O$	c #EBD984",
"P$	c #D7B935",
"Q$	c #D5B731",
"R$	c #D3B42F",
"S$	c #D2B22B",
"T$	c #E7D481",
"U$	c #77B01F",
"V$	c #9B7329",
"W$	c #976F25",
"X$	c #986B1C",
"Y$	c #9E6F18",
"Z$	c #98650C",
"`$	c #BA8224",
" %	c #BD8528",
".%	c #BE882B",
"+%	c #70AC19",
"@%	c #CEE181",
"#%	c #A7CB2C",
"$%	c #AACC30",
"%%	c #ACCD32",
"&%	c #AFCE36",
"*%	c #D5E380",
"=%	c #8EBC32",
"-%	c #D7E783",
";%	c #B8D843",
">%	c #BAD846",
",%	c #BCD948",
"'%	c #BDD94A",
")%	c #DBE782",
"!%	c #A5C743",
"~%	c #E0E683",
"{%	c #C5D649",
"]%	c #C4D548",
"^%	c #C2D447",
"/%	c #C1D345",
"(%	c #DBE481",
"_%	c #92BC34",
":%	c #E2DE83",
"<%	c #C5C235",
"[%	c #C3C032",
"}%	c #C1BF2F",
"|%	c #BFBD2C",
"1%	c #DCDA80",
"2%	c #74AE1D",
"3%	c #997127",
"4%	c #956D24",
"5%	c #906720",
"6%	c #996911",
"7%	c #986209",
"8%	c #A87014",
"9%	c #BB8124",
"0%	c #BC8226",
"a%	c #BD8529",
"b%	c #6DAB17",
"c%	c #C7E27E",
"d%	c #9BD02B",
"e%	c #9ED02D",
"f%	c #A1D231",
"g%	c #A4D333",
"h%	c #CEE37E",
"i%	c #89B82D",
"j%	c #8DBB30",
"k%	c #D1E680",
"l%	c #AED840",
"m%	c #B0D943",
"n%	c #B2DA44",
"o%	c #B4D945",
"p%	c #D4E77F",
"q%	c #9FC23D",
"r%	c #D8E681",
"s%	c #B9D746",
"t%	c #B8D745",
"u%	c #B6D744",
"v%	c #B4D642",
"w%	c #D4E47E",
"x%	c #90BC33",
"y%	c #D7E080",
"z%	c #B5CA34",
"A%	c #B2CA31",
"B%	c #B0C82F",
"C%	c #AEC62B",
"D%	c #D2DD7E",
"E%	c #72AB1A",
"F%	c #936A23",
"G%	c #8E651F",
"H%	c #926514",
"I%	c #98650E",
"J%	c #8F5902",
"K%	c #8F5903",
"L%	c #905903",
"M%	c #CB9B54",
"N%	c #CA9B53",
"O%	c #CA9C54",
"P%	c #CB9C55",
"Q%	c #CC9C55",
"R%	c #CC9D55",
"S%	c #CC9D56",
"T%	c #CC9E57",
"U%	c #CD9F58",
"V%	c #CE9F58",
"W%	c #CEA059",
"X%	c #CFA05A",
"Y%	c #CFA15C",
"Z%	c #CFA25C",
"`%	c #D0A25D",
" &	c #D0A35E",
".&	c #D1A35E",
"+&	c #D1A45E",
"@&	c #D1A45F",
"#&	c #D2A460",
"$&	c #D3A561",
"%&	c #D3A662",
"&&	c #D4A762",
"*&	c #D4A863",
"=&	c #D4A864",
"-&	c #D5A865",
";&	c #B97A1B",
">&	c #BA7B1C",
",&	c #BA7C1D",
"'&	c #BB7D1F",
")&	c #BC7E20",
"!&	c #BC7E21",
"~&	c #BD7F22",
"{&	c #BD8023",
"]&	c #BE8124",
"^&	c #BF8225",
"/&	c #BF8226",
"(&	c #C08327",
"_&	c #C18428",
":&	c #C18529",
"<&	c #C2862A",
"[&	c #C2872C",
"}&	c #C3872D",
"|&	c #C4882E",
"1&	c #C4892F",
"2&	c #C58A30",
"3&	c #C68B31",
"4&	c #C68B32",
"5&	c #C78C33",
"6&	c #C78D34",
"7&	c #C88E35",
"8&	c #C98F36",
"9&	c #C98F37",
"0&	c #CA9038",
"a&	c #D6AA67",
"b&	c #CA9A52",
"c&	c #B97B1C",
"d&	c #BB7C1E",
"e&	c #BD7F21",
"f&	c #BD8022",
"g&	c #BE8125",
"h&	c #C08428",
"i&	c #C1852A",
"j&	c #C2862B",
"k&	c #C3872C",
"l&	c #C3882D",
"m&	c #C4892E",
"n&	c #C5892F",
"o&	c #C68C32",
"p&	c #C78D33",
"q&	c #C88E36",
"r&	c #CA9139",
"s&	c #CB923A",
"t&	c #CB923B",
"u&	c #CC933C",
"v&	c #CD943D",
"w&	c #D8AD6A",
"x&	c #C99951",
"y&	c #BA7B1D",
"z&	c #BA7C1E",
"A&	c #BC7F21",
"B&	c #BF8326",
"C&	c #C18429",
"D&	c #C99037",
"E&	c #CC943D",
"F&	c #CD943E",
"G&	c #CE953F",
"H&	c #CE9640",
"I&	c #CF9741",
"J&	c #CF9842",
"K&	c #DAAF6C",
"L&	c #CA9B51",
"M&	c #CC933B",
"N&	c #CD953E",
"O&	c #CF9742",
"P&	c #D09843",
"Q&	c #D19944",
"R&	c #D19A45",
"S&	c #D29B46",
"T&	c #D29B47",
"U&	c #DCB16F",
"V&	c #CD9C54",
"W&	c #C88D34",
"X&	c #CB913A",
"Y&	c #CF9640",
"Z&	c #D09842",
"`&	c #D09943",
" *	c #D29A45",
".*	c #D39C47",
"+*	c #D39D49",
"@*	c #D49E4A",
"#*	c #D59E4B",
"$*	c #D59F4C",
"%*	c #DFB473",
"&*	c #CF9F57",
"**	c #D39C48",
"=*	c #D49D49",
"-*	c #D59F4B",
";*	c #D6A04C",
">*	c #D6A04D",
",*	c #D7A14F",
"'*	c #D8A250",
")*	c #D8A351",
"!*	c #E1B775",
"~*	c #D0A159",
"{*	c #CE963F",
"]*	c #D09944",
"^*	c #D7A14E",
"/*	c #D7A24F",
"(*	c #D8A350",
"_*	c #D9A452",
":*	c #DAA554",
"<*	c #DAA655",
"[*	c #DBA756",
"}*	c #E3B979",
"|*	c #D2A45D",
"1*	c #D39D48",
"2*	c #D6A14E",
"3*	c #D9A553",
"4*	c #DAA654",
"5*	c #DBA655",
"6*	c #DCA857",
"7*	c #DDA959",
"8*	c #DDAA5A",
"9*	c #DEAA5A",
"0*	c #E4BB7B",
"a*	c #D4A55F",
"b*	c #D9A453",
"c*	c #DCA858",
"d*	c #DEAB5B",
"e*	c #DFAC5C",
"f*	c #E0AD5D",
"g*	c #E0AD5E",
"h*	c #E1AE5F",
"i*	c #E7BE7E",
"j*	c #D6A862",
"k*	c #DAA553",
"l*	c #DCA757",
"m*	c #DFAB5C",
"n*	c #DFAC5D",
"o*	c #E1AF60",
"p*	c #E2AF61",
"q*	c #E2B062",
"r*	c #E3B163",
"s*	c #E4B264",
"t*	c #E9C181",
"u*	c #D8AB65",
"v*	c #DCA958",
"w*	c #E1AE60",
"x*	c #E1AF61",
"y*	c #E3B264",
"z*	c #E4B265",
"A*	c #E5B366",
"B*	c #E5B467",
"C*	c #E6B568",
"D*	c #E6B669",
"E*	c #EBC384",
"F*	c #DAAD67",
"G*	c #E2B061",
"H*	c #E4B366",
"I*	c #E5B468",
"J*	c #E6B569",
"K*	c #E7B66A",
"L*	c #E7B76B",
"M*	c #E8B86C",
"N*	c #E9B96D",
"O*	c #E9B96E",
"P*	c #EEC688",
"Q*	c #DCAF6B",
"R*	c #E0AE5F",
"S*	c #E4B365",
"T*	c #E8B76C",
"U*	c #E8B86D",
"V*	c #EABA6F",
"W*	c #EEC687",
"X*	c #DEB26D",
"Y*	c #DFB36F",
"Z*	c #E0B470",
"`*	c #E0B471",
" =	c #E0B572",
".=	c #E1B572",
"+=	c #E1B673",
"@=	c #E2B774",
"#=	c #E2B775",
"$=	c #E3B876",
"%=	c #E4B876",
"&=	c #E4B977",
"*=	c #E4BA77",
"==	c #E4BA78",
"-=	c #E5BB79",
";=	c #E6BC7A",
">=	c #E6BC7B",
",=	c #E7BD7C",
"'=	c #E8BE7D",
")=	c #E8BE7E",
"!=	c #E9BF7F",
"~=	c #E9C080",
"{=	c #EAC181",
"]=	c #EAC182",
"^=	c #EBC283",
"/=	c #ECC384",
"(=	c #ECC485",
"_=	c #EDC586",
"                                                                                                ",
"                                . + @ # $ % & *                                                 ",
"                                = - ; > > , ' )                                                 ",
"                                ! ~ { ] ^ ^ / (                                                 ",
"                                _ : < [ } | 1 2                                                 ",
"                                3 4 5 6 7 7 8 9                                                 ",
"                0 a b c d e f g h i j k l l m n                                                 ",
"                o p q r s s t u v w x y z A B C                                                 ",
"                D E F G H I J K L M N O P P Q R S T U V W X Y Z                                 ",
"                `  ...+.@.#.$.%.&.*.=.-.;.>.,.'.).!.~.{.].^./.(.                                ",
"                _.:.<.[.}.|.1.2.3.4.5.6.7.8.9.0.a.b.c.d.e.f.g.h.                                ",
"                i.j.k.l.m.n.o.p.q.r.s.t.u.v.w.x.y.z.A.B.C.D.E.F.                                ",
"                G.B H.I.J.K.L.M.N.O.P.Q.R.S.T.U.V.W.X.Y.Z.`. +.+                                ",
"                ++@+#+$+%+&+*+=+-+;+>+,+'+)+!+~+{+]+^+/+(+_+:+<+                                ",
"                [+}+|+1+2+3+4+5+6+7+8+9+0+a+b+c+d+e+f+g+h+i+j+k+                                ",
"                l+m+n+o+p+q+r+s+t+u+v+w+x+y+z+A+B+C+D+E+F+G+H+I+J+K+L+M+N+O+P+Q+                ",
"                R+S+T+U+V+W+X+Y+Z+`+ @.@+@@@#@$@%@&@*@=@-@;@>@,@'@)@!@~@{@]@^@/@                ",
"              (@_@:@<@[@}@|@1@2@3@4@5@6@7@8@9@0@a@b@c@d@e@f@g@h@i@j@k@l@m@n@o@p@q@              ",
"              r@s@t@u@v@w@x@y@z@A@B@C@D@E@F@G@H@I@J@K@L@M@N@O@P@Q@R@S@T@U@V@W@X@Y@              ",
"            Z@`@ #.#+#@###$#%#&#*#=#-#;#>#,#'#)#!#~#{#]#^#/#(#_#:#<#[#}#|#1#2#3#4#5#            ",
"            6#7#8#9#0#a#b#c#d#e#f#g#h#i#j#k#l#m#n#o#p#q#r#s#t#u#v#w#x#y#z#A#B#C#D#E#            ",
"          F#G#H#I#J#K#L#M#N#O#P#Q#R#S#T#U#V#W#X#Y#Z#`# $.$+$@$#$$$%$&$*$=$-$;$>$,$'$)$          ",
"          !$~${$]$^$/$($_$:$<$[$}$|$1$2$3$4$5$6$7$8$9$0$a$b$c$d$e#e$f$g$h$i$j$k$l$m$n$          ",
"        o$p$~$q$r$s$t$u$v$w$x$y$z$A$B$C$D$E$F$G$G$H$I$J$K$L$M$N$z$O$P$Q$R$S$T$U$V$W$X$Y$        ",
"        Z$`$ %.%+%@%#%$%%%&%*%=%y$-%;%>%,%'%)%!%!%~%{%]%^%/%(%z$_%:%<%[%}%|%1%2%3%4%5%6%        ",
"      7%8%9%0%a%b%c%d%e%f%g%h%i%j%k%l%m%n%o%p%f#q%r%s%t%u%v%w%x%j%y%z%A%B%C%D%E%W$F%G%H%I%      ",
"      J%J%J%J%J%J%K%K%K%K%K%L%J%J%L%L%L%L%L%L%J%J%L%L%L%L%L%L%J%J%L%L%L%L%L%L%J%J%J%J%J%J%      ",
"      J%M%M%M%M%M%M%N%N%N%N%N%N%N%N%N%N%O%P%Q%R%S%T%U%V%W%X%Y%Z%`% &.&+&@&#&$&%&&&*&=&-&J%      ",
"      J%N%;&;&;&;&;&;&;&;&;&;&;&>&,&'&)&!&~&{&]&^&/&(&_&:&<&[&}&|&1&2&3&4&5&6&7&8&9&0&a&J%      ",
"      J%b&;&;&;&;&;&;&c&,&d&'&)&e&f&]&g&/&(&h&:&i&j&k&l&m&n&2&3&o&p&7&q&9&0&r&s&t&u&v&w&J%      ",
"      J%x&;&c&y&z&'&)&A&~&{&]&^&B&(&C&i&j&[&l&|&1&2&3&o&5&6&7&8&D&0&r&t&u&E&F&G&H&I&J&K&J%      ",
"      J%L&'&)&~&{&]&g&/&(&h&:&<&j&k&l&1&2&2&3&5&6&7&q&9&0&r&s&M&u&v&N&H&I&O&P&Q&R&S&T&U&J%      ",
"      J%V&]&^&(&h&C&i&j&k&l&|&n&2&3&o&p&W&7&8&0&r&X&t&u&v&N&G&Y&I&Z&`&R& *S&.*+*@*#*$*%*J%      ",
"      J%&*:&<&[&}&|&1&2&3&4&5&6&7&8&9&0&r&s&M&E&F&G&H&I&J&P&Q&R&S&.***=*@*-*;*>*,*'*)*!*J%      ",
"      J%~*m&n&2&3&o&p&7&q&9&0&r&s&t&u&v&N&{*Y&I&P&]*R& *T&**+*@*-*$*>*^*/*(*)*_*:*<*[*}*J%      ",
"      J%|*5&6&7&8&D&0&r&t&u&E&F&G&H&I&J&`&Q&R&S&.*1*=*@*$*>*2*,*'*)*_*3*4*5*[*6*7*8*9*0*J%      ",
"      J%a*0&r&s&M&u&v&N&H&I&O&P&Q&R&S&T&**=*@*-*;*>*^*/*)*_*b*:*5*[*6*c*7*9*d*e*f*g*h*i*J%      ",
"      J%j*v&N&G&Y&I&Z&`&R& *S&.*+*@*#*$*>*^*/*'*)*_*k*4*5*l*c*7*8*d*m*n*g*h*o*p*q*r*s*t*J%      ",
"      J%u*J&P&Q&R&S&.***=*@*-*;*>*,*'*)*_*3*:*5*[*6*v*7*9*d*e*f*g*w*x*q*r*y*z*A*B*C*D*E*J%      ",
"      J%F*T&**+*@*-*$*>*^*/*(*)*_*:*<*[*l*c*7*8*d*e*n*g*h*o*G*q*r*z*H*B*I*J*K*L*M*N*O*P*J%      ",
"      J%Q*$*>*2*,*'*)*_*3*4*5*[*6*7*8*9*d*n*g*R*w*p*q*r*y*S*A*B*C*K*L*T*U*O*V*V*V*V*V*W*J%      ",
"      J%X*Y*Z*`* =.=+=@=#=$=%=&=*===-=;=>=,='=)=!=~=t*{=]=^=/=(=_=_=W*W*W*W*W*W*W*W*W*W*J%      ",
"      J%J%J%J%J%J%J%J%J%J%J%J%J%J%J%J%J%J%J%J%J%J%J%J%J%J%J%J%J%J%J%J%J%J%J%J%J%J%J%J%J%J%      ",
"                                                                                                ",
"                                                                                                ",
"                                                                                                ",
"                                                                                                ",
"                                                                                                "};
