/* XPM */
static char * background_xpm[] = {
"40 40 6 1",
" 	c None",
".	c #485068",
"+	c #505878",
"@	c #505870",
"#	c #505470",
"$	c #485468",
".+@#.+@#.+@#.+@#.+@#.+@#.+@#.+@#.+@#.+@#",
"$#@.$#@.$#@.$#@.$#@.$#@.$#@.$#@.$#@.$#@.",
".#.#.#.#.#.#.#.#.#.#.#.#.#.#.#.#.#.#.#.#",
"..$...$...$...$...$...$...$...$...$...$.",
".+@#.+@#.+@#.+@#.+@#.+@#.+@#.+@#.+@#.+@#",
"$#@.$#@.$#@.$#@.$#@.$#@.$#@.$#@.$#@.$#@.",
".#.#.#.#.#.#.#.#.#.#.#.#.#.#.#.#.#.#.#.#",
"..$...$...$...$...$...$...$...$...$...$.",
".+@#.+@#.+@#.+@#.+@#.+@#.+@#.+@#.+@#.+@#",
"$#@.$#@.$#@.$#@.$#@.$#@.$#@.$#@.$#@.$#@.",
".#.#.#.#.#.#.#.#.#.#.#.#.#.#.#.#.#.#.#.#",
"..$...$...$...$...$...$...$...$...$...$.",
".+@#.+@#.+@#.+@#.+@#.+@#.+@#.+@#.+@#.+@#",
"$#@.$#@.$#@.$#@.$#@.$#@.$#@.$#@.$#@.$#@.",
".#.#.#.#.#.#.#.#.#.#.#.#.#.#.#.#.#.#.#.#",
"..$...$...$...$...$...$...$...$...$...$.",
".+@#.+@#.+@#.+@#.+@#.+@#.+@#.+@#.+@#.+@#",
"$#@.$#@.$#@.$#@.$#@.$#@.$#@.$#@.$#@.$#@.",
".#.#.#.#.#.#.#.#.#.#.#.#.#.#.#.#.#.#.#.#",
"..$...$...$...$...$...$...$...$...$...$.",
".+@#.+@#.+@#.+@#.+@#.+@#.+@#.+@#.+@#.+@#",
"$#@.$#@.$#@.$#@.$#@.$#@.$#@.$#@.$#@.$#@.",
".#.#.#.#.#.#.#.#.#.#.#.#.#.#.#.#.#.#.#.#",
"..$...$...$...$...$...$...$...$...$...$.",
".+@#.+@#.+@#.+@#.+@#.+@#.+@#.+@#.+@#.+@#",
"$#@.$#@.$#@.$#@.$#@.$#@.$#@.$#@.$#@.$#@.",
".#.#.#.#.#.#.#.#.#.#.#.#.#.#.#.#.#.#.#.#",
"..$...$...$...$...$...$...$...$...$...$.",
".+@#.+@#.+@#.+@#.+@#.+@#.+@#.+@#.+@#.+@#",
"$#@.$#@.$#@.$#@.$#@.$#@.$#@.$#@.$#@.$#@.",
".#.#.#.#.#.#.#.#.#.#.#.#.#.#.#.#.#.#.#.#",
"..$...$...$...$...$...$...$...$...$...$.",
".+@#.+@#.+@#.+@#.+@#.+@#.+@#.+@#.+@#.+@#",
"$#@.$#@.$#@.$#@.$#@.$#@.$#@.$#@.$#@.$#@.",
".#.#.#.#.#.#.#.#.#.#.#.#.#.#.#.#.#.#.#.#",
"..$...$...$...$...$...$...$...$...$...$.",
".+@#.+@#.+@#.+@#.+@#.+@#.+@#.+@#.+@#.+@#",
"$#@.$#@.$#@.$#@.$#@.$#@.$#@.$#@.$#@.$#@.",
".#.#.#.#.#.#.#.#.#.#.#.#.#.#.#.#.#.#.#.#",
"..$...$...$...$...$...$...$...$...$...$."};
