/* XPM */
static char * frameATR_xpm[] = {
"6 30 3 1",
" 	c None",
".	c #1C67C4",
"+	c #2173D9",
"......",
"+++++.",
"+++++.",
"+++++.",
"+++++.",
"+++++.",
"+++++.",
"+++++.",
"+++++.",
"+++++.",
"+++++.",
"+++++.",
"+++++.",
"+++++.",
"+++++.",
"+++++.",
"+++++.",
"+++++.",
"+++++.",
"+++++.",
"+++++.",
"+++++.",
"+++++.",
"+++++.",
"+++++.",
"+++++.",
"+++++.",
"+++++.",
"+++++.",
"+++++."};
