/* XPM */
static char * frameITL_xpm[] = {
"6 30 3 1",
" 	c None",
".	c #4275BD",
"+	c #3963AB",
"......",
".+++++",
".+++++",
".+++++",
".+++++",
".+++++",
".+++++",
".+++++",
".+++++",
".+++++",
".+++++",
".+++++",
".+++++",
".+++++",
".+++++",
".+++++",
".+++++",
".+++++",
".+++++",
".+++++",
".+++++",
".+++++",
".+++++",
".+++++",
".+++++",
".+++++",
".+++++",
".+++++",
".+++++",
".+++++"};
