/* XPM */
static char * frameIBR_xpm[] = {
"6 30 3 1",
" 	c None",
".	c #3963AB",
"+	c #4275BD",
".....+",
".....+",
".....+",
".....+",
".....+",
".....+",
".....+",
".....+",
".....+",
".....+",
".....+",
".....+",
".....+",
".....+",
".....+",
".....+",
".....+",
".....+",
".....+",
".....+",
".....+",
".....+",
".....+",
".....+",
".....+",
".....+",
".....+",
".....+",
".....+",
"++++++"};
