/* XPM */
static char * frameABR_xpm[] = {
"6 30 3 1",
" 	c None",
".	c #2173D9",
"+	c #1C67C4",
".....+",
".....+",
".....+",
".....+",
".....+",
".....+",
".....+",
".....+",
".....+",
".....+",
".....+",
".....+",
".....+",
".....+",
".....+",
".....+",
".....+",
".....+",
".....+",
".....+",
".....+",
".....+",
".....+",
".....+",
".....+",
".....+",
".....+",
".....+",
".....+",
"++++++"};
