/* XPM */
static char * maximizeA_xpm[] = {
"27 52 24 1",
" 	c None",
".	c #1C67C4",
"+	c #2173D9",
"@	c #C6DBF6",
"#	c #C7DBF6",
"$	c #C6DCF4",
"%	c #C7DCF7",
"&	c #427CF7",
"*	c #427CF9",
"=	c #437EF6",
"-	c #417DF7",
";	c #437DF8",
">	c #417BF6",
",	c #FFFFFF",
"'	c #FFFEFF",
")	c #FEFFFF",
"!	c #FFFFFD",
"~	c #447CF7",
"{	c #417DF9",
"]	c #427DF5",
"^	c #407CF8",
"/	c #417BF8",
"(	c #1856A3",
"_	c #000000",
"...........................",
"+++++++++++++++++++++++++++",
"+++++++++++++++++++++++++++",
"+++++++++++++++++++++++++++",
"+@#@@@@@@@@#@@@@@@$@%@%$@@+",
"+@&&&&&*&&*&&&&=&&&&&&&&&@+",
"+@&&&&&*&&-&&&&&&;&&>&&&&@+",
"+@&&&&>&&&&-&&&&&&&&&&&&&@+",
"+@&&&&&&&&>&>-&&&&&&&&&&&@+",
"+@&&&&&&&,',,,,),!&&&&&&&@+",
"+@&&&&&**,,,,,,,,,&&&&&&&@+",
"+@&&&&&&&,*--&&&&,&&&~&&&@+",
"+@&&&&&&{,&&&&&>&,&&&&&&&@+",
"+@&&&&&&-,&&&&&&&,&&&&&&&@+",
"+@&&&&&&&'&&&&&~&,&-&&&&&@+",
"+@&&&&&&&,-&*-&&;,&&&&&&&@+",
"+@&&&&&&&',,,,,,,,&&&&&&&@+",
"+@&&&&;&&&&&*&&&-&]&&&&&&@+",
"+@&&&&&&&&&&&&&-&&&^]&&&&@+",
"+@&&&&&*&&&**>>&&&&&>&&&&@+",
"+@&&&&&&&&&&&&&&~&&&&/&&&@+",
"+%@@@@@@@@@@@@@@@@@@@@@@#@+",
"+++++++++++++++++++++++++++",
"+++++++++++++++++++++++++++",
"+++++++++++++++++++++++++++",
"(((((((((((((((((((((((((((",
"___________________________",
"___________________________",
"___________________________",
"___________________________",
"___________________________",
"___________________________",
"___________________________",
"___________________________",
"___________________________",
"___________________________",
"___________________________",
"___________________________",
"___________________________",
"___________________________",
"___________________________",
"___________________________",
"___________________________",
"___________________________",
"___________________________",
"___________________________",
"___________________________",
"___________________________",
"___________________________",
"___________________________",
"___________________________",
"___________________________"};
