/* XPM */
static char * minimizeA_xpm[] = {
"29 52 8 1",
" 	c None",
".	c #1C67C4",
"+	c #2173D9",
"@	c #C6DBF6",
"#	c #427CF7",
"$	c #FFFFFF",
"%	c #1856A3",
"&	c #000000",
".............................",
"+++++++++++++++++++++++++++++",
"+++++++++++++++++++++++++++++",
"+++++++++++++++++++++++++++++",
"+@@@@@@@@@@@@@@@@@@@@@@@@@@@+",
"+@#########################@+",
"+@#########################@+",
"+@#########################@+",
"+@#########################@+",
"+@#########################@+",
"+@#########################@+",
"+@#########################@+",
"+@#########################@+",
"+@#########################@+",
"+@#########################@+",
"+@#########$$$$$$$$########@+",
"+@#########$$$$$$$$########@+",
"+@#########################@+",
"+@#########################@+",
"+@#########################@+",
"+@#########################@+",
"+@@@@@@@@@@@@@@@@@@@@@@@@@@@+",
"+++++++++++++++++++++++++++++",
"+++++++++++++++++++++++++++++",
"+++++++++++++++++++++++++++++",
"%%%%%%%%%%%%%%%%%%%%%%%%%%%%%",
"&&&&&&&&&&&&&&&&&&&&&&&&&&&&&",
"&&&&&&&&&&&&&&&&&&&&&&&&&&&&&",
"&&&&&&&&&&&&&&&&&&&&&&&&&&&&&",
"&&&&&&&&&&&&&&&&&&&&&&&&&&&&&",
"&&&&&&&&&&&&&&&&&&&&&&&&&&&&&",
"&&&&&&&&&&&&&&&&&&&&&&&&&&&&&",
"&&&&&&&&&&&&&&&&&&&&&&&&&&&&&",
"&&&&&&&&&&&&&&&&&&&&&&&&&&&&&",
"&&&&&&&&&&&&&&&&&&&&&&&&&&&&&",
"&&&&&&&&&&&&&&&&&&&&&&&&&&&&&",
"&&&&&&&&&&&&&&&&&&&&&&&&&&&&&",
"&&&&&&&&&&&&&&&&&&&&&&&&&&&&&",
"&&&&&&&&&&&&&&&&&&&&&&&&&&&&&",
"&&&&&&&&&&&&&&&&&&&&&&&&&&&&&",
"&&&&&&&&&&&&&&&&&&&&&&&&&&&&&",
"&&&&&&&&&&&&&&&&&&&&&&&&&&&&&",
"&&&&&&&&&&&&&&&&&&&&&&&&&&&&&",
"&&&&&&&&&&&&&&&&&&&&&&&&&&&&&",
"&&&&&&&&&&&&&&&&&&&&&&&&&&&&&",
"&&&&&&&&&&&&&&&&&&&&&&&&&&&&&",
"&&&&&&&&&&&&&&&&&&&&&&&&&&&&&",
"&&&&&&&&&&&&&&&&&&&&&&&&&&&&&",
"&&&&&&&&&&&&&&&&&&&&&&&&&&&&&",
"&&&&&&&&&&&&&&&&&&&&&&&&&&&&&",
"&&&&&&&&&&&&&&&&&&&&&&&&&&&&&",
"&&&&&&&&&&&&&&&&&&&&&&&&&&&&&"};
