/* XPM */
static char * restoreO_xpm[] = {
"27 52 11 1",
" 	c None",
".	c #1C67C4",
"+	c #2173D9",
"@	c #C6DBF6",
"#	c #C7DBF6",
"$	c #C6DCF4",
"%	c #C7DCF7",
"&	c #3FCBFE",
"*	c #FFFFFF",
"=	c #1856A3",
"-	c #2761D9",
"...........................",
"+++++++++++++++++++++++++++",
"+++++++++++++++++++++++++++",
"+++++++++++++++++++++++++++",
"+@#@@@@@@@@#@@@@@@$@%@%$@@+",
"+@&&&&&&&&&&&&&&&&&&&&&&&@+",
"+@&&&&&&&&&&&&&&&&&&&&&&&@+",
"+@&&&&&&&&&&&&&&&&&&&&&&&@+",
"+@&&&&&&&&&&&&&&&&&&&&&&&@+",
"+@&&&&&&&&&&******&&&&&&&@+",
"+@&&&&&&&&&&*&&&&*&&&&&&&@+",
"+@&&&&&&&******&&*&&&&&&&@+",
"+@&&&&&&&******&&*&&&&&&&@+",
"+@&&&&&&&*&&&&*&&*&&&&&&&@+",
"+@&&&&&&&*&&&&****&&&&&&&@+",
"+@&&&&&&&*&&&&*&&&&&&&&&&@+",
"+@&&&&&&&******&&&&&&&&&&@+",
"+@&&&&&&&&&&&&&&&&&&&&&&&@+",
"+@&&&&&&&&&&&&&&&&&&&&&&&@+",
"+@&&&&&&&&&&&&&&&&&&&&&&&@+",
"+@&&&&&&&&&&&&&&&&&&&&&&&@+",
"+%@@@@@@@@@@@@@@@@@@@@@@#@+",
"+++++++++++++++++++++++++++",
"+++++++++++++++++++++++++++",
"+++++++++++++++++++++++++++",
"===========================",
"...........................",
"+++++++++++++++++++++++++++",
"+++++++++++++++++++++++++++",
"+++++++++++++++++++++++++++",
"+@#@@@@@@@@#@@@@@@$@%@%$@@+",
"+@-----------------------@+",
"+@-----------------------@+",
"+@-----------------------@+",
"+@-----------------------@+",
"+@----------******-------@+",
"+@----------*----*-------@+",
"+@-------******--*-------@+",
"+@-------******--*-------@+",
"+@-------*----*--*-------@+",
"+@-------*----****-------@+",
"+@-------*----*----------@+",
"+@-------******----------@+",
"+@-----------------------@+",
"+@-----------------------@+",
"+@-----------------------@+",
"+@-----------------------@+",
"+%@@@@@@@@@@@@@@@@@@@@@@#@+",
"+++++++++++++++++++++++++++",
"+++++++++++++++++++++++++++",
"+++++++++++++++++++++++++++",
"==========================="};
