/* XPM */
static char * restoreI_xpm[] = {
"27 52 18 1",
" 	c None",
".	c #4275BD",
"+	c #3963AB",
"@	c #C6DBF6",
"#	c #C7DBF6",
"$	c #C6DCF4",
"%	c #C7DCF7",
"&	c #427CF7",
"*	c #427CF9",
"=	c #437EF6",
"-	c #417BF6",
";	c #FFFFFF",
">	c #447CF7",
",	c #437DF8",
"'	c #427DF5",
")	c #417BF8",
"!	c #364D78",
"~	c #000000",
"...........................",
"+++++++++++++++++++++++++++",
"+++++++++++++++++++++++++++",
"+++++++++++++++++++++++++++",
"+@#@@@@@@@@#@@@@@@$@%@%$@@+",
"+@&&&&&*&&*&&&&=&&&&&&&&&@+",
"+@&&&&&&&&&&&&&&&&&&-&&&&@+",
"+@&&&&-&&&&&&&&&&&&&&&&&&@+",
"+@&&&&&&&&&&&&&&&&&&&&&&&@+",
"+@&&&&&&&&&&;;;;;;&&&&&&&@+",
"+@&&&&&&&&&&;&&&&;&&&&&&&@+",
"+@&&&&&&&;;;;;;&&;&&&>&&&@+",
"+@&&&&&&&;;;;;;&&;&&&&&&&@+",
"+@&&&&&&&;&&&&;&&;&&&&&&&@+",
"+@&&&&&&&;&&&&;;;;&&&&&&&@+",
"+@&&&&&&&;&&&&;&&&&&&&&&&@+",
"+@&&&&&&&;;;;;;&&&&&&&&&&@+",
"+@&&&&,&&&&&&&&&&&&&&&&&&@+",
"+@&&&&&&&&&&&&&&&&&&'&&&&@+",
"+@&&&&&*&&&**--&&&&&-&&&&@+",
"+@&&&&&&&&&&&&&&>&&&&)&&&@+",
"+%@@@@@@@@@@@@@@@@@@@@@@#@+",
"+++++++++++++++++++++++++++",
"+++++++++++++++++++++++++++",
"+++++++++++++++++++++++++++",
"!!!!!!!!!!!!!!!!!!!!!!!!!!!",
"~~~~~~~~~~~~~~~~~~~~~~~~~~~",
"~~~~~~~~~~~~~~~~~~~~~~~~~~~",
"~~~~~~~~~~~~~~~~~~~~~~~~~~~",
"~~~~~~~~~~~~~~~~~~~~~~~~~~~",
"~~~~~~~~~~~~~~~~~~~~~~~~~~~",
"~~~~~~~~~~~~~~~~~~~~~~~~~~~",
"~~~~~~~~~~~~~~~~~~~~~~~~~~~",
"~~~~~~~~~~~~~~~~~~~~~~~~~~~",
"~~~~~~~~~~~~~~~~~~~~~~~~~~~",
"~~~~~~~~~~~~~~~~~~~~~~~~~~~",
"~~~~~~~~~~~~~~~~~~~~~~~~~~~",
"~~~~~~~~~~~~~~~~~~~~~~~~~~~",
"~~~~~~~~~~~~~~~~~~~~~~~~~~~",
"~~~~~~~~~~~~~~~~~~~~~~~~~~~",
"~~~~~~~~~~~~~~~~~~~~~~~~~~~",
"~~~~~~~~~~~~~~~~~~~~~~~~~~~",
"~~~~~~~~~~~~~~~~~~~~~~~~~~~",
"~~~~~~~~~~~~~~~~~~~~~~~~~~~",
"~~~~~~~~~~~~~~~~~~~~~~~~~~~",
"~~~~~~~~~~~~~~~~~~~~~~~~~~~",
"~~~~~~~~~~~~~~~~~~~~~~~~~~~",
"~~~~~~~~~~~~~~~~~~~~~~~~~~~",
"~~~~~~~~~~~~~~~~~~~~~~~~~~~",
"~~~~~~~~~~~~~~~~~~~~~~~~~~~",
"~~~~~~~~~~~~~~~~~~~~~~~~~~~",
"~~~~~~~~~~~~~~~~~~~~~~~~~~~"};
