/* XPM */
static char * linux7_xpm[] = {
"45 20 199 2",
"  	c None",
". 	c #080808",
"+ 	c #161615",
"@ 	c #191918",
"# 	c #111111",
"$ 	c #787976",
"% 	c #A5A6A2",
"& 	c #A4A5A1",
"* 	c #A4A6A2",
"= 	c #6E706C",
"- 	c #1F201F",
"; 	c #8D8F8A",
"> 	c #FFFFFF",
", 	c #FCFCFB",
"' 	c #FCFCFC",
") 	c #D4D5D2",
"! 	c #80827F",
"~ 	c #313230",
"{ 	c #2D2E2C",
"] 	c #2E2F2D",
"^ 	c #252624",
"/ 	c #090909",
"( 	c #888A86",
"_ 	c #F5F5F3",
": 	c #F6F6F4",
"< 	c #F7F7F5",
"[ 	c #FFFFFE",
"} 	c #E7E8E6",
"| 	c #CBCCC9",
"1 	c #C9CAC7",
"2 	c #CDCECB",
"3 	c #80817E",
"4 	c #252524",
"5 	c #676965",
"6 	c #9B9C9A",
"7 	c #949592",
"8 	c #939592",
"9 	c #939491",
"0 	c #929490",
"a 	c #979895",
"b 	c #999B98",
"c 	c #999A98",
"d 	c #9A9B98",
"e 	c #9B9C99",
"f 	c #9B9D9A",
"g 	c #9C9D9A",
"h 	c #A0A19E",
"i 	c #70716D",
"j 	c #2A2A29",
"k 	c #454844",
"l 	c #666661",
"m 	c #72726D",
"n 	c #787872",
"o 	c #7E7D77",
"p 	c #83837D",
"q 	c #898884",
"r 	c #8E8F8A",
"s 	c #959590",
"t 	c #959794",
"u 	c #919390",
"v 	c #8D8E8B",
"w 	c #888986",
"x 	c #838581",
"y 	c #7E807D",
"z 	c #7B7C79",
"A 	c #70726E",
"B 	c #4A4C49",
"C 	c #454744",
"D 	c #5B5D5A",
"E 	c #696A67",
"F 	c #696B66",
"G 	c #6A6C67",
"H 	c #6C6D69",
"I 	c #6D6E6A",
"J 	c #6E6F6B",
"K 	c #656763",
"L 	c #B4B4B3",
"M 	c #BABAB9",
"N 	c #6E6F6C",
"O 	c #6C6E6B",
"P 	c #6B6D6A",
"Q 	c #6A6C69",
"R 	c #6B6C69",
"S 	c #60615E",
"T 	c #484B48",
"U 	c #3F4240",
"V 	c #595A56",
"W 	c #666764",
"X 	c #646662",
"Y 	c #636561",
"Z 	c #60625D",
"` 	c #BBBBBA",
" .	c #F9F9F9",
"..	c #FBFBFB",
"+.	c #C5C5C4",
"@.	c #61635F",
"#.	c #5B5B58",
"$.	c #444644",
"%.	c #3B3E3B",
"&.	c #575955",
"*.	c #656764",
"=.	c #6A6C68",
"-.	c #C6C6C4",
";.	c #F4F5F4",
">.	c #F6F7F6",
",.	c #F5F6F5",
"'.	c #D0D1CF",
").	c #6D6F6B",
"!.	c #626460",
"~.	c #595B57",
"{.	c #3E413F",
"].	c #373A38",
"^.	c #585A55",
"/.	c #767774",
"(.	c #C4C5C3",
"_.	c #E8E8E7",
":.	c #E6E6E5",
"<.	c #E5E5E4",
"[.	c #E7E7E6",
"}.	c #CDCECD",
"|.	c #7A7B77",
"1.	c #3A3E3B",
"2.	c #323534",
"3.	c #555854",
"4.	c #727370",
"5.	c #AFAFAE",
"6.	c #D3D4D3",
"7.	c #D4D6D5",
"8.	c #D4D5D4",
"9.	c #D5D6D5",
"0.	c #D4D4D3",
"a.	c #B5B6B4",
"b.	c #767875",
"c.	c #585B57",
"d.	c #353837",
"e.	c #2D2F30",
"f.	c #545754",
"g.	c #575A55",
"h.	c #9C9D9B",
"i.	c #C7C7C7",
"j.	c #C5C6C5",
"k.	c #AFB0AE",
"l.	c #ADAEAD",
"m.	c #C4C5C4",
"n.	c #A8AAA8",
"o.	c #565854",
"p.	c #575A57",
"q.	c #303333",
"r.	c #272A2A",
"s.	c #525553",
"t.	c #5F615D",
"u.	c #959694",
"v.	c #B4B5B4",
"w.	c #B7B8B7",
"x.	c #5D5F5B",
"y.	c #B5B6B5",
"z.	c #B3B4B3",
"A.	c #9E9F9D",
"B.	c #5E605C",
"C.	c #666763",
"D.	c #555855",
"E.	c #2B2F2E",
"F.	c #232626",
"G.	c #505250",
"H.	c #60625E",
"I.	c #8C8D8A",
"J.	c #A5A7A4",
"K.	c #A7A9A6",
"L.	c #686A66",
"M.	c #A6A7A5",
"N.	c #A4A6A3",
"O.	c #666863",
"P.	c #535553",
"Q.	c #272929",
"R.	c #1E2122",
"S.	c #505351",
"T.	c #696A66",
"U.	c #676964",
"V.	c #737571",
"W.	c #7B7D79",
"X.	c #7B7C78",
"Y.	c #757773",
"Z.	c #535654",
"`.	c #222525",
" +	c #141517",
".+	c #3C4142",
"++	c #44494A",
"@+	c #444949",
"#+	c #434848",
"$+	c #444848",
"%+	c #424747",
"&+	c #424647",
"*+	c #454A4A",
"=+	c #3D4343",
"-+	c #17181A",
";+	c #0D0E0F",
">+	c #0D0E0E",
",+	c #0C0D0E",
"'+	c #070707",
". . . . . . . . . . . . . . . . . . . . . . . . . . . . . . . . . . . . . . . . . . . . . ",
". . . + @ @ @ @ @ # . . . . . . . . . . . . . . . . . . . . . . . . . . . . . . . . . . . ",
". . . $ % & & * % = - . . . . . . . . . . . . . . . . . . . . . . . . . . . . . . . . . . ",
". . . ; > , , , ' ) ! ~ { { { { { { { ] ^ / . . . . . . . . . . . . . . . . . . . . . . . ",
". . . ( > _ : : < [ } | 1 1 1 1 1 1 1 2 3 . . . . . . . . . . . . . . . . . . . . . . . . ",
". . 4 5 6 7 7 8 9 0 a b c d d e e f g h i j . . . . . . . . . . . . . . . . . . . . . . . ",
". . k l m n o p q r s 9 t a u v w x y z A B . . . . . . . . . . . . . . . . . . . . . . . ",
". . C D E F G H I J K L M 5 = N O P Q R S T . . . . . . . . . . . . . . . . . . . . . . . ",
". . U V W X X X Y Z `  ...+.@.Y X X X W #.$.. . . . . . . . . . . . . . . . . . . . . . . ",
". . %.&.*.X X Y =.-.;.>.>.,.'.).!.X X *.~.{.. . . . . . . . . . . . . . . . . . . . . . . ",
". . ].^.K X Y /.(._.:.<.<.:.[.}.|.Y X K ~.1.. . . . . . . . . . . . . . . . . . . . . . . ",
". . 2.3.K Y 4.5.6.7.8.9.9.8.8.0.a.b.!.K c.d.. . . . . . . . . . . . . . . . . . . . . . . ",
". . e.f.K X Y g.h.i.j.k.l.m.j.n.o.Y X K p.q.. . . . . . . . . . . . . . . . . . . . . . . ",
". . r.s.K X X t.u.v.w.!.x.y.z.A.B.X X C.D.E.. . . . . . . . . . . . . . . . . . . . . . . ",
". . F.G.K X X H.I.J.K.L.X M.N.8 t.X X O.P.Q.. . . . . . . . . . . . . . . . . . . . . . . ",
". . R.S.T.U.U.O.V.W.W.L.U.W.X.Y.C.U.U.F Z.`.. . . . . . . . . . . . . . . . . . . . . . . ",
". .  +.+++@+#+$+%+&+&+#+#+&+&+%+$+#+@+*+=+-+. . . . . . . . . . . . . . . . . . . . . . . ",
". . / ;+>+,+>+>+>+>+>+>+>+>+>+>+>+>+>+,+>+/ . . . . . . . . . . . . . . . . . . . . . . . ",
". . . . '+'+'+'+'+'+'+'+'+'+'+'+'+'+'+'+'+. . . . . . . . . . . . . . . . . . . . . . . . ",
". . . . . . . . . . . . . . . . . . . . . . . . . . . . . . . . . . . . . . . . . . . . . "};
