/* XPM */
static char * linux4_xpm[] = {
"45 20 73 1",
" 	c None",
".	c #080808",
"+	c #2A2A29",
"@	c #B4B3AF",
"#	c #EDEBE7",
"$	c #FFFDF8",
"%	c #4D4D4B",
"&	c #E5E4DF",
"*	c #595857",
"=	c #DCDAD6",
"-	c #F6F4EF",
";	c #C2C1BD",
">	c #C9C8C4",
",	c #FCFAF5",
"'	c #D7D5D1",
")	c #3A3938",
"!	c #FEFCF7",
"~	c #CFCDC9",
"{	c #FDFBF6",
"]	c #BBB9B6",
"^	c #7C7B78",
"/	c #1E1E1D",
"(	c #3B3A39",
"_	c #979693",
":	c #7E7D7A",
"<	c #F1EFEA",
"[	c #949390",
"}	c #EBE9E5",
"|	c #D9D7D3",
"1	c #FBF9F4",
"2	c #252424",
"3	c #51514F",
"4	c #0E0E0E",
"5	c #D5D3CF",
"6	c #D2D0CC",
"7	c #585756",
"8	c #50504E",
"9	c #7B7A78",
"0	c #5C5B59",
"a	c #F2F0EB",
"b	c #797876",
"c	c #989794",
"d	c #6D6C6A",
"e	c #E4E3DE",
"f	c #BAB8B5",
"g	c #B8B6B3",
"h	c #A19F9C",
"i	c #403F3E",
"j	c #BDBBB8",
"k	c #CBCAC6",
"l	c #F7F5F0",
"m	c #706F6D",
"n	c #1F1F1E",
"o	c #2C2C2B",
"p	c #C6C5C1",
"q	c #464645",
"r	c #E1E0DB",
"s	c #61605E",
"t	c #090909",
"u	c #3C3B3A",
"v	c #636260",
"w	c #EAE8E4",
"x	c #BFBDB9",
"y	c #D0CECA",
"z	c #F4F2ED",
"A	c #D8D6D2",
"B	c #0D0D0D",
"C	c #83827F",
"D	c #DDDBD7",
"E	c #F8F6F1",
"F	c #DAD8D4",
"G	c #8E8D8A",
"H	c #1D1D1C",
".............................................",
".............................................",
".............................................",
".............................................",
".............................................",
".............................................",
"........+@#$$$$%$&*=-;+...$$%.%$$............",
"........>$,=$$')$$!~{$]...$$%.%$$............",
"........#$^/$$(.$$_.:$<...$$%.%$$............",
"........[$}|$12.$$*.3$$...$$%.%$$............",
"........451-67..$$%.%$$...$$8.*$$............",
"........9$0.....$$%.%$$...a$b.c$$............",
"........d$efghi.$$%.%$$...j$1kl$$............",
"........m-$$$$ln$$%.%$$...opl'qr$............",
".......s$dtt%$$u.............................",
".......v$wxyz$AB.............................",
".......tCDEaFGH..............................",
".............................................",
".............................................",
"............................................."};
