/* XPM */
static char * linux5_xpm[] = {
"45 20 80 1",
" 	c None",
".	c #080808",
"+	c #282828",
"@	c #838280",
"#	c #2A2A29",
"$	c #959491",
"%	c #FFFDF8",
"&	c #4D4D4B",
"*	c #343433",
"=	c #BBB9B6",
"-	c #EEECE8",
";	c #F2F0EB",
">	c #CAC9C5",
",	c #6A6A68",
"'	c #8A8987",
")	c #F8F6F1",
"!	c #141414",
"~	c #D7D5D1",
"{	c #F4F2ED",
"]	c #1A1A19",
"^	c #E0DFDA",
"/	c #4A4A48",
"(	c #DEDCD8",
"_	c #FBF9F4",
":	c #D9D7D3",
"<	c #E5E4DF",
"[	c #C6C5C1",
"}	c #F3F1EC",
"|	c #908F8C",
"1	c #BAB8B5",
"2	c #CDCCC8",
"3	c #0A0A0A",
"4	c #D8D6D2",
"5	c #DFDDD8",
"6	c #C3C2BE",
"7	c #F0EEE9",
"8	c #81807D",
"9	c #FAF8F3",
"0	c #BEBCB8",
"a	c #F1EFEA",
"b	c #111111",
"c	c #161616",
"d	c #121212",
"e	c #5D5C5A",
"f	c #A9A8A5",
"g	c #090909",
"h	c #7A7977",
"i	c #CFCDC9",
"j	c #20201F",
"k	c #8E8D8A",
"l	c #C9C8C4",
"m	c #595857",
"n	c #393938",
"o	c #ABAAA7",
"p	c #FDFBF6",
"q	c #9B9A97",
"r	c #93928F",
"s	c #A3A29F",
"t	c #181818",
"u	c #4F4F4D",
"v	c #2C2C2B",
"w	c #706F6D",
"x	c #585756",
"y	c #605F5D",
"z	c #858482",
"A	c #DDDBD7",
"B	c #BFBDB9",
"C	c #EBE9E5",
"D	c #C2C1BD",
"E	c #D5D3CF",
"F	c #E4E3DE",
"G	c #CCCBC7",
"H	c #E9E7E3",
"I	c #C0BEBA",
"J	c #B2B1AD",
"K	c #222121",
"L	c #484847",
"M	c #D0CECA",
"N	c #3C3B3A",
"O	c #3D3C3B",
".............................................",
".............................................",
".............................................",
".............................................",
".............+@#...................+@#.......",
".............$%&...................$%&.......",
".....*=-;>,.')%%%.!'~{>@]..%^/(_..')%%%......",
".....:%<[}|.1%%21.34567%8..%%9(0..1%%21......",
".....a%8.bc..%%&...d..e%^..%%fg....%%&.......",
".....h%%ie...%%&..jkl9%%%..%%m.....%%&.......",
"......nop%q..%%&..r%stu%%..%%&.....%%&.......",
".....v..w%;..9%x..-%y.z%%..%%&.....9%x.......",
".....%ABC%D..E%FG.i%HI-%%..%%&.....E%FG......",
".....J-pHfK..L()M.NE)iOl%..%%&.....L()M......",
".............................................",
".............................................",
".............................................",
".............................................",
".............................................",
"............................................."};
