/* XPM */
static char * linux6_xpm[] = {
"49 20 120 2",
"  	c None",
". 	c #080808",
"+ 	c #D1CFCB",
"@ 	c #EEECE8",
"# 	c #2C2C2B",
"$ 	c #8D8C89",
"% 	c #A8A7A4",
"& 	c #1B1B1A",
"* 	c #FFFDF8",
"= 	c #4D4D4B",
"- 	c #646462",
"; 	c #F4F2ED",
"> 	c #EAE8E4",
", 	c #B2B1AD",
"' 	c #191918",
") 	c #484847",
"! 	c #C5C4C0",
"~ 	c #F0EEE9",
"{ 	c #E4E3DE",
"] 	c #A4A3A0",
"^ 	c #212020",
"/ 	c #DEDCD8",
"( 	c #5B5A58",
"_ 	c #4F4F4D",
": 	c #686866",
"< 	c #3D3C3B",
"[ 	c #0B0B0B",
"} 	c #E5E4DF",
"| 	c #595857",
"1 	c #DDDBD7",
"2 	c #F5F3EE",
"3 	c #C9C8C4",
"4 	c #393938",
"5 	c #91908D",
"6 	c #ECEAE6",
"7 	c #DBD9D5",
"8 	c #848381",
"9 	c #0E0E0E",
"0 	c #5F5E5C",
"a 	c #E0DED9",
"b 	c #D6D4D0",
"c 	c #434241",
"d 	c #FEFCF7",
"e 	c #D5D3CF",
"f 	c #0C0C0C",
"g 	c #999895",
"h 	c #959491",
"i 	c #898886",
"j 	c #F9F7F2",
"k 	c #A09E9B",
"l 	c #7A7977",
"m 	c #AEADA9",
"n 	c #CFCDC9",
"o 	c #FDFBF6",
"p 	c #DCDAD6",
"q 	c #50504E",
"r 	c #CAC9C5",
"s 	c #ACABA8",
"t 	c #131313",
"u 	c #BEBCB8",
"v 	c #A19F9C",
"w 	c #090909",
"x 	c #D4D2CE",
"y 	c #51514F",
"z 	c #555453",
"A 	c #C2C1BD",
"B 	c #C4C3BF",
"C 	c #D8D6D2",
"D 	c #B6B4B1",
"E 	c #696967",
"F 	c #7E7D7A",
"G 	c #62615F",
"H 	c #C3C2BE",
"I 	c #9C9B98",
"J 	c #EDEBE7",
"K 	c #676765",
"L 	c #151515",
"M 	c #FBF9F4",
"N 	c #FCFAF5",
"O 	c #181818",
"P 	c #F6F4EF",
"Q 	c #9F9D9A",
"R 	c #1A1A19",
"S 	c #EFEDE8",
"T 	c #242323",
"U 	c #20201F",
"V 	c #979693",
"W 	c #BAB8B5",
"X 	c #656563",
"Y 	c #D3D1CD",
"Z 	c #61605E",
"` 	c #706F6D",
" .	c #6F6E6C",
"..	c #605F5D",
"+.	c #6C6B69",
"@.	c #D7D5D1",
"#.	c #93928F",
"$.	c #C8C7C3",
"%.	c #A7A6A3",
"&.	c #1E1E1D",
"*.	c #C1BFBB",
"=.	c #A3A29F",
"-.	c #807F7C",
";.	c #C0BEBA",
">.	c #292928",
",.	c #C1C0BC",
"'.	c #424140",
").	c #BDBBB8",
"!.	c #D2D0CC",
"~.	c #3C3B3A",
"{.	c #FAF8F3",
"].	c #F2F0EB",
"^.	c #0A0A0A",
"/.	c #4C4C4A",
"(.	c #F1EFEA",
"_.	c #BCBAB7",
":.	c #E9E7E3",
"<.	c #E3E2DD",
"[.	c #B3B2AE",
"}.	c #0F0F0F",
". . . . . . . . . . . . . . . . . . . . . . . . . . . . . . . . . . . . . . . . . . . . . . . . . ",
". . . . . . . . . . . . . . . . . . . . . . . . . . . . . . . . . . . . . . . . . . . . . . . . . ",
". . . . . . . . . . . . . . . . . . . . . . . . . . . . . . . . . . . . . . . . . . . . . . . . . ",
". . . . . . . . . . . . . . . . . . . . . . . . . . . . . . . . . . . . . . . . . . . . . . . . . ",
". . + @ # . . . . . . . . . . . . . . . . . . . . . . . . . . . . . . . . . . . . . . . . . . . . ",
". . $ % & . . . . . . . . . . . . . . . . . . . . . . . . . . . . . . . . . . . . . . . . . . . . ",
". . . . . . . . . . . . . . . . . . . . . . . . . . . . . . . . . . . . . . . . . . . . . . . . . ",
". . * * = . . . - + ; > , ' . ) ! ~ { ] ^ . / * ( . _ * * : . < * ~ [ * } | 1 2 3 4 5 6 7 8 9 . . ",
". . * * = . . 0 * * a b 7 . c d * b 1 * e f g * h . i j ; k . l * m . * * d n o * * * p * * q . . ",
". . * * = . . r * s [ . t . u * v . w x * y z * n . A n B C . D * E . * * g . F * * G . H * I . . ",
". . * * = . . J * K . . . . > * * * * * * l L M N O P Q 5 d R S * T . * * | . y * * U . V * W . . ",
". . * * = . . @ * X . . . . 6 * Y W W W W Z . B * ` *  ...* +.* @.. . * * = . = * * . . #.* W . . ",
". . * * = . . $.* %.w . &.. *.* =.. . . ' . . -.* ;.* 4 >.* ,.* 5 . . * * = . = * * . . #.* W . . ",
". . * * = . . | * * 1 n M . '.o * / ).!.N . . ~.* {.].^.. > j * /.. . * * = . = * * . . #.* W . . ",
". . * * = . . . 0 n ; (., . . '._.:.N <.v . . w J * _.. . [.* P }.. . * * = . = * * . . #.* W . . ",
". . . . . . . . . . . . . . . . . . . . . . . . . . . . . . . . . . . . . . . . . . . . . . . . . ",
". . . . . . . . . . . . . . . . . . . . . . . . . . . . . . . . . . . . . . . . . . . . . . . . . ",
". . . . . . . . . . . . . . . . . . . . . . . . . . . . . . . . . . . . . . . . . . . . . . . . . ",
". . . . . . . . . . . . . . . . . . . . . . . . . . . . . . . . . . . . . . . . . . . . . . . . . ",
". . . . . . . . . . . . . . . . . . . . . . . . . . . . . . . . . . . . . . . . . . . . . . . . . "};
