/* XPM */
static char * windows_xpm[] = {
"20 20 63 1",
" 	c None",
".	c #969696",
"+	c #979797",
"@	c #A1A1A1",
"#	c #9A9A9A",
"$	c #9D9D9D",
"%	c #A0A0A0",
"&	c #9B9B9B",
"*	c #D1D1D1",
"=	c #DBDBDB",
"-	c #DADADA",
";	c #D7D7D7",
">	c #A5A5A5",
",	c #CFCFCF",
"'	c #C1C1C1",
")	c #B1B1B1",
"!	c #D9D9D9",
"~	c #A9A9A9",
"{	c #DEDEDE",
"]	c #F0F0F0",
"^	c #ECECEC",
"/	c #EEEEEE",
"(	c #E8E8E8",
"_	c #E0E0E0",
":	c #CBCBCB",
"<	c #B2B2B2",
"[	c #AAAAAA",
"}	c #A2A2A2",
"|	c #A7A7A7",
"1	c #A8A8A8",
"2	c #AEAEAE",
"3	c #ABABAB",
"4	c #ACACAC",
"5	c #A4A4A4",
"6	c #9E9E9E",
"7	c #9F9F9F",
"8	c #F2F2F2",
"9	c #FFFFFF",
"0	c #FCFCFC",
"a	c #8F8F8F",
"b	c #F6F6F6",
"c	c #C9C9C9",
"d	c #C4C4C4",
"e	c #C7C7C7",
"f	c #C6C6C6",
"g	c #F4F4F4",
"h	c #D0D0D0",
"i	c #D4D4D4",
"j	c #D5D5D5",
"k	c #D8D8D8",
"l	c #9C9C9C",
"m	c #C0C0C0",
"n	c #EAEAEA",
"o	c #E1E1E1",
"p	c #F7F7F7",
"q	c #FBFBFB",
"r	c #FEFEFE",
"s	c #D3D3D3",
"t	c #FDFDFD",
"u	c #949494",
"v	c #909090",
"w	c #929292",
"x	c #F3F3F3",
"                    ",
" .++++++.+@#$%.&    ",
"&*=-----=;>,')!~    ",
"@{]^^^^^/(@_:<^[.   ",
"}|111[[[1[2[34156   ",
"7899999999999903a   ",
"6b990c'ddddddef66$. ",
"7g90hijjjjjjkfl=)mi6",
"7g9g&(/^^^^^]-@n<:o7",
"7g9p6|1111111[4133|}",
"7g9b>q99rrrrr99r99]6",
"7g9g|r999999999999g6",
"#s{:[t99999999999986",
" uuu4t99999999999986",
"   a3099999999999986",
"   v3t99999999999986",
"   w4t999999999999x6",
"    5k=---------==h$",
"     .............. ",
"                    "};
