/* XPM */
static char * linux_xpm[] = {
"65 20 380 2",
"  	c None",
". 	c #3C4043",
"+ 	c #3F4443",
"@ 	c #B4E171",
"# 	c #8EB35B",
"$ 	c #3D4243",
"% 	c #3C3E42",
"& 	c #3C3F42",
"* 	c #3D4042",
"= 	c #CFED86",
"- 	c #BDE477",
"; 	c #D6FE8F",
"> 	c #D0F888",
", 	c #BFE679",
"' 	c #C0DB79",
") 	c #3C3E40",
"! 	c #9EBC60",
"~ 	c #D2FD85",
"{ 	c #CFFF85",
"] 	c #D0FB84",
"^ 	c #8DA457",
"/ 	c #3B3D3F",
"( 	c #7C914E",
"_ 	c #96AD57",
": 	c #525F42",
"< 	c #C6FB73",
"[ 	c #B9ED67",
"} 	c #464C40",
"| 	c #3C3F3F",
"1 	c #9DBD5A",
"2 	c #5A6645",
"3 	c #5B5C5E",
"4 	c #B5B6B6",
"5 	c #8F9091",
"6 	c #444648",
"7 	c #B3B4B5",
"8 	c #A8A9AA",
"9 	c #9FA0A1",
"0 	c #505253",
"a 	c #3B3C3E",
"b 	c #3F423E",
"c 	c #4E5840",
"d 	c #A8D857",
"e 	c #C3EE64",
"f 	c #7B8E49",
"g 	c #98BE51",
"h 	c #4D583F",
"i 	c #B5EE5D",
"j 	c #8FBB4D",
"k 	c #515D40",
"l 	c #9FC654",
"m 	c #5C6C42",
"n 	c #3C3E3E",
"o 	c #BEF864",
"p 	c #7B9A48",
"q 	c #505A40",
"r 	c #6E6F70",
"s 	c #FFFFFF",
"t 	c #FAFAFA",
"u 	c #545557",
"v 	c #9C9C9D",
"w 	c #E9E9E9",
"x 	c #595A5C",
"y 	c #B4B4B5",
"z 	c #3B3B3D",
"A 	c #657740",
"B 	c #BCFD58",
"C 	c #BCFE57",
"D 	c #B5E753",
"E 	c #A3D04C",
"F 	c #BEFF59",
"G 	c #B7F755",
"H 	c #B9FA56",
"I 	c #BAFB56",
"J 	c #7A9E42",
"K 	c #3C3D3D",
"L 	c #B6F554",
"M 	c #B8F855",
"N 	c #C1FE5A",
"O 	c #525C3F",
"P 	c #6E6E6F",
"Q 	c #B7B7B8",
"R 	c #48484A",
"S 	c #F3F3F3",
"T 	c #ABABAC",
"U 	c #E7E7E8",
"V 	c #454547",
"W 	c #3B3B3C",
"X 	c #3D3E3B",
"Y 	c #A1DD42",
"Z 	c #B7FF48",
"` 	c #BAFB4A",
" .	c #66803B",
"..	c #9ED342",
"+.	c #A9E445",
"@.	c #81A83E",
"#.	c #BBFF4A",
"$.	c #B6FB47",
"%.	c #80AB3D",
"&.	c #B1F646",
"*.	c #8CBD3E",
"=.	c #70923B",
"-.	c #B7FE48",
";.	c #B7FE47",
">.	c #92C340",
",.	c #FDFDFD",
"'.	c #5B5B5C",
").	c #A4A4A4",
"!.	c #585858",
"~.	c #ADADAE",
"{.	c #C1C1C1",
"].	c #A5A5A5",
"^.	c #525253",
"/.	c #444445",
"(.	c #626262",
"_.	c #4D4D4E",
":.	c #8D8D8D",
"<.	c #898989",
"[.	c #464647",
"}.	c #B5B5B5",
"|.	c #8A8A8B",
"1.	c #737374",
"2.	c #6F6F70",
"3.	c #3A3A3B",
"4.	c #6E8938",
"5.	c #B6FD3C",
"6.	c #89BA37",
"7.	c #84B237",
"8.	c #B1FD3B",
"9.	c #B1FE3B",
"0.	c #8EC137",
"a.	c #9DD837",
"b.	c #7DAA36",
"c.	c #3B3C3B",
"d.	c #A5EB37",
"e.	c #ADF839",
"f.	c #7DA736",
"g.	c #90C536",
"h.	c #B9FC3C",
"i.	c #5B6A39",
"j.	c #6D6D6E",
"k.	c #F0F0F0",
"l.	c #BFBFC0",
"m.	c #4C4C4D",
"n.	c #F7F7F7",
"o.	c #EFEFEF",
"p.	c #69696A",
"q.	c #F4F4F4",
"r.	c #ECECEC",
"s.	c #E6E6E7",
"t.	c #E2E2E2",
"u.	c #424243",
"v.	c #BBBBBB",
"w.	c #959596",
"x.	c #8F8F90",
"y.	c #3A393A",
"z.	c #495137",
"A.	c #4B5437",
"B.	c #3D3E39",
"C.	c #8FCF2C",
"D.	c #ACFF2B",
"E.	c #B0FE2D",
"F.	c #90C82E",
"G.	c #B0FD2D",
"H.	c #A3F12C",
"I.	c #8CC72D",
"J.	c #ABFD2B",
"K.	c #ADFF2D",
"L.	c #82B72D",
"M.	c #3B3B3A",
"N.	c #4E5936",
"O.	c #444739",
"P.	c #6D6D6D",
"Q.	c #D6D6D6",
"R.	c #626162",
"S.	c #ABABAB",
"T.	c #929292",
"U.	c #D9D8D9",
"V.	c #8E8D8E",
"W.	c #474647",
"X.	c #BDBDBD",
"Y.	c #878687",
"Z.	c #E6E6E6",
"`.	c #A7A6A7",
" +	c #D0D0D0",
".+	c #777677",
"++	c #BBBABB",
"@+	c #959595",
"#+	c #8F8F8F",
"$+	c #3A3839",
"%+	c #3F4237",
"&+	c #94D622",
"*+	c #A2F61E",
"=+	c #4F6032",
"-+	c #546732",
";+	c #A6FD1D",
">+	c #A7FF1D",
",+	c #4C5933",
"'+	c #5A732F",
")+	c #A6FE1C",
"!+	c #85BC25",
"~+	c #3C3B39",
"{+	c #6D6C6D",
"]+	c #BBBABA",
"^+	c #706E6F",
"/+	c #D6D5D5",
"(+	c #444243",
"_+	c #514F50",
":+	c #494748",
"<+	c #C3C2C3",
"[+	c #8B8A8B",
"}+	c #CCCBCB",
"|+	c #3D3B3C",
"1+	c #969596",
"2+	c #8F8E8F",
"3+	c #959495",
"4+	c #3F4037",
"5+	c #91DA15",
"6+	c #97ED11",
"7+	c #465034",
"8+	c #495632",
"9+	c #9FFB0E",
"0+	c #A1FF0F",
"a+	c #A1FF0E",
"b+	c #99F011",
"c+	c #434A34",
"d+	c #4D5D31",
"e+	c #A2FB0E",
"f+	c #85BF1B",
"g+	c #3B3B38",
"h+	c #CFCECE",
"i+	c #848283",
"j+	c #3F3D3E",
"k+	c #5C5A5B",
"l+	c #FBFBFB",
"m+	c #EDECED",
"n+	c #E7E7E7",
"o+	c #464445",
"p+	c #3D3E37",
"q+	c #3A3938",
"r+	c #77B415",
"s+	c #9CFF00",
"t+	c #9FFE00",
"u+	c #79B315",
"v+	c #A0FF00",
"w+	c #9BF602",
"x+	c #7CBA13",
"y+	c #9EFB00",
"z+	c #668D20",
"A+	c #3F4136",
"B+	c #686667",
"C+	c #E0DFDF",
"D+	c #3C3A3B",
"E+	c #484647",
"F+	c #F2F2F2",
"G+	c #C2C2C2",
"H+	c #B7B6B6",
"I+	c #464546",
"J+	c #4E5F2D",
"K+	c #98F701",
"L+	c #577427",
"M+	c #546D28",
"N+	c #90EB01",
"O+	c #92EF00",
"P+	c #638E1F",
"Q+	c #73AC16",
"R+	c #587626",
"S+	c #80C90D",
"T+	c #86D60A",
"U+	c #52692A",
"V+	c #618821",
"W+	c #414634",
"X+	c #868585",
"Y+	c #646263",
"Z+	c #DCDCDC",
"`+	c #6C6B6C",
" @	c #656465",
".@	c #6A6969",
"+@	c #BEBEBE",
"@@	c #545253",
"#@	c #393738",
"$@	c #6BA016",
"%@	c #8AE200",
"&@	c #8CE401",
"*@	c #48562D",
"=@	c #699B18",
"-@	c #6FA714",
";@	c #4E6429",
">@	c #8DE400",
",@	c #86D805",
"'@	c #506828",
")@	c #81CD08",
"!@	c #608A1D",
"~@	c #4D612A",
"{@	c #8CE500",
"]@	c #89E000",
"^@	c #60881E",
"/@	c #6D6B6C",
"(@	c #BABABA",
"_@	c #3E3C3D",
":@	c #E9E8E9",
"<@	c #757474",
"[@	c #DFDEDE",
"}@	c #969495",
"|@	c #959494",
"1@	c #8F8D8E",
"2@	c #DADADA",
"3@	c #383637",
"4@	c #444F2F",
"5@	c #82D500",
"6@	c #7FCF00",
"7@	c #72B00F",
"8@	c #639119",
"9@	c #7ED000",
"0@	c #79C205",
"a@	c #7CC803",
"b@	c #7ECC01",
"c@	c #81D200",
"d@	c #4F6727",
"e@	c #7BC507",
"f@	c #7BC704",
"g@	c #85DA00",
"h@	c #3E4233",
"i@	c #6C6A6B",
"j@	c #BAB9BA",
"k@	c #E9E8E8",
"l@	c #737172",
"m@	c #D7D6D6",
"n@	c #F5F5F5",
"o@	c #8D8C8D",
"p@	c #949394",
"q@	c #8E8D8D",
"r@	c #979697",
"s@	c #C3C3C3",
"t@	c #373536",
"u@	c #383834",
"v@	c #3D4331",
"w@	c #629314",
"x@	c #72B30B",
"y@	c #4C6128",
"z@	c #5D861A",
"A@	c #3D4231",
"B@	c #6BA80B",
"C@	c #54751E",
"D@	c #3F4530",
"E@	c #618F17",
"F@	c #424D2E",
"G@	c #4C6325",
"H@	c #3C4032",
"I@	c #4D4B4C",
"J@	c #5D5B5C",
"K@	c #363435",
"L@	c #4A5F26",
"M@	c #537121",
"N@	c #3B3E31",
"O@	c #69A904",
"P@	c #62980D",
"Q@	c #373733",
"R@	c #5B831B",
"S@	c #3E462E",
"T@	c #353434",
"U@	c #50701E",
"V@	c #65A502",
"W@	c #63A400",
"X@	c #63A004",
"Y@	c #4A6223",
"Z@	c #343333",
"`@	c #343432",
" #	c #5D9207",
".#	c #58890B",
"+#	c #5A9201",
"@#	c #5D9404",
"##	c #5A8D0A",
"$#	c #5C8E0F",
"%#	c #333232",
"&#	c #333132",
"*#	c #343430",
"=#	c #333231",
"-#	c #52810A",
";#	c #4B6C17",
". . . . . . . . + . @ # . $ . . . . . . . . . . . . . . . . . . . . . . . . . . . . . . . . . . . . . . . . . . . . . . . . . . . ",
"% & & & % & & * = - ; > , ' & % & & & % & & & % & & & % & & & & % & & & % & & & % & & % & & & % & & & % & & & & % & & & % & & & % ",
") ) ) ) ) ) ) ) ! ~ { { ] ^ ) ) ) ) ) ) ) ) ) ) ) ) ) ) ) ) ) ) ) ) ) ) ) ) ) ) ) ) ) ) ) ) ) ) ) ) ) ) ) ) ) ) ) ) ) ) ) ) ) ) ) ",
"/ / / / ( _ / / / : < [ } / / | 1 2 / / / / 3 4 5 / / / / / 6 7 8 / / / / / / / / / / / / / / / / / / / / / / / 9 4 0 / / / / / / ",
"a a b c d e a f g h i j k l m n o p q n a a r s t u a a a a v s w a a a a a a a a a a a a a a a a a a a a a a x s y a a a a a a a ",
"z z A B C D z E F G C H I F J K L M N O z z P s s Q z z z R S s w z z z z z z z z z z z z z z z z z z z z z z T U V z z z z z z z ",
"W W X Y Z `  ...+.@.#.$.%.&.*.=.-.;.>.W W W P s s ,.'.W W ).s s w W W W !.~.{.].^.W W /.(._.^.:.<.[.W W '.}.|.W W 1.}.2.W W W W W ",
"3.3.4.5.6.7.8.9.0.3.a.b.c.d.8.e.f.g.h.i.3.3.j.s k.s l.3.m.n.o.s w 3.3.p.q.s s s r.[.3.j.s s.s s s t.u.3.j.s v.3.3.w.s x.3.3.3.3.3.",
"y.y.z.A.y.B.C.D.E.F.G.H.I.J.K.L.M.y.N.O.y.y.P.s v.Q.s R.S.s T.s w y.y.U.s V.W.X.s Y.y.P.s s Z.`. +s .+y.P.s ++y.y.@+s #+y.y.y.y.y.",
"$+$+$+$+%+&+*+=+-+;+>+>+*+,+'+)+!+~+$+$+$+$+{+s ]+^+s /+t Z.(+s w $+_+s /+$+:+<+s [+$+{+s }+|+$+1+s 2+$+{+s ]+$+$+3+s 2+$+$+$+$+$+",
"$+$+$+$+4+5+6+7+8+9+0+a+b+c+d+e+f+g+$+$+$+$+{+s ]+$+h+s s i+j+s w $+k+s l+m+l+s n+o+$+{+s ]+$+$+3+s 2+$+{+s ]+$+$+3+s 2+$+$+$+$+$+",
"$+$+p+p+$+q+r+s+t+u+v+w+x+y+s+z+$+$+A+g+$+$+{+s ]+$+B+s C+D+j+s w $+E+s F+G+H+2+I+$+$+{+s ]+$+$+3+s 2+$+{+s ]+$+$+3+s 2+$+$+$+$+$+",
"$+$+J+K+L+M+N+O+P+$+Q+R+$+S+O+T+U+V+K+W+$+$+{+s ]+$+$+X+Y+$+j+s w $+$+Z+,.`+$+$+ @$+$+{+s ]+$+$+3+s 2+$+.@s +@$+@@h+s 2+$+$+$+$+$+",
"#@#@#@$@%@&@*@=@-@;@>@,@'@)@!@~@{@]@^@#@#@#@/@s (@#@#@#@#@#@_@s :@#@#@<@s ,.[@t.s }@#@/@s (@#@#@|@s 1@#@:+,.q.2@s s s 1@#@#@#@#@#@",
"3@3@4@5@6@7@3@8@9@0@6@a@b@c@d@3@e@f@g@h@3@3@i@s j@3@3@3@3@3@|+s k@3@3@3@l@m@n@Q.o@#@3@i@s j@3@3@p@s q@3@3@r@,.s o.s@s q@3@3@3@3@3@",
"t@t@u@v@w@x@t@y@z@A@B@C@D@E@F@t@0@G@H@t@t@t@t@t@t@t@t@t@t@t@t@t@t@t@t@t@t@t@t@t@t@t@t@t@t@t@t@t@t@t@t@t@t@t@I@J@$+t@t@t@t@t@t@t@t@",
"K@K@K@K@L@M@K@K@K@N@O@P@Q@K@K@K@R@S@K@K@K@K@K@K@K@K@K@K@K@K@K@K@K@K@K@K@K@K@K@K@K@K@K@K@K@K@K@K@K@K@K@K@K@K@K@K@K@K@K@K@K@K@K@K@K@",
"T@T@T@T@T@T@T@T@U@V@W@W@X@Y@T@T@T@T@T@T@T@T@T@T@T@T@T@T@T@T@T@T@T@T@T@T@T@T@T@T@T@T@T@T@T@T@T@T@T@T@T@T@T@T@T@T@T@T@T@T@T@T@T@T@T@",
"Z@Z@Z@Z@Z@Z@Z@`@ #.#+#@###$#Z@Z@Z@Z@Z@Z@Z@Z@Z@Z@Z@Z@Z@Z@Z@Z@Z@Z@Z@Z@Z@Z@Z@Z@Z@Z@Z@Z@Z@Z@Z@Z@Z@Z@Z@Z@Z@Z@Z@Z@Z@Z@Z@Z@Z@Z@Z@Z@Z@Z@Z@",
"%#%#&#%#%#%#&#%#*#=#-#;#%#=#%#%#%#&#%#%#%#&#%#%#%#&#%#%#%#&#%#%#%#%#&#%#%#%#&#%#%#&#%#%#%#&#%#%#%#&#%#%#%#&#%#%#%#%#&#%#%#%#&#%#%#"};
