/* XPM */
static char * taskbarbg_xpm[] = {
"4 25 24 1",
" 	c None",
".	c #474B4E",
"+	c #3D4144",
"@	c #3C4043",
"#	c #3C3F42",
"$	c #3C3E42",
"%	c #3C3E40",
"&	c #3B3D3F",
"*	c #3B3C3E",
"=	c #3B3B3D",
"-	c #3B3B3C",
";	c #3A3A3B",
">	c #3A393A",
",	c #3A3839",
"'	c #393738",
")	c #383637",
"!	c #373536",
"~	c #363435",
"{	c #353434",
"]	c #343333",
"^	c #333232",
"/	c #333132",
"(	c #323131",
"_	c #313030",
"....",
"++++",
"@@@@",
"#$##",
"%%%%",
"&&&&",
"****",
"====",
"----",
";;;;",
">>>>",
",,,,",
",,,,",
",,,,",
",,,,",
"''''",
"))))",
"!!!!",
"~~~~",
"{{{{",
"]]]]",
"^^^/",
"((((",
"____",
"...."};
