/* XPM */
static char * windows_xpm[] = {
"20 20 176 2",
"  	c None",
". 	c #B9BBC1",
"+ 	c #C5CACF",
"@ 	c #BCC7CD",
"# 	c #BEC8CD",
"$ 	c #C5C9CD",
"% 	c #C4C6CB",
"& 	c #C6C8CE",
"* 	c #BDC2CD",
"= 	c #B8BFCB",
"- 	c #C4C7CF",
"; 	c #C5C7CB",
"> 	c #C5C6CC",
", 	c #C6C5CE",
"' 	c #C2BECC",
") 	c #C7C5CF",
"! 	c #C2C3C9",
"~ 	c #C0C2C7",
"{ 	c #B8B3B6",
"] 	c #A67F82",
"^ 	c #A78789",
"/ 	c #BBB9BD",
"( 	c #C9CBD0",
"_ 	c #BDBFC4",
": 	c #AD9E8D",
"< 	c #AE977B",
"[ 	c #B3AFAD",
"} 	c #C7CAD0",
"| 	c #C4C5CA",
"1 	c #A1ABA1",
"2 	c #82987A",
"3 	c #9DA89D",
"4 	c #C2C4C8",
"5 	c #B1B2B9",
"6 	c #AEADB2",
"7 	c #A46163",
"8 	c #AD0F0F",
"9 	c #AA1818",
"0 	c #A47477",
"a 	c #B0B5BE",
"b 	c #A99681",
"c 	c #CB7B1B",
"d 	c #D77B0F",
"e 	c #B6854A",
"f 	c #ADAEB5",
"g 	c #A0AAA4",
"h 	c #53893B",
"i 	c #2E8208",
"j 	c #4B8531",
"k 	c #9CA69E",
"l 	c #A8AAB2",
"m 	c #9F99A1",
"n 	c #B04445",
"o 	c #BC0000",
"p 	c #BB0000",
"q 	c #AB595C",
"r 	c #9BA0AD",
"s 	c #B69367",
"t 	c #E77A00",
"u 	c #E77500",
"v 	c #D4862A",
"w 	c #A19EA3",
"x 	c #8C9F8F",
"y 	c #408D1E",
"z 	c #1B8100",
"A 	c #388A13",
"B 	c #899B88",
"C 	c #9B9DA8",
"D 	c #91939D",
"E 	c #AB757A",
"F 	c #CA3131",
"G 	c #C63A3B",
"H 	c #A37F85",
"I 	c #8F94A1",
"J 	c #A79B92",
"K 	c #E59B42",
"L 	c #F0972B",
"M 	c #C59E70",
"N 	c #9296A3",
"O 	c #90999A",
"P 	c #73A360",
"Q 	c #50A028",
"R 	c #6FA259",
"S 	c #909998",
"T 	c #8F939F",
"U 	c #8B8F9B",
"V 	c #92939E",
"W 	c #A3949E",
"X 	c #A0959E",
"Y 	c #90929D",
"Z 	c #8E929E",
"` 	c #A4A0A1",
" .	c #ACA49F",
"..	c #9698A1",
"+.	c #8B8F9C",
"@.	c #8E919D",
"#.	c #969CA1",
"$.	c #9AA6A1",
"%.	c #8E919E",
"&.	c #8D909D",
"*.	c #A0A4B2",
"=.	c #A6ABB7",
"-.	c #A6AAB7",
";.	c #A7ABB7",
">.	c #A7ABB8",
",.	c #A6ABB8",
"'.	c #A5ABB8",
").	c #A7AAB8",
"!.	c #A5A9B6",
"~.	c #9DA1AE",
"{.	c #C8CBD5",
"].	c #F0F1F3",
"^.	c #EFF0F2",
"/.	c #EFF1F2",
"(.	c #F3F3F5",
"_.	c #DEDFE5",
":.	c #B1B5C2",
"<.	c #D1D3DC",
"[.	c #FBFBFC",
"}.	c #F9F9FB",
"|.	c #F9FAFB",
"1.	c #FAFAFC",
"2.	c #FAFBFC",
"3.	c #FBFCFC",
"4.	c #FCFCFD",
"5.	c #FEFEFF",
"6.	c #E8EAED",
"7.	c #B7BCCA",
"8.	c #D1D4DE",
"9.	c #F4F5F7",
"0.	c #F2F3F6",
"a.	c #F2F3F7",
"b.	c #F2F4F7",
"c.	c #F3F4F7",
"d.	c #F3F4F8",
"e.	c #F4F5F8",
"f.	c #F7F8FA",
"g.	c #E5E7EC",
"h.	c #BCC0CF",
"i.	c #D2D6E1",
"j.	c #F0F1F6",
"k.	c #EFF1F5",
"l.	c #EFF0F5",
"m.	c #F0F0F5",
"n.	c #EFF2F5",
"o.	c #F0F1F5",
"p.	c #F1F1F6",
"q.	c #F0F2F6",
"r.	c #F1F2F6",
"s.	c #F3F5F8",
"t.	c #E3E6EC",
"u.	c #C1C6D5",
"v.	c #D6D9E5",
"w.	c #EFF0F6",
"x.	c #EEF0F6",
"y.	c #EFF1F6",
"z.	c #EFF1F7",
"A.	c #F0F1F7",
"B.	c #F0F2F7",
"C.	c #F2F4F8",
"D.	c #E4E7EE",
"E.	c #C7CBDB",
"F.	c #D5DAE7",
"G.	c #E6E9F1",
"H.	c #E6E8F1",
"I.	c #E5E8F1",
"J.	c #E7E9F1",
"K.	c #E8EAF2",
"L.	c #DFE2EC",
"M.	c #CBCFE0",
"N.	c #C8CEDD",
"O.	c #CCD1E0",
"P.	c #CCD2E0",
"Q.	c #CDD2E0",
"R.	c #CED2E0",
"S.	c #CBD1DF",
"                                        ",
"                                        ",
"                                        ",
"                                        ",
"    . + @ # $ % & * = - ; > , ' ) !     ",
"    ~ { ] ^ / ( _ : < [ } | 1 2 3 4 5   ",
"    6 7 8 9 0 a b c d e f g h i j k l   ",
"    m n o p q r s t u v w x y z A B C   ",
"    D E F G H I J K L M N O P Q R S T   ",
"    U V W X Y U Z `  ...+.@.#.$.#.%.&.  ",
"    *.=.=.-.;.>.,.-.'.,.>.>.;.).>.!.~.  ",
"    {.].^.^.^.^.^.^./.].].].].].(._.:.  ",
"    <.[.}.}.|.|.1.2.[.2.[.[.3.4.5.6.7.  ",
"    8.9.0.0.a.b.c.c.c.c.d.e.e.e.f.g.h.  ",
"    i.j.k.l.m.k.n.o.j.p.j.q.r.r.s.t.u.  ",
"    v.w.x.x.w.w.y.y.y.z.A.A.A.B.C.D.E.  ",
"    F.G.H.I.H.H.H.H.G.G.J.J.J.J.K.L.M.  ",
"    N.O.O.P.P.Q.Q.Q.Q.Q.Q.Q.Q.Q.R.S.    ",
"                                        ",
"                                        "};
