/* XPM */
static char * xterm_xpm[] = {
"20 20 149 2",
"  	c None",
". 	c #030303",
"+ 	c #212121",
"@ 	c #292929",
"# 	c #303030",
"$ 	c #353535",
"% 	c #3B3B3B",
"& 	c #414141",
"* 	c #454545",
"= 	c #494949",
"- 	c #4B4B4B",
"; 	c #4C4C4C",
"> 	c #2F2F2F",
", 	c #242424",
"' 	c #1E1E1E",
") 	c #171717",
"! 	c #363636",
"~ 	c #121212",
"{ 	c #7F7F7F",
"] 	c #868686",
"^ 	c #8A8A8A",
"/ 	c #8F8F8F",
"( 	c #939393",
"_ 	c #979797",
": 	c #9C9C9C",
"< 	c #A0A0A0",
"[ 	c #A4A4A4",
"} 	c #9F9F9F",
"| 	c #6F6F6F",
"1 	c #595959",
"2 	c #545454",
"3 	c #555555",
"4 	c #525252",
"5 	c #3D3D3D",
"6 	c #111111",
"7 	c #797979",
"8 	c #808080",
"9 	c #848484",
"0 	c #898989",
"a 	c #8D8D8D",
"b 	c #919191",
"c 	c #949494",
"d 	c #909090",
"e 	c #535353",
"f 	c #5E5E5E",
"g 	c #656565",
"h 	c #6C6C6C",
"i 	c #3F3F3F",
"j 	c #101010",
"k 	c #727272",
"l 	c #7C7C7C",
"m 	c #818181",
"n 	c #838383",
"o 	c #686868",
"p 	c #575757",
"q 	c #989898",
"r 	c #999999",
"s 	c #929292",
"t 	c #404040",
"u 	c #0F0F0F",
"v 	c #6E6E6E",
"w 	c #707070",
"x 	c #737373",
"y 	c #757575",
"z 	c #606060",
"A 	c #616161",
"B 	c #8C8C8C",
"C 	c #0E0E0E",
"D 	c #5A5A5A",
"E 	c #5C5C5C",
"F 	c #676767",
"G 	c #5F5F5F",
"H 	c #747474",
"I 	c #767676",
"J 	c #7E7E7E",
"K 	c #787878",
"L 	c #393939",
"M 	c #0D0D0D",
"N 	c #2A2A2A",
"O 	c #070707",
"P 	c #232323",
"Q 	c #4E4E4E",
"R 	c #5D5D5D",
"S 	c #646464",
"T 	c #666666",
"U 	c #6B6B6B",
"V 	c #6A6A6A",
"W 	c #505050",
"X 	c #262626",
"Y 	c #0C0C0C",
"Z 	c #1A1A1A",
"` 	c #4D4D4D",
" .	c #717171",
"..	c #636363",
"+.	c #7A7A7A",
"@.	c #484848",
"#.	c #040404",
"$.	c #131313",
"%.	c #878787",
"&.	c #858585",
"*.	c #7B7B7B",
"=.	c #2D2D2D",
"-.	c #1F1F1F",
";.	c #373737",
">.	c #9A9A9A",
",.	c #969696",
"'.	c #6D6D6D",
").	c #9D9D9D",
"!.	c #A2A2A2",
"~.	c #A7A7A7",
"{.	c #ACACAC",
"].	c #AEAEAE",
"^.	c #A8A8A8",
"/.	c #A3A3A3",
"(.	c #959595",
"_.	c #8E8E8E",
":.	c #777777",
"<.	c #282828",
"[.	c #B1B1B1",
"}.	c #B8B8B8",
"|.	c #BEBEBE",
"1.	c #CDCDCD",
"2.	c #C9C9C9",
"3.	c #C4C4C4",
"4.	c #A9A9A9",
"5.	c #252525",
"6.	c #A6A6A6",
"7.	c #B0B0B0",
"8.	c #BABABA",
"9.	c #C3C3C3",
"0.	c #C0C0C0",
"a.	c #B2B2B2",
"b.	c #A1A1A1",
"c.	c #AAAAAA",
"d.	c #B3B3B3",
"e.	c #BBBBBB",
"f.	c #C5C5C5",
"g.	c #B5B5B5",
"h.	c #B4B4B4",
"i.	c #ABABAB",
"j.	c #828282",
"k.	c #1B1B1B",
"l.	c #000000",
"m.	c #050505",
"n.	c #202020",
"o.	c #3C3C3C",
"p.	c #383838",
"q.	c #313131",
"r.	c #181818",
"                                        ",
"                                        ",
"                                        ",
". + @ # $ % & * = - ; - = & > @ , ' ) ! ",
"~ { ] ^ / ( _ : < [ [ } | 1 2 3 3 3 4 5 ",
"6 7 8 9 0 a b c ( d 8 e e 2 e e f g h i ",
"j k 7 l m n 8 8 n o e e 2 e p n q r s t ",
"u o v w w w x y z 4 2 2 4 A 8 m B B ] 5 ",
"C D D E A g F p 2 2 2 2 G H H H I J K L ",
"M 4 N O P Q f R R f f R S T F F o U V $ ",
"M e R W X Y Z ` k k k  .| h o ..G E p # ",
"C A V k +.@.#.$.%.] ] &.n { *.y  .U z =.",
"j v D -.M ;.h _ r >.>.r ,.s a %.{ 7 '.N ",
"6 7 2 o q ).!.~.{.].].{.^./.).(._.&.:.<.",
"6 m / q } ^.[.}.|.1.1.2.3.[.4.< q _.8 5.",
"~ 9 s : 6.7.8.9.3.! ;.$ @ 0.a.^.).( 9 + ",
"C m _.q b.c.d.e.3.9.f.|.g.h.i.!.>.d j.k.",
"l.m.C ) n.<.# ;.o.i t 5 p.q.@ + r.u m.O ",
"                                        ",
"                                        "};
