/* XPM */
static char * titleAB_xpm[] = {
"4 17 16 1",
" 	c None",
".	c #505050",
"+	c #4F4F4F",
"@	c #4E4E4E",
"#	c #4D4D4D",
"$	c #4C4C4C",
"%	c #4B4B4B",
"&	c #4A4A4A",
"*	c #494949",
"=	c #484848",
"-	c #474747",
";	c #464646",
">	c #454545",
",	c #444444",
"'	c #434343",
")	c #424242",
"....",
"++++",
"@@@@",
"####",
"$$$$",
"%%%%",
"&&&&",
"****",
"====",
"----",
"----",
";;;;",
">>>>",
",,,,",
",,,,",
"''''",
"))))"};
