/* XPM */
static char * closeO_xpm[] = {
"18 36 227 2",
"  	c None",
". 	c #242A24",
"+ 	c #232923",
"@ 	c #263721",
"# 	c #263A1F",
"$ 	c #253A1D",
"% 	c #253B1C",
"& 	c #243D1B",
"* 	c #253D1C",
"= 	c #263D1E",
"- 	c #273D1F",
"; 	c #273A21",
"> 	c #26381F",
", 	c #23381B",
"' 	c #233C19",
") 	c #244018",
"! 	c #234117",
"~ 	c #244317",
"{ 	c #244318",
"] 	c #254318",
"^ 	c #244019",
"/ 	c #253E1B",
"( 	c #283D20",
"_ 	c #273920",
": 	c #233B1A",
"< 	c #25421A",
"[ 	c #264618",
"} 	c #264917",
"| 	c #264B17",
"1 	c #274D16",
"2 	c #274D17",
"3 	c #284C18",
"4 	c #284A19",
"5 	c #27461B",
"6 	c #25401A",
"7 	c #283F20",
"8 	c #263E1E",
"9 	c #26431B",
"0 	c #274919",
"a 	c #59BD23",
"b 	c #69D92F",
"c 	c #63D827",
"d 	c #63D726",
"e 	c #58BE22",
"f 	c #295318",
"g 	c #2A501A",
"h 	c #29491B",
"i 	c #29431F",
"j 	c #27421C",
"k 	c #294A1B",
"l 	c #294F18",
"m 	c #61D226",
"n 	c #65D829",
"o 	c #BAECA3",
"p 	c #B7EBA0",
"q 	c #B5EA9B",
"r 	c #62D726",
"s 	c #61D225",
"t 	c #2C571A",
"u 	c #2B511B",
"v 	c #29481D",
"w 	c #29471D",
"x 	c #2B511C",
"y 	c #53B021",
"z 	c #63D826",
"A 	c #95E36F",
"B 	c #91E26A",
"C 	c #8FE167",
"D 	c #90E268",
"E 	c #53B220",
"F 	c #2E581C",
"G 	c #2B4E1D",
"H 	c #2B4D1E",
"I 	c #355E24",
"J 	c #71DA3C",
"K 	c #6EDA39",
"L 	c #6DD938",
"M 	c #6FDA3A",
"N 	c #61D725",
"O 	c #62D626",
"P 	c #376524",
"Q 	c #2D531E",
"R 	c #426533",
"S 	c #477135",
"T 	c #60D625",
"U 	c #5FD624",
"V 	c #5ED523",
"W 	c #5ED524",
"X 	c #497834",
"Y 	c #30571F",
"Z 	c #365A27",
"` 	c #618A4F",
" .	c #80E94E",
"..	c #60D036",
"+.	c #5ED033",
"@.	c #5DD030",
"#.	c #5ED031",
"$.	c #5FD034",
"%.	c #7DE74A",
"&.	c #608F4B",
"*.	c #315A21",
"=.	c #232922",
"-.	c #779F65",
";.	c #66C938",
">.	c #65C936",
",.	c #7AE547",
"'.	c #62D625",
").	c #75A361",
"!.	c #739962",
"~.	c #53B221",
"{.	c #61D726",
"].	c #53B421",
"^.	c #7E817E",
"/.	c #575C56",
"(.	c #88B076",
"_.	c #60D225",
":.	c #85B371",
"<.	c #575C57",
"[.	c #BCBFBC",
"}.	c #89B277",
"|.	c #88B375",
"1.	c #B3B5B3",
"2.	c #6C706C",
"3.	c #C8C9C8",
"4.	c #616661",
"5.	c #9EA19E",
"6.	c #2E342E",
"7.	c #8A8D8A",
"8.	c #7F837F",
"9.	c #242923",
"0.	c #2A2822",
"a.	c #342520",
"b.	c #3D221D",
"c.	c #44201C",
"d.	c #46201B",
"e.	c #43201C",
"f.	c #3C231E",
"g.	c #312620",
"h.	c #292822",
"i.	c #252923",
"j.	c #471F1B",
"k.	c #511C18",
"l.	c #581B17",
"m.	c #5D1915",
"n.	c #5E1915",
"o.	c #5C1916",
"p.	c #561B17",
"q.	c #501D18",
"r.	c #44201B",
"s.	c #302621",
"t.	c #2E2621",
"u.	c #491F1A",
"v.	c #4C1E19",
"w.	c #631714",
"x.	c #681613",
"y.	c #621714",
"z.	c #541C18",
"A.	c #4A1E1A",
"B.	c #481F1A",
"C.	c #2D2721",
"D.	c #3A231E",
"E.	c #611814",
"F.	c #8F0B09",
"G.	c #B60303",
"H.	c #C70000",
"I.	c #A70404",
"J.	c #860D0B",
"K.	c #4E1D19",
"L.	c #38241F",
"M.	c #262923",
"N.	c #41211C",
"O.	c #A50403",
"P.	c #B60000",
"Q.	c #FF2F2F",
"R.	c #A30706",
"S.	c #45201B",
"T.	c #40211D",
"U.	c #8A0C0A",
"V.	c #B70000",
"W.	c #FF1212",
"X.	c #FC0000",
"Y.	c #BE0000",
"Z.	c #78110F",
"`.	c #3C221D",
" +	c #5D1E19",
".+	c #A90303",
"++	c #F10000",
"@+	c #960907",
"#+	c #39231E",
"$+	c #553833",
"%+	c #7F312D",
"&+	c #B10100",
"*+	c #9D0605",
"=+	c #7F322F",
"-+	c #322520",
";+	c #362E28",
">+	c #9C5855",
",+	c #A00605",
"'+	c #D40000",
")+	c #890C0A",
"!+	c #A37E7B",
"~+	c #741310",
"{+	c #FF1010",
"]+	c #6B1915",
"^+	c #A27F7D",
"/+	c #847F7C",
"(+	c #894B48",
"_+	c #6D1411",
":+	c #915552",
"<+	c #837E7B",
"[+	c #575B57",
"}+	c #AD9B99",
"|+	c #553934",
"1+	c #551B17",
"2+	c #800F0D",
"3+	c #980807",
"4+	c #79110E",
"5+	c #42211C",
"6+	c #AD9C99",
"7+	c #BDBEBD",
"8+	c #AC9D9B",
"9+	c #624B47",
"0+	c #6D4F4B",
"a+	c #AC9F9C",
"b+	c #B3B4B2",
"c+	c #C8C8C7",
"d+	c #C8C8C6",
". . . + @ # $ % & * = - ; + . . . . ",
". . + > , ' ) ! ~ { ] ^ / ( + . . . ",
". . _ : < [ } | 1 2 3 4 5 6 7 . . . ",
". + 8 9 0 2 a b c d e f g h i . . . ",
". + j k l m n o p q r s t u v . . . ",
". + w x y z A B C D B r E F G . . . ",
". + H I d r J K L L M N O P Q . . . ",
". . R S c r T U V W U N r X Y . . . ",
". . Z ` z  ...+.@.#.$.%.r &.*.. . . ",
". . =.-.O r %.;.>.>.,.N '.).+ . . . ",
". . . !.~.r {.T T T N r ].^.. . . . ",
". . . /.(.s r r {.{.r _.:.<.. . . . ",
". . . . [.}.e r z r e |.1.. . . . . ",
". . . . 2.3.3.3.3.3.3.3.4.. . . . . ",
". . . . . 5.3.3.3.3.3.5.. . . . . . ",
". . . . . 6.7.3.3.3.8.6.. . . . . . ",
". . . . . . . 7.3.8.. . . . . . . . ",
". . . . . . . . . . . . . . . . . . ",
". . . 9.0.a.b.c.d.e.f.g.h.9.. . . . ",
". . i.g.j.k.l.m.n.o.p.q.r.s.i.. . . ",
". . t.u.v.p.m.w.x.y.o.z.A.B.C.. . . ",
". 9.D.u.k.E.F.G.H.I.J.m.K.j.L.. . . ",
". M.N.j.o.O.P.Q.Q.Q.P.R.z.S.b.. . . ",
". i.T.S.U.V.W.X.X.X.W.Y.Z.r.`.. . . ",
". 9.D. +.+P.++++++++++P.@+ +#+. . . ",
". . $+%+&+P.P.P.P.P.P.P.*+=+-+. . . ",
". . ;+>+,+++'+'+'+'+'+++)+>+0.. . . ",
". . i.!+~+P.++{+{+{+++P.]+^+9.. . . ",
". . . /+(+J.P.P.P.P.P._+:+<+. . . . ",
". . . [+}+|+1+2+3+4+5+|+6+[+. . . . ",
". . . . 7+8+9+i.. i.0+a+b+. . . . . ",
". . . . 2.c+c+d+d+d+c+c+4.. . . . . ",
". . . . . 5.3.3.3.3.3.5.. . . . . . ",
". . . . . 6.7.3.3.3.8.6.. . . . . . ",
". . . . . . . 7.3.8.. . . . . . . . ",
". . . . . . . . . . . . . . . . . . "};
