/* XPM */
static char * closeI_xpm[] = {
"18 36 96 2",
"  	c None",
". 	c #242A24",
"+ 	c #252B25",
"@ 	c #2B312B",
"# 	c #373C37",
"$ 	c #424742",
"% 	c #4A4E4A",
"& 	c #4C514C",
"* 	c #494E49",
"= 	c #404540",
"- 	c #343934",
"; 	c #2A2F2A",
"> 	c #4E524E",
", 	c #595E59",
"' 	c #626562",
") 	c #686B68",
"! 	c #6A6D6A",
"~ 	c #666A66",
"{ 	c #606360",
"] 	c #595D59",
"^ 	c #4A4F4A",
"/ 	c #323732",
"( 	c #303630",
"_ 	c #505450",
": 	c #545854",
"< 	c #606460",
"[ 	c #6F736F",
"} 	c #757975",
"| 	c #6F726F",
"1 	c #5E625E",
"2 	c #525652",
"3 	c #4F544F",
"4 	c #2F352F",
"5 	c #3F443F",
"6 	c #6D706D",
"7 	c #A3A5A3",
"8 	c #C4C4C4",
"9 	c #D2D2D2",
"0 	c #BDBEBD",
"a 	c #999B99",
"b 	c #686C68",
"c 	c #575B57",
"d 	c #3B413B",
"e 	c #262C26",
"f 	c #464B46",
"g 	c #BEBFBE",
"h 	c #E1E1E1",
"i 	c #B4B5B4",
"j 	c #4C504C",
"k 	c #424642",
"l 	c #454A45",
"m 	c #9E9F9E",
"n 	c #DFDFDF",
"o 	c #DCDCDC",
"p 	c #D4D4D4",
"q 	c #888B88",
"r 	c #414641",
"s 	c #3E433E",
"t 	c #C2C3C2",
"u 	c #DADADA",
"v 	c #ACADAC",
"w 	c #565B56",
"x 	c #3D423D",
"y 	c #505550",
"z 	c #747874",
"A 	c #CDCDCD",
"B 	c #B5B6B5",
"C 	c #747774",
"D 	c #353B35",
"E 	c #343A34",
"F 	c #929592",
"G 	c #B8B8B8",
"H 	c #D7D7D7",
"I 	c #9D9F9D",
"J 	c #818481",
"K 	c #6C6F6C",
"L 	c #828682",
"M 	c #7F827F",
"N 	c #7B7E7B",
"O 	c #828582",
"P 	c #A9ABA9",
"Q 	c #515551",
"R 	c #5F635F",
"S 	c #929492",
"T 	c #AFB0AF",
"U 	c #8A8C8A",
"V 	c #484D48",
"W 	c #B2B4B2",
"X 	c #6C706C",
"Y 	c #C8C9C8",
"Z 	c #C7C8C7",
"` 	c #616661",
" .	c #9EA19E",
"..	c #2E342E",
"+.	c #8A8D8A",
"@.	c #7F837F",
". . . . . . . . . . . . . . . . . . ",
". . . + @ # $ % & * = - ; . . . . . ",
". . + - > , ' ) ! ~ { ] ^ / + . . . ",
". . ( _ : < ) [ } | ~ 1 2 3 4 . . . ",
". . 5 _ , 6 7 8 9 0 a b c > d . . . ",
". e f > ~ g 9 h h h 9 i 1 j k . . . ",
". + l j m 9 n o o o n p q ^ r . . . ",
". . s c t 9 u u u u u 9 v w x . . . ",
". . y z A 9 9 9 9 9 9 9 B C D . . . ",
". . E F G u H H H H H u I F @ . . . ",
". . + I J 9 u n n n u 9 K I . . . . ",
". . . L M a 9 9 9 9 9 N q O . . . . ",
". . . c P Q R S T U V Q P c . . . . ",
". . . . 0 P 1 + . + b P W . . . . . ",
". . . . X Y Z Z Z Z Z Y ` . . . . . ",
". . . . .  .Y Y Y Y Y  .. . . . . . ",
". . . . . ..+.Y Y Y @.... . . . . . ",
". . . . . . . +.Y @.. . . . . . . . ",
". . . + @ # $ % & * = - ; . . . . . ",
". . + - > , ' ) ! ~ { ] ^ / + . . . ",
". . ( _ : < ) [ } | ~ 1 2 3 4 . . . ",
". . 5 _ , 6 7 8 9 0 a b c > d . . . ",
". e f > ~ g 9 h h h 9 i 1 j k . . . ",
". + l j m 9 n o o o n p q ^ r . . . ",
". . s c t 9 u u u u u 9 v w x . . . ",
". . y z A 9 9 9 9 9 9 9 B C D . . . ",
". . E F G u H H H H H u I F @ . . . ",
". . + I J 9 u n n n u 9 K I . . . . ",
". . . L M a 9 9 9 9 9 N q O . . . . ",
". . . c P Q R S T U V Q P c . . . . ",
". . . . 0 P 1 + . + b P W . . . . . ",
". . . . X Y Z Z Z Z Z Y ` . . . . . ",
". . . . .  .Y Y Y Y Y  .. . . . . . ",
". . . . . ..+.Y Y Y @.... . . . . . ",
". . . . . . . +.Y @.. . . . . . . . ",
". . . . . . . . . . . . . . . . . . "};
