/* XPM */
static char * closeA_xpm[] = {
"18 36 84 1",
" 	c None",
".	c #242A24",
"+	c #232923",
"@	c #222822",
"#	c #202520",
"$	c #1D221D",
"%	c #1C201C",
"&	c #1B201B",
"*	c #1E231E",
"=	c #202620",
"-	c #1B1F1B",
";	c #181C18",
">	c #171B17",
",	c #151915",
"'	c #161916",
")	c #181D18",
"!	c #212621",
"~	c #1A1F1A",
"{	c #191E19",
"]	c #141714",
"^	c #131613",
"/	c #1A1E1A",
"(	c #212721",
"_	c #141814",
":	c #090B09",
"<	c #101010",
"[	c #111111",
"}	c #080908",
"|	c #0B0D0B",
"1	c #191D19",
"2	c #1F241F",
"3	c #1C211C",
"4	c #040504",
"5	c #000000",
"6	c #606060",
"7	c #0F100F",
"8	c #1D211D",
"9	c #0A0C0A",
"0	c #030303",
"a	c #4A4A4A",
"b	c #393939",
"c	c #090909",
"d	c #0F110F",
"e	c #272C27",
"f	c #313131",
"g	c #070907",
"h	c #3B403B",
"i	c #404440",
"j	c #000100",
"k	c #050605",
"l	c #414541",
"m	c #2B312B",
"n	c #666966",
"o	c #1A1A1A",
"p	c #868886",
"q	c #151815",
"r	c #484848",
"s	c #202320",
"t	c #878987",
"u	c #7F827F",
"v	c #585B58",
"w	c #111411",
"x	c #626562",
"y	c #7E817E",
"z	c #575C57",
"A	c #9FA19F",
"B	c #3C413C",
"C	c #0D0F0D",
"D	c #070807",
"E	c #0E110E",
"F	c #A0A2A0",
"G	c #BDBFBD",
"H	c #A1A3A1",
"I	c #4D524D",
"J	c #545854",
"K	c #A2A4A2",
"L	c #B3B5B3",
"M	c #6C706C",
"N	c #C8C9C8",
"O	c #616661",
"P	c #9EA19E",
"Q	c #2E342E",
"R	c #8A8D8A",
"S	c #7F837F",
"...+@#$%&%*=@+....",
"..+=-;>,,'>)&!+...",
"..!~{>,]^]';/~(...",
".+*~;_:<[}|,1-2...",
".+3-'4566657;&$...",
".+8&90abbbacd&$...",
".+*e05fffff5ge*...",
"..hij5555555kl#...",
"..mnkfooooof9n@...",
"..+pq5frrrf5st+...",
"...uv|55555wxy....",
"...zAB>CDE3BFz....",
"....GHI+.+JKL.....",
"....MNNNNNNNO.....",
".....PNNNNNP......",
".....QRNNNSQ......",
".......RNS........",
"..................",
"555555555555555555",
"555555555555555555",
"555555555555555555",
"555555555555555555",
"555555555555555555",
"555555555555555555",
"555555555555555555",
"555555555555555555",
"555555555555555555",
"555555555555555555",
"555555555555555555",
"555555555555555555",
"555555555555555555",
"555555555555555555",
"555555555555555555",
"555555555555555555",
"555555555555555555",
"555555555555555555"};
