/* XPM */
static char * frameAL_xpm[] = {
"4 2 3 1",
" 	c None",
".	c #575757",
"+	c #242A24",
".+++",
".+++"};
