/* XPM */
static char * frameATL_xpm[] = {
"22 21 3 1",
" 	c None",
".	c #575757",
"+	c #242A24",
"    ..................",
"  ..++++++++++++++++++",
" ..+++++++++++++++++++",
" .++                  ",
".+++                  ",
".+++                  ",
".+++                  ",
".+++                  ",
".+++                  ",
".+++                  ",
".+++                  ",
".+++                  ",
".+++                  ",
".+++                  ",
".+++                  ",
".+++                  ",
".+++                  ",
".+++                  ",
".+++                  ",
".+++                  ",
".+++                  "};
