/* XPM */
static char * frameABR_xpm[] = {
"22 21 3 1",
" 	c None",
".	c #242A24",
"+	c #575757",
"                  ...+",
"                  ...+",
"                  ...+",
"                  ...+",
"                  ...+",
"                  ...+",
"                  ...+",
"                  ...+",
"                  ...+",
"                  ...+",
"                  ...+",
"                  ...+",
"                  ...+",
"                  ...+",
"                  ...+",
"                  ...+",
"                  ...+",
"                  ...+",
".....................+",
".....................+",
"+++++++++++++++++++++ "};
