/* XPM */
static char * maximizeO_xpm[] = {
"18 36 214 2",
"  	c None",
". 	c #242A24",
"+ 	c #232923",
"@ 	c #263721",
"# 	c #263A1F",
"$ 	c #253A1D",
"% 	c #253B1C",
"& 	c #243D1B",
"* 	c #253D1C",
"= 	c #263D1E",
"- 	c #273D1F",
"; 	c #273A21",
"> 	c #26381F",
", 	c #23381B",
"' 	c #233C19",
") 	c #244018",
"! 	c #234117",
"~ 	c #244317",
"{ 	c #244318",
"] 	c #254318",
"^ 	c #244019",
"/ 	c #253E1B",
"( 	c #283D20",
"_ 	c #273920",
": 	c #233B1A",
"< 	c #25421A",
"[ 	c #264618",
"} 	c #264917",
"| 	c #264B17",
"1 	c #274D16",
"2 	c #274D17",
"3 	c #284C18",
"4 	c #284A19",
"5 	c #27461B",
"6 	c #25401A",
"7 	c #283F20",
"8 	c #263E1E",
"9 	c #26431B",
"0 	c #274919",
"a 	c #59BD23",
"b 	c #69D92F",
"c 	c #63D827",
"d 	c #63D726",
"e 	c #58BE22",
"f 	c #295318",
"g 	c #2A501A",
"h 	c #29491B",
"i 	c #29431F",
"j 	c #27421C",
"k 	c #294A1B",
"l 	c #294F18",
"m 	c #61D226",
"n 	c #65D829",
"o 	c #BAECA3",
"p 	c #B7EBA0",
"q 	c #B5EA9B",
"r 	c #62D726",
"s 	c #61D225",
"t 	c #2C571A",
"u 	c #2B511B",
"v 	c #29481D",
"w 	c #29471D",
"x 	c #2B511C",
"y 	c #53B021",
"z 	c #63D826",
"A 	c #95E36F",
"B 	c #91E26A",
"C 	c #8FE167",
"D 	c #90E268",
"E 	c #53B220",
"F 	c #2E581C",
"G 	c #2B4E1D",
"H 	c #2B4D1E",
"I 	c #355E24",
"J 	c #71DA3C",
"K 	c #6EDA39",
"L 	c #6DD938",
"M 	c #6FDA3A",
"N 	c #61D725",
"O 	c #62D626",
"P 	c #376524",
"Q 	c #2D531E",
"R 	c #426533",
"S 	c #477135",
"T 	c #60D625",
"U 	c #5FD624",
"V 	c #5ED523",
"W 	c #5ED524",
"X 	c #497834",
"Y 	c #30571F",
"Z 	c #365A27",
"` 	c #618A4F",
" .	c #80E94E",
"..	c #60D036",
"+.	c #5ED033",
"@.	c #5DD030",
"#.	c #5ED031",
"$.	c #5FD034",
"%.	c #7DE74A",
"&.	c #608F4B",
"*.	c #315A21",
"=.	c #232922",
"-.	c #779F65",
";.	c #66C938",
">.	c #65C936",
",.	c #7AE547",
"'.	c #62D625",
").	c #75A361",
"!.	c #739962",
"~.	c #53B221",
"{.	c #61D726",
"].	c #53B421",
"^.	c #7E817E",
"/.	c #575C56",
"(.	c #88B076",
"_.	c #60D225",
":.	c #85B371",
"<.	c #575C57",
"[.	c #BCBFBC",
"}.	c #89B277",
"|.	c #88B375",
"1.	c #B3B5B3",
"2.	c #6C706C",
"3.	c #C8C9C8",
"4.	c #616661",
"5.	c #9EA19E",
"6.	c #2E342E",
"7.	c #8A8D8A",
"8.	c #7F837F",
"9.	c #232A23",
"0.	c #232D23",
"a.	c #223322",
"b.	c #213921",
"c.	c #203D20",
"d.	c #203E20",
"e.	c #213821",
"f.	c #223222",
"g.	c #203F20",
"h.	c #1F451F",
"i.	c #1F491F",
"j.	c #1E4C1E",
"k.	c #1E4D1E",
"l.	c #1F481F",
"m.	c #223122",
"n.	c #223022",
"o.	c #204020",
"p.	c #204220",
"q.	c #1D501D",
"r.	c #1D531D",
"s.	c #1F471F",
"t.	c #204120",
"u.	c #232F23",
"v.	c #213721",
"w.	c #1E4F1E",
"x.	c #196B19",
"y.	c #198919",
"z.	c #199419",
"A.	c #177C17",
"B.	c #1A661A",
"C.	c #1F441F",
"D.	c #223622",
"E.	c #232B23",
"F.	c #213B21",
"G.	c #177917",
"H.	c #168316",
"I.	c #3DDE3D",
"J.	c #1A7B1A",
"K.	c #1A681A",
"L.	c #168516",
"M.	c #24D724",
"N.	c #21C421",
"O.	c #178A17",
"P.	c #1B5D1B",
"Q.	c #225322",
"R.	c #177B17",
"S.	c #1FBC1F",
"T.	c #196F19",
"U.	c #225222",
"V.	c #213621",
"W.	c #355435",
"X.	c #337633",
"Y.	c #168016",
"Z.	c #187418",
"`.	c #347534",
" +	c #293A29",
".+	c #5A935A",
"++	c #187518",
"@+	c #1A9F1A",
"#+	c #5B935B",
"$+	c #7D9E7D",
"%+	c #1D5C1D",
"&+	c #205920",
"*+	c #7F9E7F",
"=+	c #7C867C",
"-+	c #4D814D",
";+	c #1C561C",
">+	c #578A57",
",+	c #7B857B",
"'+	c #565B56",
")+	c #99AB99",
"!+	c #365536",
"~+	c #1B621B",
"{+	c #187118",
"]+	c #1B5E1B",
"^+	c #213C21",
"/+	c #9AAC9A",
"(+	c #BBBEBB",
"_+	c #9CAB9C",
":+	c #486248",
"<+	c #4D6B4D",
"[+	c #9DAB9D",
"}+	c #B1B4B1",
"|+	c #C7C9C7",
"1+	c #C5C8C5",
". . . + @ # $ % & * = - ; + . . . . ",
". . + > , ' ) ! ~ { ] ^ / ( + . . . ",
". . _ : < [ } | 1 2 3 4 5 6 7 . . . ",
". + 8 9 0 2 a b c d e f g h i . . . ",
". + j k l m n o p q r s t u v . . . ",
". + w x y z A B C D B r E F G . . . ",
". + H I d r J K L L M N O P Q . . . ",
". . R S c r T U V W U N r X Y . . . ",
". . Z ` z  ...+.@.#.$.%.r &.*.. . . ",
". . =.-.O r %.;.>.>.,.N '.).+ . . . ",
". . . !.~.r {.T T T N r ].^.. . . . ",
". . . /.(.s r r {.{.r _.:.<.. . . . ",
". . . . [.}.e r z r e |.1.. . . . . ",
". . . . 2.3.3.3.3.3.3.3.4.. . . . . ",
". . . . . 5.3.3.3.3.3.5.. . . . . . ",
". . . . . 6.7.3.3.3.8.6.. . . . . . ",
". . . . . . . 7.3.8.. . . . . . . . ",
". . . . . . . . . . . . . . . . . . ",
". . . 9.0.a.b.c.d.c.e.f.0.9.. . . . ",
". . 9.f.g.h.i.j.k.j.l.h.c.m.9.. . . ",
". . n.o.p.i.j.q.r.q.j.s.t.o.u.. . . ",
". 9.v.o.h.w.x.y.z.A.B.k.C.g.D.. . . ",
". E.F.g.j.G.H.I.I.I.H.J.s.d.b.. . . ",
". E.F.d.K.L.M.N.N.N.M.O.P.c.b.. . . ",
". 9.v.Q.R.H.S.S.S.S.S.H.T.U.V.. . . ",
". . W.X.Y.H.H.H.H.H.H.H.Z.`.a.. . . ",
". .  +.+++S.@+@+@+@+@+S.K.#+0.. . . ",
". . 9.$+%+H.S.M.M.M.S.H.&+*+9.. . . ",
". . . =+-+B.H.H.H.H.H.;+>+,+. . . . ",
". . . '+)+!+l.~+{+]+^+!+/+'+. . . . ",
". . . . (+_+:+9.. 9.<+[+}+. . . . . ",
". . . . 2.|+1+1+1+1+1+|+4.. . . . . ",
". . . . . 5.3.3.3.3.3.5.. . . . . . ",
". . . . . 6.7.3.3.3.8.6.. . . . . . ",
". . . . . . . 7.3.8.. . . . . . . . ",
". . . . . . . . . . . . . . . . . . "};
