/* XPM */
static char * menusel_xpm[] = {
"4 25 28 1",
" 	c None",
".	c #76D77C",
"+	c #CDFF00",
"@	c #C9FF00",
"#	c #C5FF00",
"$	c #C1FF00",
"%	c #BDFF00",
"&	c #B8FF00",
"*	c #B9FF00",
"=	c #B5FF00",
"-	c #B1FF00",
";	c #B0FF00",
">	c #ACFF00",
",	c #A8FF00",
"'	c #A4FF00",
")	c #A0FF00",
"!	c #9CFF00",
"~	c #9BFF00",
"{	c #96FF00",
"]	c #91FF00",
"^	c #92FF00",
"/	c #8DFF00",
"(	c #88FF00",
"_	c #84FF00",
":	c #7FFF00",
"<	c #7AFF00",
"[	c #29842C",
"}	c #28842C",
"....",
"++++",
"@@@@",
"####",
"$$$$",
"%%%%",
"&***",
"====",
"-;;;",
">>>>",
",,,,",
"''''",
"))))",
"!!!!",
"!!!!",
"!!!!",
"~~~~",
"{{{{",
"]]^]",
"////",
"((((",
"____",
"::::",
"<<<<",
"[[[}"};
