<svg xmlns="http://www.w3.org/2000/svg" xmlns:xlink="http://www.w3.org/1999/xlink" viewBox="0 0 48 48"><defs><linearGradient id="b"><stop offset="0" stop-color="#46ddff"/><stop offset="1" stop-color="#46ddff" stop-opacity="0"/></linearGradient><linearGradient id="a"><stop offset="0" stop-color="#fffdfd"/><stop offset="1" stop-color="#fff" stop-opacity=".463"/></linearGradient><linearGradient xlink:href="#a" id="c" x1="11" y1="24" x2="37" y2="24" gradientUnits="userSpaceOnUse"/><linearGradient xlink:href="#b" id="g" gradientUnits="userSpaceOnUse" x1="11" y1="24" x2="37" y2="24"/><linearGradient xlink:href="#a" id="d" gradientUnits="userSpaceOnUse" x1="11" y1="24" x2="37" y2="24"/><linearGradient xlink:href="#a" id="e" gradientUnits="userSpaceOnUse" x1="11" y1="24" x2="37" y2="24"/><linearGradient xlink:href="#a" id="f" gradientUnits="userSpaceOnUse" x1="11" y1="24" x2="37" y2="24"/></defs><g transform="translate(-20.214 -20.859) scale(1.84738)" fill="url(#c)"><path d="M17 26l-5.2 5 .001 3.199 11.217.001v-2.223" fill="url(#d)"/><path d="M17.02 25.977L18 30l-2 2.5 1.02 1.7H23V32" fill="url(#e)"/><path d="M30 22l-9 12.2h15.2l-.08-5.7" fill="url(#f)"/><path d="M30.02 21.977L31.5 27 30 31.5l2 2.7h4.2v-5.7" fill="url(#g)"/><circle cx="21.301" cy="19.212" r="2.856" fill="#ffd300" fill-opacity=".995" paint-order="stroke fill markers"/></g></svg>