<svg xmlns="http://www.w3.org/2000/svg" xmlns:xlink="http://www.w3.org/1999/xlink" viewBox="0 0 48 48"><defs><linearGradient id="a"><stop offset="0" stop-color="#00b2ff"/><stop offset="1" stop-color="#6200ff" stop-opacity=".957"/></linearGradient><linearGradient xlink:href="#a" id="c" gradientUnits="userSpaceOnUse" x1="14.514" y1="14.849" x2="35.49" y2="36.01"/><linearGradient xlink:href="#a" id="d" gradientUnits="userSpaceOnUse" x1="14.514" y1="14.849" x2="35.49" y2="36.01"/><linearGradient xlink:href="#a" id="b" gradientUnits="userSpaceOnUse" x1="14.514" y1="14.849" x2="35.49" y2="36.01"/></defs><g stroke="url(#b)" transform="translate(-12.481 -12.48) scale(1.52003)" fill="none" stroke-linecap="round" stroke-linejoin="round"><path d="M33.723 17.801l-9.707 1.684-9.656-1.703c-1.344-.215-1.773.91-.879 1.316l7.535 2.387v5.5l-2.691 7.742c-.309.965.848 1.789 1.398.879l4.293-8.621 4.242 8.605c.613.82 1.93.395 1.445-.781l-2.688-7.824v-5.5l7.637-2.414c.719-.375.234-1.441-.93-1.27m0 0" stroke="url(#c)"/><path d="M27.02 14.984a3.001 3.001 0 0 1-6 0 3.001 3.001 0 0 1 6 0m0 0" stroke="url(#d)"/></g></svg>