<svg xmlns="http://www.w3.org/2000/svg" xmlns:xlink="http://www.w3.org/1999/xlink" width="64" height="64"><defs><linearGradient x1="20" y1="1000.4" gradientTransform="translate(0 -1044.42)" x2="20" gradientUnits="userSpaceOnUse" y2="1032.4" id="a"><stop offset="0" stop-color="#ff7800"/><stop offset="1" stop-color="#ff0404"/></linearGradient><linearGradient xlink:href="#a" id="b" x1="1.693" y1="32.728" x2="62.307" y2="32.728" gradientUnits="userSpaceOnUse"/><linearGradient xlink:href="#a" id="c" gradientUnits="userSpaceOnUse" x1="1.693" y1="32.728" x2="62.307" y2="32.728"/><linearGradient xlink:href="#a" id="d" gradientUnits="userSpaceOnUse" x1="1.693" y1="32.728" x2="62.307" y2="32.728"/><linearGradient xlink:href="#a" id="e" gradientUnits="userSpaceOnUse" x1="1.693" y1="32.728" x2="62.307" y2="32.728"/></defs><g transform="translate(-12.697 -11.727) scale(1.37271)" fill="none" stroke="url(#b)" stroke-width="1.525" stroke-linecap="round" stroke-linejoin="round"><path d="M37.168 44.301c5.63 0 10.212-4.58 10.212-10.211s-4.581-10.212-10.212-10.212c-5.63 0-10.212 4.58-10.212 10.212 0 5.63 4.581 10.211 10.212 10.211z" stroke="url(#c)"/><path d="M48.914 19.814H47.25a4.513 4.513 0 0 0-4.492-4.142H31.577a4.513 4.513 0 0 0-4.492 4.142h-1.736v-1.066c0-1.563-1.89-2.743-4.395-2.743s-4.394 1.18-4.394 2.743v1.066h-.25a5.054 5.054 0 0 0-5.047 5.047V43.66a5.053 5.053 0 0 0 5.048 5.048h32.603a5.053 5.053 0 0 0 5.048-5.048V24.861a5.053 5.053 0 0 0-5.048-5.047z" stroke="url(#d)"/><path d="M16.35 26.65c0-.594.957-1.077 1.551-1.077s1.552.483 1.552 1.077v15.81c0 .594-.958 1.078-1.552 1.078-.594 0-1.552-.483-1.552-1.078zm20.818 1.764a5.681 5.681 0 0 1 5.675 5.676 5.681 5.681 0 0 1-5.675 5.675 5.681 5.681 0 0 1-5.675-5.675 5.681 5.681 0 0 1 5.675-5.676zm11.204-4.14c1.332.071 1.332 2.036 0 2.107-1.332-.071-1.332-2.036 0-2.107z" stroke="url(#e)"/></g></svg>