<svg id="Capa_1" enable-background="new 0 0 512 512" height="512" viewBox="0 0 512 512" width="512" xmlns="http://www.w3.org/2000/svg" xmlns:xlink="http://www.w3.org/1999/xlink"><linearGradient id="SVGID_1_" gradientUnits="userSpaceOnUse" x1="256" x2="256" y1="511.997" y2=".003"><stop offset="0" stop-color="#a93aff"/><stop offset="1" stop-color="#ff81ff"/></linearGradient><g><g><path d="m507.606 46.817-42.426-42.426c-5.933-5.933-15.445-5.768-21.213 0l-116.606 116.606h-282.361c-24.813 0-45 20.187-45 45v301c0 24.813 20.187 45 45 45h301c24.813 0 45-20.187 45-45v-282.36l116.606-116.606c5.858-5.858 5.858-15.356 0-21.214zm-146.606 420.18c0 8.271-6.729 15-15 15h-301c-8.271 0-15-6.729-15-15v-301c0-8.271 6.729-15 15-15h252.361l-98.033 98.033c-1.647 1.647-2.887 3.654-3.624 5.863l-21.213 63.64c-3.898 11.696 7.255 22.88 18.974 18.974l63.64-21.213c2.209-.736 4.216-1.977 5.863-3.624l98.032-98.033zm-116.742-178.044-31.82 10.607 10.606-31.82 189.103-189.103 21.213 21.213zm210.315-210.316-21.213-21.213 21.213-21.213 21.213 21.213z" fill="url(#SVGID_1_)"/></g></g></svg>