<?xml version="1.0" encoding="UTF-8" ?>
<!DOCTYPE svg PUBLIC "-//W3C//DTD SVG 1.1//EN" "http://www.w3.org/Graphics/SVG/1.1/DTD/svg11.dtd">
<svg width="192pt" height="192pt" viewBox="0 0 192 192" version="1.1" xmlns="http://www.w3.org/2000/svg">
<g id="#9811ffff">
<path fill="#9811ff" opacity="1.00" d=" M 79.86 9.79 C 96.98 6.12 115.30 8.04 131.16 15.52 C 127.95 18.27 125.01 21.34 122.65 24.87 C 106.12 18.76 87.34 18.34 70.79 24.61 C 70.96 23.04 70.90 21.31 71.95 20.00 C 74.39 16.45 77.13 13.12 79.86 9.79 Z" />
</g>
<g id="#900cffff">
<path fill="#900cff" opacity="1.00" d=" M 19.23 60.09 C 29.64 34.88 52.69 14.53 79.86 9.79 C 77.13 13.12 74.39 16.45 71.95 20.00 C 70.90 21.31 70.96 23.04 70.79 24.61 C 54.29 31.40 40.00 44.11 32.26 60.28 C 27.31 70.33 25.43 81.62 25.46 92.75 C 21.28 96.15 18.76 101.04 14.80 104.65 C 11.77 89.84 13.67 74.10 19.23 60.09 Z" />
</g>
<g id="#a61affff">
<path fill="#a61aff" opacity="1.00" d=" M 122.65 24.87 C 125.01 21.34 127.95 18.27 131.16 15.52 C 144.45 21.97 156.18 31.64 164.79 43.67 C 159.91 42.52 157.37 47.52 154.61 50.51 C 149.30 43.23 143.03 36.54 135.45 31.59 C 131.48 28.84 127.15 26.63 122.65 24.87 Z" />
</g>
<g id="#0000003e">
<path fill="#000000" opacity="0.24" d=" M 70.79 24.61 C 87.34 18.34 106.12 18.76 122.65 24.87 C 127.15 26.63 131.48 28.84 135.45 31.59 C 131.22 31.24 127.77 28.58 123.90 27.14 C 106.75 21.13 87.40 20.48 70.45 27.55 C 50.03 36.27 33.44 54.52 28.41 76.36 C 26.73 83.56 27.00 91.03 25.86 98.31 C 25.67 96.46 25.53 94.61 25.46 92.75 C 25.43 81.62 27.31 70.33 32.26 60.28 C 40.00 44.11 54.29 31.40 70.79 24.61 Z" />
</g>
<g id="#9912ffff">
<path fill="#9912ff" opacity="1.00" d=" M 65.78 43.78 C 76.44 36.95 89.41 33.61 102.05 34.96 C 113.03 36.09 123.55 40.64 132.14 47.54 C 129.19 50.28 126.34 53.14 123.60 56.10 C 122.88 55.60 122.16 55.10 121.45 54.61 C 104.07 41.78 77.69 45.56 63.52 61.48 C 54.76 71.00 50.79 84.57 52.70 97.34 C 53.60 103.24 55.76 108.94 58.97 113.97 C 60.19 116.13 62.05 118.33 61.58 120.99 C 61.05 125.19 55.44 127.46 52.13 124.84 C 50.32 123.28 49.11 121.18 47.86 119.18 C 41.22 107.78 38.69 94.02 41.05 81.03 C 43.70 65.91 52.87 52.08 65.78 43.78 Z" />
</g>
<g id="#b927ffff">
<path fill="#b927ff" opacity="1.00" d=" M 154.61 50.51 C 157.37 47.52 159.91 42.52 164.79 43.67 C 172.70 55.28 177.56 68.84 179.17 82.79 C 181.09 106.48 173.11 131.21 156.08 148.06 C 153.97 150.36 150.75 149.61 148.06 149.18 C 146.47 146.54 144.85 143.03 147.33 140.34 C 153.04 133.82 158.43 126.83 161.68 118.71 C 167.65 103.77 169.31 86.79 164.71 71.24 C 162.57 63.80 158.94 56.88 154.61 50.51 Z" />
</g>
<g id="#00000040">
<path fill="#000000" opacity="0.25" d=" M 63.52 61.48 C 77.69 45.56 104.07 41.78 121.45 54.61 C 117.20 54.04 113.59 51.53 109.44 50.64 C 98.70 47.92 86.99 49.18 77.11 54.21 C 66.38 59.86 57.86 69.94 54.80 81.75 C 53.32 86.81 53.26 92.13 52.70 97.34 C 50.79 84.57 54.76 71.00 63.52 61.48 Z" />
<path fill="#000000" opacity="0.25" d=" M 82.00 81.02 C 87.08 73.08 98.81 71.02 106.37 76.61 C 100.35 76.35 93.72 74.82 88.31 78.32 C 82.41 81.55 80.05 88.43 79.65 94.78 C 79.77 98.94 73.29 102.23 71.02 97.98 C 73.73 97.66 77.22 97.40 78.35 94.41 C 79.50 89.95 78.97 84.87 82.00 81.02 Z" />
<path fill="#000000" opacity="0.25" d=" M 179.17 82.79 C 179.81 84.79 180.41 86.85 180.31 88.98 C 180.20 94.79 180.27 100.64 179.47 106.41 C 177.34 119.56 172.05 132.27 163.79 142.77 C 161.15 146.09 158.66 149.95 154.63 151.71 C 152.06 152.83 149.76 150.88 148.06 149.18 C 150.75 149.61 153.97 150.36 156.08 148.06 C 173.11 131.21 181.09 106.48 179.17 82.79 Z" />
<path fill="#000000" opacity="0.25" d=" M 152.31 83.80 C 154.18 88.66 153.24 93.96 153.21 99.03 C 153.00 107.12 149.71 114.75 145.71 121.65 C 143.91 124.48 141.72 127.95 137.99 128.12 C 136.66 128.23 135.94 126.92 135.08 126.17 C 137.63 125.80 140.60 125.57 142.14 123.16 C 150.47 111.99 153.90 97.57 152.31 83.80 Z" />
<path fill="#000000" opacity="0.25" d=" M 125.79 86.87 C 127.44 89.99 127.28 93.82 126.01 97.04 C 123.95 100.80 118.32 100.65 116.04 97.17 C 118.44 97.24 121.26 98.14 123.29 96.38 C 126.22 94.16 125.87 90.13 125.79 86.87 Z" />
<path fill="#000000" opacity="0.25" d=" M 96.38 120.65 C 96.90 121.69 97.41 122.73 97.92 123.78 C 96.12 125.73 94.54 127.89 93.41 130.29 C 88.76 139.92 83.82 149.41 79.15 159.02 C 77.94 161.15 76.77 164.12 73.91 164.24 C 72.51 164.55 71.29 163.66 70.02 163.27 C 72.72 162.61 75.89 161.94 77.04 159.04 C 83.58 146.29 89.86 133.41 96.38 120.65 Z" />
</g>
<g id="#b121ffff">
<path fill="#b121ff" opacity="1.00" d=" M 123.60 56.10 C 126.34 53.14 129.19 50.28 132.14 47.54 C 143.15 56.51 150.38 69.76 152.31 83.80 C 153.90 97.57 150.47 111.99 142.14 123.16 C 140.60 125.57 137.63 125.80 135.08 126.17 C 133.67 124.51 131.42 123.20 131.27 120.81 C 130.94 118.22 132.69 116.05 133.91 113.94 C 139.73 104.85 141.64 93.56 139.93 82.97 C 138.05 72.38 131.81 62.90 123.60 56.10 Z" />
</g>
<g id="#a117ffff">
<path fill="#a117ff" opacity="1.00" d=" M 68.51 81.44 C 72.43 69.19 85.16 60.59 98.00 61.55 C 111.69 62.16 123.94 73.28 125.79 86.87 C 125.87 90.13 126.22 94.16 123.29 96.38 C 121.26 98.14 118.44 97.24 116.04 97.17 C 113.08 93.27 114.22 88.10 112.20 83.84 C 110.93 80.98 108.92 78.43 106.37 76.61 C 98.81 71.02 87.08 73.08 82.00 81.02 C 78.97 84.87 79.50 89.95 78.35 94.41 C 77.22 97.40 73.73 97.66 71.02 97.98 C 65.27 94.42 66.58 86.85 68.51 81.44 Z" />
</g>
<g id="#9a12ffff">
<path fill="#9a12ff" opacity="1.00" d=" M 14.80 104.65 C 18.76 101.04 21.28 96.15 25.46 92.75 C 25.53 94.61 25.67 96.46 25.86 98.31 C 27.24 112.87 33.59 126.78 43.33 137.64 C 45.07 139.64 47.25 141.92 46.70 144.82 C 46.29 149.44 39.92 151.55 36.73 148.28 C 25.07 136.60 17.50 121.19 14.41 105.04 L 14.80 104.65 Z" />
</g>
<g id="#a91cffff">
<path fill="#a91cff" opacity="1.00" d=" M 88.95 97.97 C 92.37 93.07 100.44 93.41 103.77 98.24 C 106.39 101.54 105.42 105.99 106.12 109.86 C 106.64 114.88 109.04 119.36 111.10 123.87 C 109.81 122.91 108.48 122.02 107.16 121.12 C 104.78 123.58 102.53 126.16 100.45 128.88 C 99.58 127.19 98.75 125.49 97.92 123.78 C 97.41 122.73 96.90 121.69 96.38 120.65 C 89.86 133.41 83.58 146.29 77.04 159.04 C 75.89 161.94 72.72 162.61 70.02 163.27 C 67.18 161.32 64.24 157.96 66.22 154.34 C 72.87 140.71 79.93 127.27 86.53 113.62 C 87.75 108.52 85.51 102.49 88.95 97.97 Z" />
</g>
<g id="#b424ffff">
<path fill="#b424ff" opacity="1.00" d=" M 107.16 121.12 C 108.48 122.02 109.81 122.91 111.10 123.87 C 117.47 135.35 122.97 147.32 129.01 158.99 C 130.80 162.60 132.80 166.12 134.17 169.92 C 133.97 173.09 133.26 176.56 130.58 178.61 C 127.70 181.16 123.64 181.06 120.03 181.10 C 103.33 181.21 86.64 181.24 69.94 181.10 C 67.53 181.08 65.14 180.74 62.78 180.29 C 61.79 178.11 60.21 175.78 61.20 173.30 C 61.98 170.84 64.47 169.14 67.03 169.30 C 84.91 169.19 102.80 169.52 120.68 169.13 C 113.99 155.68 107.35 142.22 100.45 128.88 C 102.53 126.16 104.78 123.58 107.16 121.12 Z" />
</g>
<g id="#00000034">
<path fill="#000000" opacity="0.20" d=" M 134.17 169.92 C 135.24 172.53 135.78 175.58 134.11 178.09 C 131.78 182.40 126.66 183.98 122.04 183.82 C 104.04 183.86 86.03 184.06 68.04 183.74 C 65.60 183.94 63.83 182.32 62.78 180.29 C 65.14 180.74 67.53 181.08 69.94 181.10 C 86.64 181.24 103.33 181.21 120.03 181.10 C 123.64 181.06 127.70 181.16 130.58 178.61 C 133.26 176.56 133.97 173.09 134.17 169.92 Z" />
</g>
</svg>
