<svg width="128" height="128" viewBox="0 0 128 128" fill="none" xmlns="http://www.w3.org/2000/svg">
<path fill-rule="evenodd" clip-rule="evenodd" d="M9.39844 9C5.31336 9 2 12.3134 2 16.3984V36.1875V40.1875V44.1875V111.555C2 115.64 5.31336 118.953 9.39844 118.953H118.602C122.687 118.953 126 115.64 126 111.555V44.1875V40.1875V36.1875V16.3984C126 12.3134 122.687 9 118.602 9H108.406H105.609H104.406H101.609H94.8125H92.0156H90.8125H88.0156H81.2188H78.4219H77.2188H74.4219H9.39844ZM118 36.1875V17H112.406V23.1953C112.406 27.2804 109.093 30.5938 105.008 30.5938C101.962 30.5938 99.3453 28.7519 98.2109 26.1216C97.0766 28.7519 94.4598 30.5938 91.4141 30.5938C88.3683 30.5938 85.7515 28.7519 84.6172 26.1216C83.4828 28.7519 80.8661 30.5938 77.8203 30.5938C73.7352 30.5938 70.4219 27.2804 70.4219 23.1953V17H10V36.1875H60H118ZM118 44.1875H60H10V110.953H118V44.1875Z" fill="url(#paint0_linear)"/>
<path d="M54.1875 51H74.5781C89.5693 51 101.766 63.1963 101.766 78.1875C101.766 93.1787 89.5693 105.375 74.5781 105.375H54.1875C39.1963 105.375 27 93.1787 27 78.1875C27 63.1963 39.1963 51 54.1875 51Z" stroke="url(#paint1_linear)" stroke-width="8"/>
<path d="M59.3343 91.2968L76.3265 81.1015C77.3501 80.4873 77.9766 79.3812 77.9766 78.1875C77.9766 76.9937 77.3501 75.8876 76.3265 75.2734L59.3343 65.0781C58.2847 64.4483 56.9772 64.4315 55.9114 65.0348C54.8461 65.6379 54.1875 66.7678 54.1875 67.9922V88.3828C54.1875 89.6071 54.8461 90.737 55.9116 91.3401C56.4314 91.6344 57.0089 91.7812 57.5859 91.7812C58.1915 91.7812 58.7967 91.6194 59.3343 91.2968Z" stroke="url(#paint2_linear)" stroke-width="8"/>
<defs>
<linearGradient id="paint0_linear" x1="2" y1="118.953" x2="145.399" y2="48.4668" gradientUnits="userSpaceOnUse">
<stop stop-color="#0357D1"/>
<stop offset="1" stop-color="#27CDFC"/>
</linearGradient>
<linearGradient id="paint1_linear" x1="40.5513" y1="98.9557" x2="89.232" y2="40.5528" gradientUnits="userSpaceOnUse">
<stop stop-color="#FE0844"/>
<stop offset="1" stop-color="#FEB302"/>
</linearGradient>
<linearGradient id="paint2_linear" x1="58.4993" y1="88.5716" x2="82.3695" y2="70.3477" gradientUnits="userSpaceOnUse">
<stop stop-color="#FE0844"/>
<stop offset="1" stop-color="#FEB302"/>
</linearGradient>
</defs>
</svg>
