<svg width="64" height="64" viewBox="0 0 64 64" fill="none" xmlns="http://www.w3.org/2000/svg">
<path d="M14 6C11.2386 6 9 8.23858 9 11V53C9 55.7614 11.2386 58 14 58H51C53.7614 58 56 55.7614 56 53V11C56 8.23858 53.7614 6 51 6H14ZM13.7 15C13.7 12.2386 15.9386 10 18.7 10H29.15C29.7023 10 30.15 10.4477 30.15 11V11C30.15 11.5523 30.5977 12 31.15 12H33.85C34.4023 12 34.85 11.5523 34.85 11V11C34.85 10.4477 35.2977 10 35.85 10H46.3C49.0614 10 51.3 12.2386 51.3 15V49C51.3 51.7614 49.0614 54 46.3 54H18.7C15.9386 54 13.7 51.7614 13.7 49V15ZM32.15 14C31.0454 14 30.15 14.8954 30.15 16V16C30.15 17.1046 31.0454 18 32.15 18H32.85C33.9546 18 34.85 17.1046 34.85 16V16C34.85 14.8954 33.9546 14 32.85 14H32.15ZM32.15 20C31.0454 20 30.15 20.8954 30.15 22V22C30.15 23.1046 31.0454 24 32.15 24H32.85C33.9546 24 34.85 23.1046 34.85 22V22C34.85 20.8954 33.9546 20 32.85 20H32.15ZM32.5 26C31.2021 26 30.15 27.0521 30.15 28.35V28.5171C30.15 29.622 29.4024 30.5601 28.4551 31.1289C26.6471 32.2144 25.45 33.9925 25.45 36C25.45 39.29 28.6342 42 32.5 42C36.3657 42 39.55 39.29 39.55 36C39.55 33.9919 38.3521 32.2132 36.5432 31.1269C35.5966 30.5584 34.85 29.6208 34.85 28.5167V28.35C34.85 27.0521 33.7979 26 32.5 26V26ZM32.5 34C33.8254 34 34.85 34.872 34.85 36C34.85 37.128 33.8254 38 32.5 38C31.1746 38 30.15 37.128 30.15 36C30.15 34.872 31.1746 34 32.5 34Z" fill="url(#paint0_linear)"/>
<defs>
<linearGradient id="paint0_linear" x1="32.5" y1="58" x2="32.5" y2="6" gradientUnits="userSpaceOnUse">
<stop stop-color="#02AA93"/>
<stop offset="1" stop-color="#67FF80"/>
</linearGradient>
</defs>
</svg>
