<svg xmlns="http://www.w3.org/2000/svg" xmlns:xlink="http://www.w3.org/1999/xlink" viewBox="0 0 48 48"><defs><linearGradient id="c"><stop offset="0" stop-color="#f10c86"/><stop offset="1" stop-color="#f10cee" stop-opacity="0"/></linearGradient><linearGradient id="b"><stop offset="0" stop-color="#f10c86"/><stop offset="1" stop-color="#f10c86" stop-opacity="0"/></linearGradient><linearGradient id="a"><stop offset="0" stop-color="#11c6f8"/><stop offset="1" stop-color="#ff007f"/></linearGradient><linearGradient xlink:href="#a" id="d" x1="3.451" y1="6.774" x2="10.095" y2="6.774" gradientUnits="userSpaceOnUse" gradientTransform="translate(.473 .14)"/><linearGradient xlink:href="#a" id="j" x1="5.211" y1="6.775" x2="8.901" y2="6.775" gradientUnits="userSpaceOnUse" gradientTransform="translate(.473 .14)"/><linearGradient xlink:href="#b" id="h" x1="3.86" y1="9.17" x2="4.989" y2="9.17" gradientUnits="userSpaceOnUse"/><linearGradient xlink:href="#b" id="g" x1="3.86" y1="8.041" x2="4.989" y2="8.041" gradientUnits="userSpaceOnUse"/><linearGradient xlink:href="#b" id="f" x1="3.86" y1="6.912" x2="4.989" y2="6.912" gradientUnits="userSpaceOnUse"/><linearGradient xlink:href="#c" id="e" x1="3.86" y1="5.783" x2="4.989" y2="5.783" gradientUnits="userSpaceOnUse"/><linearGradient xlink:href="#b" id="i" x1="3.86" y1="4.654" x2="4.989" y2="4.654" gradientUnits="userSpaceOnUse"/></defs><g transform="translate(-12.658 -11.528) scale(5.1649)"><rect rx="1" y="3.526" x="4.424" height="6.773" width="5.644" fill="none" stroke="url(#d)" stroke-width=".477"/><rect width=".847" height="1.129" x="9.828" y="7.986" rx=".25" fill="#ffb800"/><rect width="1.129" height=".564" x="3.86" y="5.501" rx=".15" fill="url(#e)"/><rect rx=".15" y="6.63" x="3.86" height=".564" width="1.129" fill="url(#f)"/><rect width="1.129" height=".564" x="3.86" y="7.759" rx=".15" fill="url(#g)"/><rect rx=".15" y="8.888" x="3.86" height=".564" width="1.129" fill="url(#h)"/><rect rx=".15" y="4.372" x="3.86" height=".564" width="1.129" fill="url(#i)"/><path d="M7.292 8.885c-.412-.017-.69-.048-.906-.102-.247-.062-.423-.155-.495-.263-.05-.075-.059-.113-.055-.254.003-.119.003-.12.031-.178.07-.143.198-.265.435-.412.117-.073.36-.19.531-.259.171-.068.21-.095.247-.175a.202.202 0 0 0 .023-.108c0-.094-.017-.142-.075-.206a1.642 1.642 0 0 1-.4-1.037c0-.397.171-.707.473-.856a.902.902 0 0 1 .394-.096c.423-.016.772.218.891.6.063.201.064.47.004.707-.059.23-.19.492-.327.647-.07.081-.078.093-.093.162a.373.373 0 0 0 .012.22c.028.058.064.084.171.122.56.2.953.465 1.051.706.017.041.018.057.018.183 0 .134 0 .14-.022.184-.09.192-.374.315-.87.378a9.13 9.13 0 0 1-1.038.04z" fill="none" stroke="url(#j)" stroke-width=".303"/><rect rx=".25" y="4.545" x="9.828" height="1.129" width=".847" fill="#ffb800"/><rect rx=".25" y="6.272" x="9.828" height="1.129" width=".847" fill="#ffb800"/></g></svg>