<svg width="48" height="48" viewBox="0 0 48 48" fill="none" xmlns="http://www.w3.org/2000/svg">
<path d="M30.4615 3C25.6154 3 24 6.23077 24 6.23077C24 6.23077 22.3846 12.6923 19.1538 15.9231C15.9231 19.1538 14.3077 20.7692 9.46154 22.3846C7.92905 22.8954 3 25.6154 3 28.8462C3 33.6923 3 38.5385 9.46154 38.5385C14.3077 38.5385 15.9231 36.9231 24 38.5385C28.752 39.4889 32.0769 45 35.3077 45C38.5385 45 41.7692 43.3846 41.7692 43.3846C41.7692 43.3846 45 41.7692 45 38.5385C45 33.6923 36.9231 28.8462 36.9231 22.3846V7.84615C36.9231 7.84615 35.3077 3 30.4615 3ZM26.4231 19.1538C28.351 19.1538 30.2 19.9197 31.5632 21.283C32.9264 22.6462 33.6923 24.4952 33.6923 26.4231C33.6923 28.351 32.9264 30.2 31.5632 31.5632C30.2 32.9264 28.351 33.6923 26.4231 33.6923C24.4952 33.6923 22.6462 32.9264 21.283 31.5632C19.9197 30.2 19.1538 28.351 19.1538 26.4231C19.1538 24.4952 19.9197 22.6462 21.283 21.283C22.6462 19.9197 24.4952 19.1538 26.4231 19.1538V19.1538Z" fill="url(#paint0_linear)"/>
<defs>
<linearGradient id="paint0_linear" x1="24" y1="45" x2="24" y2="3" gradientUnits="userSpaceOnUse">
<stop stop-color="#E80058"/>
<stop offset="0.9997" stop-color="#FF001D"/>
<stop offset="0.9998" stop-color="#FF867E"/>
</linearGradient>
</defs>
</svg>
