<svg width="128" height="128" viewBox="0 0 128 128" fill="none" xmlns="http://www.w3.org/2000/svg">
<path d="M14.885 15.5846C16.8841 15.159 18.9645 15.0171 21.0368 15.0171C48.6751 15.0233 76.3216 15.0171 103.96 15.0171C107.658 14.9616 111.477 14.9801 114.963 16.0471C122.724 18.2367 128.266 24.3244 127.99 30.6279C127.974 52.8197 128.015 75.0115 127.974 97.2033C128.071 105.246 118.506 112.29 107.974 112.234C78.467 112.234 48.9596 112.271 19.4603 112.216C9.10706 112.062 0.00533788 105.086 0.00533788 97.2157C-0.00278865 74.808 -0.00278847 52.3941 0.0134646 29.9803C0.0622238 23.3807 6.49844 17.2375 14.885 15.5846ZM18.225 22.4678C13.6579 23.1648 9.66779 26.3351 9.77343 29.9679C9.74905 52.3941 9.77343 74.8203 9.76531 97.2465C9.64341 101.453 14.885 105.012 20.3298 104.895C49.5366 104.901 78.7515 104.925 107.958 104.87C113.663 104.901 118.636 100.935 118.368 96.6112C118.385 74.5983 118.401 52.5853 118.36 30.5724C118.645 26.2364 113.541 22.3322 107.877 22.3322C79.1984 22.3013 50.5117 22.3322 21.8251 22.3137C20.6224 22.326 19.4115 22.2951 18.225 22.4678Z" fill="url(#paint0_linear)"/>
<path d="M30.2604 37.0424C32.9584 35.9692 36.4691 36.7402 38.1513 38.6399C45.5708 46.1461 52.9497 53.6832 60.353 61.2018C61.0437 62.0344 62.2383 62.8486 61.9701 63.9403C61.2306 65.0443 60.2067 66.0127 59.2478 67.0118C52.2752 74.0678 45.3514 81.1485 38.4032 88.223C37.2167 89.4812 35.4045 90.5421 33.2835 90.5791C27.9606 90.8628 24.7344 85.4228 28.5376 82.5733C34.3237 76.6583 40.1829 70.7866 45.9121 64.8469C47.0092 63.9773 46.6029 62.6759 45.6439 61.8555C39.8578 55.9653 34.0474 50.0873 28.2857 44.1847C25.8396 42.0075 26.7822 38.2513 30.2604 37.0424Z" fill="url(#paint1_linear)"/>
<path d="M60.2636 83.3319C61.4663 82.9187 62.8316 83.0174 64.1155 82.9803C75.2245 83.0112 86.3416 82.9618 97.4506 82.9988C100.205 82.8323 102.83 84.5901 102.871 86.6995C103.099 88.9323 100.344 90.98 97.3937 90.684C85.7646 90.684 74.1274 90.7025 62.4984 90.6778C59.7028 90.8875 57.1023 88.8521 57.2405 86.7612C57.2568 85.2995 58.4757 83.887 60.2636 83.3319Z" fill="url(#paint2_linear)"/>
<defs>
<linearGradient id="paint0_linear" x1="64" y1="112.246" x2="64" y2="15" gradientUnits="userSpaceOnUse">
<stop stop-color="#FD2E00"/>
<stop offset="1" stop-color="#FF9900"/>
</linearGradient>
<linearGradient id="paint1_linear" x1="44.444" y1="90.5898" x2="44.444" y2="36.5547" gradientUnits="userSpaceOnUse">
<stop stop-color="#FD2E00"/>
<stop offset="1" stop-color="#FF9900"/>
</linearGradient>
<linearGradient id="paint2_linear" x1="80.0597" y1="90.7126" x2="80.0597" y2="82.9803" gradientUnits="userSpaceOnUse">
<stop stop-color="#FD2E00"/>
<stop offset="1" stop-color="#FF9900"/>
</linearGradient>
</defs>
</svg>
