<svg xmlns="http://www.w3.org/2000/svg" xmlns:xlink="http://www.w3.org/1999/xlink" viewBox="0 0 48 48"><defs><linearGradient id="b"><stop offset="0" stop-color="#a806ed"/><stop offset="1" stop-color="#ff0045"/></linearGradient><linearGradient id="a"><stop offset="0" stop-color="#00f94a"/><stop offset="1" stop-color="#e0ff00"/></linearGradient><linearGradient xlink:href="#a" id="c" x1="4.936" y1="23.794" x2="42.064" y2="23.794" gradientUnits="userSpaceOnUse"/><linearGradient xlink:href="#b" id="d" gradientUnits="userSpaceOnUse" x1="17.538" y1="28.804" x2="31.038" y2="28.804"/></defs><path d="M16.353 2.942a.463.463 0 0 0-.377.7l1.451 2.495c-2.87 1.72-4.58 4.53-4.58 7.529h21.448c-.006-2.998-1.718-5.807-4.587-7.522l1.457-2.502c.31-.536-.494-1-.803-.464l-1.47 2.521a12.088 12.088 0 0 0-5.323-1.227 12.079 12.079 0 0 0-5.327 1.221l-1.466-2.517a.463.463 0 0 0-.424-.236m1.855 6.128c1.022 0 1.022 1.532 0 1.532-1.02 0-1.02-1.532 0-1.532m10.724 0c1.022 0 1.022 1.532 0 1.532-1.02 0-1.02-1.532 0-1.532m-16.086 8.005v16.852a3.057 3.057 0 0 0 3.064 3.064h1.532v5.363a2.293 2.293 0 0 0 2.298 2.298 2.293 2.293 0 0 0 2.298-2.298v-5.363h3.064v5.363A2.293 2.293 0 0 0 27.4 44.65a2.293 2.293 0 0 0 2.298-2.298v-5.363h1.532a3.057 3.057 0 0 0 3.064-3.064V17.073zM8 17a2.293 2.293 0 0 0-2.298 2.298v10.724A2.293 2.293 0 0 0 8 32.32a2.293 2.293 0 0 0 2.298-2.298V19.298A2.293 2.293 0 0 0 8 17m31 0a2.293 2.293 0 0 0-2.298 2.298v10.724A2.293 2.293 0 0 0 39 32.32a2.293 2.293 0 0 0 2.298-2.298V19.298A2.293 2.293 0 0 0 39 17" stroke="url(#c)" fill="none" stroke-width="1.532"/><path d="M22.288 24.304v3h4v-3l4 4.5-4 4.5v-3h-4v3l-4-4.5z" stroke="url(#d)" transform="matrix(1.26747 0 0 .94226 -6.992 -.365)" stroke-width="1.373" fill="none" stroke-linecap="round" stroke-linejoin="round"/></svg>