<svg xmlns="http://www.w3.org/2000/svg" xmlns:xlink="http://www.w3.org/1999/xlink" viewBox="0 0 48 48"><defs><linearGradient id="a"><stop offset="0" stop-color="#ff8b00"/><stop offset="1" stop-color="#e0ff00"/></linearGradient><linearGradient xlink:href="#a" id="c" x1="4.936" y1="23.794" x2="42.064" y2="23.794" gradientUnits="userSpaceOnUse"/><linearGradient gradientUnits="userSpaceOnUse" x2="47" x1="1" id="b"><stop stop-color="#e8a803"/><stop stop-color="#fcb704" offset="1"/></linearGradient><linearGradient xlink:href="#b" id="d" x1="121.915" y1="25.201" x2="131.916" y2="25.201" gradientUnits="userSpaceOnUse"/></defs><path d="M16.353 2.942a.463.463 0 0 0-.377.7l1.451 2.495c-2.87 1.72-4.58 4.53-4.58 7.529h21.448c-.006-2.998-1.718-5.807-4.587-7.522l1.457-2.502c.31-.536-.494-1-.803-.464l-1.47 2.521a12.088 12.088 0 0 0-5.323-1.227 12.079 12.079 0 0 0-5.327 1.221l-1.466-2.517a.463.463 0 0 0-.424-.236m1.855 6.128c1.022 0 1.022 1.532 0 1.532-1.02 0-1.02-1.532 0-1.532m10.724 0c1.022 0 1.022 1.532 0 1.532-1.02 0-1.02-1.532 0-1.532m-16.086 8.005v16.852a3.057 3.057 0 0 0 3.064 3.064h1.532v5.363a2.293 2.293 0 0 0 2.298 2.298 2.293 2.293 0 0 0 2.298-2.298v-5.363h3.064v5.363A2.293 2.293 0 0 0 27.4 44.65a2.293 2.293 0 0 0 2.298-2.298v-5.363h1.532a3.057 3.057 0 0 0 3.064-3.064V17.073zM8 17a2.293 2.293 0 0 0-2.298 2.298v10.724A2.293 2.293 0 0 0 8 32.32a2.293 2.293 0 0 0 2.298-2.298V19.298A2.293 2.293 0 0 0 8 17m31 0a2.293 2.293 0 0 0-2.298 2.298v10.724A2.293 2.293 0 0 0 39 32.32a2.293 2.293 0 0 0 2.298-2.298V19.298A2.293 2.293 0 0 0 39 17" stroke="url(#c)" fill="none" stroke-width="1.532"/><path d="M126.917 20.201a4.998 4.998 0 0 1 4.898 4h-3.17a1.987 1.987 0 0 0-2.727-.73l-1.5-2.596a4.994 4.994 0 0 1 2.498-.674m-3.313 1.262l1.58 2.74a2 2 0 0 0 .732 2.728l-1.498 2.594a4.995 4.995 0 0 1-2.502-4.324 4.99 4.99 0 0 1 1.688-3.738zm3.313 2.738c1.334 0 1.334 2 0 2-1.333 0-1.333-2 0-2zm2 1h3a5 5 0 0 1-5 5 4.94 4.94 0 0 1-1.58-.262l1.58-2.738a2 2 0 0 0 2-2z" fill="url(#d)" transform="translate(-134.785 -5.288) scale(1.2476)"/></svg>