<svg xmlns="http://www.w3.org/2000/svg" xmlns:xlink="http://www.w3.org/1999/xlink" viewBox="0 0 48 48"><defs><linearGradient id="a"><stop offset="0" stop-color="#00f94a"/><stop offset="1" stop-color="#e0ff00"/></linearGradient><linearGradient xlink:href="#a" id="b" x1="4.936" y1="23.794" x2="42.064" y2="23.794" gradientUnits="userSpaceOnUse"/><linearGradient xlink:href="#a" id="c" gradientUnits="userSpaceOnUse" x1="12.372" y1="14.195" x2="40.763" y2="41.449" gradientTransform="translate(64.116 2.342)"/></defs><path d="M16.353 2.942a.463.463 0 0 0-.377.7l1.451 2.495c-2.87 1.72-4.58 4.53-4.58 7.529h21.448c-.006-2.998-1.718-5.807-4.587-7.522l1.457-2.502c.31-.536-.494-1-.803-.464l-1.47 2.521a12.088 12.088 0 0 0-5.323-1.227 12.079 12.079 0 0 0-5.327 1.221l-1.466-2.517a.463.463 0 0 0-.424-.236m1.855 6.128c1.022 0 1.022 1.532 0 1.532-1.02 0-1.02-1.532 0-1.532m10.724 0c1.022 0 1.022 1.532 0 1.532-1.02 0-1.02-1.532 0-1.532m-16.086 8.005v16.852a3.057 3.057 0 0 0 3.064 3.064h1.532v5.363a2.293 2.293 0 0 0 2.298 2.298 2.293 2.293 0 0 0 2.298-2.298v-5.363h3.064v5.363A2.293 2.293 0 0 0 27.4 44.65a2.293 2.293 0 0 0 2.298-2.298v-5.363h1.532a3.057 3.057 0 0 0 3.064-3.064V17.073zM8 17a2.293 2.293 0 0 0-2.298 2.298v10.724A2.293 2.293 0 0 0 8 32.32a2.293 2.293 0 0 0 2.298-2.298V19.298A2.293 2.293 0 0 0 8 17m31 0a2.293 2.293 0 0 0-2.298 2.298v10.724A2.293 2.293 0 0 0 39 32.32a2.293 2.293 0 0 0 2.298-2.298V19.298A2.293 2.293 0 0 0 39 17" stroke="url(#b)" fill="none" stroke-width="1.532"/><path d="M88.118 22.34c1.596-.002.5 1.335 1.883 2.053 1.382.718 2.116-.807 2.914.44.798 1.245-1.031 1.061-1.031 2.501s1.828 1.25 1.029 2.498c-.798 1.25-1.532-.273-2.914.45-1.382.721-.29 2.055-1.885 2.058-1.596.002-.501-1.335-1.883-2.053-1.382-.718-2.116.807-2.914-.439s1.03-1.062 1.03-2.502c0-1.44-1.827-1.249-1.028-2.498.798-1.249 1.532.273 2.914-.449 1.382-.722.289-2.056 1.885-2.059zm-.002 4a1 1 0 1 0 0 2 1 1 0 0 0 0-2z" stroke="url(#c)" stroke-width="1.5" transform="translate(-64.214 -.825)" fill="none"/></svg>