<svg xmlns="http://www.w3.org/2000/svg" xmlns:xlink="http://www.w3.org/1999/xlink" viewBox="0 0 48 48" version="1.1" id="svg10"><defs id="defs14"><linearGradient id="linearGradient883"><stop offset="0" id="stop879" stop-color="#009dff" stop-opacity="1"/><stop offset="1" id="stop881" stop-color="#00ff6c" stop-opacity="1"/></linearGradient><style id="current-color-scheme" type="text/css"/><linearGradient xlink:href="#linearGradient883" id="linearGradient901" x1="1.531" y1="16" x2="30.5" y2="16" gradientUnits="userSpaceOnUse" gradientTransform="translate(43.513 -1.848) scale(1.37872)"/><linearGradient xlink:href="#linearGradient883" id="linearGradient913" x1="1.531" y1="16" x2="30.5" y2="16" gradientUnits="userSpaceOnUse"/><linearGradient xlink:href="#linearGradient883" id="linearGradient917" gradientUnits="userSpaceOnUse" x1="1.531" y1="16" x2="30.5" y2="16" gradientTransform="translate(43.513 -1.848) scale(1.37872)"/></defs><g id="g863" transform="translate(-41.424 3.729)"><g id="g905" fill="url(#linearGradient913)" fill-opacity="1" stroke-width="1.379"><path d="M65.572.91a19.254 19.254 0 0 0-19.195 17.275l.75.096 4.658 3.31 9.91 5.697 2.027 12.132a19.26 19.26 0 0 0 21.152-19.21A19.26 19.26 0 0 0 65.572.91z" id="path842" opacity="1" fill="none" fill-rule="evenodd" stroke="url(#linearGradient901)" stroke-opacity="1"/><path d="M65.572.91a19.302 19.302 0 0 0-18.005 12.408h.082l4.136-1.379 1.379 1.379 1.378 1.379v-2.758L57.3 10.56V9.182l2.757-1.379 2.758-2.757v1.378l1.378-1.378-1.378-1.38h2.757v1.38l2.757-1.38-1.378-1.378V.978A19.302 19.302 0 0 0 65.572.91zm14.304 6.376l-.517.517v1.379h2.025a19.302 19.302 0 0 0-1.508-1.896zm1.815 2.322l-.953.952-2.758 2.758-1.378 1.379-1.379 4.136v1.378l1.379 1.38 1.378 1.378 2.758 1.379 3.848-.949a19.302 19.302 0 0 0 .288-3.188 19.302 19.302 0 0 0-3.183-10.603zm-32.664 6.467l-1.378 1.38h-1.156c-.069.468-.121.938-.155 1.41v.002l2.69 1.345 1.378 1.378 2.758 1.379 1.378 1.379-1.378 1.378v2.758l1.378 2.757L57.3 34v3.624a19.302 19.302 0 0 0 8.272 1.89c.234-.004.469-.012.703-.024l.676-1.354v-1.379l2.757-1.379L71.087 34v-2.76l1.379-1.378v-1.38l-1.38-1.378-4.135-1.379-1.379-1.378-1.379-1.38h-1.378l-1.38-1.378L57.3 20.21l-2.758 1.38h-2.757v-2.758h-1.379v-2.758z" id="path846" fill="url(#linearGradient917)"/></g></g></svg>