<svg xmlns="http://www.w3.org/2000/svg" xmlns:xlink="http://www.w3.org/1999/xlink" height="48" width="48"><defs><linearGradient id="a"><stop offset="0" stop-color="#ef02ff"/><stop offset="1" stop-color="#008dff"/></linearGradient><linearGradient xlink:href="#a" id="b" x1="3.991" y1="2.932" x2="60.551" y2="61.227" gradientUnits="userSpaceOnUse"/><linearGradient xlink:href="#a" id="c" gradientUnits="userSpaceOnUse" x1="3.991" y1="2.932" x2="60.551" y2="61.227"/><linearGradient xlink:href="#a" id="d" gradientUnits="userSpaceOnUse" x1="3.991" y1="2.932" x2="60.551" y2="61.227"/></defs><path d="M6.214 2.63A3.576 3.576 0 0 0 2.63 6.214V27.72a3.584 3.584 0 0 1 0 7.168v7.169a3.576 3.576 0 0 0 3.584 3.584h35.843a3.576 3.576 0 0 0 3.584-3.584v-7.169a3.584 3.584 0 0 1 0-7.169V6.214a3.576 3.576 0 0 0-3.584-3.584z" style="isolation:auto;mix-blend-mode:normal;solid-color:#000;solid-opacity:1" overflow="visible" color="#000" fill="none" stroke-width=".759"/><circle r="1.792" cy="39.76" cx="8.907" style="isolation:auto;mix-blend-mode:normal;solid-color:#000;solid-opacity:1" overflow="visible" color="#000" fill="#883eff" stroke-width=".759"/><g transform="translate(-.354 -.354) scale(.75885)" color="#000" fill="none" stroke="url(#b)" stroke-width="1.8"><path overflow="visible" font-weight="400" style="line-height:normal;text-indent:0;text-align:start;text-decoration-line:none;text-decoration-style:solid;text-decoration-color:#000;text-transform:none;white-space:normal;isolation:auto;mix-blend-mode:normal;solid-color:#000;solid-opacity:1" d="M8.655 3.932a4.713 4.713 0 0 0-4.723 4.723v28.34a4.723 4.723 0 1 1 0 9.446v9.446a4.713 4.713 0 0 0 4.723 4.723h47.232a4.713 4.713 0 0 0 4.723-4.723v-9.446c-6.297 0-6.297-9.447 0-9.447V8.655a4.713 4.713 0 0 0-4.723-4.723z" font-family="sans-serif" stroke="url(#c)" stroke-width="2.504"/><path overflow="visible" style="isolation:auto;mix-blend-mode:normal;solid-color:#000;solid-opacity:1" d="M16.784 16.784v30.974h30.974V16.784zm13.274 6.637v4.426h4.426V23.42zm0 8.637v11.063h4.426V32.058z" stroke="url(#d)" stroke-width="2.372"/></g><path style="isolation:auto;mix-blend-mode:normal;solid-color:#000;solid-opacity:1" overflow="visible" d="M40.344 5.53h1.79v1.793h-1.79zM38.55 7.324h1.792v1.792H38.55zm-1.79-1.793h1.792v1.792H36.76zm-1.792 1.792h1.792v1.792h-1.792zm-1.792-1.792h1.792v1.792h-1.792zm-1.793 1.792h1.793v1.792h-1.793zm-1.791-1.792h1.791v1.792h-1.791zm-1.793 1.792h1.793v1.792h-1.793zm-1.791-1.792h1.791v1.792h-1.791zm-1.793 1.792h1.793v1.792h-1.793z" color="#000" fill="#a92bff" stroke-width=".759"/><circle r="1.792" cy="39.662" cx="40.209" style="isolation:auto;mix-blend-mode:normal;solid-color:#000;solid-opacity:1" overflow="visible" color="#000" fill="#1382ff" stroke-width=".759"/></svg>