<svg xmlns="http://www.w3.org/2000/svg" xmlns:xlink="http://www.w3.org/1999/xlink" viewBox="0 0 48 48"><defs><linearGradient id="a"><stop offset="0" stop-color="#ff1700"/><stop offset="1" stop-color="#ff8509"/></linearGradient><linearGradient xlink:href="#a" id="b" gradientUnits="userSpaceOnUse" x1="7.446" y1="24.482" x2="40.546" y2="24.482" gradientTransform="translate(-10.549 -11.582) scale(1.46854)"/></defs><path d="M23.228 3.104l-4.406 10.28-14.685-1.469 8.805 8.811L2.662 26.6l11.749 1.469-8.806 11.748 13.217-4.405 1.463 8.81 7.343-7.342 11.748 7.343-4.406-13.217 11.748-1.469-10.28-5.874 7.343-2.937-5.874-2.931L45.25 4.578l-16.154 7.337zm-.689 10.28h4.315c.43 0 .778.35.78.78l.04 10.44a.778.778 0 0 1-.78.782H22.58a.781.781 0 0 1-.78-.78l-.04-10.444a.778.778 0 0 1 .779-.78m0 14.685h4.315c.43 0 .78.35.78.78v4.315a.78.78 0 0 1-.78.78h-4.315a.78.78 0 0 1-.78-.78v-4.315c0-.43.35-.78.78-.78" fill="none" stroke="url(#b)" stroke-width="2" stroke-linecap="round" stroke-linejoin="round" paint-order="stroke fill markers"/></svg>