<svg xmlns="http://www.w3.org/2000/svg" xmlns:xlink="http://www.w3.org/1999/xlink" viewBox="0 0 48 48"><defs><linearGradient id="a"><stop offset="0" stop-color="#b3f100"/><stop offset="1" stop-color="#00fff5"/></linearGradient><linearGradient xlink:href="#a" id="b" x1="7.376" y1="11.049" x2="42.774" y2="43.018" gradientUnits="userSpaceOnUse"/><linearGradient xlink:href="#a" id="c" gradientUnits="userSpaceOnUse" x1="7.376" y1="11.049" x2="42.774" y2="43.018" gradientTransform="rotate(135.785 23.439 28.526)"/><linearGradient xlink:href="#a" id="d" gradientUnits="userSpaceOnUse" x1="7.376" y1="11.049" x2="42.774" y2="43.018" gradientTransform="rotate(135.785 23.439 28.526)"/><linearGradient xlink:href="#a" id="e" gradientUnits="userSpaceOnUse" x1="7.376" y1="11.049" x2="42.774" y2="43.018" gradientTransform="rotate(135.785 23.439 28.526)"/></defs><g transform="rotate(-90 24.445 29.104) scale(1.13248)" stroke="url(#b)" stroke-linejoin="round" fill="none" stroke-width="1.589" stroke-linecap="round" paint-order="stroke fill markers"><path d="M12.762 35.655a17.637 17.637 0 0 1-2.51-21.327A17.637 17.637 0 0 1 30.2 6.384a17.637 17.637 0 0 1 12.839 17.213l-17.637-.241z" stroke="url(#c)"/><path d="M44.701 26.7a17.637 17.637 0 0 1-10.404 15.843l-7.232-16.085z" stroke="url(#d)"/><path d="M31.059 43.24a16.377 16.377 45 0 1-18.455-3.515l11.739-11.422z" stroke="url(#e)"/></g></svg>