<svg xmlns="http://www.w3.org/2000/svg" xmlns:xlink="http://www.w3.org/1999/xlink" viewBox="0 0 48 48"><defs><linearGradient id="b"><stop offset="0" stop-color="#c000ff"/><stop offset="1" stop-color="#0097ff"/></linearGradient><linearGradient id="a"><stop offset="0" stop-color="#1fff00"/><stop offset="1" stop-color="#1fff00" stop-opacity="0"/></linearGradient><linearGradient xlink:href="#a" id="c" gradientUnits="userSpaceOnUse" x1="12" y1="24" x2="36" y2="24"/><linearGradient xlink:href="#b" id="d" x1="15" y1="15" x2="22.5" y2="15" gradientUnits="userSpaceOnUse"/><linearGradient xlink:href="#b" id="e" x1="26" y1="33" x2="33.5" y2="33" gradientUnits="userSpaceOnUse"/><linearGradient xlink:href="#b" id="i" x1="15" y1="28.5" x2="33.5" y2="28.5" gradientUnits="userSpaceOnUse"/><linearGradient xlink:href="#b" id="h" x1="15" y1="25.5" x2="33.5" y2="25.5" gradientUnits="userSpaceOnUse"/><linearGradient xlink:href="#b" id="g" x1="15" y1="22.5" x2="33.5" y2="22.5" gradientUnits="userSpaceOnUse"/><linearGradient xlink:href="#b" id="f" x1="15" y1="19.5" x2="33.5" y2="19.5" gradientUnits="userSpaceOnUse"/></defs><g transform="translate(-7.143 -7.753) scale(1.35797)" stroke="url(#c)" fill="none"><path d="M15 12c-1.109 0-2 .891-2 2v20c0 1.109.891 2 2 2h10V12zm0 0" stroke="#009aff" stroke-linejoin="round"/><path d="M33 12c1.109 0 2 .891 2 2v20c0 1.109-.891 2-2 2" stroke="#009aff" stroke-linecap="round" stroke-linejoin="round"/><path d="M15 14h7v2h-7s.07.044 0-2zm0 0" stroke="url(#d)" stroke-linejoin="round"/><path d="M26 32h7v2h-7zm0 0" stroke="url(#e)" stroke-linejoin="round" stroke-linecap="round"/><path d="M15 19h18v1H15m0-1" stroke="url(#f)"/><path d="M15 22h18v1H15m0-1" stroke="url(#g)"/><path d="M15 25h18v1H15m0-1" stroke="url(#h)"/><path d="M15 28h18v1H15m0-1" stroke="url(#i)"/><path d="M14.47 12.026c-1.109 0-2 .891-2 2v20c0 1.11.891 2 2 2" stroke="#009aff" stroke-linecap="round" stroke-linejoin="round"/></g></svg>