<svg xmlns="http://www.w3.org/2000/svg" xmlns:xlink="http://www.w3.org/1999/xlink" width="48" height="48"><defs><linearGradient id="b"><stop offset="0" stop-color="#00fff7"/><stop offset="1" stop-color="#005dff"/></linearGradient><linearGradient id="a"><stop offset="0" stop-color="#f4b43f"/><stop offset="1" stop-color="#ff000e"/></linearGradient><linearGradient xlink:href="#a" id="c" x1="1.368" y1="24" x2="45.438" y2="24" gradientUnits="userSpaceOnUse"/><linearGradient xlink:href="#b" id="d" x1="23.5" y1="28" x2="34.5" y2="28" gradientUnits="userSpaceOnUse"/></defs><path fill="none" d="M22.846 4.002A2.996 2.998 0 0 0 21.143 9.4l3.404 2.621H7.992a2.996 2.998 0 1 0 0 5.997H15.5L3.234 26.936a2.996 2.998 0 1 0 3.52 4.849l6.269-4.556a15.977 15.989 0 0 0-.039.781A15.977 15.989 0 0 0 28.961 44a15.977 15.989 0 0 0 15.977-15.99 15.977 15.989 0 0 0-6.946-13.188 2.996 2.998 0 0 0-.215-.181L24.795 4.646a2.996 2.998 0 0 0-1.949-.644z" stroke="url(#c)" stroke-width="1.5"/><path fill="none" d="M29 18a10 10 0 0 1 10 10 10 10 0 0 1-10 10 10 10 0 0 1-10-10 10 10 0 0 1 10-10z" stroke="#9f9f9f" stroke-width="1.5"/><circle fill="none" cx="29" cy="28" r="5" stroke="url(#d)" stroke-width="1.5"/></svg>