<?xml version="1.0" encoding="UTF-8" ?>
<!DOCTYPE svg PUBLIC "-//W3C//DTD SVG 1.1//EN" "http://www.w3.org/Graphics/SVG/1.1/DTD/svg11.dtd">
<svg width="192pt" height="192pt" viewBox="0 0 192 192" version="1.1" xmlns="http://www.w3.org/2000/svg">
<g id="#1ba1c0ff">
<path fill="#1ba1c0" opacity="1.00" d=" M 17.15 41.01 C 17.13 28.31 28.29 17.01 40.97 16.78 C 50.66 16.69 60.35 16.69 70.03 16.78 C 73.33 16.51 75.25 19.37 76.57 21.92 C 75.62 24.30 74.97 27.68 71.95 28.18 C 67.45 28.85 62.87 28.40 58.34 28.42 C 58.31 32.20 58.27 35.98 58.26 39.76 C 53.81 44.20 51.16 50.08 46.44 54.28 C 46.34 45.70 46.44 37.11 46.41 28.54 C 43.88 28.35 41.34 28.55 38.83 28.85 C 33.06 30.30 28.61 35.91 28.89 41.93 C 28.94 78.42 28.74 114.92 29.03 151.40 C 28.13 147.96 27.86 144.41 27.67 140.87 C 24.22 144.71 21.40 149.08 17.68 152.67 C 17.22 151.17 17.04 149.60 17.07 148.04 C 17.16 112.36 17.06 76.68 17.15 41.01 Z" />
</g>
<g id="#19abc2ff">
<path fill="#19abc2" opacity="1.00" d=" M 92.06 22.93 C 91.80 19.28 95.36 16.13 98.95 16.86 C 101.27 17.10 102.94 18.97 103.88 20.96 C 104.10 32.97 103.92 44.98 103.98 56.99 C 103.56 56.95 102.72 56.87 102.31 56.82 C 102.02 53.41 101.83 50.00 101.34 46.61 C 98.20 50.20 94.57 54.04 94.24 59.07 C 93.86 63.77 94.03 68.53 92.99 73.15 C 91.70 71.36 92.07 69.08 91.99 67.01 C 92.09 52.32 91.96 37.62 92.06 22.93 Z" />
</g>
<g id="#18b6c5ff">
<path fill="#18b6c5" opacity="1.00" d=" M 128.58 21.98 C 128.49 18.65 131.84 16.39 134.96 16.74 C 143.62 17.05 152.82 15.40 160.92 19.33 C 157.56 21.69 155.02 24.99 153.64 28.87 C 149.24 28.30 144.79 28.52 140.37 28.44 C 140.29 42.30 140.45 56.17 140.32 70.04 C 140.77 74.20 136.09 77.60 132.29 75.86 C 129.50 74.35 127.32 71.99 124.89 70.00 C 122.00 67.44 119.12 64.85 116.17 62.37 C 111.14 66.59 106.47 71.23 101.30 75.27 C 98.58 77.50 95.15 75.91 92.85 73.95 L 92.99 73.15 C 94.03 68.53 93.86 63.77 94.24 59.07 C 94.57 54.04 98.20 50.20 101.34 46.61 C 101.83 50.00 102.02 53.41 102.31 56.82 C 102.72 56.87 103.56 56.95 103.98 56.99 C 105.02 56.21 106.02 55.37 107.00 54.52 C 110.23 52.05 113.26 47.29 117.96 48.65 C 121.99 50.70 124.84 54.45 128.51 57.06 C 128.57 45.37 128.42 33.67 128.58 21.98 Z" />
</g>
<g id="#17c0c7ff">
<path fill="#17c0c7" opacity="1.00" d=" M 153.64 28.87 C 155.02 24.99 157.56 21.69 160.92 19.33 C 166.85 22.46 171.38 27.85 173.59 34.17 C 174.32 37.40 174.61 40.70 174.58 44.01 C 174.53 52.88 174.60 61.75 174.50 70.62 C 169.48 74.08 166.93 79.82 162.84 84.18 C 162.73 70.11 162.87 56.03 162.78 41.96 C 162.78 39.06 161.96 36.15 160.21 33.81 C 158.46 31.65 156.14 30.04 153.64 28.87 Z" />
<path fill="#17c0c7" opacity="1.00" d=" M 48.75 174.07 C 50.91 169.03 54.00 164.35 58.28 160.88 L 58.45 161.80 L 58.59 162.47 C 74.86 162.53 91.13 162.37 107.40 162.53 C 105.48 166.53 103.13 170.29 100.86 174.09 C 83.49 174.15 66.12 174.15 48.75 174.07 Z" />
</g>
<g id="#00020228">
<path fill="#000202" opacity="0.16" d=" M 103.88 20.96 C 107.08 24.13 105.76 28.98 106.02 33.00 C 106.31 40.17 105.03 47.52 107.00 54.52 C 106.02 55.37 105.02 56.21 103.98 56.99 C 103.92 44.98 104.10 32.97 103.88 20.96 Z" />
</g>
<g id="#0000003c">
<path fill="#000000" opacity="0.24" d=" M 76.57 21.92 C 76.99 24.37 77.37 27.46 74.97 29.05 C 70.69 31.97 65.22 30.60 60.40 31.42 C 58.98 32.05 59.32 33.72 59.20 34.96 C 59.29 74.30 59.18 113.65 59.26 153.00 C 59.13 155.93 59.82 159.07 58.45 161.80 L 58.28 160.88 C 58.30 140.16 58.34 119.44 58.26 98.72 C 58.34 79.07 58.32 59.42 58.26 39.76 C 58.27 35.98 58.31 32.20 58.34 28.42 C 62.87 28.40 67.45 28.85 71.95 28.18 C 74.97 27.68 75.62 24.30 76.57 21.92 Z" />
<path fill="#000000" opacity="0.24" d=" M 140.37 28.44 C 144.79 28.52 149.24 28.30 153.64 28.87 C 156.14 30.04 158.46 31.65 160.21 33.81 C 154.92 32.00 149.23 29.88 143.61 31.58 C 141.48 31.92 142.01 34.39 141.77 35.96 C 141.71 47.95 141.90 59.96 141.76 71.95 C 141.92 75.95 137.64 79.98 133.67 78.32 C 129.95 76.63 126.43 73.89 124.89 70.00 C 127.32 71.99 129.50 74.35 132.29 75.86 C 136.09 77.60 140.77 74.20 140.32 70.04 C 140.45 56.17 140.29 42.30 140.37 28.44 Z" />
<path fill="#000000" opacity="0.24" d=" M 28.89 41.93 C 28.61 35.91 33.06 30.30 38.83 28.85 C 41.15 28.79 43.57 28.47 45.82 29.23 C 45.77 29.51 45.67 30.06 45.62 30.34 C 41.89 31.76 37.28 31.22 34.31 34.31 C 30.48 37.72 29.83 43.14 29.87 47.97 C 30.01 74.98 29.90 101.99 29.93 129.00 C 29.77 136.78 30.52 144.60 29.25 152.32 L 29.03 151.40 C 28.74 114.92 28.94 78.42 28.89 41.93 Z" />
</g>
<g id="#00000025">
<path fill="#000000" opacity="0.15" d=" M 173.59 34.17 C 176.76 36.32 176.67 40.55 176.84 43.96 C 176.80 79.32 176.81 114.68 176.83 150.04 C 176.81 154.75 175.99 159.55 173.70 163.72 C 171.35 168.23 166.81 170.92 162.83 173.83 C 159.15 176.55 154.48 177.26 150.01 177.24 C 114.67 177.25 79.33 177.22 43.99 177.26 C 37.83 177.20 31.24 175.72 26.69 171.31 C 24.72 169.47 22.57 167.49 22.22 164.67 C 26.63 169.86 32.89 173.55 39.74 174.18 C 45.46 174.98 51.25 174.69 57.00 174.67 C 82.66 174.64 108.33 174.70 134.00 174.66 C 140.09 174.60 146.21 175.05 152.26 174.14 C 164.30 173.00 174.57 162.20 174.53 150.00 C 174.57 123.54 174.58 97.08 174.50 70.62 C 174.60 61.75 174.53 52.88 174.58 44.01 C 174.61 40.70 174.32 37.40 173.59 34.17 Z" />
</g>
<g id="#1aa8c2ff">
<path fill="#1aa8c2" opacity="1.00" d=" M 46.44 54.28 C 51.16 50.08 53.81 44.20 58.26 39.76 C 58.32 59.42 58.34 79.07 58.26 98.72 C 53.67 102.70 51.40 108.68 46.44 112.28 C 46.37 92.95 46.38 73.61 46.44 54.28 Z" />
</g>
<g id="#15cdcaff">
<path fill="#15cdca" opacity="1.00" d=" M 162.84 84.18 C 166.93 79.82 169.48 74.08 174.50 70.62 C 174.58 97.08 174.57 123.54 174.53 150.00 C 174.57 162.20 164.30 173.00 152.26 174.14 C 135.13 174.10 117.99 174.14 100.86 174.09 C 103.13 170.29 105.48 166.53 107.40 162.53 C 121.57 162.36 135.75 162.57 149.92 162.42 C 156.59 162.47 162.64 156.66 162.74 149.97 C 162.92 128.04 162.71 106.11 162.84 84.18 Z" />
</g>
<g id="#19b3c4ff">
<path fill="#19b3c4" opacity="1.00" d=" M 46.44 112.28 C 51.40 108.68 53.67 102.70 58.26 98.72 C 58.34 119.44 58.30 140.16 58.28 160.88 C 54.00 164.35 50.91 169.03 48.75 174.07 C 45.75 174.09 42.75 174.22 39.74 174.18 C 32.89 173.55 26.63 169.86 22.22 164.67 C 19.65 161.28 18.29 157.21 17.20 153.16 L 17.68 152.67 C 21.40 149.08 24.22 144.71 27.67 140.87 C 27.86 144.41 28.13 147.96 29.03 151.40 L 29.25 152.32 C 30.73 159.29 38.12 163.48 44.96 162.46 C 46.91 162.76 46.25 160.11 46.44 158.99 C 46.37 143.42 46.38 127.85 46.44 112.28 Z" />
</g>
<g id="#04272774">
<path fill="#042727" opacity="0.45" d=" M 39.74 174.18 C 42.75 174.22 45.75 174.09 48.75 174.07 C 66.12 174.15 83.49 174.15 100.86 174.09 C 117.99 174.14 135.13 174.10 152.26 174.14 C 146.21 175.05 140.09 174.60 134.00 174.66 C 108.33 174.70 82.66 174.64 57.00 174.67 C 51.25 174.69 45.46 174.98 39.74 174.18 Z" />
</g>
</svg>
