<svg xmlns="http://www.w3.org/2000/svg" xmlns:xlink="http://www.w3.org/1999/xlink" viewBox="0 0 48 48"><defs><linearGradient id="a"><stop stop-color="#ffa907" offset="0"/><stop stop-opacity=".967" stop-color="#ff00a5" offset="1"/></linearGradient><linearGradient xlink:href="#a" id="b" x1="2.818" y1="3.428" x2="45.182" y2="45.792" gradientUnits="userSpaceOnUse"/></defs><g fill="none" stroke="url(#b)" stroke-width="1.9"><path d="M9.573 31.903h4.517c.992 0 1.794.804 1.794 1.795v4.517c0 .992-.802 1.794-1.794 1.794H9.573a1.797 1.797 0 0 1-1.794-1.794v-4.517a1.797 1.797 0 0 1 1.794-1.794m12.157-.001h4.518c.991 0 1.794.804 1.794 1.795v4.517c0 .992-.803 1.794-1.794 1.794H21.73a1.797 1.797 0 0 1-1.794-1.794v-4.517a1.797 1.797 0 0 1 1.794-1.794m12.16-.001h4.529a1.8 1.8 0 0 1 1.793 1.795v4.517a1.8 1.8 0 0 1-1.793 1.794H33.89a1.79 1.79 0 0 1-1.783-1.794v-4.517c0-.991.807-1.794 1.783-1.794m0 0"/><rect ry="6.305" y="3.428" x="2.818" height="42.364" width="42.364" stroke-linecap="round" stroke-linejoin="round"/></g></svg>