<svg xmlns="http://www.w3.org/2000/svg" xmlns:xlink="http://www.w3.org/1999/xlink" viewBox="0 0 48 48"><defs><linearGradient id="a"><stop stop-color="#b900ce" offset="0"/><stop stop-color="#ff0001" offset="1"/></linearGradient><linearGradient id="b"><stop offset="0" stop-color="#97749b"/><stop offset="1" stop-color="#ea2626" stop-opacity="0"/></linearGradient><linearGradient xlink:href="#a" id="h" gradientUnits="userSpaceOnUse" x1="13.996" y1="23" x2="34" y2="23"/><linearGradient xlink:href="#a" id="g" gradientUnits="userSpaceOnUse" gradientTransform="translate(-.072 1.366)" x1="13.996" y1="23" x2="34" y2="23"/><linearGradient xlink:href="#a" id="i" gradientUnits="userSpaceOnUse" x1="13.996" y1="23" x2="34" y2="23"/><linearGradient xlink:href="#a" id="j" gradientUnits="userSpaceOnUse" x1="13.996" y1="23" x2="34" y2="23"/><linearGradient xlink:href="#a" id="f" gradientUnits="userSpaceOnUse" x1="13.996" y1="23" x2="34" y2="23"/><linearGradient xlink:href="#b" id="d" gradientUnits="userSpaceOnUse" x1="14.996" y1="24" x2="35" y2="24"/><linearGradient xlink:href="#b" id="e" gradientUnits="userSpaceOnUse" x1="14.996" y1="24" x2="35" y2="24"/><linearGradient xlink:href="#b" id="c" gradientUnits="userSpaceOnUse" x1="14.996" y1="24" x2="35" y2="24"/></defs><g transform="translate(-10.35 -9.974) scale(1.4838)" opacity=".1" fill="none" stroke="url(#c)" stroke-width="1.436"><path d="M15.609 30c-.926 0-1.613.621-1.613 1.57V35h20v-3.43c0-.949-.469-1.57-1.391-1.57h-17m0 0" stroke="url(#d)"/><path d="M34 21c0 5.523-4.477 10-10 10s-10-4.477-10-10 4.477-10 10-10 10 4.477 10 10m0 0" stroke="url(#e)"/></g><g transform="translate(-11.835 -11.458) scale(1.4838)" fill="none" stroke="url(#f)" stroke-width="1.436"><path d="M15.537 31.366c-.926 0-1.613.621-1.613 1.57v3.43h20v-3.43c0-.949-.469-1.57-1.39-1.57h-17m0 0" stroke="url(#g)"/><path d="M34 21c0 5.523-4.477 10-10 10s-10-4.477-10-10 4.477-10 10-10 10 4.477 10 10m0 0" stroke="url(#h)"/><path d="M30 21c0 3.313-2.684 6-6 6-3.313 0-6-2.688-6-6a6 6 0 1 1 12 0m0 0" stroke="url(#i)"/><path d="M27 21a3.001 3.001 0 0 1-6 0 3.001 3.001 0 0 1 6 0m0 0" stroke="url(#j)"/></g></svg>