<svg xmlns="http://www.w3.org/2000/svg" xmlns:xlink="http://www.w3.org/1999/xlink" height="64" width="64"><defs><linearGradient id="c" x1="412.51" gradientUnits="userSpaceOnUse" x2="411.93" gradientTransform="matrix(1.274 -.19577 .10158 1 122.55 885.49)" y1="519.17" y2="526.42"><stop stop-color="#fcbb80" offset="0"/><stop stop-color="#f99133" offset="1"/></linearGradient><linearGradient id="a" x1="32" gradientUnits="userSpaceOnUse" x2="32" gradientTransform="translate(0 4)" y1="56" y2="8"><stop stop-color="#00ffc3" offset="0"/><stop stop-color="#00ff69" offset="1"/></linearGradient><linearGradient xlink:href="#a" id="b" x1="6.942" y1="15.291" x2="58.508" y2="50.983" gradientUnits="userSpaceOnUse" gradientTransform="translate(3.298 3.304) scale(.89676)"/></defs><path d="M48.793 6.89s-1.031 2.275 0 3.588c-3.937-3.587-7.437-1.794-7.437-1.794s.882 2.353 2.187 3.587c-2.097-1.031-4.375 0-4.375 0s1.189 1.794 2.188 1.794H10.472a3.58 3.58 0 0 0-3.587 3.587v28.696c0 1.987 1.6 3.582 3.587 3.587h26.903c1.794 0 4.25 1.712 5.38 2.69l4.485 3.88c.847.734 1.591.874 1.793 0l.897-3.88c.404-1.747 1.793-2.69 3.587-2.69 2.046 0 3.587-1.6 3.587-3.587V14.065c0-5.38-8.31-7.174-8.31-7.174z" style="isolation:auto;mix-blend-mode:normal;solid-color:#000" color="#000" fill="none" stroke="url(#b)" stroke-width="1.614"/><path d="M57.818 27.968s5.166-.596 4.626-1.858c-.54-1.261-4.626 1.858-4.626 1.858m0 0s3.723-3.522 2.504-4.204c-1.22-.683-2.504 4.204-2.504 4.204m0 0s4.473 2.576 4.838 1.257c.364-1.32-4.838-1.257-4.838-1.257M5.946 36.465s-4.353 2.576-4.708 1.256c-.354-1.319 4.708-1.256 4.708-1.256m0 0S.781 35.87 1.32 34.607c.54-1.261 4.627 1.858 4.627 1.858m-.001 0s-1.932 4.683-3.048 3.852c-1.118-.832 3.048-3.852 3.048-3.852" fill="#343031" fill-rule="evenodd"/><g transform="translate(3.298 3.304) scale(.89676)" color="#000"><path style="isolation:auto;mix-blend-mode:normal;solid-color:#000" d="M24.783 32.648c2.558-5.352-.073-9.005-5.154-10.683-5.08-1.678-10.719 1.35-12.094 5.512-1.375 4.163.614 8.637 5.695 10.314 5.08 1.679 9.664-1.188 11.554-5.143z" fill="#fafafa"/><circle cy="29.54" cx="17.5" r="3.5" fill="#343031"/><path style="isolation:auto;mix-blend-mode:normal;solid-color:#000" d="M37.2 19.962c-2.551 5.58.629 10.378 5.913 12.024 5.285 1.646 11.44-1.756 12.788-6.086 1.349-4.33-1.116-9.548-6.4-11.194-5.284-1.646-10.415 1.131-12.301 5.256z" fill="#fafafa"/><circle cy="23.54" cx="43.5" r="3.5" fill="#343031"/></g><g fill-rule="evenodd"><path d="M21.108 41.494c8.621 8.344 16.605 8.037 20.491 3.277 3.887-4.76.979-8.828.979-8.828z" fill="#e4720c"/><path d="M22.201 41.494c6.552 6.853 15.184 6.506 18.137 2.597 2.954-3.91.744-7.25.744-7.25z" fill="#343031"/><path d="M30.535 46.49c3.495 1.103 7.972.268 9.802-2.389-3.553-.979-7.54.67-9.802 2.39z" fill="#ec4040"/><path d="M689.89 1330.2s1.432-4.319 8.931-6.267c7.499-1.948 11.07 1.267 11.07 1.267.999 2.908-8.664 7.427-8.664 7.427s-10.699.576-11.334-2.427" fill="url(#c)" transform="matrix(1.0937 0 0 1.1102 -733.42 -1435.283)"/></g></svg>