<svg xmlns="http://www.w3.org/2000/svg" width="48" height="48"><defs><filter id="b" color-interpolation-filters="sRGB"><feColorMatrix values="3.54 0 0 -0.360317 -1.27 0 3.54 0 -0.360317 -1.27 0 0 3.54 -0.360317 -1.27 0 0 0 1 0" result="fbSourceGraphic"/><feColorMatrix result="fbSourceGraphicAlpha" in="fbSourceGraphic" values="0 0 0 -1 0 0 0 0 -1 0 0 0 0 -1 0 0 0 0 1 0"/><feColorMatrix values="3.54 0 0 -0.360249 -1.27 0 3.54 0 -0.360249 -1.27 0 0 3.54 -0.360249 -1.27 0 0 0 1 0" in="fbSourceGraphic"/></filter><filter id="a" color-interpolation-filters="sRGB"><feColorMatrix values="3.54 0 0 -0.360317 -1.27 0 3.54 0 -0.360317 -1.27 0 0 3.54 -0.360317 -1.27 0 0 0 1 0" result="fbSourceGraphic"/><feColorMatrix result="fbSourceGraphicAlpha" in="fbSourceGraphic" values="0 0 0 -1 0 0 0 0 -1 0 0 0 0 -1 0 0 0 0 1 0"/><feColorMatrix values="3.54 0 0 -0.360249 -1.27 0 3.54 0 -0.360249 -1.27 0 0 3.54 -0.360249 -1.27 0 0 0 1 0" in="fbSourceGraphic"/></filter></defs><g transform="translate(-7.632 -7.76) scale(1.26529)" filter="url(#a)"><path d="M9 14.996c-.551 0-1 .449-1 1v2a1 1 0 0 0 1 1h2a1 1 0 0 0 1-1v-2c0-.551-.449-1-1-1zm6 0c-.551 0-1 .449-1 1v2a1 1 0 0 0 1 1h2a1 1 0 0 0 1-1v-2c0-.551-.449-1-1-1zm6 0c-.551 0-1 .449-1 1v2a1 1 0 0 0 1 1h2a1 1 0 0 0 1-1v-2c0-.551-.449-1-1-1zm6 0c-.551 0-1 .449-1 1v2a1 1 0 0 0 1 1h2a1 1 0 0 0 1-1v-2c0-.551-.449-1-1-1zm6 0c-.551 0-1 .449-1 1v2a1 1 0 0 0 1 1h2a1 1 0 0 0 1-1v-2c0-.551-.449-1-1-1zm6 0c-.551 0-1 .449-1 1v2a1 1 0 0 0 1 1h2a1 1 0 0 0 1-1v-2c0-.551-.449-1-1-1zm-30 6c-.551 0-1 .449-1 1v2a1 1 0 0 0 1 1h2a1 1 0 0 0 1-1v-2c0-.551-.449-1-1-1zm6 0c-.551 0-1 .449-1 1v2a1 1 0 0 0 1 1h2a1 1 0 0 0 1-1v-2c0-.551-.449-1-1-1zm6 0c-.551 0-1 .449-1 1v2a1 1 0 0 0 1 1h2a1 1 0 0 0 1-1v-2c0-.551-.449-1-1-1zm6 0c-.551 0-1 .449-1 1v2a1 1 0 0 0 1 1h2a1 1 0 0 0 1-1v-2c0-.551-.449-1-1-1zm6 0c-.551 0-1 .449-1 1v2a1 1 0 0 0 1 1h2a1 1 0 0 0 1-1v-2c0-.551-.449-1-1-1zm6 0c-.551 0-1 .449-1 1v2a1 1 0 0 0 1 1h2a1 1 0 0 0 1-1v-2c0-.551-.449-1-1-1zm-30 6c-.551 0-1 .449-1 1v2a1 1 0 0 0 1 1h2a1 1 0 0 0 1-1v-2c0-.551-.449-1-1-1zm6 0c-.551 0-1 .449-1 1v2a1 1 0 0 0 1 1h2a1 1 0 0 0 1-1v-2c0-.551-.449-1-1-1zm6 0c-.551 0-1 .449-1 1v2a1 1 0 0 0 1 1h2a1 1 0 0 0 1-1v-2c0-.551-.449-1-1-1zm6 0c-.551 0-1 .449-1 1v2a1 1 0 0 0 1 1h2a1 1 0 0 0 1-1v-2c0-.551-.449-1-1-1zm6 0c-.551 0-1 .449-1 1v2a1 1 0 0 0 1 1h2a1 1 0 0 0 1-1v-2c0-.551-.449-1-1-1zm6 0c-.551 0-1 .449-1 1v2a1 1 0 0 0 1 1h2a1 1 0 0 0 1-1v-2c0-.551-.449-1-1-1zm-24 6c-.551 0-1 .449-1 1v2a1 1 0 0 0 1 1h20a1 1 0 0 0 1-1v-2c0-.551-.449-1-1-1z" opacity=".1"/></g><g transform="translate(-6.367 -7.76) scale(1.26529)" filter="url(#b)"><path d="M8 13.996h2c.551 0 1 .449 1 1v2a1 1 0 0 1-1 1H8a1 1 0 0 1-1-1v-2c0-.551.449-1 1-1m6 0h2c.551 0 1 .449 1 1v2a1 1 0 0 1-1 1h-2a1 1 0 0 1-1-1v-2c0-.551.449-1 1-1" fill="#ed7868"/><path d="M20 13.996h2c.551 0 1 .449 1 1v2a1 1 0 0 1-1 1h-2a1 1 0 0 1-1-1v-2c0-.551.449-1 1-1m6 0h2c.551 0 1 .449 1 1v2a1 1 0 0 1-1 1h-2a1 1 0 0 1-1-1v-2c0-.551.449-1 1-1m6 0h2c.551 0 1 .449 1 1v2a1 1 0 0 1-1 1h-2a1 1 0 0 1-1-1v-2c0-.551.449-1 1-1" fill="#d992c9"/><path d="M38 13.996h2c.551 0 1 .449 1 1v2a1 1 0 0 1-1 1h-2a1 1 0 0 1-1-1v-2c0-.551.449-1 1-1" fill="#9ab9dd"/><path d="M8 19.996h2c.551 0 1 .449 1 1v2a1 1 0 0 1-1 1H8a1 1 0 0 1-1-1v-2c0-.551.449-1 1-1" fill="#ed7868"/><path d="M14 19.996h2c.551 0 1 .449 1 1v2a1 1 0 0 1-1 1h-2a1 1 0 0 1-1-1v-2c0-.551.449-1 1-1m6 0h2c.551 0 1 .449 1 1v2a1 1 0 0 1-1 1h-2a1 1 0 0 1-1-1v-2c0-.551.449-1 1-1" fill="#f2b477"/><path d="M26 19.996h2c.551 0 1 .449 1 1v2a1 1 0 0 1-1 1h-2a1 1 0 0 1-1-1v-2c0-.551.449-1 1-1m6 0h2c.551 0 1 .449 1 1v2a1 1 0 0 1-1 1h-2a1 1 0 0 1-1-1v-2c0-.551.449-1 1-1" fill="#86dd95"/><path d="M38 19.996h2c.551 0 1 .449 1 1v2a1 1 0 0 1-1 1h-2a1 1 0 0 1-1-1v-2c0-.551.449-1 1-1" fill="#9ab9dd"/><path d="M8 25.996h2c.551 0 1 .449 1 1v2a1 1 0 0 1-1 1H8a1 1 0 0 1-1-1v-2c0-.551.449-1 1-1" fill="#f2b477"/><path d="M14 25.996h2c.551 0 1 .449 1 1v2a1 1 0 0 1-1 1h-2a1 1 0 0 1-1-1v-2c0-.551.449-1 1-1m6 0h2c.551 0 1 .449 1 1v2a1 1 0 0 1-1 1h-2a1 1 0 0 1-1-1v-2c0-.551.449-1 1-1m6 0h2c.551 0 1 .449 1 1v2a1 1 0 0 1-1 1h-2a1 1 0 0 1-1-1v-2c0-.551.449-1 1-1" fill="#f3f284"/><path d="M32 25.996h2c.551 0 1 .449 1 1v2a1 1 0 0 1-1 1h-2a1 1 0 0 1-1-1v-2c0-.551.449-1 1-1" fill="#86dd95"/><path d="M38 25.996h2c.551 0 1 .449 1 1v2a1 1 0 0 1-1 1h-2a1 1 0 0 1-1-1v-2c0-.551.449-1 1-1" fill="#9ab9dd"/><path d="M14 31.996h20c.551 0 1 .449 1 1v2a1 1 0 0 1-1 1H14a1 1 0 0 1-1-1v-2c0-.551.449-1 1-1" fill="#ececeb"/></g></svg>