<svg xmlns="http://www.w3.org/2000/svg" xmlns:xlink="http://www.w3.org/1999/xlink" width="48" height="48" version="1"><defs><linearGradient id="a"><stop offset="0" stop-color="#ff5508"/><stop offset="1" stop-color="#ffa208"/></linearGradient><linearGradient xlink:href="#a" id="b" x1="4.573" y1="44.745" x2="42.369" y2="3.254" gradientUnits="userSpaceOnUse"/></defs><g fill="none" stroke="url(#b)" stroke-linecap="round"><path d="M14.928 25.78l7.704-2.135m-1.084 9.853l4.02-7.335m7.518 9.039l-3.951-8.94" stroke-width="1.383" stroke-linejoin="bevel"/><path d="M13.642 15.937l8.282 3.729" stroke-width="1.383" stroke-linejoin="round"/><path d="M12.365 2.446C8.25 2.628 3.591 7.698 2.213 14.762c-.327 1.77-.392 3.189-.4 4.788.003.145.003.289.01.435.556 14.356 12.244 25.953 26.638 26.37l.219.007c.944.036 2.017-.047 2.879-.106 10.844-1.058 17.919-9.844 12.082-14.695-3.304-2.745-9.393-4.712-15.765-11.029-6.722-6.665-8.634-12.977-11.45-16.235-1.16-1.343-2.575-1.917-4.06-1.851zm1.362 2.696c-3.368 3.801-5.323 8.66-5.325 13.773v.002c0 11.549 9.316 20.864 20.866 20.864 5.173-.007 10.09-2.004 13.908-5.453" stroke-width="1.8" stroke-linejoin="bevel"/></g></svg>