<svg xmlns="http://www.w3.org/2000/svg" xmlns:xlink="http://www.w3.org/1999/xlink" viewBox="0 0 48 48"><defs><linearGradient id="a" gradientUnits="userSpaceOnUse" x1="24" x2="24" y1="2" y2="46"><stop stop-color="#00ff70" offset="0"/><stop stop-color="#0075ff" offset="1"/></linearGradient><linearGradient xlink:href="#a" id="b" x1=".5" y1="24" x2="47.5" y2="24" gradientUnits="userSpaceOnUse"/><linearGradient xlink:href="#a" id="c" x1="11" y1="24" x2="37" y2="24" gradientUnits="userSpaceOnUse"/></defs><path d="M47 24a23 23 0 0 1-23 23A23 23 0 0 1 1 24 23 23 0 0 1 24 1a23 23 0 0 1 23 23z" fill="none" stroke="url(#b)" stroke-width="1.5"/><path d="M11 11v26h26V11zm8 2.998c2.046 0 3.127.596 4.15 1.62l-1.306 1.566C21 16.4 20.084 15.998 19 15.998c-1.796 0-2.985 1.56-2.998 3.412.013 1.854 1.143 3.588 2.998 3.588 1.204 0 2.157-.622 3-1.404l1.371 1.396c-1.083 1.204-2.325 2.008-4.371 2.008-3.19.06-5-2.49-5-5.559s1.69-5.441 5-5.441zM25 14h2v9h5v2h-7zM13 32h10v2H13z" fill="url(#c)"/></svg>