<svg xmlns="http://www.w3.org/2000/svg" xmlns:xlink="http://www.w3.org/1999/xlink" viewBox="0 0 48 48"><defs><linearGradient id="a"><stop stop-color="#ff001e" offset="0"/><stop stop-color="#ff0080" offset="1"/></linearGradient><linearGradient xlink:href="#a" id="b" x1="5.274" y1="3.742" x2="45.094" y2="44.115" gradientUnits="userSpaceOnUse"/></defs><g stroke="url(#b)" fill="none" stroke-width="1.8" stroke-linecap="round" stroke-linejoin="round"><path d="M18.194 20.884l-7.089 7.095a4.472 4.472 0 0 0-1.153 4.333l-5.21 5.21a4.488 4.488 0 0 0 0 6.362 4.49 4.49 0 0 0 6.363 0l5.208-5.21a4.47 4.47 0 0 0 4.334-1.152l7.297-7.025"/><rect transform="rotate(45)" ry="1.125" rx="1.125" y="-4.923" x="20.898" height="6.748" width="26.991"/><path d="M34.822 27.87a9.042 9.042 0 0 0 1.798-1.381l6.362-6.364a8.976 8.976 0 0 0 0-12.722l-1.59-1.59a8.973 8.973 0 0 0-12.724 0l-6.362 6.36a9.046 9.046 0 0 0-1.384 1.798M8.997 39.802l9.143-8.982"/></g></svg>