<svg xmlns="http://www.w3.org/2000/svg" xmlns:xlink="http://www.w3.org/1999/xlink" viewBox="0 0 48 48"><defs><linearGradient id="a"><stop offset="0" stop-color="#f9b807"/><stop offset="1" stop-color="#f88d06"/></linearGradient><linearGradient xlink:href="#a" id="b" x1="3.381" y1="24.746" x2="45.11" y2="24.746" gradientUnits="userSpaceOnUse"/></defs><g stroke="url(#b)" fill="none"><path d="M3.881 8.153v15.084H15.95v-4.525H8.407v-6.034h7.542V8.153zm13.577 0v15.084h4.525v-6.034h1.509l3.016 6.034h4.526l-3.771-7.542h2.262V8.153zm13.576 0v4.525h4.525v10.56h4.526v-10.56h4.525V8.153zm-9.05 3.016H25v3.017h-3.017zM3.88 26.254V41.34h12.07V26.254z"/><path d="M3.881 8.153V9.66H15.95V8.153zm13.577 0V9.66h12.067V8.153zm13.576 0V9.66H44.61V8.153zM3.88 12.678v1.508h4.526v-1.508zm13.577 0v1.508h4.525v-1.508zm7.542 0v1.508h4.525v-1.508zm10.56 0v1.508h4.525v-1.508zM3.88 17.203v1.509h4.526v-1.509zm13.577 0v1.509h4.525v-1.509zm6.034 0l.754 1.509h4.525l-.754-1.509zm12.067 0v1.509h4.526v-1.509zM3.881 21.73v1.508H15.95V21.73zm13.577 0v1.508h4.525V21.73zm8.296 0l.754 1.508h4.526l-.754-1.508zm9.805 0v1.508h4.526V21.73zM3.881 26.254v1.509H15.95v-1.509zm0 4.526v1.508H15.95V30.78zm0 4.525v1.509H15.95v-1.509zm0 4.526v1.508H15.95v-1.508z"/></g></svg>