<svg xmlns="http://www.w3.org/2000/svg" xmlns:xlink="http://www.w3.org/1999/xlink" viewBox="0 0 48 48"><defs><linearGradient id="a"><stop stop-color="#92fe77" offset="0"/><stop stop-opacity=".858" stop-color="#ff8712" offset="1"/></linearGradient><linearGradient id="b"><stop offset="0" stop-color="#1ca600"/><stop offset="1" stop-color="#4f9800" stop-opacity=".845"/></linearGradient><linearGradient xlink:href="#a" id="c" x1="15.997" y1="22.997" x2="33.999" y2="22.997" gradientUnits="userSpaceOnUse"/><linearGradient xlink:href="#b" id="d" gradientUnits="userSpaceOnUse" x1="15.997" y1="22.997" x2="33.999" y2="22.997" gradientTransform="translate(5.432 1.807) scale(.8391)"/><linearGradient xlink:href="#b" id="e" gradientUnits="userSpaceOnUse" x1="15.997" y1="22.997" x2="33.999" y2="22.997"/><linearGradient xlink:href="#b" id="f" gradientUnits="userSpaceOnUse" x1="15.997" y1="22.997" x2="33.999" y2="22.997" gradientTransform="translate(0 .137)"/><linearGradient xlink:href="#b" id="g" gradientUnits="userSpaceOnUse" x1="15.997" y1="22.997" x2="33.999" y2="22.997"/><linearGradient xlink:href="#b" id="h" gradientUnits="userSpaceOnUse" x1="15.997" y1="22.997" x2="33.999" y2="22.997" gradientTransform="translate(2.247 4.168) scale(.86526)"/></defs><g transform="translate(-18.447 -16.424) scale(1.78651)" fill="none" fill-rule="evenodd" stroke="url(#c)" stroke-width="1.008" stroke-linecap="round" stroke-linejoin="round"><path d="M31.44 12.136c1.675 1.088 2.675 2.612 2.5 3.674l-6.834-4.448c-.02-.013-.043-.022-.065-.04.914-.579 2.72-.278 4.398.814" stroke="url(#d)"/><path d="M32.77 16.5l-.52-.336c-.559-.367-1.309-.219-1.668.324l-7.09 10.711a1.187 1.187 0 0 0 .363 1.648l.52.336c.559.367 1.309.219 1.668-.324l7.09-10.711a1.187 1.187 0 0 0-.363-1.648" stroke="url(#e)"/><path d="M29.859 14.742l-.52-.336c-.559-.367-1.309-.219-1.668.328l-7.09 10.707a1.187 1.187 0 0 0 .363 1.648l.52.34c.559.363 1.309.219 1.668-.328l7.09-10.711c.359-.543.199-1.281-.363-1.648" stroke="url(#f)"/><path d="M26.949 12.715l-.52-.34c-.559-.363-1.309-.219-1.668.328l-7.09 10.711c-.359.543-.199 1.281.363 1.648l.52.336c.559.363 1.309.219 1.668-.328l7.09-10.707a1.187 1.187 0 0 0-.363-1.648" stroke="url(#g)"/><path d="M23.93 30.394c.014-.176-7.023-4.755-7.183-4.674-.155.09-.78 8.635-.638 8.73.145.091 7.813-3.873 7.822-4.056" stroke="url(#h)"/></g></svg>