<svg xmlns="http://www.w3.org/2000/svg" xmlns:xlink="http://www.w3.org/1999/xlink" viewBox="0 0 48 48"><defs><linearGradient id="f"><stop offset="0" stop-color="#00b2ff"/><stop offset="1" stop-color="#002dff"/></linearGradient><linearGradient id="e"><stop offset="0" stop-color="#00ff6f"/><stop offset="1" stop-color="#1eff01"/></linearGradient><linearGradient id="d"><stop offset="0" stop-color="#fff006"/><stop offset="1" stop-color="#ff7b00"/></linearGradient><linearGradient id="c"><stop offset="0" stop-color="#ff7500"/><stop offset="1" stop-color="#ff3f00"/></linearGradient><linearGradient id="b"><stop offset="0" stop-color="#ff0067"/><stop offset="1" stop-color="#ff0067"/></linearGradient><linearGradient id="a"><stop offset="0" stop-color="#b920c1"/><stop offset="1" stop-color="#9400ff"/></linearGradient><linearGradient xlink:href="#a" id="k" x1="8.496" y1="22.079" x2="21.099" y2="22.079" gradientUnits="userSpaceOnUse" gradientTransform="translate(1.292 1.293) scale(.94615)"/><linearGradient xlink:href="#b" id="l" x1="12.408" y1="15.692" x2="25.61" y2="15.692" gradientUnits="userSpaceOnUse" gradientTransform="translate(1.292 1.293) scale(.94615)"/><linearGradient xlink:href="#c" id="g" x1="22.958" y1="14.714" x2="38.218" y2="14.714" gradientUnits="userSpaceOnUse" gradientTransform="translate(1.292 1.293) scale(.94615)"/><linearGradient xlink:href="#d" id="h" x1="26.899" y1="25.929" x2="39.503" y2="25.929" gradientUnits="userSpaceOnUse" gradientTransform="translate(1.292 1.293) scale(.94615)"/><linearGradient xlink:href="#e" id="i" x1="22.386" y1="32.324" x2="35.588" y2="32.324" gradientUnits="userSpaceOnUse" gradientTransform="translate(1.292 1.293) scale(.94615)"/><linearGradient xlink:href="#f" id="j" x1="9.784" y1="33.287" x2="25.052" y2="33.287" gradientUnits="userSpaceOnUse" gradientTransform="translate(1.292 1.293) scale(.94615)"/></defs><g fill="none" stroke-width=".971" stroke="#000" stroke-linecap="round" stroke-linejoin="round"><path d="M26.914 10.415L23.5 20.02l13.468-2.236a14.303 14.303 0 0 0-10.053-7.37m0 0" stroke="url(#g)" transform="translate(-11.068 -11.072) scale(1.46117)"/><path d="M37.388 19.695l-10.16 1.88 8.704 10.39a13.963 13.963 0 0 0 1.445-12.271m.01 0" stroke="url(#h)" transform="translate(-11.068 -11.072) scale(1.46117)"/><path d="M34.474 33.281l-6.738-7.724-4.778 12.625c4.32.185 8.6-1.567 11.502-4.9m.011 0" stroke="url(#i)" transform="translate(-11.068 -11.072) scale(1.46117)"/><path d="M21.088 37.587l3.422-9.605-13.475 2.236a14.318 14.318 0 0 0 10.053 7.37m0 0" stroke="url(#j)" transform="translate(-11.068 -11.072) scale(1.46117)"/><path d="M10.614 28.314l10.156-1.881-8.704-10.389c-2.32 3.597-2.923 8.124-1.445 12.27m-.007 0" stroke="url(#k)" transform="translate(-11.068 -11.072) scale(1.46117)"/><path d="M13.522 14.735l6.738 7.724 4.778-12.625c-4.317-.185-8.6 1.567-11.498 4.9m-.015 0" stroke="url(#l)" transform="translate(-11.068 -11.072) scale(1.46117)"/><path d="M26.89 23.997c0 1.572-1.292 2.846-2.884 2.846-1.593 0-2.89-1.274-2.89-2.846s1.297-2.847 2.89-2.847c1.592 0 2.884 1.275 2.884 2.847m0 0" stroke="#909090" stroke-width="1.419"/></g></svg>