<svg xmlns="http://www.w3.org/2000/svg" xmlns:xlink="http://www.w3.org/1999/xlink" viewBox="0 0 48 48"><defs><linearGradient x1="24" y1="2" x2="24" gradientUnits="userSpaceOnUse" y2="46" id="a"><stop stop-color="#00ff9b" offset="0"/><stop stop-color="#0097ff" offset="1"/></linearGradient><linearGradient xlink:href="#a" id="b" x1="1" y1="24" x2="47" y2="24" gradientUnits="userSpaceOnUse"/><linearGradient xlink:href="#a" id="c" x1="11" y1="24" x2="37" y2="24" gradientUnits="userSpaceOnUse"/></defs><path d="M47 24a23 23 0 0 1-23 23A23 23 0 0 1 1 24 23 23 0 0 1 24 1a23 23 0 0 1 23 23z" fill="none" stroke="url(#b)" stroke-width="1.5"/><path d="M11 11v26h26V11H11zm3 3h4.324C20.911 14 23 16.017 23 19.475v.05c0 3.492-2.508 5.434-4.445 5.457L17 25h-3V14zm15.5 0c1.587 0 3 .523 3.988 1.512l-1.414 1.414C31.5 16.352 30.663 16 29.5 16c-1.164 0-2 .352-2.574.926-.574.574-.926 1.41-.926 2.574s.352 2 .926 2.574c.574.574 1.411.926 2.574.926 1.048 0 1.71-.305 2.13-.588.29-.195.308-.255.37-.332V21h-3v-2h5v3.783l-.166.25s-.384.562-1.088 1.037c-.705.476-1.793.93-3.246.93-1.588 0-3-.523-3.988-1.512C24.524 22.5 24 21.087 24 19.5c0-1.588.522-3 1.512-3.988C26.5 14.522 27.913 14 29.5 14zM16 16v7h2c1.204 0 3-.983 3-3.475v-.05C21 17.017 19.204 16 18 16h-2zm-3 16h10v2H13v-2z" fill="url(#c)"/></svg>