<svg xmlns="http://www.w3.org/2000/svg" xmlns:xlink="http://www.w3.org/1999/xlink" viewBox="0 0 48 48"><defs><linearGradient id="a"><stop offset="0" stop-color="#ff971f"/><stop offset="1" stop-color="#ff1f7e"/></linearGradient><linearGradient xlink:href="#a" id="b" x1="7.809" y1="24.927" x2="28.645" y2="24.927" gradientUnits="userSpaceOnUse"/></defs><path d="M25.857 18.14v13.72l14.83-.106a2.284 2.284 0 0 0 2.286-2.282v-9.146a2.286 2.286 0 0 0-2.286-2.286z" fill="none" stroke="#ff247a" stroke-width="1.143"/><path d="M10.414 14.51a2.603 2.603 0 0 0-2.605 2.603V32.74a2.603 2.603 0 0 0 2.605 2.604h15.62a2.608 2.608 0 0 0 2.61-2.604V17.113a2.608 2.608 0 0 0-2.61-2.603h-15.62zm2.063 2.875h11.906v2.97H12.477v-2.97zm0 5.953h11.906v2.969H12.477v-2.97zm0 5.951h11.906v2.977H12.477v-2.977z" fill="url(#b)"/></svg>