<svg xmlns="http://www.w3.org/2000/svg" xmlns:xlink="http://www.w3.org/1999/xlink" viewBox="0 0 48 48"><defs><linearGradient id="c"><stop offset="0" stop-color="#ff009d"/><stop offset="1" stop-color="#22c66c"/></linearGradient><linearGradient id="b"><stop offset="0" stop-color="#22c66c"/><stop offset="1" stop-color="#ff009d"/></linearGradient><linearGradient id="a"><stop offset="0" stop-color="#ff4d00"/><stop offset="1" stop-color="#ff0"/></linearGradient><linearGradient xlink:href="#a" id="g" x1="10.5" y1="14.104" x2="41.5" y2="14.104" gradientUnits="userSpaceOnUse" gradientTransform="translate(-6.923 -4.077) scale(1.23077)"/><linearGradient gradientTransform="rotate(180 28.538 25.794) scale(1.23077)" xlink:href="#b" id="f" x1="10.5" y1="14.104" x2="41.5" y2="14.104" gradientUnits="userSpaceOnUse"/><linearGradient xlink:href="#a" id="d" x1="22.688" y1="9.813" x2="38.328" y2="9.803" gradientUnits="userSpaceOnUse" gradientTransform="translate(-6.923 -4.077) scale(1.23077)"/><linearGradient gradientTransform="matrix(1.23077 0 0 -1.23077 -21.692 51.589)" xlink:href="#c" id="e" x1="25" y1="9.803" x2="42" y2="10.229" gradientUnits="userSpaceOnUse"/></defs><g paint-order="stroke fill markers"><path d="M74.077 70.954l-8.746-9.08m7-6.402l9 9.102v5.898" fill="none" stroke="#000" stroke-width="1.5" stroke-linejoin="round"/><path d="M23.846 11.925H40.25L32.462 4.05m-8.616 7.875" opacity=".999" fill="url(#d)"/><path d="M9.077 35.587H25.48l-7.789 7.875m-8.615-7.875" opacity=".999" fill="url(#e)"/><path d="M26.308 35.589l-8.616 7.873m14.77 0l7.384-8.616 3.692 3.692V25H30l3.692 3.692-7.384 6.897L16.462 25H6.615v7.385l11.077 11.077z" fill="none" stroke="url(#f)" stroke-width="1.231" stroke-linejoin="round"/><path d="M23.846 11.923l8.616-7.873m-14.77 0l-7.384 8.616-3.693-3.692v13.538h13.539l-3.692-3.692 7.384-6.897 9.846 10.589h9.846v-7.385L32.462 4.05z" fill="none" stroke="url(#g)" stroke-width="1.231" stroke-linejoin="round"/></g></svg>