<svg width="48" height="48" viewBox="0 0 48 48" fill="none" xmlns="http://www.w3.org/2000/svg">
<path d="M26.6726 3.00013L21.1751 3.54343C20.6634 3.594 20.2734 4.02438 20.2734 4.53858V29.5504C20.2734 30.164 20.821 30.6329 21.4274 30.5385L25.7909 29.8586C26.2779 29.7828 26.637 29.3634 26.637 28.8705V21.4448C26.637 20.4671 27.8955 20.0704 28.4562 20.8714L35.1168 30.3866C35.3712 30.75 35.8346 30.9024 36.255 30.7609L41.6823 28.9344C42.3601 28.7063 42.5863 27.8612 42.1131 27.325L33.5866 17.6638C33.252 17.2848 33.253 16.7156 33.5889 16.3378L42.1746 6.67889C42.6516 6.14231 42.4245 5.29286 41.7434 5.06584L36.2536 3.23589C35.8338 3.09595 35.3719 3.24858 35.1181 3.61111L28.4562 13.1281C27.8955 13.9291 26.637 13.5324 26.637 12.5547V3.03564C26.637 3.01598 26.6529 3.00006 26.6726 3.00013V3.00013Z" fill="url(#paint0_linear)"/>
<path d="M12.2556 10.6394C12.2556 10.6389 12.2552 10.6385 12.2547 10.6386C12.1767 10.6482 12.0933 10.6665 12.0344 10.7255L9.31994 13.4225C9.20606 13.536 9.19397 13.7076 9.27769 13.845L11.8449 18.0573C12.0405 18.3783 12.0368 18.7804 11.8544 19.1091C11.4211 19.8896 11.0626 20.7165 10.7832 21.5796C10.6677 21.9365 10.3765 22.2125 10.0091 22.2883L5.28063 23.2635C5.11887 23.2966 5 23.4519 5 23.6173V27.4255C5 27.5868 5.12397 27.7239 5.28089 27.7611L9.84236 28.8609C10.2122 28.95 10.4964 29.2422 10.5971 29.6091C10.8733 30.6157 11.2605 31.5755 11.7425 32.4777C11.923 32.8156 11.9155 33.2262 11.7042 33.5457L9.03944 37.5748C8.94819 37.7132 8.9665 37.8974 9.08419 38.0148L11.7962 40.7094C11.9107 40.823 12.0888 40.8372 12.2262 40.7541L16.4127 38.2303C16.7292 38.0395 17.1236 38.0414 17.4485 38.2172C18.2835 38.6688 19.1688 39.0377 20.0952 39.3135C20.4628 39.423 20.75 39.7174 20.8285 40.0928L21.7964 44.7213C21.8307 44.8829 21.9682 45 22.1349 45H25.9705C26.1308 45 26.2704 44.8921 26.3085 44.7365L27.4681 40.0406C27.5561 39.684 27.8336 39.4074 28.1845 39.2988C29.1206 39.009 30.0105 38.6166 30.8513 38.1462C31.1884 37.9576 31.6032 37.9604 31.927 38.1712L36.1173 40.8985C36.2566 40.9883 36.4389 40.9718 36.5572 40.8563L39.2568 38.1617C39.3713 38.0481 39.398 37.8732 39.314 37.7367L37.8021 35.2598C37.6082 34.9422 37.2226 34.798 36.8679 34.9104V34.9104C36.786 34.9353 36.6964 34.9015 36.6428 34.8357C36.6351 34.8261 36.6285 34.8164 36.6212 34.8065C36.5411 34.6982 36.0233 33.9976 35.6052 33.4313C35.461 33.212 34.94 32.4443 34.288 31.5407C33.8489 30.9321 32.9142 31.0279 32.4913 31.648C30.6166 34.3971 27.4855 36.0888 24.0902 36.092C18.467 36.092 13.9086 31.5336 13.9086 25.9104C13.9121 22.2612 15.524 18.996 18.4726 17.1974C18.7902 17.0037 18.9994 16.6661 18.9994 16.2941V14.2217C18.9994 13.5247 18.3154 13.0697 17.7153 13.4244V13.4244C17.3932 13.6148 16.9753 13.6144 16.6616 13.4104L12.4744 10.6876C12.405 10.642 12.3335 10.6328 12.2566 10.6403C12.2561 10.6403 12.2556 10.6399 12.2556 10.6394V10.6394Z" fill="url(#paint1_linear)"/>
<defs>
<linearGradient id="paint0_linear" x1="31.7278" y1="3" x2="31.7278" y2="30.9995" gradientUnits="userSpaceOnUse">
<stop stop-color="#8637FB"/>
<stop offset="1" stop-color="#00A0C9"/>
</linearGradient>
<linearGradient id="paint1_linear" x1="22.1816" y1="10.6379" x2="22.1816" y2="45" gradientUnits="userSpaceOnUse">
<stop stop-color="#8637FB"/>
<stop offset="1" stop-color="#00A0C9"/>
</linearGradient>
</defs>
</svg>
