<svg width="129" height="129" viewBox="0 0 129 129" fill="none" xmlns="http://www.w3.org/2000/svg">
<path d="M113.099 14.0922C120.502 15.2088 126.434 20.5114 126.715 26.3308C126.909 32.084 126.945 37.8447 126.98 43.6054C123.545 41.2745 121.141 38.1926 117.566 35.9846C117.418 32.8468 117.586 29.7063 117.312 26.5757C117.151 23.6449 113.737 21.1374 109.964 21.0602C105.921 20.9428 23.9436 21.2002 19.9025 21.1679C17.6864 19.0882 21.7446 16.4872 19.8886 14.2036C27.0639 13.7527 105.903 14.2087 113.099 14.0922Z" fill="url(#paint0_linear)"/>
<path d="M126.946 43.7273C127.094 49.6303 127.186 55.5338 127.192 61.438C123.749 59.1171 121.558 55.8694 117.829 53.7769C117.697 47.8799 117.613 41.9763 117.575 36.0784C121.134 38.2946 123.527 41.3878 126.946 43.7273Z" fill="url(#paint1_linear)"/>
<path d="M127.161 61.4455C127.323 66.7194 127.367 71.9942 127.404 77.2691C124.256 74.7503 121.792 71.6944 118.022 69.6633C117.907 64.3708 117.815 59.0781 117.795 53.7847C121.526 55.8772 123.718 59.1247 127.161 61.4455Z" fill="url(#paint2_linear)"/>
<path d="M127.373 77.2767C127.489 82.6303 127.612 87.9777 127.571 93.3265C124.006 91.2815 121.956 88.0572 118.227 86.154C118.101 80.66 118.023 75.1657 117.991 69.671C121.761 71.702 124.225 74.7579 127.373 77.2767Z" fill="url(#paint3_linear)"/>
<path d="M127.541 93.3343C127.483 98.6405 128.902 104.416 125.159 109.211C122.08 107.681 119.565 105.498 118.425 102.761C118.307 97.224 118.228 91.6932 118.196 86.1619C121.925 88.0651 123.975 91.2893 127.541 93.3343Z" fill="url(#paint4_linear)"/>
<path d="M125.134 109.207C122.449 112.285 118.317 114.503 113.629 115.318C111.501 115.367 108.958 115.706 107.284 114.416C105.57 113.199 106.119 111.286 106.159 109.7C108.979 107.828 113.112 108.439 115.892 106.555C117.075 105.447 117.94 104.153 118.377 102.766C119.521 105.499 122.044 107.679 125.134 109.207Z" fill="url(#paint5_linear)"/>
<path d="M109.901 21.0813C113.647 21.1587 117.035 23.6759 117.194 26.618C117.466 29.7607 117.3 32.9132 117.446 36.0631C117.483 41.962 117.567 47.8665 117.698 53.7646C117.718 59.059 117.809 64.3529 117.924 69.6465C117.955 75.1423 118.033 80.6378 118.158 86.1329C118.19 91.6654 118.269 97.1975 118.387 102.735C117.952 104.125 117.093 105.421 115.918 106.531C116.132 104.483 116.354 102.429 116.364 100.377C116.017 76.5576 115.662 52.738 115.355 28.9179C115.32 26.9823 115.17 24.7424 113.029 23.4419C108.852 20.5652 102.88 21.9665 97.8483 21.7598L97.8628 21.1245C101.874 21.1569 105.889 20.9634 109.901 21.0813Z" fill="url(#paint6_linear)"/>
<path d="M106.237 97.637C103.947 98.1607 101.565 98.2662 99.1974 98.2743C98.6888 104.068 99.3881 109.869 99.1559 115.666C97.0977 115.805 95.0317 115.944 92.9642 115.98C68.7501 116.163 44.5286 116.376 20.3152 116.601C19.1865 116.605 18.1087 116.31 17.0393 116.046C24.7918 116.132 32.5483 115.95 40.3066 115.896C48.2151 115.852 56.1155 115.797 64.0231 115.693C71.1109 115.663 78.206 115.596 85.293 115.511C89.8471 115.49 94.3935 115.476 98.9464 115.37C98.9662 112.91 98.9149 110.444 98.8163 107.984C98.7591 104.559 98.7412 101.127 98.6603 97.7018C101.186 97.6741 103.712 97.695 106.237 97.637Z" fill="url(#paint7_linear)"/>
<path d="M5.3317 109.768C7.59143 112.783 11.5686 114.691 15.6987 115.822C12.8457 116.121 10.0553 115.327 7.87295 113.923C3.80318 111.54 1.126 107.709 1.0616 103.703C0.723401 78.66 0.369506 53.6106 0 28.5614C0.178187 25.7016 1.11556 22.426 4.26794 20.658C0.777205 25.0001 1.78072 30.2743 1.79466 35.1296C1.83712 41.4503 1.93414 47.7645 2.05466 54.0846C2.13835 62.2189 2.24546 70.353 2.40721 78.4866C2.47037 86.273 2.60388 94.0649 2.70616 101.857C2.69823 104.611 3.38597 107.427 5.3317 109.768Z" fill="url(#paint8_linear)"/>
<path d="M113.612 115.317C111.285 116.362 108.208 116.754 105.856 115.531C103.493 114.1 103.217 110.821 106.142 109.698C106.102 111.284 105.554 113.198 107.267 114.415C108.942 115.705 111.484 115.366 113.612 115.317Z" fill="url(#paint9_linear)"/>
<path d="M104.479 90.3861C109.356 90.0698 110.098 96.1476 106.255 97.6256C103.732 97.6839 101.208 97.663 98.6845 97.6908C98.7655 101.129 98.7836 104.573 98.841 108.011C95.2237 106.012 93.1504 102.792 89.3853 100.941C89.3543 99.8867 89.3155 98.8323 89.2767 97.7841C88.1569 97.7937 87.0292 97.8034 85.9095 97.8192C83.9026 95.3796 81.5748 93.1074 79.6541 90.6244C87.9257 90.4983 96.2062 90.4452 104.479 90.3861Z" fill="url(#paint10_linear)"/>
<path d="M98.814 108.022C98.9127 110.491 98.9641 112.967 98.9444 115.437C94.3965 115.543 89.8552 115.558 85.306 115.579C83.6688 113.038 81.5381 110.72 79.3763 108.434C82.6862 108.314 86.0245 108.529 89.3242 108.256C89.5889 105.827 89.2619 103.378 89.361 100.95C93.125 102.802 95.1977 106.022 98.814 108.022Z" fill="url(#paint11_linear)"/>
<path d="M88.8947 98.053C89.0283 101.3 89.7157 104.664 88.6886 107.842C88.4439 107.832 87.9465 107.799 87.7017 107.783C86.0934 105.116 88.3686 101.507 85.8507 99.2188C80.4821 98.3692 74.9438 99.4284 69.5302 98.7438L70.0555 98.5199C76.3218 98.1612 82.6184 98.2655 88.8947 98.053Z" fill="url(#paint12_linear)"/>
<path d="M79.6422 90.5969C81.5639 93.076 83.8929 95.3447 85.9009 97.7805C82.1139 97.8374 78.3266 97.8699 74.5308 97.866C73.0241 97.9033 71.3731 97.7836 70.0654 98.4887L69.5399 98.7123C66.2095 96.5009 63.6753 93.6862 61.5339 90.7463C67.5694 90.6579 73.6053 90.5939 79.6422 90.5969Z" fill="url(#paint13_linear)"/>
<path d="M79.3537 108.391C81.5163 110.677 83.6478 112.993 85.2855 115.533C78.2037 115.618 71.1137 115.685 64.031 115.716C62.4335 113.23 60.35 110.962 58.6036 108.545C59.108 108.517 60.1169 108.465 60.6214 108.443C60.5159 104.951 60.5839 101.464 60.3208 97.9793C55.6443 98.0378 50.9594 98.066 46.2746 98.0942C44.2919 95.7035 42.2075 93.3686 40.3424 90.9282C47.4004 90.8308 54.4588 90.7578 61.5101 90.7458C63.6507 93.6898 66.1837 96.5085 69.5127 98.723C70.1271 101.954 69.843 105.23 69.9924 108.478C73.1152 108.433 76.2304 108.406 79.3537 108.391Z" fill="url(#paint14_linear)"/>
<path d="M58.5801 108.522C60.3264 110.939 62.4097 113.207 64.0072 115.693C56.1058 115.798 48.2115 115.853 40.3092 115.897C38.5651 112.541 35.6514 109.567 31.7339 107.546C31.5708 104.438 31.534 101.336 31.5445 98.2267C28.6643 98.1357 25.6113 98.6314 22.8552 97.8443C20.5133 96.243 21.3206 93.7 21.9696 91.6644C23.3682 91.2988 24.7984 90.9329 26.2977 90.987C30.9744 90.9589 35.6428 90.9004 40.3199 90.9028C42.1849 93.3435 44.2692 95.6786 46.2517 98.0695C44.438 98.0912 42.6322 98.119 40.8267 98.165L40.851 98.75C40.9617 102.059 40.97 105.376 41.0178 108.691C46.8768 108.61 52.7294 108.633 58.5801 108.522Z" fill="url(#paint15_linear)"/>
<path d="M31.7129 107.516C35.6272 109.539 38.5386 112.515 40.2812 115.874C32.5353 115.929 24.7912 116.112 17.0512 116.026C16.7273 115.974 16.0717 115.87 15.7479 115.824C11.5786 114.694 7.56352 112.789 5.28207 109.776C3.31767 107.438 2.6231 104.625 2.6308 101.874C2.5267 94.0895 2.39108 86.3055 2.32647 78.5271C5.65222 80.7253 8.16008 83.5895 11.7662 85.5535C11.9988 91.3171 11.9241 97.0772 12.0858 102.841C12.0045 105.954 15.5037 108.706 19.5005 108.799C23.3948 108.882 27.2947 108.811 31.1854 108.644L31.7446 108.62C31.7326 108.34 31.7169 107.791 31.7129 107.516Z" fill="url(#paint16_linear)"/>
<path d="M31.5215 98.1972C31.5111 101.31 31.5478 104.416 31.7106 107.527C31.7146 107.802 31.7303 108.351 31.7422 108.632L31.1835 108.655C30.8125 108.597 30.0629 108.488 29.692 108.436C29.2553 105.443 30.3652 102.125 28.538 99.3643C26.2171 98.9693 23.7878 99.2406 21.4894 98.7661C18.4012 97.0289 18.7156 93.1507 21.9617 91.6273C21.3137 93.6653 20.5077 96.2112 22.8459 97.8144C25.5976 98.6024 28.6459 98.1061 31.5215 98.1972Z" fill="url(#paint17_linear)"/>
<path d="M19.6781 14.5076C23.1381 14.8862 24.5077 18.5261 22.2959 20.4776C20.9271 21.8184 18.4945 21.5833 16.5847 22.057C14.2566 22.5038 12.7566 24.0469 11.4682 25.4967C9.405 23.5271 7.27141 21.6007 4.98955 19.7854C8.57799 16.4869 13.9703 14.13 19.6781 14.5076Z" fill="url(#paint18_linear)"/>
<path d="M4.96358 19.7815C7.2378 21.5996 9.36426 23.5288 11.4206 25.5013C10.6695 31.2346 11.4912 37.0215 11.2435 42.7749C7.56548 40.6393 5.15491 37.5342 1.81882 35.1209C1.80434 30.2673 0.793411 24.9949 4.30792 20.6542C4.46983 20.433 4.80159 19.9966 4.96358 19.7815Z" fill="url(#paint19_linear)"/>
<path d="M11.2059 42.783C11.3981 49.0887 11.4726 55.3955 11.4763 61.7028C7.72408 59.641 5.23003 56.5913 2.05251 54.0788C1.93077 47.7602 1.83266 41.4476 1.78944 35.1284C5.12263 37.5419 7.53108 40.6472 11.2059 42.783Z" fill="url(#paint20_linear)"/>
<path d="M11.4315 61.7114C11.6467 69.6416 11.7521 77.5789 11.7713 85.5169C8.18073 83.5512 5.68373 80.6846 2.37233 78.4845C2.20919 70.3523 2.10098 62.2196 2.01629 54.0868C5.19091 56.5995 7.68267 59.6494 11.4315 61.7114Z" fill="url(#paint21_linear)"/>
<defs>
<linearGradient id="paint0_linear" x1="0.0187149" y1="63.7805" x2="127.779" y2="63.7805" gradientUnits="userSpaceOnUse">
<stop stop-color="#FF4910"/>
<stop offset="1" stop-color="#FF7A00"/>
</linearGradient>
<linearGradient id="paint1_linear" x1="0.0187149" y1="63.7805" x2="127.779" y2="63.7805" gradientUnits="userSpaceOnUse">
<stop stop-color="#FF4910"/>
<stop offset="1" stop-color="#FF7A00"/>
</linearGradient>
<linearGradient id="paint2_linear" x1="0.0187149" y1="63.7805" x2="127.779" y2="63.7805" gradientUnits="userSpaceOnUse">
<stop stop-color="#FF4910"/>
<stop offset="1" stop-color="#FF7A00"/>
</linearGradient>
<linearGradient id="paint3_linear" x1="0.0187149" y1="63.7805" x2="127.779" y2="63.7805" gradientUnits="userSpaceOnUse">
<stop stop-color="#FF4910"/>
<stop offset="1" stop-color="#FF7A00"/>
</linearGradient>
<linearGradient id="paint4_linear" x1="0.0187149" y1="63.7805" x2="127.779" y2="63.7805" gradientUnits="userSpaceOnUse">
<stop stop-color="#FF4910"/>
<stop offset="1" stop-color="#FF7A00"/>
</linearGradient>
<linearGradient id="paint5_linear" x1="0.0187149" y1="63.7805" x2="127.779" y2="63.7805" gradientUnits="userSpaceOnUse">
<stop stop-color="#FF4910"/>
<stop offset="1" stop-color="#FF7A00"/>
</linearGradient>
<linearGradient id="paint6_linear" x1="0.0187149" y1="63.7805" x2="127.779" y2="63.7805" gradientUnits="userSpaceOnUse">
<stop stop-color="#FF4910"/>
<stop offset="1" stop-color="#FF7A00"/>
</linearGradient>
<linearGradient id="paint7_linear" x1="0.0187149" y1="63.7805" x2="127.779" y2="63.7805" gradientUnits="userSpaceOnUse">
<stop stop-color="#FF4910"/>
<stop offset="1" stop-color="#FF7A00"/>
</linearGradient>
<linearGradient id="paint8_linear" x1="0.0187149" y1="63.7805" x2="127.779" y2="63.7805" gradientUnits="userSpaceOnUse">
<stop stop-color="#FF4910"/>
<stop offset="1" stop-color="#FF7A00"/>
</linearGradient>
<linearGradient id="paint9_linear" x1="0.0187149" y1="63.7805" x2="127.779" y2="63.7805" gradientUnits="userSpaceOnUse">
<stop stop-color="#FF4910"/>
<stop offset="1" stop-color="#FF7A00"/>
</linearGradient>
<linearGradient id="paint10_linear" x1="0.0187149" y1="63.7805" x2="127.779" y2="63.7805" gradientUnits="userSpaceOnUse">
<stop stop-color="#FF4910"/>
<stop offset="1" stop-color="#FF7A00"/>
</linearGradient>
<linearGradient id="paint11_linear" x1="0.0187149" y1="63.7805" x2="127.779" y2="63.7805" gradientUnits="userSpaceOnUse">
<stop stop-color="#FF4910"/>
<stop offset="1" stop-color="#FF7A00"/>
</linearGradient>
<linearGradient id="paint12_linear" x1="0.0187149" y1="63.7805" x2="127.779" y2="63.7805" gradientUnits="userSpaceOnUse">
<stop stop-color="#FF4910"/>
<stop offset="1" stop-color="#FF7A00"/>
</linearGradient>
<linearGradient id="paint13_linear" x1="0.0187149" y1="63.7805" x2="127.779" y2="63.7805" gradientUnits="userSpaceOnUse">
<stop stop-color="#FF4910"/>
<stop offset="1" stop-color="#FF7A00"/>
</linearGradient>
<linearGradient id="paint14_linear" x1="0.0187149" y1="63.7805" x2="127.779" y2="63.7805" gradientUnits="userSpaceOnUse">
<stop stop-color="#FF4910"/>
<stop offset="1" stop-color="#FF7A00"/>
</linearGradient>
<linearGradient id="paint15_linear" x1="0.0187149" y1="63.7805" x2="127.779" y2="63.7805" gradientUnits="userSpaceOnUse">
<stop stop-color="#FF4910"/>
<stop offset="1" stop-color="#FF7A00"/>
</linearGradient>
<linearGradient id="paint16_linear" x1="0.0187149" y1="63.7805" x2="127.779" y2="63.7805" gradientUnits="userSpaceOnUse">
<stop stop-color="#FF4910"/>
<stop offset="1" stop-color="#FF7A00"/>
</linearGradient>
<linearGradient id="paint17_linear" x1="0.0187149" y1="63.7805" x2="127.779" y2="63.7805" gradientUnits="userSpaceOnUse">
<stop stop-color="#FF4910"/>
<stop offset="1" stop-color="#FF7A00"/>
</linearGradient>
<linearGradient id="paint18_linear" x1="0.0187149" y1="63.7805" x2="127.779" y2="63.7805" gradientUnits="userSpaceOnUse">
<stop stop-color="#FF4910"/>
<stop offset="1" stop-color="#FF7A00"/>
</linearGradient>
<linearGradient id="paint19_linear" x1="0.0187149" y1="63.7805" x2="127.779" y2="63.7805" gradientUnits="userSpaceOnUse">
<stop stop-color="#FF4910"/>
<stop offset="1" stop-color="#FF7A00"/>
</linearGradient>
<linearGradient id="paint20_linear" x1="0.0187149" y1="63.7805" x2="127.779" y2="63.7805" gradientUnits="userSpaceOnUse">
<stop stop-color="#FF4910"/>
<stop offset="1" stop-color="#FF7A00"/>
</linearGradient>
<linearGradient id="paint21_linear" x1="0.0187149" y1="63.7805" x2="127.779" y2="63.7805" gradientUnits="userSpaceOnUse">
<stop stop-color="#FF4910"/>
<stop offset="1" stop-color="#FF7A00"/>
</linearGradient>
</defs>
</svg>
