<svg xmlns="http://www.w3.org/2000/svg" xmlns:xlink="http://www.w3.org/1999/xlink" viewBox="0 0 48 48"><defs><linearGradient id="b"><stop stop-color="#20ff76" offset="0"/><stop stop-color="#ff0" offset="1"/></linearGradient><linearGradient id="a"><stop offset="0" stop-color="#ff76fd"/><stop offset="1" stop-color="#ff0380"/></linearGradient><linearGradient xlink:href="#a" id="e" x1="11.566" y1="37.073" x2="35.996" y2="37.073" gradientUnits="userSpaceOnUse"/><linearGradient xlink:href="#a" id="d" x1="11.568" y1="12.286" x2="35.996" y2="12.286" gradientUnits="userSpaceOnUse"/><linearGradient xlink:href="#a" id="c" x1="11.568" y1="12.286" x2="35.996" y2="12.286" gradientUnits="userSpaceOnUse"/><linearGradient gradientTransform="translate(87.458 45.153) scale(.31355)" gradientUnits="userSpaceOnUse" y2="32" x2="64.5" y1="32" x1="-.499" id="f" xlink:href="#b"/></defs><path d="M7.65 13.723h32.263a2.546 2.546 0 0 1 2.547 2.548v17.894a2.546 2.546 0 0 1-2.547 2.548H7.649a2.546 2.546 0 0 1-2.547-2.548V16.271a2.546 2.546 0 0 1 2.547-2.548" fill="none" stroke-width="1.437" stroke="#aaa"/><path d="M5.102 25.219v1.347c0 .212 1.15.385 2.559.385h32.242c1.408 0 2.559-.173 2.559-.385v-1.347m-37.36 0" fill="#aaa"/><path d="M10.85 18.034h25.864v2.874H10.85m0-2.874" fill="#212c3c"/><path d="M13.544 5.102c-.707 0-1.258.55-1.258 1.257v13.112h22.991V9.412l-4.31-4.31z" fill="url(#c)" stroke-width="1.437" stroke="url(#d)"/><path d="M10.85 29.53h25.864v2.873H10.85m0-2.874" fill="#aaa"/><path d="M35.277 30.966v10.221a1.27 1.27 0 0 1-1.274 1.275H13.559a1.27 1.27 0 0 1-1.274-1.275v-10.22m22.99 0" fill="none" stroke-width="1.437" stroke="url(#e)"/><path d="M30.966 5.102v4.31h4.311m-4.31-4.31" fill="#fff"/><path d="M16.597 7.976H29.53v1.436H16.597m0 1.438H29.53v1.436H16.597m0 1.437H29.53v1.437H16.597m0 1.437h8.622v1.437h-8.622m0-1.437" fill="#696e78" fill-opacity=".702"/><g color="#000"><path d="M97.492 62.084c-5.914 0-8.843-4.484-9.757-6.16-.131-.24-.276-.472-.277-.738.001-.265.146-.498.277-.738.914-1.675 3.843-6.16 9.757-6.16 5.913 0 8.842 4.485 9.757 6.16.13.24.275.473.276.738 0 .266-.146.499-.276.738-.915 1.675-3.844 6.16-9.757 6.16z" style="isolation:auto;mix-blend-mode:normal;solid-color:#000" fill="none" stroke="url(#f)" stroke-width="1.391" transform="translate(-62.305 -16.746)"/><circle r="13" cx="32" cy="32" style="isolation:auto;mix-blend-mode:normal;solid-color:#000" transform="translate(24.98 28.234) scale(.31895)" fill="#aaa"/></g></svg>