<svg xmlns="http://www.w3.org/2000/svg" xmlns:xlink="http://www.w3.org/1999/xlink" width="48" height="48" version="1"><defs><linearGradient id="a"><stop offset="0" stop-color="#9000f6"/><stop offset="1" stop-color="#ff00d9"/></linearGradient><linearGradient xlink:href="#a" id="d" x1="7.17" y1="24" x2="39.466" y2="24" gradientUnits="userSpaceOnUse"/><linearGradient xlink:href="#b" id="c" x1="2.38" y1="25.014" x2="24.027" y2="25.014" gradientUnits="userSpaceOnUse" gradientTransform="translate(-.872 -1.032)"/><linearGradient id="b"><stop offset="0" stop-color="#ffbf00"/><stop offset="1" stop-color="#fc0e0e"/></linearGradient></defs><path d="M21.49 4.005A19.938 19.938 0 0 0 1.508 23.987a19.938 19.938 0 0 0 19.982 19.98c.566 0 1.106-.058 1.665-.104-10.277-.853-18.316-9.38-18.316-19.88 0-10.505 8.04-19.032 18.316-19.878-.56-.051-1.099-.11-1.665-.11" fill="url(#c)" fill-rule="evenodd"/><path d="M25.895 5.732A18.227 18.227 0 0 0 8.209 19.457c.167-.629.356-1.248.58-1.852h6.047a12.787 12.787 0 0 1 11.057-6.392c3.39.003 6.64 1.352 9.035 3.75l3.892-3.89a18.208 18.208 0 0 0-12.925-5.34zm-.002 9.133A9.134 9.134 0 0 0 16.758 24a9.134 9.134 0 0 0 9.135 9.135 9.134 9.134 0 0 0 6.453-2.682l-3.227-3.226a4.567 4.567 0 0 1-3.226 1.34 4.567 4.567 0 1 1 0-9.133 4.567 4.567 0 0 1 3.226 1.34l3.227-3.227a9.134 9.134 0 0 0-6.453-2.682zm-17.885 5.48a18.227 18.227 0 0 0-.276 1.829h5.516c.089-.619.223-1.23.4-1.828zm-.305 2.061a18.227 18.227 0 0 0 0 0zm-.03 2.508c.031.618.09 1.227.18 1.826h5.56a12.787 12.787 0 0 1-.263-1.826zm.288 2.53c.024.126.473 1.91.5 2.036-.027-.125-.476-1.91-.5-2.037zm.5 2.036a18.225 18.225 0 0 0 17.434 12.788c4.847.011 9.5-1.91 12.925-5.34l-3.892-3.89a12.787 12.787 0 0 1-9.035 3.75 12.788 12.788 0 0 1-11.538-7.308z" fill="none" stroke="url(#d)" stroke-width="1.5" stroke-linecap="round" stroke-linejoin="round"/><g fill="#ff7300"><rect ry=".457" rx=".457" y="20.346" x="34.84" height="7.307" width="1.827"/><rect ry=".457" rx=".457" y="20.346" x="43.06" height="7.307" width="1.827"/><rect transform="rotate(90)" ry=".457" rx=".457" y="-39.406" x="23.087" height="7.307" width="1.827"/><rect transform="rotate(90)" ry=".457" rx=".457" y="-47.627" x="23.087" height="7.307" width="1.827"/></g></svg>