<svg xmlns="http://www.w3.org/2000/svg" xmlns:xlink="http://www.w3.org/1999/xlink" viewBox="0 0 48 48"><defs><linearGradient id="a"><stop offset="0" stop-color="#ffbf00"/><stop offset="1" stop-color="#fc0e0e"/></linearGradient><linearGradient xlink:href="#a" id="d" x1="2.38" y1="25.014" x2="24.027" y2="25.014" gradientUnits="userSpaceOnUse" gradientTransform="translate(2)"/><linearGradient xlink:href="#b" id="c" gradientUnits="userSpaceOnUse" x1="10.139" y1="25.018" x2="45.743" y2="25.018"/><linearGradient id="b"><stop stop-color="#9000f6" offset="0"/><stop stop-color="#ff00d9" offset="1"/></linearGradient></defs><path d="M27.937 8.144a16.818 16.818 0 0 0-15.33 9.843H43.28c-2.658-5.815-8.503-9.843-15.336-9.843h-.005zM12 22.516l32-.042zm0 5.064l32-.058zm.603 4.469c2.657 5.813 8.503 9.843 15.333 9.843h.007c6.834 0 12.68-4.03 15.339-9.843z" fill="none" stroke="url(#c)" stroke-width="2" stroke-linecap="round" stroke-linejoin="round"/><path d="M24.362 5.037A19.938 19.938 0 0 0 4.38 25.019 19.938 19.938 0 0 0 24.362 45c.566 0 1.106-.059 1.665-.105-10.277-.853-18.316-9.38-18.316-19.879 0-10.506 8.039-19.033 18.316-19.879-.56-.051-1.099-.11-1.665-.11" fill="url(#d)" fill-rule="evenodd"/></svg>