<?xml version="1.0" encoding="UTF-8" standalone="no"?>
<svg
   xmlns:dc="http://purl.org/dc/elements/1.1/"
   xmlns:cc="http://creativecommons.org/ns#"
   xmlns:rdf="http://www.w3.org/1999/02/22-rdf-syntax-ns#"
   xmlns:svg="http://www.w3.org/2000/svg"
   xmlns="http://www.w3.org/2000/svg"
   xmlns:sodipodi="http://sodipodi.sourceforge.net/DTD/sodipodi-0.dtd"
   xmlns:inkscape="http://www.inkscape.org/namespaces/inkscape"
   width="192pt"
   height="192pt"
   viewBox="0 0 192 192"
   version="1.1"
   id="svg39"
   sodipodi:docname="elisa.svg"
   inkscape:version="0.92.2 5c3e80d, 2017-08-06">
  <metadata
     id="metadata45">
    <rdf:RDF>
      <cc:Work
         rdf:about="">
        <dc:format>image/svg+xml</dc:format>
        <dc:type
           rdf:resource="http://purl.org/dc/dcmitype/StillImage" />
      </cc:Work>
    </rdf:RDF>
  </metadata>
  <defs
     id="defs43" />
  <sodipodi:namedview
     pagecolor="#ffffff"
     bordercolor="#666666"
     borderopacity="1"
     objecttolerance="10"
     gridtolerance="10"
     guidetolerance="10"
     inkscape:pageopacity="0"
     inkscape:pageshadow="2"
     inkscape:window-width="640"
     inkscape:window-height="480"
     id="namedview41"
     showgrid="false"
     inkscape:zoom="0.921875"
     inkscape:cx="114.33441"
     inkscape:cy="128"
     inkscape:window-x="0"
     inkscape:window-y="0"
     inkscape:window-maximized="0"
     inkscape:current-layer="svg39" />
  <g
     id="#45b6e5ff"
     transform="matrix(1.0463357,0,0,1.0688298,-5.3025676,-3.8074801)">
    <path
       d="m 9.15,49.92 c -0.01,-9.87 9.01,-18.51 18.86,-18.18 22.4,0.06 44.81,-0.19 67.2,0.13 -2.4,3.95 -5.6,7.38 -7.49,11.63 -19.88,0.21 -39.76,0.01 -59.63,0.1 -3.92,-0.19 -7.4,3.43 -7.09,7.34 -0.1,27.35 0.02,54.7 -0.05,82.06 0.01,3.73 -0.48,7.75 1.65,11.05 l 0.23,0.53 c -1.57,3.6 -4.82,6.02 -6.8,9.4 -1.81,-1.51 -3.29,-3.38 -4.66,-5.29 C 9.68,145.4 9,141.69 9.1,138.02 9.15,108.65 9.06,79.29 9.15,49.92 Z"
       id="path2"
       inkscape:connector-curvature="0"
       style="opacity:1;fill:#45b6e5" />
  </g>
  <g
     id="#44c0dcff"
     transform="matrix(1.0463357,0,0,1.0688298,-5.3025676,-3.8074801)">
    <path
       d="m 95.21,31.87 c 20.66,-0.25 41.34,-0.23 62,0 -2.38,3.96 -5.6,7.38 -7.5,11.64 -20.66,0.13 -41.33,0.13 -61.99,-0.01 1.89,-4.25 5.09,-7.68 7.49,-11.63 z"
       id="path5"
       inkscape:connector-curvature="0"
       style="opacity:1;fill:#44c0dc" />
  </g>
  <g
     id="#43c9d4ff"
     transform="matrix(1.0463357,0,0,1.0688298,-5.3025676,-3.8074801)">
    <path
       d="m 157.21,31.87 c 5.28,-0.35 10.99,-0.52 15.73,2.23 4.03,2.2 6.99,5.97 8.73,10.17 0.1,0.62 0.29,1.88 0.38,2.5 -0.49,5.08 -0.26,10.17 -0.3,15.26 0.17,2.89 -2.01,4.99 -3.58,7.13 -2.34,3.13 -4.35,6.54 -7.35,9.1 -0.43,-10.03 0.52,-20.15 -0.49,-30.13 -1.02,-2.33 -3.14,-4.3 -5.77,-4.44 -4.94,-0.31 -9.9,0.02 -14.85,-0.18 1.9,-4.26 5.12,-7.68 7.5,-11.64 z"
       id="path8"
       inkscape:connector-curvature="0"
       style="opacity:1;fill:#43c9d4" />
  </g>
  <g
     id="#00000032"
     transform="matrix(1.0463357,0,0,1.0688298,-5.3025676,-3.8074801)">
    <path
       d="m 21,50.94 c -0.31,-3.91 3.17,-7.53 7.09,-7.34 19.87,-0.09 39.75,0.11 59.63,-0.1 20.66,0.14 41.33,0.14 61.99,0.01 4.95,0.2 9.91,-0.13 14.85,0.18 2.63,0.14 4.75,2.11 5.77,4.44 -4.37,-1.02 -8.82,-1.86 -13.33,-1.51 -42.01,0.09 -84.03,0.02 -126.04,0.03 -2.17,0.1 -4.78,0.27 -6.1,2.3 -3.1,4.36 -1.85,10.04 -2.06,15.05 -0.11,26.68 0.26,53.37 -0.2,80.05 C 20.47,140.75 20.96,136.73 20.95,133 21.02,105.64 20.9,78.29 21,50.94 Z"
       id="path11"
       inkscape:connector-curvature="0"
       style="opacity:0.2;fill:#000000" />
  </g>
  <g
     id="#00000034"
     transform="matrix(1.0463357,0,0,1.0688298,-5.3025676,-3.8074801)">
    <path
       d="m 181.67,44.27 c 2.56,1.34 2.71,5.09 3,7.71 -0.02,29.69 -0.02,59.38 0,89.07 -0.1,3.22 -0.44,6.68 -2.23,9.45 -2.42,2.91 -5.52,5.15 -8.35,7.63 -3.41,3.46 -8.66,2.81 -13.08,3.48 -38,0.1 -76.01,0.01 -114.01,0.05 -8.39,-0.16 -16.97,0.74 -25.14,-1.69 -3.78,-0.95 -6.5,-4 -8.93,-6.84 -1.16,-1.21 -1.5,-2.83 -1.56,-4.44 1.37,1.91 2.85,3.78 4.66,5.29 3.57,3.06 8.33,4.34 12.97,4.27 21.95,-0.03 43.9,0.06 65.86,-0.05 23.05,0.07 46.12,0.09 69.17,0 9.75,0.11 18.46,-8.42 18.53,-18.18 0.14,-27.67 -0.03,-55.35 0.08,-83.02 -0.08,-3.41 0.17,-6.87 -0.59,-10.23 -0.09,-0.62 -0.28,-1.88 -0.38,-2.5 z"
       id="path14"
       inkscape:connector-curvature="0"
       style="opacity:0.2;fill:#000000" />
  </g>
  <g
     id="#42cfceff"
     transform="matrix(1.0463357,0,0,1.0688298,-5.3025676,-3.8074801)">
    <path
       d="m 182.05,46.77 c 0.76,3.36 0.51,6.82 0.59,10.23 -0.11,27.67 0.06,55.35 -0.08,83.02 -0.07,9.76 -8.78,18.29 -18.53,18.18 -23.05,0.09 -46.12,0.07 -69.17,0 2.6,-3.83 5.74,-7.38 7.39,-11.78 20.5,-0.19 41,0.03 61.5,-0.1 3.87,0.11 7.23,-3.42 6.96,-7.27 0.13,-20.26 -0.1,-40.53 0.11,-60.79 3,-2.56 5.01,-5.97 7.35,-9.1 1.57,-2.14 3.75,-4.24 3.58,-7.13 0.04,-5.09 -0.19,-10.18 0.3,-15.26 z"
       id="path17"
       inkscape:connector-curvature="0"
       style="opacity:1;fill:#42cfce" />
  </g>
  <g
     id="#44bddfff"
     transform="matrix(1.0463357,0,0,1.0688298,-5.3025676,-3.8074801)">
    <path
       d="m 34.73,84.71 c 4.32,-11.45 16.95,-18.89 29.06,-17.19 12.35,1.34 22.67,11.95 24.12,24.22 1.02,10.52 -4.08,21.48 -13.27,26.88 -9.18,5.73 -21.46,5.08 -30.31,-0.99 C 34.18,110.49 29.9,96.2 34.73,84.71 m 18.3,-3.68 c -6.67,3.38 -10.47,12.14 -7.37,19.11 2.6,9.55 15.42,13.75 23.38,7.99 8.16,-4.95 9.69,-18.18 2.1,-24.26 -4.21,-5.18 -12.43,-6 -18.11,-2.84 z"
       id="path20"
       inkscape:connector-curvature="0"
       style="opacity:1;fill:#44bddf" />
  </g>
  <g
     id="#43c7d5ff"
     transform="matrix(1.0463357,0,0,1.0688298,-5.3025676,-3.8074801)">
    <path
       d="m 112.12,75.11 c 6.64,-6.6 16.8,-9.3 25.86,-7 9.98,2.38 18.04,10.78 20.35,20.73 2.19,10.61 -1.93,22.31 -10.9,28.59 -9.3,6.89 -22.64,6.69 -32.12,0.24 -5.99,-4.42 -10.27,-11.21 -11.28,-18.62 -1.35,-8.67 1.74,-17.88 8.09,-23.94 m 9.47,7.51 c -5.11,3.87 -7.72,11.64 -4.9,17.47 2.41,9.62 15.44,13.82 23.34,8.01 8.17,-4.97 9.59,-18.12 2.11,-24.26 -5.01,-5.83 -14.79,-6.14 -20.55,-1.22 z"
       id="path23"
       inkscape:connector-curvature="0"
       style="opacity:1;fill:#43c7d5" />
  </g>
  <g
     id="#0000003d"
     transform="matrix(1.0463357,0,0,1.0688298,-5.3025676,-3.8074801)">
    <path
       d="m 53.03,81.03 c 5.68,-3.16 13.9,-2.34 18.11,2.84 -5.16,-1.76 -10.95,-3.5 -16.16,-0.82 -6.78,2.66 -9.63,10.26 -9.32,17.09 -3.1,-6.97 0.7,-15.73 7.37,-19.11 z"
       id="path26"
       inkscape:connector-curvature="0"
       style="opacity:0.23999999;fill:#000000" />
    <path
       d="m 158.33,88.84 c 1.86,2.27 1.52,5.4 1.7,8.15 0.62,13.06 -9.85,25.32 -22.59,27.55 -7.1,1.62 -14.68,-0.27 -20.61,-4.37 -0.85,-0.61 -1.36,-1.44 -1.52,-2.5 9.48,6.45 22.82,6.65 32.12,-0.24 8.97,-6.28 13.09,-17.98 10.9,-28.59 z"
       id="path28"
       inkscape:connector-curvature="0"
       style="opacity:0.23999999;fill:#000000" />
    <path
       d="m 87.91,91.74 c 1.68,1.99 0.91,4.89 1.04,7.28 -0.22,17.32 -20.15,31.05 -36.34,24.42 -2.93,-1.47 -7.48,-2.09 -8.28,-5.81 8.85,6.07 21.13,6.72 30.31,0.99 9.19,-5.4 14.29,-16.36 13.27,-26.88 z"
       id="path30"
       inkscape:connector-curvature="0"
       style="opacity:0.23999999;fill:#000000" />
  </g>
  <g
     id="#00000039"
     transform="matrix(1.0463357,0,0,1.0688298,-5.3025676,-3.8074801)">
    <path
       d="m 121.59,82.62 c 5.76,-4.92 15.54,-4.61 20.55,1.22 -6.36,-2.28 -14.35,-3.36 -19.82,1.5 -4.5,3.47 -5.64,9.38 -5.63,14.75 -2.82,-5.83 -0.21,-13.6 4.9,-17.47 z"
       id="path33"
       inkscape:connector-curvature="0"
       style="opacity:0.22000002;fill:#000000" />
  </g>
  <g
     id="#43c3d9ff"
     transform="matrix(1.0463357,0,0,1.0688298,-5.3025676,-3.8074801)">
    <path
       d="m 16.03,153.98 c 1.98,-3.38 5.23,-5.8 6.8,-9.4 1.91,1.01 3.95,1.91 6.16,1.79 24.42,0.02 48.84,-0.1 73.26,0.05 -1.65,4.4 -4.79,7.95 -7.39,11.78 -21.96,0.11 -43.91,0.02 -65.86,0.05 -4.64,0.07 -9.4,-1.21 -12.97,-4.27 z"
       id="path36"
       inkscape:connector-curvature="0"
       style="opacity:1;fill:#43c3d9" />
  </g>
</svg>
