<svg xmlns="http://www.w3.org/2000/svg" xmlns:xlink="http://www.w3.org/1999/xlink" viewBox="0 0 48 48"><defs><linearGradient id="a"><stop offset="0" stop-color="#d852ff"/><stop offset="1" stop-color="#8700d4" stop-opacity=".604"/></linearGradient><linearGradient xlink:href="#a" id="b" gradientUnits="userSpaceOnUse" x1="26.877" y1="13.715" x2="50.471" y2="34.691" gradientTransform="translate(-32.41 -11.07) scale(1.50287)"/></defs><path d="M37.023 5.462h-10.52c3.202.743 10.52 2.424 10.52 3.757 0 2.84-13.526-.751-16.532-.751-1.503 0-4.504.252-4.508 2.254-.012 5.26 7.066 9.769 12.023 12.775-3.452-1.001-6.613-1.503-9.619-1.503-3.907 0-11.421 1.503-11.421 6.763 0 4.653 9.42 8.93 12.022 9.768 4.524 1.458 12.023 2.247 12.023 3.006 0 .751-6.011 1.503-13.525 1.503h-4.509c3.006 1.503 7.514 1.503 12.023 1.503l4.509-.003c3.005-.002 10.52-.105 10.52-2.702 0-2.267-9.018-4.18-13.526-5.11-6.288-1.297-10.855-3.82-10.52-5.711.8-4.524 12.023-4.509 21.04-4.509-3.933-3.157-13.526-9.017-13.526-11.572 0-1.094 1.503-1.345 3.006-1.352 6.011-.03 10.52 1.277 12.023 1.277 3.005 0 4.508-1.878 4.508-4.133 0-3.757-4.508-5.26-6.011-5.26z" fill="none" stroke="url(#b)" stroke-width="1.8" stroke-linecap="round" stroke-linejoin="round"/></svg>