<?xml version="1.0" encoding="UTF-8" ?>
<!DOCTYPE svg PUBLIC "-//W3C//DTD SVG 1.1//EN" "http://www.w3.org/Graphics/SVG/1.1/DTD/svg11.dtd">
<svg width="192pt" height="192pt" viewBox="0 0 192 192" version="1.1" xmlns="http://www.w3.org/2000/svg">
<g id="#098cffff">
<path fill="#098cff" opacity="1.00" d=" M 78.00 12.01 C 88.80 7.85 101.08 7.69 112.05 11.34 C 109.15 14.41 106.57 17.77 104.42 21.41 C 95.86 19.79 86.46 20.35 78.79 24.79 C 71.38 29.16 67.01 37.43 65.94 45.79 C 65.06 53.85 59.18 59.79 54.03 65.50 C 54.39 55.39 52.57 44.84 56.36 35.16 C 59.83 24.82 67.77 15.98 78.00 12.01 Z" />
</g>
<g id="#15a7ffff">
<path fill="#15a7ff" opacity="1.00" d=" M 104.42 21.41 C 106.57 17.77 109.15 14.41 112.05 11.34 C 124.19 15.99 133.02 27.01 136.43 39.38 C 137.29 42.83 139.06 47.16 136.25 50.19 C 133.43 53.58 127.04 52.23 126.21 47.77 C 124.79 40.39 121.86 33.02 116.21 27.85 C 112.96 24.66 108.79 22.58 104.42 21.41 Z" />
</g>
<g id="#00000141">
<path fill="#000001" opacity="0.25" d=" M 78.79 24.79 C 86.46 20.35 95.86 19.79 104.42 21.41 C 108.79 22.58 112.96 24.66 116.21 27.85 C 111.42 26.41 107.02 23.56 101.93 23.25 C 94.75 22.71 87.12 23.13 80.69 26.72 C 72.60 31.54 67.42 40.60 66.94 49.96 C 66.74 55.56 66.24 61.30 68.01 66.72 C 67.47 66.84 66.38 67.09 65.84 67.21 C 65.91 60.07 65.64 52.93 65.94 45.79 C 67.01 37.43 71.38 29.16 78.79 24.79 Z" />
<path fill="#000001" opacity="0.25" d=" M 102.14 181.41 C 110.56 179.70 118.58 176.34 125.85 171.78 C 124.49 173.48 123.24 175.26 121.85 176.93 C 116.02 179.48 109.97 181.61 103.78 183.12 C 96.65 184.88 89.37 182.83 82.60 180.56 C 79.49 179.44 75.85 178.69 73.83 175.81 L 74.46 176.09 C 83.17 179.52 92.60 183.80 102.14 181.41 Z" />
</g>
<g id="#0c94ffff">
<path fill="#0c94ff" opacity="1.00" d=" M 54.03 65.50 C 59.18 59.79 65.06 53.85 65.94 45.79 C 65.64 52.93 65.91 60.07 65.84 67.21 C 66.38 67.09 67.47 66.84 68.01 66.72 C 70.71 66.10 73.41 65.51 76.14 65.00 C 72.72 69.56 69.04 74.00 66.78 79.28 C 59.94 81.09 53.43 83.94 47.32 87.48 C 47.07 95.18 47.23 102.89 47.15 110.60 C 42.55 113.37 39.33 117.70 35.72 121.55 C 34.90 110.04 35.47 98.48 35.32 86.95 C 35.42 84.88 35.00 82.34 36.81 80.85 C 41.82 76.50 47.88 73.56 53.97 71.05 C 54.00 69.20 54.01 67.35 54.03 65.50 Z" />
</g>
<g id="#12a1ffff">
<path fill="#12a1ff" opacity="1.00" d=" M 76.14 65.00 C 85.06 63.50 94.13 62.37 103.19 63.17 C 99.66 67.26 97.19 72.76 91.92 74.92 C 83.42 75.57 74.98 76.96 66.78 79.28 C 69.04 74.00 72.72 69.56 76.14 65.00 Z" />
</g>
<g id="#19afffff">
<path fill="#19afff" opacity="1.00" d=" M 103.19 63.17 C 111.34 64.21 119.47 65.53 127.44 67.60 C 125.08 71.14 122.64 74.61 120.09 78.00 C 110.83 76.18 101.41 74.07 91.92 74.92 C 97.19 72.76 99.66 67.26 103.19 63.17 Z" />
</g>
<g id="#20bfffff">
<path fill="#20bfff" opacity="1.00" d=" M 127.44 67.60 C 136.84 70.06 145.71 74.18 153.86 79.45 C 150.49 82.00 147.40 84.93 144.66 88.15 L 144.33 87.93 C 137.26 82.60 128.58 80.06 120.09 78.00 C 122.64 74.61 125.08 71.14 127.44 67.60 Z" />
</g>
<g id="#0000003c">
<path fill="#000000" opacity="0.24" d=" M 66.78 79.28 C 74.98 76.96 83.42 75.57 91.92 74.92 C 101.41 74.07 110.83 76.18 120.09 78.00 C 128.58 80.06 137.26 82.60 144.33 87.93 C 137.79 86.61 132.09 82.90 125.58 81.51 C 113.88 78.73 101.81 76.30 89.73 77.65 C 77.95 78.90 66.16 81.41 55.30 86.26 C 52.15 87.85 47.88 89.76 48.11 93.97 C 47.66 104.72 48.62 115.48 47.87 126.23 C 47.19 121.05 47.22 115.81 47.15 110.60 C 47.23 102.89 47.07 95.18 47.32 87.48 C 53.43 83.94 59.94 81.09 66.78 79.28 Z" />
<path fill="#000000" opacity="0.24" d=" M 110.47 106.76 C 112.44 110.02 113.17 113.97 111.59 117.56 C 110.64 121.54 106.65 123.61 104.95 127.10 C 103.97 133.96 105.20 140.92 104.53 147.81 C 104.25 151.39 100.82 154.83 97.06 154.06 C 95.19 154.06 94.35 152.22 93.09 151.17 C 94.91 151.38 96.74 151.75 98.59 151.57 C 101.11 151.03 102.99 148.58 102.94 146.01 C 103.18 139.03 102.82 132.03 103.05 125.05 C 103.01 122.88 105.46 122.07 106.67 120.62 C 110.67 117.29 111.56 111.62 110.47 106.76 Z" />
</g>
<g id="#2bd4ffff">
<path fill="#2bd4ff" opacity="1.00" d=" M 144.66 88.15 C 147.40 84.93 150.49 82.00 153.86 79.45 C 154.81 80.79 155.99 82.07 156.32 83.74 C 156.71 94.15 156.39 104.57 156.43 114.99 C 156.45 124.86 155.40 135.02 150.94 143.97 C 145.35 155.33 136.20 164.64 125.85 171.78 C 118.58 176.34 110.56 179.70 102.14 181.41 C 92.60 183.80 83.17 179.52 74.46 176.09 C 75.75 172.30 77.56 168.69 80.24 165.69 C 85.31 167.76 90.53 169.84 96.02 170.33 C 111.86 168.68 126.07 159.08 135.49 146.51 C 140.68 139.77 143.80 131.49 144.23 122.98 C 144.86 111.38 144.36 99.76 144.66 88.15 Z" />
</g>
<g id="#00000023">
<path fill="#000000" opacity="0.14" d=" M 156.32 83.74 C 160.20 88.99 158.46 95.92 158.83 102.00 C 158.42 117.67 159.80 134.56 151.69 148.69 C 147.65 156.59 141.16 162.76 134.77 168.76 C 130.91 172.10 126.94 175.65 121.85 176.93 C 123.24 175.26 124.49 173.48 125.85 171.78 C 136.20 164.64 145.35 155.33 150.94 143.97 C 155.40 135.02 156.45 124.86 156.43 114.99 C 156.39 104.57 156.71 94.15 156.32 83.74 Z" />
</g>
<g id="#1ebaffff">
<path fill="#1ebaff" opacity="1.00" d=" M 83.90 115.16 C 81.27 107.70 86.42 98.84 94.19 97.43 C 101.03 95.79 108.23 100.23 110.47 106.76 C 111.56 111.62 110.67 117.29 106.67 120.62 C 105.46 122.07 103.01 122.88 103.05 125.05 C 102.82 132.03 103.18 139.03 102.94 146.01 C 102.99 148.58 101.11 151.03 98.59 151.57 C 96.74 151.75 94.91 151.38 93.09 151.17 C 92.27 149.20 91.00 147.27 91.16 145.05 C 91.07 138.03 91.31 131.01 91.10 124.00 C 88.40 121.34 84.88 119.09 83.90 115.16 Z" />
</g>
<g id="#13a3ffff">
<path fill="#13a3ff" opacity="1.00" d=" M 35.72 121.55 C 39.33 117.70 42.55 113.37 47.15 110.60 C 47.22 115.81 47.19 121.05 47.87 126.23 C 48.58 133.30 51.44 140.03 55.74 145.66 C 52.48 148.01 49.52 150.77 47.03 153.93 C 43.84 149.58 40.81 145.03 38.97 139.92 C 36.74 134.19 36.06 128.04 35.34 121.98 L 35.72 121.55 Z" />
</g>
<g id="#1db9ffff">
<path fill="#1db9ff" opacity="1.00" d=" M 47.03 153.93 C 49.52 150.77 52.48 148.01 55.74 145.66 C 61.97 154.33 70.47 161.36 80.24 165.69 C 77.56 168.69 75.75 172.30 74.46 176.09 L 73.83 175.81 C 63.25 170.89 54.11 163.17 47.03 153.93 Z" />
</g>
</svg>
