<svg width="128" height="128" viewBox="0 0 128 128" fill="none" xmlns="http://www.w3.org/2000/svg">
<g clip-path="url(#clip0)">
<path d="M126.901 32.9188L95.0815 1.09907C93.6158 -0.366682 91.2438 -0.366682 89.7783 1.09907L70.8585 20.0188L68.2068 17.3673C66.741 15.9016 64.369 15.9016 62.9035 17.3673L9.87054 70.4003C-3.2892 83.5603 -3.2892 104.97 9.87054 118.13C23.0303 131.29 44.4403 131.29 57.6003 118.13L110.633 65.0968C112.099 63.6313 112.099 61.2593 110.633 59.7936L107.981 57.1418L126.901 38.2221C128.367 36.7566 128.367 34.3846 126.901 32.9188V32.9188ZM52.2968 112.827C42.063 123.06 25.4073 123.06 15.1738 112.827C4.94004 102.593 4.94004 85.9371 15.1738 75.7036L65.555 25.3223L102.678 62.4453L52.2968 112.827ZM113.643 40.8738L110.991 38.2223C109.526 36.7566 107.154 36.7566 105.688 38.2223C104.222 39.6878 104.222 42.0598 105.688 43.5256L108.34 46.1771L102.678 51.8386L76.1618 25.3223L81.8233 19.6608L84.475 22.3126C85.9408 23.7781 88.3128 23.7781 89.7783 22.3126C91.244 20.8468 91.244 18.4748 89.7783 17.0093L87.1265 14.3573L92.4298 9.05407L118.946 35.5706L113.643 40.8738ZM62.9035 38.5803L57.6003 43.8836C56.896 44.5878 56.5023 45.5408 56.5023 46.5351V66.1946L44.0735 78.6231C36.7973 73.8108 26.8793 74.6041 20.477 81.0063C13.1668 88.3166 13.1668 100.213 20.477 107.523C27.7873 114.833 39.6833 114.833 46.9935 107.523C53.3958 101.121 54.189 91.2023 49.3768 83.9263L56.502 76.8011H76.1615C77.1558 76.8011 78.1088 76.4076 78.8133 75.7031L84.1165 70.3998C85.5823 68.9341 85.5823 66.5621 84.1165 65.0966C82.6508 63.6311 80.2788 63.6311 78.8133 65.0966L74.608 69.3023H64.0015L78.8135 54.4903C80.2793 53.0248 80.2793 50.6526 78.8135 49.1871C77.3478 47.7213 74.9758 47.7213 73.5103 49.1871L64.0015 58.6956V48.0891L68.2068 43.8838C69.6725 42.4181 69.6725 40.0461 68.2068 38.5806C66.741 37.1148 64.369 37.1148 62.9035 38.5803V38.5803ZM41.6903 102.22C37.3038 106.607 30.167 106.607 25.7803 102.22C21.3938 97.8336 21.3938 90.6968 25.7803 86.3101C30.167 81.9236 37.3035 81.9236 41.6903 86.3101C46.0768 90.6968 46.0768 97.8336 41.6903 102.22Z" fill="url(#paint0_linear)"/>
</g>
<defs>
<linearGradient id="paint0_linear" x1="64.0006" y1="128" x2="64.0006" y2="-0.000244141" gradientUnits="userSpaceOnUse">
<stop stop-color="#02AA93"/>
<stop offset="1" stop-color="#67FF80"/>
</linearGradient>
<clipPath id="clip0">
<rect width="128" height="128" fill="white"/>
</clipPath>
</defs>
</svg>
