<?xml version="1.0" encoding="UTF-8" ?>
<!DOCTYPE svg PUBLIC "-//W3C//DTD SVG 1.1//EN" "http://www.w3.org/Graphics/SVG/1.1/DTD/svg11.dtd">
<svg width="192pt" height="192pt" viewBox="0 0 192 192" version="1.1" xmlns="http://www.w3.org/2000/svg">
<g id="#26d986ff">
<path fill="#26d986" opacity="1.00" d=" M 27.72 18.72 C 32.57 16.34 38.13 16.59 43.37 16.96 C 43.87 20.98 39.94 23.04 37.65 25.66 C 30.96 31.98 24.88 38.98 17.89 44.95 C 14.39 45.48 15.10 41.17 15.08 38.98 C 14.86 30.51 19.96 22.18 27.72 18.72 Z" />
</g>
<g id="#2cdb82ff">
<path fill="#2cdb82" opacity="1.00" d=" M 48.12 22.11 C 51.20 18.96 55.49 17.08 59.92 17.08 C 69.04 16.96 78.17 17.08 87.30 17.04 C 82.27 19.10 79.42 23.92 75.47 27.34 C 71.27 28.10 66.96 28.02 62.77 28.90 C 56.18 29.68 51.88 35.14 47.49 39.49 C 43.55 43.54 39.40 47.39 35.52 51.51 C 32.60 54.57 31.10 58.78 31.13 62.99 C 31.05 70.23 31.17 77.47 31.10 84.71 C 26.79 88.94 23.66 94.17 19.40 98.44 C 19.37 84.63 19.31 70.81 19.42 57.00 C 19.48 52.41 21.77 48.15 25.09 45.08 C 32.78 37.44 40.43 29.76 48.12 22.11 Z" />
</g>
<g id="#37de7aff">
<path fill="#37de7a" opacity="1.00" d=" M 87.30 17.04 C 101.63 17.02 115.97 17.03 130.31 17.04 C 125.45 19.28 121.76 23.33 118.99 27.81 C 130.38 28.43 141.90 27.14 153.21 28.90 C 123.07 28.77 92.91 28.76 62.77 28.90 C 66.96 28.02 71.27 28.10 75.47 27.34 C 79.42 23.92 82.27 19.10 87.30 17.04 Z" />
</g>
<g id="#44e372ff">
<path fill="#44e372" opacity="1.00" d=" M 130.31 17.04 C 137.90 17.07 145.50 16.90 153.10 17.15 C 159.53 17.34 165.42 20.53 170.00 24.89 C 167.25 27.95 164.57 31.14 162.93 34.96 C 161.59 33.36 160.09 31.90 158.48 30.59 C 156.79 29.83 155.04 29.20 153.21 28.90 C 141.90 27.14 130.38 28.43 118.99 27.81 C 121.76 23.33 125.45 19.28 130.31 17.04 Z" />
</g>
<g id="#53e768ff">
<path fill="#53e768" opacity="1.00" d=" M 162.93 34.96 C 164.57 31.14 167.25 27.95 170.00 24.89 C 172.14 27.77 174.34 30.73 175.45 34.19 C 176.90 39.34 176.58 44.72 176.59 50.00 C 176.56 62.22 176.62 74.44 176.56 86.66 C 171.84 90.46 168.85 95.81 164.82 100.25 C 164.79 81.15 164.82 62.04 164.82 42.94 C 164.86 40.17 164.16 37.44 162.93 34.96 Z" />
</g>
<g id="#0000003d">
<path fill="#000000" opacity="0.24" d=" M 47.49 39.49 C 51.88 35.14 56.18 29.68 62.77 28.90 C 92.91 28.76 123.07 28.77 153.21 28.90 C 155.04 29.20 156.79 29.83 158.48 30.59 C 149.70 31.84 140.83 31.18 132.00 31.31 C 112.67 31.29 93.33 31.36 74.00 31.28 C 69.07 31.34 63.92 30.70 59.17 32.37 C 54.63 34.47 51.43 38.49 47.93 41.93 C 43.59 46.55 38.53 50.56 34.88 55.80 C 31.94 59.90 31.92 65.16 31.88 69.99 C 32.07 86.03 31.93 102.07 31.91 118.10 C 30.98 114.47 31.09 110.70 31.08 106.99 C 31.15 99.56 31.12 92.14 31.10 84.71 C 31.17 77.47 31.05 70.23 31.13 62.99 C 31.10 58.78 32.60 54.57 35.52 51.51 C 39.40 47.39 43.55 43.54 47.49 39.49 Z" />
<path fill="#000000" opacity="0.24" d=" M 145.72 138.59 C 151.55 138.79 157.53 138.49 162.89 135.94 C 165.90 136.80 162.79 138.90 161.22 139.31 C 154.73 141.51 147.75 141.12 141.00 141.14 C 114.00 141.10 87.00 141.14 60.00 141.12 C 52.79 141.10 45.43 141.62 38.37 139.79 C 36.47 139.48 35.17 138.00 33.85 136.75 C 37.18 137.49 40.52 138.40 43.96 138.42 C 52.59 138.59 61.23 138.60 69.86 138.57 C 82.84 138.58 95.83 138.58 108.81 138.57 C 121.11 138.59 133.42 138.56 145.72 138.59 Z" />
</g>
<g id="#00000024">
<path fill="#000000" opacity="0.14" d=" M 175.45 34.19 C 179.05 36.99 178.63 41.90 178.86 45.96 C 178.80 77.31 178.84 108.66 178.83 140.01 C 178.78 145.42 179.26 150.90 178.18 156.25 C 176.17 164.55 170.03 171.98 161.89 174.84 C 155.81 176.84 149.31 176.67 142.99 176.75 C 133.98 176.64 124.97 176.76 115.95 176.73 C 111.58 176.60 106.81 176.53 103.08 173.92 C 101.22 172.80 100.93 170.50 100.25 168.63 C 101.41 169.87 102.63 171.06 104.00 172.07 C 106.22 173.91 109.03 174.86 111.93 174.73 C 124.29 174.64 136.65 174.53 149.01 174.73 C 153.87 174.70 159.04 174.72 163.42 172.29 C 169.55 168.84 175.45 163.28 175.67 155.77 C 176.33 152.55 176.62 149.27 176.60 145.99 C 176.56 126.22 176.61 106.44 176.56 86.66 C 176.62 74.44 176.56 62.22 176.59 50.00 C 176.58 44.72 176.90 39.34 175.45 34.19 Z" />
</g>
<g id="#35de7cff">
<path fill="#35de7c" opacity="1.00" d=" M 19.40 98.44 C 23.66 94.17 26.79 88.94 31.10 84.71 C 31.12 92.14 31.15 99.56 31.08 106.99 C 31.09 110.70 30.98 114.47 31.91 118.10 C 33.03 121.52 35.80 124.06 38.87 125.76 C 36.23 127.74 33.89 130.07 31.84 132.66 C 32.43 133.85 33.02 135.05 33.60 136.25 C 25.82 132.49 20.20 124.64 19.51 115.99 C 19.18 110.14 19.44 104.29 19.40 98.44 Z" />
</g>
<g id="#50e66aff">
<path fill="#50e66a" opacity="1.00" d=" M 123.36 89.35 C 128.57 83.14 139.23 83.42 144.11 89.89 C 148.07 94.44 147.11 100.83 147.23 106.39 C 138.11 106.35 128.99 106.43 119.86 106.34 C 119.93 100.59 118.98 93.89 123.36 89.35 Z" />
</g>
<g id="#5feb60ff">
<path fill="#5feb60" opacity="1.00" d=" M 164.82 100.25 C 168.85 95.81 171.84 90.46 176.56 86.66 C 176.61 106.44 176.56 126.22 176.60 145.99 C 176.62 149.27 176.33 152.55 175.67 155.77 C 173.35 161.55 169.50 166.91 163.95 169.95 C 160.06 172.26 155.51 173.14 151.03 173.14 C 138.67 173.19 126.30 173.07 113.94 173.19 C 116.87 169.41 119.58 165.45 122.20 161.45 C 132.11 161.43 142.01 161.49 151.91 161.43 C 157.96 161.56 163.63 156.79 164.57 150.82 C 165.15 145.61 164.60 140.36 164.83 135.13 C 164.35 135.33 163.38 135.74 162.89 135.94 C 157.53 138.49 151.55 138.79 145.72 138.59 C 148.03 134.57 150.30 130.50 153.08 126.76 C 158.81 126.09 163.98 121.53 164.63 115.68 C 165.08 110.55 164.70 105.39 164.82 100.25 Z" />
</g>
<g id="#41e274ff">
<path fill="#41e274" opacity="1.00" d=" M 31.84 132.66 C 33.89 130.07 36.23 127.74 38.87 125.76 C 41.47 126.61 44.21 126.87 46.94 126.84 C 57.31 126.79 67.68 126.81 78.06 126.80 C 75.13 130.58 72.43 134.53 69.86 138.57 C 61.23 138.60 52.59 138.59 43.96 138.42 C 40.52 138.40 37.18 137.49 33.85 136.75 L 33.60 136.25 C 33.02 135.05 32.43 133.85 31.84 132.66 Z" />
</g>
<g id="#4ce56dff">
<path fill="#4ce56d" opacity="1.00" d=" M 78.06 126.80 C 90.75 126.81 103.44 126.81 116.13 126.79 C 113.45 130.57 111.19 134.61 108.81 138.57 C 95.83 138.58 82.84 138.58 69.86 138.57 C 72.43 134.53 75.13 130.58 78.06 126.80 Z" />
</g>
<g id="#57e866ff">
<path fill="#57e866" opacity="1.00" d=" M 116.13 126.79 C 128.44 126.78 140.76 126.87 153.08 126.76 C 150.30 130.50 148.03 134.57 145.72 138.59 C 133.42 138.56 121.11 138.59 108.81 138.57 C 111.19 134.61 113.45 130.57 116.13 126.79 Z" />
</g>
<g id="#55e867ff">
<path fill="#55e867" opacity="1.00" d=" M 98.31 152.15 C 98.37 147.22 105.27 144.90 108.42 148.61 C 111.90 151.92 108.19 157.99 111.91 160.96 C 115.23 161.94 118.79 161.28 122.20 161.45 C 119.58 165.45 116.87 169.41 113.94 173.19 C 110.60 173.21 107.22 173.04 104.00 172.07 C 102.63 171.06 101.41 169.87 100.25 168.63 C 97.18 163.72 98.35 157.63 98.31 152.15 Z" />
</g>
<g id="#08140851">
<path fill="#081408" opacity="0.32" d=" M 163.95 169.95 C 169.50 166.91 173.35 161.55 175.67 155.77 C 175.45 163.28 169.55 168.84 163.42 172.29 C 159.04 174.72 153.87 174.70 149.01 174.73 C 136.65 174.53 124.29 174.64 111.93 174.73 C 109.03 174.86 106.22 173.91 104.00 172.07 C 107.22 173.04 110.60 173.21 113.94 173.19 C 126.30 173.07 138.67 173.19 151.03 173.14 C 155.51 173.14 160.06 172.26 163.95 169.95 Z" />
</g>
</svg>
