<svg xmlns="http://www.w3.org/2000/svg" xmlns:xlink="http://www.w3.org/1999/xlink" viewBox="0 0 48 48"><defs><linearGradient id="a"><stop offset="0" stop-color="#f1ff2f"/><stop offset="1" stop-color="#ff7875"/></linearGradient><linearGradient xlink:href="#a" id="d" x1="11.5" y1="25.81" x2="36.5" y2="25.81" gradientUnits="userSpaceOnUse" gradientTransform="translate(-9.795 -8.912) scale(1.4293)"/><linearGradient xlink:href="#a" id="c" x1="11.265" y1="24.982" x2="36.5" y2="24.982" gradientUnits="userSpaceOnUse" gradientTransform="translate(-9.795 -8.912) scale(1.4293)"/><linearGradient xlink:href="#a" id="b" x1="12" y1="17.619" x2="36" y2="17.619" gradientUnits="userSpaceOnUse" gradientTransform="translate(-9.867 -9.785) scale(1.4293)"/></defs><path d="M24.436 4.508L7.057 16.194l17.532 11.88 17.434-11.913z" fill="url(#b)" paint-order="markers stroke fill"/><path d="M10.215 8.24l.073 10.489 14.3 9.345 14.359-9.636L38.8 8.24z" fill="none" stroke="#a4a4a4" stroke-width="1.143" stroke-linecap="round" stroke-linejoin="round" paint-order="markers stroke fill"/><path d="M41.66 16.815l.072 22.752-34.11-.187z" fill="none" stroke="url(#c)" stroke-width="1.429" stroke-linecap="square" stroke-linejoin="round" paint-order="stroke fill markers"/><path d="M7.357 16.815L41.66 39.387 7.623 39.38s-.237-15.772-.266-22.565z" fill="none" stroke="url(#d)" stroke-width="1.429" stroke-linecap="square" stroke-linejoin="round" paint-order="stroke fill markers"/><rect x="13.074" y="11.098" width="11.434" height="1.429" ry=".715" fill="#c3cacd"/><rect x="13.074" y="13.956" width="17.152" height="1.429" ry=".715" fill="#c3cacd"/><rect x="13.074" y="16.815" width="22.869" height="1.429" ry=".715" fill="#c3cacd"/></svg>