<svg xmlns="http://www.w3.org/2000/svg" xmlns:xlink="http://www.w3.org/1999/xlink" viewBox="0 0 48 48"><defs><linearGradient id="a"><stop offset="0" stop-color="#9bd7ff"/><stop offset="1" stop-color="#ff0046"/></linearGradient><radialGradient xlink:href="#a" id="b" gradientUnits="userSpaceOnUse" gradientTransform="matrix(3.5035 .02137 -.01507 2.47004 -66.755 -32.267)" cx="26.805" cy="21.453" fx="26.805" fy="21.453" r="13.5"/></defs><path d="M4.73 7.295v32h38.602v-32zm21.477 28.119l14.156-.12v-2.81h-1.485V31h-1.485v-1.485h-1.485v-1.484h-1.484v-1.485h-2.97v1.485h-1.29v1.484h-1.68V31H27v1.485h-1.485V31h-1.484v-1.485h-1.485v-1.484H21.06v-1.485h-1.485V25.06h-1.484v1.485h-1.485v1.485h-1.485v1.484h-1.485V31h-1.484v1.485h-1.485v1.484H9.183v1.485H7.7zm-.692-19.261v1.484h-1.484v1.485h-1.485v2.97h1.485v1.484h1.484v1.485h2.97v-1.485h1.485v-1.484h1.484v-2.97H29.97v-1.485h-1.485v-1.484z" fill="none" stroke="url(#b)" stroke-width="1.485"/></svg>