<svg xmlns="http://www.w3.org/2000/svg" xmlns:xlink="http://www.w3.org/1999/xlink" id="svg38" version="1.1" height="48" width="48"><defs id="defs30"><linearGradient id="q"><stop id="stop7" offset="0" stop-color="#00ff16"/><stop id="stop9" offset="1" stop-color="#bf0"/></linearGradient><linearGradient gradientTransform="matrix(1.17955 0 0 1.11351 -66.007 -6.503)" gradientUnits="userSpaceOnUse" y2="45.834" x2="93.639" y1="12.59" x1="60.155" id="g" xlink:href="#q"/><linearGradient gradientTransform="matrix(1.17955 0 0 1.11351 -66.007 -6.503)" gradientUnits="userSpaceOnUse" y2="45.208" x2="93.046" y1="12.513" x1="59.89" id="f" xlink:href="#q"/><style id="current-color-scheme" type="text/css"/><style id="current-color-scheme-7" type="text/css"/><linearGradient gradientTransform="matrix(1.17955 0 0 1.11351 -135.045 -18.983)" gradientUnits="userSpaceOnUse" y2="17.627" x2="93.391" y1="17.627" x1="59.373" id="f-3" xlink:href="#q"/><linearGradient gradientTransform="matrix(1.17955 0 0 1.11351 -135.045 -18.983)" gradientUnits="userSpaceOnUse" y2="33.048" x2="94.674" y1="33.048" x1="58.086" id="g-5" xlink:href="#q"/></defs><g id="g883" stroke-miterlimit="4" color="#000" fill="none" stroke-width="1.8" stroke-linecap="round" stroke-linejoin="round" stroke-dasharray="none"><path id="path32" overflow="visible" style="isolation:auto;mix-blend-mode:normal;solid-color:#000;solid-opacity:1" d="M43.799 16.19l-.001-4.679s0-1.073-1.138-1.073H24.846c-.333 0-.784-.033-1.197-.464l-3.215-3.348c-.354-.367-.83-.467-1.196-.467H5.594c-1.138 0-1.138 1.071-1.138 1.071L4.38 20.422" stroke="url(#f)"/><path id="path34" overflow="visible" d="M4 20.456h10.37c.818 0 1.062-.238 1.437-.768l1.448-2.114c.31-.452.794-1.411 1.424-1.411h25.497c1.137 0 1.137 1.073 1.137 1.073l-.378 26.12s0 1.073-1.137 1.073H4.378c-1.137 0-1.137-1.073-1.137-1.073l-.376-21.827s0-1.074 1.136-1.074z" style="isolation:auto;mix-blend-mode:normal;solid-color:#000;solid-opacity:1;marker:none" stroke="url(#g)"/></g><g transform="matrix(1.15 0 0 1.15 16.1 17.25)"><defs><linearGradient id="a"><stop stop-color="#00ff16" offset="0"/><stop stop-color="#bf0" offset="1"/></linearGradient><linearGradient xlink:href="#a" id="b" x1="6" y1="11" x2="16" y2="11" gradientUnits="userSpaceOnUse"/></defs><path d="M11 3l-.707.707L3 11l.707.707.293-.293V19h14v-7.586l.293.293L19 11l-2-2-.707.707.707.707V18h-4v-5H9v5H5v-7.586l6-6 1.293 1.293L13 5l-1.293-1.293zm3 2v3h2V5z" fill="url(#b)"/></g></svg>