<svg xmlns="http://www.w3.org/2000/svg" xmlns:xlink="http://www.w3.org/1999/xlink" height="48" width="48" version="1.1" id="svg24"><defs id="defs14"><linearGradient id="b"><stop offset="0" stop-color="#00ff16" id="stop2"/><stop offset="1" stop-color="#bf0" id="stop4"/></linearGradient><linearGradient xlink:href="#b" id="linearGradient1272" x1="3.927" y1="6.557" x2="44.074" y2="43.371" gradientUnits="userSpaceOnUse"/><linearGradient xlink:href="#b" id="linearGradient1274" x1="4.13" y1="6.361" x2="45.286" y2="44.802" gradientUnits="userSpaceOnUse"/><style id="current-color-scheme" type="text/css"/><style id="current-color-scheme-7" type="text/css"/><style id="current-color-scheme-8" type="text/css"/><style id="current-color-scheme-9" type="text/css"/><style id="current-color-scheme-0" type="text/css"/></defs><path id="path16" style="marker:none" d="M45.935 29.424V15.76c0-6.787-.695-7.866-7.5-7.866H21.712l-3.08-3.075h-8.265c-6.798 0-7.494.382-7.494 7.166v17.44" overflow="visible" color="#000" fill="none" stroke="url(#linearGradient1274)" stroke-width="2" stroke-opacity="1" stroke-miterlimit="4" stroke-dasharray="none"/><path id="path18" d="M10.366 20.195c-6.798 0-7.494.695-7.494 7.487v9.64c0 6.788.696 7.488 7.496 7.488H38.44c6.8 0 7.503-.7 7.503-7.488V24.606c0-6.791-.703-7.32-7.503-7.487H22.818l-3.076 3.076z" style="marker:none" overflow="visible" color="#000" fill="none" stroke="url(#linearGradient1272)" stroke-width="2" stroke-opacity="1" fill-opacity=".925" stroke-miterlimit="4" stroke-dasharray="none"/><g transform="matrix(1.15 0 0 1.15 12.65 19.55)" id="g1956"><path d="M11 3l-.707.707L3 11l.707.707.293-.293V19h14v-7.586l.293.293L19 11l-2-2-.707.707.707.707V18h-4v-5H9v5H5v-7.586l6-6 1.293 1.293L13 5l-1.293-1.293zm3 2v3h2V5z" id="path1954" fill="url(#b)"/></g></svg>