<?xml version="1.0" encoding="UTF-8" ?>
<!DOCTYPE svg PUBLIC "-//W3C//DTD SVG 1.1//EN" "http://www.w3.org/Graphics/SVG/1.1/DTD/svg11.dtd">
<svg width="192pt" height="192pt" viewBox="0 0 192 192" version="1.1" xmlns="http://www.w3.org/2000/svg">
<g id="#c721d1ff">
<path fill="#c721d1" opacity="1.00" d=" M 134.54 20.79 C 133.67 18.97 134.71 16.56 136.97 16.81 C 151.92 25.51 162.04 41.61 164.10 58.72 C 165.85 53.89 167.03 48.86 168.98 44.10 C 169.58 42.42 171.91 42.80 172.42 44.39 C 175.29 49.76 177.88 55.33 179.70 61.15 C 184.66 78.95 182.96 98.03 177.58 115.52 C 171.72 133.76 159.98 150.39 143.72 160.76 C 109.03 182.95 58.92 177.49 30.40 147.55 C 14.65 131.57 7.11 108.27 9.50 86.08 C 10.20 78.85 13.02 72.09 14.53 65.05 C 13.18 59.25 11.83 53.20 13.24 47.25 C 15.35 37.11 22.99 28.41 32.64 24.75 C 34.42 24.10 36.89 22.78 38.27 24.85 C 38.96 28.95 38.42 33.16 38.56 37.31 C 42.48 36.29 46.54 36.09 50.57 35.94 C 56.38 28.68 65.72 24.71 74.98 25.33 C 76.47 25.27 78.68 26.17 78.36 28.00 C 77.21 35.05 74.56 41.85 74.08 49.01 C 73.53 52.68 76.59 55.98 80.06 56.63 C 83.51 57.27 87.25 57.58 90.07 59.93 C 96.84 64.85 96.21 76.78 88.82 80.84 C 83.67 83.55 77.72 84.10 72.42 86.41 C 70.47 87.26 70.46 89.63 70.09 91.40 C 77.04 90.56 83.26 87.20 89.92 85.37 C 98.36 83.33 106.78 91.60 105.21 100.06 C 103.79 108.09 95.46 111.86 89.02 115.37 C 95.90 116.93 103.58 117.58 110.00 114.09 C 118.50 109.65 122.93 100.15 124.37 91.05 C 125.21 84.14 125.46 77.08 124.35 70.19 C 123.27 63.43 119.49 57.60 116.60 51.53 C 115.97 50.54 116.62 48.91 117.92 48.99 C 125.27 49.95 132.72 51.82 138.92 56.05 C 139.69 44.13 137.67 32.25 134.54 20.79 M 56.01 50.57 C 52.99 48.84 49.55 47.24 45.98 47.96 C 40.50 48.42 35.82 51.50 31.58 54.75 C 29.75 51.58 28.14 48.28 26.62 44.95 C 25.23 48.07 24.16 51.47 24.59 54.93 C 24.80 58.45 26.52 61.60 27.15 65.02 C 26.43 69.16 24.28 72.88 23.35 76.98 C 18.10 96.00 21.88 117.44 33.76 133.27 C 42.35 144.76 54.83 152.87 68.17 157.81 C 86.68 164.54 107.61 163.77 125.87 156.60 C 140.47 150.87 152.56 139.57 160.02 125.84 C 168.95 110.23 171.87 91.76 170.24 73.99 C 166.68 79.41 161.94 83.95 156.84 87.90 C 155.51 89.24 153.05 87.74 153.19 86.01 C 152.72 75.38 153.45 64.58 150.99 54.13 C 150.56 63.50 148.46 72.71 145.14 81.46 C 144.32 81.45 142.68 81.42 141.86 81.41 C 139.68 77.98 138.27 74.13 136.47 70.50 C 137.61 84.85 137.06 100.37 128.78 112.73 C 122.16 123.37 109.43 129.52 96.99 128.55 C 85.49 128.49 74.71 123.26 66.14 115.85 C 64.90 114.58 62.31 113.44 63.33 111.28 C 65.85 109.54 69.18 109.60 72.06 108.73 C 80.16 107.07 87.80 103.34 93.96 97.82 C 91.32 96.40 88.72 98.59 86.20 99.28 C 78.19 102.66 69.49 103.65 60.90 104.26 C 59.56 104.59 58.29 103.18 58.34 101.90 C 58.27 96.95 58.04 91.93 58.76 87.01 C 59.70 80.90 64.60 75.95 70.49 74.36 C 74.78 72.67 79.84 72.57 83.54 69.64 C 79.63 68.55 75.38 68.38 71.85 66.18 C 67.39 63.40 63.71 59.07 62.42 53.90 C 61.22 49.21 62.24 44.35 63.36 39.75 C 60.15 42.80 57.65 46.48 56.01 50.57 Z" />
</g>
</svg>
