<svg id="Capa_1" enable-background="new 0 0 512.007 512.007" height="512" viewBox="0 0 512.007 512.007" width="512" xmlns="http://www.w3.org/2000/svg" xmlns:xlink="http://www.w3.org/1999/xlink"><linearGradient id="SVGID_1_" gradientUnits="userSpaceOnUse" x1="256.004" x2="256.004" y1="512.007" y2="0"><stop offset="0" stop-color="#fd3a84"/><stop offset="1" stop-color="#ffa68d"/></linearGradient><g><g><path d="m436.004 60.007c-55.913 0-110.039-16.392-156.563-47.402l-15.117-10.078c-5.039-3.369-11.602-3.369-16.641 0l-15.117 10.078c-46.523 31.011-100.649 47.402-156.562 47.402-8.291 0-15 6.709-15 15v172.259c0 119.956 76.465 226.04 190.254 263.965 1.538.513 3.149.776 4.746.776s3.208-.264 4.746-.776c113.789-37.925 190.254-144.009 190.254-263.965v-172.259c0-8.291-6.709-15-15-15zm-15 187.259c0 105.352-66.094 198.706-165 233.877-98.906-35.171-165-128.525-165-233.877v-157.61c56.499-2.695 110.918-20.566 158.203-52.09l6.797-4.526 6.797 4.526c47.285 31.523 101.704 49.395 158.203 52.09zm-199.395 14.136c-5.859-5.859-15.352-5.859-21.211 0s-5.859 15.352 0 21.211l30 30c2.93 2.93 6.768 4.395 10.605 4.395s7.676-1.465 10.605-4.395l60-60c5.859-5.859 5.859-15.352 0-21.211s-15.352-5.859-21.211 0l-49.395 49.395zm-100.605-4.395c0 74.443 60.557 135 135 135s135-60.557 135-135-60.557-135-135-135-135 60.557-135 135zm240 0c0 57.891-47.109 105-105 105s-105-47.109-105-105 47.109-105 105-105 105 47.11 105 105z" fill="url(#SVGID_1_)"/></g></g></svg>