<svg xmlns="http://www.w3.org/2000/svg" xmlns:xlink="http://www.w3.org/1999/xlink" viewBox="0 0 48 48"><defs><linearGradient id="a"><stop stop-color="#00ff8c" offset="0"/><stop stop-color="#007fff" offset="1"/></linearGradient><linearGradient xlink:href="#a" id="b" x1="4.344" y1="8.735" x2="42.004" y2="41.669" gradientUnits="userSpaceOnUse"/><linearGradient xlink:href="#a" id="c" gradientUnits="userSpaceOnUse" x1="4.344" y1="8.735" x2="42.004" y2="41.669"/><linearGradient xlink:href="#a" id="d" gradientUnits="userSpaceOnUse" x1="4.344" y1="8.735" x2="42.004" y2="41.669"/></defs><g transform="translate(-2.074 -1.694) scale(1.08758)" fill="url(#b)" font-weight="400" font-family="Bitstream Vera Sans" letter-spacing="0" word-spacing="0"><path d="M39.65 15.69q-3.266 0-4.526.746-1.26.747-1.26 2.549 0 1.435.938 2.284.952.835 2.577.835 2.241 0 3.589-1.582 1.362-1.596 1.362-4.232v-.6zm5.375-1.114v9.359H42.33v-2.49q-.923 1.494-2.3 2.212-1.376.703-3.368.703-2.52 0-4.013-1.406-1.48-1.421-1.48-3.794 0-2.768 1.846-4.174 1.86-1.406 5.536-1.406h3.779v-.263q0-1.86-1.23-2.871-1.216-1.025-3.428-1.025-1.406 0-2.738.337-1.333.336-2.563 1.01v-2.49q1.479-.57 2.87-.85 1.392-.292 2.71-.292 3.559 0 5.316 1.845 1.758 1.846 1.758 5.595z" fill="url(#c)" aria-label="a" font-size="29.995"/><g style="line-height:1.25;-inkscape-font-specification:'Bitstream Vera Sans, Normal';font-variant-ligatures:normal;font-variant-caps:normal;font-variant-numeric:normal;font-feature-settings:normal;text-align:start"><path style="-inkscape-font-specification:'Bitstream Vera Sans, Normal';font-variant-ligatures:normal;font-variant-caps:normal;font-variant-numeric:normal;font-feature-settings:normal;text-align:start" d="M18.96 10.956L12.298 29.02h13.348zm-2.772-4.838h5.568L35.59 42.417h-5.106l-3.306-9.312H10.815L7.51 42.417H2.33z" fill="url(#d)" aria-label="A" font-size="49.792"/></g></g></svg>