<svg width="64" height="64" viewBox="0 0 64 64" fill="none" xmlns="http://www.w3.org/2000/svg">
<g clip-path="url(#clip0)">
<path d="M56.3408 8.65145L56.3415 3.74818L10.052 3.73069L10.0513 8.63396L56.3408 8.65145Z" fill="url(#paint0_linear)"/>
<path d="M57.7384 12.335C61.1966 12.335 64 9.58111 64 6.18403C64 2.78696 61.1966 0.0330811 57.7384 0.0330811C54.2803 0.0330811 51.4769 2.78696 51.4769 6.18403C51.4769 9.58111 54.2803 12.335 57.7384 12.335Z" fill="url(#paint1_linear)"/>
<path d="M8.799 9.86414H3.78973V55.3365H8.799V9.86414Z" fill="url(#paint2_linear)"/>
<path opacity="0.182" d="M4.9949 51.6008H4.48492V51.6779H4.9949V51.6008Z" fill="url(#paint3_linear)"/>
<path d="M60.1439 11.139H55.1346V56.6114H60.1439V11.139Z" fill="url(#paint4_linear)"/>
<path d="M56.3404 60.2752L56.3394 55.3811L10.0502 55.4078L10.0513 60.3019L56.3404 60.2752Z" fill="url(#paint5_linear)"/>
<path d="M22.5745 23.3962H17.5652V41.8694H22.5745V23.3962Z" fill="url(#paint6_linear)"/>
<path d="M46.3684 23.3962H41.3591V41.8694H46.3684V23.3962Z" fill="url(#paint7_linear)"/>
<path d="M41.3785 22.1661L41.3792 17.287L22.5744 17.2453L22.5738 22.1244L41.3785 22.1661Z" fill="url(#paint8_linear)"/>
<path d="M41.3586 46.7348L41.3591 41.8491L22.5543 41.8141L22.5537 46.6998L41.3586 46.7348Z" fill="url(#paint9_linear)"/>
<path d="M19.7322 47.8258L16.3129 44.4409L6.27653 54.472L9.69581 57.8569L19.7322 47.8258Z" fill="url(#paint10_linear)"/>
<path d="M56.6731 11.418L53.3864 7.90874L42.9717 17.5606L46.2585 21.0698L56.6731 11.418Z" fill="url(#paint11_linear)"/>
<path d="M9.3602 5.9609L5.96436 9.3685L16.3203 19.081L19.7162 15.6734L9.3602 5.9609Z" fill="url(#paint12_linear)"/>
<path d="M47.4259 43.6908L43.8638 46.9305L53.7217 57.1309L57.2839 53.8912L47.4259 43.6908Z" fill="url(#paint13_linear)"/>
<path d="M6.26158 63.9925C9.71975 63.9925 12.5232 61.2386 12.5232 57.8415C12.5232 54.4445 9.71975 51.6906 6.26158 51.6906C2.8034 51.6906 0 54.4445 0 57.8415C0 61.2386 2.8034 63.9925 6.26158 63.9925Z" fill="url(#paint14_linear)"/>
<path d="M57.6299 64C61.0881 64 63.8915 61.2461 63.8915 57.8491C63.8915 54.452 61.0881 51.6981 57.6299 51.6981C54.1718 51.6981 51.3683 54.452 51.3683 57.8491C51.3683 61.2461 54.1718 64 57.6299 64Z" fill="url(#paint15_linear)"/>
<path d="M6.29435 12.3019C9.75253 12.3019 12.5559 9.54803 12.5559 6.15095C12.5559 2.75387 9.75253 0 6.29435 0C2.83618 0 0.0327759 2.75387 0.0327759 6.15095C0.0327759 9.54803 2.83618 12.3019 6.29435 12.3019Z" fill="url(#paint16_linear)"/>
<path d="M20.2573 49.225C23.0238 49.225 25.2666 47.0219 25.2666 44.3042C25.2666 41.5866 23.0238 39.3835 20.2573 39.3835C17.4908 39.3835 15.248 41.5866 15.248 44.3042C15.248 47.0219 17.4908 49.225 20.2573 49.225Z" fill="url(#paint17_linear)"/>
<path d="M44.201 48.7873C46.9676 48.7873 49.2103 46.5842 49.2103 43.8665C49.2103 41.1488 46.9676 38.9457 44.201 38.9457C41.4345 38.9457 39.1918 41.1488 39.1918 43.8665C39.1918 46.5842 41.4345 48.7873 44.201 48.7873Z" fill="url(#paint18_linear)"/>
<path d="M20.1843 24.7794C22.9508 24.7794 25.1935 22.5763 25.1935 19.8586C25.1935 17.1409 22.9508 14.9378 20.1843 14.9378C17.4177 14.9378 15.175 17.1409 15.175 19.8586C15.175 22.5763 17.4177 24.7794 20.1843 24.7794Z" fill="url(#paint19_linear)"/>
<path d="M44.0942 24.8948C46.8608 24.8948 49.1035 22.6917 49.1035 19.9741C49.1035 17.2564 46.8608 15.0533 44.0942 15.0533C41.3277 15.0533 39.085 17.2564 39.085 19.9741C39.085 22.6917 41.3277 24.8948 44.0942 24.8948Z" fill="url(#paint20_linear)"/>
</g>
<defs>
<linearGradient id="paint0_linear" x1="10.0516" y1="6.18232" x2="56.3412" y2="6.18878" gradientUnits="userSpaceOnUse">
<stop stop-color="#A93AFF"/>
<stop offset="1" stop-color="#FF81FF"/>
</linearGradient>
<linearGradient id="paint1_linear" x1="57.7384" y1="12.335" x2="57.7384" y2="0.0330811" gradientUnits="userSpaceOnUse">
<stop stop-color="#A93AFF"/>
<stop offset="1" stop-color="#FF81FF"/>
</linearGradient>
<linearGradient id="paint2_linear" x1="6.29436" y1="55.3365" x2="6.29436" y2="9.86414" gradientUnits="userSpaceOnUse">
<stop stop-color="#A93AFF"/>
<stop offset="1" stop-color="#FF81FF"/>
</linearGradient>
<linearGradient id="paint3_linear" x1="4.73991" y1="51.6779" x2="4.73991" y2="51.6008" gradientUnits="userSpaceOnUse">
<stop stop-color="#A93AFF"/>
<stop offset="1" stop-color="#FF81FF"/>
</linearGradient>
<linearGradient id="paint4_linear" x1="57.6393" y1="56.6114" x2="57.6393" y2="11.139" gradientUnits="userSpaceOnUse">
<stop stop-color="#A93AFF"/>
<stop offset="1" stop-color="#FF81FF"/>
</linearGradient>
<linearGradient id="paint5_linear" x1="10.0507" y1="57.8549" x2="56.3399" y2="57.8451" gradientUnits="userSpaceOnUse">
<stop stop-color="#A93AFF"/>
<stop offset="1" stop-color="#FF81FF"/>
</linearGradient>
<linearGradient id="paint6_linear" x1="20.0698" y1="41.8694" x2="20.0698" y2="23.3962" gradientUnits="userSpaceOnUse">
<stop stop-color="#5570FF"/>
<stop offset="1" stop-color="#4DD3FF"/>
</linearGradient>
<linearGradient id="paint7_linear" x1="43.8638" y1="41.8694" x2="43.8638" y2="23.3962" gradientUnits="userSpaceOnUse">
<stop stop-color="#5570FF"/>
<stop offset="1" stop-color="#4DD3FF"/>
</linearGradient>
<linearGradient id="paint8_linear" x1="22.5741" y1="19.6848" x2="41.3788" y2="19.6874" gradientUnits="userSpaceOnUse">
<stop stop-color="#5570FF"/>
<stop offset="1" stop-color="#4DD3FF"/>
</linearGradient>
<linearGradient id="paint9_linear" x1="22.554" y1="44.257" x2="41.3589" y2="44.2591" gradientUnits="userSpaceOnUse">
<stop stop-color="#5570FF"/>
<stop offset="1" stop-color="#4DD3FF"/>
</linearGradient>
<linearGradient id="paint10_linear" x1="11.4439" y1="49.3083" x2="14.8452" y2="52.7114" gradientUnits="userSpaceOnUse">
<stop stop-color="#A93AFF"/>
<stop offset="1" stop-color="#FF81FF"/>
</linearGradient>
<linearGradient id="paint11_linear" x1="48.3338" y1="12.5922" x2="51.6021" y2="16.1187" gradientUnits="userSpaceOnUse">
<stop stop-color="#A93AFF"/>
<stop offset="1" stop-color="#FF81FF"/>
</linearGradient>
<linearGradient id="paint12_linear" x1="10.9894" y1="14.0804" x2="14.2789" y2="10.5729" gradientUnits="userSpaceOnUse">
<stop stop-color="#A93AFF"/>
<stop offset="1" stop-color="#FF81FF"/>
</linearGradient>
<linearGradient id="paint13_linear" x1="48.6472" y1="51.8791" x2="52.1081" y2="48.5345" gradientUnits="userSpaceOnUse">
<stop stop-color="#A93AFF"/>
<stop offset="1" stop-color="#FF81FF"/>
</linearGradient>
<linearGradient id="paint14_linear" x1="6.26158" y1="63.9925" x2="6.26158" y2="51.6906" gradientUnits="userSpaceOnUse">
<stop stop-color="#A93AFF"/>
<stop offset="1" stop-color="#FF81FF"/>
</linearGradient>
<linearGradient id="paint15_linear" x1="57.6299" y1="64" x2="57.6299" y2="51.6981" gradientUnits="userSpaceOnUse">
<stop stop-color="#A93AFF"/>
<stop offset="1" stop-color="#FF81FF"/>
</linearGradient>
<linearGradient id="paint16_linear" x1="6.29435" y1="12.3019" x2="6.29435" y2="0" gradientUnits="userSpaceOnUse">
<stop stop-color="#A93AFF"/>
<stop offset="1" stop-color="#FF81FF"/>
</linearGradient>
<linearGradient id="paint17_linear" x1="20.2573" y1="49.225" x2="20.2573" y2="39.3835" gradientUnits="userSpaceOnUse">
<stop stop-color="#5570FF"/>
<stop offset="1" stop-color="#4DD3FF"/>
</linearGradient>
<linearGradient id="paint18_linear" x1="44.201" y1="48.7873" x2="44.201" y2="38.9457" gradientUnits="userSpaceOnUse">
<stop stop-color="#5570FF"/>
<stop offset="1" stop-color="#4DD3FF"/>
</linearGradient>
<linearGradient id="paint19_linear" x1="20.1843" y1="24.7794" x2="20.1843" y2="14.9378" gradientUnits="userSpaceOnUse">
<stop stop-color="#5570FF"/>
<stop offset="1" stop-color="#4DD3FF"/>
</linearGradient>
<linearGradient id="paint20_linear" x1="44.0942" y1="24.8948" x2="44.0942" y2="15.0533" gradientUnits="userSpaceOnUse">
<stop stop-color="#5570FF"/>
<stop offset="1" stop-color="#4DD3FF"/>
</linearGradient>
<clipPath id="clip0">
<rect width="64" height="64" fill="white"/>
</clipPath>
</defs>
</svg>
