<svg xmlns="http://www.w3.org/2000/svg" xmlns:xlink="http://www.w3.org/1999/xlink" viewBox="0 0 48 48"><defs><linearGradient id="a"><stop offset="0" stop-color="#a400ff"/><stop offset="1" stop-color="#ff6f00"/></linearGradient><linearGradient xlink:href="#a" id="b" x1="13.5" y1="24.005" x2="34.501" y2="24.005" gradientUnits="userSpaceOnUse"/><linearGradient xlink:href="#a" id="d" x1="-21.703" y1="24.68" x2="-11.038" y2="24.68" gradientUnits="userSpaceOnUse" gradientTransform="translate(50.307 -14.036) scale(1.57525)"/><linearGradient xlink:href="#a" id="c" gradientUnits="userSpaceOnUse" x1="13.5" y1="24.005" x2="34.501" y2="24.005" gradientTransform="translate(-13.806 -13.809) scale(1.57525)"/></defs><g stroke="url(#b)" transform="translate(2.034 -.203)" fill="none"><path d="M9.454 8.816a1.629 1.629 0 0 0-1.15 1.988l8.713 32.477a1.636 1.636 0 0 0 1.988 1.15l19.542-5.236a1.629 1.629 0 0 0 1.15-1.988L30.991 4.73a1.645 1.645 0 0 0-1.995-1.15z" stroke="url(#c)" stroke-width="1.575"/><path d="M21.786 16.047s6.288 2.234 8.215 4.742c1.366 1.772 2.856 4.54 1.74 6.472-.313.548-.867.892-1.494 1.101-1.046.358-2.332.339-3.367.197l.517 1.927 1.618-.437.436 1.624-6.485 1.741-.43-1.624 1.618-.43-.517-1.927c-1.336 1.016-3.409 2.141-4.868 1.298-1.932-1.113-2.03-4.257-1.735-6.472.412-3.132 4.741-8.209 4.741-8.209" fill="url(#d)" stroke="none"/></g></svg>