<svg width="64" height="64" viewBox="0 0 64 64" fill="none" xmlns="http://www.w3.org/2000/svg">
<path d="M29.125 5.86009C35.2675 2.43738 42.9942 2.08527 49.465 4.81132C48.4686 5.99261 47.5677 7.24962 46.7698 8.56721C42.0627 6.88993 36.68 7.13603 32.1752 9.3093C26.2618 12.0846 22.0968 18.1841 21.7723 24.6774C21.6654 25.6921 21.8105 26.9605 20.8599 27.642C20.0009 28.3916 18.806 28.0963 17.8745 27.6647C16.7904 26.3623 17.2752 24.5941 17.3668 23.0683C17.405 22.7502 17.4393 22.436 17.4775 22.1179C14.3624 21.8567 11.0907 22.5609 8.67417 24.6055C4.71534 27.6836 3.34865 33.5522 5.64301 38.0123C7.32657 41.4918 10.9151 44.0096 14.8167 44.2822C17.2599 44.4261 19.7108 44.2519 22.1541 44.3617C23.0894 44.358 23.7498 45.0925 24.2461 45.7891C24.2194 46.5918 24.2575 47.5232 23.6086 48.1214C22.8412 48.9695 21.5929 48.7726 20.5659 48.8219C17.531 48.731 14.4158 49.0869 11.461 48.2047C8.5062 47.3983 5.89116 45.6415 3.82966 43.4152C1.24134 40.4544 -0.167345 36.513 0.0158991 32.5905C0.164785 27.2974 3.3372 22.2807 7.96029 19.6796C11.1594 17.8206 15.0114 17.2906 18.6533 17.8131C20.627 12.7926 24.3492 8.45741 29.125 5.86009Z" fill="#13A3FF"/>
<path d="M49.465 4.81133C55.6533 7.44272 60.5818 12.8002 62.5594 19.1874C64.0673 24.2799 63.8421 29.872 61.7386 34.7638C58.7227 42.0067 51.6983 47.4437 43.8685 48.5265C42.9942 48.7348 42.2384 48.1934 41.5741 47.7125C41.2229 46.8947 41.0167 45.8762 41.6123 45.1114C42.1696 44.1914 43.3416 44.1119 44.2922 43.896C50.9844 42.5709 56.6077 37.2248 58.3676 30.7012C60.349 23.871 57.7721 16.1055 52.1984 11.6719C50.6027 10.3164 48.7359 9.29416 46.7698 8.56722C47.5677 7.24962 48.4687 5.99261 49.465 4.81133Z" fill="#21C1FF"/>
<path opacity="0.24" d="M32.1752 9.30928C36.68 7.13601 42.0628 6.88991 46.7698 8.56719C48.7359 9.29414 50.6027 10.3164 52.1984 11.6719C50.8165 11.6416 49.7972 10.6344 48.5908 10.112C46.8233 9.30171 44.9298 8.71106 42.9828 8.55583C40.3716 8.4536 37.6802 8.3438 35.1835 9.24492C28.8119 11.085 23.8262 16.7075 22.6084 23.1516C22.2953 24.6092 22.3488 26.1275 21.967 27.5738C21.4211 29.3571 18.4129 29.5578 17.8746 27.6647C18.8061 28.0963 20.001 28.3916 20.8599 27.642C21.8105 26.9605 21.6654 25.6921 21.7723 24.6774C22.0968 18.1841 26.2618 12.0846 32.1752 9.30928Z" fill="#04090B"/>
<path opacity="0.24" d="M62.5593 19.1874C63.403 20.1794 63.5099 21.5235 63.7733 22.7389C64.0864 24.8781 64.01 27.0551 63.926 29.2094C63.0556 39.3791 54.3821 48.2085 44.1968 49.4693C43.0057 49.6472 41.8681 48.8635 41.5741 47.7125C42.2384 48.1933 42.9942 48.7348 43.8685 48.5265C51.6983 47.4437 58.7227 42.0067 61.7386 34.7638C63.842 29.872 64.0673 24.2798 62.5593 19.1874Z" fill="#04090B"/>
<path opacity="0.24" d="M8.67423 24.6054C11.0908 22.5609 14.3624 21.8566 17.4776 22.1179C17.4394 22.4359 17.405 22.7502 17.3669 23.0682C14.5495 22.7691 11.629 23.5945 9.40721 25.3437C6.81125 27.2292 5.28804 30.3415 5.07425 33.4954C5.00172 35.0212 5.42547 36.5092 5.64307 38.0123C3.34871 33.5521 4.7154 27.6836 8.67423 24.6054Z" fill="#04090B"/>
<path opacity="0.24" d="M3.82971 43.4152C5.89121 45.6414 8.50625 47.3982 11.4611 48.2047C14.4159 49.0869 17.531 48.7309 20.566 48.8218C21.5929 48.7726 22.8413 48.9695 23.6086 48.1214C24.2576 47.5232 24.2194 46.5918 24.2461 45.7891C25.1318 47.1218 24.7272 49.367 22.9176 49.6207C19.2146 49.9652 15.3855 50.0183 11.755 49.0793C8.98345 48.3864 6.49438 46.7924 4.51306 44.7706C4.11603 44.4185 3.99387 43.8922 3.82971 43.4152Z" fill="#04090B"/>
<path opacity="0.24" d="M27.8729 54.7775C29.7855 56.5948 31.6141 58.4917 33.5152 60.3166C34.2291 61.1004 35.4775 61.3654 36.4013 60.7823C37.3214 60.2864 37.4779 59.1959 37.5504 58.2607C38.1269 59.1846 38.2414 60.5968 37.2679 61.3086C36.4052 62.2022 34.8018 62.2438 33.9199 61.3503C32.515 60.1084 31.2705 58.6999 29.9 57.4202C29.1212 56.6289 28.1057 55.936 27.8729 54.7775Z" fill="#04090B"/>
<path opacity="0.24" d="M41.6238 57.0568C42.8301 58.1888 43.9525 59.4118 45.1856 60.5173C45.9262 61.2518 47.1822 61.2632 48.0144 60.6726C48.8352 60.1576 48.9344 59.1467 48.9917 58.2759C49.5185 59.1127 49.7171 60.3659 48.923 61.1042C48.2473 61.9371 47.0562 62.2097 46.0636 61.8311C45.1283 61.2708 44.4221 60.4265 43.6318 59.6957C42.8492 58.9082 41.8681 58.204 41.6238 57.0568Z" fill="#04090B"/>
<path opacity="0.24" d="M23.4254 58.0223C23.8987 58.7682 24.0209 59.6655 23.8262 60.5249C23.2536 62.437 19.7643 62.5316 19.4894 60.3621C20.3751 61.1269 21.7991 61.3958 22.7153 60.5287C23.4903 59.9267 23.475 58.9007 23.4254 58.0223Z" fill="#04090B"/>
<path d="M27.6323 39.9812C28.5103 39.046 30.1252 39.1709 30.9459 40.1175C32.87 42.003 34.7826 43.8999 36.699 45.7892C37.5847 46.554 37.871 48.0268 37.0312 48.9279C35.6759 50.4083 34.1909 51.7713 32.7631 53.1874C34.2863 54.9441 36.2256 56.3412 37.5503 58.2608C37.4778 59.196 37.3213 60.2864 36.4013 60.7824C35.4774 61.3655 34.2291 61.1005 33.5152 60.3167C31.614 58.4918 29.7854 56.5949 27.8728 54.7775C27.0367 53.9332 27.0482 52.4528 27.9186 51.635C29.2624 50.2455 30.694 48.9355 32.0187 47.527C30.5374 46.0428 29.0028 44.6117 27.5674 43.0896C26.7351 42.2567 26.758 40.7725 27.6323 39.9812Z" fill="url(#paint0_linear)"/>
<path d="M15.7214 56.3678C14.7556 54.5201 17.1683 52.3544 18.9091 53.5508C20.5354 54.9063 22.0319 56.4359 23.4253 58.0223C23.4749 58.9007 23.4902 59.9268 22.7152 60.5288C21.799 61.3958 20.3751 61.127 19.4894 60.3622C18.283 58.984 16.7598 57.8747 15.7214 56.3678Z" fill="url(#paint1_linear)"/>
<path d="M41.6237 57.0568C40.5013 55.9891 40.9136 53.9332 42.3719 53.3918C43.4332 52.9072 44.5747 53.4941 45.281 54.2929C46.5217 55.6143 48.0296 56.7237 48.9916 58.276C48.9344 59.1468 48.8351 60.1577 48.0143 60.6726C47.1821 61.2633 45.9261 61.2519 45.1855 60.5174C43.9524 59.4118 42.8301 58.1889 41.6237 57.0568Z" fill="url(#paint2_linear)"/>
<defs>
<linearGradient id="paint0_linear" x1="32.2549" y1="61.098" x2="32.2549" y2="39.3403" gradientUnits="userSpaceOnUse">
<stop stop-color="#FD2E00"/>
<stop offset="1" stop-color="#FF9900"/>
</linearGradient>
<linearGradient id="paint1_linear" x1="19.4729" y1="53.207" x2="19.4729" y2="61.0681" gradientUnits="userSpaceOnUse">
<stop stop-color="#00FFE0"/>
<stop offset="1" stop-color="#078AA7"/>
</linearGradient>
<linearGradient id="paint2_linear" x1="44.9867" y1="53.2158" x2="44.9867" y2="61.0939" gradientUnits="userSpaceOnUse">
<stop stop-color="#00FFE0"/>
<stop offset="1" stop-color="#078AA7"/>
</linearGradient>
</defs>
</svg>
