<svg xmlns="http://www.w3.org/2000/svg" xmlns:xlink="http://www.w3.org/1999/xlink" viewBox="0 0 48 48"><defs><linearGradient id="a"><stop offset="0" stop-color="#71ff00"/><stop offset="1" stop-color="#00c1c1"/></linearGradient><linearGradient xlink:href="#a" id="b" x1="4.607" y1="7.102" x2="42.984" y2="42.695" gradientUnits="userSpaceOnUse"/><linearGradient xlink:href="#a" id="c" x1="13.677" y1="13.814" x2="34.627" y2="34.967" gradientUnits="userSpaceOnUse"/></defs><g fill="none" stroke="url(#b)" stroke-width="2" stroke-linecap="round" stroke-linejoin="round"><path d="M27 15.443l13.367-1.867c.23-.024.45-.112.633-.254l.026-.017c.56-.411.68-1.198.269-1.757v0a21.762 21.762 0 0 0-7.456-6.4A21.402 21.402 0 0 0 24 2.744c-7.057 0-13.67 3.5-17.692 9.36"/><path d="M15.63 28L8.552 12.276a1.257 1.257 0 0 0-1.176-.713 1.255 1.255 0 0 0-1.07.545 21.267 21.267 0 0 0-3.75 12.08 21.414 21.414 0 0 0 5.166 13.924c3.295 3.842 7.831 6.41 12.774 7.23"/><path d="M31 30.411L19.72 43.307c-.63.77-.157 1.93.83 2.043a21.56 21.56 0 0 0 3.45.28c5.704 0 11.083-2.237 15.145-6.298 4.06-4.06 6.297-9.44 6.297-15.145a21.23 21.23 0 0 0-4.147-12.64"/></g><g fill="url(#c)"><path d="M24 30.47a6.265 6.265 0 0 1-5.584-3.407 6.277 6.277 0 0 1-.698-2.876 6.298 6.298 0 0 1 4.2-5.928 6.29 6.29 0 0 1 8.364 5.928 6.135 6.135 0 0 1-1.212 3.704A6.311 6.311 0 0 1 24 30.469zm0-10.053a3.75 3.75 0 0 0-1.248.212 3.782 3.782 0 0 0-2.522 3.558c0 .598.144 1.195.418 1.72A3.761 3.761 0 0 0 24 27.956a3.79 3.79 0 0 0 3.043-1.55 3.674 3.674 0 0 0 .726-2.219A3.773 3.773 0 0 0 24 20.417z"/><path d="M24 34.714a10.496 10.496 0 0 1-9.499-5.994 10.568 10.568 0 0 1-1.027-4.533 10.551 10.551 0 0 1 7.032-9.93A10.49 10.49 0 0 1 24 13.66c5.804 0 10.525 4.722 10.525 10.526a10.44 10.44 0 0 1-2.393 6.676A10.504 10.504 0 0 1 24 34.713zM24 16a8.15 8.15 0 0 0-4.03 1.061 8.208 8.208 0 0 0-4.158 7.126 8.215 8.215 0 0 0 .912 3.75A8.164 8.164 0 0 0 24 32.375c2.417 0 4.784-1.12 6.329-2.998a8.116 8.116 0 0 0 1.859-5.189c0-4.515-3.673-8.186-8.187-8.186z"/></g></svg>