<?xml version="1.0" encoding="UTF-8" ?>
<!DOCTYPE svg PUBLIC "-//W3C//DTD SVG 1.1//EN" "http://www.w3.org/Graphics/SVG/1.1/DTD/svg11.dtd">
<svg width="192pt" height="192pt" viewBox="0 0 192 192" version="1.1" xmlns="http://www.w3.org/2000/svg">
<g id="#f6ae29ff">
<path fill="#f6ae29" opacity="1.00" d=" M 77.48 22.52 C 83.98 22.10 90.53 21.97 97.05 22.02 C 99.67 21.98 101.42 24.20 103.16 25.83 C 106.35 29.20 109.85 32.29 112.89 35.79 C 110.43 39.29 107.71 42.61 104.73 45.67 C 102.09 43.14 99.56 40.50 96.99 37.91 C 95.57 36.62 94.26 34.64 92.08 34.94 C 84.96 34.95 77.85 35.36 70.74 35.36 C 72.74 30.94 75.99 27.18 77.48 22.52 Z" />
</g>
<g id="#f69f1dff">
<path fill="#f69f1d" opacity="1.00" d=" M 25.15 30.00 C 25.00 26.31 28.42 23.24 32.04 23.46 C 47.18 23.17 62.34 22.56 77.48 22.52 C 75.99 27.18 72.74 30.94 70.74 35.36 C 62.81 35.76 54.86 35.58 46.94 36.08 C 48.03 37.33 49.20 38.50 50.40 39.65 C 55.61 44.91 60.86 50.13 66.10 55.36 C 62.69 55.30 60.93 58.48 58.41 60.18 C 56.92 60.87 55.22 60.85 53.62 61.08 C 45.51 53.31 37.75 45.15 29.70 37.30 C 27.75 35.23 25.08 33.13 25.15 30.00 Z" />
</g>
<g id="#ff365cff">
<path fill="#ff365c" opacity="1.00" d=" M 156.86 25.83 C 160.12 22.16 166.98 24.32 167.56 29.18 C 167.88 34.65 168.25 40.18 168.00 45.66 C 163.55 50.28 160.62 56.17 155.63 60.29 C 155.51 56.38 155.40 52.47 155.24 48.56 C 155.20 47.96 155.12 46.75 155.08 46.15 C 148.53 51.75 142.75 58.21 136.62 64.26 C 136.78 59.30 133.31 55.75 129.96 52.63 C 139.00 43.78 147.85 34.72 156.86 25.83 Z" />
</g>
<g id="#00000038">
<path fill="#000000" opacity="0.22" d=" M 46.94 36.08 C 54.86 35.58 62.81 35.76 70.74 35.36 C 77.85 35.36 84.96 34.95 92.08 34.94 C 94.26 34.64 95.57 36.62 96.99 37.91 C 87.03 36.36 77.00 38.21 67.00 38.23 C 61.45 38.49 55.65 37.34 50.40 39.65 C 49.20 38.50 48.03 37.33 46.94 36.08 Z" />
<path fill="#000000" opacity="0.22" d=" M 167.80 160.77 C 169.77 162.86 167.97 165.67 166.37 167.34 C 164.23 169.59 160.82 169.14 158.00 169.34 C 148.00 169.18 138.01 170.00 128.00 170.10 C 118.66 170.42 109.30 170.12 99.97 170.72 C 96.97 170.96 93.09 170.41 92.10 167.06 C 95.56 168.48 99.36 168.12 103.01 168.04 C 109.75 167.80 116.50 167.68 123.25 167.48 C 136.10 167.19 148.97 167.01 161.81 166.49 C 165.02 166.43 166.81 163.44 167.80 160.77 Z" />
</g>
<g id="#f6c13aff">
<path fill="#f6c13a" opacity="1.00" d=" M 104.73 45.67 C 107.71 42.61 110.43 39.29 112.89 35.79 C 118.74 41.23 124.18 47.11 129.96 52.63 C 133.31 55.75 136.78 59.30 136.62 64.26 C 128.88 72.88 120.20 80.60 112.30 89.08 C 112.10 86.48 112.31 83.53 110.60 81.37 C 108.90 79.29 105.97 79.32 103.56 78.88 C 109.02 73.02 114.98 67.63 120.39 61.73 C 115.57 56.02 109.86 51.11 104.73 45.67 Z" />
</g>
<g id="#ff366dff">
<path fill="#ff366d" opacity="1.00" d=" M 155.63 60.29 C 160.62 56.17 163.55 50.28 168.00 45.66 C 168.47 51.01 168.35 56.39 168.52 61.76 C 168.53 72.87 169.19 83.97 169.17 95.08 C 169.36 97.53 167.93 99.62 166.28 101.27 C 157.15 110.46 147.84 119.49 138.84 128.81 C 135.70 132.18 132.17 136.16 127.02 135.25 C 119.27 127.94 111.91 120.24 104.35 112.75 C 103.95 112.34 103.17 111.53 102.78 111.13 C 105.10 110.89 107.71 111.14 109.71 109.73 C 111.71 107.94 112.11 105.12 112.79 102.66 C 118.75 107.88 123.77 114.09 129.86 119.14 C 137.82 111.69 145.32 103.76 153.16 96.18 C 154.46 94.65 156.67 93.34 156.31 91.04 C 156.18 80.79 155.71 70.54 155.63 60.29 Z" />
</g>
<g id="#0e05074f">
<path fill="#0e0507" opacity="0.31" d=" M 136.62 64.26 C 142.75 58.21 148.53 51.75 155.08 46.15 C 155.12 46.75 155.20 47.96 155.24 48.56 C 147.69 55.91 140.02 63.16 133.06 71.08 C 127.51 77.18 121.37 82.72 115.63 88.64 C 112.05 92.05 112.84 97.44 112.71 101.91 C 112.15 97.66 112.13 93.36 112.30 89.08 C 120.20 80.60 128.88 72.88 136.62 64.26 Z" />
</g>
<g id="#f6b02bff">
<path fill="#f6b02b" opacity="1.00" d=" M 58.41 60.18 C 60.93 58.48 62.69 55.30 66.10 55.36 C 73.81 63.18 81.71 70.81 89.31 78.74 C 87.22 79.04 84.94 79.00 83.10 80.17 C 80.97 81.91 80.36 84.76 79.42 87.22 C 73.84 81.94 68.43 76.49 63.11 70.95 C 60.24 67.74 57.24 64.65 54.16 61.64 L 53.62 61.08 C 55.22 60.85 56.92 60.87 58.41 60.18 Z" />
</g>
<g id="#37df7bff">
<path fill="#37df7b" opacity="1.00" d=" M 26.88 88.89 C 36.05 79.88 45.01 70.66 54.16 61.64 C 57.24 64.65 60.24 67.74 63.11 70.95 C 55.10 78.79 47.41 86.95 39.26 94.63 C 37.93 94.31 36.61 93.91 35.25 93.77 C 30.98 96.76 27.85 101.11 23.70 104.28 C 23.46 99.05 21.91 92.48 26.88 88.89 Z" />
</g>
<g id="#0b020544">
<path fill="#0b0205" opacity="0.27" d=" M 168.52 61.76 C 169.74 62.82 169.62 64.53 169.72 65.98 C 169.83 76.18 169.53 86.39 170.30 96.57 C 170.67 99.23 169.07 101.50 167.30 103.29 C 158.37 112.31 149.12 121.02 140.61 130.44 C 140.16 130.03 139.28 129.22 138.84 128.81 C 147.84 119.49 157.15 110.46 166.28 101.27 C 167.93 99.62 169.36 97.53 169.17 95.08 C 169.19 83.97 168.53 72.87 168.52 61.76 Z" />
</g>
<g id="#596c81ff">
<path fill="#596c81" opacity="1.00" d=" M 83.10 80.17 C 84.94 79.00 87.22 79.04 89.31 78.74 C 93.74 79.17 98.20 79.03 102.64 78.91 C 104.30 79.70 105.93 80.56 107.43 81.62 C 105.85 86.06 102.17 89.25 99.09 92.65 C 97.34 92.68 95.59 92.69 93.86 92.86 C 94.09 94.77 94.48 96.65 94.91 98.52 C 92.58 103.01 89.41 106.97 86.11 110.77 C 81.50 110.48 80.46 105.44 80.16 101.71 C 80.34 96.88 80.72 91.94 79.42 87.22 C 80.36 84.76 80.97 81.91 83.10 80.17 Z" />
</g>
<g id="#687380ff">
<path fill="#687380" opacity="1.00" d=" M 102.64 78.91 L 103.56 78.88 C 105.97 79.32 108.90 79.29 110.60 81.37 C 112.31 83.53 112.10 86.48 112.30 89.08 C 112.13 93.36 112.15 97.66 112.71 101.91 L 112.79 102.66 C 112.11 105.12 111.71 107.94 109.71 109.73 C 107.71 111.14 105.10 110.89 102.78 111.13 C 98.26 110.92 93.73 110.89 89.22 111.21 C 88.44 111.10 86.88 110.88 86.11 110.77 C 89.41 106.97 92.58 103.01 94.91 98.52 C 96.18 98.16 97.44 97.77 98.70 97.37 C 98.95 95.81 98.99 94.23 99.09 92.65 C 102.17 89.25 105.85 86.06 107.43 81.62 C 105.93 80.56 104.30 79.70 102.64 78.91 Z" />
</g>
<g id="#3ee176ff">
<path fill="#3ee176" opacity="1.00" d=" M 35.25 93.77 C 36.61 93.91 37.93 94.31 39.26 94.63 C 37.99 96.19 36.03 97.66 36.40 99.93 C 36.50 111.83 36.92 123.72 37.09 135.62 C 32.22 139.81 28.93 145.39 24.79 150.23 C 24.20 134.93 23.82 119.59 23.70 104.28 C 27.85 101.11 30.98 96.76 35.25 93.77 Z" />
</g>
<g id="#00000024">
<path fill="#000000" opacity="0.14" d=" M 93.86 92.86 C 95.59 92.69 97.34 92.68 99.09 92.65 C 98.99 94.23 98.95 95.81 98.70 97.37 C 97.44 97.77 96.18 98.16 94.91 98.52 C 94.48 96.65 94.09 94.77 93.86 92.86 Z" />
</g>
<g id="#4fe76aff">
<path fill="#4fe76a" opacity="1.00" d=" M 37.31 144.84 C 51.81 130.69 65.85 116.06 80.16 101.71 C 80.46 105.44 81.50 110.48 86.11 110.77 C 86.88 110.88 88.44 111.10 89.22 111.21 C 83.68 117.25 77.71 122.87 71.98 128.73 C 68.94 131.67 65.96 134.68 63.00 137.71 C 54.01 146.49 45.26 155.53 36.31 164.35 C 34.55 166.38 31.81 166.71 29.29 166.81 C 23.07 163.73 24.99 155.85 24.79 150.23 C 28.93 145.39 32.22 139.81 37.09 135.62 C 37.19 138.69 37.18 141.77 37.31 144.84 Z" />
</g>
<g id="#040c074e">
<path fill="#040c07" opacity="0.31" d=" M 89.22 111.21 C 93.73 110.89 98.26 110.92 102.78 111.13 C 103.17 111.53 103.95 112.34 104.35 112.75 C 98.65 113.26 91.64 111.60 87.25 116.23 C 82.62 120.75 78.13 125.41 73.65 130.09 C 73.24 129.75 72.40 129.07 71.98 128.73 C 77.71 122.87 83.68 117.25 89.22 111.21 Z" />
</g>
<g id="#119fffff">
<path fill="#119fff" opacity="1.00" d=" M 63.00 137.71 C 65.96 134.68 68.94 131.67 71.98 128.73 C 72.40 129.07 73.24 129.75 73.65 130.09 C 80.09 136.57 86.62 142.96 92.99 149.52 C 90.36 152.37 85.55 155.39 86.98 159.90 C 87.13 160.48 87.43 161.64 87.58 162.22 C 80.23 155.15 73.09 147.85 65.90 140.61 C 64.95 139.62 63.98 138.66 63.00 137.71 Z" />
</g>
<g id="#1ebbffff">
<path fill="#1ebbff" opacity="1.00" d=" M 127.02 135.25 C 132.17 136.16 135.70 132.18 138.84 128.81 C 139.28 129.22 140.16 130.03 140.61 130.44 C 141.41 131.20 142.19 132.01 142.87 132.90 C 140.22 135.36 137.11 137.60 135.45 140.91 C 135.72 142.34 136.31 143.69 136.89 145.03 C 133.63 141.74 130.39 138.43 127.02 135.25 Z" />
</g>
<g id="#24c7ffff">
<path fill="#24c7ff" opacity="1.00" d=" M 135.45 140.91 C 137.11 137.60 140.22 135.36 142.87 132.90 C 150.24 139.94 157.27 147.33 164.56 154.45 C 166.41 156.06 167.62 158.30 167.80 160.77 C 166.81 163.44 165.02 166.43 161.81 166.49 C 148.97 167.01 136.10 167.19 123.25 167.48 C 120.62 167.33 118.00 167.09 115.41 166.66 C 118.04 162.68 120.92 158.86 123.21 154.66 C 130.64 154.37 138.09 154.44 145.52 153.98 C 142.90 150.76 139.75 148.03 136.89 145.03 C 136.31 143.69 135.72 142.34 135.45 140.91 Z" />
</g>
<g id="#0510094f">
<path fill="#051009" opacity="0.31" d=" M 36.31 164.35 C 45.26 155.53 54.01 146.49 63.00 137.71 C 63.98 138.66 64.95 139.62 65.90 140.61 C 63.64 141.20 61.25 141.79 59.69 143.69 C 53.12 150.45 46.36 157.02 39.78 163.77 C 38.09 165.43 36.41 167.18 34.29 168.28 C 32.54 169.20 30.15 168.66 29.29 166.81 C 31.81 166.71 34.55 166.38 36.31 164.35 Z" />
</g>
<g id="#1ab3ffff">
<path fill="#1ab3ff" opacity="1.00" d=" M 86.98 159.90 C 85.55 155.39 90.36 152.37 92.99 149.52 C 95.00 151.38 96.70 153.69 99.13 155.03 C 107.15 155.31 115.18 154.67 123.21 154.66 C 120.92 158.86 118.04 162.68 115.41 166.66 C 118.00 167.09 120.62 167.33 123.25 167.48 C 116.50 167.68 109.75 167.80 103.01 168.04 C 99.36 168.12 95.56 168.48 92.10 167.06 C 90.56 165.47 89.02 163.89 87.58 162.22 C 87.43 161.64 87.13 160.48 86.98 159.90 Z" />
</g>
</svg>
