<svg xmlns="http://www.w3.org/2000/svg" xmlns:xlink="http://www.w3.org/1999/xlink" width="48" height="48"><defs><linearGradient id="a"><stop stop-color="#00caf6" offset="0"/><stop stop-color="#d100ff" offset="1"/></linearGradient><linearGradient xlink:href="#a" id="b" x1="-5.045" y1="23.628" x2="40.672" y2="23.628" gradientUnits="userSpaceOnUse"/><linearGradient xlink:href="#a" id="c" gradientUnits="userSpaceOnUse" x1="-5.045" y1="23.628" x2="40.672" y2="23.628"/><linearGradient xlink:href="#a" id="d" gradientUnits="userSpaceOnUse" x1="-5.045" y1="23.628" x2="40.672" y2="23.628"/><linearGradient xlink:href="#a" id="e" gradientUnits="userSpaceOnUse" x1="-5.045" y1="23.628" x2="40.672" y2="23.628"/></defs><g transform="translate(6.346 1.276)" stroke="url(#b)" stroke-linecap="round" stroke-linejoin="round" fill="none" stroke-width="1.8"><path d="M-.527 23.627c-.022 10.138 8.202 18.362 18.34 18.34m18.341-18.34h-7.551c.013 5.964-4.825 10.803-10.79 10.79-5.964.013-10.802-4.826-10.789-10.79-.013-5.964 4.825-10.803 10.79-10.79v-7.55" stroke="url(#c)" stroke-width="1.979"/><path d="M17.814 1.765A21.816 21.816 0 0 0-4.05 23.627h7.652a14.18 14.18 0 0 1 14.21-14.21zm14.212 21.862a14.18 14.18 0 0 1-14.212 14.212v7.652a21.816 21.816 0 0 0 21.862-21.864z" stroke="url(#d)" stroke-width="1.992"/><path d="M18.13 18.583a5.034 5.034 0 0 1 5.044 5.044 5.034 5.034 0 0 1-5.044 5.044 5.034 5.034 0 0 1-5.045-5.044 5.034 5.034 0 0 1 5.045-5.044" stroke="url(#e)" stroke-width="1.979"/></g></svg>