<svg xmlns="http://www.w3.org/2000/svg" xmlns:xlink="http://www.w3.org/1999/xlink" height="48" width="48"><defs><linearGradient id="a" x1="31" gradientUnits="userSpaceOnUse" x2="31" gradientTransform="matrix(1.14282 0 0 -1 -4.57 1052.3)" y1="1000.4" y2="1040.4"><stop stop-color="#ff8500" offset="0"/><stop stop-color="#f06" offset="1"/></linearGradient><linearGradient xlink:href="#a" id="b" x1="2.518" y1="10.056" x2="44.536" y2="38.676" gradientUnits="userSpaceOnUse"/></defs><g stroke="url(#b)" color="#000" fill="none"><path d="M24.103 39.692c-12.955 0-19.37-9.824-21.373-13.493-.286-.526-.605-1.035-.606-1.617.002-.582.32-1.091.606-1.616 2.002-3.67 8.418-13.494 21.373-13.494 12.954 0 19.37 9.824 21.373 13.493.286.525.604 1.035.605 1.617-.001.582-.32 1.091-.606 1.617-2 3.669-8.417 13.493-21.372 13.493z" style="isolation:auto;mix-blend-mode:normal;solid-color:#000" stroke-width="1.8"/><circle style="isolation:auto;mix-blend-mode:normal;solid-color:#000" cy="24.581" cx="24.102" r="9.083" stroke-width="1.6"/></g><path d="M30.913 28.099h-1.49l-1.774-1.774-2.955 2.956-4.73-4.73-2.951 2.952a7.685 7.685 0 0 0 7.09 4.734 7.685 7.685 0 0 0 6.81-4.138z" style="isolation:auto;mix-blend-mode:normal;solid-color:#000" color="#000" fill="#ff2927" stroke="#ff2927" stroke-width=".731"/><circle r="2.365" cx="27.058" cy="22.211" style="isolation:auto;mix-blend-mode:normal;solid-color:#000" color="#000" fill="#ff2927" stroke="#ff2927" stroke-width=".731"/></svg>