<svg width="192" height="192" viewBox="0 0 192 192" fill="none" xmlns="http://www.w3.org/2000/svg">
<path d="M69.25 12.22C82.39 7.96997 96.49 6.72997 110.16 8.67997C107.62 12.64 104.86 16.44 101.88 20.08C86.52 19.14 70.93 22.94 57.72 30.85C57.77 28.16 59.75 26.25 61.26 24.24C64.11 20.45 67.05 16.67 69.16 12.4L69.25 12.22Z" fill="url(#paint0_linear)"/>
<path d="M110.16 8.67999C119.01 9.92999 127.55 12.72 135.7 16.31L135.54 16.93C133.65 20.35 131.01 23.32 129.54 26.98C120.86 22.99 111.43 20.64 101.88 20.08C104.86 16.44 107.62 12.64 110.16 8.67999Z" fill="url(#paint1_linear)"/>
<path d="M167.27 64.88C169.18 60.6 172.08 56.9 175.13 53.38C179.91 61.93 183.32 71.28 185.03 80.93C185.26 82.44 185.5 83.94 185.69 85.45C180.86 90.22 176.32 95.73 174.09 102.23C174.9 89.47 172.65 76.49 167.27 64.88Z" fill="url(#paint2_linear)"/>
<path d="M91.07 173.65C101.87 174.5 112.84 173.09 123.05 169.48C120.91 175.11 116 179.02 113.71 184.56C103.81 186.4 93.61 186.52 83.65 185.02C85.99 181.14 88.77 177.55 91.07 173.65Z" fill="url(#paint3_linear)"/>
<path d="M12.32 124.04C15.22 120 17.46 115.18 21.88 112.53C22.66 116.15 23.59 119.74 24.97 123.18C27.13 129.32 30.22 135.11 33.86 140.51C30.33 142.81 28.25 146.57 25.38 149.55C19.54 141.93 15.3 133.15 12.32 124.04Z" fill="url(#paint4_linear)"/>
<path d="M13.75 65.73C22.96 40.85 43.83 20.47 69.16 12.4C67.05 16.67 64.11 20.45 61.26 24.24C59.75 26.25 57.77 28.16 57.72 30.85C42.74 39.93 30.84 54.12 24.92 70.65C20.05 83.97 19.08 98.64 21.88 112.53C17.46 115.18 15.22 120 12.32 124.04C6.29999 105.17 6.78999 84.28 13.75 65.73Z" fill="url(#paint5_linear)"/>
<path d="M135.54 16.93L135.81 16.47C152.26 24.4 166.24 37.41 175.13 53.38C172.08 56.9 169.18 60.6 167.27 64.88C162.89 55.37 156.56 46.77 148.77 39.79C143.16 34.44 136.5 30.31 129.54 26.98C131.01 23.32 133.65 20.35 135.54 16.93Z" fill="url(#paint6_linear)"/>
<path d="M57.72 30.85C70.93 22.94 86.52 19.14 101.88 20.08C111.43 20.64 120.86 22.99 129.54 26.98C136.5 30.31 143.16 34.44 148.77 39.79C145.05 39.28 142.58 36.24 139.5 34.43C126.87 26.52 111.95 22.01 97 22.44C76.56 22.62 56.46 31.66 42.55 46.61C28.22 61.5 20.86 82.49 21.72 103.03C22.06 109.86 24.17 116.41 24.97 123.18C23.59 119.74 22.66 116.15 21.88 112.53C19.08 98.64 20.05 83.97 24.92 70.65C30.84 54.12 42.74 39.93 57.72 30.85Z" fill="url(#paint7_linear)"/>
<path d="M73.23 92.51C75.58 94.95 78.55 96.67 81.7 97.89C90.08 101.11 99.46 100.26 107.7 103.94C109.47 104.92 111.27 106.08 112.32 107.86L111.99 108.7C102.21 101.43 88.85 104.59 78.53 98.49C76.37 96.98 73.13 95.6 73.23 92.51Z" fill="url(#paint8_linear)"/>
<path d="M127.14 109.68C129.46 112.06 128.36 115.68 128.02 118.6C126.79 126.66 121.34 133.91 113.79 137.07C111.23 138.38 108.23 138.34 105.68 139.6C104.36 141.5 104.96 143.95 104.52 146.1C103.09 149.24 99.85 151.49 96.31 150.47L96.33 148.84C97.02 148.66 98.39 148.31 99.08 148.14C104.07 147.06 104.18 141.26 103.8 137.19C111.16 136.46 118.53 133.08 122.81 126.86C126.41 121.93 127.41 115.65 127.14 109.68Z" fill="url(#paint9_linear)"/>
<path d="M73.19 131.78C73.36 131.49 73.7 130.92 73.87 130.64C76.86 133.04 80.27 134.9 83.91 136.11C86.31 136.88 88.81 137.24 91.28 137.71C91.28 138.24 91.29 139.29 91.3 139.82C84.56 139.43 78.17 136.22 73.19 131.78Z" fill="url(#paint10_linear)"/>
<path d="M92.47 47.46C94.56 44.24 99.7 43.9 102.17 46.86C104.24 48.84 103.84 51.88 103.85 54.46C110.81 55.98 118.52 59.13 121.74 65.95C122.53 69.63 119.84 73.63 116.01 73.93C113.8 74.31 111.85 73.11 110.23 71.77C103.63 66.44 93.93 65.75 86.37 69.34C81.32 71.69 79.55 79.19 83.55 83.25C85.34 84.75 87.55 85.58 89.78 86.21L89.76 86.23C86.63 89.79 83.69 93.56 81.7 97.89C78.55 96.67 75.58 94.95 73.23 92.51C65.59 83.18 66.95 67.15 77.02 60.02C81.18 56.96 86.21 55.32 91.27 54.57C91.35 52.19 90.87 49.48 92.47 47.46Z" fill="url(#paint11_linear)"/>
<path d="M121.74 65.95C124.39 67.61 123.62 71.25 122.26 73.51C120.21 77 114.94 77.53 111.93 75.03C107.67 71.76 102.43 69.74 97.06 69.57C92.88 70.26 88.11 70.79 85.03 74.01C82.56 76.46 83.42 80.16 83.55 83.25C79.55 79.19 81.32 71.69 86.37 69.34C93.93 65.75 103.63 66.44 110.23 71.77C111.85 73.11 113.8 74.31 116.01 73.93C119.84 73.63 122.53 69.63 121.74 65.95Z" fill="url(#paint12_linear)"/>
<path d="M185.03 80.93C185.35 81.04 185.97 81.26 186.29 81.37C188.25 90.11 187.68 99.14 187.5 108.02C185.56 129.22 175.46 149.4 160.08 164.05C146.18 177.12 128.09 185.97 109.04 187.93C83.72 191.22 57.14 182.87 38.34 165.57C37.99 165.15 37.27 164.32 36.91 163.9L37.98 163.53C40.5 165.6 42.99 167.72 45.67 169.58C56.89 177.61 70.02 182.95 83.65 185.02C93.61 186.52 103.81 186.4 113.71 184.56C133.51 180.94 151.88 170.26 164.95 154.97C181.35 136.14 189 110.18 185.69 85.45C185.5 83.94 185.26 82.44 185.03 80.93Z" fill="url(#paint13_linear)"/>
<path d="M174.09 102.23C176.32 95.73 180.86 90.22 185.69 85.45C189 110.18 181.35 136.14 164.95 154.97C151.88 170.26 133.51 180.94 113.71 184.56C116 179.02 120.91 175.11 123.05 169.48C151.38 159.75 172.41 132.16 174.09 102.23Z" fill="url(#paint14_linear)"/>
<path d="M81.7 97.89C83.69 93.56 86.63 89.79 89.76 86.23C98.55 88.08 107.8 88.41 116.03 92.35C112.68 95.77 109.87 99.67 107.7 103.94C99.46 100.26 90.08 101.11 81.7 97.89Z" fill="url(#paint15_linear)"/>
<path d="M107.7 103.94C109.87 99.67 112.68 95.77 116.03 92.35C122.67 95.5 126.84 102.41 127.14 109.68C127.41 115.65 126.41 121.93 122.81 126.86C118.53 133.08 111.16 136.46 103.8 137.19C104.18 141.26 104.07 147.06 99.08 148.14C94.19 149.76 90.18 144.34 91.3 139.82C91.29 139.29 91.28 138.24 91.28 137.71C88.81 137.24 86.31 136.88 83.91 136.11C86.69 132.16 89.56 128.27 92.17 124.2C97.9 125.03 104.21 124.63 109.13 121.3C113.35 118.52 115.06 112.21 112.32 107.86C111.27 106.08 109.47 104.92 107.7 103.94Z" fill="url(#paint16_linear)"/>
<path d="M52.75 159.7C63.96 167.69 77.34 172.56 91.07 173.65C88.77 177.55 85.99 181.14 83.65 185.02C70.02 182.95 56.89 177.61 45.67 169.58C48.31 166.49 50.7 163.21 52.75 159.7Z" fill="url(#paint17_linear)"/>
<path d="M68.2 119.19C69.54 114.67 75.98 113.32 79.14 116.71C82.51 120.59 87.17 123.14 92.17 124.2C89.56 128.27 86.69 132.16 83.91 136.11C80.27 134.9 76.86 133.04 73.87 130.64C70.66 127.83 66.47 123.9 68.2 119.19Z" fill="url(#paint18_linear)"/>
<path d="M25.38 149.55C28.25 146.57 30.33 142.81 33.86 140.51C39 147.92 45.42 154.44 52.75 159.7C50.7 163.21 48.31 166.49 45.67 169.58C42.99 167.72 40.5 165.6 37.98 163.53C33.22 159.42 29.14 154.61 25.28 149.67L25.38 149.55Z" fill="url(#paint19_linear)"/>
<defs>
<linearGradient id="paint0_linear" x1="83.94" y1="30.85" x2="83.94" y2="7.78076" gradientUnits="userSpaceOnUse">
<stop stop-color="#FDA700"/>
<stop offset="1" stop-color="#FFDE00"/>
</linearGradient>
<linearGradient id="paint1_linear" x1="118.79" y1="26.98" x2="118.79" y2="8.67999" gradientUnits="userSpaceOnUse">
<stop stop-color="#FDA700"/>
<stop offset="1" stop-color="#FFDE00"/>
</linearGradient>
<linearGradient id="paint2_linear" x1="176.48" y1="102.23" x2="176.48" y2="53.38" gradientUnits="userSpaceOnUse">
<stop stop-color="#FDA700"/>
<stop offset="1" stop-color="#FFDE00"/>
</linearGradient>
<linearGradient id="paint3_linear" x1="103.35" y1="186.052" x2="103.35" y2="169.48" gradientUnits="userSpaceOnUse">
<stop stop-color="#FDA700"/>
<stop offset="1" stop-color="#FFDE00"/>
</linearGradient>
<linearGradient id="paint4_linear" x1="23.09" y1="149.55" x2="23.09" y2="112.53" gradientUnits="userSpaceOnUse">
<stop stop-color="#FDA700"/>
<stop offset="1" stop-color="#FFDE00"/>
</linearGradient>
<linearGradient id="paint5_linear" x1="97.9289" y1="188.635" x2="97.9289" y2="12.4" gradientUnits="userSpaceOnUse">
<stop stop-color="#FD2E00"/>
<stop offset="1" stop-color="#FF9900"/>
</linearGradient>
<linearGradient id="paint6_linear" x1="97.9289" y1="188.635" x2="97.9289" y2="12.4" gradientUnits="userSpaceOnUse">
<stop stop-color="#FD2E00"/>
<stop offset="1" stop-color="#FF9900"/>
</linearGradient>
<linearGradient id="paint7_linear" x1="97.9289" y1="188.635" x2="97.9289" y2="12.4" gradientUnits="userSpaceOnUse">
<stop stop-color="#FD2E00"/>
<stop offset="1" stop-color="#FF9900"/>
</linearGradient>
<linearGradient id="paint8_linear" x1="97.9289" y1="188.635" x2="97.9289" y2="12.4" gradientUnits="userSpaceOnUse">
<stop stop-color="#FD2E00"/>
<stop offset="1" stop-color="#FF9900"/>
</linearGradient>
<linearGradient id="paint9_linear" x1="97.9289" y1="188.635" x2="97.9289" y2="12.4" gradientUnits="userSpaceOnUse">
<stop stop-color="#FD2E00"/>
<stop offset="1" stop-color="#FF9900"/>
</linearGradient>
<linearGradient id="paint10_linear" x1="97.9289" y1="188.635" x2="97.9289" y2="12.4" gradientUnits="userSpaceOnUse">
<stop stop-color="#FD2E00"/>
<stop offset="1" stop-color="#FF9900"/>
</linearGradient>
<linearGradient id="paint11_linear" x1="97.9289" y1="188.635" x2="97.9289" y2="12.4" gradientUnits="userSpaceOnUse">
<stop stop-color="#FD2E00"/>
<stop offset="1" stop-color="#FF9900"/>
</linearGradient>
<linearGradient id="paint12_linear" x1="97.9289" y1="188.635" x2="97.9289" y2="12.4" gradientUnits="userSpaceOnUse">
<stop stop-color="#FD2E00"/>
<stop offset="1" stop-color="#FF9900"/>
</linearGradient>
<linearGradient id="paint13_linear" x1="97.9289" y1="188.635" x2="97.9289" y2="12.4" gradientUnits="userSpaceOnUse">
<stop stop-color="#FD2E00"/>
<stop offset="1" stop-color="#FF9900"/>
</linearGradient>
<linearGradient id="paint14_linear" x1="97.9289" y1="188.635" x2="97.9289" y2="12.4" gradientUnits="userSpaceOnUse">
<stop stop-color="#FD2E00"/>
<stop offset="1" stop-color="#FF9900"/>
</linearGradient>
<linearGradient id="paint15_linear" x1="97.9289" y1="188.635" x2="97.9289" y2="12.4" gradientUnits="userSpaceOnUse">
<stop stop-color="#FD2E00"/>
<stop offset="1" stop-color="#FF9900"/>
</linearGradient>
<linearGradient id="paint16_linear" x1="97.9289" y1="188.635" x2="97.9289" y2="12.4" gradientUnits="userSpaceOnUse">
<stop stop-color="#FD2E00"/>
<stop offset="1" stop-color="#FF9900"/>
</linearGradient>
<linearGradient id="paint17_linear" x1="97.9289" y1="188.635" x2="97.9289" y2="12.4" gradientUnits="userSpaceOnUse">
<stop stop-color="#FD2E00"/>
<stop offset="1" stop-color="#FF9900"/>
</linearGradient>
<linearGradient id="paint18_linear" x1="97.9289" y1="188.635" x2="97.9289" y2="12.4" gradientUnits="userSpaceOnUse">
<stop stop-color="#FD2E00"/>
<stop offset="1" stop-color="#FF9900"/>
</linearGradient>
<linearGradient id="paint19_linear" x1="39.015" y1="169.58" x2="39.015" y2="140.51" gradientUnits="userSpaceOnUse">
<stop stop-color="#FDA700"/>
<stop offset="1" stop-color="#FFDE00"/>
</linearGradient>
</defs>
</svg>
