<svg xmlns="http://www.w3.org/2000/svg" xmlns:xlink="http://www.w3.org/1999/xlink" viewBox="0 0 48 48"><defs><linearGradient id="a"><stop offset="0" stop-color="#1f081d"/><stop offset="1" stop-color="#ebff00"/></linearGradient><linearGradient id="b"><stop offset="0" stop-color="#00ff56"/><stop offset="1" stop-color="#ebff00"/></linearGradient><linearGradient xlink:href="#a" id="c" x1="11.274" y1="-13.248" x2="39.274" y2="-13.248" gradientUnits="userSpaceOnUse"/><linearGradient xlink:href="#b" id="d" gradientUnits="userSpaceOnUse" x1="11.274" y1="-13.248" x2="39.274" y2="-13.248"/><linearGradient xlink:href="#b" id="e" gradientUnits="userSpaceOnUse" x1="11.274" y1="-13.248" x2="39.274" y2="-13.248"/><linearGradient xlink:href="#b" id="f" gradientUnits="userSpaceOnUse" x1="11.274" y1="-13.248" x2="39.274" y2="-13.248"/><linearGradient xlink:href="#b" id="g" gradientUnits="userSpaceOnUse" x1="11.274" y1="-13.248" x2="39.274" y2="-13.248"/></defs><g transform="translate(-8.536 41.264) scale(1.2922)" fill="url(#c)"><path d="M22.274-12.248c-.554 0-1 .446-1 1v6c0 .554.446 1 1 1h6c.554 0 1-.446 1-1v-6c0-.554-.446-1-1-1zm2 2h2v2h1l-2 2.5-2-2.5h1z" fill="url(#d)"/><path d="M22.274-14.248c-.554 0-1-.446-1-1v-6c0-.554.446-1 1-1h6c.554 0 1 .446 1 1v6c0 .554-.446 1-1 1zm2-2h2v-2h1l-2-2.5-2 2.5h1z" fill="url(#e)"/><path d="M19.274-5.248c0 .554-.446 1-1 1h-6c-.554 0-1-.446-1-1v-6c0-.554.446-1 1-1h6c.554 0 1 .446 1 1zm-2-2v-2h-2v-1l-2.5 2 2.5 2v-1z" fill="url(#f)"/><path d="M31.274-5.248c0 .554.446 1 1 1h6c.554 0 1-.446 1-1v-6c0-.554-.446-1-1-1h-6c-.554 0-1 .446-1 1zm2-2v-2h2v-1l2.5 2-2.5 2v-1z" fill="url(#g)"/></g></svg>