<svg xmlns="http://www.w3.org/2000/svg" xmlns:xlink="http://www.w3.org/1999/xlink" viewBox="0 0 48 48"><defs><linearGradient id="a" gradientUnits="userSpaceOnUse" x1="24" x2="24" y1="2" y2="46"><stop stop-color="#c331ff" offset="0"/><stop stop-color="#2c5eff" offset="1"/></linearGradient><linearGradient xlink:href="#a" id="b" x1=".25" y1="24" x2="47.75" y2="24" gradientUnits="userSpaceOnUse"/><linearGradient xlink:href="#a" id="c" x1="11" y1="24" x2="37" y2="24" gradientUnits="userSpaceOnUse"/></defs><path d="M47 24a23 23 0 0 1-23 23A23 23 0 0 1 1 24 23 23 0 0 1 24 1a23 23 0 0 1 23 23z" fill="none" stroke="url(#b)" stroke-width="1.5"/><path d="M11 11v26h26V11H11zm4 3h6v2h-2v7h2v2h-6v-2h2v-7h-2v-2zm13 0h2l-.006 7.082c.006 1.409-.53 2.36-1.023 2.89-.79.809-1.813.89-2.768 1.022l-.61-.012c-1.207-.138-2.059-.927-2.82-1.62l1.215-1.372c.4.414 1 .91 1.623.992.624.083 1.426.016 1.907-.392.482-.41.482-.965.482-1.627V14zM13 32h10v2H13v-2z" fill="url(#c)"/></svg>