<svg xmlns="http://www.w3.org/2000/svg" xmlns:xlink="http://www.w3.org/1999/xlink" viewBox="0 0 48 48"><defs><linearGradient id="a"><stop offset="0" stop-color="#ffc614"/><stop offset="1" stop-color="#ff5714"/></linearGradient><linearGradient xlink:href="#a" id="c" x1="16.093" y1="11.997" x2="32" y2="22" gradientUnits="userSpaceOnUse"/><linearGradient xlink:href="#a" id="d" gradientUnits="userSpaceOnUse" x1="16.093" y1="11.997" x2="32" y2="22"/><linearGradient xlink:href="#a" id="e" gradientUnits="userSpaceOnUse" x1="16.093" y1="11.997" x2="32" y2="22"/><linearGradient xlink:href="#a" id="b" x1="9.429" y1="34.941" x2="39.025" y2="34.941" gradientUnits="userSpaceOnUse"/></defs><path d="M10.441 24.235v8.34c0 6.892 5.17 12.06 13.785 12.06 8.617 0 13.787-5.168 13.787-12.06v-8.34" fill="none" stroke="url(#b)" stroke-width="2.023"/><g transform="translate(-17.018 -17.324) scale(1.72325)" fill="none" stroke="url(#c)" stroke-linecap="round" stroke-linejoin="round" stroke-width="1.174"><path d="M24 12v10h-8v-3c0-3 4-7 8-7" stroke="url(#d)"/><path d="M24 12v10h8v-3c0-3-4-7-8-7m0 0" stroke="url(#e)"/></g><path d="M24.34 13.924c1.184 0 2.15 1.445 2.15 3.225v8.599c0 1.78-.966 3.224-2.15 3.224s-2.15-1.444-2.15-3.224v-8.599c0-1.78.964-3.225 2.15-3.225m0 0" fill="#f50035"/></svg>