<svg xmlns="http://www.w3.org/2000/svg" xmlns:xlink="http://www.w3.org/1999/xlink" viewBox="0 0 48 48"><defs><linearGradient id="a"><stop offset="0" stop-color="#0051ff"/><stop offset="1" stop-color="#c500ff"/></linearGradient><linearGradient xlink:href="#a" id="b" x1="13.253" y1="13.738" x2="37.5" y2="24" gradientUnits="userSpaceOnUse"/><linearGradient xlink:href="#a" id="f" gradientUnits="userSpaceOnUse" x1="13.253" y1="13.738" x2="37.5" y2="24" gradientTransform="translate(-7.021 -5.756) scale(1.26995)"/><linearGradient xlink:href="#a" id="c" gradientUnits="userSpaceOnUse" x1="13.253" y1="13.738" x2="37.5" y2="24" gradientTransform="translate(-7.021 -5.756) scale(1.26995)"/><linearGradient xlink:href="#a" id="d" gradientUnits="userSpaceOnUse" x1="13.253" y1="13.738" x2="37.5" y2="24" gradientTransform="translate(-7.021 -5.756) scale(1.26995)"/><linearGradient xlink:href="#a" id="g" gradientUnits="userSpaceOnUse" x1="13.253" y1="13.738" x2="37.5" y2="24" gradientTransform="translate(-7.021 -5.756) scale(1.26995)"/><linearGradient xlink:href="#a" id="e" x1="9.488" y1="24.723" x2="15.838" y2="24.723" gradientUnits="userSpaceOnUse" gradientTransform="rotate(90 13.028 22.03)"/></defs><g transform="translate(-1.582 -1.214) scale(1.12517)" fill="none" stroke="url(#b)" stroke-linecap="round" stroke-linejoin="round"><path d="M9.488 8.214h27.94a2.54 2.54 0 0 1 2.54 2.54v22.859a2.54 2.54 0 0 1-2.54 2.54H9.487a2.54 2.54 0 0 1-2.54-2.54v-22.86a2.54 2.54 0 0 1 2.54-2.54m0 0" stroke="url(#c)" stroke-width="1.27"/><path d="M13.298 10.754h24.13v22.859h-24.13zm0 0" stroke="url(#d)" stroke-width="1.27"/><path d="M11.605 19.76v3.81c0 .7-.57 1.27-1.27 1.27-.7 0-1.27-.57-1.27-1.27v-3.81c0-.7.57-1.27 1.27-1.27.7 0 1.27.57 1.27 1.27m0 0" fill="url(#e)" stroke="none"/><path d="M20.347 24.817c-.43.019-.79.124-.96.293-.446.447-.445 2.244.453 3.142l12.572 12.574c.496.491 1.209.59 1.794 0l.9-.898a1.253 1.253 0 0 0 0-1.796L22.533 25.558c-.562-.561-1.472-.772-2.187-.741z" stroke="url(#f)" stroke-width="1.27"/><path d="M18.492 24.213c-.447.447.451 3.14 1.35 4.038l2.694-2.694c-.898-.897-3.592-1.795-4.044-1.344m0 0" stroke="url(#g)" stroke-width="1.27"/></g></svg>