<svg width="64" height="64" viewBox="0 0 64 64" fill="none" xmlns="http://www.w3.org/2000/svg">
<g clip-path="url(#clip0)">
<path d="M0.0784912 9.14428C0.307592 4.72627 3.98526 0.828498 8.35827 0.172199C10.5367 -0.123936 12.7474 0.0761551 14.9419 0.0241314C13.8205 1.52081 12.679 3.0215 11.8591 4.71027C10.3398 4.71827 8.69589 4.61422 7.34942 5.4546C6.10343 6.16293 5.21919 7.39149 4.89764 8.78412C4.86951 8.90818 4.82128 9.15229 4.79314 9.27634C4.50375 10.5129 4.47963 11.8135 4.03751 13.014C3.0367 14.7428 1.83895 16.3756 0.452286 17.8282C0.146819 14.9389 0.508557 12.0216 0.0784912 9.14428Z" fill="#0789FF"/>
<path d="M14.9419 0.024129C18.716 0.0201272 22.4861 0.0121236 26.2603 0.0281309C25.372 1.67688 24.2466 3.18157 23.1815 4.71827C19.4073 4.71827 15.6332 4.73427 11.8591 4.71026C12.679 3.02149 13.8205 1.52081 14.9419 0.024129Z" fill="#0B91FF"/>
<path d="M26.2602 0.0281753C30.2554 0.0161698 34.2506 0.0201715 38.2499 0.0201715C37.1244 1.59689 35.9709 3.1456 34.8495 4.72231C30.9588 4.72231 27.0722 4.72231 23.1815 4.71831C24.2466 3.18161 25.372 1.67693 26.2602 0.0281753Z" fill="#0F9AFF"/>
<path d="M38.2499 0.0201994C41.8995 0.0242012 45.545 0.012196 49.1945 0.0282032C48.2701 1.65695 47.1527 3.16563 46.0997 4.71834C42.3496 4.72634 38.5996 4.71834 34.8496 4.72234C35.971 3.14562 37.1245 1.59692 38.2499 0.0201994Z" fill="#14A4FF"/>
<path d="M49.1945 0.0281514C52.2532 0.0201478 55.5129 -0.283991 58.2701 1.31274C57.3618 2.58932 56.5016 3.90191 55.7018 5.25053C52.619 4.21406 49.291 4.93038 46.0997 4.71829C47.1527 3.16558 48.2701 1.65689 49.1945 0.0281514Z" fill="#18AEFF"/>
<path d="M14.745 47.4257C16.6502 47.1816 18.5794 47.3097 20.4926 47.3137C21.5578 47.2656 22.3375 48.094 22.8037 48.9504C23.0007 50.299 22.2491 51.8997 20.7418 51.9958C17.5706 52.1238 14.3913 52.0398 11.2201 52.0238C12.6912 50.7392 13.7482 49.0825 14.745 47.4257Z" fill="#18AEFF"/>
<path d="M58.2701 1.31268C60.2435 2.52924 61.8633 4.32606 62.6913 6.49905C63.0611 7.63556 63.254 8.8201 63.2821 10.0126C61.4734 11.7815 60.3159 14.0665 58.5755 15.8873C58.3263 13.006 59.2186 9.84457 57.7636 7.18736C57.225 6.403 56.5056 5.75871 55.7017 5.25048C56.5016 3.90186 57.3617 2.58926 58.2701 1.31268Z" fill="#1DB8FF"/>
<path opacity="0.27" d="M7.34942 5.45459C8.69589 4.61421 10.3398 4.71825 11.8591 4.71025C15.6332 4.73426 19.4074 4.71825 23.1815 4.71825C27.0722 4.72226 30.9588 4.72226 34.8495 4.72226C38.5996 4.71825 42.3496 4.72626 46.0996 4.71825C49.2909 4.93035 52.6189 4.21402 55.7017 5.2505C56.5056 5.75873 57.225 6.40302 57.7636 7.18738C56.2483 6.48306 54.7652 5.51062 53.0168 5.60666C40.4203 5.57865 27.8238 5.61066 15.2313 5.59465C13.2176 5.59465 11.1798 5.49061 9.19027 5.86678C7.33736 6.08688 6.4491 7.97574 4.89764 8.78411C5.21919 7.39147 6.10344 6.16291 7.34942 5.45459Z" fill="black"/>
<path opacity="0.27" d="M22.9042 12.7579C23.6839 13.8744 22.5625 15.2711 21.4412 15.5912C19.3632 16.2435 17.1526 15.6432 15.0304 15.9594C14.3913 16.5917 14.7812 17.7202 14.6767 18.5486C14.5601 20.2814 15.2353 22.5104 13.6276 23.7469C12.7916 24.5953 11.0834 24.6113 10.7659 23.2667C12.0762 23.6549 13.7482 23.1627 14.1059 21.718C14.3832 19.449 14.1582 17.1519 14.2185 14.8709C16.3969 14.8029 18.5834 14.9509 20.7619 14.8069C21.9034 14.7588 22.5384 13.6984 22.9042 12.7579Z" fill="black"/>
<path opacity="0.25" d="M62.6913 6.49908C63.061 7.00331 63.6599 7.44352 63.6479 8.12783C63.7644 10.801 64.0699 13.4623 63.9855 16.1395C63.9855 28.0049 63.9373 39.8583 63.9975 51.7197C63.9051 54.4249 63.7845 57.3542 62.1607 59.6473C60.3601 62.4005 57.1084 64.0773 53.8166 63.9973C39.2185 63.9933 24.6204 64.0053 10.0263 63.9933C7.23284 64.0733 4.54794 62.6727 2.73121 60.6117C2.3132 60.2355 2.16449 59.6913 2.05597 59.1671C2.81964 60.0275 3.67173 60.8198 4.62431 61.4761C7.87593 63.6371 11.9153 62.9368 15.593 63.0448C19.3229 63.0408 23.0488 63.0488 26.7787 63.0408C30.2595 63.0448 33.7402 63.0448 37.2209 63.0448C40.4564 63.0448 43.692 63.0448 46.9275 63.0448C49.4999 62.9848 52.0763 63.1769 54.6406 62.9328C59.3713 62.4045 63.2821 58.0626 63.2741 53.3164C63.3022 48.6023 63.2741 43.8921 63.2781 39.178C63.2901 34.2317 63.2861 29.2895 63.2741 24.3432C63.2942 19.565 63.2821 14.7909 63.2821 10.0127C63.254 8.82014 63.061 7.6356 62.6913 6.49908Z" fill="black"/>
<path d="M0.0785286 9.14423C0.508595 12.0215 0.146856 14.9389 0.452324 17.8282C1.83899 16.3755 3.03674 14.7428 4.03755 13.014C4.47967 11.8134 4.50379 10.5128 4.79318 9.27629C4.64045 24.123 4.84141 38.9778 4.76504 53.8246C4.43948 52.488 4.36713 51.1073 4.3189 49.7387C2.96841 51.5395 1.71439 53.4164 0.166953 55.0651C0.0262773 53.9646 -0.00989645 52.8561 0.00216148 51.7476C0.0584318 37.5452 -0.0701859 23.3427 0.0785286 9.14423Z" fill="#0D96FF"/>
<path d="M9.45153 12.5499C9.36712 11.1692 10.6613 9.99669 12.0239 10.1127C14.8454 10.1047 17.667 10.0767 20.4886 10.1288C21.9074 10.0967 22.868 11.4453 22.9042 12.7579C22.5384 13.6984 21.9034 14.7589 20.7619 14.8069C18.5834 14.9509 16.3969 14.8029 14.2184 14.8709C14.1581 17.1519 14.3832 19.449 14.1059 21.718C13.7482 23.1627 12.0761 23.6549 10.7658 23.2667C10.0142 22.7225 9.37516 21.9101 9.44751 20.9337C9.43143 18.1404 9.42741 15.3431 9.45153 12.5499Z" fill="#0C94FF"/>
<path d="M40.6052 11.7695C40.8986 10.7691 41.9115 10.0728 42.9525 10.1208C46.0393 10.0928 49.1261 10.0848 52.213 10.1408L52.0482 10.2849C50.6334 11.5014 49.4075 13.0181 48.8006 14.7989C46.7146 14.907 44.6165 14.899 42.5264 14.8229C41.1036 14.7389 40.1269 13.0701 40.6052 11.7695Z" fill="#19AEFF"/>
<path d="M58.5755 15.8873C60.3159 14.0665 61.4734 11.7814 63.2821 10.0126C63.2821 14.7908 63.2942 19.565 63.2741 24.3432C61.3368 25.8799 60.4686 28.321 58.5755 29.9097C58.5675 25.2356 58.5715 20.5614 58.5755 15.8873Z" fill="#21C1FF"/>
<path d="M48.8006 14.7989C49.4075 13.0181 50.6334 11.5014 52.0482 10.2849C52.9485 10.2569 53.5555 11.1653 53.8127 11.9336C53.877 14.935 53.869 17.9444 53.8328 20.9457C53.9252 22.2623 52.7677 23.4669 51.4413 23.4148C50.6495 23.4389 50.0265 22.8946 49.4276 22.4584C48.5313 19.9973 49.5683 17.2801 48.8006 14.7989Z" fill="#1DB7FF"/>
<path opacity="0.21" d="M53.8126 11.9335C54.2829 12.1096 54.4959 12.4378 54.4597 12.914C54.524 15.5912 54.4557 18.2724 54.4959 20.9496C54.4437 21.8941 54.6004 23.0226 53.8327 23.7349C52.4862 25.0395 49.6446 24.5433 49.4276 22.4583C50.0264 22.8945 50.6494 23.4388 51.4412 23.4148C52.7676 23.4668 53.9252 22.2622 53.8327 20.9456C53.8689 17.9443 53.8769 14.9349 53.8126 11.9335Z" fill="black"/>
<path d="M58.5756 29.9097C60.4687 28.321 61.3369 25.8799 63.2742 24.3432C63.2862 29.2895 63.2903 34.2317 63.2782 39.1779C61.3891 40.8707 60.2637 43.1838 58.5756 45.0446C58.5676 40.0023 58.5676 34.956 58.5756 29.9097Z" fill="#26CAFF"/>
<path d="M9.47149 40.9468C9.47149 38.6897 12.8638 37.9254 13.8968 39.9103C14.9217 42.2794 13.4868 45.1327 14.7448 47.4257C13.748 49.0825 12.691 50.7392 11.2199 52.0238C10.6692 51.6917 10.1467 51.3195 9.66442 50.8993C9.19014 47.6178 9.52375 44.2563 9.47149 40.9468Z" fill="#14A5FF"/>
<path d="M0.16687 55.0652C1.7143 53.4164 2.96833 51.5396 4.31882 49.7388C4.36705 51.1074 4.4394 52.488 4.76496 53.8246C5.05435 55.4214 6.0431 56.798 7.39359 57.6824C6.48924 58.959 5.5648 60.2235 4.62428 61.4761C3.67171 60.8198 2.81961 60.0275 2.05595 59.1671C1.13954 57.9505 0.560762 56.5219 0.16687 55.0652Z" fill="#14A5FF"/>
<path d="M49.102 40.9548C49.1181 39.4781 50.7781 38.3576 52.1688 38.8458C53.2419 39.1459 53.9292 40.2424 53.8689 41.3309C53.881 43.596 53.8488 45.861 53.877 48.126C53.8528 49.0585 53.9694 50.0469 53.5393 50.9153C53.053 51.5796 52.2853 52.0518 51.4372 52.0278C48.6157 52.0758 45.7901 52.0678 42.9685 52.0278C42.0481 52.0918 41.3287 51.4876 40.7218 50.8873C40.0465 49.4706 40.8624 47.5017 42.5144 47.3377C44.6969 47.2256 46.8874 47.3337 49.0699 47.2937C49.098 45.1807 49.0216 43.0677 49.102 40.9548Z" fill="#25C8FF"/>
<path d="M58.5755 45.0446C60.2636 43.1837 61.389 40.8707 63.2781 39.1779C63.2741 43.8921 63.3022 48.6022 63.2741 53.3164C63.2821 58.0625 59.3713 62.4045 54.6406 62.9327C52.0763 63.1768 49.4999 62.9848 46.9276 63.0448C48.0288 61.4601 49.1904 59.9234 50.2917 58.3426C51.6342 58.3266 52.9887 58.4307 54.3191 58.2226C56.6503 57.8144 58.5112 55.6534 58.5474 53.2923C58.6157 50.5431 58.5474 47.7938 58.5755 45.0446Z" fill="#2AD4FF"/>
<path opacity="0.2" d="M54.0378 47.7259C54.1423 45.4649 53.6399 43.1118 54.4116 40.9308C54.5683 44.1362 54.512 47.3497 54.4799 50.5592C54.5281 51.9558 53.2419 53.2524 51.8271 53.1644C49.0096 53.1964 46.184 53.1604 43.3665 53.1644C42.1004 53.2124 40.7419 52.2079 40.7218 50.8873C41.3287 51.4876 42.0482 52.0919 42.9686 52.0278C45.7901 52.0679 48.6157 52.0759 51.4373 52.0278C52.2853 52.0519 53.053 51.5796 53.5394 50.9153C54.3231 50.0509 53.9413 48.7744 54.0378 47.7259Z" fill="black"/>
<path opacity="0.2" d="M22.8037 48.9504C24.4074 50.223 23.0851 53.1243 21.1156 53.1203C18.2257 53.2524 15.3238 53.1323 12.4299 53.1684C11.1075 53.2484 9.86558 52.1839 9.66461 50.8993C10.1469 51.3195 10.6694 51.6917 11.2201 52.0238C14.3913 52.0398 17.5706 52.1239 20.7418 51.9958C22.2491 51.8998 23.0007 50.2991 22.8037 48.9504Z" fill="black"/>
<path d="M7.39363 57.6824C8.33415 58.1106 9.35104 58.3587 10.384 58.3427C13.2257 58.3547 16.0633 58.3307 18.9049 58.3427C17.8438 59.9395 16.7385 61.5082 15.593 63.0449C11.9154 62.9368 7.87595 63.6371 4.62433 61.4762C5.56485 60.2236 6.48929 58.959 7.39363 57.6824Z" fill="#19AFFF"/>
<path d="M18.9049 58.3428C22.5705 58.3468 26.2321 58.3348 29.8977 58.3468C29.0135 60.0116 27.7635 61.4402 26.7788 63.0409C23.0488 63.049 19.3229 63.0409 15.593 63.0449C16.7385 61.5082 17.8438 59.9395 18.9049 58.3428Z" fill="#1EBAFF"/>
<path d="M29.8978 58.3467C33.3504 58.3387 36.807 58.3387 40.2596 58.3427C39.3793 59.9915 38.27 61.5002 37.221 63.0449C33.7403 63.0449 30.2595 63.0449 26.7788 63.0409C27.7635 61.4401 29.0135 60.0115 29.8978 58.3467Z" fill="#22C3FF"/>
<path d="M40.2595 58.3427C43.6036 58.3427 46.9477 58.3347 50.2917 58.3427C49.1905 59.9235 48.0289 61.4602 46.9276 63.0449C43.692 63.0449 40.4565 63.0449 37.2209 63.0449C38.27 61.5002 39.3793 59.9915 40.2595 58.3427Z" fill="#26CCFF"/>
</g>
<defs>
<clipPath id="clip0">
<rect width="64" height="64" fill="white"/>
</clipPath>
</defs>
</svg>
