<svg xmlns="http://www.w3.org/2000/svg" xmlns:xlink="http://www.w3.org/1999/xlink" viewBox="0 0 48 48"><defs><linearGradient gradientTransform="translate(-82.668 -5.788)" id="a" x2="0" y1="1" y2="47" gradientUnits="userSpaceOnUse"><stop offset="0" stop-color="#00e5ff"/><stop offset="1" stop-color="#0079cd"/></linearGradient><linearGradient xlink:href="#a" id="b" x1="11.625" y1="11.92" x2="36.002" y2="37.706" gradientUnits="userSpaceOnUse" gradientTransform="translate(-14.983 -16.633) scale(1.63277)"/></defs><path d="M22.57 2.96v6.532h3.266c.902 0 1.633.73 1.633 1.632v22.043a5.702 5.702 0 0 1-5.715 5.714 5.702 5.702 0 0 1-5.714-5.714v-1.633a5.715 5.715 0 0 0-5.715-5.715 5.715 5.715 0 0 0-5.715 5.715c0 7.236 5.826 13.878 13.062 13.878h6.531a14.663 14.663 0 0 0 14.695-14.694V11.124c0-.901.731-1.632 1.633-1.632h3.266V2.96z" fill="none" stroke="url(#b)" stroke-width="1.8"/></svg>