<?xml version="1.0" encoding="UTF-8" ?>
<!DOCTYPE svg PUBLIC "-//W3C//DTD SVG 1.1//EN" "http://www.w3.org/Graphics/SVG/1.1/DTD/svg11.dtd">
<svg width="192pt" height="192pt" viewBox="0 0 192 192" version="1.1" xmlns="http://www.w3.org/2000/svg">
<g id="#ff4a3eff">
<path fill="#ff4a3e" opacity="1.00" d=" M 63.92 27.07 C 76.66 21.91 90.65 20.01 104.32 21.27 C 101.85 24.67 99.40 28.08 97.04 31.56 C 98.45 32.00 99.87 32.45 101.30 32.85 C 85.62 31.94 69.55 35.69 56.31 44.25 C 35.66 57.06 22.19 80.46 21.30 104.73 C 17.27 109.37 13.91 114.53 10.15 119.39 C 7.93 102.37 10.76 84.73 18.42 69.36 C 27.70 50.31 44.22 34.90 63.92 27.07 Z" />
</g>
<g id="#ff593dff">
<path fill="#ff593d" opacity="1.00" d=" M 104.32 21.27 C 113.50 22.23 122.51 24.62 130.97 28.30 C 128.36 31.42 125.92 34.67 123.67 38.06 C 116.54 35.17 108.95 33.55 101.30 32.85 C 99.87 32.45 98.45 32.00 97.04 31.56 C 99.40 28.08 101.85 24.67 104.32 21.27 Z" />
</g>
<g id="#ff643bff">
<path fill="#ff643b" opacity="1.00" d=" M 123.67 38.06 C 125.92 34.67 128.36 31.42 130.97 28.30 C 137.08 31.18 143.05 34.46 148.32 38.70 C 149.62 39.72 150.35 41.25 150.96 42.74 C 150.41 45.20 149.43 48.00 146.80 48.88 C 144.06 50.16 141.41 48.27 139.27 46.73 C 134.47 43.19 129.20 40.30 123.67 38.06 Z" />
</g>
<g id="#00000042">
<path fill="#000000" opacity="0.26" d=" M 56.31 44.25 C 69.55 35.69 85.62 31.94 101.30 32.85 C 108.95 33.55 116.54 35.17 123.67 38.06 C 129.20 40.30 134.47 43.19 139.27 46.73 C 141.41 48.27 144.06 50.16 146.80 48.88 C 149.43 48.00 150.41 45.20 150.96 42.74 C 154.49 48.29 146.30 54.52 141.67 50.21 C 120.09 33.55 89.13 30.54 64.71 42.63 C 53.00 48.58 42.54 57.27 35.34 68.33 C 25.63 83.08 20.86 101.26 23.11 118.86 C 23.72 123.76 25.34 128.48 25.84 133.40 C 22.21 124.33 21.00 114.45 21.30 104.73 C 22.19 80.46 35.66 57.06 56.31 44.25 Z" />
<path fill="#000000" opacity="0.26" d=" M 130.40 75.41 C 132.75 76.85 130.77 79.29 129.97 81.02 C 123.50 92.22 116.90 103.35 110.59 114.64 C 108.12 118.94 104.41 123.65 98.97 123.68 C 94.38 124.27 88.25 122.89 86.97 117.75 C 89.71 120.19 93.21 121.86 96.97 121.44 C 102.16 121.70 106.29 117.74 108.56 113.44 C 115.72 100.70 123.23 88.15 130.40 75.41 Z" />
<path fill="#000000" opacity="0.26" d=" M 180.18 87.45 C 182.58 90.00 182.39 93.73 183.00 96.96 C 184.50 110.01 184.02 123.48 179.98 136.06 C 176.18 148.55 169.48 160.13 160.61 169.70 C 158.43 171.85 155.27 174.18 152.08 172.89 C 150.48 172.52 149.84 170.92 149.07 169.67 C 151.86 171.12 155.50 171.30 157.68 168.69 C 178.66 147.95 186.81 115.99 180.18 87.45 Z" />
</g>
<g id="#ff7639ff">
<path fill="#ff7639" opacity="1.00" d=" M 155.36 59.02 C 156.15 54.50 162.78 52.52 165.59 56.40 C 172.61 65.55 177.19 76.36 180.18 87.45 C 177.10 91.74 174.00 96.05 170.28 99.82 C 168.79 88.06 164.91 76.53 158.27 66.66 C 156.86 64.34 154.60 61.98 155.36 59.02 Z" />
</g>
<g id="#ff663bff">
<path fill="#ff663b" opacity="1.00" d=" M 125.44 75.58 C 127.10 74.48 128.88 73.56 130.87 73.23 C 130.75 73.77 130.51 74.87 130.40 75.41 C 123.23 88.15 115.72 100.70 108.56 113.44 C 106.29 117.74 102.16 121.70 96.97 121.44 C 93.21 121.86 89.71 120.19 86.97 117.75 C 82.01 112.32 82.30 102.87 88.51 98.51 C 100.70 90.68 113.18 83.30 125.44 75.58 Z" />
</g>
<g id="#ff8138ff">
<path fill="#ff8138" opacity="1.00" d=" M 170.28 99.82 C 174.00 96.05 177.10 91.74 180.18 87.45 C 186.81 115.99 178.66 147.95 157.68 168.69 C 155.50 171.30 151.86 171.12 149.07 169.67 C 146.70 167.05 146.47 162.71 149.32 160.34 C 164.98 144.68 172.49 121.75 170.28 99.82 Z" />
</g>
<g id="#ff513eff">
<path fill="#ff513e" opacity="1.00" d=" M 10.15 119.39 C 13.91 114.53 17.27 109.37 21.30 104.73 C 21.00 114.45 22.21 124.33 25.84 133.40 C 26.24 134.51 26.63 135.63 27.01 136.75 C 24.27 140.43 21.61 144.19 19.15 148.07 C 14.63 139.08 11.49 129.36 10.15 119.39 Z" />
</g>
<g id="#ff5d3cff">
<path fill="#ff5d3c" opacity="1.00" d=" M 19.15 148.07 C 21.61 144.19 24.27 140.43 27.01 136.75 C 30.71 145.50 35.78 153.75 42.63 160.39 C 45.56 162.85 45.43 168.06 42.02 170.03 C 39.54 171.61 36.12 170.94 34.20 168.79 C 27.96 162.87 23.13 155.64 19.15 148.07 Z" />
</g>
</svg>
