<svg xmlns="http://www.w3.org/2000/svg" xmlns:xlink="http://www.w3.org/1999/xlink" viewBox="0 0 48 48"><defs><linearGradient id="a"><stop offset="0" stop-color="#ff0030"/><stop offset="1" stop-color="#ff36a5"/></linearGradient><linearGradient xlink:href="#a" id="b" x1="-44.09" y1="6.73" x2="-13.311" y2="40.24" gradientUnits="userSpaceOnUse"/><linearGradient xlink:href="#a" id="f" gradientUnits="userSpaceOnUse" x1="-44.09" y1="6.73" x2="-13.311" y2="40.24" gradientTransform="translate(6.448 -1.645) scale(1.20825)"/><linearGradient xlink:href="#a" id="e" gradientUnits="userSpaceOnUse" x1="-44.09" y1="6.73" x2="-13.311" y2="40.24" gradientTransform="translate(7.921 -3.622) scale(1.25917)"/><linearGradient xlink:href="#a" id="d" gradientUnits="userSpaceOnUse" x1="-44.09" y1="6.73" x2="-13.311" y2="40.24" gradientTransform="translate(7.921 -3.622) scale(1.25917)"/><linearGradient xlink:href="#a" id="c" gradientUnits="userSpaceOnUse" x1="-44.09" y1="6.73" x2="-13.311" y2="40.24" gradientTransform="translate(7.921 -3.622) scale(1.25917)"/></defs><g stroke="url(#b)" fill="none" stroke-width="2" stroke-linecap="round" stroke-linejoin="round" transform="translate(53.476 1.83)"><path d="M-35.98 14.242h3.777m-7.555 5.036h7.555m-13.85 5.037h13.85m-18.887 5.037h18.887m-13.85 5.036h13.85m-7.555 5.037h7.555" stroke="url(#c)"/><path d="M-20.87 1.65h-15.11l3.777 5.036 3.778 5.037 3.777-5.037z" stroke="url(#d)"/><path d="M-21.848 15.524c-.619.037-1.284.649-1.283 1.327l-.023 20.008c0 .903 1.182 1.69 1.859 1.153l12.741-10.038c.68-.53.68-1.774 0-2.307l-12.718-9.97a.834.834 0 0 0-.576-.173z" stroke="url(#e)"/><path d="M-28.51 44.123V11.469" stroke="url(#f)"/></g></svg>