<svg xmlns="http://www.w3.org/2000/svg" xmlns:xlink="http://www.w3.org/1999/xlink" viewBox="0 0 48 48"><defs><linearGradient id="a"><stop offset="0" stop-color="#ffc100"/><stop offset="1" stop-color="#ff0069"/></linearGradient><linearGradient xlink:href="#a" id="e" x1="13.999" y1="27" x2="34.001" y2="27" gradientUnits="userSpaceOnUse" gradientTransform="matrix(1.43791 0 0 1.35061 -8.782 -6.62)"/><linearGradient xlink:href="#a" id="b" x1="14" y1="18.5" x2="34.001" y2="18.5" gradientUnits="userSpaceOnUse" gradientTransform="matrix(1.43791 0 0 1.35061 -8.782 -6.62)"/><linearGradient xlink:href="#a" id="d" x1="14.162" y1="11.541" x2="33.838" y2="11.541" gradientUnits="userSpaceOnUse" gradientTransform="matrix(1.07437 0 0 1.00914 -.057 1.15)"/><linearGradient xlink:href="#a" id="c" x1="15.174" y1="12.796" x2="36.282" y2="12.796" gradientUnits="userSpaceOnUse"/></defs><path d="M12.624 16.341h26.21c.7 0 1.275.538 1.275 1.198v1.657c0 .66-.573 1.198-1.276 1.198H12.624c-.701 0-1.275-.537-1.275-1.198V17.54c0-.66.572-1.198 1.275-1.198" fill="none" stroke="url(#b)" stroke-width="1.394"/><path d="M28.604 28.497c0 1.492-1.287 2.7-2.876 2.7s-2.876-1.208-2.876-2.7c0-1.493 1.287-2.702 2.876-2.702s2.876 1.21 2.876 2.702" fill="#2f2f2f"/><path d="M24.29 29.847L21.414 36.6h8.628l-2.876-6.753" fill="#2f2f2f"/><path d="M21.998 35.25l-.584 1.35h8.628l-.584-1.35" fill="#ffc100"/><path d="M15.663 17.692c0-5.403 2.876-10.805 10.065-10.805 7.19 0 10.065 5.402 10.065 10.805 0 1.35-1.437 1.35-1.437 0 0-4.052-2.876-9.455-8.628-9.455-5.752 0-8.627 5.403-8.627 9.455 0 1.35-1.438 1.35-1.438 0" fill="url(#c)" stroke="url(#d)" stroke-width=".977" stroke-linecap="square"/><path d="M18.539 18.367c0 .374-.967.675-2.157.675s-2.157-.3-2.157-.675c0-.374.966-.675 2.157-.675 1.19 0 2.157.3 2.157.675m18.692 0c0 .374-.966.675-2.156.675-1.191 0-2.157-.3-2.157-.675 0-.374.966-.675 2.157-.675 1.19 0 2.156.3 2.156.675" fill="#2f2f2f"/><path d="M40.107 19.042l.002 20.413c0 .66-.573 1.198-1.276 1.198H12.624c-.701 0-1.275-.537-1.275-1.198l-.001-20.413" fill="none" stroke="url(#e)" stroke-width="1.394"/></svg>