<svg xmlns="http://www.w3.org/2000/svg" xmlns:xlink="http://www.w3.org/1999/xlink" viewBox="0 0 48 48"><defs><linearGradient id="a"><stop stop-color="#affe00" offset="0"/><stop stop-color="#00ceff" offset="1"/></linearGradient><linearGradient xlink:href="#a" id="b" x1="8" y1="24" x2="39.567" y2="24" gradientUnits="userSpaceOnUse" gradientTransform="translate(1.25 .094) scale(1.02153)"/></defs><path d="M8.177 5.555v38.11h5.643V31.882l5.611-5.204 14.524 16.987h7.713l-18.96-21.877L40.202 5.563h-7.71L13.818 22.767V5.562H8.176" fill="none" stroke="url(#b)" stroke-width="1.736" stroke-linecap="round" stroke-linejoin="round"/><path d="M28.12 15.936v.549c1.25 0 1.655.05 2.153.759l4.38 6.464-3.95 5.8c-.973 1.414-2.445 1.44-2.88 1.44v.549h1.32c-.451 2.829-1.011 4.426-4.648 4.426h-3.148c-.904 0-.945-.114-.945-.9v-6.377h2.135c2.141 0 2.348.79 2.348 2.714h.367v-5.93h-.367c0 1.89-.207 2.667-2.348 2.667h-2.135V22.44c0-.766.04-.882.946-.882h3.102c3.51 0 3.922 1.402 4.238 4.414h.411l-.544-5.045h-9.897L18.3 15.97H5.2l-.384 5.044h.407c.29-3.78.618-4.442 4.131-4.442h1.252c.437.07.437.35.437.872v12.418c0 .829-.07 1.076-1.982 1.076h-.647v.55h6.677v-.55h-.647c-1.883 0-1.951-.252-1.951-1.076v-12.42c0-.506 0-.771.411-.87h1.244c3.437 0 3.811.655 4.11 4.35h-1.193v.632c1.609 0 1.866 0 1.866 1.023v12.31c0 1.025-.258 1.025-1.866 1.025v.549h11.799l.71-4.964h2.413v-.55c-.699-.068-.902-.523-.902-.889 0-.297.111-.46.225-.619l3.634-5.329 3.94 5.834c.179.252.179.32.179.39 0 .183-.2.571-.997.619v.554h4.857v-.555c-1.454 0-1.68-.11-2.128-.755l-4.99-7.346 3.353-4.876c.337-.475 1.026-1.461 2.885-1.49v-.55H37.87v.55c.726.067.91.525.91.892 0 .276-.114.46-.277.68l-2.993 4.37-3.356-4.938c-.16-.25-.182-.319-.182-.388 0-.208.246-.597 1.001-.623v-.549H28.12z" opacity=".1" stroke-width="1.011"/><path d="M16.837 14.503h-13.1l-.384 5.045h.407c.29-3.778.617-4.441 4.133-4.441h1.253c.435.068.435.35.435.871v12.418c0 .83-.068 1.076-1.982 1.076h-.646v.55h6.675v-.55h-.646c-1.884 0-1.951-.252-1.951-1.076V15.978c0-.505 0-.772.41-.87h1.244c3.468 0 3.817.658 4.116 4.44h.395" fill="#f9f9f9" stroke-width="1.011"/><path d="M28.225 29.235h-.406c-.498 3.384-.797 5.222-4.788 5.222h-3.148c-.905 0-.945-.114-.945-.899V27.18h2.135c2.142 0 2.35.79 2.35 2.714h.364v-5.931h-.366c0 1.89-.206 2.667-2.347 2.667h-2.136v-5.656c0-.766.04-.882.945-.882h3.104c3.51 0 3.922 1.403 4.236 4.412h.412l-.544-5.044h-11.49v.63c1.61 0 1.866 0 1.866 1.025v12.31c0 1.024-.257 1.024-1.866 1.024v.55H27.4" fill="#f9f9f9" stroke-width="1.011"/><path d="M34.338 21.392l3.355-4.878c.338-.475 1.025-1.46 2.886-1.488v-.55h-4.173v.549c.728.07.91.525.91.892 0 .276-.112.46-.275.682l-2.993 4.367-3.357-4.933c-.158-.253-.184-.322-.184-.393 0-.206.248-.593 1.003-.616v-.55h-4.855v.549c1.248 0 1.655.045 2.153.756l4.379 6.464-3.95 5.8c-.973 1.415-2.446 1.442-2.88 1.442v.549h4.168v-.55c-.7-.067-.905-.525-.905-.892 0-.296.114-.459.23-.617l3.629-5.325 3.945 5.829c.178.25.178.32.178.39 0 .183-.203.572-.998.619v.556h4.857v-.556c-1.455 0-1.683-.108-2.132-.755" fill="#f9f9f9" stroke-width="1.011"/></svg>