<svg xmlns="http://www.w3.org/2000/svg" xmlns:xlink="http://www.w3.org/1999/xlink" viewBox="0 0 48 48"><defs><linearGradient id="a"><stop stop-color="#2f4bf2" offset="0"/><stop stop-color="#2effdb" offset="1"/></linearGradient><linearGradient xlink:href="#a" id="d" x1="11.5" y1="25.81" x2="36.5" y2="25.81" gradientUnits="userSpaceOnUse" gradientTransform="translate(-9.651 -7.116) scale(1.4293)"/><linearGradient xlink:href="#a" id="c" x1="11.265" y1="24.982" x2="36.5" y2="24.982" gradientUnits="userSpaceOnUse" gradientTransform="translate(-9.651 -7.116) scale(1.4293)"/><linearGradient xlink:href="#a" id="b" x1="12" y1="17.619" x2="36" y2="17.619" gradientUnits="userSpaceOnUse" gradientTransform="translate(-9.723 -7.99) scale(1.4293)"/></defs><path d="M24.58 6.304L7.2 17.99l17.533 11.88 17.434-11.913z" fill="url(#b)" paint-order="markers stroke fill"/><path d="M10.359 10.036l.073 10.489 14.3 9.345 14.359-9.636-.147-10.198z" fill="none" stroke="#a4a4a4" stroke-width="1.143" stroke-linecap="round" stroke-linejoin="round" paint-order="markers stroke fill"/><path d="M41.804 18.61l.072 22.753-34.11-.187z" fill="none" stroke="url(#c)" stroke-width="1.429" stroke-linecap="square" stroke-linejoin="round" paint-order="stroke fill markers"/><path d="M7.5 18.61l34.304 22.573-34.037-.007S7.53 25.404 7.5 18.61z" fill="none" stroke="url(#d)" stroke-width="1.429" stroke-linecap="square" stroke-linejoin="round" paint-order="stroke fill markers"/><rect x="13.218" y="12.894" width="11.434" height="1.429" ry=".715" fill="#c3cacd"/><rect x="13.218" y="15.752" width="17.152" height="1.429" ry=".715" fill="#c3cacd"/><rect x="13.218" y="18.611" width="22.869" height="1.429" ry=".715" fill="#c3cacd"/></svg>