<svg xmlns="http://www.w3.org/2000/svg" xmlns:xlink="http://www.w3.org/1999/xlink" viewBox="0 0 48 48"><defs><linearGradient id="a"><stop offset="0" stop-color="#0087ff"/><stop offset="1" stop-color="#1fff00"/></linearGradient><linearGradient xlink:href="#a" id="b" x1="11.502" y1="23.997" x2="36.5" y2="23.997" gradientUnits="userSpaceOnUse" gradientTransform="translate(-8.848 -7.54) scale(1.34897)"/><linearGradient xlink:href="#a" id="c" x1="11.502" y1="23.997" x2="36.5" y2="23.997" gradientUnits="userSpaceOnUse" gradientTransform="translate(-10.32 -5.864) scale(1.34897)"/></defs><path d="M17.565 20.054a7.772 7.772 0 0 0-.35.32c-2.669 2.646-2.963 6.772-.888 9.756l-8.984 8.984 1.907 1.908 8.979-8.99c2.962 2.063 7.06 1.796 9.714-.84l-10.378-11.14z" fill="none" stroke="url(#b)" stroke-width="1.889" stroke-linecap="round" stroke-linejoin="round"/><path d="M39.038 7.626l-8.986 8.976c-2.96-2.061-7.06-1.786-9.712.848l10.378 11.146c.124-.104.237-.214.356-.327 2.663-2.644 2.958-6.772.885-9.753L40.94 9.53l-1.902-1.902" fill="none" stroke="url(#c)" stroke-width="1.889" stroke-linecap="round" stroke-linejoin="round"/></svg>