<svg id="Capa_1" enable-background="new 0 0 512 512" height="512" viewBox="0 0 512 512" width="512" xmlns="http://www.w3.org/2000/svg" xmlns:xlink="http://www.w3.org/1999/xlink"><linearGradient id="SVGID_1_" gradientUnits="userSpaceOnUse" x1="256" x2="256" y1="451" y2="61"><stop offset="0" stop-color="#fd5900"/><stop offset="1" stop-color="#ffde00"/></linearGradient><g><g><path d="m467 121h-111.729l-25.854-51.708c-2.542-5.082-7.735-8.292-13.417-8.292h-120c-5.682 0-10.875 3.21-13.417 8.292l-25.854 51.708h-66.729v-15c0-8.284-6.716-15-15-15s-15 6.716-15 15v15h-15c-24.813 0-45 20.187-45 45v240c0 24.813 20.187 45 45 45h422c24.813 0 45-20.187 45-45v-240c0-24.813-20.187-45-45-45zm15 285c0 8.271-6.729 15-15 15h-422c-8.271 0-15-6.729-15-15v-240c0-8.271 6.729-15 15-15h121c5.682 0 10.875-3.21 13.417-8.292l25.854-51.708h101.459l25.854 51.708c2.541 5.082 7.734 8.292 13.416 8.292h121c8.271 0 15 6.729 15 15zm-226-225c-57.897 0-105 47.103-105 105s47.103 105 105 105 105-47.103 105-105-47.103-105-105-105zm0 180c-41.355 0-75-33.645-75-75s33.645-75 75-75 75 33.645 75 75-33.645 75-75 75zm0-120c-24.813 0-45 20.187-45 45s20.187 45 45 45 45-20.187 45-45-20.187-45-45-45zm0 60c-8.271 0-15-6.729-15-15s6.729-15 15-15 15 6.729 15 15-6.729 15-15 15zm-30-150h60c8.284 0 15-6.716 15-15s-6.716-15-15-15h-60c-8.284 0-15 6.716-15 15s6.716 15 15 15zm211 30h-30c-8.284 0-15 6.716-15 15s6.716 15 15 15h30c8.284 0 15-6.716 15-15s-6.716-15-15-15z" fill="url(#SVGID_1_)"/></g></g></svg>