<svg xmlns="http://www.w3.org/2000/svg" xmlns:xlink="http://www.w3.org/1999/xlink" height="64" width="64"><defs><linearGradient gradientUnits="userSpaceOnUse" y2="32" x2="-992.362" y1="31.763" x1="-1052.362" id="c" xlink:href="#a"/><linearGradient id="a"><stop offset="0" stop-opacity=".464"/><stop offset="1" stop-opacity=".592"/></linearGradient><linearGradient gradientTransform="translate(2.776 2.624) scale(.91801)" gradientUnits="userSpaceOnUse" y2="8.047" x2="32.144" y1="56.263" x1="32.144" id="d" xlink:href="#b"/><linearGradient id="b"><stop offset="0" stop-color="#19bc78"/><stop offset="1" stop-color="#1ca0ff"/></linearGradient></defs><g transform="translate(0 -988.362)" color="#000"><circle style="isolation:auto;mix-blend-mode:normal;solid-color:#000;solid-opacity:1" cx="-1020.362" cy="32" r="28" transform="rotate(-90)" overflow="visible" stroke-linecap="round" stroke-width="2" stroke="url(#c)" fill="none"/><path style="isolation:auto;mix-blend-mode:normal;solid-color:#000;solid-opacity:1" d="M33.07 10v7.053a15 15 0 0 1 2.059.283l1.826-6.81A22.032 22.032 0 0 0 33.07 10zm5.659.998l-1.834 6.84a15 15 0 0 1 1.908.81l3.556-6.162a22.032 22.032 0 0 0-3.63-1.488zM43.95 13.4l-3.562 6.17a15 15 0 0 1 1.617 1.278l5.049-5.047a22.032 22.032 0 0 0-3.104-2.4zm-12.717 2.64a16 16 0 0 0-2.336.267l.262.976a15 15 0 0 1 2.074-.256v-.988zm-4.113.73a16 16 0 0 0-2.183.896l.496.86a15 15 0 0 1 1.949-.778l-.262-.978zm21.227.332l-5.053 5.054a15 15 0 0 1 1.25 1.631l6.191-3.576a22.032 22.032 0 0 0-2.388-3.11zm-25.01 1.464a16 16 0 0 0-1.895 1.428l.713.711a15 15 0 0 1 1.676-1.283l-.494-.856zm-3.195 2.721a16 16 0 0 0-1.465 1.873l.863.498a15 15 0 0 1 1.307-1.666l-.705-.705zm31.52.51l-6.212 3.586a15 15 0 0 1 .768 1.9l6.955-1.865a22.032 22.032 0 0 0-1.512-3.621zm-33.92 2.943a16 16 0 0 0-.903 2.207l.963.258a15 15 0 0 1 .82-1.957l-.88-.508zm35.894 2.455l-6.944 1.86a15 15 0 0 1 .276 2.027h7.172a22.032 22.032 0 0 0-.504-3.887zM16.359 28.72a16 16 0 0 0-.326 2.363h1.012a15 15 0 0 1 .266-2.107l-.952-.256zm-.31 4.199a16 16 0 0 0 .305 2.363l.97-.26a15 15 0 0 1-.293-2.103h-.982zm30.906 0a15 15 0 0 1-.248 2.03l6.92 1.855a22.032 22.032 0 0 0 .525-3.885h-7.197zm-.728 3.8a15 15 0 0 1-.784 1.893l6.223 3.592a22.032 22.032 0 0 0 1.488-3.63l-6.927-1.854zm-28.42.075l-.963.258a16 16 0 0 0 .926 2.193l.841-.486a15 15 0 0 1-.804-1.965zm26.734 3.414a15 15 0 0 1-1.238 1.639l5.049 5.05a22.032 22.032 0 0 0 2.402-3.103l-6.213-3.586zm-24.998.129l-5.975 3.45a22.032 22.032 0 0 0 2.389 3.109l4.889-4.891a15 15 0 0 1-1.303-1.668zm22.465 2.812a15 15 0 0 1-1.621 1.272l3.554 6.158a22.032 22.032 0 0 0 3.11-2.387l-5.043-5.043zm-19.862.147l-4.894 4.896a22.032 22.032 0 0 0 3.103 2.4l3.477-6.025a15 15 0 0 1-1.686-1.271zm16.666 2.068a15 15 0 0 1-1.914.795l1.836 6.854a22.032 22.032 0 0 0 3.621-1.512l-3.542-6.137zm-13.378.104l-3.489 6.037a22.032 22.032 0 0 0 3.631 1.488l1.803-6.73a15 15 0 0 1-1.945-.795zm9.695 1.183a15 15 0 0 1-2.059.31v7.019a22.032 22.032 0 0 0 3.887-.504l-1.828-6.825zm-5.973.073l-1.806 6.742a22.032 22.032 0 0 0 3.884.525v-7.027a15 15 0 0 1-2.078-.24z" transform="translate(0 988.362)" overflow="visible" fill="url(#d)"/><path style="isolation:auto;mix-blend-mode:normal;solid-color:#000;solid-opacity:1" overflow="visible" d="M52.757 996.776l2.829 2.828-5.657 5.657-2.829-2.828z" fill="#525252"/><path style="isolation:auto;mix-blend-mode:normal;solid-color:#000;solid-opacity:1" overflow="visible" d="M51.514 992.362l8.485 8.485-2.828 2.829-8.485-8.485zm-40.272 4.415l-2.828 2.828 5.657 5.657 2.828-2.829z" fill="#525252"/><path style="isolation:auto;mix-blend-mode:normal;solid-color:#000;solid-opacity:1" overflow="visible" d="M12.485 992.362l-8.486 8.485 2.829 2.829 8.485-8.485z" fill="#525252"/></g></svg>