<svg xmlns="http://www.w3.org/2000/svg" xmlns:xlink="http://www.w3.org/1999/xlink" viewBox="0 0 48 48"><defs><linearGradient id="a"><stop offset="0" stop-color="#00b94d"/><stop offset="1" stop-color="#fff500"/></linearGradient><linearGradient xlink:href="#a" id="c" x1="12.144" y1="16.44" x2="36.706" y2="30.965" gradientUnits="userSpaceOnUse"/><linearGradient xlink:href="#a" id="b" x1=".25" y1="24" x2="47.75" y2="24" gradientUnits="userSpaceOnUse"/></defs><path d="M19 35.22v11.218a24.706 24.706 0 0 0 2.46.416A22.517 22.517 0 0 0 24 47a21.955 21.955 0 0 0 2.54-.147 23.341 23.341 0 0 0 2.46-.416V35.219m0-22.437V1.563A23.009 23.009 0 0 0 24 1a21.951 21.951 0 0 0-2.54.147 23.338 23.338 0 0 0-2.46.416v11.219M9 15.283V6.564v0-.001C4.103 10.781 1 17.03 1 24.001c0 6.971 3.103 13.22 8 17.438V32.72m0 0v8.718a22.924 22.924 0 0 0 10 5V35.219m0-22.437V1.563a22.924 22.924 0 0 0-10 5v8.719M29 35.22v11.218a22.924 22.924 0 0 0 10-5v-8.719m0-17.437V6.563a22.924 22.924 0 0 0-10-5v11.219M39 32.72v8.718C43.897 37.22 47 30.971 47 24c0-6.971-3.103-13.22-8-17.438v8.72" stroke="url(#b)" fill="none" stroke-width="1.5" stroke-linecap="round" stroke-linejoin="round"/><path d="M14.28 14.918v2h2l-3 14h-2v2h7v-2h-1.7l1.1-6h1.6l3 6c.509 1.016 1.4 2 3 2h3l7-7 2-3v-1l-1-1h-1l-1 1v3l-4.5 5 1.5-8-1-1-4 1v1h2l-1 8h-1l-4-8 6-6h2v-2h-7v2h2.3l-6.7 7h-1l1.4-7h2v-2z" fill="url(#c)"/></svg>