<?xml version="1.0" encoding="UTF-8" ?>
<!DOCTYPE svg PUBLIC "-//W3C//DTD SVG 1.1//EN" "http://www.w3.org/Graphics/SVG/1.1/DTD/svg11.dtd">
<svg width="192pt" height="192pt" viewBox="0 0 192 192" version="1.1" xmlns="http://www.w3.org/2000/svg">
<g id="#ff364bff">
<path fill="#ff364b" opacity="1.00" d=" M 17.14 40.92 C 17.18 28.26 28.33 16.99 40.98 16.79 C 59.42 16.66 77.86 16.74 96.31 16.75 C 93.90 20.70 91.39 24.58 88.90 28.48 C 73.30 28.54 57.70 28.42 42.11 28.52 C 34.95 28.31 28.52 34.72 28.90 41.92 C 28.83 78.01 28.95 114.12 28.86 150.21 C 27.52 142.54 28.17 134.74 28.04 127.00 C 27.92 118.62 28.13 110.24 27.74 101.87 C 23.74 106.99 18.14 111.94 18.02 118.93 C 17.75 130.07 18.57 141.25 17.34 152.36 C 17.16 150.24 17.09 148.11 17.10 145.98 C 17.14 110.96 17.07 75.94 17.14 40.92 Z" />
</g>
<g id="#ff365bff">
<path fill="#ff365b" opacity="1.00" d=" M 96.31 16.75 C 113.87 16.71 131.44 16.74 149.00 16.73 C 152.35 16.69 155.63 17.41 158.84 18.32 C 153.69 19.74 150.30 23.93 147.85 28.43 C 128.20 28.55 108.55 28.46 88.90 28.48 C 91.39 24.58 93.90 20.70 96.31 16.75 Z" />
</g>
<g id="#ff366bff">
<path fill="#ff366b" opacity="1.00" d=" M 147.85 28.43 C 150.30 23.93 153.69 19.74 158.84 18.32 C 166.80 21.79 173.03 29.13 174.35 37.81 C 174.76 50.13 174.44 62.47 174.52 74.79 C 170.46 78.08 166.67 81.66 162.81 85.18 C 162.77 70.78 162.85 56.38 162.78 41.99 C 162.93 38.03 161.00 34.38 158.30 31.61 C 155.32 29.31 151.59 28.30 147.85 28.43 Z" />
</g>
<g id="#0000003c">
<path fill="#000000" opacity="0.24" d=" M 28.90 41.92 C 28.52 34.72 34.95 28.31 42.11 28.52 C 57.70 28.42 73.30 28.54 88.90 28.48 C 108.55 28.46 128.20 28.55 147.85 28.43 C 151.59 28.30 155.32 29.31 158.30 31.61 C 151.21 31.16 144.10 31.00 137.00 31.10 C 106.65 31.09 76.31 31.19 45.97 31.04 C 41.74 31.04 36.84 31.40 34.02 35.01 C 30.07 39.71 30.65 46.27 30.56 52.00 C 30.73 78.67 30.58 105.34 30.64 132.00 C 30.70 140.43 30.13 148.94 31.55 157.29 C 30.11 155.18 29.14 152.76 28.86 150.21 C 28.95 114.12 28.83 78.01 28.90 41.92 Z" />
</g>
<g id="#0000003e">
<path fill="#000000" opacity="0.24" d=" M 174.35 37.81 C 175.44 40.74 175.95 43.85 175.90 46.97 C 175.81 81.32 175.88 115.68 175.87 150.03 C 176.04 159.03 171.70 168.24 163.75 172.80 C 157.63 176.83 150.05 176.73 143.01 176.75 C 110.37 176.69 77.73 176.81 45.09 176.69 C 38.74 176.40 30.88 175.59 27.31 169.54 C 29.32 170.77 31.42 171.89 33.61 172.77 C 35.62 173.38 37.68 173.87 39.78 174.13 C 42.83 174.52 45.91 174.71 48.98 174.74 C 75.99 174.60 102.99 174.70 130.00 174.66 C 137.40 174.61 144.85 175.11 152.21 174.10 C 164.26 173.02 174.51 162.18 174.50 150.01 C 174.58 124.94 174.52 99.87 174.52 74.79 C 174.44 62.47 174.76 50.13 174.35 37.81 Z" />
<path fill="#000000" opacity="0.24" d=" M 141.45 81.20 C 141.55 82.65 141.66 84.10 141.77 85.55 C 138.06 86.02 133.52 87.55 130.65 84.27 C 133.42 84.01 136.21 83.84 138.95 83.31 C 140.27 83.21 141.10 82.51 141.45 81.20 Z" />
<path fill="#000000" opacity="0.24" d=" M 141.38 101.91 C 143.36 106.27 143.71 111.74 140.77 115.76 C 138.15 119.57 133.65 121.48 129.26 122.34 C 121.44 123.97 113.10 123.29 105.70 120.26 C 103.56 119.53 102.14 117.72 100.99 115.88 C 107.75 120.14 116.05 121.17 123.89 120.52 C 129.19 119.98 135.00 118.92 138.75 114.77 C 141.89 111.31 141.92 106.28 141.38 101.91 Z" />
</g>
<g id="#ff365aff">
<path fill="#ff365a" opacity="1.00" d=" M 59.56 73.56 C 67.41 68.46 77.63 68.85 86.19 71.83 C 90.38 73.33 93.52 76.71 95.86 80.39 C 93.03 83.24 90.37 86.25 87.81 89.34 C 86.77 87.04 85.81 84.66 84.35 82.59 C 79.64 77.03 69.98 76.50 65.16 82.18 C 60.88 87.46 60.67 94.87 61.77 101.29 C 62.94 105.97 66.11 110.79 71.18 111.68 C 77.13 112.87 82.77 109.75 87.21 106.11 C 88.13 108.48 89.02 110.86 90.19 113.11 C 90.10 113.77 89.92 115.09 89.83 115.75 C 80.41 121.56 67.87 122.68 58.29 116.59 C 51.59 111.27 49.69 102.05 50.03 93.91 C 50.61 86.36 52.91 77.99 59.56 73.56 Z" />
</g>
<g id="#ff3667ff">
<path fill="#ff3667" opacity="1.00" d=" M 111.30 72.32 C 118.10 68.89 126.34 68.89 133.42 71.49 C 137.63 73.03 140.20 77.08 141.45 81.20 C 141.10 82.51 140.27 83.21 138.95 83.31 C 136.21 83.84 133.42 84.01 130.65 84.27 C 130.54 83.66 130.32 82.43 130.22 81.82 C 127.98 77.37 121.99 77.43 117.94 78.94 C 114.79 80.49 114.82 84.51 116.06 87.31 C 121.60 90.88 128.70 90.27 134.43 93.47 C 137.91 95.06 140.27 98.33 141.38 101.91 C 141.92 106.28 141.89 111.31 138.75 114.77 C 135.00 118.92 129.19 119.98 123.89 120.52 C 116.05 121.17 107.75 120.14 100.99 115.88 C 92.56 109.62 91.32 98.50 87.81 89.34 C 90.37 86.25 93.03 83.24 95.86 80.39 C 99.50 87.79 101.13 95.96 104.54 103.44 C 108.83 112.30 120.88 114.24 129.13 110.17 C 132.23 108.19 131.07 103.35 128.04 101.92 C 121.62 98.57 113.24 99.52 107.85 94.13 C 102.32 87.90 103.63 76.31 111.30 72.32 Z" />
</g>
<g id="#ff3678ff">
<path fill="#ff3678" opacity="1.00" d=" M 162.81 85.18 C 166.67 81.66 170.46 78.08 174.52 74.79 C 174.52 99.87 174.58 124.94 174.50 150.01 C 174.51 162.18 164.26 173.02 152.21 174.10 C 133.07 174.51 113.92 174.16 94.77 174.27 C 97.13 170.28 99.61 166.38 102.10 162.47 C 118.03 162.42 133.96 162.55 149.89 162.41 C 156.96 162.50 163.10 156.06 162.79 149.01 C 162.84 127.74 162.78 106.45 162.81 85.18 Z" />
</g>
<g id="#00000037">
<path fill="#000000" opacity="0.22" d=" M 65.16 82.18 C 69.98 76.50 79.64 77.03 84.35 82.59 C 79.31 81.51 73.42 79.42 68.78 82.77 C 62.99 86.98 62.63 94.81 61.77 101.29 C 60.67 94.87 60.88 87.46 65.16 82.18 Z" />
</g>
<g id="#00000036">
<path fill="#000000" opacity="0.21" d=" M 117.94 78.94 C 121.99 77.43 127.98 77.37 130.22 81.82 C 126.49 81.34 122.39 79.99 118.82 81.77 C 117.41 83.32 116.93 85.46 116.06 87.31 C 114.82 84.51 114.79 80.49 117.94 78.94 Z" />
</g>
<g id="#ff3658ff">
<path fill="#ff3658" opacity="1.00" d=" M 18.02 118.93 C 18.14 111.94 23.74 106.99 27.74 101.87 C 28.13 110.24 27.92 118.62 28.04 127.00 C 28.17 134.74 27.52 142.54 28.86 150.21 C 29.14 152.76 30.11 155.18 31.55 157.29 C 33.59 160.03 36.78 161.65 40.08 162.35 C 37.38 165.46 35.16 168.96 33.61 172.77 C 31.42 171.89 29.32 170.77 27.31 169.54 C 21.89 165.46 18.02 159.15 17.34 152.36 C 18.57 141.25 17.75 130.07 18.02 118.93 Z" />
</g>
<g id="#0a020440">
<path fill="#0a0204" opacity="0.25" d=" M 90.19 113.11 C 90.63 114.89 91.66 117.42 89.61 118.61 C 82.74 122.84 73.96 124.36 66.19 121.83 C 63.06 121.00 59.91 119.57 58.29 116.59 C 67.87 122.68 80.41 121.56 89.83 115.75 C 89.92 115.09 90.10 113.77 90.19 113.11 Z" />
</g>
<g id="#ff3668ff">
<path fill="#ff3668" opacity="1.00" d=" M 33.61 172.77 C 35.16 168.96 37.38 165.46 40.08 162.35 C 60.75 162.63 81.43 162.37 102.10 162.47 C 99.61 166.38 97.13 170.28 94.77 174.27 C 76.44 174.19 58.10 174.48 39.78 174.13 C 37.68 173.87 35.62 173.38 33.61 172.77 Z" />
</g>
</svg>
