<svg xmlns="http://www.w3.org/2000/svg" xmlns:xlink="http://www.w3.org/1999/xlink" viewBox="0 0 48 48"><defs><linearGradient id="a"><stop offset="0" stop-color="#00c835"/><stop offset="1" stop-color="#8bfa00"/></linearGradient><linearGradient xlink:href="#a" id="b" x1="29.782" y1="14.45" x2="14.391" y2="38.899" gradientUnits="userSpaceOnUse" gradientTransform="translate(-6.214 -3.407) scale(1.144)"/></defs><path style="line-height:1.25;font-variant-ligatures:normal;font-variant-position:normal;font-variant-caps:normal;font-variant-numeric:normal;font-variant-alternates:normal;font-feature-settings:normal;text-indent:0;text-align:start;text-decoration-line:none;text-decoration-style:solid;text-decoration-color:#000;text-transform:none;text-orientation:mixed;white-space:normal;shape-padding:0;isolation:auto;mix-blend-mode:normal;solid-color:#000;solid-opacity:1" d="M9.83 11.52a1.065 1.065 0 0 0-1.067 1.067v27.197c0 .59.479 1.066 1.068 1.064l19.925.204a1.065 1.065 0 0 0 1.067-1.066l-.02-5.814a1.065 1.065 0 0 0-1.067-1.067H17.56V12.587c0-.59-.478-1.067-1.067-1.067z" font-weight="400" font-size="23.361" letter-spacing="0" word-spacing="0" overflow="visible" color="#000" font-family="sans-serif" fill="none" stroke="url(#b)" stroke-width="1.7"/><path d="M25.992 5.233v18.304h11.44v-.011l.01.011 4.567-4.566V5.23H27.136zm1.144 1.144h13.729v11.44h-4.576v4.576h-9.153z" fill="#00c835"/></svg>