<svg xmlns="http://www.w3.org/2000/svg" xmlns:xlink="http://www.w3.org/1999/xlink" viewBox="0 0 48 48"><defs><linearGradient id="b"><stop offset="0" stop-color="#7a00ff"/><stop offset="1" stop-color="#00a2ff"/></linearGradient><linearGradient id="a"><stop offset="0"/><stop offset="1" stop-opacity="0"/></linearGradient><linearGradient xlink:href="#a" id="c" x1="12.5" y1="24" x2="37.504" y2="24" gradientUnits="userSpaceOnUse"/><linearGradient xlink:href="#b" id="d" gradientUnits="userSpaceOnUse" x1="12.5" y1="24" x2="37.504" y2="24"/><linearGradient xlink:href="#b" id="e" gradientUnits="userSpaceOnUse" x1="12.5" y1="24" x2="37.504" y2="24" gradientTransform="matrix(.66546 0 0 1 5.353 0)"/><linearGradient xlink:href="#b" id="f" gradientUnits="userSpaceOnUse" x1="12.5" y1="24" x2="37.504" y2="24"/><linearGradient xlink:href="#b" id="g" gradientUnits="userSpaceOnUse" x1="12.5" y1="24" x2="37.504" y2="24"/><linearGradient xlink:href="#b" id="h" gradientUnits="userSpaceOnUse" x1="12.5" y1="24" x2="37.504" y2="24"/><linearGradient xlink:href="#b" id="i" gradientUnits="userSpaceOnUse" x1="12.5" y1="24" x2="37.504" y2="24"/></defs><g transform="matrix(1.582 0 0 -1.582 -15.49 61.929)" fill="none" stroke="url(#c)" stroke-width="1.138"><path d="M14.781 11c-.98 0-1.781.801-1.781 1.781v22.438c0 .98.801 1.781 1.781 1.781h20.438c.984 0 1.785-.801 1.785-1.781V16.996l-6-5.996zm0 0" stroke="url(#d)"/><path d="M16.236 14h10.177c.13 0 .236.16.236.355v1.289c0 .195-.106.352-.236.352H16.236c-.13 0-.236-.156-.236-.352v-1.289c0-.195.106-.355.236-.355m0 0" stroke="url(#e)"/><path d="M37 17h-6v-5.996M37 17" stroke="url(#f)" stroke-linecap="round" stroke-linejoin="round"/><path d="M16.355 20h15.293c.195 0 .355.156.355.352v1.289c0 .199-.16.355-.355.355H16.355a.354.354 0 0 1-.355-.355v-1.289c0-.195.16-.352.355-.352m0 0" stroke="url(#g)"/><path d="M16.355 26h15.293c.195 0 .355.16.355.355v1.289c0 .195-.16.355-.355.355H16.355a.356.356 0 0 1-.355-.355v-1.289c0-.195.16-.355.355-.355m0 0" stroke="url(#h)"/><path d="M16.355 31.996h15.293c.195 0 .355.16.355.355v1.289c0 .195-.16.355-.355.355H16.355A.356.356 0 0 1 16 33.64v-1.289c0-.195.16-.355.355-.355m0 0" stroke="url(#i)"/></g></svg>