<?xml version="1.0" encoding="UTF-8" ?>
<!DOCTYPE svg PUBLIC "-//W3C//DTD SVG 1.1//EN" "http://www.w3.org/Graphics/SVG/1.1/DTD/svg11.dtd">
<svg width="192pt" height="192pt" viewBox="0 0 192 192" version="1.1" xmlns="http://www.w3.org/2000/svg">
<g id="#a017ffff">
<path fill="#a017ff" opacity="1.00" d=" M 98.20 27.02 C 100.50 17.17 109.89 9.53 120.03 9.40 C 128.45 9.02 136.78 13.74 140.91 21.07 C 145.15 28.22 144.84 37.55 140.68 44.67 C 136.32 51.14 128.95 55.75 121.02 55.66 C 114.21 55.88 107.78 52.58 103.10 47.80 C 98.40 42.11 96.30 34.24 98.20 27.02 M 110.57 27.67 C 108.72 31.35 109.21 36.01 111.68 39.29 C 115.34 44.43 123.42 45.33 128.12 41.10 C 131.44 38.48 132.36 34.07 131.95 30.05 C 130.68 25.83 127.28 22.11 122.80 21.40 C 117.91 20.43 112.64 23.13 110.57 27.67 Z" />
<path fill="#a017ff" opacity="1.00" d=" M 58.17 73.04 C 61.91 73.25 65.91 72.34 69.48 73.54 C 70.33 76.28 71.11 80.74 68.82 82.92 C 65.09 83.21 61.33 83.03 57.60 82.91 C 56.66 87.13 57.42 91.51 56.60 95.74 C 54.71 100.05 51.23 103.47 47.69 106.47 C 47.68 99.77 47.23 92.98 47.87 86.33 C 51.84 82.34 55.09 77.72 58.17 73.04 Z" />
</g>
<g id="#0000003a">
<path fill="#000000" opacity="0.23" d=" M 110.57 27.67 C 112.64 23.13 117.91 20.43 122.80 21.40 C 127.28 22.11 130.68 25.83 131.95 30.05 C 129.02 27.52 126.18 24.11 121.99 23.97 C 117.79 23.32 113.99 25.53 110.57 27.67 Z" />
</g>
<g id="#0000003b">
<path fill="#000000" opacity="0.23" d=" M 121.02 55.66 C 128.95 55.75 136.32 51.14 140.68 44.67 C 140.71 47.60 138.11 49.38 136.34 51.34 C 133.47 54.49 129.60 56.41 125.76 58.11 C 122.58 58.19 119.39 58.21 116.21 58.13 C 111.36 55.68 104.44 53.81 103.10 47.80 C 107.78 52.58 114.21 55.88 121.02 55.66 Z" />
<path fill="#000000" opacity="0.23" d=" M 96.42 70.27 C 109.57 70.49 122.71 70.40 135.86 70.32 C 137.98 70.33 140.11 70.42 142.19 70.88 C 127.28 71.97 112.30 71.11 97.36 71.34 C 96.83 82.55 97.24 93.78 97.11 105.00 C 97.00 111.09 97.68 117.25 96.41 123.26 C 96.67 109.08 96.48 94.90 96.48 80.72 C 96.50 77.24 96.65 73.75 96.42 70.27 Z" />
<path fill="#000000" opacity="0.23" d=" M 150.64 161.18 C 161.15 162.51 171.65 157.21 177.60 148.61 C 177.45 150.44 176.94 152.26 175.61 153.58 C 171.46 158.14 166.09 161.92 159.94 163.08 C 156.78 163.75 153.51 163.72 150.38 164.50 C 148.12 165.79 146.94 168.33 145.12 170.13 C 135.73 179.70 122.51 185.70 109.00 185.42 C 97.13 185.79 85.27 181.38 76.25 173.73 C 70.27 167.89 63.12 161.60 62.17 152.79 C 66.69 163.02 74.54 171.74 84.39 177.07 C 95.67 183.09 109.19 184.60 121.56 181.47 C 133.39 178.62 143.52 170.90 150.64 161.18 Z" />
</g>
<g id="#7070e5ff">
<path fill="#7070e5" opacity="1.00" d=" M 23.84 52.83 C 25.16 52.40 26.52 52.08 27.92 52.12 C 42.94 52.11 57.96 52.13 72.99 52.08 C 75.71 52.10 78.52 51.87 81.13 52.81 C 77.33 52.98 73.25 52.25 69.64 53.61 C 66.90 56.57 65.65 60.75 62.42 63.28 C 54.94 64.31 47.31 63.64 39.77 63.77 C 41.88 60.31 44.17 56.95 46.04 53.34 C 38.65 52.83 31.23 53.18 23.84 52.83 Z" />
</g>
<g id="#6076deff">
<path fill="#6076de" opacity="1.00" d=" M 8.21 71.95 C 8.23 63.06 14.81 54.12 23.84 52.83 C 31.23 53.18 38.65 52.83 46.04 53.34 C 44.17 56.95 41.88 60.31 39.77 63.77 C 35.41 63.75 30.98 63.53 26.72 64.63 C 23.92 65.03 22.02 67.29 20.75 69.64 C 18.80 77.21 20.65 85.09 19.49 92.73 C 17.11 98.50 11.52 102.36 9.15 108.12 C 8.41 113.41 9.03 118.78 8.75 124.10 C 7.95 121.47 8.19 118.70 8.17 115.99 C 8.22 101.31 8.14 86.63 8.21 71.95 Z" />
</g>
<g id="#806bebff">
<path fill="#806beb" opacity="1.00" d=" M 69.64 53.61 C 73.25 52.25 77.33 52.98 81.13 52.81 C 84.58 53.18 87.58 55.16 90.18 57.33 C 87.05 59.97 84.24 63.09 82.79 66.98 C 80.34 64.91 77.11 64.46 74.01 64.58 C 58.25 64.67 42.48 64.53 26.72 64.63 C 30.98 63.53 35.41 63.75 39.77 63.77 C 47.31 63.64 54.94 64.31 62.42 63.28 C 65.65 60.75 66.90 56.57 69.64 53.61 Z" />
</g>
<g id="#9265f1ff">
<path fill="#9265f1" opacity="1.00" d=" M 82.79 66.98 C 84.24 63.09 87.05 59.97 90.18 57.33 L 90.77 58.10 C 93.72 61.57 95.53 65.84 96.42 70.27 C 96.65 73.75 96.50 77.24 96.48 80.72 C 92.68 83.55 90.16 87.61 87.35 91.33 C 86.36 92.74 85.21 94.20 85.15 96.00 C 84.45 104.40 85.78 112.94 84.15 121.28 C 83.96 107.86 84.12 94.43 84.07 81.00 C 84.01 76.82 84.37 72.57 83.48 68.44 C 83.31 68.07 82.96 67.34 82.79 66.98 Z" />
</g>
<g id="#9811ffff">
<path fill="#9811ff" opacity="1.00" d=" M 90.77 58.10 C 99.25 58.23 107.73 58.14 116.21 58.13 C 119.39 58.21 122.58 58.19 125.76 58.11 C 131.08 58.26 136.42 57.96 141.73 58.19 C 142.16 58.30 143.01 58.52 143.43 58.62 C 140.94 62.54 138.23 66.32 135.86 70.32 C 122.71 70.40 109.57 70.49 96.42 70.27 C 95.53 65.84 93.72 61.57 90.77 58.10 Z" />
</g>
<g id="#9764f3ff">
<path fill="#9764f3" opacity="1.00" d=" M 141.73 58.19 C 150.84 58.17 159.95 58.13 169.05 58.19 C 175.76 58.26 182.01 63.99 182.13 70.79 C 182.12 74.11 182.00 77.43 181.99 80.76 C 178.56 84.20 176.02 88.36 173.27 92.32 C 172.56 93.54 171.24 94.05 170.00 94.52 C 169.74 86.47 170.41 78.40 169.59 70.38 C 165.82 70.15 162.01 70.43 158.27 69.90 C 156.45 68.65 155.51 66.52 154.09 64.89 C 151.55 61.43 147.41 59.78 143.43 58.62 C 143.01 58.52 142.16 58.30 141.73 58.19 Z" />
</g>
<g id="#ab1dffff">
<path fill="#ab1dff" opacity="1.00" d=" M 143.43 58.62 C 147.41 59.78 151.55 61.43 154.09 64.89 C 155.51 66.52 156.45 68.65 158.27 69.90 C 162.01 70.43 165.82 70.15 169.59 70.38 C 165.77 70.45 161.95 70.44 158.13 70.50 C 158.19 71.03 158.32 72.10 158.39 72.64 C 157.79 81.44 158.35 90.26 157.82 99.06 C 157.10 97.10 156.40 95.14 155.71 93.18 C 153.04 96.89 150.48 100.69 147.38 104.06 C 146.72 94.33 148.46 84.41 146.45 74.82 C 145.59 73.06 144.19 71.34 142.19 70.88 C 140.11 70.42 137.98 70.33 135.86 70.32 C 138.23 66.32 140.94 62.54 143.43 58.62 Z" />
</g>
<g id="#0101033b">
<path fill="#010103" opacity="0.23" d=" M 20.75 69.64 C 22.02 67.29 23.92 65.03 26.72 64.63 C 42.48 64.53 58.25 64.67 74.01 64.58 C 77.11 64.46 80.34 64.91 82.79 66.98 C 82.96 67.34 83.31 68.07 83.48 68.44 C 79.71 67.62 75.87 67.07 72.01 67.13 C 57.99 67.25 43.97 67.16 29.96 67.16 C 26.69 67.05 23.59 68.15 20.75 69.64 Z" />
</g>
<g id="#7270e5ff">
<path fill="#7270e5" opacity="1.00" d=" M 19.49 92.73 C 20.65 85.09 18.80 77.21 20.75 69.64 C 21.02 86.77 20.71 103.90 20.91 121.03 C 20.61 124.30 23.40 126.49 26.01 127.81 C 22.62 130.41 19.88 133.80 18.63 137.93 C 14.19 135.54 11.01 131.40 9.12 126.79 C 9.03 126.12 8.84 124.78 8.75 124.10 C 9.03 118.78 8.41 113.41 9.15 108.12 C 11.52 102.36 17.11 98.50 19.49 92.73 Z" />
</g>
<g id="#13071c3a">
<path fill="#13071c" opacity="0.23" d=" M 182.13 70.79 C 182.42 72.16 182.70 73.54 182.73 74.95 C 182.66 92.98 182.62 111.03 182.73 129.06 C 182.71 130.45 182.43 131.81 182.13 133.16 C 181.94 115.69 182.18 98.22 181.99 80.76 C 182.00 77.43 182.12 74.11 182.13 70.79 Z" />
</g>
<g id="#8c0affff">
<path fill="#8c0aff" opacity="1.00" d=" M 35.49 73.49 C 42.98 72.42 50.62 73.23 58.17 73.04 C 55.09 77.72 51.84 82.34 47.87 86.33 C 47.78 85.52 47.60 83.92 47.51 83.12 C 43.75 82.93 39.96 83.27 36.22 82.80 C 34.33 80.24 35.60 76.51 35.49 73.49 Z" />
</g>
<g id="#b927ffff">
<path fill="#b927ff" opacity="1.00" d=" M 158.39 72.64 C 159.14 77.05 158.95 81.54 158.95 86.00 C 158.94 96.67 158.94 107.33 158.93 118.00 C 158.79 128.37 159.80 138.99 156.53 149.02 C 154.54 153.07 152.63 157.14 150.64 161.18 C 143.52 170.90 133.39 178.62 121.56 181.47 C 109.19 184.60 95.67 183.09 84.39 177.07 C 84.22 172.22 87.66 166.95 93.06 167.79 C 106.14 173.41 122.23 171.41 133.18 162.19 C 141.77 155.14 146.86 144.12 146.64 132.99 C 146.51 113.60 146.90 94.20 146.45 74.82 C 148.46 84.41 146.72 94.33 147.38 104.06 C 150.48 100.69 153.04 96.89 155.71 93.18 C 156.40 95.14 157.10 97.10 157.82 99.06 C 158.35 90.26 157.79 81.44 158.39 72.64 Z" />
</g>
<g id="#a360f8ff">
<path fill="#a360f8" opacity="1.00" d=" M 87.35 91.33 C 90.16 87.61 92.68 83.55 96.48 80.72 C 96.48 94.90 96.67 109.08 96.41 123.26 C 95.91 127.14 93.92 130.56 91.96 133.86 C 88.63 136.42 85.08 139.02 80.86 139.80 C 77.57 140.21 74.25 139.97 70.95 139.95 C 66.92 139.85 62.88 139.91 58.84 140.00 C 56.42 140.03 53.99 140.02 51.56 140.01 C 51.79 134.94 56.13 131.63 59.11 128.01 C 65.07 127.95 71.03 128.14 76.99 127.95 C 80.60 127.86 83.83 124.89 84.15 121.28 C 85.78 112.94 84.45 104.40 85.15 96.00 C 85.21 94.20 86.36 92.74 87.35 91.33 Z" />
</g>
<g id="#a75efaff">
<path fill="#a75efa" opacity="1.00" d=" M 173.27 92.32 C 176.02 88.36 178.56 84.20 181.99 80.76 C 182.18 98.22 181.94 115.69 182.13 133.16 C 182.31 138.64 180.42 143.98 177.60 148.61 C 171.65 157.21 161.15 162.51 150.64 161.18 C 152.63 157.14 154.54 153.07 156.53 149.02 C 164.04 147.61 170.06 140.76 170.00 133.04 C 170.01 120.20 169.91 107.36 170.00 94.52 C 171.24 94.05 172.56 93.54 173.27 92.32 Z" />
</g>
<g id="#b223ffff">
<path fill="#b223ff" opacity="1.00" d=" M 56.60 95.74 C 57.42 91.51 56.66 87.13 57.60 82.91 C 57.96 94.28 57.65 105.66 57.79 117.04 C 57.57 118.24 58.16 120.16 56.75 120.78 C 53.88 121.34 50.93 121.00 48.04 120.77 C 47.23 116.05 47.63 111.24 47.69 106.47 C 51.23 103.47 54.71 100.05 56.60 95.74 Z" />
</g>
<g id="#00000039">
<path fill="#000000" opacity="0.22" d=" M 9.12 126.79 C 11.01 131.40 14.19 135.54 18.63 137.93 C 21.23 139.16 24.02 140.11 26.94 140.03 C 35.14 140.06 43.35 140.01 51.56 140.01 C 53.99 140.02 56.42 140.03 58.84 140.00 C 59.10 141.67 59.38 143.35 59.74 145.01 C 58.32 144.01 56.91 142.70 55.04 142.76 C 48.04 142.50 41.02 142.76 34.00 142.71 C 28.17 142.80 21.63 143.14 16.84 139.16 C 13.16 135.96 8.53 132.25 9.12 126.79 Z" />
</g>
<g id="#8b68efff">
<path fill="#8b68ef" opacity="1.00" d=" M 18.63 137.93 C 19.88 133.80 22.62 130.41 26.01 127.81 C 37.03 128.27 48.07 127.85 59.11 128.01 C 56.13 131.63 51.79 134.94 51.56 140.01 C 43.35 140.01 35.14 140.06 26.94 140.03 C 24.02 140.11 21.23 139.16 18.63 137.93 Z" />
</g>
<g id="#04020642">
<path fill="#040206" opacity="0.26" d=" M 80.86 139.80 C 85.08 139.02 88.63 136.42 91.96 133.86 C 88.62 141.52 79.06 142.87 71.66 142.38 C 71.48 141.78 71.13 140.56 70.95 139.95 C 74.25 139.97 77.57 140.21 80.86 139.80 Z" />
</g>
<g id="#a117ffff">
<path fill="#a117ff" opacity="1.00" d=" M 58.84 140.00 C 62.88 139.91 66.92 139.85 70.95 139.95 C 71.13 140.56 71.48 141.78 71.66 142.38 C 74.33 153.62 82.53 163.15 93.06 167.79 C 87.66 166.95 84.22 172.22 84.39 177.07 C 74.54 171.74 66.69 163.02 62.17 152.79 C 61.11 150.29 60.31 147.67 59.74 145.01 C 59.38 143.35 59.10 141.67 58.84 140.00 Z" />
</g>
</svg>
