<svg xmlns="http://www.w3.org/2000/svg" xmlns:xlink="http://www.w3.org/1999/xlink" viewBox="0 0 48 48"><defs><linearGradient id="a"><stop offset="0" stop-color="#8900ff"/><stop offset="1" stop-color="#8f056c"/></linearGradient><linearGradient xlink:href="#a" id="c" x1="13" y1="31.5" x2="35" y2="31.5" gradientUnits="userSpaceOnUse" gradientTransform="translate(-4.706 1.598) scale(1.07693)"/><linearGradient xlink:href="#a" id="e" x1="13" y1="18" x2="35" y2="18" gradientUnits="userSpaceOnUse" gradientTransform="translate(-4.706 1.598) scale(1.07693)"/><linearGradient xlink:href="#a" id="d" x1="13" y1="25.5" x2="35" y2="25.5" gradientUnits="userSpaceOnUse" gradientTransform="translate(-4.706 1.598) scale(1.07693)"/><linearGradient xlink:href="#a" id="b" x1="1.025" y1="24" x2="46.974" y2="24" gradientUnits="userSpaceOnUse" gradientTransform="translate(-4.706 1.598) scale(1.07693)"/></defs><path d="M16.833 3.055c-.363.064-.721.135-1.077.213v25.253H3.248c.014.361.04.719.07 1.077h12.436v15.175c.357.078.716.149 1.077.213V29.598h12.925v14h10.151c.304-.35.598-.708.881-1.075h-9.957V29.598H45.81c.031-.356.055-.716.073-1.076h-7.511V16.507a23.98 23.98 0 0 0-1.08-.981v12.997h-20.46V3.055z" fill="url(#b)"/><path d="M9.427 31.754a1.328 1.328 0 0 0-.133.536v3.233c0 2.09 5.283 3.767 11.845 3.767 6.564 0 11.847-1.68 11.847-3.77v-3.228c0-.181-.055-.363-.133-.536-.817 1.83-5.727 3.23-11.711 3.23-5.99 0-10.898-1.4-11.716-3.232z" fill="url(#c)"/><path d="M9.427 25.29a1.328 1.328 0 0 0-.133.539v3.231c0 2.09 5.283 3.77 11.845 3.77 6.564 0 11.847-1.682 11.847-3.77v-3.23c0-.183-.055-.364-.133-.54-.817 1.832-5.727 3.233-11.711 3.233-5.99 0-10.898-1.401-11.716-3.23z" fill="url(#d)"/><path d="M27.602 29.598h1.076v1.077h-1.076m0 5.385h1.076v1.077h-1.076m0-1.076" fill="#ff00d9"/><rect x="9.294" y="15.599" width="23.692" height="10.77" rx="11.846" ry="3.77" fill="url(#e)"/><path d="M27.602 23.138h1.076v1.076h-1.076m0-1.076" fill="#ff00d9"/></svg>