<svg xmlns="http://www.w3.org/2000/svg" xmlns:xlink="http://www.w3.org/1999/xlink" viewBox="0 0 48 48"><defs><linearGradient id="a"><stop offset="0" stop-color="#ff6200"/><stop offset="1" stop-color="#ff00ca"/></linearGradient><linearGradient xlink:href="#a" id="b" x1="5.892" y1="25.526" x2="42.153" y2="25.526" gradientUnits="userSpaceOnUse"/><linearGradient xlink:href="#a" id="c" gradientUnits="userSpaceOnUse" x1="5.892" y1="25.526" x2="42.153" y2="25.526"/><linearGradient xlink:href="#a" id="d" gradientUnits="userSpaceOnUse" x1="5.892" y1="25.526" x2="42.153" y2="25.526"/><linearGradient xlink:href="#a" id="e" gradientUnits="userSpaceOnUse" x1="5.892" y1="25.526" x2="42.153" y2="25.526"/><linearGradient xlink:href="#a" id="f" gradientUnits="userSpaceOnUse" x1="5.892" y1="25.526" x2="42.153" y2="25.526"/></defs><g transform="translate(-3.234 -4.453) scale(1.13461)" stroke="url(#b)" stroke-width="1.586" fill="none"><path d="M5.892 7.566h36.261m0 35.92H5.892" stroke="url(#c)"/><path d="M36.475 25.525a12.45 12.45 0 1 1-24.9 0 12.449 12.449 0 0 1 24.899 0m0 0" stroke="url(#d)" stroke-linecap="round" stroke-linejoin="round"/><path d="M32.149 16.093l-8.123 9.428 8.796 8.795a12.393 12.393 0 0 0 3.647-8.795 12.412 12.412 0 0 0-4.328-9.428m.008 0" stroke="url(#e)" stroke-linecap="round" stroke-linejoin="round"/><path d="M24.025 13.076a12.267 12.267 0 0 0-3.944.633l3.944 11.822 8.122-9.429a12.37 12.37 0 0 0-8.122-3.021m0 0" stroke="url(#f)" stroke-linecap="round" stroke-linejoin="round"/></g></svg>