<svg xmlns="http://www.w3.org/2000/svg" xmlns:xlink="http://www.w3.org/1999/xlink" viewBox="0 0 48 48"><defs><linearGradient id="a"><stop offset="0" stop-color="#00bcff"/><stop offset="1" stop-color="#0f6"/></linearGradient><linearGradient xlink:href="#a" id="b" x1="3.72" y1="25.218" x2="45.496" y2="25.218" gradientUnits="userSpaceOnUse" gradientTransform="matrix(.99907 0 0 1.01413 -.647 -.593)"/><linearGradient xlink:href="#a" id="c" x1="11.241" y1="24.57" x2="37.982" y2="24.57" gradientUnits="userSpaceOnUse" gradientTransform="matrix(1.01251 0 0 1 -.446 1.627)"/><linearGradient xlink:href="#a" id="d" x1="11.241" y1="24.57" x2="37.982" y2="24.57" gradientUnits="userSpaceOnUse" gradientTransform="matrix(.98687 0 0 1 -.133 1.558)"/></defs><path d="M8.914 8.036h30.049c2.765 0 5.01 2.278 5.01 5.085v23.722c0 2.814-2.245 5.085-5.01 5.085H8.913c-2.77 0-5.008-2.271-5.008-5.085V13.121c0-2.807 2.244-5.085 5.009-5.085" fill="none" stroke="url(#b)" stroke-width="2"/><path d="M12.628 24.526c-.932 0-1.692.75-1.692 1.671v5.014c0 .921.76 1.672 1.692 1.672H36.32c.931 0 1.693-.75 1.693-1.672v-5.014c0-.92-.762-1.671-1.693-1.671z" fill="url(#c)"/><path d="M18.315 26a2.508 2.508 0 1 0 .001 5.016A2.508 2.508 0 0 0 18.315 26zM25 26a2.508 2.508 0 1 0 .002 5.016A2.508 2.508 0 0 0 25 26zm6.685 0a2.508 2.508 0 1 0 .002 5.016A2.508 2.508 0 0 0 31.685 26z" fill="#2d2d2d"/><path d="M11.36 17.443a.398.398 0 0 0-.4.398v2.869c0 .222.18.404.4.404h26.219a.404.404 0 0 0 .399-.404v-2.87a.398.398 0 0 0-.4-.397z" fill="url(#d)"/></svg>