<svg xmlns="http://www.w3.org/2000/svg" xmlns:xlink="http://www.w3.org/1999/xlink" viewBox="0 0 48 48"><defs><linearGradient id="a"><stop offset="0" stop-color="#ef5771"/><stop offset="1" stop-color="#ff008d"/></linearGradient><linearGradient xlink:href="#a" id="b" x1="4.407" y1="3.844" x2="44.134" y2="45.12" gradientUnits="userSpaceOnUse"/><linearGradient xlink:href="#a" id="c" gradientUnits="userSpaceOnUse" x1="4.407" y1="3.844" x2="44.134" y2="45.12"/></defs><g stroke="url(#b)" fill="none" stroke-width="1.8"><path d="M24.22 2.191v.002h.007zm0 .002c-2.129 0-4.186.316-6.13.889-1.398 2.974-1.343 8.093-.66 10.49.015.054.035.105.05.158a11.704 11.704 0 0 1 6.97-2.271c.52-2.98 2.018-6.806 3.929-8.857a21.695 21.695 0 0 0-4.158-.407zm14.233 5.352c-2.925.348-6.88 2.664-8.988 4.844-.047.048-.088.101-.135.15a11.704 11.704 0 0 1 5.516 5.352c2.85-1.041 7.054-1.605 9.91-.871a21.649 21.649 0 0 0-6.3-9.475zM8.098 9.402a21.572 21.572 0 0 0-5.092 10.135c1.746 2.375 5.76 4.666 8.723 5.406.387.097.775.179 1.164.256a11.704 11.704 0 0 1-.196-2.039 11.704 11.704 0 0 1 1.344-5.433c-2.378-1.905-5.115-5.392-5.943-8.325zm27.982 13.09a11.704 11.704 0 0 1 .025.668 11.704 11.704 0 0 1-1.947 6.442c2.45 1.844 5.396 5.533 6.248 8.595a21.58 21.58 0 0 0 4.985-9.86c-1.892-2.716-6.23-5.14-8.625-5.702-.228-.053-.457-.096-.686-.143zM14.482 29.35c-2.779 1.275-7.64 2.066-10.826 1.252a21.657 21.657 0 0 0 5.996 9.246c3.303-.262 7.602-2.82 9.286-4.623a30.3 30.3 0 0 0 1.087-1.233 11.704 11.704 0 0 1-5.543-4.642zM30.7 33.016a11.704 11.704 0 0 1-6.523 1.834c-.22 3.06-1.897 7.843-4.115 10.224a21.715 21.715 0 0 0 10.605-.57c1.17-2.677 1.158-7.417.357-10.399a26.87 26.87 0 0 0-.324-1.09z" stroke="url(#c)" stroke-linecap="round" stroke-linejoin="round"/><path d="M29.576 24.02l-7.8 5.035c-.307.196-.558.028-.558-.462v-9.867c0-.56.244-.655.557-.462l7.8 5.036c.348.224.334.503 0 .72z"/></g></svg>