<svg xmlns="http://www.w3.org/2000/svg" xmlns:xlink="http://www.w3.org/1999/xlink" viewBox="0 0 48 48"><defs><linearGradient id="a"><stop stop-color="#2f4bf2" offset="0"/><stop stop-color="#2effdb" offset="1"/></linearGradient><linearGradient xlink:href="#a" id="e" x1="11.5" y1="25.81" x2="36.5" y2="25.81" gradientUnits="userSpaceOnUse" gradientTransform="translate(-15.898 -12.812) scale(1.68934)"/><linearGradient xlink:href="#a" id="d" x1="11.265" y1="24.982" x2="36.5" y2="24.982" gradientUnits="userSpaceOnUse" gradientTransform="translate(-15.898 -12.812) scale(1.68934)"/><linearGradient xlink:href="#a" id="c" x1="2.962" y1="16.979" x2="46.406" y2="16.979" gradientUnits="userSpaceOnUse" gradientTransform="translate(.605 .478) scale(.97182)"/><linearGradient xlink:href="#a" id="b" x1="3.019" y1="23.833" x2="46.166" y2="23.833" gradientUnits="userSpaceOnUse"/></defs><path d="M4.018 16.862l20.632 13.98 20.516-14.018z" fill="url(#b)" paint-order="markers stroke fill"/><path d="M24.473 3.442L4.51 16.865l20.139 13.646 20.025-13.684z" fill="none" stroke="url(#c)" stroke-width="2" stroke-linecap="round" stroke-linejoin="round" paint-order="markers stroke fill"/><path d="M7.752 7.46l.086 12.398L24.74 30.903l16.971-11.389-.173-12.053z" fill="none" stroke="#a4a4a4" stroke-width="1.351" stroke-linecap="round" stroke-linejoin="round" paint-order="markers stroke fill"/><path d="M44.918 17.595l.085 26.892-40.316-.22z" fill="none" stroke="url(#d)" stroke-width="2" stroke-linecap="square" stroke-linejoin="round" paint-order="stroke fill markers"/><path d="M4.373 17.595l40.545 26.68-40.23-.009s-.28-18.641-.315-26.671z" fill="none" stroke="url(#e)" stroke-width="2" stroke-linecap="square" stroke-linejoin="round" paint-order="stroke fill markers"/><rect x="11.275" y="10.479" width="13.514" height="1.689" ry=".845" fill="#c3cacd"/><rect x="11.131" y="14.217" width="20.273" height="1.689" ry=".845" fill="#c3cacd"/><rect x="11.131" y="17.596" width="27.03" height="1.689" ry=".845" fill="#c3cacd"/><rect x="14.395" y="21.223" width="20.226" height="1.689" ry=".845" fill="#c3cacd"/></svg>