<svg width="252" height="231" viewBox="0 0 252 231" fill="none" xmlns="http://www.w3.org/2000/svg">
<path d="M17.0703 63.2H50.7617C52.6224 63.2 54.1309 61.9016 54.1309 60.3C54.1309 58.6984 52.6224 57.4 50.7617 57.4H17.0703C15.2096 57.4 13.7012 58.6984 13.7012 60.3C13.7012 61.9016 15.2096 63.2 17.0703 63.2ZM17.0703 74.8H50.7617C52.6224 74.8 54.1309 73.5016 54.1309 71.9C54.1309 70.2984 52.6224 69 50.7617 69H17.0703C15.2096 69 13.7012 70.2984 13.7012 71.9C13.7012 73.5016 15.2096 74.8 17.0703 74.8ZM64.2383 86.4H97.9297C99.7904 86.4 101.299 85.1016 101.299 83.5V48.7C101.299 47.0984 99.7904 45.8 97.9297 45.8H64.2383C62.3776 45.8 60.8691 47.0984 60.8691 48.7V83.5C60.8691 85.1016 62.3776 86.4 64.2383 86.4ZM67.6074 51.6H94.5605V80.6H67.6074V51.6ZM17.0703 51.6H30.5469C32.4075 51.6 33.916 50.3016 33.916 48.7C33.916 47.0984 32.4075 45.8 30.5469 45.8H17.0703C15.2096 45.8 13.7012 47.0984 13.7012 48.7C13.7012 50.3016 15.2096 51.6 17.0703 51.6ZM17.0703 28.4C18.931 28.4 20.4395 27.1016 20.4395 25.5C20.4395 23.8984 18.931 22.6 17.0703 22.6C15.2096 22.6 13.7012 23.8984 13.7012 25.5C13.7012 27.1016 15.2096 28.4 17.0703 28.4ZM111.631 11H3.36914C1.50848 11 0 12.2984 0 13.9V95.1C0 96.7016 1.50848 98 3.36914 98H111.631C113.492 98 115 96.7016 115 95.1V13.9C115 12.2984 113.492 11 111.631 11ZM108.262 92.2H6.73828V40H108.262V92.2ZM108.262 34.2H6.73828V16.8H108.262V34.2ZM17.0703 86.4H50.7617C52.6224 86.4 54.1309 85.1016 54.1309 83.5C54.1309 81.8984 52.6224 80.6 50.7617 80.6H17.0703C15.2096 80.6 13.7012 81.8984 13.7012 83.5C13.7012 85.1016 15.2096 86.4 17.0703 86.4ZM30.5469 28.4C32.4075 28.4 33.916 27.1016 33.916 25.5C33.916 23.8984 32.4075 22.6 30.5469 22.6C28.6862 22.6 27.1777 23.8984 27.1777 25.5C27.1777 27.1016 28.6862 28.4 30.5469 28.4ZM44.0234 28.4C45.8841 28.4 47.3926 27.1016 47.3926 25.5C47.3926 23.8984 45.8841 22.6 44.0234 22.6C42.1628 22.6 40.6543 23.8984 40.6543 25.5C40.6543 27.1016 42.1628 28.4 44.0234 28.4Z" fill="url(#paint0_linear)"/>
<path d="M108.086 177.8H157.598C160.332 177.8 162.549 175.815 162.549 173.367C162.549 170.918 160.332 168.933 157.598 168.933H108.086C105.352 168.933 103.135 170.918 103.135 173.367C103.135 175.815 105.352 177.8 108.086 177.8ZM108.086 195.533H157.598C160.332 195.533 162.549 193.548 162.549 191.1C162.549 188.652 160.332 186.667 157.598 186.667H108.086C105.352 186.667 103.135 188.652 103.135 191.1C103.135 193.548 105.352 195.533 108.086 195.533ZM177.402 213.267H226.914C229.648 213.267 231.865 211.282 231.865 208.833V155.633C231.865 153.185 229.648 151.2 226.914 151.2H177.402C174.668 151.2 172.451 153.185 172.451 155.633V208.833C172.451 211.282 174.668 213.267 177.402 213.267ZM182.354 160.067H221.963V204.4H182.354V160.067ZM108.086 160.067H127.891C130.625 160.067 132.842 158.082 132.842 155.633C132.842 153.185 130.625 151.2 127.891 151.2H108.086C105.352 151.2 103.135 153.185 103.135 155.633C103.135 158.082 105.352 160.067 108.086 160.067ZM108.086 124.6C110.82 124.6 113.037 122.615 113.037 120.167C113.037 117.718 110.82 115.733 108.086 115.733C105.352 115.733 103.135 117.718 103.135 120.167C103.135 122.615 105.352 124.6 108.086 124.6ZM247.049 98H87.9512C85.2168 98 83 99.985 83 102.433V226.567C83 229.015 85.2168 231 87.9512 231H247.049C249.783 231 252 229.015 252 226.567V102.433C252 99.985 249.783 98 247.049 98ZM242.098 222.133H92.9023V142.333H242.098V222.133ZM242.098 133.467H92.9023V106.867H242.098V133.467ZM108.086 213.267H157.598C160.332 213.267 162.549 211.282 162.549 208.833C162.549 206.385 160.332 204.4 157.598 204.4H108.086C105.352 204.4 103.135 206.385 103.135 208.833C103.135 211.282 105.352 213.267 108.086 213.267ZM127.891 124.6C130.625 124.6 132.842 122.615 132.842 120.167C132.842 117.718 130.625 115.733 127.891 115.733C125.156 115.733 122.939 117.718 122.939 120.167C122.939 122.615 125.156 124.6 127.891 124.6ZM147.695 124.6C150.43 124.6 152.646 122.615 152.646 120.167C152.646 117.718 150.43 115.733 147.695 115.733C144.961 115.733 142.744 117.718 142.744 120.167C142.744 122.615 144.961 124.6 147.695 124.6Z" fill="url(#paint1_linear)"/>
<defs>
<linearGradient id="paint0_linear" x1="57.5" y1="98" x2="57.5" y2="11" gradientUnits="userSpaceOnUse">
<stop stop-color="#FD5900"/>
<stop offset="1" stop-color="#FFDE00"/>
</linearGradient>
<linearGradient id="paint1_linear" x1="167.5" y1="231" x2="167.5" y2="98" gradientUnits="userSpaceOnUse">
<stop stop-color="#FD5900"/>
<stop offset="1" stop-color="#FFDE00"/>
</linearGradient>
</defs>
</svg>
