<svg xmlns="http://www.w3.org/2000/svg" xmlns:xlink="http://www.w3.org/1999/xlink" viewBox="0 0 48 48"><defs><linearGradient id="a"><stop offset="0" stop-color="#fd8536"/><stop offset="1" stop-color="#f04"/></linearGradient><linearGradient xlink:href="#a" id="c" x1="11.165" y1="24.194" x2="36.833" y2="24.194" gradientUnits="userSpaceOnUse" gradientTransform="translate(-.286 -.269) scale(1.01326)"/><linearGradient xlink:href="#a" id="b" x1="5.229" y1="23" x2="42.77" y2="23" gradientUnits="userSpaceOnUse" gradientTransform="translate(-2.715 -1.617) scale(1.0996)"/></defs><path d="M28.43 24.246a4.4 4.4 0 1 1-8.798 0 4.4 4.4 0 1 1 8.799 0z" fill="#101800" fill-opacity=".201" stroke="#565656" stroke-width=".942"/><path d="M7.922 7.922c-5.252 11.815-5.252 19.69 0 31.505 10.504 5.252 21.007 5.252 31.505 0 5.252-11.815 5.252-19.69 0-31.505-10.504-5.252-21.007-5.252-31.505 0z" fill="none" stroke="url(#b)" stroke-width="2"/><path d="M36.128 24.246a12.097 12.097 0 1 1-24.193 0 12.097 12.097 0 1 1 24.193 0z" fill="none" stroke="url(#c)" stroke-width="1.814"/><path d="M14.048 11.937a2.217 2.217 0 1 1-4.435 0 2.217 2.217 0 1 1 4.435 0zm-.102 24.191a2.217 2.217 0 1 1-4.435 0 2.217 2.217 0 1 1 4.435 0zm24.39 0a2.217 2.217 0 1 1-4.435 0 2.217 2.217 0 1 1 4.435 0zm.102-24.191a2.217 2.217 0 1 1-4.434 0 2.217 2.217 0 1 1 4.434 0z" fill="none" stroke="#040404" stroke-width=".735"/><path d="M32.83 24.246a8.798 8.798 0 1 1-17.597 0 8.798 8.798 0 1 1 17.596 0z" fill="none" stroke="#565656" stroke-width="1.886"/><path d="M24.785 22.535a1.71 1.71 0 1 1-3.421 0 1.71 1.71 0 1 1 3.42 0z" fill="#fff"/><path d="M12.94 11.937a1.109 1.11 0 1 1-2.218 0 1.109 1.11 0 1 1 2.218 0m24.39 0a1.108 1.11 0 1 1-2.217 0 1.108 1.11 0 1 1 2.217 0m-.102 24.191a1.109 1.11 0 1 1-2.218 0 1.109 1.11 0 1 1 2.218 0m-24.39 0a1.109 1.11 0 1 1-2.219 0 1.109 1.11 0 1 1 2.218 0" fill="#cbcdc7"/></svg>