<svg xmlns="http://www.w3.org/2000/svg" xmlns:xlink="http://www.w3.org/1999/xlink" viewBox="0 0 48 48"><defs><linearGradient xlink:href="#a" id="b" x1="7.621" y1="9.25" x2="42.879" y2="37.125" gradientUnits="userSpaceOnUse" gradientTransform="translate(-1.895 -1.625) scale(1.0937)"/><linearGradient xlink:href="#a" id="c" x1="7.621" y1="9.25" x2="42.879" y2="37.125" gradientUnits="userSpaceOnUse" gradientTransform="translate(-1.895 -1.625) scale(1.0937)"/><linearGradient id="a" x1="1" x2="47" gradientTransform="rotate(-90 -23.483 45.152)" gradientUnits="userSpaceOnUse"><stop offset="0" stop-color="#005bff"/><stop offset="1" stop-color="#0dd5d7"/></linearGradient><linearGradient xlink:href="#a" id="d" x1="33.782" y1="12.688" x2="39.344" y2="12.688" gradientUnits="userSpaceOnUse"/><linearGradient xlink:href="#a" id="e" x1="34.782" y1="12.688" x2="38.344" y2="12.688" gradientUnits="userSpaceOnUse"/></defs><path d="M15.352 26.23c0-3.49-2.81-6.301-6.302-6.301a6.288 6.288 0 0 0-6.3 6.301v15.304m25.21-8.9c0-.034-.004-.067-.004-.102V26.23c0-3.49-2.81-6.301-6.302-6.301a6.288 6.288 0 0 0-6.301 6.301v15.304m12.607-8.9a8.98 8.98 0 0 0 8.998 8.9 8.982 8.982 0 0 0 9.001-9.002V19.929" fill="none" stroke="url(#b)" stroke-width="2" stroke-linejoin="round" stroke-linecap="round"/><path d="M45.57 14.529a8.982 8.982 0 0 0-9.002-9.002 8.982 8.982 0 0 0-9.002 9.002" fill="none" stroke="url(#c)" stroke-width="2" stroke-linecap="round" stroke-linejoin="round"/><circle cx="36.563" cy="12.688" r="1.781" fill="url(#d)" stroke="url(#e)" stroke-linecap="round" stroke-linejoin="round" paint-order="stroke fill markers"/></svg>