<svg xmlns="http://www.w3.org/2000/svg" xmlns:xlink="http://www.w3.org/1999/xlink" viewBox="0 0 48 48"><defs><linearGradient id="a"><stop stop-color="#00dbff" offset="0"/><stop stop-color="#005aff" offset="1"/></linearGradient><linearGradient xlink:href="#a" id="b" x1="7.258" y1="6.423" x2="42.3" y2="43.01" gradientUnits="userSpaceOnUse"/><linearGradient xlink:href="#a" id="c" gradientUnits="userSpaceOnUse" x1="7.258" y1="6.423" x2="42.3" y2="43.01"/></defs><g stroke="url(#b)" transform="translate(-.724 -.713) scale(1.02987)" fill="none" stroke-width="1.269" stroke-linecap="round" stroke-linejoin="round"><path d="M29.9 11.928l-3.922 3.92h3.693l2.074-2.074zm-.23 3.92l-5.495 5.496-1.846-1.847 3.65-3.649H14.852l8.03 9.369v8.03H17.53v2.676h13.384v-2.676H25.56v-8.03l8.03-9.369z" stroke="url(#c)" stroke-width="1.436"/><path d="M29.9 11.929l1.845 1.846-7.57 7.57-1.846-1.846z" stroke-width="1.339"/><path d="M15.142 4.209L4.55 4.21V14.8m39.341 0V4.21H33.299M4.55 32.957v10.59h10.592m18.157.001H43.89v-10.59" stroke-width="1.845"/></g></svg>