<svg xmlns="http://www.w3.org/2000/svg" xmlns:xlink="http://www.w3.org/1999/xlink" viewBox="0 0 48 48"><defs><linearGradient id="f"><stop offset="0"/><stop offset="1" stop-opacity="0"/></linearGradient><linearGradient id="d"><stop stop-color="#f300ff" offset="0"/><stop stop-color="#12dbb9" offset="1"/></linearGradient><linearGradient id="e"><stop stop-opacity=".996" stop-color="#f300ff" offset="0"/><stop stop-color="#12dbb9" offset="1"/></linearGradient><linearGradient id="c"><stop offset="0" stop-color="#f300ff" stop-opacity="0"/><stop offset="1" stop-color="#12dbb9"/></linearGradient><linearGradient id="b"><stop stop-color="#6255b1" offset="0" stop-opacity="0"/><stop stop-color="#f0a" offset="1"/></linearGradient><linearGradient id="a"><stop offset="0" stop-color="#fff" stop-opacity="0"/><stop offset="1" stop-color="#faff00"/></linearGradient><linearGradient xlink:href="#a" id="g" x1="24" y1="20" x2="34.516" y2="19" gradientUnits="userSpaceOnUse" gradientTransform="matrix(1.38297 0 0 1.87805 -9.191 -15.015)"/><linearGradient xlink:href="#b" id="h" x1="25.446" y1="21.992" x2="35" y2="30.001" gradientUnits="userSpaceOnUse" gradientTransform="matrix(1.38297 0 0 1.87805 -9.191 -15.015)"/><linearGradient xlink:href="#c" id="i" x1="24" y1="22.525" x2="24.18" y2="29.887" gradientUnits="userSpaceOnUse" gradientTransform="matrix(1.38297 0 0 1.87805 -9.191 -15.015)"/><linearGradient xlink:href="#d" id="k" x1="14.709" y1="11.202" x2="39.486" y2="32.489" gradientUnits="userSpaceOnUse" gradientTransform="matrix(.96863 0 0 1.31539 .753 -1.448)"/><linearGradient xlink:href="#e" id="l" x1="9.396" y1="24.017" x2="39.958" y2="24.017" gradientUnits="userSpaceOnUse" gradientTransform="translate(.006 .288)"/><linearGradient xlink:href="#f" id="j" x1="0" y1="33" x2=".144" y2="32.899" gradientUnits="userSpaceOnUse" gradientTransform="translate(0 .288)"/><linearGradient xlink:href="#e" id="m" x1="252.179" y1="322.731" x2="342.179" y2="322.731" gradientUnits="userSpaceOnUse" gradientTransform="translate(-194.585 118.568) scale(.08874)"/></defs><path d="M34.84 7.625L24 22.548c2 1.74 14.536 11.832 14.536 11.832l.453-26.755z" fill="url(#g)"/><path d="M23.997 22.544l6.914 18.778h8.297l-.672-6.942-14.539-11.836" fill="url(#h)"/><path d="M23.997 22.544l6.914 18.778H17.084z" fill="url(#i)"/><path d="M34.836 7.618h4.153l.224 33.704H17.084M34.836 7.618L24 22.538l-6.916 18.784" fill="url(#j)" stroke="url(#k)" stroke-width=".505" stroke-linecap="round" stroke-linejoin="round"/><rect width="29.061" height="34.035" x="10.152" y="7.288" rx="1.072" fill="none" stroke="url(#l)" stroke-width="1.5" stroke-linecap="round" stroke-linejoin="round" paint-order="stroke fill markers"/><path d="M-168.833 143.214l-.198 1.033a3.062 3.062 0 0 0-.691.29l-.889-.58-.86.857.578.888c-.123.215-.215.44-.282.683l-1.03.204v1.237l1.03.203c.067.244.16.484.282.699l-.579.873.861.872.889-.596c.215.122.447.224.691.291l.198 1.033h1.241l.198-1.033a3.08 3.08 0 0 0 .691-.29l.89.595.86-.872-.579-.873a3.1 3.1 0 0 0 .283-.699l1.03-.203v-1.237l-1.03-.204a2.98 2.98 0 0 0-.283-.683l.58-.888-.862-.858-.889.582a3.082 3.082 0 0 0-.691-.291l-.198-1.033zm.621 2.589c.748 0 1.354.625 1.354 1.396 0 .772-.606 1.397-1.354 1.397-.748 0-1.355-.625-1.355-1.397 0-.77.606-1.396 1.355-1.396z" fill="url(#m)" transform="translate(241.709 -181.016) scale(1.33333)"/></svg>