<svg xmlns="http://www.w3.org/2000/svg" xmlns:xlink="http://www.w3.org/1999/xlink" viewBox="0 0 48 48"><defs><linearGradient id="a" gradientUnits="userSpaceOnUse" x1="24" x2="24" y1="2" y2="46"><stop stop-color="#ed257e" offset="0"/><stop stop-color="#9113f7" offset="1"/></linearGradient><linearGradient xlink:href="#a" id="b" x1=".25" y1="24" x2="47.75" y2="24" gradientUnits="userSpaceOnUse"/><linearGradient xlink:href="#a" id="c" x1="11" y1="24" x2="37" y2="24" gradientUnits="userSpaceOnUse"/></defs><path d="M47 24a23 23 0 0 1-23 23A23 23 0 0 1 1 24 23 23 0 0 1 24 1a23 23 0 0 1 23 23z" fill="none" stroke="url(#b)" stroke-width="1.5"/><path d="M11 11v26h26V11H11zm4 2.998h4.326c2.588 0 3.674 1.273 3.674 3.5v.05c0 2.469-1.593 3.45-4 3.45h-2v4h-2v-11zM29.025 14c1.565 0 2.519.522 3.657 1.209l-1.114 1.518c-.963-.662-1.64-.727-2.543-.727-.902 0-2 .441-2 .982v.188c0 .722.695 1.059 2.5 1.54 2.167.603 3.457 1.29 3.457 2.938v.061c0 1.861-1.67 3.291-3.957 3.291-1.625-.06-3.042-.673-4.306-1.816l1.306-1.416c.963.782 1.797 1.232 3 1.232.963 0 2-.45 2-1.111v-.06c0-.604-.676-1.04-2.482-1.52-2.167-.542-3.564-1.78-3.564-3.174v-.06c0-1.987 1.88-3.075 4.046-3.075zM17 15.998v3h2c1.204 0 2-.545 2-1.45v-.05c0-1.083-.796-1.5-2-1.5h-2zM13 32h10v2H13v-2z" fill="url(#c)"/></svg>