<svg width="64" height="64" viewBox="0 0 64 64" fill="none" xmlns="http://www.w3.org/2000/svg">
<path d="M16.3648 9.59641C17.1356 5.94538 20.7583 3.06152 24.7321 3.01332C34.8935 2.99725 45.0507 3.0093 55.2078 3.00127C59.7554 2.92094 63.9861 6.66434 63.9947 10.954C63.999 17.1274 63.9904 23.3008 63.9947 29.4742C64.0932 31.844 62.8086 34.1494 60.9287 35.6838C59.8924 36.5915 58.5179 37.0052 57.2889 37.6278C54.0902 37.8366 50.8786 37.7683 47.6713 37.7603C43.1622 42.4677 38.8759 47.3678 34.4353 52.1395C33.99 52.5853 33.5104 53.0311 32.8895 53.248C31.2751 53.734 29.5794 52.2439 29.6736 50.7337C29.6436 46.4039 29.6779 42.07 29.6565 37.7402C27.4298 37.7161 25.1988 37.8125 22.9764 37.6438C21.6532 36.9932 20.1759 36.5393 19.0882 35.5311C17.6152 34.3302 16.7031 32.6312 16.3134 30.8519C14.9089 30.3016 13.3631 30.6109 11.89 30.5386C10.19 30.6189 8.33158 30.2173 6.7943 31.0969C5.59531 31.7194 4.91017 33.0088 4.91445 34.274C4.90589 36.5554 4.89732 38.8408 4.91873 41.1221C4.91445 42.8332 6.33183 44.4398 8.16457 44.6446C9.25651 44.8214 10.6396 44.6366 11.3248 45.6488C12.7593 47.4843 14.0867 49.3841 15.457 51.2599C15.4227 49.6292 15.32 47.9984 15.3799 46.3677C15.6797 45.3355 16.7245 44.5442 17.885 44.6085C20.0132 44.6928 22.1714 44.4639 24.2781 44.7491C26.098 45.0945 26.5991 47.6771 25.096 48.6371C23.7729 49.6854 21.9144 49.1472 20.3386 49.2797C20.3515 52.3122 20.3643 55.3447 20.3386 58.3731C20.4071 59.546 19.3965 60.4175 18.3945 60.9397C17.2512 61.2329 16.3134 60.4015 15.654 59.6424C13.1104 56.2645 10.6867 52.8062 8.14316 49.4323C5.3812 48.8459 2.55929 47.5807 1.20615 45.1025C-0.652289 42.1865 0.251236 38.6921 0.0328488 35.4829C-0.138436 33.3702 0.354006 31.2013 1.67718 29.4662C3.30438 27.3053 6.09203 25.9557 8.90966 25.9718C11.2434 25.9678 13.5772 25.9798 15.9109 25.9718C15.9623 20.5173 15.7867 15.0589 16.0051 9.61248C16.095 9.60846 16.2749 9.60043 16.3648 9.59641ZM21.0494 11.3516C21.0494 17.3925 21.0409 23.4334 21.0537 29.4782C21.0323 31.3419 22.728 33.0047 24.7064 33.1132C27.3142 33.1534 29.9348 33.1935 32.5383 32.9606C33.6945 33.2859 34.6323 34.2659 34.6409 35.4388C34.688 38.5516 34.6794 41.6644 34.6237 44.7772C37.5184 41.7246 40.3061 38.5837 43.1537 35.487C44.0315 34.5591 44.828 33.4345 46.1212 32.9806C47.697 32.8079 49.2899 32.9124 50.87 32.8963C52.7927 32.9124 54.801 33.4948 56.668 32.8401C58.2824 32.2777 59.2715 30.647 59.1602 29.0605C59.1431 23.1562 59.1602 17.2519 59.1474 11.3516C59.2244 9.34337 57.3146 7.51183 55.1607 7.59618C45.0507 7.60019 34.9449 7.58815 24.8348 7.59618C22.7452 7.60421 20.9638 9.3996 21.0494 11.3516Z" fill="#C259F0"/>
</svg>
