<?xml version="1.0" encoding="UTF-8" ?>
<!DOCTYPE svg PUBLIC "-//W3C//DTD SVG 1.1//EN" "http://www.w3.org/Graphics/SVG/1.1/DTD/svg11.dtd">
<svg width="192pt" height="192pt" viewBox="0 0 192 192" version="1.1" xmlns="http://www.w3.org/2000/svg">
<g id="#ff3661ff">
<path fill="#ff3661" opacity="1.00" d=" M 35.51 17.62 C 37.94 16.96 40.46 16.73 42.97 16.73 C 76.30 16.74 109.64 16.73 142.97 16.73 C 147.72 16.76 152.61 16.38 157.20 17.91 C 165.07 20.34 171.47 26.92 173.66 34.86 C 174.79 38.46 174.58 42.27 174.60 45.99 C 174.59 62.64 174.60 79.30 174.59 95.95 C 174.60 112.51 169.10 128.99 159.24 142.28 C 147.53 158.28 129.53 169.53 110.01 172.99 C 92.98 176.18 74.92 173.45 59.57 165.42 C 34.72 152.75 17.73 126.04 17.18 98.10 C 17.07 79.06 17.12 60.02 17.16 40.98 C 17.21 30.25 25.14 20.26 35.51 17.62 M 40.43 28.66 C 33.93 29.33 28.70 35.40 28.92 41.92 C 28.84 55.27 28.88 68.63 28.99 81.98 C 28.75 93.17 28.41 104.64 31.94 115.42 C 37.40 133.27 50.77 148.43 67.70 156.24 C 81.77 162.81 98.15 164.18 113.13 160.16 C 128.02 156.24 141.40 146.93 150.32 134.39 C 158.29 123.30 162.69 109.72 162.78 96.07 C 162.82 78.02 162.81 59.97 162.79 41.92 C 163.12 34.60 156.34 28.12 149.07 28.55 C 112.86 28.62 76.63 28.38 40.43 28.66 Z" />
<path fill="#ff3661" opacity="1.00" d=" M 65.13 76.04 C 67.85 75.16 70.94 76.03 72.87 78.11 C 79.76 84.91 86.54 91.83 93.45 98.62 C 94.51 99.82 96.59 100.12 97.74 98.85 C 104.90 91.97 111.76 84.76 118.90 77.85 C 121.46 75.36 125.82 75.01 128.67 77.22 C 132.21 79.77 132.80 85.59 129.48 88.56 C 120.70 97.43 111.81 106.20 103.02 115.07 C 100.03 119.32 93.36 120.20 89.71 116.33 C 80.38 106.97 70.94 97.71 61.72 88.25 C 58.04 84.48 60.02 77.35 65.13 76.04 Z" />
</g>
</svg>
