<?xml version="1.0" encoding="UTF-8" ?>
<!DOCTYPE svg PUBLIC "-//W3C//DTD SVG 1.1//EN" "http://www.w3.org/Graphics/SVG/1.1/DTD/svg11.dtd">
<svg width="192pt" height="192pt" viewBox="0 0 192 192" version="1.1" xmlns="http://www.w3.org/2000/svg">
<g id="#f6aa26ff">
<path fill="#f6aa26" opacity="1.00" d=" M 97.01 15.02 C 96.65 10.67 101.79 7.33 105.65 9.28 C 108.43 10.33 109.25 13.40 109.81 16.00 C 112.16 26.64 114.97 37.18 117.38 47.80 C 117.82 51.17 117.67 54.78 115.67 57.67 C 108.59 68.74 101.54 79.84 94.61 91.01 C 83.51 83.28 71.79 76.48 60.58 68.93 C 62.34 65.12 64.82 61.61 68.50 59.44 C 76.06 63.94 83.28 69.00 90.91 73.38 C 95.58 65.90 100.67 58.63 104.99 50.94 C 103.10 38.83 99.01 27.12 97.01 15.02 Z" />
</g>
<g id="#f69d1cff">
<path fill="#f69d1c" opacity="1.00" d=" M 47.21 19.39 C 58.41 16.16 69.93 14.05 81.29 11.42 C 84.90 10.27 87.85 13.04 89.47 15.96 C 88.91 18.75 88.23 22.27 85.00 23.08 C 77.42 25.28 69.60 26.53 61.94 28.43 C 62.17 29.62 62.39 30.81 62.60 32.01 C 64.84 41.09 66.53 50.30 68.50 59.44 C 64.82 61.61 62.34 65.12 60.58 68.93 C 55.12 64.17 55.46 56.40 53.83 49.93 C 52.01 39.66 48.67 29.70 47.21 19.39 Z" />
</g>
<g id="#01000040">
<path fill="#010000" opacity="0.25" d=" M 89.47 15.96 C 90.09 19.10 90.40 23.31 86.90 24.88 C 79.14 28.35 70.11 27.78 62.60 32.01 C 62.39 30.81 62.17 29.62 61.94 28.43 C 69.60 26.53 77.42 25.28 85.00 23.08 C 88.23 22.27 88.91 18.75 89.47 15.96 Z" />
<path fill="#010000" opacity="0.25" d=" M 182.77 100.95 C 183.24 103.13 184.27 105.63 182.75 107.66 C 181.05 110.80 177.28 111.50 174.11 112.25 C 165.44 114.03 156.92 116.47 148.29 118.42 C 144.49 119.17 140.32 120.12 136.66 118.31 C 131.83 116.03 127.57 112.76 123.00 110.02 C 120.15 108.19 116.76 106.75 115.19 103.54 C 116.01 104.04 116.84 104.54 117.67 105.04 C 123.31 108.45 128.73 112.21 134.37 115.61 C 138.46 118.16 143.42 116.90 147.78 115.92 C 156.66 113.76 165.52 111.50 174.45 109.55 C 176.67 108.94 179.19 108.62 180.91 106.94 C 182.47 105.36 182.32 102.97 182.77 100.95 Z" />
</g>
<g id="#f6bc35ff">
<path fill="#f6bc35" opacity="1.00" d=" M 146.90 52.29 C 155.28 50.59 163.49 47.91 171.97 46.75 C 175.03 56.89 176.70 67.40 179.34 77.65 C 179.92 80.77 180.94 84.77 178.06 87.11 C 175.94 89.29 172.82 88.42 170.20 88.04 C 169.16 86.31 167.96 84.61 167.59 82.57 C 166.17 76.30 164.80 70.01 163.39 63.73 C 163.26 63.17 162.99 62.06 162.86 61.50 C 154.81 62.87 146.95 65.19 138.88 66.45 C 140.61 61.23 144.09 56.94 146.90 52.29 Z" />
</g>
<g id="#00000041">
<path fill="#000000" opacity="0.25" d=" M 117.38 47.80 C 120.22 53.89 116.91 60.32 113.33 65.25 C 109.08 71.99 104.63 78.61 100.58 85.47 C 98.94 88.02 97.49 91.32 94.12 91.81 L 94.61 91.01 C 101.54 79.84 108.59 68.74 115.67 57.67 C 117.67 54.78 117.82 51.17 117.38 47.80 Z" />
<path fill="#000000" opacity="0.25" d=" M 179.34 77.65 C 181.16 80.61 181.48 84.27 180.55 87.57 C 178.60 91.50 172.35 92.15 170.20 88.04 C 172.82 88.42 175.94 89.29 178.06 87.11 C 180.94 84.77 179.92 80.77 179.34 77.65 Z" />
<path fill="#000000" opacity="0.25" d=" M 29.05 91.22 C 35.82 89.73 42.48 87.72 49.29 86.41 C 51.23 85.78 52.96 86.98 54.53 87.94 C 60.84 92.15 67.35 96.04 73.66 100.25 C 73.53 100.53 73.26 101.09 73.13 101.38 C 66.92 97.86 61.25 93.48 55.02 90.02 C 51.87 88.09 48.12 89.19 44.78 89.89 C 36.75 91.90 28.74 94.02 20.64 95.78 C 17.75 96.29 13.85 97.20 12.11 94.07 C 17.92 94.46 23.45 92.39 29.05 91.22 Z" />
<path fill="#000000" opacity="0.25" d=" M 87.80 137.83 C 92.18 131.08 96.33 124.17 100.90 117.54 C 103.05 118.87 105.22 120.17 107.33 121.59 C 105.57 121.22 103.81 120.92 102.06 120.52 C 97.49 125.03 94.91 131.01 91.22 136.19 C 89.05 139.09 87.97 142.59 87.71 146.18 C 87.23 143.43 85.71 140.27 87.80 137.83 Z" />
</g>
<g id="#f6b32eff">
<path fill="#f6b32e" opacity="1.00" d=" M 128.84 55.99 C 134.80 54.47 140.89 53.59 146.90 52.29 C 144.09 56.94 140.61 61.23 138.88 66.45 C 136.63 66.94 134.26 67.18 132.18 68.23 C 130.59 69.68 129.59 71.64 128.46 73.44 C 125.14 79.26 121.08 84.61 117.90 90.51 C 118.39 90.81 119.35 91.42 119.84 91.72 C 122.45 93.38 125.08 95.02 127.66 96.72 C 126.01 96.75 123.93 96.29 122.70 97.71 C 120.64 99.87 119.22 102.52 117.67 105.04 C 116.84 104.54 116.01 104.04 115.19 103.54 C 110.35 100.35 105.23 97.58 100.54 94.16 C 106.87 84.27 113.42 74.50 119.47 64.43 C 121.72 60.85 124.52 57.09 128.84 55.99 Z" />
</g>
<g id="#00000040">
<path fill="#000000" opacity="0.25" d=" M 138.88 66.45 C 146.95 65.19 154.81 62.87 162.86 61.50 C 162.99 62.06 163.26 63.17 163.39 63.73 C 156.96 65.40 150.44 66.70 143.94 68.04 C 140.46 68.80 136.79 69.02 133.55 70.60 C 131.64 72.04 130.51 74.23 129.24 76.21 C 126.20 81.43 122.59 86.32 119.84 91.72 C 119.35 91.42 118.39 90.81 117.90 90.51 C 121.08 84.61 125.14 79.26 128.46 73.44 C 129.59 71.64 130.59 69.68 132.18 68.23 C 134.26 67.18 136.63 66.94 138.88 66.45 Z" />
<path fill="#000000" opacity="0.25" d=" M 74.53 122.56 C 79.72 114.16 85.15 105.92 90.50 97.63 C 90.99 99.67 90.81 101.78 89.46 103.47 C 84.80 110.19 80.53 117.17 76.13 124.06 C 73.93 127.50 72.02 131.20 69.08 134.08 C 66.15 136.82 62.05 137.59 58.27 138.41 C 48.39 140.25 38.56 142.37 28.84 144.94 C 25.84 145.56 22.20 147.11 19.85 144.30 C 31.67 141.71 43.35 138.53 55.27 136.43 C 59.20 135.60 63.45 135.20 66.82 132.82 C 70.26 130.15 72.27 126.18 74.53 122.56 Z" />
</g>
<g id="#f69f1dff">
<path fill="#f69f1d" opacity="1.00" d=" M 41.56 75.41 C 45.32 74.61 49.11 73.38 53.01 73.65 C 56.05 73.92 58.53 75.84 60.99 77.45 C 58.14 80.47 55.91 84.02 54.53 87.94 C 52.96 86.98 51.23 85.78 49.29 86.41 C 42.48 87.72 35.82 89.73 29.05 91.22 C 23.45 92.39 17.92 94.46 12.11 94.07 C 10.66 92.09 8.65 90.05 9.16 87.36 C 9.41 84.34 12.11 82.22 14.95 81.80 C 23.84 79.74 32.70 77.60 41.56 75.41 Z" />
</g>
<g id="#f6ab28ff">
<path fill="#f6ab28" opacity="1.00" d=" M 54.53 87.94 C 55.91 84.02 58.14 80.47 60.99 77.45 C 71.02 83.83 81.02 90.25 91.18 96.42 C 91.01 96.72 90.67 97.33 90.50 97.63 C 85.15 105.92 79.72 114.16 74.53 122.56 C 72.27 126.18 70.26 130.15 66.82 132.82 C 63.45 135.20 59.20 135.60 55.27 136.43 C 43.35 138.53 31.67 141.71 19.85 144.30 C 19.26 142.59 18.48 140.89 18.38 139.06 C 20.37 134.67 22.56 129.63 27.49 127.92 C 30.09 129.73 33.12 128.43 35.89 127.87 C 43.06 126.06 50.35 124.75 57.60 123.31 C 60.26 123.11 61.18 120.33 62.51 118.46 C 65.79 112.61 69.89 107.25 73.13 101.38 C 73.26 101.09 73.53 100.53 73.66 100.25 C 67.35 96.04 60.84 92.15 54.53 87.94 Z" />
</g>
<g id="#f6c039ff">
<path fill="#f6c039" opacity="1.00" d=" M 122.70 97.71 C 123.93 96.29 126.01 96.75 127.66 96.72 C 131.99 99.20 135.95 102.29 140.36 104.63 C 152.37 102.56 164.05 98.75 176.03 96.53 C 179.14 96.07 181.20 98.71 182.77 100.95 C 182.32 102.97 182.47 105.36 180.91 106.94 C 179.19 108.62 176.67 108.94 174.45 109.55 C 165.52 111.50 156.66 113.76 147.78 115.92 C 143.42 116.90 138.46 118.16 134.37 115.61 C 128.73 112.21 123.31 108.45 117.67 105.04 C 119.22 102.52 120.64 99.87 122.70 97.71 Z" />
</g>
<g id="#f6b630ff">
<path fill="#f6b630" opacity="1.00" d=" M 76.11 133.09 C 83.18 122.20 90.01 111.15 96.96 100.18 C 105.99 105.78 114.75 111.83 123.87 117.30 C 119.36 118.64 117.15 122.77 115.57 126.85 C 112.78 125.17 110.05 123.38 107.33 121.59 C 105.22 120.17 103.05 118.87 100.90 117.54 C 96.33 124.17 92.18 131.08 87.80 137.83 C 85.71 140.27 87.23 143.43 87.71 146.18 C 90.19 155.75 92.55 165.37 94.63 175.04 C 95.71 179.55 90.49 183.80 86.30 181.85 C 83.14 180.78 82.32 177.26 81.73 174.38 C 79.54 164.14 76.68 154.04 74.53 143.79 C 73.66 140.18 73.89 136.19 76.11 133.09 Z" />
</g>
<g id="#f6a11fff">
<path fill="#f6a11f" opacity="1.00" d=" M 15.48 102.53 C 18.92 101.05 23.14 103.47 23.82 107.10 C 25.49 113.86 26.83 120.69 28.45 127.46 L 27.49 127.92 C 22.56 129.63 20.37 134.67 18.38 139.06 C 16.08 129.39 13.91 119.69 11.79 109.99 C 10.90 107.01 12.54 103.59 15.48 102.53 Z" />
</g>
<g id="#f6c33bff">
<path fill="#f6c33b" opacity="1.00" d=" M 115.57 126.85 C 117.15 122.77 119.36 118.64 123.87 117.30 C 128.68 120.17 134.33 123.41 135.51 129.40 C 138.27 142.66 140.75 156.00 144.49 169.04 C 144.79 172.57 140.93 172.69 138.42 173.31 C 129.14 175.28 119.92 177.55 110.64 179.48 C 108.27 180.17 106.03 179.03 103.89 178.19 C 103.30 176.20 102.06 174.19 102.75 172.06 C 103.37 169.52 105.71 167.81 108.19 167.35 C 115.40 165.65 122.67 164.25 129.84 162.40 C 127.50 152.55 125.51 142.62 123.47 132.71 C 121.84 129.84 118.20 128.72 115.57 126.85 Z" />
</g>
<g id="#00000038">
<path fill="#000000" opacity="0.22" d=" M 144.49 169.04 C 146.77 169.49 145.88 172.70 145.13 174.15 C 142.98 175.68 140.25 175.99 137.75 176.61 C 129.80 178.26 121.89 180.06 113.99 181.93 C 111.71 182.33 109.18 183.13 107.00 181.99 C 105.43 181.25 104.82 179.52 103.89 178.19 C 106.03 179.03 108.27 180.17 110.64 179.48 C 119.92 177.55 129.14 175.28 138.42 173.31 C 140.93 172.69 144.79 172.57 144.49 169.04 Z" />
</g>
</svg>
