<svg xmlns="http://www.w3.org/2000/svg" xmlns:xlink="http://www.w3.org/1999/xlink" width="48" height="48"><defs><linearGradient xlink:href="#a" id="b" x1="3" y1="24" x2="45" y2="24" gradientUnits="userSpaceOnUse" gradientTransform="translate(1.15 1.15) scale(.95206)"/><linearGradient id="a"><stop stop-color="#ffc614" offset="0"/><stop stop-color="#ff5714" offset="1"/></linearGradient><linearGradient gradientUnits="userSpaceOnUse" y2="22" x2="32" y1="11.997" x1="16.093" id="c" xlink:href="#a"/><linearGradient xlink:href="#a" id="d" gradientUnits="userSpaceOnUse" x1="16.093" y1="11.997" x2="32" y2="22"/><linearGradient xlink:href="#a" id="e" gradientUnits="userSpaceOnUse" x1="16.093" y1="11.997" x2="32" y2="22"/></defs><path d="M7 34v3h3v-3zm3 3v3h3v-3zM35 8v3h3V8zm3 3v3h3v-3z" fill="#ff5a14"/><rect width="38.041" height="38.041" x="5" y="5" ry="0" fill="none" stroke="url(#b)" stroke-width="2" stroke-linecap="round" paint-order="markers stroke fill"/><path d="M15.131 23.303v6.598c0 4.398 3.3 7.696 8.797 7.696 5.498 0 8.797-3.298 8.797-7.696v-6.598m-17.594 0" fill="none" stroke="#ff002f" stroke-width="1.099"/><g transform="translate(-2.39 -1.94) scale(1.0996)" fill="none" stroke="url(#c)" stroke-linecap="round" stroke-linejoin="round"><path d="M24 12v10h-8v-3c0-3 4-7 8-7" stroke="url(#d)"/><path d="M24 12v10h8v-3c0-3-4-7-8-7m0 0" stroke="url(#e)"/></g><path d="M24 18c.755 0 1.372.921 1.372 2.058v5.486c0 1.137-.617 2.058-1.372 2.058-.755 0-1.372-.921-1.372-2.058v-5.486C22.628 18.92 23.244 18 24 18m0 0" fill="#f50035"/></svg>