<svg xmlns="http://www.w3.org/2000/svg" xmlns:xlink="http://www.w3.org/1999/xlink" width="48" height="48"><defs><linearGradient id="a"><stop stop-color="#d91dd4"/><stop offset="1" stop-color="#008aff"/></linearGradient><linearGradient xlink:href="#a" id="e" gradientUnits="userSpaceOnUse" x1="8.595" y1="13.704" x2="40.228" y2="43.942"/><linearGradient xlink:href="#a" id="f" gradientUnits="userSpaceOnUse" x1="8.595" y1="13.704" x2="40.228" y2="43.942"/><linearGradient xlink:href="#a" id="g" gradientUnits="userSpaceOnUse" x1="8.595" y1="13.704" x2="40.228" y2="43.942"/><linearGradient xlink:href="#a" id="h" gradientUnits="userSpaceOnUse" x1="8.595" y1="13.704" x2="40.228" y2="43.942"/><linearGradient xlink:href="#a" id="i" gradientUnits="userSpaceOnUse" x1="8.595" y1="13.704" x2="40.228" y2="43.942"/><linearGradient xlink:href="#a" id="j" x1="4.595" y1="5.299" x2="43.704" y2="42.701" gradientUnits="userSpaceOnUse" gradientTransform="matrix(1.04126 0 0 .91587 -.79 3.863)"/><linearGradient xlink:href="#a" id="b" x1="386.571" y1="541.034" x2="414" y2="541.034" gradientUnits="userSpaceOnUse"/><linearGradient xlink:href="#a" id="c" gradientUnits="userSpaceOnUse" x1="386.571" y1="541.034" x2="414" y2="541.034"/><linearGradient xlink:href="#a" id="d" gradientUnits="userSpaceOnUse" x1="386.571" y1="541.034" x2="414" y2="541.034"/></defs><g transform="translate(-503.077 -673.73) scale(1.31642)" fill="url(#b)" stroke-width="1.367"><circle r="2.094" cy="541.442" cx="411.906" fill="url(#c)"/><path d="M386.571 538.532v2.492h2.492v-2.492zm2.492 2.492v2.493h2.493v-2.493z" fill="url(#d)"/></g><g transform="translate(6.866 7.081) scale(.71667)" fill="none" stroke="url(#e)" stroke-width="2.512" stroke-linecap="round" stroke-linejoin="round"><path d="M21.984 32.417a4.937 4.937 0 0 0-4.948 4.947 4.937 4.937 0 0 0 4.948 4.949 4.937 4.937 0 0 0 4.948-4.949 4.937 4.937 0 0 0-4.948-4.947" stroke="url(#f)"/><path d="M30.44 8.78l-4.392 4.393 6.588 6.59-6.59 6.588 4.393 4.392 10.982-10.981z" stroke="url(#g)"/><path d="M11.427 21.829a3.703 3.703 0 0 0-3.712 3.71 3.704 3.704 0 0 0 3.712 3.712 3.704 3.704 0 0 0 3.71-3.712 3.704 3.704 0 0 0-3.71-3.711" stroke="url(#h)"/><path d="M16.065 11.243a2.468 2.468 0 0 0-2.474 2.473 2.468 2.468 0 0 0 2.474 2.474 2.468 2.468 0 0 0 2.473-2.474 2.468 2.468 0 0 0-2.473-2.473" stroke="url(#i)"/></g><rect width="41.606" height="36.595" x="3.421" y="7.567" ry="0" fill="none" stroke="url(#j)" stroke-width="1.8" stroke-linecap="round" paint-order="markers stroke fill"/></svg>