<svg width="64" height="64" viewBox="0 0 64 64" fill="none" xmlns="http://www.w3.org/2000/svg">
<path d="M13.7556 0.096759C14.2683 0.0261658 14.7891 -0.00705515 15.31 0.00124993C26.7115 0.0261652 38.117 -0.00705477 49.5185 0.0178605C52.025 0.0303181 54.1613 2.45955 53.9904 5.00091C53.9782 23.0022 53.9904 41.0034 53.9863 59.0047C54.0677 60.836 53.0382 62.6382 51.4391 63.4604C50.2265 64.1373 48.8024 63.9753 47.4758 63.9961C45.0222 63.9462 42.5645 64.0625 40.1149 63.9462C38.7437 63.8756 37.7508 62.3101 38.1618 60.9938C38.3897 60.0761 39.2197 59.3286 40.1556 59.2788C42.5726 59.1584 44.9978 59.3037 47.4189 59.2206C48.5826 59.2373 49.4738 58.0621 49.3517 56.9201C49.3557 40.3017 49.3558 23.6873 49.3476 7.06888C49.49 5.77744 48.3507 4.60227 47.0812 4.76006C37.0265 4.76006 26.9678 4.76006 16.9132 4.76006C15.6436 4.59396 14.5002 5.76913 14.6427 7.06057C14.6345 23.6915 14.6345 40.3183 14.6386 56.9451C14.5206 58.087 15.4239 59.2456 16.5836 59.2248C19.5418 59.2912 22.5041 59.1833 25.4623 59.2663C27.0818 59.2206 28.2455 61.2097 27.4724 62.6548C27.0655 63.5933 26.0401 64.0501 25.0716 63.9878C21.5356 63.9795 17.9956 64.0251 14.4595 63.9629C11.9611 63.9255 9.86558 61.5212 10.0121 58.9923C10.008 41.0034 10.008 23.0105 10.008 5.01752C9.86965 2.72947 11.542 0.512013 13.7556 0.096759Z" fill="#C259F0"/>
<path d="M29.5395 20.7182C29.5232 19.4185 30.7602 18.3098 32.0175 18.4509C33.1731 18.5091 34.1782 19.5804 34.1334 20.7722C34.1782 22.5038 34.1334 24.2396 34.1497 25.9712C35.9564 23.7662 37.7467 21.5446 39.5778 19.3603C40.4893 18.0938 42.5889 18.2226 43.3539 19.5846C43.9073 20.4898 43.7608 21.7231 43.0569 22.4997C41.5595 24.3725 39.9929 26.1871 38.5158 28.0765C40.0905 29.9992 41.6978 31.8927 43.2278 33.8527C44.2979 35.1608 43.4109 37.453 41.7263 37.5983C40.7863 37.7852 39.9196 37.2578 39.3703 36.5187C37.6369 34.3801 35.8709 32.2706 34.1497 30.1237C34.1212 32.0007 34.2148 33.8818 34.0968 35.7546C33.8445 37.3533 31.7815 38.2046 30.5201 37.2038C29.6168 36.6349 29.4662 35.4764 29.5069 34.4881C29.5435 29.8995 29.4744 25.3068 29.5395 20.7182Z" fill="#C259F0"/>
<path d="M19.5173 31.1454C18.8948 29.501 20.5468 27.6116 22.2151 28.114C23.5457 28.5708 24.8234 29.1688 26.1255 29.7003C27.1753 30.1155 27.8101 31.3198 27.4967 32.4451C27.1183 33.8736 26.9271 35.4599 27.7043 36.7928C28.5832 38.9438 31.0246 40.1315 33.23 39.7868C34.2025 39.6207 35.0326 38.8483 36.0662 39.0061C37.4171 38.9895 37.9705 40.4138 38.6052 41.3814C39.1546 42.378 40.0335 43.2459 40.2125 44.4086C40.42 45.9575 38.8168 47.3901 37.3438 46.9209C36.0906 46.6136 35.6023 45.2557 34.8983 44.3048C33.9136 44.4833 32.9167 44.6121 31.9157 44.6453C31.6472 45.6917 31.5983 46.979 30.638 47.6476C29.5638 48.4781 27.8141 48.0794 27.2445 46.8129C26.6585 45.6834 27.2689 44.4293 27.4683 43.2791C26.569 42.6894 25.743 41.9877 24.9902 41.2111C24.0258 41.7468 23.0208 42.5981 21.8448 42.2908C20.4858 42.0292 19.676 40.3474 20.2538 39.0809C20.6974 37.9971 21.8937 37.6026 22.7888 37.0005C22.5569 35.7879 22.4755 34.5546 22.5122 33.3213C21.4054 32.823 19.8917 32.5074 19.5173 31.1454Z" fill="#C259F0"/>
</svg>
