<?xml version="1.0" encoding="UTF-8" ?>
<!DOCTYPE svg PUBLIC "-//W3C//DTD SVG 1.1//EN" "http://www.w3.org/Graphics/SVG/1.1/DTD/svg11.dtd">
<svg width="192pt" height="192pt" viewBox="0 0 192 192" version="1.1" xmlns="http://www.w3.org/2000/svg">
<g id="#ff4140ff">
<path fill="#ff4140" opacity="1.00" d=" M 7.57 34.05 C 7.42 26.33 14.24 19.32 21.99 19.41 C 34.77 19.37 47.56 19.41 60.35 19.40 C 57.90 23.48 55.32 27.46 52.69 31.41 C 43.44 31.43 34.19 31.41 24.94 31.39 C 23.17 31.59 20.60 30.98 19.86 33.15 C 18.92 34.60 19.64 36.39 19.57 37.98 C 19.68 47.78 19.61 57.57 19.60 67.37 C 15.10 71.99 11.63 77.45 7.56 82.43 C 7.54 66.30 7.51 50.18 7.57 34.05 Z" />
</g>
<g id="#ff4c3eff">
<path fill="#ff4c3e" opacity="1.00" d=" M 60.35 19.40 C 72.04 19.40 83.74 19.39 95.44 19.40 C 92.80 23.41 90.06 27.35 87.49 31.41 C 75.89 31.42 64.29 31.41 52.69 31.41 C 55.32 27.46 57.90 23.48 60.35 19.40 Z" />
</g>
<g id="#ff563dff">
<path fill="#ff563d" opacity="1.00" d=" M 95.44 19.40 C 105.09 19.39 114.75 19.39 124.40 19.40 C 121.81 23.39 119.20 27.37 116.68 31.41 C 106.95 31.42 97.22 31.41 87.49 31.41 C 90.06 27.35 92.80 23.41 95.44 19.40 Z" />
<path fill="#ff563d" opacity="1.00" d=" M 20.34 115.13 C 32.97 115.75 45.64 115.22 58.30 115.40 C 55.69 119.31 53.08 123.22 50.56 127.18 C 40.32 127.20 30.08 127.26 19.85 127.24 C 17.48 126.87 15.32 125.74 13.33 124.45 C 15.52 121.24 17.86 118.12 20.34 115.13 Z" />
</g>
<g id="#ff623cff">
<path fill="#ff623c" opacity="1.00" d=" M 124.40 19.40 C 136.92 19.42 149.44 19.36 161.97 19.42 C 165.50 19.36 168.69 21.07 171.51 23.04 C 169.41 26.78 167.11 30.42 164.34 33.71 C 163.59 31.96 161.90 31.22 160.07 31.42 C 145.61 31.38 131.14 31.43 116.68 31.41 C 119.20 27.37 121.81 23.39 124.40 19.40 Z" />
</g>
<g id="#ff6e3aff">
<path fill="#ff6e3a" opacity="1.00" d=" M 171.51 23.04 C 173.93 25.87 176.10 29.18 176.20 33.04 C 176.39 39.69 176.27 46.35 176.26 53.01 C 176.48 56.09 174.11 59.21 170.97 59.46 C 167.75 59.95 164.36 57.36 164.30 54.04 C 164.11 47.61 164.19 41.18 164.32 34.75 L 164.34 33.71 C 167.11 30.42 169.41 26.78 171.51 23.04 Z" />
</g>
<g id="#00000043">
<path fill="#000000" opacity="0.26" d=" M 19.86 33.15 C 20.60 30.98 23.17 31.59 24.94 31.39 C 34.19 31.41 43.44 31.43 52.69 31.41 C 64.29 31.41 75.89 31.42 87.49 31.41 C 97.22 31.41 106.95 31.42 116.68 31.41 C 131.14 31.43 145.61 31.38 160.07 31.42 C 161.90 31.22 163.59 31.96 164.34 33.71 L 164.32 34.75 C 161.57 34.18 158.80 33.64 155.98 33.60 C 113.66 33.65 71.34 33.68 29.02 33.59 C 26.02 33.39 23.13 34.30 20.20 34.67 C 20.11 34.29 19.94 33.53 19.86 33.15 Z" />
</g>
<g id="#ff653bff">
<path fill="#ff653b" opacity="1.00" d=" M 101.69 77.75 C 109.09 67.18 121.20 60.06 134.05 58.83 C 142.57 57.89 151.24 59.63 158.94 63.32 C 156.88 66.18 154.87 69.07 152.90 71.99 C 142.50 67.36 129.85 68.12 120.23 74.26 C 108.17 81.54 101.44 96.51 104.20 110.36 C 104.34 111.32 104.53 112.28 104.76 113.23 C 101.76 116.05 99.26 119.36 97.35 123.01 C 96.40 120.84 95.58 118.62 94.84 116.38 C 91.27 103.34 93.69 88.71 101.69 77.75 Z" />
</g>
<g id="#ff7439ff">
<path fill="#ff7439" opacity="1.00" d=" M 152.90 71.99 C 154.87 69.07 156.88 66.18 158.94 63.32 C 165.33 66.67 170.94 71.41 175.30 77.17 C 173.35 80.23 171.09 83.10 168.49 85.64 C 164.75 79.71 159.27 74.91 152.90 71.99 Z" />
<path fill="#ff7439" opacity="1.00" d=" M 143.26 90.22 C 146.59 87.19 149.36 83.49 153.07 80.91 C 156.88 78.92 161.54 83.08 160.22 87.11 C 158.19 91.51 153.12 93.70 151.01 97.98 C 154.02 102.48 161.36 105.35 159.68 111.80 C 157.67 113.91 154.24 115.71 151.69 113.34 C 146.98 109.07 142.52 104.48 138.23 99.79 C 136.84 95.58 140.72 92.82 143.26 90.22 Z" />
</g>
<g id="#ff4a3fff">
<path fill="#ff4a3f" opacity="1.00" d=" M 7.56 82.43 C 11.63 77.45 15.10 71.99 19.60 67.37 C 19.65 81.61 19.61 95.85 19.61 110.09 C 19.58 111.80 19.93 113.47 20.34 115.13 C 17.86 118.12 15.52 121.24 13.33 124.45 C 12.52 123.76 11.74 123.05 10.98 122.32 C 8.67 119.44 7.44 115.75 7.54 112.06 C 7.54 102.18 7.54 92.30 7.56 82.43 Z" />
</g>
<g id="#0000003f">
<path fill="#000000" opacity="0.25" d=" M 120.23 74.26 C 129.85 68.12 142.50 67.36 152.90 71.99 C 159.27 74.91 164.75 79.71 168.49 85.64 C 172.59 92.38 174.43 100.45 173.43 108.30 C 173.05 100.79 171.73 93.04 167.31 86.76 C 161.34 77.71 150.83 71.90 140.01 71.46 C 125.90 70.75 111.88 79.82 106.77 93.00 C 104.57 98.50 104.11 104.50 104.20 110.36 C 101.44 96.51 108.17 81.54 120.23 74.26 Z" />
</g>
<g id="#ff7e38ff">
<path fill="#ff7e38" opacity="1.00" d=" M 175.30 77.17 C 179.81 83.53 182.79 90.96 183.79 98.71 C 185.32 112.45 180.47 126.85 170.49 136.50 C 157.60 149.73 136.32 153.39 119.68 145.49 C 121.63 142.59 123.55 139.65 125.42 136.69 C 132.32 139.46 140.08 140.03 147.29 138.18 C 161.06 134.86 171.92 122.36 173.43 108.30 C 174.43 100.45 172.59 92.38 168.49 85.64 C 171.09 83.10 173.35 80.23 175.30 77.17 Z" />
</g>
<g id="#ff713aff">
<path fill="#ff713a" opacity="1.00" d=" M 118.12 102.94 C 116.10 98.95 120.81 94.13 124.85 96.08 C 128.25 98.26 130.68 101.62 133.65 104.32 C 136.23 107.11 140.27 109.61 139.71 113.98 C 136.74 117.89 133.00 121.10 129.64 124.64 C 127.86 126.36 126.23 128.37 123.96 129.45 C 121.79 130.29 119.77 128.79 117.91 127.89 C 117.30 125.80 116.74 123.24 118.34 121.45 C 121.07 118.28 124.25 115.54 127.04 112.43 C 124.07 109.27 120.47 106.61 118.12 102.94 Z" />
</g>
<g id="#00000044">
<path fill="#000000" opacity="0.27" d=" M 183.79 98.71 C 188.84 122.35 170.70 147.12 147.27 151.23 C 138.11 152.65 128.40 151.99 119.92 148.03 C 109.07 143.26 100.48 133.92 96.03 123.01 C 95.09 120.93 94.84 118.64 94.84 116.38 C 95.58 118.62 96.40 120.84 97.35 123.01 C 101.88 132.79 109.88 140.95 119.68 145.49 C 136.32 153.39 157.60 149.73 170.49 136.50 C 180.47 126.85 185.32 112.45 183.79 98.71 Z" />
</g>
<g id="#00000040">
<path fill="#000000" opacity="0.25" d=" M 138.23 99.79 C 142.52 104.48 146.98 109.07 151.69 113.34 C 154.24 115.71 157.67 113.91 159.68 111.80 C 159.62 114.01 158.52 116.67 155.91 116.61 C 151.28 117.55 148.79 112.78 145.79 110.21 C 143.04 106.95 138.31 104.56 138.23 99.79 Z" />
</g>
<g id="#ff6f3aff">
<path fill="#ff6f3a" opacity="1.00" d=" M 97.35 123.01 C 99.26 119.36 101.76 116.05 104.76 113.23 C 107.60 123.68 115.40 132.57 125.42 136.69 C 123.55 139.65 121.63 142.59 119.68 145.49 C 109.88 140.95 101.88 132.79 97.35 123.01 Z" />
<path fill="#ff6f3a" opacity="1.00" d=" M 81.40 131.96 C 83.57 128.53 85.92 125.22 88.44 122.04 C 90.57 127.35 94.53 131.56 97.40 136.40 C 98.84 144.13 97.18 152.14 98.30 159.92 C 99.30 160.89 100.76 160.66 102.02 160.74 C 107.68 160.86 113.36 160.47 119.01 160.90 C 122.43 161.24 124.21 164.74 124.30 167.86 C 123.26 169.54 122.29 171.54 120.34 172.32 C 118.30 172.99 116.11 172.79 114.00 172.85 C 98.00 172.73 81.99 172.90 65.99 172.77 C 63.16 173.05 61.24 170.79 59.75 168.74 C 59.23 165.30 61.22 161.31 64.95 160.91 C 71.54 160.34 78.19 161.14 84.77 160.53 C 86.25 159.52 85.68 157.52 85.85 156.01 C 85.74 150.98 86.03 145.94 85.68 140.92 C 84.92 137.67 82.75 134.98 81.40 131.96 Z" />
</g>
<g id="#10070446">
<path fill="#100704" opacity="0.27" d=" M 139.71 113.98 C 139.59 117.86 136.22 120.18 133.79 122.73 C 130.86 125.50 128.29 128.70 124.98 131.03 C 122.28 132.71 118.20 131.31 117.91 127.89 C 119.77 128.79 121.79 130.29 123.96 129.45 C 126.23 128.37 127.86 126.36 129.64 124.64 C 133.00 121.10 136.74 117.89 139.71 113.98 Z" />
</g>
<g id="#ff613cff">
<path fill="#ff613c" opacity="1.00" d=" M 58.30 115.40 C 65.87 115.40 73.45 115.41 81.02 115.37 C 82.79 115.44 85.04 115.19 86.17 116.88 C 87.18 118.47 87.74 120.30 88.44 122.04 C 85.92 125.22 83.57 128.53 81.40 131.96 C 81.21 131.63 80.83 130.95 80.64 130.62 C 79.96 129.53 79.34 128.35 78.30 127.54 C 69.07 126.85 59.80 127.40 50.56 127.18 C 53.08 123.22 55.69 119.31 58.30 115.40 Z" />
</g>
<g id="#02010039">
<path fill="#020100" opacity="0.22" d=" M 10.98 122.32 C 11.74 123.05 12.52 123.76 13.33 124.45 C 15.32 125.74 17.48 126.87 19.85 127.24 C 25.21 127.96 30.63 127.68 36.02 127.70 C 50.11 127.72 64.21 127.80 78.30 127.54 C 79.34 128.35 79.96 129.53 80.64 130.62 C 65.09 129.90 49.51 130.45 33.95 130.29 C 26.87 130.19 18.79 131.26 12.93 126.38 C 11.45 125.55 11.17 123.84 10.98 122.32 Z" />
</g>
<g id="#65241898">
<path fill="#652418" opacity="0.60" d=" M 19.85 127.24 C 30.08 127.26 40.32 127.20 50.56 127.18 C 59.80 127.40 69.07 126.85 78.30 127.54 C 64.21 127.80 50.11 127.72 36.02 127.70 C 30.63 127.68 25.21 127.96 19.85 127.24 Z" />
</g>
<g id="#00000035">
<path fill="#000000" opacity="0.21" d=" M 120.34 172.32 C 122.29 171.54 123.26 169.54 124.30 167.86 C 124.61 171.15 122.88 175.46 119.04 175.43 C 102.03 175.70 85.00 175.40 67.98 175.57 C 65.45 175.49 62.35 175.79 60.63 173.51 C 59.24 172.28 59.69 170.35 59.75 168.74 C 61.24 170.79 63.16 173.05 65.99 172.77 C 81.99 172.90 98.00 172.73 114.00 172.85 C 116.11 172.79 118.30 172.99 120.34 172.32 Z" />
</g>
</svg>
