<svg xmlns="http://www.w3.org/2000/svg" xmlns:xlink="http://www.w3.org/1999/xlink" viewBox="0 0 48 48"><defs><linearGradient gradientTransform="rotate(-90 24 24)" gradientUnits="userSpaceOnUse" x2="47" x1="1" id="a"><stop stop-color="#00fedc"/><stop stop-color="#fc0068" offset="1"/></linearGradient><linearGradient id="b" x1="1" x2="47" gradientUnits="userSpaceOnUse" gradientTransform="rotate(-90 24 24)"><stop stop-color="#60e6cb"/><stop offset="1" stop-color="#71e9d2"/></linearGradient><linearGradient xlink:href="#a" id="d" gradientUnits="userSpaceOnUse" x1="-31.663" y1="25.731" x2="-8.007" y2="25.963" gradientTransform="translate(-34.766 -2.968) scale(1.19602)"/><linearGradient xlink:href="#a" id="e" gradientUnits="userSpaceOnUse" x1="10.914" y1="25.731" x2="37" y2="25.731" gradientTransform="translate(-88.55 1.77) scale(1.19602)"/><linearGradient xlink:href="#b" id="c" gradientUnits="userSpaceOnUse" x1="-34.472" y1="25.731" x2="37" y2="25.731"/><linearGradient xlink:href="#a" id="f" x1="16.404" y1="19.075" x2="35.751" y2="19.075" gradientUnits="userSpaceOnUse" gradientTransform="translate(-4.92 -4.84) scale(1.19602)"/></defs><g transform="translate(101.709 -14.87) scale(1.27996)" fill="none" stroke="url(#c)" stroke-width="2.377" stroke-linecap="round" stroke-linejoin="round" paint-order="fill markers stroke"><path d="M-73.275 14.927h26.854c1.177 0 2.12.944 2.12 2.12V35.26l-15.548 2.392-15.548-2.392V17.05c0-1.178.945-2.121 2.12-2.121m0 0" stroke="url(#d)" stroke-width="1.719"/><path d="M-63.433 38.847c0 3.588 0 3.588-2.392 5.98l5.98 1.196 5.98-1.196c-2.392-2.392-2.392-2.392-2.392-5.98h-7.176" stroke="url(#e)" stroke-width="1.719"/><path d="M-68.218 44.827h16.745v1.196h-16.745m0-1.196" stroke="none"/></g><path d="M12.96 45.15l24.506-.061" fill="#b47a7a" stroke="#bcbcbc" stroke-width="2.2" stroke-linecap="round"/><path d="M25.243 18.999c.537.31-.152.877-.515.892-.98.042-1.447-1.104-1.269-1.922.32-1.463 2.006-2.076 3.329-1.646 1.941.632 2.718 2.919 2.022 4.737-.928 2.422-3.833 3.366-6.141 2.399-2.905-1.218-4.019-4.752-2.777-7.55 1.504-3.388 5.67-4.671 8.955-3.153 3.872 1.789 5.326 6.59 3.531 10.363-2.073 4.356-7.509 5.98-11.769 3.908-4.841-2.357-6.638-8.43-4.285-13.177 2.638-5.326 9.35-7.292 14.583-4.662 5.811 2.922 7.949 10.27 5.039 15.99" fill="none" stroke="url(#f)" stroke-width="2.2"/></svg>