<svg xmlns="http://www.w3.org/2000/svg" xmlns:xlink="http://www.w3.org/1999/xlink" height="48" width="48"><defs><linearGradient id="a"><stop stop-color="#01ff4d" offset="0"/><stop stop-color="#2fff00" offset="1"/></linearGradient><linearGradient xlink:href="#a" id="b" x1="4.753" y1="53.736" x2="47.928" y2="83.171" gradientUnits="userSpaceOnUse"/><linearGradient xlink:href="#a" id="c" x1="12.395" y1="64.175" x2="43.563" y2="64.175" gradientUnits="userSpaceOnUse"/><linearGradient xlink:href="#a" id="d" gradientUnits="userSpaceOnUse" x1="12.395" y1="64.175" x2="43.563" y2="64.175" gradientTransform="translate(-15.347 -30.708) scale(1.56602)"/><linearGradient xlink:href="#a" id="e" gradientUnits="userSpaceOnUse" x1="12.395" y1="64.175" x2="43.563" y2="64.175" gradientTransform="translate(-15.347 -30.708) scale(1.56602)"/></defs><g stroke="#000"><path d="M14.528 53.306c-1.245.05-2.27.584-2.976 1.119C7.379 57.59 3.736 70.79 3.736 77.776c0 6.978 1.607 6.69 2.999 6.69 1.394 0 3.146-.958 4.677-2.307 4.228-3.721 6.174-7.597 10.379-7.597h8.908c4.205 0 6.153 3.874 10.38 7.597 1.53 1.349 3.282 2.306 4.676 2.306 1.394 0 3 .298 3-6.689 0-6.978-3.644-20.188-7.817-23.351-1.129-.858-3.072-1.71-5.439-.586-1.586.754-3.004 3.678-5.077 3.678h-8.36c-2.072 0-3.497-2.923-5.077-3.678-.886-.42-1.714-.564-2.462-.535z" fill="none" stroke="url(#b)" stroke-width="1.8" transform="translate(-2.246 -43.126)"/><g fill="url(#c)" stroke="none" transform="translate(-2.246 -43.126)"><circle r="3.463" cy="64.175" cx="15.858"/><circle r="1.732" cy="60.712" cx="38.368"/><circle cx="41.831" cy="64.175" r="1.732"/><circle r="1.732" cy="67.638" cx="38.368"/><circle cx="34.905" cy="64.175" r="1.732"/><circle r="1.356" cy="69.791" cx="22.368" fill="url(#d)"/><circle cx="31.859" cy="69.791" r="1.356" fill="url(#e)"/></g></g></svg>