<svg xmlns="http://www.w3.org/2000/svg" xmlns:xlink="http://www.w3.org/1999/xlink" viewBox="0 0 48 48"><defs><linearGradient gradientTransform="translate(-.262 5.236) scale(1.61636)" id="b" gradientUnits="userSpaceOnUse" x1="8.971" x2="22.791" xlink:href="#a" y1="7.387" y2="20.779"/><linearGradient id="a"><stop stop-color="#ff0054" offset="0"/><stop stop-color="#c600ec" offset="1"/></linearGradient><linearGradient gradientUnits="userSpaceOnUse" y2="41" x2="42" y1="10.254" x1="7.768" id="c" xlink:href="#a"/><linearGradient xlink:href="#a" id="d" gradientUnits="userSpaceOnUse" x1="7.768" y1="10.254" x2="42" y2="41"/><linearGradient xlink:href="#a" id="e" gradientUnits="userSpaceOnUse" x1="7.768" y1="10.254" x2="42" y2="41"/><linearGradient xlink:href="#a" id="f" gradientUnits="userSpaceOnUse" x1="7.768" y1="10.254" x2="42" y2="41"/><linearGradient xlink:href="#a" id="g" gradientUnits="userSpaceOnUse" x1="7.768" y1="10.254" x2="42" y2="41"/></defs><path d="M16.71 16.55l-.859 1.567-1.566.858 1.566.86.859 1.565.858-1.566 1.566-.859-1.566-.858zm6.465 0l-.859 1.567-1.565.858 1.565.86.86 1.565.858-1.566 1.566-.859-1.566-.858zm9.14 0l-18.03 18.03 4.6 4.6 18.03-18.03zm0 2.3l2.298 2.3-5.377 5.383-2.3-2.301zM19.942 21.4l-.858 1.566-1.566.859 1.566.858.858 1.566.86-1.566 1.565-.858-1.566-.86z" fill="url(#b)"/><g transform="translate(-4.338 -5.096) scale(1.17549)" fill="none" stroke="url(#c)" stroke-linecap="round" paint-order="markers stroke fill"><circle cx="38.454" cy="9.515" r="1.535" stroke="url(#d)" stroke-width="1.5"/><circle cx="32.454" cy="9.515" r="1.535" stroke="url(#e)" stroke-width="1.5"/><circle cx="26.454" cy="9.515" r="1.535" stroke="url(#f)" stroke-width="1.5"/><rect width="36" height="27" x="6" y="14" ry="2" stroke="url(#g)" stroke-width="2"/></g></svg>