<svg xmlns="http://www.w3.org/2000/svg" xmlns:xlink="http://www.w3.org/1999/xlink" viewBox="0 0 48 48"><defs><linearGradient id="b"><stop stop-color="#be0de2" offset="0"/><stop stop-opacity=".985" stop-color="#ff0050" offset="1"/></linearGradient><linearGradient id="a"><stop offset="0" stop-color="#686868"/><stop offset="1" stop-color="#686868" stop-opacity="0"/></linearGradient><linearGradient xlink:href="#a" id="d" gradientUnits="userSpaceOnUse" x1="8" y1="25.996" x2="42" y2="25.996"/><linearGradient xlink:href="#a" id="e" gradientUnits="userSpaceOnUse" x1="8" y1="25.996" x2="42" y2="25.996"/><linearGradient xlink:href="#a" id="f" gradientUnits="userSpaceOnUse" x1="8" y1="25.996" x2="42" y2="25.996"/><linearGradient xlink:href="#a" id="g" gradientUnits="userSpaceOnUse" x1="8" y1="25.996" x2="42" y2="25.996"/><linearGradient xlink:href="#a" id="h" gradientUnits="userSpaceOnUse" x1="8" y1="25.996" x2="42" y2="25.996"/><linearGradient xlink:href="#a" id="i" gradientUnits="userSpaceOnUse" x1="8" y1="25.996" x2="42" y2="25.996"/><linearGradient xlink:href="#a" id="j" gradientUnits="userSpaceOnUse" x1="8" y1="25.996" x2="42" y2="25.996"/><linearGradient xlink:href="#a" id="k" gradientUnits="userSpaceOnUse" x1="8" y1="25.996" x2="42" y2="25.996"/><linearGradient xlink:href="#a" id="l" gradientUnits="userSpaceOnUse" x1="8" y1="25.996" x2="42" y2="25.996"/><linearGradient xlink:href="#a" id="m" gradientUnits="userSpaceOnUse" x1="8" y1="25.996" x2="42" y2="25.996"/><linearGradient xlink:href="#a" id="n" gradientUnits="userSpaceOnUse" x1="8" y1="25.996" x2="42" y2="25.996"/><linearGradient xlink:href="#a" id="o" gradientUnits="userSpaceOnUse" x1="8" y1="25.996" x2="42" y2="25.996"/><linearGradient xlink:href="#a" id="p" gradientUnits="userSpaceOnUse" x1="8" y1="25.996" x2="42" y2="25.996"/><linearGradient xlink:href="#a" id="q" gradientUnits="userSpaceOnUse" x1="8" y1="25.996" x2="42" y2="25.996"/><linearGradient xlink:href="#a" id="r" gradientUnits="userSpaceOnUse" x1="8" y1="25.996" x2="42" y2="25.996"/><linearGradient xlink:href="#a" id="s" gradientUnits="userSpaceOnUse" x1="8" y1="25.996" x2="42" y2="25.996"/><linearGradient xlink:href="#a" id="t" gradientUnits="userSpaceOnUse" x1="8" y1="25.996" x2="42" y2="25.996"/><linearGradient xlink:href="#a" id="u" gradientUnits="userSpaceOnUse" x1="8" y1="25.996" x2="42" y2="25.996"/><linearGradient xlink:href="#a" id="v" gradientUnits="userSpaceOnUse" x1="8" y1="25.996" x2="42" y2="25.996"/><linearGradient xlink:href="#a" id="c" gradientUnits="userSpaceOnUse" x1="8" y1="25.996" x2="42" y2="25.996"/><linearGradient xlink:href="#b" id="w" gradientUnits="userSpaceOnUse" x1="7" y1="24.996" x2="41" y2="24.996"/></defs><g transform="translate(-3.987 -4.199) scale(1.21223)" opacity=".1" fill="url(#c)"><path d="M8 13.996h2c.551 0 1 .449 1 1v2a1 1 0 0 1-1 1H8a1 1 0 0 1-1-1v-2c0-.551.449-1 1-1m0 0" fill="url(#d)"/><path d="M14 13.996h2c.551 0 1 .449 1 1v2a1 1 0 0 1-1 1h-2a1 1 0 0 1-1-1v-2c0-.551.449-1 1-1m0 0" fill="url(#e)"/><path d="M20 13.996h2c.551 0 1 .449 1 1v2a1 1 0 0 1-1 1h-2a1 1 0 0 1-1-1v-2c0-.551.449-1 1-1m0 0" fill="url(#f)"/><path d="M26 13.996h2c.551 0 1 .449 1 1v2a1 1 0 0 1-1 1h-2a1 1 0 0 1-1-1v-2c0-.551.449-1 1-1m0 0" fill="url(#g)"/><path d="M32 13.996h2c.551 0 1 .449 1 1v2a1 1 0 0 1-1 1h-2a1 1 0 0 1-1-1v-2c0-.551.449-1 1-1m0 0" fill="url(#h)"/><path d="M38 13.996h2c.551 0 1 .449 1 1v2a1 1 0 0 1-1 1h-2a1 1 0 0 1-1-1v-2c0-.551.449-1 1-1m0 0" fill="url(#i)"/><path d="M8 19.996h2c.551 0 1 .449 1 1v2a1 1 0 0 1-1 1H8a1 1 0 0 1-1-1v-2c0-.551.449-1 1-1m0 0" fill="url(#j)"/><path d="M14 19.996h2c.551 0 1 .449 1 1v2a1 1 0 0 1-1 1h-2a1 1 0 0 1-1-1v-2c0-.551.449-1 1-1m0 0" fill="url(#k)"/><path d="M20 19.996h2c.551 0 1 .449 1 1v2a1 1 0 0 1-1 1h-2a1 1 0 0 1-1-1v-2c0-.551.449-1 1-1m0 0" fill="url(#l)"/><path d="M26 19.996h2c.551 0 1 .449 1 1v2a1 1 0 0 1-1 1h-2a1 1 0 0 1-1-1v-2c0-.551.449-1 1-1m0 0" fill="url(#m)"/><path d="M32 19.996h2c.551 0 1 .449 1 1v2a1 1 0 0 1-1 1h-2a1 1 0 0 1-1-1v-2c0-.551.449-1 1-1m0 0" fill="url(#n)"/><path d="M38 19.996h2c.551 0 1 .449 1 1v2a1 1 0 0 1-1 1h-2a1 1 0 0 1-1-1v-2c0-.551.449-1 1-1m0 0" fill="url(#o)"/><path d="M8 25.996h2c.551 0 1 .449 1 1v2a1 1 0 0 1-1 1H8a1 1 0 0 1-1-1v-2c0-.551.449-1 1-1m0 0" fill="url(#p)"/><path d="M14 25.996h2c.551 0 1 .449 1 1v2a1 1 0 0 1-1 1h-2a1 1 0 0 1-1-1v-2c0-.551.449-1 1-1m0 0" fill="url(#q)"/><path d="M20 25.996h2c.551 0 1 .449 1 1v2a1 1 0 0 1-1 1h-2a1 1 0 0 1-1-1v-2c0-.551.449-1 1-1m0 0" fill="url(#r)"/><path d="M26 25.996h2c.551 0 1 .449 1 1v2a1 1 0 0 1-1 1h-2a1 1 0 0 1-1-1v-2c0-.551.449-1 1-1m0 0" fill="url(#s)"/><path d="M32 25.996h2c.551 0 1 .449 1 1v2a1 1 0 0 1-1 1h-2a1 1 0 0 1-1-1v-2c0-.551.449-1 1-1m0 0" fill="url(#t)"/><path d="M38 25.996h2c.551 0 1 .449 1 1v2a1 1 0 0 1-1 1h-2a1 1 0 0 1-1-1v-2c0-.551.449-1 1-1m0 0" fill="url(#u)"/><path d="M14 31.996h20c.551 0 1 .449 1 1v2a1 1 0 0 1-1 1H14a1 1 0 0 1-1-1v-2c0-.551.449-1 1-1m0 0" fill="url(#v)"/></g><path d="M8 13.996h2c.551 0 1 .449 1 1v2a1 1 0 0 1-1 1H8a1 1 0 0 1-1-1v-2c0-.551.449-1 1-1m6 0h2c.551 0 1 .449 1 1v2a1 1 0 0 1-1 1h-2a1 1 0 0 1-1-1v-2c0-.551.449-1 1-1m6 0h2c.551 0 1 .449 1 1v2a1 1 0 0 1-1 1h-2a1 1 0 0 1-1-1v-2c0-.551.449-1 1-1m6 0h2c.551 0 1 .449 1 1v2a1 1 0 0 1-1 1h-2a1 1 0 0 1-1-1v-2c0-.551.449-1 1-1m6 0h2c.551 0 1 .449 1 1v2a1 1 0 0 1-1 1h-2a1 1 0 0 1-1-1v-2c0-.551.449-1 1-1m6 0h2c.551 0 1 .449 1 1v2a1 1 0 0 1-1 1h-2a1 1 0 0 1-1-1v-2c0-.551.449-1 1-1m-30 6h2c.551 0 1 .449 1 1v2a1 1 0 0 1-1 1H8a1 1 0 0 1-1-1v-2c0-.551.449-1 1-1m6 0h2c.551 0 1 .449 1 1v2a1 1 0 0 1-1 1h-2a1 1 0 0 1-1-1v-2c0-.551.449-1 1-1m6 0h2c.551 0 1 .449 1 1v2a1 1 0 0 1-1 1h-2a1 1 0 0 1-1-1v-2c0-.551.449-1 1-1m6 0h2c.551 0 1 .449 1 1v2a1 1 0 0 1-1 1h-2a1 1 0 0 1-1-1v-2c0-.551.449-1 1-1m6 0h2c.551 0 1 .449 1 1v2a1 1 0 0 1-1 1h-2a1 1 0 0 1-1-1v-2c0-.551.449-1 1-1m6 0h2c.551 0 1 .449 1 1v2a1 1 0 0 1-1 1h-2a1 1 0 0 1-1-1v-2c0-.551.449-1 1-1m-30 6h2c.551 0 1 .449 1 1v2a1 1 0 0 1-1 1H8a1 1 0 0 1-1-1v-2c0-.551.449-1 1-1m6 0h2c.551 0 1 .449 1 1v2a1 1 0 0 1-1 1h-2a1 1 0 0 1-1-1v-2c0-.551.449-1 1-1m6 0h2c.551 0 1 .449 1 1v2a1 1 0 0 1-1 1h-2a1 1 0 0 1-1-1v-2c0-.551.449-1 1-1m6 0h2c.551 0 1 .449 1 1v2a1 1 0 0 1-1 1h-2a1 1 0 0 1-1-1v-2c0-.551.449-1 1-1m6 0h2c.551 0 1 .449 1 1v2a1 1 0 0 1-1 1h-2a1 1 0 0 1-1-1v-2c0-.551.449-1 1-1m6 0h2c.551 0 1 .449 1 1v2a1 1 0 0 1-1 1h-2a1 1 0 0 1-1-1v-2c0-.551.449-1 1-1m-24 6h20c.551 0 1 .449 1 1v2a1 1 0 0 1-1 1H14a1 1 0 0 1-1-1v-2c0-.551.449-1 1-1m0 0" transform="translate(-5.2 -5.411) scale(1.21223)" fill="url(#w)"/></svg>