<svg xmlns="http://www.w3.org/2000/svg" viewBox="0 0 48 48"><path d="M3.198 45.116h41.894v-3.222c-1.096-4.834-6.716-10.398-13.722-13.267l-4.575 4.45-1.447-.964-4.016-.089-1.284 1.487-4.866-4.828C9.825 31.043 4.299 36.21 3.196 41.895zm0 0" fill="none" stroke="#ff0063" stroke-width="2"/><path d="M23.257 6.98c4.66 0 8.427 3.923 8.427 8.756v3.952c0 4.835-3.77 8.751-8.427 8.751-4.652 0-8.426-3.916-8.426-8.75v-3.953c0-4.833 3.776-8.756 8.426-8.756m0 0" fill="none"/><path d="M29.124 26.007c.908-.888 3.223-2.75 3.481-3.978l-.09-7.043L19.096 10l-2.183 1.85-3.618 4.709.887 5.311.473 1.361 2.73 2.77m11.739.006" fill="none"/><path d="M14.72 23.259V16.7c.667-2.863 3.442-5.759 4.826-5.722 2.361.297 4.01 2.385 5.42 4.412 1.775 1.511 6.21 1.604 7.37 0v7.34c1.314-.51 2.958-2.467 3.238-4.155C35.24-1.76 12.468-1.385 11.844 16.7c.196 2.277 1.556 5.488 2.877 6.557m0 0" fill="#56ff72"/><path d="M23.264 32.063l5.86-6.076 2.933 3.035-5.86 6.074m-8.794-9.106l5.861 6.075-2.926 3.035-5.86-6.069m2.925-3.041" fill="#007fff"/></svg>