<svg xmlns="http://www.w3.org/2000/svg" xmlns:xlink="http://www.w3.org/1999/xlink" viewBox="0 0 48 48"><defs><linearGradient id="a"><stop offset="0" stop-color="#ff005b"/><stop offset="1" stop-color="#7b00ff"/></linearGradient><linearGradient xlink:href="#a" id="b" gradientUnits="userSpaceOnUse" x1="11.5" y1="25.284" x2="36.5" y2="25.284"/></defs><path d="M13.453 13c-.809 0-1.453.645-1.453 1.453v15.844c0 .809.645 1.746 1.453 1.703H18v5l6-5h10.547c.809 0 1.453-.895 1.453-1.703V14.453c0-.809-.645-1.453-1.453-1.453zM23 17h2v4l3-2 1 1.5-3 2 3 2-1 1.5-3-2v4h-2l-.008-4.03L20 26.001l-1-1.5 3-2-3-2 1-1.5 3 2zm0 .001" stroke="url(#b)" stroke-width="1.447" stroke-linecap="round" stroke-linejoin="round" transform="translate(-7.389 -9.97) scale(1.38184)" fill="none"/></svg>