<?xml version="1.0" encoding="UTF-8" ?>
<!DOCTYPE svg PUBLIC "-//W3C//DTD SVG 1.1//EN" "http://www.w3.org/Graphics/SVG/1.1/DTD/svg11.dtd">
<svg width="192pt" height="192pt" viewBox="0 0 192 192" version="1.1" xmlns="http://www.w3.org/2000/svg">
<g id="#1bb3ffff">
<path fill="#1bb3ff" opacity="1.00" d=" M 142.44 16.64 C 148.83 15.91 155.69 16.28 161.35 19.63 C 166.38 22.39 170.09 27.03 172.42 32.21 C 170.87 32.37 169.29 32.37 167.80 32.86 C 165.51 34.96 164.01 37.73 162.22 40.24 C 161.63 35.92 159.17 31.79 155.22 29.77 C 151.23 27.48 146.49 28.74 142.20 27.86 C 139.66 27.22 138.81 24.50 137.75 22.44 C 138.64 20.11 139.65 17.21 142.44 16.64 Z" />
</g>
<g id="#0789ffff">
<path fill="#0789ff" opacity="1.00" d=" M 15.57 41.02 C 15.51 28.40 26.37 16.94 39.00 16.46 C 50.09 16.33 61.18 16.40 72.27 16.43 C 69.84 20.37 67.21 24.19 64.76 28.12 C 56.49 28.23 48.22 27.97 39.97 28.21 C 35.15 28.33 30.74 31.38 28.71 35.72 C 28.26 36.70 27.90 37.71 27.62 38.76 C 26.02 50.01 27.26 61.46 26.73 72.79 C 22.88 77.22 19.84 82.32 15.60 86.42 C 15.49 71.29 15.54 56.15 15.57 41.02 Z" />
</g>
<g id="#0f9bffff">
<path fill="#0f9bff" opacity="1.00" d=" M 72.27 16.43 C 85.52 16.38 98.77 16.39 112.02 16.40 C 114.77 16.15 117.57 17.85 118.33 20.55 C 119.20 22.86 117.75 25.09 117.00 27.20 C 111.76 28.49 106.34 28.13 101.00 28.14 C 88.92 28.12 76.84 28.15 64.76 28.12 C 67.21 24.19 69.84 20.37 72.27 16.43 Z" />
</g>
<g id="#16a9ffff">
<path fill="#16a9ff" opacity="1.00" d=" M 122.29 22.77 C 122.33 20.58 122.33 17.36 125.09 16.86 C 127.61 16.53 130.26 16.40 132.74 17.08 C 134.65 18.07 134.62 20.33 134.64 22.19 C 134.41 24.05 135.12 26.43 133.77 27.93 C 130.29 28.40 126.74 28.36 123.25 27.96 C 122.12 26.52 122.54 24.47 122.29 22.77 Z" />
</g>
<g id="#00000030">
<path fill="#000000" opacity="0.19" d=" M 134.64 22.19 C 135.67 22.27 136.71 22.35 137.75 22.44 C 138.81 24.50 139.66 27.22 142.20 27.86 C 146.49 28.74 151.23 27.48 155.22 29.77 C 159.17 31.79 161.63 35.92 162.22 40.24 C 162.23 77.18 162.28 114.13 162.16 151.08 C 162.04 151.67 161.80 152.87 161.67 153.46 C 161.47 150.97 161.30 148.48 161.28 145.98 C 161.37 112.98 161.24 79.98 161.35 46.98 C 161.35 42.21 160.47 36.57 156.08 33.82 C 151.76 30.80 146.15 32.22 141.41 30.48 C 139.69 29.69 138.36 28.29 136.94 27.08 C 135.12 28.86 133.52 31.35 130.80 31.72 C 127.69 32.21 123.90 31.89 121.83 29.22 C 120.61 27.21 121.11 24.67 122.29 22.77 C 122.54 24.47 122.12 26.52 123.25 27.96 C 126.74 28.36 130.29 28.40 133.77 27.93 C 135.12 26.43 134.41 24.05 134.64 22.19 Z" />
</g>
<g id="#010f1954">
<path fill="#010f19" opacity="0.33" d=" M 101.00 28.14 C 106.34 28.13 111.76 28.49 117.00 27.20 C 115.69 28.67 114.17 30.09 112.03 29.80 C 89.35 29.91 66.66 29.81 43.98 29.82 C 41.30 29.93 38.55 30.01 36.00 30.94 C 33.34 32.13 31.11 34.07 28.71 35.72 C 30.74 31.38 35.15 28.33 39.97 28.21 C 48.22 27.97 56.49 28.23 64.76 28.12 C 76.84 28.15 88.92 28.12 101.00 28.14 Z" />
</g>
<g id="#23c5ffff">
<path fill="#23c5ff" opacity="1.00" d=" M 167.80 32.86 C 169.29 32.37 170.87 32.37 172.42 32.21 C 173.24 35.00 173.98 37.85 174.06 40.77 C 173.98 55.77 174.09 70.76 173.99 85.75 C 170.70 89.57 167.47 93.46 164.74 97.70 C 162.88 100.42 163.07 103.85 163.02 106.99 C 163.15 115.32 162.99 123.66 162.94 132.00 C 162.86 138.36 163.36 144.79 162.16 151.08 C 162.28 114.13 162.23 77.18 162.22 40.24 C 164.01 37.73 165.51 34.96 167.80 32.86 Z" />
</g>
<g id="#1cb6ffff">
<path fill="#1cb6ff" opacity="1.00" d=" M 122.82 33.23 C 126.57 32.90 130.34 32.92 134.09 33.17 C 134.90 36.73 134.57 40.39 134.61 44.00 C 134.67 60.35 134.70 76.70 134.76 93.05 C 135.22 97.65 132.05 101.44 129.80 105.14 C 129.34 105.22 128.43 105.39 127.97 105.48 C 125.72 102.65 123.83 99.40 122.69 95.98 C 122.37 78.33 122.62 60.65 122.45 42.99 C 122.41 39.74 122.34 36.46 122.82 33.23 Z" />
</g>
<g id="#12a1ffff">
<path fill="#12a1ff" opacity="1.00" d=" M 26.73 72.79 C 27.26 61.46 26.02 50.01 27.62 38.76 C 27.21 75.50 27.57 112.25 27.45 149.00 C 27.17 153.11 29.11 156.88 31.80 159.85 C 29.35 162.87 27.01 165.97 24.77 169.14 C 23.51 168.07 22.31 166.92 21.17 165.74 C 17.66 161.27 15.59 155.68 15.56 149.98 C 15.53 143.80 15.52 137.61 15.60 131.42 C 19.35 127.88 22.71 123.90 25.40 119.50 C 26.98 116.97 26.72 113.87 26.78 111.02 C 26.51 98.28 26.87 85.53 26.73 72.79 Z" />
</g>
<g id="#020c0f2c">
<path fill="#020c0f" opacity="0.17" d=" M 174.06 40.77 C 174.39 42.48 174.68 44.20 174.73 45.95 C 174.62 75.63 174.73 105.32 174.67 135.00 C 174.59 140.07 175.18 145.21 174.08 150.22 C 173.96 128.73 174.10 107.24 173.99 85.75 C 174.09 70.76 173.98 55.77 174.06 40.77 Z" />
</g>
<g id="#0d95ffff">
<path fill="#0d95ff" opacity="1.00" d=" M 15.60 86.42 C 19.84 82.32 22.88 77.22 26.73 72.79 C 26.87 85.53 26.51 98.28 26.78 111.02 C 26.72 113.87 26.98 116.97 25.40 119.50 C 22.71 123.90 19.35 127.88 15.60 131.42 C 15.51 116.42 15.51 101.42 15.60 86.42 Z" />
</g>
<g id="#2bd5ffff">
<path fill="#2bd5ff" opacity="1.00" d=" M 164.74 97.70 C 167.47 93.46 170.70 89.57 173.99 85.75 C 174.10 107.24 173.96 128.73 174.08 150.22 C 173.98 156.22 171.61 162.09 167.69 166.61 C 163.56 170.77 158.20 173.96 152.27 174.55 C 137.50 173.78 122.69 174.36 107.91 173.69 C 110.11 170.00 112.56 166.47 115.11 163.01 C 126.44 162.98 137.77 163.04 149.09 162.98 C 154.79 163.04 160.14 158.93 161.67 153.46 C 161.80 152.87 162.04 151.67 162.16 151.08 C 163.36 144.79 162.86 138.36 162.94 132.00 C 162.99 123.66 163.15 115.32 163.02 106.99 C 163.07 103.85 162.88 100.42 164.74 97.70 Z" />
</g>
<g id="#1ab2ffff">
<path fill="#1ab2ff" opacity="1.00" d=" M 24.77 169.14 C 27.01 165.97 29.35 162.87 31.80 159.85 C 34.52 161.62 37.57 163.13 40.91 163.00 C 50.70 163.04 60.49 162.96 70.28 163.02 C 68.11 166.51 66.33 170.40 63.28 173.24 C 60.32 174.28 57.09 173.94 53.99 174.01 C 48.56 173.83 43.13 174.18 37.71 174.56 C 32.96 174.16 28.47 172.08 24.77 169.14 Z" />
</g>
<g id="#23c3ffff">
<path fill="#23c3ff" opacity="1.00" d=" M 70.28 163.02 C 85.23 163.00 100.17 162.99 115.11 163.01 C 112.56 166.47 110.11 170.00 107.91 173.69 C 122.69 174.36 137.50 173.78 152.27 174.55 C 150.21 174.76 148.13 174.82 146.06 174.83 C 114.04 174.81 82.02 174.80 50.01 174.79 C 45.91 174.76 41.80 174.92 37.71 174.56 C 43.13 174.18 48.56 173.83 53.99 174.01 C 57.09 173.94 60.32 174.28 63.28 173.24 C 66.33 170.40 68.11 166.51 70.28 163.02 Z" />
</g>
<g id="#01040640">
<path fill="#010406" opacity="0.25" d=" M 21.17 165.74 C 22.31 166.92 23.51 168.07 24.77 169.14 C 28.47 172.08 32.96 174.16 37.71 174.56 C 41.80 174.92 45.91 174.76 50.01 174.79 C 82.02 174.80 114.04 174.81 146.06 174.83 C 148.13 174.82 150.21 174.76 152.27 174.55 C 158.20 173.96 163.56 170.77 167.69 166.61 C 167.40 170.05 164.19 171.89 161.58 173.58 C 155.13 177.54 147.29 177.36 140.00 177.26 C 110.00 177.22 80.00 177.25 50.00 177.26 C 43.17 177.23 35.83 177.88 29.66 174.36 C 26.19 172.30 21.96 170.10 21.17 165.74 Z" />
</g>
</svg>
