<svg xmlns="http://www.w3.org/2000/svg" xmlns:xlink="http://www.w3.org/1999/xlink" viewBox="0 0 48 48"><defs><linearGradient id="a"><stop stop-color="#ff001a" offset="0"/><stop stop-color="#ff0036" offset="1"/></linearGradient><linearGradient xlink:href="#a" id="b" x1="6.86" y1="9.563" x2="40.715" y2="42.716" gradientUnits="userSpaceOnUse"/><linearGradient xlink:href="#a" id="c" gradientUnits="userSpaceOnUse" x1="6.86" y1="9.563" x2="40.715" y2="42.716"/><linearGradient xlink:href="#a" id="d" gradientUnits="userSpaceOnUse" x1="6.86" y1="9.563" x2="40.715" y2="42.716"/><linearGradient xlink:href="#a" id="e" gradientUnits="userSpaceOnUse" x1="6.86" y1="9.563" x2="40.715" y2="42.716"/><linearGradient xlink:href="#a" id="f" gradientUnits="userSpaceOnUse" x1="6.86" y1="9.563" x2="40.715" y2="42.716"/></defs><path d="M8.822 14.106l4.05 3.261 5.678-6.514-1.216-1.269-4.462 5.251-2.659-2.172zm0 0" fill="#ff0045" fill-rule="evenodd"/><g transform="translate(-2.237 -2.353) scale(1.09403)" fill="none" stroke="url(#b)"><path d="M22.337 14.468a7.783 7.783 0 0 1-7.782 7.783 7.783 7.783 0 0 1-7.785-7.782 7.783 7.783 0 0 1 7.784-7.784 7.783 7.783 0 0 1 7.783 7.783m0 0" stroke="url(#c)" stroke-width="1.8"/><path d="M14.554 6.555a7.915 7.915 0 0 0-7.913 7.913 7.915 7.915 0 0 0 7.913 7.913h18.465a7.915 7.915 0 0 0 7.911-7.913 7.915 7.915 0 0 0-7.913-7.913z" stroke="url(#d)" stroke-width="2"/><path d="M25 35.569a8.017 8.017 0 0 0 8.017 8.019 8.017 8.017 0 0 0 8.018-8.02 8.017 8.017 0 0 0-8.016-8.015A8.017 8.017 0 0 0 25 35.569m0 0" stroke="url(#e)" stroke-width="1.8"/><path d="M14.554 27.656A7.915 7.915 0 0 0 6.64 35.57a7.915 7.915 0 0 0 7.913 7.914h18.465a7.915 7.915 0 0 0 7.911-7.914 7.915 7.915 0 0 0-7.913-7.913z" stroke="url(#f)" stroke-width="2"/></g><path d="M29.98 32.656h1.625l2.28 2.929 2.29-2.929h1.618l-2.931 3.905 2.93 3.906h-1.624l-2.282-2.928-1.952 2.928h-1.953l2.93-3.906z" fill="#ff0045"/></svg>