<svg xmlns="http://www.w3.org/2000/svg" xmlns:xlink="http://www.w3.org/1999/xlink" viewBox="0 0 48 48"><defs><linearGradient id="a"><stop offset="0" stop-color="#00ff05"/><stop offset="1" stop-color="#e8ec00"/></linearGradient><linearGradient xlink:href="#a" id="c" x1="457.017" y1="534.738" x2="470.052" y2="547.632" gradientUnits="userSpaceOnUse" gradientTransform="translate(-758.398 -885.16) scale(1.68781)"/><linearGradient xlink:href="#a" id="b" x1="7.768" y1="10.254" x2="42" y2="41" gradientUnits="userSpaceOnUse"/></defs><g transform="translate(-4.212 -4.32) scale(1.17549)" fill="none" stroke="url(#b)" stroke-linecap="round" paint-order="markers stroke fill"><circle r="1.535" cy="9.515" cx="38.454" stroke-width="1.5"/><circle r="1.535" cy="9.515" cx="32.454" stroke-width="1.5"/><circle r="1.535" cy="9.515" cx="26.454" stroke-width="1.5"/><rect ry="2" y="14" x="6" height="27" width="36" stroke-width="2"/></g><path d="M34.852 16.356a2.954 13.291 44.998 0 0-10.994 7.528 2.954 13.291 44.998 0 0-5.234 6.075 5.125 5.125 0 0 1 3.335 3.335 2.954 13.291 44.998 0 0 6.074-5.232 2.954 13.291 44.998 0 0 7.31-11.487 2.954 13.291 44.998 0 0-.49-.219M17.848 32.093c-5.907 1.584-1.477 5.323-5.907 7.88 5.913 0 8.86-2.954 8.86-4.926 0-.982.1-2.79-2.952-2.954z" fill="url(#c)"/></svg>