<svg xmlns="http://www.w3.org/2000/svg" xmlns:xlink="http://www.w3.org/1999/xlink" viewBox="0 0 48 48"><defs><linearGradient id="d"><stop offset="0" stop-color="#3497db"/><stop offset="1" stop-color="#9b13af"/></linearGradient><linearGradient id="c"><stop offset="0" stop-color="#f8c82d"/><stop offset="1" stop-color="#90d218"/></linearGradient><linearGradient id="b"><stop offset="0" stop-color="#fd7c60"/><stop offset="1" stop-color="#ff00c6"/></linearGradient><linearGradient id="a"><stop offset="0" stop-color="#25cf7f"/><stop offset="1" stop-color="#6325cf"/></linearGradient><linearGradient xlink:href="#a" id="h" x1="14.656" y1="14.905" x2="35.725" y2="35.883" gradientUnits="userSpaceOnUse" gradientTransform="translate(-2.22 -2.258) scale(1.09296)"/><linearGradient xlink:href="#b" id="f" x1="25" y1="20" x2="33" y2="20" gradientUnits="userSpaceOnUse" gradientTransform="translate(-2.22 -2.258) scale(1.09296)"/><linearGradient xlink:href="#c" id="g" x1="23.612" y1="23.955" x2="30" y2="31.5" gradientUnits="userSpaceOnUse" gradientTransform="translate(-2.22 -2.258) scale(1.09296)"/><linearGradient xlink:href="#d" id="e" x1="20" y1="25" x2="19" y2="33.5" gradientUnits="userSpaceOnUse" gradientTransform="translate(-2.22 -2.258) scale(1.09296)"/></defs><path d="M17.454 33.81v-8.744h2.186v8.744m-2.186 0" fill="url(#e)" transform="rotate(-45.778 19.47 37.03) scale(1.32958)"/><path d="M25.105 18.508h8.743v2.186h-8.743m0-2.186" fill="url(#f)" transform="rotate(-45.778 19.47 37.03) scale(1.32958)"/><path d="M30.57 32.17l1.639-1.64-8.197-8.196-1.64 1.64zm0 0" fill="url(#g)" transform="rotate(-45.778 19.47 37.03) scale(1.32958)"/><path d="M18.547 10.858a7.65 7.65 0 0 0-7.65 7.65 7.65 7.65 0 0 0 7.65 7.651 7.65 7.65 0 0 0 7.65-7.65 7.65 7.65 0 0 0-7.65-7.651m0 2.186a5.464 5.464 0 0 1 5.465 5.464 5.464 5.464 0 0 1-5.465 5.465 5.464 5.464 0 0 1-5.465-5.465 5.464 5.464 0 0 1 5.465-5.464m0 0" fill="url(#h)" transform="rotate(-45.778 19.47 37.03) scale(1.32958)"/><path d="M27.725 37.824a4.361 4.361 0 0 0 .084 6.164 4.361 4.361 0 0 0 6.165-.083 4.361 4.361 0 0 0-.084-6.165 4.361 4.361 0 0 0-6.165.084m1.562 1.52a2.18 2.18 0 1 1 3.125 3.043 2.18 2.18 0 0 1-3.125-3.043m0 0" fill="#862db8"/><path d="M28.32 5.958a4.361 4.361 0 0 0 .084 6.165 4.361 4.361 0 0 0 6.165-.084 4.361 4.361 0 0 0-.084-6.164 4.361 4.361 0 0 0-6.165.083m1.562 1.52a2.18 2.18 0 1 1 3.124 3.043 2.18 2.18 0 0 1-3.124-3.042m0 0" fill="#ff1ab0"/><path d="M37.777 21.245a4.361 4.361 0 0 0 .083 6.164 4.361 4.361 0 0 0 6.165-.083 4.361 4.361 0 0 0-.084-6.165 4.361 4.361 0 0 0-6.164.084m1.562 1.52a2.18 2.18 0 1 1 3.124 3.043 2.18 2.18 0 0 1-3.124-3.043m0 0" fill="#a2d01c"/></svg>