<svg xmlns="http://www.w3.org/2000/svg" xmlns:xlink="http://www.w3.org/1999/xlink" viewBox="0 0 48 48"><defs><linearGradient id="a" gradientUnits="userSpaceOnUse" x1="24" x2="24" y1="2" y2="46"><stop stop-color="#f9ff2c" offset="0"/><stop stop-color="#0df328" offset="1"/></linearGradient><linearGradient xlink:href="#a" id="b" x1=".25" y1="24" x2="47.75" y2="24" gradientUnits="userSpaceOnUse"/><linearGradient xlink:href="#a" id="c" x1="11" y1="24" x2="37" y2="24" gradientUnits="userSpaceOnUse"/></defs><path d="M47 24a23 23 0 0 1-23 23A23 23 0 0 1 1 24 23 23 0 0 1 24 1a23 23 0 0 1 23 23z" fill="none" stroke="url(#b)" stroke-width="1.5"/><path d="M11 11v26h26V11H11zm3 3h4.324C20.912 14 22 15.273 22 17.5v.05c0 2.47-1.593 3.45-4 3.45h-2v4h-2V14zm15 0c2.046 0 3.127.594 4.15 1.617l-1.306 1.567C31 16.4 30.083 16 29 16c-1.796 0-2.985 1.558-2.998 3.41C26.014 21.265 27.144 23 29 23c1.204 0 2.157-.622 3-1.404l1.371 1.394C32.287 24.194 31.046 25 29 25c-3.19.06-5-2.49-5-5.56 0-3.07 1.69-5.44 5-5.44zm-13 2v3h2c1.204 0 2-.546 2-1.45v-.05c0-1.083-.796-1.5-2-1.5h-2zm-3 16h10v2H13v-2z" fill="url(#c)"/></svg>