<svg xmlns="http://www.w3.org/2000/svg" xmlns:xlink="http://www.w3.org/1999/xlink" viewBox="0 0 48 48"><defs><linearGradient id="a" x2="47" gradientUnits="userSpaceOnUse" x1="1" gradientTransform="rotate(-90 24 24)"><stop offset="0" stop-color="#005ed3"/><stop offset="1" stop-color="#0072ff"/></linearGradient><linearGradient xlink:href="#a" id="b" x1="91.052" y1="37.184" x2="133.133" y2="68.506" gradientUnits="userSpaceOnUse" gradientTransform="translate(-87.753 -26.534)"/></defs><path d="M28.187 7.513c-1.305 0-2.248.902-2.248 2.248v23.978c0 1.346.925 2.248 2.23 2.248 1.306 0 2.266-.751 2.266-2.248v-5.242h-2.997c1.622-2.313 2.77-3.759 4.496-5.995 1.78 2.26 2.721 3.729 4.496 5.995h-2.997v6.74c.948.323 1.498.753 4.045.75 5.21-.006 9.442-4.361 9.442-9.741s-4.216-9.741-9.425-9.741c-2.763 0-5.561.93-7.06 3V9.76c0-1.346-.943-2.248-2.248-2.248zm-16.783 7.496c-5.21 0-9.443 4.36-9.443 9.741 0 5.38 4.216 9.741 9.425 9.741 2.764 0 5.562-.928 7.06-2.997v9.74c0 1.347.943 2.249 2.248 2.249 1.305 0 2.248-.902 2.248-2.248V17.257c0-1.346-.925-2.248-2.23-2.248s-2.266.75-2.266 2.248v5.242h2.997c-1.621 2.312-2.769 3.759-4.495 5.995-1.78-2.26-2.722-3.73-4.496-5.995h2.997v-6.74c-.949-.323-1.499-.75-4.045-.75z" fill="none" stroke="url(#b)" stroke-width="1.8" stroke-linecap="round" stroke-linejoin="round"/></svg>