<svg xmlns="http://www.w3.org/2000/svg" width="48" height="48"><path d="M24 13c2.59 0 19 0 19 11.289v9.422C43 45 42.136 45 24 45c-3.455 0-19 0-19-11.289v-9.422C5 13 21.41 13 24 13z" opacity=".2"/><path d="M19 6l4.5 6M29 6l-3.5 6" fill="none" stroke="#37474f" stroke-width="1.5"/><ellipse cx="24" cy="12.5" rx="7" ry="2.5" fill="#37474f"/><circle cx="19" cy="7" r="2" opacity=".2"/><circle cx="19" cy="6" r="2" fill="#455a64"/><path d="M24 12c2.59 0 19 0 19 11.289v9.422C43 44 42.136 44 24 44c-3.455 0-19 0-19-11.289v-9.422C5 12 21.41 12 24 12z" fill="#455a64"/><circle cx="38.5" cy="39.5" r="2.5" opacity=".2"/><circle cx="38.5" cy="38.5" r="2.5" fill="#fff"/><path d="M22 16c1.91 0 14 0 14 8.467v7.066C36 40 24.545 40 22 40S8 40 8 31.533v-7.066C8 16 20.09 16 22 16z" opacity=".3"/><path d="M22 21.5l-4.5 14m14-14l-4 14" opacity=".5" fill="none" stroke="#26a69a" stroke-width="3" stroke-linecap="round"/><path d="M12.5 22.5l5 14" opacity=".2" fill="none" stroke="#000" stroke-width="3" stroke-linecap="round"/><path d="M12.5 21.5l5 14" fill="none" stroke="#26a69a" stroke-width="3" stroke-linecap="round"/><path d="M22 22.5l5.5 14" opacity=".2" fill="none" stroke="#000" stroke-width="3" stroke-linecap="round"/><path d="M22 21.5l5.5 14" fill="none" stroke="#26a69a" stroke-width="3" stroke-linecap="round"/><circle cx="29" cy="7" r="2" opacity=".2"/><circle cx="29" cy="6" r="2" fill="#455a64"/><path d="M19 4a2 2 0 0 0-2 2 2 2 0 0 0 .064.504A2 2 0 0 1 19 5a2 2 0 0 1 1.936 1.496A2 2 0 0 0 21 6a2 2 0 0 0-2-2zm5 8c-2.59 0-19 0-19 11.29v1C5 13 21.41 13 24 13s19 0 19 11.29v-1C43 12 26.59 12 24 12zm5-8a2 2 0 0 0-2 2 2 2 0 0 0 .064.504A2 2 0 0 1 29 5a2 2 0 0 1 1.936 1.496A2 2 0 0 0 31 6a2 2 0 0 0-2-2z" opacity=".1" fill="#fff"/></svg>