<svg xmlns="http://www.w3.org/2000/svg" xmlns:xlink="http://www.w3.org/1999/xlink" viewBox="0 0 48 48"><defs><linearGradient id="a"><stop stop-color="#007fff" offset="0"/><stop stop-color="#00ff9d" offset="1"/></linearGradient><linearGradient xlink:href="#a" id="b" x1="5.944" y1="6.03" x2="43.292" y2="41.984" gradientUnits="userSpaceOnUse"/></defs><g stroke="url(#b)" fill="none" stroke-width="1.8" stroke-linecap="round" stroke-linejoin="round"><path d="M24.323 7.765a15.921 15.921 0 0 0-11.277 4.684l5.642 5.643a7.974 7.974 0 0 1 5.635-2.34zm0 0v8.093a7.974 7.974 0 0 1 5.562 2.307L35.6 12.45a15.921 15.921 0 0 0-11.277-4.684z"/><path d="M13.062 12.448a15.924 15.924 0 0 0-4.687 11.277h7.937a7.974 7.974 0 0 1 2.412-5.613zM8.375 23.725a15.923 15.923 0 0 0 4.687 11.277l5.56-5.56a7.974 7.974 0 0 1-2.315-5.611 7.974 7.974 0 0 1 .005-.106zM35.6 12.448l-5.717 5.717a7.974 7.974 0 0 1 2.368 5.56h8.034A15.922 15.922 0 0 0 35.6 12.448zm-3.348 11.277a7.974 7.974 0 0 1 .003.106 7.974 7.974 0 0 1-2.268 5.558l5.614 5.613a15.922 15.922 0 0 0 4.684-11.277z"/><path d="M18.606 29.429l-5.56 5.56a15.923 15.923 0 0 0 11.277 4.686v-7.872a7.974 7.974 0 0 1-.042.002 7.974 7.974 0 0 1-5.675-2.376zm11.388-.047a7.974 7.974 0 0 1-5.67 2.421v7.872A15.922 15.922 0 0 0 35.6 34.988zm-5.673-16.118V2.78a20.894 20.894 0 0 0-14.8 6.148l7.405 7.405m14.694.097l7.5-7.5a20.894 20.894 0 0 0-14.799-6.15v10.622"/><path d="M16.973 16.36l-7.43-7.433a20.898 20.898 0 0 0-6.15 14.8h10.414"/><path d="M13.807 23.726H3.392a20.896 20.896 0 0 0 6.15 14.8l7.296-7.297m17.887-7.503h10.543A20.895 20.895 0 0 0 39.12 8.927l-7.503 7.503"/><path d="M31.754 31.16l7.367 7.366a20.895 20.895 0 0 0 6.147-14.8H34.726m-17.908 7.486l-7.297 7.296a20.896 20.896 0 0 0 14.8 6.15v-10.33"/><path d="M24.321 34.328v10.33a20.895 20.895 0 0 0 14.8-6.15l-7.358-7.358"/></g></svg>