<?xml version="1.0" encoding="UTF-8" ?>
<!DOCTYPE svg PUBLIC "-//W3C//DTD SVG 1.1//EN" "http://www.w3.org/Graphics/SVG/1.1/DTD/svg11.dtd">
<svg width="192pt" height="192pt" viewBox="0 0 192 192" version="1.1" xmlns="http://www.w3.org/2000/svg">
<g id="#ff7b1fff">
<path fill="#ff7b1f" opacity="1.00" d=" M 45.28 40.39 C 66.58 24.07 95.95 19.63 121.42 27.62 C 118.48 30.91 115.45 34.12 112.57 37.47 C 90.74 32.51 66.43 37.52 49.39 52.34 C 48.08 53.18 46.84 55.05 45.07 54.41 C 40.38 53.06 35.15 52.26 30.63 54.63 C 23.07 58.03 19.11 67.30 21.75 75.14 C 23.06 79.30 26.31 82.37 29.56 85.07 C 26.75 101.11 31.11 118.11 41.54 130.64 C 38.73 133.52 36.04 136.54 33.58 139.73 C 22.95 127.43 16.59 111.32 16.91 94.98 C 16.80 92.69 17.56 90.03 15.69 88.24 C 10.10 81.52 7.85 72.22 9.79 63.70 C 12.43 50.85 24.80 40.76 37.98 41.24 C 40.41 41.07 43.31 42.37 45.28 40.39 Z" />
</g>
<g id="#ff8b1fff">
<path fill="#ff8b1f" opacity="1.00" d=" M 121.42 27.62 C 131.17 30.60 140.27 35.51 148.25 41.84 C 152.19 41.16 156.22 41.02 160.19 41.58 C 156.60 45.08 151.75 48.07 150.91 53.44 C 149.01 54.03 147.13 54.67 145.22 55.22 C 141.99 51.90 138.31 49.05 134.37 46.64 C 127.76 42.23 120.26 39.32 112.57 37.47 C 115.45 34.12 118.48 30.91 121.42 27.62 Z" />
</g>
<g id="#00000040">
<path fill="#000000" opacity="0.25" d=" M 49.39 52.34 C 66.43 37.52 90.74 32.51 112.57 37.47 C 120.26 39.32 127.76 42.23 134.37 46.64 C 127.97 45.01 122.12 41.74 115.65 40.35 C 94.98 35.27 71.68 38.47 54.49 51.52 C 52.01 53.24 49.81 55.59 46.88 56.52 C 42.16 56.23 37.22 54.37 32.69 56.69 C 25.20 59.38 21.70 67.66 21.75 75.14 C 19.11 67.30 23.07 58.03 30.63 54.63 C 35.15 52.26 40.38 53.06 45.07 54.41 C 46.84 55.05 48.08 53.18 49.39 52.34 Z" />
<path fill="#000000" opacity="0.25" d=" M 145.22 55.22 C 147.13 54.67 149.01 54.03 150.91 53.44 C 156.37 52.30 162.34 53.65 166.35 57.65 C 163.53 56.76 160.68 55.91 157.75 55.51 C 154.09 55.04 150.52 56.24 147.00 57.04 C 146.40 56.43 145.81 55.82 145.22 55.22 Z" />
<path fill="#000000" opacity="0.25" d=" M 183.23 64.83 C 186.97 73.90 183.24 84.08 177.33 91.29 C 174.57 94.32 177.17 99.07 174.53 102.07 C 175.21 97.60 173.10 92.17 176.61 88.58 C 182.24 82.13 184.51 73.23 183.23 64.83 Z" />
<path fill="#000000" opacity="0.25" d=" M 129.46 118.93 C 129.66 120.56 130.12 122.49 128.82 123.81 C 125.89 127.46 121.52 129.47 117.40 131.46 C 106.50 136.59 93.63 138.15 82.21 133.77 C 78.69 132.19 74.13 131.30 72.25 127.56 C 77.16 130.32 82.52 132.19 88.05 133.22 C 97.05 135.29 106.41 133.13 114.88 129.93 C 120.31 127.24 126.63 124.70 129.46 118.93 Z" />
</g>
<g id="#ff991fff">
<path fill="#ff991f" opacity="1.00" d=" M 150.91 53.44 C 151.75 48.07 156.60 45.08 160.19 41.58 C 171.65 43.80 181.18 53.31 183.23 64.83 C 184.51 73.23 182.24 82.13 176.61 88.58 C 173.10 92.17 175.21 97.60 174.53 102.07 L 174.45 102.81 C 172.26 120.24 163.24 136.54 149.79 147.78 C 128.60 166.01 97.97 171.63 71.37 163.67 C 74.29 160.29 77.35 157.03 80.36 153.74 C 94.82 156.72 110.19 155.48 123.86 149.82 C 138.08 143.97 150.51 133.24 157.29 119.31 C 162.59 108.92 163.73 96.94 162.17 85.50 C 164.89 83.48 167.75 81.41 169.44 78.39 C 173.39 71.87 172.05 62.72 166.35 57.65 C 162.34 53.65 156.37 52.30 150.91 53.44 Z" />
</g>
<g id="#ff831fff">
<path fill="#ff831f" opacity="1.00" d=" M 53.42 80.42 C 56.51 72.17 66.86 67.31 75.04 71.01 C 80.93 73.16 84.95 78.81 85.88 84.90 C 86.20 91.88 82.49 99.00 76.00 101.92 C 70.24 104.83 63.31 103.34 58.22 99.75 C 52.94 95.04 50.51 87.06 53.42 80.42 M 66.42 82.31 C 63.04 84.11 63.32 89.67 66.77 91.25 C 69.84 92.94 74.05 90.44 74.03 86.93 C 74.45 83.12 69.63 79.95 66.42 82.31 Z" />
</g>
<g id="#ff8f1fff">
<path fill="#ff8f1f" opacity="1.00" d=" M 105.41 83.16 C 107.04 74.81 115.64 68.74 124.05 69.93 C 130.98 70.67 136.48 76.31 138.29 82.85 C 140.27 91.18 134.85 100.34 126.67 102.73 C 121.84 104.32 116.60 103.05 112.28 100.62 C 107.01 96.65 103.84 89.73 105.41 83.16 M 119.37 82.22 C 116.12 83.92 115.97 89.03 119.10 90.94 C 122.14 93.17 126.85 90.68 126.91 86.97 C 127.25 83.22 122.64 80.01 119.37 82.22 Z" />
</g>
<g id="#00000039">
<path fill="#000000" opacity="0.22" d=" M 138.29 82.85 C 143.21 91.29 136.58 102.32 127.95 105.04 C 122.67 106.86 115.14 105.99 112.28 100.62 C 116.60 103.05 121.84 104.32 126.67 102.73 C 134.85 100.34 140.27 91.18 138.29 82.85 Z" />
</g>
<g id="#0000003a">
<path fill="#000000" opacity="0.23" d=" M 85.88 84.90 C 88.06 88.86 86.85 93.84 84.51 97.46 C 81.04 103.14 74.03 106.97 67.36 105.67 C 63.86 104.67 59.84 103.33 58.22 99.75 C 63.31 103.34 70.24 104.83 76.00 101.92 C 82.49 99.00 86.20 91.88 85.88 84.90 Z" />
</g>
<g id="#0000003f">
<path fill="#000000" opacity="0.25" d=" M 149.79 147.78 C 163.24 136.54 172.26 120.24 174.45 102.81 C 175.81 108.39 173.86 113.98 172.24 119.27 C 162.53 147.88 133.59 167.15 104.02 169.26 C 95.51 169.55 86.87 169.67 78.56 167.57 C 69.15 165.73 60.42 161.60 52.17 156.85 C 50.81 156.15 50.02 154.81 49.29 153.54 C 56.16 157.87 63.54 161.46 71.37 163.67 C 97.97 171.63 128.60 166.01 149.79 147.78 Z" />
</g>
<g id="#ff901fff">
<path fill="#ff901f" opacity="1.00" d=" M 65.14 121.89 C 62.63 118.58 64.90 113.18 69.05 112.70 C 71.89 112.07 74.03 114.39 76.18 115.80 C 84.96 122.31 96.96 123.85 107.21 120.24 C 111.71 118.79 115.69 116.20 119.66 113.70 C 121.41 112.49 123.76 112.23 125.64 113.28 C 127.90 114.28 128.41 116.95 129.46 118.93 C 126.63 124.70 120.31 127.24 114.88 129.93 C 106.41 133.13 97.05 135.29 88.05 133.22 C 82.52 132.19 77.16 130.32 72.25 127.56 C 69.71 125.92 67.10 124.22 65.14 121.89 Z" />
</g>
<g id="#ff8a1fff">
<path fill="#ff8a1f" opacity="1.00" d=" M 41.54 130.64 C 51.30 142.54 65.37 150.56 80.36 153.74 C 77.35 157.03 74.29 160.29 71.37 163.67 C 63.54 161.46 56.16 157.87 49.29 153.54 C 43.48 149.65 38.22 144.96 33.58 139.73 C 36.04 136.54 38.73 133.52 41.54 130.64 Z" />
</g>
</svg>
