<svg xmlns="http://www.w3.org/2000/svg" xmlns:xlink="http://www.w3.org/1999/xlink" viewBox="0 0 48 48"><defs><linearGradient id="b"><stop offset="0" stop-color="#00a4eb"/><stop offset="1" stop-color="#00fa9f"/></linearGradient><linearGradient id="a"><stop offset="0" stop-color="#00fa9f"/><stop offset="1" stop-color="#00a4eb"/></linearGradient><linearGradient xlink:href="#a" id="d" x1="15.96" y1="41.213" x2="43.031" y2="21.891" gradientUnits="userSpaceOnUse"/><linearGradient xlink:href="#b" id="c" x1="3.748" y1="28.753" x2="31.632" y2="7.193" gradientUnits="userSpaceOnUse"/></defs><path d="M24 2.528C12.142 2.524 2.521 12.141 2.528 24A21.407 21.407 0 0 0 5.73 35.228l3.372-2.25A17.033 17.033 0 0 1 6.53 24c-.004-9.486 7.755-17.182 17.324-17.177A17.359 17.359 0 0 1 37.8 13.846l3.595-2.4A21.458 21.458 0 0 0 24 2.528zm10.02 15.746l-12.883 8.589 12.883 8.589v-5.726l-4.294-2.863L34.02 24z" fill="url(#c)"/><path d="M13.98 12.548v5.726l4.294 2.863L13.98 24v5.726l12.883-8.589zm28.291.224l-3.584 2.39A17.02 17.02 0 0 1 41.178 24c.005 9.487-7.757 17.182-17.326 17.177a17.363 17.363 0 0 1-13.85-6.888l-3.398 2.264A21.458 21.458 0 0 0 24 45.472c11.859.004 21.48-9.613 21.472-21.472a21.407 21.407 0 0 0-3.201-11.228z" fill="url(#d)"/></svg>