<svg xmlns="http://www.w3.org/2000/svg" xmlns:xlink="http://www.w3.org/1999/xlink" viewBox="0 0 48 48"><defs><linearGradient id="a"><stop stop-color="#e800ff" offset="0"/><stop stop-color="#ff5400" offset="1"/></linearGradient><linearGradient xlink:href="#a" id="b" x1="5.046" y1="11.369" x2="43.713" y2="40.555" gradientUnits="userSpaceOnUse"/><linearGradient xlink:href="#a" id="c" gradientUnits="userSpaceOnUse" x1="5.046" y1="11.369" x2="43.713" y2="40.555"/><linearGradient xlink:href="#a" id="d" x1="5.046" y1="11.369" x2="43.713" y2="40.555" gradientUnits="userSpaceOnUse"/></defs><g fill="none" stroke="url(#b)" stroke-width="2" stroke-linecap="round" stroke-linejoin="round" paint-order="fill markers stroke"><path d="M5.18 9.56a1.875 1.875 0 0 0-1.88 1.881V27.59l13.788 1.043.49-.037V16.61a1.875 1.875 0 0 1 1.881-1.879l.002-.002h11.414v-3.29a1.875 1.875 0 0 0-1.879-1.88H5.182zm8.728 21.211c0 3.182-2.12 5.303-2.12 5.303h10.607s-1.17-1.176-1.772-3.084l-3.045-.23v-1.99z" stroke="url(#c)"/><path d="M19.46 14.73h23.813a1.875 1.875 0 0 1 1.88 1.88v16.15l-13.787 1.043-13.788-1.043V16.61a1.875 1.875 0 0 1 1.88-1.88m8.729 21.21c0 3.182-2.121 5.303-2.121 5.303h10.606s-2.121-2.12-2.121-5.302h-6.364m-4.242 5.303h14.848" stroke="url(#d)"/></g></svg>