<svg xmlns="http://www.w3.org/2000/svg" xmlns:xlink="http://www.w3.org/1999/xlink" viewBox="0 0 48 48"><defs><linearGradient id="a" x1="1" x2="47" gradientUnits="userSpaceOnUse"><stop offset="0" stop-color="#00e9ff"/><stop offset="1" stop-color="#0b6eff"/></linearGradient><linearGradient xlink:href="#a" id="b" x1="68.725" y1="-18.527" x2="111.864" y2="2.183" gradientUnits="userSpaceOnUse" gradientTransform="translate(-66.102 32.653)"/></defs><path d="M14.954 11.79l3.99 5.32h-7.98l-.829 3.991H5.643l1.33-5.32h-2.66l-2.66 10.64h7.48l-.83 3.99h5.32l-3.99 5.32h5.321l3.99-5.32h10.64l3.991 5.32h5.32l-3.99-5.32h5.32l-.828-3.99h7.479l-2.66-10.64h-2.66l1.33 5.32h-4.492l-.829-3.99h-7.98l3.99-5.32h-2.66l-3.99 5.32h-5.32l-3.99-5.32zm-1.33 7.981h5.32v5.32h-5.32zm15.96 0h5.321v5.32h-5.32z" fill="none" stroke="url(#b)" stroke-width="1.8" stroke-linecap="round" stroke-linejoin="round"/></svg>