<svg xmlns="http://www.w3.org/2000/svg" xmlns:xlink="http://www.w3.org/1999/xlink" viewBox="0 0 48 48"><defs><linearGradient id="a"><stop offset="0" stop-color="#425d6c"/><stop offset="1" stop-color="#ffc600"/></linearGradient><linearGradient xlink:href="#a" id="b" x1="14.869" y1="17.79" x2="40.424" y2="43.678" gradientUnits="userSpaceOnUse"/></defs><rect x="5.898" y="2.657" width="35.587" height="42.06" rx="4.299" fill="none" stroke-width="1.618" stroke="url(#b)"/><path d="M15.603 10.748a1.618 1.618 0 1 1-3.235 0 1.618 1.618 0 1 1 3.235 0zm19.412 0a1.618 1.618 0 1 1-3.235 0 1.618 1.618 0 1 1 3.235 0zM15.603 36.63a1.618 1.618 0 1 1-3.235 0 1.618 1.618 0 1 1 3.235 0zm19.412 0a1.618 1.618 0 1 1-3.235 0 1.618 1.618 0 1 1 3.235 0z" fill="#88a4b3"/><path d="M31.78 30.16a8.088 8.088 0 1 1-16.177 0 8.088 8.088 0 1 1 16.177 0z" fill="#334d5c"/><path d="M30.162 30.16a6.47 6.47 0 1 1-12.94 0 6.47 6.47 0 1 1 12.94 0z" fill="#fcec09"/><path d="M26.927 30.16a3.235 3.235 0 1 1-6.47 0 3.235 3.235 0 1 1 6.47 0z" fill="#334d5c"/><path d="M25.31 30.16a1.618 1.618 0 1 1-3.236 0 1.618 1.618 0 1 1 3.235 0z" fill="#f0f0f0"/><path d="M28.544 13.984a4.853 4.853 0 1 1-9.705 0 4.853 4.853 0 1 1 9.705 0z" fill="#ebeeef"/><path d="M26.927 13.984a3.235 3.235 0 1 1-6.47 0 3.235 3.235 0 1 1 6.47 0z" fill="#334d5c"/><path d="M25.31 13.984a1.618 1.618 0 1 1-3.236 0 1.618 1.618 0 1 1 3.235 0z" fill="#fff600"/></svg>