<svg xmlns="http://www.w3.org/2000/svg" xmlns:xlink="http://www.w3.org/1999/xlink" viewBox="0 0 48 48"><defs><linearGradient id="a" gradientUnits="userSpaceOnUse" x1="24" x2="24" y1="2" y2="46"><stop stop-color="#f9ad07" offset="0"/><stop stop-color="#ff06a6" offset="1"/></linearGradient><linearGradient xlink:href="#a" id="b" x1="1" y1="24" x2="47" y2="24" gradientUnits="userSpaceOnUse"/><linearGradient xlink:href="#a" id="c" x1="11" y1="24" x2="37" y2="24" gradientUnits="userSpaceOnUse"/></defs><path d="M47 24a23 23 0 0 1-23 23A23 23 0 0 1 1 24 23 23 0 0 1 24 1a23 23 0 0 1 23 23z" fill="none" stroke="url(#b)" stroke-width="1.5"/><path d="M11 11v26h26V11H11zm4 3h4.326C21.914 14 23 15.273 23 17.5v.049c0 1.906-.957 2.918-2.5 3.283L23 25h-2l-2.4-4.002L17 21v4h-2V14zm9 0h4.326C30.913 14 33 16.017 33 19.475v.05c0 3.492-2.51 5.435-4.445 5.457L27 25h-3V14zm-7 2v3h2c1.204.001 2-.572 2-1.475v-.05C21 16.39 20.204 16 19 16h-2zm9 0v7h2c1.204 0 3-.983 3-3.475v-.05C31 17.017 29.204 16 28 16h-2zM13 32h10v2H13v-2z" fill="url(#c)"/></svg>