<svg xmlns="http://www.w3.org/2000/svg" xmlns:xlink="http://www.w3.org/1999/xlink" viewBox="0 0 48 48"><defs><linearGradient y2="46" y1="2" x2="24" x1="24" gradientUnits="userSpaceOnUse" id="a"><stop offset="0" stop-color="#ff903a"/><stop offset="1" stop-color="#ef212d"/></linearGradient><linearGradient xlink:href="#a" id="b" x1=".5" y1="24" x2="47.5" y2="24" gradientUnits="userSpaceOnUse"/><linearGradient xlink:href="#a" id="c" x1="11" y1="24" x2="37" y2="24" gradientUnits="userSpaceOnUse"/></defs><path d="M47 24a23 23 0 0 1-23 23A23 23 0 0 1 1 24 23 23 0 0 1 24 1a23 23 0 0 1 23 23z" fill="none" stroke="url(#b)" stroke-width="1.5"/><path d="M11 11v26h26V11H11zm3 3h4c2 0 4 1.557 4 3.5 0 1.5-.941 2.41-2.205 3.127L22 25h-2l-2-4h-2v4h-2V14zm10 0h2l3 5 3-5h2v11h-2v-7l-3 5-3-5v7h-2V14zm-8 2v3h2c1.56 0 2-.712 2.027-1.5C20 16.802 19.586 16 18 16h-2zm-3 16h10v2H13v-2z" fill="url(#c)"/></svg>