<svg xmlns="http://www.w3.org/2000/svg" xmlns:xlink="http://www.w3.org/1999/xlink" viewBox="0 0 48 48"><defs><linearGradient id="a"><stop offset="0" stop-color="#df4f00"/><stop offset="1" stop-color="#ff0073"/></linearGradient><linearGradient xlink:href="#a" id="b" x1="12" y1="23" x2="36" y2="23" gradientUnits="userSpaceOnUse"/></defs><g transform="translate(-20.61 -19.751) scale(1.85876)" fill="url(#b)"><path d="M14 30c-.559 0-1 .477-1 1 0 .582.383 1 1 1h22l-3.156-2z"/><path d="M16 27h16v1H16m0-1" fill="#009efa"/><path d="M28 14c-1 0-.917 0-1.5.5L12.496 26.504c-.5.5-.496.814-.496 1.496v1l17-15z"/><path d="M12 28v1.5a1.5 1.5 0 0 0 1.5 1.5H15v-1.5a1.5 1.5 0 0 0-1.5-1.5zm1.5 1a.5.5 0 1 1 0 1 .5.5 0 0 1 0-1z"/></g></svg>