<svg xmlns="http://www.w3.org/2000/svg" xmlns:xlink="http://www.w3.org/1999/xlink" viewBox="0 0 48 48"><defs><linearGradient gradientTransform="rotate(-90 24 24)" gradientUnits="userSpaceOnUse" x2="47" x1="1" id="a"><stop stop-color="#eec60d"/><stop offset="1" stop-color="#ec6400"/></linearGradient><linearGradient xlink:href="#a" id="b" x1="3.503" y1="2.592" x2="45.903" y2="43.03" gradientUnits="userSpaceOnUse"/><linearGradient xlink:href="#a" id="d" gradientUnits="userSpaceOnUse" x1="3.503" y1="2.592" x2="45.903" y2="43.03" gradientTransform="translate(-3.102 -3.087) scale(1.12924)"/><linearGradient xlink:href="#a" id="c" gradientUnits="userSpaceOnUse" x1="3.503" y1="2.592" x2="45.903" y2="43.03" gradientTransform="translate(-3.102 -3.087) scale(1.12924)"/></defs><g transform="translate(1.57 1.283) scale(.94055)" fill="none" stroke="url(#b)" stroke-width="1.914"><path d="M6.128 26.273v-13.55m3.387 6.775v-6.775m3.388 6.775v-6.775m3.388 6.775v-6.775m3.387 6.775v-6.775m3.388 10.163V12.723m3.388 6.775v-6.775m3.388 6.775v-6.775m3.387 6.775v-6.775m3.388 6.775v-6.775m3.388 13.55v-13.55m3.387 6.775v-6.775m3.388 6.775l-.03-6.76" stroke="url(#c)" stroke-width="1.801"/><path d="M-.558 10.464h49.126" stroke="url(#d)" stroke-width="2.161"/></g><path d="M37.377 27.9v1.13h1.13v6.775h-2.26v1.129h5.647v-1.13h-2.259V27.9m-2.258 1.13h-1.13v1.129h1.13M5.758 27.9v1.13h3.388V27.9zm3.388 1.13v6.775h1.13v-6.776zm0 6.775H5.758v1.129h3.388zm-3.388 0v-6.776h-1.13v6.776z" stroke-width=".903" fill="#ec6e01" stroke="#ec6e01"/></svg>