<svg xmlns="http://www.w3.org/2000/svg" xmlns:xlink="http://www.w3.org/1999/xlink" viewBox="0 0 48 48"><defs><linearGradient id="a"><stop offset="0" stop-color="#00ff9d"/><stop offset="1" stop-color="#9900b4"/></linearGradient><linearGradient xlink:href="#a" id="b" x1="35.842" y1="10.955" x2="17.459" y2="32.08" gradientUnits="userSpaceOnUse" gradientTransform="translate(-3.429 -3.445) scale(1.1426)"/></defs><path d="M14.656 36.508l-3.265-3.266-7.208 7.208 3.266 3.266m7.207-7.208" fill="#2d2d2d"/><path d="M19.848 30.522l-2.29-2.29-5.482 5.277 2.29 2.29" fill="#7b31b0"/><path d="M32.968 9.168l-1.476 4.378c1.81.606 3.141 2.271 3.141 4.282 0 .268-.053.506-.096.762l4.52.761a9.116 9.116 0 0 0 .144-1.523c0-4.031-2.611-7.446-6.233-8.66" fill="#17d9a0"/><path d="M42.388 19.066c0 7.148-5.793 12.941-12.942 12.941-7.154 0-12.947-5.793-12.941-12.941-.006-7.143 5.787-12.942 12.941-12.942 7.149 0 12.942 5.8 12.942 12.942" fill="none" stroke="url(#b)" stroke-width="3.045"/></svg>