<svg xmlns="http://www.w3.org/2000/svg" xmlns:xlink="http://www.w3.org/1999/xlink" viewBox="0 0 48 48"><defs><linearGradient id="a"><stop offset="0" stop-color="#f761db" stop-opacity=".996"/><stop offset="1" stop-color="#bc002f"/></linearGradient><linearGradient xlink:href="#a" id="b" x1="13.137" y1="12.919" x2="34.719" y2="34.348" gradientUnits="userSpaceOnUse" gradientTransform="translate(-8.795 -9.161) scale(1.36645)"/></defs><path d="M6.458 3.886L6.406 25c-.032 12.316 5.278 15.836 17.593 21.114C36.316 40.836 41.627 37.316 41.594 25L41.54 3.886zM24 7.406c.97 0 1.759.79 1.759 1.758a1.76 1.76 0 1 1-3.519 0c0-.97.783-1.758 1.76-1.758m0 7.037c.97 0 1.759.79 1.759 1.76a1.76 1.76 0 1 1-3.519 0c0-.97.783-1.76 1.76-1.76M9.924 21.48c.97 0 1.759.791 1.759 1.76a1.757 1.757 0 1 1-1.76-1.76m7.038 0c.97 0 1.76.791 1.76 1.76a1.757 1.757 0 1 1-1.76-1.76m7.038 0c.97 0 1.76.791 1.76 1.76a1.757 1.757 0 1 1-1.76-1.76m7.038 0c.97 0 1.76.791 1.76 1.76a1.757 1.757 0 1 1-1.76-1.76m7.037 0c.97 0 1.76.791 1.76 1.76a1.757 1.757 0 1 1-1.76-1.76M24 28.52c.97 0 1.759.79 1.759 1.76a1.76 1.76 0 1 1-3.519 0c0-.97.783-1.76 1.76-1.76m0 7.037c.97 0 1.759.791 1.759 1.76a1.757 1.757 0 1 1-1.76-1.76" fill="none" stroke="url(#b)" stroke-width="2.2" stroke-linecap="round" stroke-linejoin="round"/></svg>