<svg xmlns="http://www.w3.org/2000/svg" xmlns:xlink="http://www.w3.org/1999/xlink" viewBox="0 0 48 48"><defs><linearGradient id="a"><stop offset="0" stop-color="#00ff09"/><stop offset="1" stop-color="#0064ff"/></linearGradient><linearGradient xlink:href="#a" id="b" x1="52.205" y1="18.538" x2="94.742" y2="18.538" gradientUnits="userSpaceOnUse"/><linearGradient xlink:href="#a" id="c" gradientUnits="userSpaceOnUse" x1="52.205" y1="18.538" x2="94.742" y2="18.538" gradientTransform="rotate(6.765 76.61 13.172)"/><linearGradient xlink:href="#a" id="g" gradientUnits="userSpaceOnUse" x1="52.205" y1="18.538" x2="94.742" y2="18.538" gradientTransform="translate(-.61 -.407)"/><linearGradient xlink:href="#a" id="f" gradientUnits="userSpaceOnUse" x1="52.205" y1="18.538" x2="94.742" y2="18.538" gradientTransform="translate(-.61 -.407)"/><linearGradient xlink:href="#a" id="e" gradientUnits="userSpaceOnUse" x1="52.205" y1="18.538" x2="94.742" y2="18.538" gradientTransform="translate(-.61 -.407)"/><linearGradient xlink:href="#a" id="d" gradientUnits="userSpaceOnUse" x1="52.205" y1="18.538" x2="94.742" y2="18.538" gradientTransform="translate(-.61 -.407)"/></defs><g stroke="url(#b)" stroke-width="1.575" transform="translate(-48.814 6.508)"><path d="M65.547-3.3c-1.302-.516-3.005.632-3.515 1.906L51.526 24.885c-.585 1.464.297 3.5 1.757 4.082 8.773 3.498 17.544 7 26.316 10.498 1.466.584 3.507-.289 4.091-1.753 3.498-8.759 7.006-17.513 10.506-26.27.577-1.444-.315-3.512-1.757-4.085z" fill="none" stroke="url(#c)"/><path d="M59.579 1.618c-1.575 0-3.15 1.575-3.15 3.15v28.355c0 1.575 1.568 3.15 3.15 3.15h20.478l11.026-11.026V4.769c0-1.563-1.594-3.15-3.15-3.15z" fill="none" stroke="url(#d)"/><path d="M64.305 6.344c-3.15 0-3.15 0-3.15 3.15v18.903c0 3.166 0 3.15 3.15 3.15h18.902l3.15-3.15V9.494c0-3.166 0-3.15-3.15-3.15z" fill="none" stroke="url(#e)"/><path d="M69.03 15.795l-7.87 7.385v5.22c0 3.166 0 3.15 3.15 3.15l18.897-.003 3.15-4.725-8.312-8.566-3.787 3.15z" fill="none" fill-rule="evenodd" stroke="url(#f)"/><path d="M80.057 36.273l11.026-11.026h-7.876c-1.569 0-3.144 1.568-3.144 3.144v7.876m-.006.006" fill="#00fb0f" stroke="url(#g)" stroke-linecap="round" stroke-linejoin="round"/></g></svg>