<svg width="64" height="64" viewBox="0 0 64 64" fill="none" xmlns="http://www.w3.org/2000/svg">
<g clip-path="url(#clip0)">
<path d="M0.0318552 11.4743C0.30407 6.92718 4.75158 3.01492 9.69549 3.01862C17.2294 3.01123 24.7594 2.99278 32.2893 3.01862C29.9315 3.63129 27.4735 3.22899 25.0837 3.52426C23.8467 4.40267 23.0861 5.74612 22.2014 6.91242C25.552 7.01207 28.9307 6.84967 32.2573 7.34055C24.8795 7.37008 17.5017 7.34424 10.1198 7.34793C9.30318 7.40329 8.45451 7.48818 7.70992 7.83143C5.88848 8.56221 4.68353 10.3744 4.70355 12.194C4.70355 21.1552 4.67953 30.1165 4.71956 39.0778C4.82765 39.2144 5.04382 39.4875 5.1519 39.624C5.0198 39.6794 4.75559 39.7864 4.62348 39.8418C4.25119 38.2732 4.50339 36.6529 4.43934 35.0585C4.36328 29.7843 4.42333 24.5065 4.33926 19.236C2.88611 20.9781 1.6051 22.8419 0.0118397 24.4843C0.0158428 20.1477 -0.0281923 15.811 0.0318552 11.4743Z" fill="#0D95FF"/>
<path d="M32.2893 3.01861C39.5791 3.03706 46.8769 2.9411 54.1626 3.0629C53.1338 4.23657 52.089 5.41025 51.2683 6.72049C51.9609 7.00468 52.6935 7.19291 53.434 7.35161C46.3765 7.359 39.3189 7.35161 32.2573 7.34054C28.9307 6.84966 25.552 7.01206 22.2014 6.91241C23.0861 5.74611 23.8467 4.40266 25.0836 3.52425C27.4735 3.22898 29.9315 3.63128 32.2893 3.01861Z" fill="#18ADFF"/>
<path d="M51.2683 6.72052C52.089 5.41028 53.1338 4.2366 54.1626 3.06293C56.7687 3.31021 59.2426 4.5577 60.8679 6.45478C59.5749 7.39963 58.7862 8.76153 57.7094 9.89092C56.8487 8.43674 55.1954 7.52511 53.434 7.35165C52.6934 7.19294 51.9609 7.00471 51.2683 6.72052Z" fill="#20BDFF"/>
<path d="M57.7094 9.89092C58.7863 8.76153 59.5749 7.39962 60.8679 6.45477C61.4203 7.09697 61.8887 7.8093 62.237 8.56592C62.7174 9.71745 63.0376 10.9354 63.0256 12.1792C63.0296 17.8077 63.0296 23.4362 63.0256 29.0647C61.1922 30.6665 60.1073 32.8256 58.3139 34.4606C58.2939 26.9351 58.3219 19.4095 58.3059 11.884C58.2819 11.1827 58.0217 10.5184 57.7094 9.89092Z" fill="#26CAFF"/>
<path opacity="0.25" d="M4.70356 12.194C4.68354 10.3744 5.88849 8.56226 7.70993 7.83148L8.11826 8.30021C7.42571 9.07159 6.57704 9.73594 6.04862 10.6217C5.46016 13.316 5.42012 16.11 5.80843 18.8301C5.5122 21.0372 5.46816 23.2812 5.75239 25.4957C5.3881 28.6735 5.67232 31.8845 5.57625 35.077C5.49218 36.3799 5.68834 37.6717 5.8965 38.9561C5.73637 39.1295 5.42012 39.4728 5.26 39.6426L5.15191 39.6241C5.04383 39.4875 4.82766 39.2144 4.71957 39.0779C4.67954 30.1166 4.70356 21.1553 4.70356 12.194Z" fill="black"/>
<path opacity="0.25" d="M20.7522 27.8209C20.9403 27.8468 21.3247 27.8984 21.5168 27.928C25.3638 31.2202 28.5864 35.077 32.4935 38.3139C32.3774 38.4135 32.1372 38.6165 32.0211 38.7162C31.2045 37.9596 30.4318 37.1697 29.6272 36.4057C27.3414 34.1913 25.0556 31.9768 22.7738 29.7623C22.1053 29.109 21.4407 28.4521 20.7522 27.8209Z" fill="black"/>
<path opacity="0.25" d="M4.73553 46.4668C9.6314 42.0046 14.3511 37.3763 19.203 32.8699C19.4552 33.095 19.7034 33.3238 19.9476 33.5601L20.0917 33.7114C15.8003 37.3357 11.8692 41.3108 7.72189 45.0754C6.95328 45.8504 5.89645 46.5369 5.72031 47.6479C5.36003 49.5966 5.63224 51.597 5.96851 53.531C6.30477 54.3762 6.79716 55.155 7.12942 56.0002C5.52816 55.1254 4.63145 53.3797 4.6995 51.6893C4.72752 49.9472 4.64746 48.2015 4.73553 46.4668Z" fill="black"/>
<path opacity="0.25" d="M62.237 8.56592C62.4652 8.57699 62.9175 8.59913 63.1417 8.61021C63.6581 9.7359 64.0104 10.9465 63.9703 12.1755C63.9784 22.3954 63.9864 32.6115 63.9703 42.8277C64.3186 44.7063 61.5124 45.6216 60.0913 44.6436C61.5444 44.9905 63.1297 43.8574 63.0256 42.4549C63.0296 37.9927 63.0256 33.5305 63.0256 29.0647C63.0296 23.4362 63.0296 17.8077 63.0256 12.1792C63.0376 10.9354 62.7174 9.71745 62.237 8.56592Z" fill="black"/>
<path d="M41.0442 13.5005C43.246 12.7254 45.832 13.0724 47.7335 14.342C48.5141 14.9436 49.2387 15.6227 49.7271 16.4531C46.8848 19.4575 44.4709 22.7903 41.985 26.0492C41.8008 26.0086 41.4325 25.9311 41.2484 25.8905C38.5222 25.049 36.4886 22.5947 36.4126 19.9299C36.2324 17.1581 38.21 14.4306 41.0442 13.5005Z" fill="#F6B02C"/>
<path opacity="0.24" d="M47.7335 14.342C49.1866 14.5044 50.0353 15.7334 50.7318 16.789C52.5653 19.7416 51.4644 23.8421 48.346 25.6691C46.3043 26.8649 43.2539 27.3373 41.2484 25.8905C41.4325 25.9311 41.8008 26.0086 41.9849 26.0492C45.2595 26.7837 48.8944 25.0232 50.1073 22.1259C50.92 20.31 50.7759 18.1657 49.727 16.4531C49.2387 15.6227 48.5141 14.9436 47.7335 14.342Z" fill="black"/>
<path d="M41.985 26.0493C44.4709 22.7904 46.8848 19.4576 49.7271 16.4532C50.7759 18.1658 50.92 20.3101 50.1074 22.126C48.8944 25.0233 45.2595 26.7838 41.985 26.0493Z" fill="#F6BF38"/>
<path d="M0.0118414 24.4844C1.6051 22.842 2.88611 20.9781 4.33926 19.2361C4.42333 24.5066 4.36328 29.7844 4.43934 35.0586C4.50339 36.653 4.25119 38.2733 4.62348 39.8419C3.26241 41.5655 1.55706 43.027 0.00783818 44.6067C-0.000168147 37.9005 -0.000168056 31.1906 0.0118414 24.4844Z" fill="#12A0FF"/>
<path d="M17.3615 28.1199C18.1782 27.2341 19.7794 27.0569 20.7522 27.8209C21.4407 28.452 22.1053 29.109 22.7738 29.7623C21.797 31.0061 20.7962 32.2388 19.9476 33.5601C19.7034 33.3239 19.4552 33.0951 19.203 32.8699C14.3511 37.3764 9.63141 42.0047 4.73555 46.4669C4.64748 48.2016 4.72754 49.9473 4.69952 51.6894C4.63146 53.3798 5.52817 55.1255 7.12944 56.0002C7.55778 56.266 8.05016 56.4247 8.52654 56.6018C7.61382 57.8198 6.69309 59.0415 5.82441 60.289L5.5682 60.193C2.37368 58.7573 0.139916 55.6644 0.015818 52.3832C-0.00419783 49.7923 0.00380832 47.1977 0.00781148 44.6067C1.55704 43.027 3.26238 41.5655 4.62346 39.8419C4.75556 39.7865 5.01977 39.6795 5.15188 39.6241L5.25996 39.6426C5.42009 39.4728 5.73634 39.1296 5.89646 38.9561C9.71948 35.3465 13.5385 31.7332 17.3615 28.1199Z" fill="#38DF7A"/>
<path d="M58.3139 34.4606C60.1073 32.8256 61.1922 30.6664 63.0256 29.0646C63.0256 33.5305 63.0296 37.9927 63.0256 42.4549C63.1297 43.8574 61.5445 44.9905 60.0913 44.6435C59.0425 44.3815 58.2659 43.4366 58.3139 42.429C58.3059 39.7754 58.3059 37.118 58.3139 34.4606Z" fill="#2BD6FF"/>
<path d="M22.7738 29.7622C25.0556 31.9767 27.3414 34.1912 29.6272 36.4057C28.7265 37.6974 27.7377 38.9302 26.7169 40.1408C24.5072 37.9964 22.2854 35.8631 20.0917 33.7114L19.9476 33.5601C20.7962 32.2387 21.797 31.006 22.7738 29.7622Z" fill="#42E274"/>
<path d="M38.0419 33.5158C39.6032 32.5525 41.2525 33.7336 42.1852 34.8777C40.8882 35.8964 39.9274 37.1845 39.2829 38.6313C37.3694 40.222 35.544 41.9013 33.6585 43.5216C33.034 44.1047 32.1012 44.2561 31.2526 44.1269C29.4071 43.1894 28.2502 41.44 26.717 40.1408C27.7378 38.9302 28.7266 37.6975 29.6273 36.4057C30.4319 37.1697 31.2045 37.9595 32.0212 38.7161C32.1373 38.6165 32.3775 38.4135 32.4935 38.3138C34.347 36.7194 36.1244 35.0401 38.0419 33.5158Z" fill="#4CE56D"/>
<path d="M39.2828 38.6312C39.9273 37.1844 40.8881 35.8963 42.1851 34.8777C44.0466 36.653 45.9041 38.4356 47.7375 40.2404C46.8448 41.5396 45.8881 42.8018 44.8633 44.0124C43.302 42.5213 41.7528 41.0229 40.1956 39.5318C39.8913 39.2291 39.5871 38.9302 39.2828 38.6312Z" fill="#54E868"/>
<path opacity="0.24" d="M33.6585 43.5215C35.544 41.9013 37.3694 40.222 39.2829 38.6312C39.5871 38.9302 39.8914 39.2291 40.1956 39.5318C37.5656 40.842 36.1244 43.5621 33.3943 44.7247C32.5896 45.0864 31.861 44.5624 31.2526 44.1268C32.1012 44.256 33.034 44.1047 33.6585 43.5215Z" fill="black"/>
<path d="M47.7375 40.2404C49.8952 42.2741 52.0409 44.3225 54.1666 46.3893C53.1698 47.611 52.2571 48.8991 51.0762 49.9841C49.0025 47.9948 46.9289 46.0055 44.8633 44.0124C45.8881 42.8018 46.8448 41.5396 47.7375 40.2404Z" fill="#5CEA62"/>
<path d="M51.0762 49.9841C52.2571 48.899 53.1698 47.6109 54.1666 46.3893C56.1121 48.2642 58.0617 50.1318 60.0072 52.0067C60.964 53.066 62.7254 54.0588 62.1489 55.6717C60.6918 58.8605 57.0729 61.0713 53.3259 61.1082C50.7639 61.1193 48.2019 61.1119 45.6399 61.1119C46.4885 59.5765 47.6495 58.222 48.6462 56.7715C51.3484 56.6017 54.5789 57.4174 56.7086 55.4096C54.8431 53.5937 52.9536 51.7926 51.0762 49.9841Z" fill="#65ED5C"/>
<path opacity="0.18" d="M60.0072 52.0067C60.1193 51.9403 60.3355 51.8074 60.4436 51.741C61.6646 52.9183 63.6982 54.0883 63.2138 55.978C62.3651 58.3733 60.1073 60.0933 57.7254 61.1821C55.852 62.0125 53.7343 61.8243 51.7207 61.8427C37.9738 61.839 24.227 61.8353 10.4801 61.8427C8.8148 61.8427 7.01738 61.4995 5.70034 60.5214L5.56824 60.1929L5.82444 60.2889C8.87085 61.6028 12.3056 60.9643 15.5441 61.1119C18.7867 61.1119 22.0292 61.1156 25.2718 61.1119C28.4743 61.1119 31.6729 61.1156 34.8754 61.1119C38.4622 61.1119 42.0531 61.1156 45.6399 61.1119C48.2019 61.1119 50.7639 61.1193 53.326 61.1082C57.0729 61.0713 60.6918 58.8605 62.1489 55.6717C62.7254 54.0588 60.964 53.066 60.0072 52.0067Z" fill="black"/>
<path d="M8.52654 56.6017C11.8532 56.9745 15.2358 56.6645 18.5825 56.7715C17.5497 58.2036 16.3447 59.5433 15.5441 61.1119C12.3055 60.9643 8.87081 61.6028 5.8244 60.2889C6.69309 59.0414 7.61382 57.8197 8.52654 56.6017Z" fill="#46E371"/>
<path d="M18.5825 56.7716C21.9131 56.7679 25.2437 56.7642 28.5744 56.7679C27.4014 58.1704 26.3646 59.6578 25.2718 61.112C22.0292 61.1157 18.7866 61.112 15.5441 61.112C16.3447 59.5434 17.5497 58.2036 18.5825 56.7716Z" fill="#4FE66B"/>
<path d="M28.5744 56.7679C31.7729 56.7679 34.9715 56.7679 38.17 56.7716C36.9971 58.1667 35.9522 59.6504 34.8754 61.112C31.6728 61.1157 28.4743 61.112 25.2718 61.112C26.3647 59.6578 27.4015 58.1704 28.5744 56.7679Z" fill="#56E866"/>
<path d="M38.17 56.7715C41.6647 56.7678 45.1555 56.7642 48.6462 56.7715C47.6495 58.222 46.4885 59.5766 45.6399 61.1119C42.053 61.1156 38.4622 61.1119 34.8754 61.1119C35.9522 59.6504 36.997 58.1667 38.17 56.7715Z" fill="#5EEB61"/>
</g>
<defs>
<clipPath id="clip0">
<rect width="64" height="64" fill="white"/>
</clipPath>
</defs>
</svg>
