<svg xmlns="http://www.w3.org/2000/svg" xmlns:xlink="http://www.w3.org/1999/xlink" width="64" height="64"><defs><linearGradient id="a"><stop offset="0" stop-color="#ffa907"/><stop offset="1" stop-color="#ff00a5" stop-opacity=".967"/></linearGradient><linearGradient xlink:href="#a" id="b" x1="1.986" y1="30.911" x2="62.28" y2="30.911" gradientUnits="userSpaceOnUse"/></defs><g fill="none" stroke="url(#b)" stroke-width="2" stroke-linecap="round" stroke-linejoin="round"><path d="M61.28 51.21l-12.164-6.078a1.599 1.599 0 0 0-2.311 1.429v7.986a4.788 4.788 0 0 1-4.778 4.792H7.764a4.788 4.788 0 0 1-4.778-4.79V24.192a4.788 4.788 0 0 1 4.778-4.791h34.264a4.79 4.79 0 0 1 4.777 4.791v9.585a1.597 1.597 0 0 0 2.311 1.43l12.163-6.083z"/><path d="M11.215 30.603h27.726v18.483H11.215zm21.46-28.12a6.96 6.96 0 0 1 6.95 6.953 6.96 6.96 0 0 1-6.953 6.95 6.96 6.96 0 0 1-6.952-6.95 6.96 6.96 0 0 1 6.952-6.952zm-17.7 5.057a4.429 4.429 0 0 1 4.425 4.424 4.429 4.429 0 0 1-4.425 4.424 4.429 4.429 0 0 1-4.424-4.424 4.429 4.429 0 0 1 4.424-4.424z"/></g></svg>