<svg xmlns="http://www.w3.org/2000/svg" xmlns:xlink="http://www.w3.org/1999/xlink" viewBox="0 0 48 48"><defs><linearGradient id="d"><stop offset="0" stop-color="#36c5f0"/><stop offset="1" stop-color="#cf00ff"/></linearGradient><linearGradient id="c"><stop offset="0" stop-color="#ff004f"/><stop offset="1" stop-color="#ff00a4"/></linearGradient><linearGradient id="b"><stop offset="0" stop-color="#f3a901"/><stop offset="1" stop-color="#ff1800"/></linearGradient><linearGradient id="a"><stop offset="0" stop-color="#00ff94"/><stop offset="1" stop-color="#00fffa"/></linearGradient><linearGradient xlink:href="#a" id="e" x1="24.829" y1="12.948" x2="45.275" y2="12.948" gradientUnits="userSpaceOnUse"/><linearGradient xlink:href="#b" id="f" x1="24.829" y1="35.052" x2="45.275" y2="35.052" gradientUnits="userSpaceOnUse"/><linearGradient xlink:href="#c" id="g" x1="2.725" y1="35.052" x2="23.171" y2="35.052" gradientUnits="userSpaceOnUse"/><linearGradient xlink:href="#d" id="h" x1="2.725" y1="12.948" x2="23.171" y2="12.948" gradientUnits="userSpaceOnUse"/></defs><path d="M29.526 3.475a3.947 3.947 0 0 0-3.947 3.947v11.052a3.947 3.947 0 0 0 3.947 3.947 3.947 3.947 0 0 0 3.947-3.947V7.422a3.947 3.947 0 0 0-3.947-3.947zm11.052 11.052a3.947 3.947 0 0 0-3.947 3.947v3.947h3.947a3.947 3.947 0 0 0 3.947-3.947 3.947 3.947 0 0 0-3.947-3.947z" fill="none" stroke="url(#e)" stroke-width="1.5"/><path d="M44.525 29.526a3.947 3.947 0 0 0-3.947-3.947H29.526a3.947 3.947 0 0 0-3.947 3.947 3.947 3.947 0 0 0 3.947 3.947h11.052a3.947 3.947 0 0 0 3.947-3.947zM33.473 40.578a3.947 3.947 0 0 0-3.947-3.947H25.58v3.947a3.947 3.947 0 0 0 3.947 3.947 3.947 3.947 0 0 0 3.947-3.947z" fill="none" stroke="url(#f)" stroke-width="1.5"/><path d="M18.474 44.525a3.947 3.947 0 0 0 3.947-3.947V29.526a3.947 3.947 0 0 0-3.947-3.947 3.947 3.947 0 0 0-3.947 3.947v11.052a3.947 3.947 0 0 0 3.947 3.947zM7.422 33.473a3.947 3.947 0 0 0 3.947-3.947V25.58H7.422a3.947 3.947 0 0 0-3.947 3.947 3.947 3.947 0 0 0 3.947 3.947z" fill="none" stroke="url(#g)" stroke-width="1.5"/><path d="M3.475 18.474a3.947 3.947 0 0 0 3.947 3.947h11.052a3.947 3.947 0 0 0 3.947-3.947 3.947 3.947 0 0 0-3.947-3.947H7.422a3.947 3.947 0 0 0-3.947 3.947zM14.527 7.422a3.947 3.947 0 0 0 3.947 3.947h3.947V7.422a3.947 3.947 0 0 0-3.947-3.947 3.947 3.947 0 0 0-3.947 3.947z" fill="none" stroke="url(#h)" stroke-width="1.5"/></svg>