<svg xmlns="http://www.w3.org/2000/svg" xmlns:xlink="http://www.w3.org/1999/xlink" width="48" height="48"><defs><linearGradient id="a"><stop offset="0" stop-color="#1b03ff"/><stop offset="1" stop-color="#ff00f9"/></linearGradient><linearGradient xlink:href="#a" id="b" x1="63.093" y1="51.254" x2="97.788" y2="84.61" gradientUnits="userSpaceOnUse" gradientTransform="translate(-60.635 -46.778) scale(1.04817)"/></defs><path d="M24 9.326a14.674 14.674 0 0 0-6.015 1.308 6.289 6.289 0 0 0-.274 1.836A6.289 6.289 0 0 0 24 18.76a6.289 6.289 0 0 0 6.289-6.29 6.289 6.289 0 0 0-.283-1.844A14.674 14.674 0 0 0 24 9.326zM12.47 17.71a6.289 6.289 0 0 0-1.844.283A14.674 14.674 0 0 0 9.326 24a14.674 14.674 0 0 0 1.31 6.015 6.289 6.289 0 0 0 1.834.274A6.289 6.289 0 0 0 18.76 24a6.289 6.289 0 0 0-6.29-6.289zm23.06 0A6.289 6.289 0 0 0 29.24 24a6.289 6.289 0 0 0 6.29 6.289 6.289 6.289 0 0 0 1.844-.283 14.674 14.674 0 0 0 1.3-6.006 14.674 14.674 0 0 0-1.31-6.015 6.289 6.289 0 0 0-1.834-.274zM24 29.241a6.289 6.289 0 0 0-6.289 6.289 6.289 6.289 0 0 0 .285 1.846A14.674 14.674 0 0 0 24 38.674a14.674 14.674 0 0 0 6.015-1.31 6.289 6.289 0 0 0 .274-1.834A6.289 6.289 0 0 0 24 29.24z" fill="none" stroke="#a1a1a1" stroke-width="1.9"/><path d="M24 3.037A20.918 20.918 0 0 0 3.037 24 20.918 20.918 0 0 0 24 44.963 20.918 20.918 0 0 0 44.963 24 20.918 20.918 0 0 0 24 3.037zm0 3.144a6.289 6.289 0 0 1 6.289 6.29A6.289 6.289 0 0 1 24 18.758a6.289 6.289 0 0 1-6.289-6.289A6.289 6.289 0 0 1 24 6.181zm-11.53 11.53A6.289 6.289 0 0 1 18.76 24a6.289 6.289 0 0 1-6.29 6.289A6.289 6.289 0 0 1 6.181 24a6.289 6.289 0 0 1 6.29-6.289zm23.06 0A6.289 6.289 0 0 1 41.819 24a6.289 6.289 0 0 1-6.29 6.289A6.289 6.289 0 0 1 29.242 24a6.289 6.289 0 0 1 6.289-6.289zM24 29.241a6.289 6.289 0 0 1 6.289 6.289A6.289 6.289 0 0 1 24 41.819a6.289 6.289 0 0 1-6.289-6.29A6.289 6.289 0 0 1 24 29.242z" fill="none" stroke="url(#b)" stroke-width="1.9"/><path d="M23.335 20.75a1.048 1.048 0 0 1-.383 1.432 1.048 1.048 0 0 1-1.432-.383 1.048 1.048 0 0 1 .384-1.432 1.048 1.048 0 0 1 1.431.384zm3.145 5.451a1.048 1.048 0 0 1-.384 1.432 1.048 1.048 0 0 1-1.431-.384 1.048 1.048 0 0 1 .383-1.431 1.048 1.048 0 0 1 1.432.383zm.767-2.935a1.048 1.048 0 0 1-1.432-.383 1.048 1.048 0 0 1 .384-1.432 1.048 1.048 0 0 1 1.432.383 1.048 1.048 0 0 1-.384 1.432zM21.8 26.41a1.048 1.048 0 0 1-1.43-.383 1.048 1.048 0 0 1 .383-1.432 1.048 1.048 0 0 1 1.432.384 1.048 1.048 0 0 1-.384 1.432z" fill="none" stroke="#a1a1a1" stroke-width=".943"/></svg>