<svg xmlns="http://www.w3.org/2000/svg" xmlns:xlink="http://www.w3.org/1999/xlink" viewBox="0 0 48 48"><defs><linearGradient id="a"><stop offset="0" stop-color="#ff06f7"/><stop offset="1" stop-color="#9587ff"/></linearGradient><linearGradient xlink:href="#a" id="c" gradientUnits="userSpaceOnUse" x1="15.049" y1="13.402" x2="37" y2="34.216"/><linearGradient xlink:href="#a" id="d" gradientUnits="userSpaceOnUse" x1="15.049" y1="13.402" x2="37" y2="34.216"/><linearGradient xlink:href="#a" id="b" gradientUnits="userSpaceOnUse" x1="15.049" y1="13.402" x2="37" y2="34.216"/></defs><g transform="translate(-12.95 -12.198) scale(1.56341)" fill="none" stroke="url(#b)" stroke-width="1.407" stroke-linecap="round" stroke-linejoin="round"><path d="M11.965 20c-.57.027-.965.156-.965.766v12.773c0 .809.699 1.457 1.574 1.457h22.824c.879 0 1.602-.648 1.602-1.457V20.766c0-.813-.723-.766-1.602-.766H12.574c-.219 0-.422-.012-.609 0" stroke="url(#c)"/><path d="M15.05 13.402L11.8 18h11.195v-7h-5.508c-.813 0-2.438 2.402-2.438 2.402M24.987 11v7h11.188l-3.25-4.598S31.3 11 30.484 11zm.005 0" stroke="url(#d)"/></g><path d="M17.196 25.518h16v2.667h-16zm-5.558 9.589h26.775v2.308H11.638z" fill="#be0bff" paint-order="markers fill stroke"/></svg>