<?xml version="1.0" encoding="UTF-8" ?>
<!DOCTYPE svg PUBLIC "-//W3C//DTD SVG 1.1//EN" "http://www.w3.org/Graphics/SVG/1.1/DTD/svg11.dtd">
<svg width="192pt" height="192pt" viewBox="0 0 192 192" version="1.1" xmlns="http://www.w3.org/2000/svg">
<g id="#ff5c3cff">
<path fill="#ff5c3c" opacity="1.00" d=" M 74.97 84.87 C 74.69 67.30 88.60 50.88 106.00 48.37 C 121.70 45.52 138.33 54.32 145.17 68.65 C 144.16 68.22 143.16 67.79 142.16 67.36 C 139.76 69.77 137.30 72.12 134.78 74.40 C 133.35 71.60 131.52 68.99 129.21 66.86 C 123.62 60.98 114.93 58.61 107.06 60.22 C 98.61 61.84 91.34 68.21 88.38 76.26 C 86.80 80.31 86.73 84.72 86.74 89.01 C 86.78 102.04 86.77 115.07 86.73 128.09 C 85.30 123.87 85.90 119.35 85.80 114.98 C 81.72 118.28 78.52 122.45 74.96 126.27 C 75.04 112.47 75.00 98.67 74.97 84.87 Z" />
</g>
<g id="#00000040">
<path fill="#000000" opacity="0.25" d=" M 88.38 76.26 C 91.34 68.21 98.61 61.84 107.06 60.22 C 114.93 58.61 123.62 60.98 129.21 66.86 C 123.67 64.78 118.15 61.82 112.05 62.24 C 101.62 62.50 92.00 70.37 89.26 80.36 C 87.09 87.37 88.01 94.79 87.88 102.00 C 87.76 111.47 88.12 120.95 87.65 130.41 C 87.42 129.83 86.96 128.67 86.73 128.09 C 86.77 115.07 86.78 102.04 86.74 89.01 C 86.73 84.72 86.80 80.31 88.38 76.26 Z" />
<path fill="#000000" opacity="0.25" d=" M 53.87 87.78 C 54.68 89.03 54.97 90.50 54.92 91.97 C 54.84 107.32 54.93 122.67 54.88 138.01 C 55.22 141.55 52.61 145.05 48.95 145.19 C 46.71 145.54 45.28 143.66 43.94 142.22 C 46.26 142.55 48.92 143.59 51.05 142.07 C 53.19 140.86 53.85 138.32 53.77 136.03 C 53.84 119.95 53.63 103.86 53.87 87.78 Z" />
<path fill="#000000" opacity="0.25" d=" M 37.30 99.91 C 38.40 101.74 38.90 103.82 38.81 105.95 C 38.82 116.31 38.80 126.68 38.83 137.04 C 38.91 139.84 38.28 143.09 35.63 144.58 C 32.24 145.64 28.02 145.06 26.78 141.26 C 29.30 142.18 32.30 143.64 34.78 141.80 C 37.46 140.20 37.45 136.77 37.44 134.03 C 37.31 122.66 37.56 111.28 37.30 99.91 Z" />
</g>
<g id="#ff7839ff">
<path fill="#ff7839" opacity="1.00" d=" M 142.16 67.36 C 143.16 67.79 144.16 68.22 145.17 68.65 C 145.77 70.20 146.36 71.76 146.93 73.33 C 153.37 73.53 159.80 75.23 165.26 78.72 C 173.73 83.93 179.59 92.97 181.25 102.74 C 182.45 112.07 180.37 121.99 174.46 129.44 C 168.11 137.99 157.64 143.09 147.03 143.20 C 132.96 143.30 118.89 143.22 104.82 143.21 C 108.08 139.10 112.23 135.77 115.21 131.43 C 125.99 131.29 136.78 131.57 147.55 131.29 C 156.43 131.11 164.70 125.19 168.02 117.01 C 171.23 109.35 169.86 99.94 164.41 93.64 C 160.49 88.66 154.33 85.51 147.99 85.37 C 145.16 85.31 142.34 85.47 139.52 85.49 C 136.63 82.45 136.19 78.16 134.78 74.40 C 137.30 72.12 139.76 69.77 142.16 67.36 Z" />
</g>
<g id="#ff593dff">
<path fill="#ff593d" opacity="1.00" d=" M 60.99 71.05 C 64.14 68.64 68.84 70.36 70.29 73.89 C 70.65 94.27 70.33 114.65 70.46 135.03 C 70.68 137.98 69.66 141.56 66.48 142.46 C 63.62 143.60 61.06 141.59 58.86 140.04 C 58.18 120.04 58.78 100.01 58.55 80.01 C 58.60 76.94 58.08 73.05 60.99 71.05 Z" />
</g>
<g id="#00000020">
<path fill="#000000" opacity="0.13" d=" M 70.29 73.89 C 71.08 74.69 71.93 75.44 72.56 76.38 C 73.23 80.59 72.83 84.88 73.15 89.12 C 73.79 87.72 74.41 86.30 74.97 84.87 C 75.00 98.67 75.04 112.47 74.96 126.27 C 74.97 126.99 74.98 128.45 74.98 129.17 C 74.39 127.39 73.82 125.61 73.20 123.84 C 72.54 129.61 73.61 135.53 72.17 141.20 C 70.97 145.92 64.23 147.49 60.82 144.19 C 59.84 142.98 59.45 141.44 58.86 140.04 C 61.06 141.59 63.62 143.60 66.48 142.46 C 69.66 141.56 70.68 137.98 70.46 135.03 C 70.33 114.65 70.65 94.27 70.29 73.89 Z" />
</g>
<g id="#ff563dff">
<path fill="#ff563d" opacity="1.00" d=" M 42.02 87.93 C 41.80 84.97 44.08 82.14 47.05 81.84 C 50.57 81.15 53.91 84.30 53.87 87.78 C 53.63 103.86 53.84 119.95 53.77 136.03 C 53.85 138.32 53.19 140.86 51.05 142.07 C 48.92 143.59 46.26 142.55 43.94 142.22 C 42.97 140.29 41.77 138.33 41.98 136.07 C 42.00 120.02 41.94 103.97 42.02 87.93 Z" />
</g>
<g id="#0000003a">
<path fill="#000000" opacity="0.23" d=" M 139.52 85.49 C 142.34 85.47 145.16 85.31 147.99 85.37 C 154.33 85.51 160.49 88.66 164.41 93.64 C 159.90 91.20 155.40 87.95 150.03 88.17 C 146.45 87.83 141.99 88.83 139.52 85.49 Z" />
<path fill="#000000" opacity="0.23" d=" M 22.12 113.24 L 22.80 113.27 C 22.48 122.17 22.78 131.07 22.67 139.96 C 22.64 145.67 12.62 148.32 10.97 142.10 C 13.11 142.43 15.39 143.40 17.52 142.54 C 19.40 141.82 20.49 140.00 21.19 138.22 C 22.36 135.99 22.26 133.44 22.25 131.00 C 22.15 125.08 22.24 119.16 22.12 113.24 Z" />
</g>
<g id="#ff523eff">
<path fill="#ff523e" opacity="1.00" d=" M 25.72 101.02 C 26.36 95.02 35.28 94.47 37.30 99.91 C 37.56 111.28 37.31 122.66 37.44 134.03 C 37.45 136.77 37.46 140.20 34.78 141.80 C 32.30 143.64 29.30 142.18 26.78 141.26 C 26.00 138.91 25.39 136.49 25.54 134.00 C 25.71 123.01 25.34 112.00 25.72 101.02 Z" />
</g>
<g id="#00000036">
<path fill="#000000" opacity="0.21" d=" M 181.25 102.74 C 183.82 104.57 183.62 108.07 183.59 110.88 C 182.97 119.11 180.43 127.54 174.74 133.72 C 171.36 137.85 166.54 140.34 161.95 142.86 C 157.69 145.16 152.81 145.95 148.01 145.88 C 129.66 145.90 111.31 145.91 92.97 145.88 C 88.21 145.97 83.38 144.40 79.79 141.23 C 78.64 140.40 78.60 138.93 78.28 137.68 C 85.15 145.01 95.84 143.02 104.82 143.21 C 118.89 143.22 132.96 143.30 147.03 143.20 C 157.64 143.09 168.11 137.99 174.46 129.44 C 180.37 121.99 182.45 112.07 181.25 102.74 Z" />
</g>
<g id="#ff4e3eff">
<path fill="#ff4e3e" opacity="1.00" d=" M 9.40 111.16 C 9.67 107.10 14.85 104.57 18.23 106.85 C 20.79 108.20 21.37 111.31 21.23 113.96 C 21.18 122.04 21.28 130.13 21.19 138.22 C 20.49 140.00 19.40 141.82 17.52 142.54 C 15.39 143.40 13.11 142.43 10.97 142.10 C 10.21 140.15 9.14 138.21 9.28 136.04 C 9.36 127.75 9.12 119.44 9.40 111.16 Z" />
</g>
<g id="#ff683bff">
<path fill="#ff683b" opacity="1.00" d=" M 74.96 126.27 C 78.52 122.45 81.72 118.28 85.80 114.98 C 85.90 119.35 85.30 123.87 86.73 128.09 C 86.96 128.67 87.42 129.83 87.65 130.41 C 90.01 131.19 92.49 131.46 94.96 131.43 C 101.71 131.40 108.46 131.37 115.21 131.43 C 112.23 135.77 108.08 139.10 104.82 143.21 C 95.84 143.02 85.15 145.01 78.28 137.68 C 76.61 135.12 75.27 132.24 74.98 129.17 C 74.98 128.45 74.97 126.99 74.96 126.27 Z" />
</g>
</svg>
