<svg xmlns="http://www.w3.org/2000/svg" xmlns:xlink="http://www.w3.org/1999/xlink" viewBox="0 0 48 48"><defs><radialGradient xlink:href="#a" id="b" gradientUnits="userSpaceOnUse" gradientTransform="matrix(4.68386 .01722 -.01153 3.13605 -88.465 -51.99)" cx="24.002" cy="23.995" fx="24.002" fy="23.995" r="10"/><linearGradient id="a"><stop stop-color="#ffd900" offset="0"/><stop stop-color="#ff000a" offset="1"/></linearGradient></defs><path d="M25.176 5.232c-3.616-.463-7.607.246-10.699 2.5-1.54 1.128-2.796 2.58-3.51 4.316a8.334 8.334 0 0 0-.32 5.56c.414 1.417 1.268 2.707 2.234 3.75a12.777 12.777 0 0 0 3.192 2.5c2.328 1.3 4.8 1.954 6.866 2.5 2.054.554 3.75.973 5.112 1.67 1.306.676 2.378 1.602 2.718 2.5.228.62.234 1.52 0 2.222-.246.715-.776 1.406-1.446 1.948-1.33 1.083-3.472 1.523-5.593 1.39-3.019-.19-5.994-1.602-7.82-3.897-1.1-1.417-3.315-1.791-4.95-.831-1.631.96-2.06 2.886-.96 4.315 3.052 3.824 7.963 6.201 13.244 6.53 3.774.234 7.803-.565 10.862-3.06 1.524-1.25 2.718-2.89 3.355-4.727.63-1.848.715-3.79 0-5.704-1.033-2.747-3.36-4.744-5.744-5.979-2.344-1.211-4.682-1.819-6.702-2.366-2.015-.541-3.807-.937-5.113-1.663a6.55 6.55 0 0 1-1.596-1.25 3.6 3.6 0 0 1-.798-1.39c-.168-.58-.1-1.318.161-1.948.263-.636.805-1.212 1.446-1.663 1.25-.916 3.204-1.356 5.112-1.116 2.234.29 4.437 1.4 5.906 3.06.764.886 2.015 1.35 3.276 1.21 1.268-.145 2.345-.864 2.825-1.891.474-1.027.284-2.205-.507-3.065-2.58-2.925-6.38-4.89-10.538-5.425m-.006.023" fill="url(#b)"/></svg>