<svg xmlns="http://www.w3.org/2000/svg" xmlns:xlink="http://www.w3.org/1999/xlink" viewBox="0 0 48 48"><defs><linearGradient id="a"><stop offset="0" stop-color="#ffd900"/><stop offset="1" stop-color="#ff000a"/></linearGradient><linearGradient xlink:href="#a" id="b" gradientUnits="userSpaceOnUse" x1="14.002" y1="23.995" x2="34.001" y2="23.995" gradientTransform="translate(2.26 2.258) scale(.90588)"/></defs><path d="M24.952 12.305c-2.293-.294-4.823.155-6.783 1.585-.977.715-1.773 1.635-2.226 2.736a5.284 5.284 0 0 0-.202 3.524c.262.899.804 1.717 1.416 2.378a8.1 8.1 0 0 0 2.024 1.586c1.475.824 3.042 1.238 4.352 1.585 1.303.35 2.378.616 3.242 1.058.828.428 1.507 1.015 1.723 1.585.145.393.148.963 0 1.409-.156.453-.492.891-.917 1.235-.843.686-2.201.965-3.546.881-1.914-.12-3.8-1.015-4.958-2.47-.697-.899-2.101-1.136-3.139-.528-1.033.61-1.305 1.83-.608 2.736 1.936 2.424 5.05 3.932 8.397 4.14 2.393.149 4.947-.358 6.887-1.94.965-.792 1.723-1.832 2.127-2.997.4-1.171.453-2.402 0-3.616-.655-1.741-2.13-3.008-3.642-3.79-1.486-.769-2.968-1.154-4.25-1.5-1.277-.344-2.413-.595-3.24-1.055a4.152 4.152 0 0 1-1.012-.793 2.283 2.283 0 0 1-.507-.881c-.106-.368-.063-.835.102-1.235.167-.403.51-.768.917-1.054.793-.58 2.031-.86 3.241-.708 1.416.184 2.813.888 3.744 1.94.485.562 1.278.856 2.078.768.803-.092 1.486-.548 1.79-1.2.301-.65.18-1.397-.321-1.943-1.635-1.854-4.045-3.1-6.68-3.44m-.004.015" fill="none" stroke="url(#b)" stroke-width=".906" transform="translate(-15.874 -15.87) scale(1.6479)"/></svg>