<svg xmlns="http://www.w3.org/2000/svg" xmlns:xlink="http://www.w3.org/1999/xlink" viewBox="0 0 48 48"><defs><linearGradient id="a" y1="47" x2="0" y2="1" gradientUnits="userSpaceOnUse"><stop stop-color="#ff0008"/><stop offset="1" stop-color="#cfff00"/></linearGradient><linearGradient xlink:href="#a" id="b" x1="14.793" y1="25.104" x2="33.207" y2="25.104" gradientUnits="userSpaceOnUse" gradientTransform="matrix(1.09085 0 0 -1.09085 -2.181 50.491)"/><linearGradient gradientTransform="translate(-.19 -.015)" xlink:href="#a" id="c" x1="3.009" y1="24" x2="44.483" y2="24.203" gradientUnits="userSpaceOnUse"/></defs><path d="M19.415 32.968l8.948.07V22.13h4.364L24 13.403l-8.727 8.727 4.05-.04s.067 7.066.092 10.88z" stroke="url(#b)" stroke-width="2" fill="none" stroke-linecap="round" stroke-linejoin="round"/><path d="M21.102 3.67l-1.896 4.74a16.252 16.252 0 0 0-3.145 1.307l-4.7-2.013-3.83 3.83 2.004 4.682a16.252 16.252 0 0 0-1.301 3.167l-4.737 1.892v5.418l4.74 1.896a16.252 16.252 0 0 0 1.306 3.145l-2.013 4.7 3.83 3.83 4.682-2.004c1.007.544 2.068.98 3.167 1.3l1.893 4.738h5.418l1.896-4.74a16.252 16.252 0 0 0 3.145-1.306l4.7 2.012 3.83-3.83-2.004-4.681c.544-1.007.98-2.068 1.3-3.167l4.738-1.893v-5.418l-4.74-1.896a16.252 16.252 0 0 0-1.306-3.145l2.013-4.7-3.83-3.83-4.682 2.004a16.252 16.252 0 0 0-3.167-1.301L26.52 3.67z" fill="none" stroke="url(#c)" stroke-width="2"/></svg>