<svg xmlns="http://www.w3.org/2000/svg" xmlns:xlink="http://www.w3.org/1999/xlink" viewBox="0 0 48 48"><defs><linearGradient id="a"><stop offset="0" stop-color="#6f92ec"/><stop offset="1" stop-color="#03ffff"/></linearGradient><linearGradient id="b"><stop offset="0" stop-color="#6f92ec"/><stop offset="1" stop-color="#03ffff"/></linearGradient><linearGradient xlink:href="#a" id="e" x1="11.566" y1="37.073" x2="35.996" y2="37.073" gradientUnits="userSpaceOnUse"/><linearGradient xlink:href="#b" id="d" x1="11.568" y1="12.286" x2="35.996" y2="12.286" gradientUnits="userSpaceOnUse"/><linearGradient xlink:href="#a" id="c" x1="11.568" y1="12.286" x2="35.996" y2="12.286" gradientUnits="userSpaceOnUse"/></defs><path d="M7.65 13.723h32.263a2.546 2.546 0 0 1 2.547 2.548v17.894a2.546 2.546 0 0 1-2.547 2.548H7.649a2.546 2.546 0 0 1-2.547-2.548V16.271a2.546 2.546 0 0 1 2.547-2.548" fill="none" stroke-width="1.437" stroke="#aaa"/><path d="M5.102 25.219v1.347c0 .212 1.15.385 2.559.385h32.242c1.408 0 2.559-.173 2.559-.385v-1.347m-37.36 0" fill="#aaa"/><path d="M10.85 18.034h25.864v2.874H10.85m0-2.874" fill="#212c3c"/><path d="M13.544 5.102c-.707 0-1.258.55-1.258 1.257v13.112h22.991V9.412l-4.31-4.31z" fill="url(#c)" stroke-width="1.437" stroke="url(#d)"/><path d="M10.85 29.53h25.864v2.873H10.85m0-2.874" fill="#aaa"/><path d="M35.277 30.966v10.221a1.27 1.27 0 0 1-1.274 1.275H13.559a1.27 1.27 0 0 1-1.274-1.275v-10.22m22.99 0" fill="none" stroke-width="1.437" stroke="url(#e)"/><path d="M30.966 5.102v4.31h4.311m-4.31-4.31" fill="#fff"/><path d="M16.597 7.976H29.53v1.436H16.597m0 1.438H29.53v1.436H16.597m0 1.437H29.53v1.437H16.597m0 1.437h8.622v1.437h-8.622m0-1.437" fill="#696e78" fill-opacity=".702"/></svg>