<svg xmlns="http://www.w3.org/2000/svg" xmlns:xlink="http://www.w3.org/1999/xlink" height="48" width="48"><defs><linearGradient id="a"><stop stop-color="#ffad00" offset="0"/><stop stop-color="#ff0068" offset="1"/></linearGradient><linearGradient xlink:href="#a" id="b" gradientUnits="userSpaceOnUse" x1="5" y1="8" x2="45" y2="43"/><linearGradient xlink:href="#a" id="f" gradientUnits="userSpaceOnUse" x1="5" y1="8" x2="45" y2="43" gradientTransform="translate(3.212 3.49) scale(.86478)"/><linearGradient xlink:href="#a" id="c" gradientUnits="userSpaceOnUse" x1="5" y1="8" x2="45" y2="43" gradientTransform="translate(5.406 5.345) scale(.77665)"/><linearGradient xlink:href="#a" id="d" gradientUnits="userSpaceOnUse" x1="5" y1="8" x2="45" y2="43"/><linearGradient xlink:href="#a" id="e" gradientUnits="userSpaceOnUse" x1="5" y1="8" x2="45" y2="43"/></defs><g transform="translate(-5.147 -5.089) scale(1.21263)" fill="none" stroke="url(#b)" stroke-linecap="round" stroke-linejoin="round" stroke-width="1.649"><path overflow="visible" font-weight="400" d="M24.203 6.398c-5.134 0-7.049 2.912-9.011 3.894l-4.63 4.629c-.98 1.962-3.893 3.877-3.893 9.011 0 5.134 2.913 7.05 3.894 9.012l4.629 4.63c1.962.98 3.877 3.892 9.011 3.892 5.135 0 7.05-2.912 9.012-3.893l4.63-4.629c.98-1.962 3.893-3.878 3.893-9.012s-2.913-7.049-3.894-9.011l-4.629-4.63c-1.962-.98-3.877-3.893-9.012-3.893z" style="line-height:normal;text-indent:0;text-align:start;text-decoration-line:none;text-decoration-style:solid;text-decoration-color:#000;text-transform:none;white-space:normal;isolation:auto;mix-blend-mode:normal;solid-color:#000;solid-opacity:1" color="#000" font-family="sans-serif" stroke="url(#c)" stroke-width="1.237"/><path overflow="visible" d="M33.227 6.364l-4.837 9.418a9.172 9.172 0 0 1 3.971 3.96l9.398-4.825a19.754 19.754 0 0 0-8.533-8.553zm-18.04.014a19.754 19.754 0 0 0-8.551 8.53l9.418 4.837a9.172 9.172 0 0 1 3.96-3.97l-4.826-9.398zm17.167 21.74a9.172 9.172 0 0 1-3.961 3.972l4.825 9.399a19.754 19.754 0 0 0 8.554-8.534l-9.419-4.836zm-16.308.003L6.65 32.948a19.754 19.754 0 0 0 8.53 8.553l4.837-9.419a9.172 9.172 0 0 1-3.97-3.96z" style="isolation:auto;mix-blend-mode:normal;solid-color:#000;solid-opacity:1" color="#000" stroke="url(#d)"/><path overflow="visible" d="M15.178 41.5l.003-.002.297-.581a19.754 19.754 0 0 1-8.524-8.129l-.306.157-.002.002a19.754 19.754 0 0 0 8.532 8.552zm26.594-8.544l-.308-.16a19.754 19.754 0 0 1-8.529 8.142l.283.55a19.754 19.754 0 0 0 8.554-8.532zm-21.789-17.15l.031-.03-.282-.553a9.172 9.172 0 0 0-3.945 4.387l.266.136.026-.026a9.172 9.172 0 0 1 3.904-3.914zm8.69-.576l-.283.551.006.006a9.172 9.172 0 0 1 3.948 3.94l.017.016.268-.138a9.172 9.172 0 0 0-3.955-4.374z" style="isolation:auto;mix-blend-mode:normal;solid-color:#000;solid-opacity:1" color="#000" stroke="url(#e)"/><circle cx="24.216" cy="23.966" r="5.947" stroke="url(#f)" stroke-width="1.237" paint-order="stroke fill markers"/></g></svg>