<svg xmlns="http://www.w3.org/2000/svg" xmlns:xlink="http://www.w3.org/1999/xlink" viewBox="0 0 48 48"><defs><linearGradient gradientUnits="userSpaceOnUse" y2="1" x2="0" y1="47" id="a"><stop stop-color="#ff0095"/><stop stop-color="#00fff0" offset="1"/></linearGradient><linearGradient xlink:href="#a" id="b" x1="12.372" y1="14.195" x2="40.763" y2="41.449" gradientUnits="userSpaceOnUse"/></defs><g stroke="url(#b)" fill="none" stroke-width="2"><path d="M19.415 15.435l8.948-.07v10.908h4.364L24 35l-8.727-8.727 4.05.04s.067-7.066.092-10.879z" stroke-linecap="round" stroke-linejoin="round"/><path d="M21.011 3.237l-1.896 4.74a16.252 16.252 0 0 0-3.145 1.306l-4.7-2.013-3.83 3.83 2.004 4.682a16.252 16.252 0 0 0-1.301 3.167l-4.737 1.892v5.418l4.74 1.896A16.252 16.252 0 0 0 9.452 31.3L7.439 36l3.83 3.83 4.682-2.004c1.007.544 2.068.98 3.167 1.3l1.893 4.738h5.418l1.896-4.74a16.252 16.252 0 0 0 3.145-1.306l4.7 2.012L40 36l-2.004-4.681c.544-1.007.98-2.068 1.301-3.167l4.737-1.893v-5.418l-4.74-1.896a16.252 16.252 0 0 0-1.306-3.145l2.013-4.7-3.83-3.83-4.682 2.004a16.252 16.252 0 0 0-3.167-1.301L26.43 3.237z"/></g></svg>