<svg width="192" height="192" viewBox="0 0 192 192" fill="none" xmlns="http://www.w3.org/2000/svg">
<path d="M75.0172 7.28602C77.1079 4.90521 81.0413 4.15057 83.6601 6.14876C85.3304 7.59425 86.6452 9.37987 88.0677 11.0592C85.158 14.4816 82.507 18.1166 80.6749 22.2193C80.3947 21.8898 79.8128 21.2308 79.5218 20.9013C71.3747 29.0322 63.1521 37.0887 55.0265 45.2409C51.675 45.2515 48.3127 45.2728 44.9611 45.2834C42.2562 45.2941 39.562 45.2834 36.8571 45.2622C49.6058 32.6353 62.2792 19.9235 75.0172 7.28602Z" fill="#1EAB90"/>
<path d="M121.723 6.58453C124.417 4.5332 128.728 4.62886 130.948 7.33917C132.996 10.092 134.515 13.1743 136.315 16.0865C132.78 19.2751 129.967 23.1333 127.995 27.4379C127.78 27.0553 127.338 26.29 127.112 25.9074C126.034 24.1112 124.935 22.3256 123.846 20.5293C117.865 24.6426 111.852 28.7027 105.882 32.816C106.733 33.8364 107.573 34.8567 108.425 35.8665C111.076 38.9594 113.684 42.0842 116.303 45.209C110.774 45.2409 105.246 45.2622 99.7065 45.209C96.8076 41.7122 93.9302 38.1941 90.9882 34.7292C90.2662 29.7018 95.1695 26.407 97.9068 22.8145C105.698 17.2132 113.792 12.0158 121.723 6.58453Z" fill="#32C4AF"/>
<path d="M80.6749 22.2193C82.507 18.1166 85.158 14.4816 88.0677 11.0592C91.3007 15.0024 94.5876 18.9244 97.9068 22.8145C95.1695 26.407 90.2662 29.7018 90.9882 34.7292C89.501 32.9223 88.0354 31.1048 86.4943 29.3405C84.63 26.9065 82.7225 24.5044 80.6749 22.2193Z" fill="#28B69E"/>
<path d="M127.995 27.4379C129.967 23.1333 132.78 19.2751 136.315 16.0865C142.005 25.8118 147.824 35.4626 153.514 45.1984C151.822 45.2197 150.13 45.2515 148.449 45.2728C145.152 45.2941 141.854 45.2516 138.567 45.209C135.086 39.257 131.465 33.39 127.995 27.4379Z" fill="#3FD4C2"/>
<path opacity="0.25" d="M55.0265 45.2409C63.1521 37.0887 71.3747 29.0322 79.5218 20.9013C79.8128 21.2308 80.3948 21.8898 80.6749 22.2193C82.7225 24.5044 84.63 26.9065 86.4943 29.3405C84.2744 27.98 82.2052 26.3963 80.3193 24.6213C72.8295 31.1155 66.342 38.6405 58.9277 45.2303C57.947 45.2303 55.9964 45.2409 55.0265 45.2409Z" fill="black"/>
<path opacity="0.25" d="M105.882 32.816C111.852 28.7027 117.865 24.6426 123.846 20.5293C124.935 22.3256 126.034 24.1112 127.112 25.9074C125.592 25.4823 123.9 23.9199 122.391 25.1953C117.466 28.3626 112.175 31.2961 108.425 35.8665C107.573 34.8567 106.733 33.8364 105.882 32.816Z" fill="black"/>
<path opacity="0.25" d="M156.78 91.9857C158.87 93.6119 157.189 97.0768 155.249 98.246C149.872 101.126 143.514 99.7021 137.694 100.404C132.414 101.424 128.448 105.654 126.433 110.405C124.008 114.646 124.913 119.695 125.646 124.254C125.139 123.393 124.665 122.522 124.213 121.629C120.958 113.679 124.428 103.815 132.069 99.6915C137.856 96.1415 144.882 97.7039 151.284 97.1406C154.118 96.9174 155.896 94.4197 156.78 91.9857Z" fill="black"/>
<path d="M17.1358 47.1222C23.2785 44.1568 30.2833 45.4641 36.8571 45.2622C39.562 45.2834 42.2562 45.2941 44.9611 45.2834C41.7712 49.4074 38.8076 53.7013 35.9842 58.0803C32.2878 58.1335 28.5698 57.8784 24.8842 58.2079C21.3387 58.5799 18.5152 61.5878 18.0518 65.0102V65.0208C17.5992 79.3695 17.9872 93.7394 17.8578 108.099C15.0344 111.755 12.2971 115.475 9.51671 119.163C7.95409 121.3 6.08973 123.532 6.16517 126.337C5.62633 139.985 6.16517 153.664 5.2707 167.3C4.72109 133.82 5.20604 100.319 5.04439 66.8383C4.60255 58.6436 9.53826 50.5021 17.1358 47.1222Z" fill="#0A90FF"/>
<path d="M44.9611 45.2834C48.3127 45.2728 51.675 45.2516 55.0265 45.2409C55.9964 45.2409 57.947 45.2303 58.9277 45.2303C63.303 45.209 67.6783 45.2197 72.0536 45.209C69.3056 49.4818 66.1157 53.4888 63.8741 58.0697C54.5739 58.091 45.2737 58.0591 35.9842 58.0803C38.8077 53.7013 41.7712 49.4074 44.9611 45.2834Z" fill="#0D97FF"/>
<path d="M72.0536 45.209C79.9206 45.1453 87.7768 45.1771 95.6437 45.1984C92.7556 49.3861 89.5334 53.3931 87.4642 58.0697C79.5973 58.091 71.7411 58.0697 63.8741 58.0697C66.1157 53.4888 69.3056 49.4818 72.0536 45.209Z" fill="#12A0FF"/>
<path d="M9.51671 119.163C12.2971 115.475 15.0344 111.755 17.8578 108.099C17.8471 125.88 17.8902 143.662 17.8363 161.444C17.8255 163.41 17.9548 165.387 18.4075 167.311C19.0325 168.65 20.0024 169.798 20.8538 170.999C18.2674 174.294 15.7995 177.684 13.4071 181.128C9.16109 177.653 5.89576 172.785 5.27071 167.3C6.16518 153.664 5.62634 139.985 6.16518 126.337C6.08974 123.532 7.9541 121.3 9.51671 119.163Z" fill="#12A0FF"/>
<path d="M95.6437 45.1984C97.0016 45.1984 98.3594 45.209 99.7065 45.209C105.246 45.2622 110.774 45.2409 116.303 45.209C117.671 45.1984 119.029 45.1984 120.398 45.1878C117.585 49.4286 114.503 53.51 112.218 58.0697C103.963 58.091 95.7191 58.0697 87.4642 58.0697C89.5333 53.3931 92.7556 49.3861 95.6437 45.1984Z" fill="#16A8FF"/>
<path d="M120.398 45.1878C126.454 45.1771 132.511 45.1559 138.567 45.209C141.854 45.2515 145.152 45.2941 148.449 45.2728C145.464 49.5668 142.317 53.7332 139.397 58.0697C130.334 58.0803 121.271 58.0697 112.218 58.0697C114.503 53.51 117.585 49.4286 120.398 45.1878Z" fill="#1AB2FF"/>
<path d="M148.449 45.2728C150.13 45.2515 151.822 45.2197 153.514 45.1984C160.713 45.2197 168.483 44.295 174.852 48.387C172.007 51.6394 169.302 55.0618 167.535 59.0156C165.52 58.346 163.407 57.9847 161.274 58.0484C153.978 58.1016 146.693 58.0591 139.397 58.0697C142.317 53.7332 145.464 49.5668 148.449 45.2728Z" fill="#1FBBFF"/>
<path d="M174.852 48.387C179.271 51.4162 182.611 55.9015 183.98 61.0563C184.67 66.3388 184.346 71.6744 184.379 76.9887C179.001 81.3252 176.221 87.8193 171.511 92.7616C171.447 83.8017 171.576 74.8417 171.468 65.8924C171.554 63.0226 169.572 60.7906 167.535 59.0156C169.302 55.0618 172.007 51.6394 174.852 48.387Z" fill="#24C6FF"/>
<path d="M139.828 107.238C145.777 104.974 152.62 110.798 151.154 116.931C150.389 123.351 141.434 126.306 136.811 121.799C131.81 117.803 133.664 109.002 139.828 107.238Z" fill="#24C6FF"/>
<path opacity="0.29" d="M24.8842 58.2079C28.5698 57.8784 32.2878 58.1335 35.9842 58.0803C45.2736 58.0591 54.5739 58.091 63.8741 58.0697C71.7411 58.0697 79.5973 58.091 87.4642 58.0697C95.7191 58.0697 103.963 58.091 112.218 58.0697C121.271 58.0697 130.334 58.0803 139.397 58.0697C146.693 58.0591 153.978 58.1016 161.273 58.0484C163.407 57.9847 165.519 58.346 167.535 59.0156C168.343 61.5772 164.733 60.7162 163.353 60.9288C158.31 60.5781 153.299 59.8234 148.277 60.8013C133.19 60.6631 118.048 61.2689 103.015 60.3549C97.2925 61.2158 91.5162 60.8757 85.7938 60.3761C75.7284 61.5346 65.5984 59.9403 55.5222 60.8969C51.2331 61.1733 46.9871 59.7171 42.7196 60.4824C36.4475 61.439 30.0354 60.2061 23.785 61.2158C21.953 62.6081 20.3688 64.4044 18.0518 65.0102C18.5152 61.5878 21.3387 58.5799 24.8842 58.2079Z" fill="black"/>
<path opacity="0.23" d="M183.98 61.0564C186.491 62.7994 185.672 66.36 186.221 68.9747C186.469 84.2268 186.232 99.4895 186.34 114.742C186.211 118.249 185.715 122.851 182.019 124.477C178.818 125.551 173.333 124.807 173.3 120.587C176.964 123.872 183.829 122.065 184.271 116.899C184.573 103.603 184.314 90.2851 184.379 76.9887C184.346 71.6744 184.67 66.3388 183.98 61.0564Z" fill="black"/>
<path opacity="0.28" d="M17.8578 108.099C17.9872 93.7394 17.5992 79.3695 18.0518 65.0208C20.2934 69.623 18.7954 74.7567 18.9032 79.6246C18.9355 106.887 18.8601 134.16 18.9355 161.433C18.9355 163.4 18.6876 165.355 18.4074 167.311C17.9548 165.387 17.8255 163.41 17.8363 161.444C17.8902 143.662 17.8471 125.88 17.8578 108.099Z" fill="#010910"/>
<path d="M171.511 92.7616C176.221 87.8193 179.001 81.3252 184.379 76.9887C184.314 90.2851 184.573 103.603 184.271 116.899C183.829 122.065 176.964 123.872 173.3 120.587C172.276 119.184 171.436 117.558 171.522 115.783C171.457 108.109 171.522 100.435 171.511 92.7616Z" fill="#28CFFF"/>
<path d="M130.873 86.6927C137.123 84.3225 143.934 84.8433 150.486 84.907C154.258 84.7901 157.06 88.4464 156.78 91.9857C155.896 94.4197 154.118 96.9174 151.284 97.1406C144.882 97.7039 137.856 96.1415 132.069 99.6915C124.428 103.815 120.958 113.679 124.213 121.629C121.454 125.349 118.684 129.069 115.29 132.247C111.044 125.88 109.147 117.962 110.515 110.416C112.229 99.6065 120.452 90.2745 130.873 86.6927Z" fill="#20BEFF"/>
<path d="M20.8537 170.999C22.6103 171.807 24.41 172.7 26.4037 172.625C33.3223 172.71 40.2409 172.604 47.1703 172.647C44.3792 176.93 41.394 181.086 38.1934 185.071C30.3264 184.838 21.759 186.336 14.7434 181.872C14.4093 181.691 13.7412 181.309 13.4071 181.128C15.7995 177.684 18.2673 174.294 20.8537 170.999Z" fill="#19AFFF"/>
<path d="M124.213 121.629C124.665 122.522 125.139 123.393 125.646 124.254C128.588 128.995 133.75 132.024 139.268 132.874C141.078 133.31 142.889 133.767 144.688 134.245C141.994 137.838 139.375 141.494 137.091 145.363C130.873 144.64 125.15 141.792 120.344 137.923C118.458 136.212 116.852 134.235 115.29 132.247C118.684 129.069 121.454 125.349 124.213 121.629Z" fill="#24C7FF"/>
<path d="M139.268 132.874C152.609 132.938 165.961 132.885 179.314 132.885C175.423 136.584 172.47 141.058 169.733 145.607C158.849 145.458 147.954 145.915 137.091 145.363C139.375 141.494 141.994 137.838 144.688 134.245C142.889 133.767 141.078 133.31 139.268 132.874Z" fill="#29D1FF"/>
<path d="M169.733 145.607C172.47 141.058 175.423 136.584 179.314 132.885C181.62 133.703 183.657 135.329 184.357 137.731C184.389 147.031 184.476 156.342 184.336 165.642C184.023 175.888 174.766 184.806 164.399 184.997C148.826 185.167 133.254 185.018 117.682 185.061C120.161 180.746 123.124 176.739 125.948 172.657C138.395 172.615 150.842 172.7 163.289 172.615C167.298 172.721 171.069 169.554 171.393 165.568C171.684 158.946 171.393 152.303 171.522 145.682L170.973 145.66L169.733 145.607Z" fill="#2DD9FF"/>
<path opacity="0.24" d="M118.986 137.731L120.344 137.923C125.15 141.792 130.873 144.64 137.091 145.363C147.954 145.915 158.849 145.458 169.733 145.607L170.973 145.66C172.632 147.446 170.477 148.626 168.774 148.243C159.797 148.179 150.809 148.211 141.832 148.201C133.157 148.456 124.137 144.768 118.986 137.731Z" fill="black"/>
<path opacity="0.25" d="M184.357 137.731C186.502 140.569 186.297 144.289 186.34 147.648C186.189 154.727 186.685 161.848 185.661 168.895C184.982 178.886 175.844 187.92 165.487 187.559C118.77 187.58 72.0428 187.612 25.326 187.537C21.3818 187.516 15.7025 186.145 14.7434 181.872C21.759 186.336 30.3264 184.838 38.1934 185.071C46.7716 185.061 55.3498 185.082 63.9388 185.071C72.5601 185.071 81.1922 185.071 89.8135 185.071C99.103 185.071 108.392 185.082 117.682 185.061C133.254 185.018 148.826 185.167 164.399 184.997C174.766 184.806 184.023 175.888 184.336 165.642C184.476 156.342 184.389 147.031 184.357 137.731Z" fill="black"/>
<path d="M47.1703 172.647C55.5007 172.647 63.831 172.636 72.1614 172.657C69.4133 176.781 66.5036 180.82 63.9388 185.071C55.3498 185.082 46.7716 185.061 38.1934 185.071C41.394 181.086 44.3792 176.93 47.1703 172.647Z" fill="#1DB8FF"/>
<path d="M72.1614 172.657C80.7719 172.646 89.3825 172.636 97.993 172.657C95.4174 176.887 92.5508 180.937 89.8135 185.071C81.1922 185.071 72.5601 185.071 63.9388 185.071C66.5037 180.82 69.4133 176.781 72.1614 172.657Z" fill="#21C1FF"/>
<path d="M97.993 172.657C107.315 172.646 116.637 172.636 125.948 172.657C123.124 176.739 120.161 180.746 117.682 185.061C108.392 185.082 99.103 185.071 89.8135 185.071C92.5508 180.937 95.4174 176.887 97.993 172.657Z" fill="#26CAFF"/>
</svg>
