<svg xmlns="http://www.w3.org/2000/svg" xmlns:xlink="http://www.w3.org/1999/xlink" viewBox="0 0 48 48"><defs><linearGradient gradientTransform="rotate(-90 24 24)" gradientUnits="userSpaceOnUse" x2="47" x1="1" id="a"><stop stop-color="#07f"/><stop offset="1" stop-color="#00f7ff"/></linearGradient><linearGradient id="b" x1="1" x2="47" gradientUnits="userSpaceOnUse" gradientTransform="rotate(-90 24 24)"><stop stop-color="#07f"/><stop offset="1" stop-color="#0bf"/></linearGradient><linearGradient xlink:href="#a" id="c" x1="5.753" y1="5.591" x2="44.548" y2="44.422" gradientUnits="userSpaceOnUse"/><linearGradient xlink:href="#b" id="d" gradientUnits="userSpaceOnUse" x1="5.753" y1="5.591" x2="44.548" y2="44.422" gradientTransform="translate(.863 .863) scale(.96405)"/><linearGradient xlink:href="#b" id="e" gradientUnits="userSpaceOnUse" x1="5.753" y1="5.591" x2="44.548" y2="44.422" gradientTransform="translate(2.69 2.69) scale(.88794)"/></defs><g transform="translate(1.424 1.424) scale(.94068)" fill="none" stroke="url(#c)" stroke-width="2.658"><path d="M24 1.827c12.246 0 22.173 9.927 22.173 22.173 0 12.246-9.927 22.173-22.173 22.173-12.246 0-22.173-9.927-22.173-22.173C1.827 11.754 11.754 1.827 24 1.827z" stroke="url(#d)"/><path d="M18.332 16.913v4.252H29.67v-4.252l5.51 3.543 5.829 3.549-5.83 3.543-5.509 3.543V26.84H18.332v4.252l-5.51-3.543-5.834-3.543 5.835-3.55zm0 0" stroke="url(#e)" stroke-linecap="round" stroke-linejoin="round"/></g></svg>