<svg width="192" height="192" viewBox="0 0 192 192" fill="none" xmlns="http://www.w3.org/2000/svg">
<path d="M66.6018 31.3573C70.838 18.2737 84.4008 9.43501 97.77 10.0281C108.406 10.191 118.575 16.2036 124.338 25.2749C125.75 27.7869 126.957 30.4153 127.902 33.1483C123.199 33.5088 118.473 33.66 113.747 33.4274C110.547 28.0544 105.024 24.1003 98.8176 23.542C91.837 22.6698 84.8791 26.2518 80.8023 31.9737C76.2016 31.869 71.6124 31.7411 67.0231 31.6713L66.6018 31.3573Z" fill="#B458FF"/>
<path opacity="0.12" d="M80.8023 31.9737C84.8791 26.2518 91.837 22.6698 98.8177 23.542C105.024 24.1003 110.547 28.0544 113.747 33.4274C115.979 37.8119 116.799 42.9407 115.592 47.7671C114.578 42.1615 113.633 35.9395 109.442 31.7527C102.063 23.856 87.4641 24.9958 81.9411 34.6137C78.4564 39.3936 78.6842 45.6737 81.4058 50.7559C80.7681 50.7211 79.4813 50.6745 78.8322 50.6396C78.6842 50.093 78.3881 48.9882 78.2401 48.4416C76.6116 42.8593 77.7732 36.8117 80.8023 31.9737Z" fill="black"/>
<path opacity="0.12" d="M135.976 63.6186C135.953 61.2345 136.204 58.3619 138.435 57.0128C138.082 58.8154 137.809 60.6413 137.604 62.4789C137.673 71.6548 145.621 79.7957 154.686 79.4003C163.591 79.5166 171.255 71.3873 171.198 62.3626C171.084 61.3508 170.868 59.3388 170.765 58.327C173.043 59.6644 172.53 62.5138 172.553 64.7583C172.656 72.1317 167.224 78.6327 160.744 81.2378C155.221 82.3427 148.901 82.4822 144.072 79.0979C138.902 75.8648 136.363 69.5847 135.976 63.6186Z" fill="black"/>
<path opacity="0.1" d="M124.338 25.2749C128.722 27.252 129.508 32.5785 130.624 36.7885C133.937 50.9885 127.036 66.5958 115 74.2018C110.24 77.3186 104.534 78.1443 99.387 80.3423C98.681 93.7051 99.4781 107.114 99.0568 120.489C98.9771 126.839 96.5401 133.572 90.869 136.829C84.6969 141.434 76.7824 139.201 69.7676 140.457C69.6651 142.888 69.574 145.318 69.4373 147.737C68.105 145.19 67.0118 142.492 66.3399 139.678C66.1691 138.922 65.8274 137.422 65.6566 136.677C72.2387 136.398 78.9005 137.259 85.4143 136.154C93.101 134.375 97.6675 126.118 96.8248 118.395C96.7792 112.069 96.7792 105.742 96.7906 99.4037C96.7906 93.1468 96.7792 86.89 96.802 80.6215C96.802 79.1794 96.8134 77.7373 96.8248 76.3068C111.002 76.2835 124.44 66.1539 128.187 52.1166C129.804 45.9179 129.713 39.2889 127.902 33.1483C126.957 30.4153 125.75 27.787 124.338 25.2749Z" fill="black"/>
<path d="M67.0232 31.6713C71.6124 31.7411 76.2016 31.869 80.8023 31.9737C77.7732 36.8117 76.6116 42.8593 78.24 48.4416C73.8672 49.2557 69.4943 50.1047 65.0758 50.5815C63.9143 44.4758 63.8801 37.9398 66.2032 32.1133L67.0232 31.6713Z" fill="#A85BFF"/>
<path d="M113.747 33.4274C118.473 33.66 123.199 33.5088 127.902 33.1483C129.713 39.2889 129.804 45.9179 128.187 52.1166C123.609 51.5235 118.974 51.2677 114.362 51.5235C114.852 50.3024 115.262 49.0464 115.592 47.7671C116.799 42.9407 115.979 37.8119 113.747 33.4274Z" fill="#A75BFF"/>
<path d="M138.435 57.0128C140.941 49.8372 148.218 44.6852 155.745 45.4527C162.828 45.8714 168.977 51.4072 170.765 58.327C170.868 59.3388 171.084 61.3508 171.198 62.3626C160.004 61.816 148.798 62.2811 137.604 62.4789C137.809 60.6413 138.082 58.8154 138.435 57.0128Z" fill="#9F5DFF"/>
<path d="M78.24 48.4416C78.3881 48.9882 78.6842 50.093 78.8322 50.6397C79.4813 50.6745 80.7681 50.7211 81.4058 50.756C88.6598 50.4652 94.7181 56.0824 96.7109 62.9208C104.102 62.6533 111.071 58.3386 114.362 51.5235C118.974 51.2677 123.609 51.5235 128.187 52.1166C124.44 66.1539 111.003 76.2835 96.8248 76.3068C96.8134 77.7373 96.802 79.1794 96.802 80.6215C92.3722 80.5401 87.9424 80.54 83.5239 80.6331C83.4101 75.5625 83.7972 70.4802 83.3417 65.4328C82.2485 63.6651 80.0621 64.3048 78.3653 64.1303C62.4225 64.1768 46.4683 64.1652 30.5255 64.1303C28.8629 64.328 26.6537 63.6418 25.6857 65.491C25.5149 66.8052 25.4352 68.1426 25.458 69.4684C21.0623 69.794 16.6667 70.1429 12.271 70.5035C12.1799 66.5726 12.3166 62.5254 13.8995 58.862C16.6553 54.2333 21.552 50.7792 26.9839 50.7676C39.6699 50.535 52.3785 50.9537 65.0758 50.5815C69.4943 50.1047 73.8672 49.2557 78.24 48.4416Z" fill="#9C5EFF"/>
<path opacity="0.09" d="M10.2896 69.3289C10.5401 65.7003 10.0504 60.7111 13.8995 58.862C12.3166 62.5254 12.1799 66.5726 12.271 70.5035C12.328 77.1674 12.3052 83.8197 12.3052 90.4836C12.3052 96.0078 12.2938 101.532 12.3052 107.056C12.3849 112.359 12.0888 117.674 12.4304 122.977C12.9884 130.409 19.7186 136.643 27.0067 136.608C35.445 136.782 43.8947 136.596 52.333 136.666C52.4583 137.422 52.7088 138.945 52.8341 139.701C54.6333 151.145 61.0446 161.635 70.1092 168.567C85.3801 180.464 108.144 180.51 123.449 168.636C129.303 164.17 134.108 158.262 137.217 151.494C137.536 150.784 138.185 149.377 138.504 148.668C149.504 153.087 162.817 150.657 171.13 141.911C174.751 138.073 177.359 133.305 178.737 128.164C180.183 120.628 179.454 112.883 179.648 105.254C179.762 100.311 179.921 95.3449 179.306 90.4371C182.95 93.926 181.982 99.6363 182.085 104.242C181.014 114.453 183.189 125.245 178.885 134.898C175.127 144.272 166.552 151.064 156.963 153.285C151.463 154.925 145.724 153.797 140.132 153.366C136.431 157.774 133.71 162.984 129.576 167.02C121.536 175.417 110.262 180.208 98.8632 180.987C83.5012 181.441 68.0139 174.033 58.9834 161.24C54.4853 155.285 52.6063 147.924 50.1921 140.957C41.5147 138.573 32.4273 141.167 23.6929 139.294C18.9784 138.271 14.7421 135.107 12.5671 130.676C9.75433 125.466 9.86821 119.326 10.1187 113.557C10.1985 98.8222 10.4034 84.0755 10.2896 69.3289Z" fill="black"/>
<path d="M137.604 62.4789C148.798 62.2811 160.004 61.816 171.198 62.3626C171.255 71.3873 163.591 79.5166 154.686 79.4003C145.621 79.7957 137.673 71.6548 137.604 62.4789Z" fill="#965FFF"/>
<path d="M12.271 70.5035C16.6667 70.1429 21.0623 69.794 25.458 69.4684C25.5149 76.0044 25.4922 82.5288 25.4922 89.0531C21.1079 89.5765 16.7122 90.0416 12.3052 90.4836C12.3052 83.8197 12.328 77.1674 12.271 70.5035Z" fill="#8F61FF"/>
<path d="M83.5239 80.6331C87.9424 80.54 92.3722 80.54 96.802 80.6215C96.7792 86.89 96.7906 93.1468 96.7906 99.4037C92.3722 98.9966 87.9538 98.7292 83.5239 98.5198C83.5239 92.5537 83.5126 86.5992 83.5239 80.6331Z" fill="#8962FF"/>
<path d="M115.512 87.4133C121.696 86.4713 128.039 87.0877 134.279 86.8667C137.616 86.5527 141.112 89.0531 141.396 92.5653C141.704 97.1242 141.442 101.695 141.51 106.254C137.103 106.219 132.685 106.289 128.278 106.44C128.266 104.393 128.244 102.358 128.232 100.311C124.007 100.241 119.691 100.869 115.523 100.02C109.909 98.264 109.898 89.181 115.512 87.4133Z" fill="#8563FF"/>
<path d="M166.7 92.2397C167.622 85.9945 176.459 85.1571 179.306 90.4371C179.921 95.3449 179.762 100.311 179.648 105.254C179.169 106.475 178.657 107.696 178.144 108.905C174.842 109.173 171.551 109.487 168.26 109.847C167.634 111.894 166.984 113.929 166.461 116C166.518 108.08 166.278 100.148 166.7 92.2397Z" fill="#8364FF"/>
<path d="M12.3052 90.4836C16.7122 90.0416 21.1079 89.5765 25.4922 89.0531C25.5035 95.0541 25.4922 101.055 25.5035 107.056C21.1079 107.172 16.7008 107.172 12.3052 107.056C12.2938 101.532 12.3052 96.0078 12.3052 90.4836Z" fill="#8364FF"/>
<path d="M83.5239 98.5198C87.9538 98.7292 92.3722 98.9966 96.7906 99.4037C96.7792 105.742 96.7792 112.069 96.8248 118.395C92.4064 118.465 87.9879 118.465 83.5581 118.419C83.5126 111.79 83.5126 105.149 83.5239 98.5198Z" fill="#7C66FF"/>
<path d="M128.278 106.44C132.685 106.289 137.103 106.219 141.51 106.254C141.499 113.301 141.567 120.349 141.465 127.397C137.046 127.606 132.639 127.734 128.221 127.757C128.164 120.651 128.312 113.546 128.278 106.44Z" fill="#7667FF"/>
<path d="M178.144 108.905C178.657 107.696 179.169 106.475 179.648 105.254C179.454 112.883 180.183 120.628 178.737 128.164C174.068 127.804 169.376 127.897 164.718 128.385C166.415 124.466 166.381 120.186 166.461 116C166.984 113.929 167.634 111.894 168.26 109.847C171.551 109.487 174.842 109.173 178.144 108.905Z" fill="#7568FF"/>
<path d="M12.3052 107.056C16.7008 107.172 21.1079 107.172 25.5035 107.056C25.6288 112.045 25.1961 117.069 25.6971 122.047C26.8017 123.687 28.8857 123.129 30.5369 123.291C47.2996 123.187 64.0851 123.373 80.8478 123.21C83.6948 123.559 83.6378 120.407 83.5581 118.419C87.9879 118.465 92.4064 118.465 96.8248 118.395C97.6675 126.118 93.101 134.375 85.4143 136.154C78.9005 137.259 72.2387 136.398 65.6566 136.677C65.8274 137.422 66.1691 138.922 66.3399 139.678C61.8417 139.818 57.3322 139.829 52.8341 139.701C52.7088 138.945 52.4583 137.422 52.333 136.666C43.8947 136.596 35.445 136.782 27.0067 136.608C19.7186 136.643 12.9884 130.409 12.4304 122.977C12.0888 117.674 12.3849 112.359 12.3052 107.056Z" fill="#6C6AFF"/>
<path d="M128.221 127.757C132.639 127.734 137.046 127.606 141.465 127.397C141.453 129.955 141.453 132.502 141.453 135.061C149.402 140.062 160.368 136.689 164.718 128.385C169.376 127.897 174.068 127.804 178.737 128.164C177.359 133.305 174.751 138.073 171.13 141.911C156.428 140.76 141.647 141.248 126.911 141.574C128.095 137.061 128.335 132.398 128.221 127.757Z" fill="#656DFF"/>
<path d="M52.834 139.701C57.3322 139.829 61.8417 139.817 66.3399 139.678C67.0117 142.492 68.105 145.19 69.4373 147.737C76.3155 160.588 92.3266 167.264 106.015 162.693C112.904 160.6 118.792 155.89 122.971 149.97C127.697 150.657 132.446 151.157 137.217 151.494C134.108 158.262 129.303 164.17 123.449 168.636C105.662 168.532 87.8854 168.427 70.1092 168.567C61.0446 161.635 54.6333 151.145 52.834 139.701Z" fill="#4C75FF"/>
<path d="M126.911 141.574C141.647 141.248 156.428 140.76 171.13 141.911C162.817 150.657 149.504 153.087 138.504 148.668C138.185 149.377 137.536 150.784 137.217 151.494C132.446 151.157 127.697 150.657 122.971 149.97C124.497 147.272 125.818 144.469 126.911 141.574Z" fill="#5B70FF"/>
<path d="M70.1092 168.567C87.8854 168.427 105.662 168.532 123.449 168.636C108.144 180.51 85.3801 180.464 70.1092 168.567Z" fill="#3D7AFF"/>
</svg>
