<svg xmlns="http://www.w3.org/2000/svg" xmlns:xlink="http://www.w3.org/1999/xlink" height="64" width="64"><defs><linearGradient id="b"><stop offset="0" stop-color="#2de3cc"/><stop offset="1" stop-color="#1388de"/></linearGradient><linearGradient id="a" y2="1320.4" gradientUnits="userSpaceOnUse" x2="638" gradientTransform="matrix(1.7492 0 0 1.7494 -1055.904 -2341.904)" y1="1320.4" x1="605.99"><stop stop-color="#1287de" offset="0"/><stop stop-color="#37a4f5" offset="1"/></linearGradient><linearGradient xlink:href="#a" id="d" x1="17" y1="34" x2="43" y2="34" gradientUnits="userSpaceOnUse" gradientTransform="translate(-1.164 -1.164) scale(1.03637)"/><linearGradient xlink:href="#b" id="c" x1="4.004" y1="-32.004" x2="59.996" y2="-32.004" gradientUnits="userSpaceOnUse" gradientTransform="translate(-1.164 1.164) scale(1.03637)"/></defs><rect rx="29.014" height="58.036" width="58.029" y="-61.021" x="2.986" transform="rotate(90)" fill="none" stroke="url(#c)" stroke-width="3"/><path d="M32.407 47.314c-.75-.454-1.228-1.243-3.313-5.458-1.153-2.332-2.25-4.405-2.439-4.605-.211-.224-1.951-1.148-4.548-2.417-5.13-2.505-5.653-2.903-5.653-4.321 0-.663.324-1.296.83-1.627.175-.114 5.539-2.035 11.922-4.27 11.214-3.922 11.633-4.057 12.399-4.01.663.04.855.108 1.174.412.478.455.692 1.086.6 1.761-.1.726-8.152 23.471-8.452 23.873-.638.858-1.72 1.142-2.519.658" fill="none" stroke="url(#d)" stroke-width="3"/></svg>