<svg xmlns="http://www.w3.org/2000/svg" xmlns:xlink="http://www.w3.org/1999/xlink" viewBox="0 0 48 48" version="1.1" id="svg16"><defs id="defs8"><style type="text/css" id="current-color-scheme"/><style type="text/css" id="current-color-scheme-7"/><style type="text/css" id="current-color-scheme-8"/><style type="text/css" id="current-color-scheme-9"/><style type="text/css" id="current-color-scheme-0"/><style type="text/css" id="current-color-scheme-91"/><style type="text/css" id="current-color-scheme-7-2"/><style type="text/css" id="current-color-scheme-8-7"/><style type="text/css" id="current-color-scheme-9-0"/><style type="text/css" id="current-color-scheme-0-9"/><style type="text/css" id="current-color-scheme-3"/><style type="text/css" id="current-color-scheme-7-6"/><linearGradient id="a-3"><stop id="stop1032" stop-color="#00b8ff" offset="0" stop-opacity="1"/><stop id="stop1034" stop-color="#00ff9d" offset="1"/></linearGradient><linearGradient xlink:href="#a-3" id="linearGradient1076" x1="5.887" y1="8.011" x2="43.976" y2="43.605" gradientUnits="userSpaceOnUse"/><linearGradient xlink:href="#a-3" id="linearGradient1078" gradientUnits="userSpaceOnUse" x1="5.436" y1="8.237" x2="47.322" y2="43.492" gradientTransform="translate(-1.228 .53)"/><linearGradient xlink:href="#a-3" id="linearGradient858" gradientUnits="userSpaceOnUse" x1="3.853" y1="8.621" x2="43.976" y2="43.605"/></defs><g id="g942" stroke-miterlimit="4" fill="none" stroke="url(#linearGradient1076)" stroke-width="2" stroke-linecap="round" stroke-linejoin="round" stroke-dasharray="none" stroke-opacity="1" paint-order="markers stroke fill"><path id="path16" d="M30.288 5.005L27.214 8H10.52c-6.793 0-7.487 1.053-7.487 7.666v8.141c-.001.171-.01.3-.01.48v12.39c0 3.307.176 5.131 1.2 6.129 1.024.997 2.897 1.168 6.29 1.168h28.023c6.788 0 7.483-.682 7.483-7.297v-9.393l-.002-.101V11.987c0-2.494.17-4.864-1.017-5.987-1.187-1.123-3.731-.998-6.463-.996z" style="marker:none" overflow="visible" color="#000" stroke="url(#linearGradient858)"/><path d="M38.37 36v-4.743H24V36zm-22.684-1.985L12.4 30.567l7.392-6.037-7.392-6.033 3.286-3.452 11.086 9.485z" id="path10-2" opacity=".93" fill="none" stroke="url(#linearGradient1078)"/></g></svg>