<svg xmlns="http://www.w3.org/2000/svg" xmlns:xlink="http://www.w3.org/1999/xlink" viewBox="0 0 48 48"><defs><linearGradient id="a"><stop offset="0" stop-color="#004dff" stop-opacity=".875"/><stop offset="1" stop-color="#00e0f8"/></linearGradient><linearGradient xlink:href="#a" id="b" gradientUnits="userSpaceOnUse" x1="-.375" y1="24" x2="48.375" y2="24"/><linearGradient xlink:href="#a" id="c" x1="19.209" y1="24.935" x2="34.318" y2="24.935" gradientUnits="userSpaceOnUse"/></defs><path d="M24 1c12.703 0 23 10.297 23 23S36.703 47 24 47 1 36.703 1 24 11.297 1 24 1z" stroke="url(#b)" transform="rotate(180 23.368 22.953) scale(.90568)" fill="none" stroke-width="2.54"/><path d="M20.366 34.075v-18.28l12.795 9.14z" stroke-linejoin="round" stroke-linecap="round" stroke-width="2.314" stroke="url(#c)" fill="none"/><path d="M18.505 8.28l1.23 2-1.23 2h-2.46l1.23-2-1.23-2m7.335 0l1.23 2-1.23 2h-2.46l1.23-2-1.23-2m7.172 0l1.23 2-1.23 2h-2.46l1.23-2-1.23-2m7.178 0l1.23 2-1.23 2h-2.46l1.23-2-1.23-2m2.46 0" fill="#005aff" fill-rule="evenodd"/></svg>