<svg xmlns="http://www.w3.org/2000/svg" xmlns:xlink="http://www.w3.org/1999/xlink" viewBox="0 0 48 48"><defs><linearGradient gradientTransform="rotate(-90 24 24)" gradientUnits="userSpaceOnUse" x2="47" x1="1" id="b"><stop stop-color="#ff003a"/><stop offset="1" stop-color="#ff6500"/></linearGradient><linearGradient id="a" x1="1" x2="47" gradientUnits="userSpaceOnUse" gradientTransform="rotate(-90 24 24)"><stop stop-color="#d6262e"/><stop offset="1" stop-color="#db363f"/></linearGradient><linearGradient xlink:href="#a" id="c" x1="12.218" y1="23" x2="35.774" y2="23" gradientUnits="userSpaceOnUse"/><linearGradient xlink:href="#b" id="d" x1="10.959" y1="23" x2="37.031" y2="23" gradientUnits="userSpaceOnUse"/><linearGradient xlink:href="#b" id="e" gradientUnits="userSpaceOnUse" x1="10.959" y1="23" x2="37.031" y2="23"/><linearGradient xlink:href="#b" id="f" gradientUnits="userSpaceOnUse" x1="10.959" y1="23" x2="37.031" y2="23"/><linearGradient xlink:href="#b" id="g" gradientUnits="userSpaceOnUse" x1="10.959" y1="23" x2="37.031" y2="23"/><linearGradient xlink:href="#b" id="h" x1="17.891" y1="26.191" x2="30.106" y2="26.191" gradientUnits="userSpaceOnUse"/></defs><g transform="translate(-13.917 -13.34) scale(1.57998)" fill="none" stroke="url(#c)"><g stroke="url(#d)" stroke-width="1.061"><path d="M16.575 19.818c-1.06 0-1.19.398-1.404 1.06l-3.556 13.79c-.137.56-.344 1.061.717 1.061h23.337c1.06 0 .832-.535.717-1.06l-3.556-13.79c-.187-.527-.344-1.061-1.404-1.061h-5.304v8.486h3.182L24 32.547l-5.303-4.243h3.182v-8.486zm0 0" stroke="url(#e)" stroke-linecap="round" stroke-linejoin="round"/><path d="M18.456 10.27h11.092c1.036 0 1.878.714 1.878 1.592 0 .878-.842 1.591-1.878 1.591h-2.773m-5.546 0h-2.773c-1.04 0-1.881-.713-1.881-1.591s.841-1.591 1.88-1.591" stroke="url(#f)" stroke-linecap="square"/><path d="M21.879 13.45v6.368m0 0h4.243m0 0V13.45" stroke="url(#g)" stroke-linecap="square"/></g><path d="M22.1 19.835h3.797v8.228h3.797L24 32.547l-5.698-4.484h3.797z" fill="url(#h)" stroke="none"/></g></svg>