<svg width="192" height="192" viewBox="0 0 192 192" fill="none" xmlns="http://www.w3.org/2000/svg">
<path d="M128.237 13.172C128.566 11.8772 129.421 11.6576 130.791 12.5015C140.14 11.6229 149.644 15.2643 156.681 21.7379C153.195 24.9862 150.685 29.1594 148.219 33.2632C141.686 26.6971 131.81 25.3793 123.469 28.4311C122.745 22.5818 129.125 19.5299 130.758 14.3858C130.133 14.0852 128.873 13.4725 128.237 13.172Z" fill="#19AEFF"/>
<path d="M98.6968 28.7663C105.186 19.5184 115.851 14.6516 126.362 12.8714C126.834 12.9523 127.765 13.091 128.237 13.172C128.873 13.4725 130.133 14.0852 130.758 14.3858C129.125 19.5299 122.745 22.5818 123.469 28.4311C116.903 30.3732 110.546 34.581 107.685 41.3436C104.473 48.5108 104.627 56.7183 105.427 64.4288C106.216 68.7407 102.577 73.1103 98.4227 72.856C86.3765 72.7635 74.3742 70.2088 63.2268 65.3767C65.5834 61.0649 68.4223 57.0882 71.1626 53.0423C77.5748 55.5045 84.272 57.1576 91.0569 57.8974C90.9583 47.7247 92.7449 37.0433 98.6968 28.7663Z" fill="#15A6FF"/>
<path d="M20.106 24.3967C22.4188 20.7553 27.9213 20.3969 30.6834 23.6453C34.5965 27.8531 38.6631 31.8991 42.9708 35.6445C41.6116 40.4419 37.9945 43.8868 35.7474 48.1755C35.2542 47.7825 34.2567 46.9848 33.7635 46.5918C29.0174 42.4996 24.4904 38.1183 20.3362 33.3672C18.3632 30.8703 18.1988 26.9861 20.106 24.3967Z" fill="#088CFF"/>
<path d="M172.037 22.8592C175.512 19.8652 181.19 21.7841 182.68 26.1538C183.47 28.9629 182.878 32.2921 180.642 34.188C173.857 40.4419 164.036 41.91 155.453 39.7367C153.546 39.3437 152.176 37.8062 150.937 36.3612C150.74 36.13 150.367 35.6676 150.17 35.4364C149.688 34.8931 148.712 33.8065 148.219 33.2632C150.685 29.1594 153.195 24.9862 156.681 21.7379C158.204 23.0326 159.454 24.6394 160.923 26.0035C164.814 26.4312 169.034 25.703 172.037 22.8592Z" fill="#1FBBFF"/>
<path opacity="0.26" d="M182.68 26.1538C186.089 29.1247 184.566 34.8816 181.42 37.4594C174.624 44.0948 164.759 43.6902 156.187 42.673C153.853 41.2742 151.167 39.4824 150.937 36.3612C152.176 37.8062 153.546 39.3437 155.453 39.7367C164.036 41.91 173.857 40.4419 180.642 34.188C182.878 32.2921 183.47 28.9629 182.68 26.1538Z" fill="black"/>
<path opacity="0.26" d="M123.469 28.4311C131.81 25.3793 141.686 26.6971 148.219 33.2632C148.712 33.8065 149.688 34.8931 150.17 35.4364C146.136 34.6041 143.045 31.3442 139.033 30.3501C130.615 28.8704 121.671 31.0205 114.831 36.4422C110.107 40.4303 107.816 46.6727 106.786 52.7764C106.326 58.1749 106.896 63.5965 106.764 68.995C106.961 72.174 103.958 74.5785 101.349 75.2952C83.3623 76.4396 65.4848 70.3706 50.0735 60.8568C44.1217 56.568 37.4026 52.8573 32.7441 46.9733L33.7635 46.5918C34.2567 46.9848 35.2542 47.7825 35.7474 48.1755C44.1107 55.1924 53.318 61.1573 63.2268 65.3767C74.3742 70.2088 86.3765 72.7635 98.4227 72.856C102.577 73.1103 106.216 68.7407 105.427 64.4288C104.627 56.7183 104.473 48.5108 107.685 41.3436C110.546 34.581 116.903 30.3732 123.469 28.4311Z" fill="black"/>
<path opacity="0.26" d="M29.6531 106.588C33.632 111.732 38.7069 116.206 44.8122 118.159C50.0407 120.795 56.2775 115.189 54.4908 109.328C57.7792 112.114 56.2775 118.171 52.9782 120.275C47.5854 123.65 41.6226 119.304 37.0628 116.275C34.3554 113.385 30.0587 110.935 29.6531 106.588Z" fill="black"/>
<path opacity="0.26" d="M71.8203 137.141C75.3716 140.1 73.1246 145.406 70.1542 147.765C66.7015 150.458 62.7116 152.227 58.941 154.331C54.447 156.897 49.2843 158.053 45.2068 161.405C42.6858 160.943 40.2086 160.249 37.7095 159.694C48.7801 155.995 59.5439 151.117 69.365 144.551C71.5024 142.875 72.3245 139.834 71.8203 137.141Z" fill="black"/>
<path d="M42.9708 35.6445C51.4546 42.9157 60.9031 48.9963 71.1626 53.0423C68.4223 57.0882 65.5834 61.0649 63.2268 65.3767C53.318 61.1573 44.1107 55.1924 35.7474 48.1755C37.9945 43.8868 41.6116 40.4419 42.9708 35.6445Z" fill="#0D97FF"/>
<path d="M20.0293 53.4353C23.5039 52.1175 27.5047 54.3832 28.7433 57.9668C30.7492 62.8567 34.3883 66.9258 38.8933 69.3418C40.6142 70.151 41.8966 71.6769 42.6639 73.4803C44.034 77.6996 41.3485 82.7282 37.0518 83.2253C32.7112 83.6183 29.2804 80.1272 25.9373 77.7228C21.2679 73.7346 17.6617 68.417 15.5133 62.5099C14.3186 58.8338 16.4998 54.4872 20.0293 53.4353Z" fill="#0B93FF"/>
<path d="M159.563 67.5962C160.857 60.2672 171.741 60.4175 173.144 67.6194C172.914 116.125 138.705 161.833 94.1589 173.67C97.1403 166.388 103.432 161.209 105.953 153.706C124.927 144.32 140.195 127.65 149.852 108.172C155.99 95.6291 158.709 81.5838 159.563 67.5962Z" fill="#25C8FF"/>
<path opacity="0.25" d="M173.144 67.6194C176.159 71.4919 174.262 77.1332 173.966 81.6647C171.259 107.305 159.015 131.222 141.478 148.99C125.573 165.798 104.133 176.295 81.8935 179.393C61.3744 182.502 39.6825 180.352 21.0816 170.179C17.1685 167.555 12.51 165.521 9.64918 161.556L10.7672 161.186C14.494 163.833 18.3084 166.353 22.375 168.399C29.0064 171.89 36.1311 174.237 43.3763 175.844C50.9614 177.427 58.7218 178.029 66.4384 177.774C75.7772 177.485 85.1379 176.295 94.1589 173.67C138.705 161.833 172.914 116.125 173.144 67.6194Z" fill="black"/>
<path opacity="0.25" d="M42.6639 73.4803C46.555 77.4569 43.7271 85.7801 38.2027 85.8147C33.0181 86.5546 28.9077 82.393 25.3454 79.029C25.4989 78.7054 25.7948 78.058 25.9373 77.7228C29.2804 80.1272 32.7112 83.6183 37.0518 83.2253C41.3485 82.7282 44.034 77.6996 42.6639 73.4803Z" fill="black"/>
<path d="M25.181 94.3807C26.6059 89.144 33.906 87.8377 36.986 92.1612C39.2221 95.5135 41.2499 99.1318 44.3957 101.663C47.5306 104.657 53.1755 104.288 54.4908 109.328C56.2775 115.189 50.0407 120.795 44.8122 118.159C38.7069 116.206 33.632 111.732 29.6531 106.588C27.3184 103.051 23.4601 99.0856 25.181 94.3807Z" fill="#119FFF"/>
<path d="M61.4073 132.667C65.2327 130.113 70.7899 132.471 71.8203 137.141C72.3245 139.834 71.5024 142.875 69.365 144.551C59.5439 151.117 48.7801 155.995 37.7095 159.694C40.2086 160.249 42.6858 160.943 45.2068 161.405C48.0238 161.983 50.8518 162.434 53.7016 162.804C48.4951 165.128 46.2591 171.15 43.3763 175.844C36.1311 174.237 29.0064 171.89 22.375 168.399C26.1236 159.718 33.2812 153.279 36.8655 144.505C45.5028 141.753 53.6688 137.534 61.4073 132.667Z" fill="#18ADFF"/>
<path d="M12.9813 147.256C21.0268 147.903 29.1489 147.002 36.8655 144.505C33.2812 153.279 26.1236 159.718 22.375 168.399C18.3084 166.353 14.494 163.833 10.7672 161.186C4.7167 158.33 6.31702 147.788 12.9813 147.256Z" fill="#14A4FF"/>
<path d="M76.6541 162.423C86.7602 161.059 96.7019 158.261 105.953 153.706C103.432 161.209 97.1403 166.388 94.1589 173.67C85.1379 176.295 75.7772 177.485 66.4384 177.774C69.65 172.526 73.015 167.359 76.6541 162.423Z" fill="#21BFFF"/>
<path d="M53.7016 162.804C61.3305 163.544 69.0362 163.359 76.6541 162.423C73.015 167.359 69.65 172.526 66.4384 177.774C58.7218 178.029 50.9614 177.427 43.3763 175.844C46.2591 171.15 48.4951 165.128 53.7016 162.804Z" fill="#1CB6FF"/>
</svg>
