<svg xmlns="http://www.w3.org/2000/svg" xmlns:xlink="http://www.w3.org/1999/xlink" viewBox="0 0 48 48"><defs><linearGradient id="a"><stop offset="0" stop-color="#8b2f61"/><stop offset="1" stop-color="#ff1300" stop-opacity=".985"/></linearGradient><linearGradient xlink:href="#a" id="b" x1="13.096" y1="4.457" x2="35.048" y2="45.014" gradientUnits="userSpaceOnUse" gradientTransform="translate(-1.65 -2.553) scale(1.07477)"/></defs><path d="M24.144 1.875a4.868 4.868 0 1 0-1.624 9.46v5.971l-7.46 6.205c-.362.247-.662.68-.662 1.105v3.235l-1.625.013v6.498h6.498v-6.498h-1.625v-2.436l4.873-4.061v16.244h-3.248l4.873 8.121 4.873-8.121h-3.249V17.306l4.873 4.061v3.689a3.247 3.247 0 0 0 1.624 6.057 3.248 3.248 0 0 0 1.625-6.059v-4.5c0-.399-.234-.842-.552-1.104l-7.57-6.205v-1.907a4.872 4.872 0 0 0-1.624-9.463z" fill="none" stroke="url(#b)" stroke-width="1.9" stroke-linecap="round" stroke-linejoin="round"/></svg>