<svg xmlns="http://www.w3.org/2000/svg" xmlns:xlink="http://www.w3.org/1999/xlink" viewBox="0 0 48 48"><defs><linearGradient id="c" x1="1" x2="47" gradientUnits="userSpaceOnUse" gradientTransform="rotate(-90 24 24)"><stop offset="0" stop-color="#00fe89" stop-opacity=".949"/><stop offset="1" stop-color="#ffd500"/></linearGradient><linearGradient id="a" x1="1" x2="47" gradientUnits="userSpaceOnUse" gradientTransform="rotate(-90 24 24)"><stop offset="0" stop-color="#00fe89" stop-opacity=".949"/><stop offset="1" stop-color="#ffd500"/></linearGradient><linearGradient gradientTransform="rotate(-90 24 24)" gradientUnits="userSpaceOnUse" x2="47" x1="1" id="b"><stop stop-opacity=".949" stop-color="#00fe89" offset="0"/><stop stop-opacity=".573" stop-color="#ffd500" offset="1"/></linearGradient><linearGradient xlink:href="#a" id="e" gradientUnits="userSpaceOnUse" x1="7.325" y1="6.508" x2="8.874" y2="9.378" gradientTransform="translate(-3.05 1.543) scale(3.40805)"/><linearGradient xlink:href="#b" id="f" gradientUnits="userSpaceOnUse" x1="6.234" y1="4.814" x2="8.874" y2="9.378" gradientTransform="translate(-24.118 -11.137) scale(6.2059)"/><linearGradient xlink:href="#c" id="d" gradientUnits="userSpaceOnUse" x1="5.78" y1="9.9" x2="40.07" y2="39.056" gradientTransform="translate(1.838 1.838) scale(.92767)"/></defs><g fill="none"><path d="M24.102 2.766c11.784 0 21.336 9.552 21.336 21.336 0 11.784-9.552 21.336-21.336 21.336-11.784 0-21.336-9.552-21.336-21.336 0-11.784 9.552-21.336 21.336-21.336z" stroke="url(#d)" stroke-width="2.2"/><path d="M22.507 21v14.987H27V21z" stroke-miterlimit="1" stroke="url(#e)" stroke-width="2.2" stroke-linejoin="round" paint-order="markers fill stroke"/><path d="M27 14.953a2.27 2.27 0 1 1-4.541 0 2.27 2.27 0 0 1 4.541 0z" stroke="url(#f)" stroke-width="2"/></g></svg>