<svg xmlns="http://www.w3.org/2000/svg" xmlns:xlink="http://www.w3.org/1999/xlink" viewBox="0 0 48 48"><defs><linearGradient id="a"><stop offset="0" stop-color="#007dff"/><stop offset="1" stop-color="#00ff63"/></linearGradient><linearGradient xlink:href="#a" id="b" gradientUnits="userSpaceOnUse" gradientTransform="translate(-20.994 -20.373) scale(1.89598)" x1="36.466" y1="24.102" x2="12.093" y2="24.254"/></defs><path d="M24.745 3.944c1.41 5.128 2.794 10.26 4.15 15.402l4.028-14.99c4.86 14.811.007.326 4.861 14.811h5.687V4zM5.575 6.512l-.003 14.553m0 0h7.57c2.033 5.72 0 0 3.85 10.666 2.464-9.257 4.976-18.51 7.398-27.78l-1.465.003-17.024.083 16.076-.081-16.402.042-.013 17.066m.01 5.967l-.005 17.064h11.368L11.247 27.03H5.572m19.004-9.61v.034c-2.37 8.861-4.984 17.682-6.918 26.657h25.818V25.155h-7.391c-3.024-6.813-.195 0-3.158-6.785-1.34 5.037-2.695 10.073-4.03 15.11a2091.012 2091.012 0 0 0-4.321-16.06z" fill="none" stroke="url(#b)" stroke-width="1.8" stroke-linecap="round" stroke-linejoin="round" paint-order="stroke fill markers"/></svg>