<svg xmlns="http://www.w3.org/2000/svg" xmlns:xlink="http://www.w3.org/1999/xlink" viewBox="0 0 48 48"><defs><linearGradient id="a"><stop offset="0" stop-color="#0ebefc"/><stop offset="1" stop-color="#0084ff"/></linearGradient><linearGradient id="b"><stop offset="0" stop-color="#ffbf00"/><stop offset="1" stop-color="#fc0e0e"/></linearGradient><linearGradient xlink:href="#a" id="d" gradientUnits="userSpaceOnUse" x1="19.773" y1="29.465" x2="30.384" y2="16.378" gradientTransform="translate(.751 1.92) scale(.97265)"/><linearGradient xlink:href="#b" id="c" gradientUnits="userSpaceOnUse" x1="6.723" y1="27.209" x2="39.77" y2="27.209" gradientTransform="translate(-1.036 1.599) scale(.97265)"/><linearGradient xlink:href="#b" id="e" gradientUnits="userSpaceOnUse" x1="6.723" y1="27.209" x2="39.77" y2="27.209" gradientTransform="translate(-1.036 1.599) scale(.97265)"/></defs><path d="M9.69 13.208a2.965 2.965 0 0 0-2.971 2.97v23.77a2.965 2.965 0 0 0 2.97 2.971h23.77a2.965 2.965 0 0 0 2.97-2.971v-23.77a2.965 2.965 0 0 0-2.97-2.97z" fill="none" stroke="url(#c)" stroke-width="3" stroke-linecap="round" stroke-linejoin="round"/><path d="M15.181 7.436a2.965 2.965 0 0 0-2.97 2.971v23.77a2.965 2.965 0 0 0 2.97 2.97h23.77a2.965 2.965 0 0 0 2.97-2.97v-23.77a2.965 2.965 0 0 0-2.97-2.97H15.18" fill="none" stroke="url(#d)" stroke-width="3" stroke-linecap="round" stroke-linejoin="round"/><path d="M19.249 13.208h-9.88" fill="none" stroke="url(#e)" stroke-width="3" stroke-linecap="round" stroke-linejoin="round"/></svg>