<svg xmlns="http://www.w3.org/2000/svg" xmlns:xlink="http://www.w3.org/1999/xlink" viewBox="0 0 48 48"><defs><linearGradient id="a"><stop offset="0" stop-color="#00e1ff"/><stop offset="1" stop-color="#0063ff"/></linearGradient><linearGradient xlink:href="#a" id="e" x1="13.388" y1="7.417" x2="33.592" y2="26.535" gradientUnits="userSpaceOnUse" gradientTransform="translate(3.464 2.616) scale(.85123)"/><linearGradient xlink:href="#b" id="d" x1=".071" y1="38.568" x2="46.502" y2="38.568" gradientUnits="userSpaceOnUse"/><linearGradient xlink:href="#b" id="c" x1="10.473" y1="33.761" x2="35.473" y2="33.761" gradientUnits="userSpaceOnUse"/><linearGradient id="b"><stop offset="0" stop-color="#ffbf00"/><stop offset="1" stop-color="#fc0e0e"/></linearGradient></defs><g fill="none"><g stroke="url(#c)" stroke-opacity=".997" stroke-width="2" transform="translate(.814 .11)"><path d="M23.186 32.89V29.5" stroke-linecap="round" stroke-linejoin="round"/><path d="M10.473 38.647h8m10 0h7"/></g><g stroke="url(#d)" stroke-opacity=".992" stroke-width="2" transform="translate(.814 .11)"><circle cx="6.008" cy="38.568" r="4.937"/><circle cx="23.287" cy="38.568" r="4.937"/><circle cx="40.565" cy="38.568" r="4.937"/></g><path d="M14.141 6.03a2.406 2.406 0 0 0-2.41 2.41v18.292a2.406 2.406 0 0 0 2.41 2.41h18.291a2.406 2.406 0 0 0 2.411-2.41V8.44a2.406 2.406 0 0 0-2.411-2.411zm2.842 5.253H29.59V23.89H16.983z" stroke="url(#e)" stroke-width="1.702" transform="translate(.814 .11)"/></g></svg>