<svg xmlns="http://www.w3.org/2000/svg" xmlns:xlink="http://www.w3.org/1999/xlink" viewBox="0 0 48 48"><defs><linearGradient xlink:href="#a" id="b" x1="10.646" y1="11.593" x2="39.858" y2="38.644" gradientUnits="userSpaceOnUse" gradientTransform="translate(3.496 3.434) scale(.85693)"/><linearGradient id="a"><stop stop-color="#ffbf00" offset="0"/><stop stop-color="#fc0e0e" offset="1"/></linearGradient></defs><path d="M10.939 7.801c-1.35 0-2.7 1.35-2.7 2.7v9.45c0 1.349 1.35 2.698 2.7 2.698s2.7-1.35 2.7-2.699V15.9l2.7 2.7v4.05h4.05V21.3c-.042-.897.406-1.345 1.35-1.35h1.35V15.9h-4.05l-2.7-2.7h4.05c1.35 0 2.698-1.349 2.698-2.698 0-1.35-1.348-2.7-2.699-2.7zm17.549 0c-1.35 0-2.7 1.35-2.7 2.7s1.35 2.7 2.7 2.7h4.05l-2.7 2.7h-4.05v4.05h1.35c.897-.043 1.345.405 1.35 1.349v1.35h4.05V18.6l2.7-2.699v4.05c0 1.349 1.35 2.698 2.698 2.698 1.35 0 2.7-1.35 2.7-2.699V10.5c0-1.349-1.35-2.699-2.699-2.699zM16.339 25.35v4.05c0 1.35 1.35 2.699 2.7 2.699h4.05v-4.05h-1.35c-.897.043-1.346-.405-1.35-1.349v-1.35zm12.149 0v1.35c.042.897-.406 1.345-1.35 1.35h-1.35v4.05h4.05l2.699 2.7h-4.05c-1.349 0-2.698 1.349-2.698 2.698 0 1.35 1.35 2.7 2.699 2.7h9.45c1.349 0 2.699-1.35 2.699-2.699v-9.45c0-1.349-1.35-2.698-2.7-2.698s-2.7 1.35-2.7 2.699v4.05l-2.7-2.7v-4.05z" fill="none" stroke="url(#b)" stroke-width="2"/></svg>