<svg width="64" height="64" viewBox="0 0 64 64" fill="none" xmlns="http://www.w3.org/2000/svg">
<path d="M13.1992 12.7533C17.2898 9.5474 22.9453 8.2758 28.1054 9.40413C32.2785 10.2745 36.0688 12.653 38.5832 15.9484C39.9868 15.583 41.4279 15.3466 42.8877 15.3072C42.1184 17.0301 40.5422 18.2982 39.8967 20.0784L39.8329 20.2432C38.966 20.4868 38.0841 20.9524 37.1609 20.7447C36.234 20.587 35.8137 19.7202 35.322 19.0611C33.1829 15.8696 29.4676 13.6989 25.5047 13.3765C20.0256 12.8142 14.4414 15.9806 12.2798 20.8091C11.3191 22.7506 11.0864 24.9177 11.1089 27.0418C11.1051 28.1808 9.91926 28.7253 9.01108 29.173C6.19647 30.5951 4.42139 33.6362 4.54898 36.6629C4.54898 40.1124 7.08964 43.372 10.5272 44.4108C11.6118 44.7904 12.7789 44.7725 13.9085 44.9588C15.4697 45.2919 16.0889 47.3766 14.9593 48.462C14.3326 49.2357 13.2292 49.1784 12.3173 49.121C7.35609 48.8524 2.7739 45.6143 0.968803 41.2085C-1.54558 35.5561 1.01008 28.4746 6.60177 25.4514C6.75564 20.5727 9.18746 15.8015 13.1992 12.7533Z" fill="#0F9CFF"/>
<path d="M42.8877 15.3072C49.1324 15.2141 55.0543 19.3979 56.7844 25.1218C59.3063 26.4293 61.4679 28.4244 62.6951 30.9246C64.5752 34.6284 64.4213 39.1954 62.2485 42.7559C60.0906 46.4704 55.8387 48.9706 51.3916 49.1426C50.4196 49.2751 49.335 48.9886 48.8209 48.1396C47.879 46.8501 48.971 44.8299 50.6373 44.8693C53.6283 44.855 56.5817 43.3756 58.1391 40.9184C59.8429 38.4289 59.9292 35.0618 58.4356 32.4649C57.5162 30.767 55.9212 29.4954 54.1161 28.7217C52.4011 28.0985 52.645 26.0782 51.8082 24.8066C49.7328 20.7196 44.4001 18.6564 39.8967 20.0784C40.5422 18.2982 42.1184 17.0302 42.8877 15.3072Z" fill="#24C7FF"/>
<path d="M27.0509 38.5005C28.4019 37.7698 30.3046 38.7978 30.3233 40.2772C30.4321 41.0401 29.9593 41.6849 29.5127 42.2652C26.3228 46.4059 23.1667 50.5753 19.9993 54.7376C19.3501 55.7477 17.8002 56.1166 16.7869 55.3788C15.6874 54.7197 15.511 53.1579 16.3178 52.2195C19.5152 48.0035 22.7389 43.809 25.9288 39.5858C26.2553 39.1847 26.5818 38.762 27.0509 38.5005Z" fill="#FF3662"/>
<path d="M36.0651 38.4826C37.1759 37.931 38.6358 38.4969 39.0936 39.593C39.5252 40.4169 39.1799 41.3661 38.602 42.0359C35.322 46.3056 32.0871 50.6076 28.8034 54.8737C28.1279 55.78 26.7056 56.0594 25.7486 55.3895C24.6565 54.734 24.4089 53.1759 25.2345 52.2338C28.4506 47.9999 31.6856 43.7768 34.898 39.5393C35.2245 39.1345 35.5585 38.6939 36.0651 38.4826Z" fill="#F6B02B"/>
<path d="M44.749 38.5757C46.1001 37.7376 48.1153 38.7011 48.1829 40.2414C48.333 41.0903 47.7138 41.7673 47.2447 42.412C44.0698 46.542 40.9362 50.7007 37.7651 54.8307C37.2284 55.5758 36.1851 55.9985 35.2694 55.6653C33.8584 55.3107 33.1529 53.5162 34.046 52.3878C37.1346 48.2793 40.287 44.2138 43.3793 40.1052C43.7996 39.5715 44.1786 38.9805 44.749 38.5757Z" fill="#41E273"/>
</svg>
