<svg xmlns="http://www.w3.org/2000/svg" xmlns:xlink="http://www.w3.org/1999/xlink" viewBox="0 0 48 48"><defs><linearGradient id="a" x1="24" x2="24" y1="2" y2="46" gradientUnits="userSpaceOnUse"><stop stop-color="#0df7f9" offset="0"/><stop stop-color="#0090ff" offset="1"/></linearGradient><linearGradient xlink:href="#a" id="b" x1="1" y1="24" x2="47" y2="24" gradientUnits="userSpaceOnUse"/><linearGradient xlink:href="#a" id="c" x1="11" y1="24" x2="37" y2="24" gradientUnits="userSpaceOnUse"/></defs><path d="M47 24a23 23 0 0 1-23 23A23 23 0 0 1 1 24 23 23 0 0 1 24 1a23 23 0 0 1 23 23z" fill="none" stroke="url(#b)" stroke-width="1.5"/><path d="M11 11v26h26V11H11zm2 3h2l2 7 2-7h2l2 7 2-7h2l-3 11h-2l-2-7-2 7h-2l-3-11zm18 0c1.565 0 2.52.52 3.656 1.207l-1.111 1.52C32.58 16.065 31.903 16 31 16s-2 .441-2 .982v.188c0 .723.694 1.06 2.5 1.54 2.167.603 3.457 1.29 3.457 2.938v.059C34.957 23.569 33.287 25 31 25c-1.625-.06-3.043-.672-4.307-1.816L28 21.768c.963.782 1.796 1.232 3 1.232.963 0 2-.45 2-1.111v-.06c0-.603-.676-1.04-2.482-1.52-2.167-.542-3.565-1.78-3.565-3.174v-.06C26.953 15.087 28.834 14 31 14zM13 32h10v2H13v-2z" fill="url(#c)"/></svg>