<svg xmlns="http://www.w3.org/2000/svg" xmlns:xlink="http://www.w3.org/1999/xlink" viewBox="0 0 48 48"><defs><linearGradient id="a"><stop offset="0" stop-color="#8e0317"/><stop offset="1" stop-color="#ff0046"/></linearGradient><linearGradient xlink:href="#a" id="b" x1="10.5" y1="24" x2="37.496" y2="24" gradientUnits="userSpaceOnUse"/><linearGradient xlink:href="#a" id="c" x1="10.5" y1="24" x2="37.496" y2="24" gradientUnits="userSpaceOnUse"/></defs><path d="M24 2.182C11.95 2.182 2.182 11.95 2.182 24H24z" fill="none" stroke="#ff003a" stroke-width="1.423" stroke-linecap="round" stroke-linejoin="round"/><path d="M24 2.182V24h21.818C45.818 11.95 36.05 2.182 24 2.182z" fill="none" stroke="#6cff00" stroke-width="1.423" stroke-linecap="round" stroke-linejoin="round"/><path d="M24 24v21.818c12.05 0 21.818-9.768 21.818-21.818z" fill="none" stroke="#f8b500" stroke-width="1.423" stroke-linecap="round" stroke-linejoin="round"/><path d="M2.182 24c0 12.05 9.768 21.818 21.818 21.818V24z" fill="none" stroke="#006bff" stroke-width="1.423" stroke-linecap="round" stroke-linejoin="round"/><path d="M32.395 12c-1.037 0-2.394.639-2.394 2 0 1 1.63 1 3.36 1 1.454 0 1.942 3.133 1.575 4.797-.363 1.664-5.32 5.204-12.969 1.664-7.195-3.234-9.482-.165-10.967 1.154C11.688 29.041 17.257 36 24 36c7.188 0 12.994-7.95 12.996-15 .001-4-1.643-6.747-3.996-9h-.606zm-3.894 1a.5.5 0 0 0-.5.5.5.5 0 0 0 .5.5.5.5 0 0 0 .5-.5.5.5 0 0 0-.5-.5zm1.168 2.816a.723.723 0 0 0-.731.711c0 .395.329.715.73.715.4 0 .727-.32.727-.715a.722.722 0 0 0-.726-.71z" fill="url(#b)" stroke="url(#c)" stroke-linejoin="round" stroke-linecap="round"/></svg>