<svg width="64" height="64" viewBox="0 0 64 64" fill="none" xmlns="http://www.w3.org/2000/svg">
<path d="M31.5862 0.256138C34.1829 -0.264931 36.9992 -0.0361687 39.3322 1.36182C44.7812 4.61956 50.2302 7.87731 55.6752 11.1478C58.9869 13.1431 61.0922 17.1506 60.9963 21.1836C60.9724 24.7252 61.0323 28.2625 60.9724 31.7999C60.9644 33.1004 59.7979 34.2146 58.5795 34.1087C57.4209 34.0875 56.3743 32.9988 56.3903 31.7575C56.3224 27.9745 56.4182 24.1914 56.3503 20.4084C56.1226 18.269 54.8762 16.1932 53.0426 15.2146C47.8213 12.1136 42.616 8.98722 37.4107 5.86505C35.4532 4.6238 32.8606 4.58144 30.8751 5.77185C25.4901 8.96604 20.101 12.156 14.7039 15.3375C13.146 16.2441 12.1353 17.9979 11.7318 19.7983C11.4961 21.8021 11.7997 23.8356 11.576 25.8394C11.1685 27.9321 8.20432 28.3091 7.31346 26.4155C6.75818 24.8989 7.13369 23.2044 7.02184 21.6157C6.86204 18.3453 8.05651 15.0367 10.2776 12.7576C11.4441 11.5078 12.9582 10.7368 14.3844 9.88956C19.0863 7.10629 23.7922 4.32726 28.4902 1.53975C29.4609 0.963606 30.4916 0.480664 31.5862 0.256138Z" fill="url(#paint0_linear)"/>
<path d="M8.65965 35.1932C9.90205 34.7399 11.4041 35.6719 11.5959 37.0572C11.7197 38.2561 11.6278 39.4634 11.6438 40.6666C11.516 43.2253 12.8622 45.873 15.0195 47.0634C21.6749 51.16 28.3303 55.2607 34.9738 59.3827C36.1962 60.0351 36.5637 61.861 35.7528 63.0048C35.0457 64.0766 33.5556 64.3096 32.5529 63.5724C25.9853 59.5394 19.4378 55.4683 12.8662 51.4353C10.745 50.2322 9.0112 48.2877 8.01648 45.962C6.81003 43.399 7.00977 40.4675 7.03774 37.6927C6.96183 36.587 7.64496 35.494 8.65965 35.1932Z" fill="url(#paint1_linear)"/>
<path d="M20.3467 28.3063C22.3634 27.3896 24.9667 28.643 25.5067 30.7896C26.1134 32.7963 24.7534 35.083 22.7134 35.5196C21.1367 35.943 19.4467 35.1563 18.5667 33.8296C17.3167 31.9396 18.2334 29.113 20.3467 28.3063Z" fill="url(#paint2_linear)"/>
<path d="M30.7935 28.363C32.8735 27.313 35.6101 28.6563 36.1268 30.913C36.6001 32.863 35.3401 35.0196 33.3801 35.493C31.9401 35.9196 30.3935 35.3196 29.4168 34.233C27.8668 32.4096 28.5768 29.293 30.7935 28.363Z" fill="#1FBCFF"/>
<path d="M31.3467 28.3063C33.3634 27.3896 35.9667 28.643 36.5067 30.7896C37.1134 32.7963 35.7534 35.083 33.7134 35.5196C32.1367 35.943 30.4467 35.1563 29.5667 33.8296C28.3167 31.9396 29.2334 29.113 31.3467 28.3063Z" fill="url(#paint3_linear)"/>
<path d="M41.7935 28.363C43.8735 27.313 46.6101 28.6563 47.1268 30.913C47.6001 32.863 46.3401 35.0196 44.3801 35.493C42.9401 35.9196 41.3935 35.3196 40.4168 34.233C38.8668 32.4096 39.5768 29.293 41.7935 28.363Z" fill="url(#paint4_linear)"/>
<defs>
<linearGradient id="paint0_linear" x1="7.00791" y1="16.5524" x2="61.009" y2="16.5524" gradientUnits="userSpaceOnUse">
<stop stop-color="#FF4910"/>
<stop offset="1" stop-color="#FF7A00"/>
</linearGradient>
<linearGradient id="paint1_linear" x1="7.01276" y1="49.1102" x2="36.1903" y2="49.1102" gradientUnits="userSpaceOnUse">
<stop stop-color="#A93AFF"/>
<stop offset="1" stop-color="#FF81FF"/>
</linearGradient>
<linearGradient id="paint2_linear" x1="21.8261" y1="35.6346" x2="21.8261" y2="28.0026" gradientUnits="userSpaceOnUse">
<stop stop-color="#5570FF"/>
<stop offset="1" stop-color="#4DD3FF"/>
</linearGradient>
<linearGradient id="paint3_linear" x1="32.8261" y1="35.6346" x2="32.8261" y2="28.0026" gradientUnits="userSpaceOnUse">
<stop stop-color="#5570FF"/>
<stop offset="1" stop-color="#4DD3FF"/>
</linearGradient>
<linearGradient id="paint4_linear" x1="43.4064" y1="35.6312" x2="43.4064" y2="28" gradientUnits="userSpaceOnUse">
<stop stop-color="#5570FF"/>
<stop offset="1" stop-color="#4DD3FF"/>
</linearGradient>
</defs>
</svg>
