<svg width="128" height="128" viewBox="0 0 128 128" fill="none" xmlns="http://www.w3.org/2000/svg">
<path d="M6.11332 36.6333C6.07999 34.1933 8.17999 32 10.6333 31.9733C17.6 31.82 24.5667 31.98 31.54 31.8667C29.6333 34.66 27.6067 37.3733 25.8067 40.2333C22 40.24 18.2 40.2333 14.4 40.24C14.38 45.4267 14.4067 50.6133 14.4333 55.8067C11.44 58.62 9.41332 62.2133 6.87999 65.4067C6.87999 62.6067 6.64666 59.8133 6.14666 57.0533C5.99332 50.2533 6.07999 43.44 6.11332 36.6333Z" fill="#0585FF"/>
<path d="M31.54 31.8667C36.9066 31.8667 42.2733 31.8667 47.6466 31.8667C45.84 34.7267 43.7933 37.42 41.8533 40.1867C36.5 40.1733 31.1533 40.2067 25.8066 40.2333C27.6066 37.3733 29.6333 34.66 31.54 31.8667Z" fill="#0A8FFF"/>
<path d="M6.87999 65.4067C9.41332 62.2133 11.44 58.62 14.4333 55.8067C14.5067 63.24 14.2867 70.6867 14.54 78.1133C12.3067 80.6467 8.81332 83.4 9.71999 87.2067C7.67332 84.0933 6.00666 80.4933 6.09999 76.6933C6.14666 70.1467 6.06666 63.6 6.14666 57.0533C6.64666 59.8133 6.87999 62.6067 6.87999 65.4067Z" fill="#0A8FFF"/>
<path d="M47.6467 31.8667C52.0533 31.7867 56.4667 31.9067 60.88 31.8667C58.9867 34.6333 57.0867 37.3933 55.24 40.1867C50.7733 40.1933 46.3133 40.1867 41.8533 40.1867C43.7933 37.42 45.84 34.7267 47.6467 31.8667Z" fill="#0E99FF"/>
<path d="M60.88 31.8667C65.1 31.8267 69.52 31.7467 73.4533 33.5267L73.4267 33.9067C71.8133 36.06 70.2867 38.2867 69.06 40.6867C64.5067 39.7933 59.84 40.3333 55.24 40.1867C57.0867 37.3933 58.9867 34.6333 60.88 31.8667Z" fill="#13A2FF"/>
<path d="M112.787 33.46C114.927 31.9067 117.86 32.0267 119.987 33.5333C117.393 36.4133 114.46 39.3133 113.393 43.16C109.193 46.38 105.08 49.7267 100.793 52.84C99.36 53.96 97.54 53.3467 96.04 52.74C94.84 51.5533 94.1 49.7667 94.68 48.1C95.0733 46.6 96.4733 45.7667 97.6066 44.8733C102.7 41.1133 107.66 37.1733 112.787 33.46Z" fill="#23C4FF"/>
<path d="M73.4267 33.9067L73.9333 33.8C77.7867 35.2133 80.92 38.2333 83.0667 41.6867C81.06 44.1067 79.2 46.6533 77.1067 49.0067C76.3667 46.3133 74.8067 43.8133 72.42 42.2867C71.3667 41.6333 70.2333 41.0933 69.06 40.6867C70.2867 38.2867 71.8133 36.06 73.4267 33.9067Z" fill="#18ADFF"/>
<path d="M113.393 43.16C114.46 39.3133 117.393 36.4133 119.987 33.5333C120.48 34.2667 121.02 34.98 121.447 35.76C121.68 37.3867 121.753 39.0267 121.74 40.6667C121.693 56.88 121.787 73.0933 121.713 89.3067C121.853 91.8933 119.98 94.42 117.373 94.8C114.58 95.3067 112.227 93.4133 110.093 91.92C103.707 87.32 97.08 83.06 90.8333 78.28C90.3866 77.8 89.9533 77.3067 89.54 76.8067C91.8466 73.4067 94.0666 69.8867 97.1266 67.1C97.1 68.9133 97.02 70.72 96.92 72.5267C97.4066 72.8467 97.8666 73.1867 98.32 73.5533C103.353 77.0133 108.34 80.5467 113.367 84.0133C113.36 71.2533 113.393 58.4867 113.367 45.7267C113.367 44.8667 113.38 44.0133 113.393 43.16Z" fill="#2BD5FF"/>
<path opacity="0.18" d="M121.447 35.76C123.393 36.62 122.913 38.92 123.013 40.6333C122.953 57.54 123.067 74.4533 122.96 91.3533C122.88 96.0133 116.647 98.0067 113.18 95.46C106.527 91.0734 100.14 86.2933 93.5267 81.8333C92.3467 80.9067 90.5267 80.0933 90.8334 78.28C97.08 83.06 103.707 87.32 110.093 91.92C112.227 93.4134 114.58 95.3067 117.373 94.8C119.98 94.42 121.853 91.8934 121.713 89.3067C121.787 73.0934 121.693 56.88 121.74 40.6667C121.753 39.0267 121.68 37.3867 121.447 35.76Z" fill="black"/>
<path opacity="0.18" d="M96.56 63.2667C99.3867 65.86 98.0267 70.18 98.32 73.5533C97.8667 73.1867 97.4067 72.8467 96.92 72.5267C97.02 70.72 97.1 68.9133 97.1267 67.1C97.0533 65.8067 96.8533 64.5267 96.56 63.2667Z" fill="black"/>
<path opacity="0.25" d="M14.4 40.24C18.2 40.2333 22 40.24 25.8067 40.2333C31.1533 40.2067 36.5 40.1733 41.8533 40.1867C46.3133 40.1867 50.7733 40.1933 55.24 40.1867C59.84 40.3333 64.5067 39.7933 69.06 40.6867C70.2333 41.0933 71.3667 41.6333 72.42 42.2867C71.2267 42.9 69.9467 42.3267 68.74 42.0933C66.7667 41.5933 64.72 41.7267 62.7067 41.72C47.0267 41.7533 31.3467 41.6933 15.6667 41.7667C15.42 51.1733 15.6467 60.5933 15.5733 70.0067C15.4667 73.0267 16.02 76.1667 14.8733 79.06L14.54 78.1133C14.2867 70.6867 14.5067 63.24 14.4333 55.8067C14.4067 50.6133 14.38 45.4267 14.4 40.24Z" fill="black"/>
<path opacity="0.25" d="M100.793 52.84C105.08 49.7267 109.193 46.38 113.393 43.16C113.38 44.0133 113.367 44.8667 113.367 45.7267C109.087 48.3267 105.5 51.9 101.287 54.5933C99.1933 55.7667 96.8733 54.6 95.3133 53.1C95.4933 53.0067 95.8533 52.8267 96.04 52.74C97.54 53.3467 99.36 53.96 100.793 52.84Z" fill="black"/>
<path opacity="0.25" d="M78.02 67.1733C78.5466 67.62 79.0733 68.06 79.6133 68.4933C82.4333 69.38 85.48 68.2533 88.2533 69.1067C88.98 70.3933 88.4733 72.0133 88.6533 73.4333C88.46 72.4933 88.42 71.4933 87.9733 70.62C85.52 69.96 82.8933 70.7533 80.4133 70.1733C79.16 69.62 78.32 68.4933 78.02 67.1733Z" fill="black"/>
<path d="M77.1067 49.0067C79.2 46.6533 81.06 44.1067 83.0667 41.6867C86.5334 47.42 85.5734 54.2867 85.68 60.6533L85.4467 60.9267C83.2934 63.2867 81.4867 65.92 79.6134 68.4933C79.0734 68.06 78.5467 67.62 78.02 67.1733C77.62 66.42 77.36 65.5867 77.3467 64.7267C77.1867 59.4867 77.5667 54.2333 77.1067 49.0067Z" fill="#1DB9FF"/>
<path d="M79.6133 68.4933C81.4867 65.92 83.2933 63.2867 85.4467 60.9267C88.0667 61.04 90.6933 60.8867 93.32 61.04C94.76 61.0333 95.8667 62.1067 96.56 63.2667C96.8533 64.5267 97.0533 65.8067 97.1267 67.1C94.0667 69.8867 91.8467 73.4067 89.54 76.8067C89.1267 75.72 88.64 74.6133 88.6533 73.4333C88.4733 72.0133 88.98 70.3933 88.2533 69.1067C85.48 68.2533 82.4333 69.38 79.6133 68.4933Z" fill="#23C5FF"/>
<path d="M78.9 77.5867C81.1933 75.6 84.9667 77.12 85.6067 79.98C85.36 84.32 86.8267 89.44 83.7467 93.0733C82.3333 94.7267 80.1933 95.6333 78.02 95.3733C73.04 95.3 68.0667 95.4 63.0867 95.3933C64.8733 92.52 66.82 89.7533 68.8067 87.02C71.66 87.0267 74.5133 87.02 77.3667 87.02C77.6667 83.9267 76.24 79.9333 78.9 77.5867Z" fill="#24C7FF"/>
<path d="M9.72002 87.2067C8.81335 83.4 12.3067 80.6467 14.54 78.1133L14.8734 79.06C16.1334 83.18 19.9 86.0533 24.06 86.82C21.9667 88.9133 20.1467 91.2867 18.9867 94.0267C15.8067 92.8667 12.98 90.8933 10.68 88.42C10.44 88.12 9.96002 87.5067 9.72002 87.2067Z" fill="#0F9AFF"/>
<path opacity="0.24" d="M85.6067 79.98C86.9267 80.86 86.8667 82.5667 86.9067 83.9667C86.88 87.2 87.2933 90.7267 85.52 93.62C84.2333 95.3867 82.4067 97.2733 80.0133 96.9933C62.2133 96.9933 44.4133 97.1067 26.62 97.0133C21.1 97.22 15.7867 94.6 11.9133 90.7867C11.1933 90.1867 10.9467 89.2733 10.68 88.42C12.98 90.8933 15.8067 92.8667 18.9867 94.0267C23.1267 95.5267 27.5733 95.4733 31.92 95.44C36.78 95.4267 41.64 95.5467 46.5067 95.44C52.0333 95.46 57.56 95.3933 63.0867 95.3933C68.0667 95.4 73.04 95.3 78.02 95.3733C80.1933 95.6333 82.3333 94.7267 83.7467 93.0733C86.8267 89.44 85.36 84.32 85.6067 79.98Z" fill="black"/>
<path d="M24.06 86.82C28.58 87.3333 33.14 87.0067 37.68 87.1333C35.8734 89.98 33.8534 92.68 31.92 95.44C27.5734 95.4733 23.1267 95.5267 18.9867 94.0267C20.1467 91.2867 21.9667 88.9133 24.06 86.82Z" fill="#14A5FF"/>
<path d="M37.68 87.1333C42.5 87.2067 47.3266 87.0533 52.1466 87.1133C50.1933 89.84 48.26 92.58 46.5066 95.44C41.64 95.5467 36.78 95.4267 31.92 95.44C33.8533 92.68 35.8733 89.98 37.68 87.1333Z" fill="#19AFFF"/>
<path d="M52.1467 87.1133C57.7 87.04 63.2533 87.1067 68.8067 87.02C66.82 89.7533 64.8733 92.52 63.0867 95.3933C57.56 95.3933 52.0333 95.46 46.5067 95.44C48.26 92.58 50.1933 89.84 52.1467 87.1133Z" fill="#1EBBFF"/>
</svg>
