/* XPM */
static char * closeO_xpm[] = {
"23 34 11 1",
" 	c None",
".	c #424242",
"+	c #404040",
"@	c #3D3D3D",
"#	c #3A3A3A",
"$	c #FFFFFF",
"%	c #DF8F1E",
"&	c #FF9A0C",
"*	c #2C2C2C",
"=	c #762F2F",
"-	c #ED3C33",
".......................",
"+++++++++++++++++++++++",
"@@@@@@@@@@@@@@@@@@@@@@@",
"#######################",
"$$$$$$$$$$$$$$$$$$$$$$$",
"%%%%%%%%%%%%%%%%%%%%%%%",
"&&&&&&&&&&&&&&&&&&&&&&&",
"&&&&&&&&&&&&&&&&&&&&&&&",
"&&&&&&&&&&&&&&&&&&&&&&&",
"$$$$$$$$$$$$$$$$$$$$$$$",
"***********************",
"***********************",
"***********************",
"***********************",
"***********************",
"***********************",
"***********************",
".......................",
"+++++++++++++++++++++++",
"@@@@@@@@@@@@@@@@@@@@@@@",
"#######################",
"$$$$$$$$$$$$$$$$$$$$$$$",
"======================$",
"---------------------=$",
"---------------------=$",
"---------------------=$",
"$$$$$$$$$$$$$$$$$$$$$$$",
"***********************",
"***********************",
"***********************",
"***********************",
"***********************",
"***********************",
"***********************"};
