/* XPM */
static char * menusel_xpm[] = {
"31 27 67 1",
" 	c None",
".	c #66727D",
"+	c #C3E400",
"@	c #C4E500",
"#	c #C2E400",
"$	c #C2E300",
"%	c #C1E300",
"&	c #BFE100",
"*	c #BFE000",
"=	c #BEE000",
"-	c #BDDF00",
";	c #BBDD00",
">	c #BADD00",
",	c #BADC00",
"'	c #B9DC00",
")	c #B7DA00",
"!	c #B6D900",
"~	c #B5D800",
"{	c #B3D600",
"]	c #B2D600",
"^	c #B2D500",
"/	c #B1D500",
"(	c #AFD300",
"_	c #AED200",
":	c #ADD200",
"<	c #ADD100",
"[	c #ABCF00",
"}	c #AACF00",
"|	c #AACE00",
"1	c #A9CE00",
"2	c #A9CD00",
"3	c #A7CC00",
"4	c #A6CB00",
"5	c #A5CB00",
"6	c #A5CA00",
"7	c #A3C800",
"8	c #A2C800",
"9	c #A2C700",
"0	c #A1C700",
"a	c #9FC500",
"b	c #9EC500",
"c	c #9EC400",
"d	c #9DC400",
"e	c #9DC300",
"f	c #9CC300",
"g	c #9AC100",
"h	c #9AC000",
"i	c #99C000",
"j	c #98BF00",
"k	c #96BE00",
"l	c #96BD00",
"m	c #95BD00",
"n	c #95BC00",
"o	c #94BC00",
"p	c #92BA00",
"q	c #91B900",
"r	c #90B900",
"s	c #8EB700",
"t	c #8EB600",
"u	c #8DB600",
"v	c #8DB500",
"w	c #8CB500",
"x	c #8AB300",
"y	c #89B200",
"z	c #88B200",
"A	c #88B100",
"B	c #84AE00",
"...............................",
"+@++++++++##+##$$$$$$$$$$$$%%%%",
"&&&&&&&&***================----",
";;;;;;;;;;>>>>>,,,>,,,,,,''''''",
")))))))!!)!!!!!!!!!!!!!!~~~~~~~",
"{{{{{{]{]]]]]]]]^^^^^/^////////",
"((((((_______________::::<:<<<<",
"[[[}}}}}}}}}}}}}|||1||111111112",
"3333444444444444445555566666666",
"7788888888888899000000000000000",
"abbbbbcccccccccddddddddddeeeeef",
"ggggggggggghhhihhiiiiiiiiiiiiij",
"kkkllllllllllmmmmmmmnmnnnnnnnoo",
"ppppppppppppqqpqqqqqqqqqqqqqrrr",
"sssstttttttuuuuuuuuvuvvvvwvwwww",
"xxxxxxxxxyyyyyyyyyyyyyyyyzyzzAA",
"BBBBBBBBBBBBBBBBBBBBBBBBBBBBBBB",
"BBBBBBBBBBBBBBBBBBBBBBBBBBBBBBB",
"BBBBBBBBBBBBBBBBBBBBBBBBBBBBBBB",
"BBBBBBBBBBBBBBBBBBBBBBBBBBBBBBB",
"BBBBBBBBBBBBBBBBBBBBBBBBBBBBBBB",
"BBBBBBBBBBBBBBBBBBBBBBBBBBBBBBB",
"BBBBBBBBBBBBBBBBBBBBBBBBBBBBBBB",
"BBBBBBBBBBBBBBBBBBBBBBBBBBBBBBB",
"BBBBBBBBBBBBBBBBBBBBBBBBBBBBBBB",
"BBBBBBBBBBBBBBBBBBBBBBBBBBBBBBB",
"BBBBBBBBBBBBBBBBBBBBBBBBBBBBBBB"};
