/* XPM */
static char * restoreO_xpm[] = {
"22 34 11 1",
" 	c None",
".	c #424242",
"+	c #404040",
"@	c #3D3D3D",
"#	c #3A3A3A",
"$	c #FFFFFF",
"%	c #85BDE0",
"&	c #52ACE4",
"*	c #2C2C2C",
"=	c #3FABEF",
"-	c #20A9FF",
"......................",
"++++++++++++++++++++++",
"@@@@@@@@@@@@@@@@@@@@@@",
"######################",
"$$$$$$$$$$$$$$$$$$$$$$",
"%%%%%%%%%%%%%%%%%%%%%%",
"&&&&&&&&&&&&&&&&&&&&&&",
"&&&&&&&&&&&&&&&&&&&&&&",
"&&&&&&&&&&&&&&&&&&&&&&",
"$$$$$$$$$$$$$$$$$$$$$$",
"**********************",
"**********************",
"**********************",
"**********************",
"**********************",
"**********************",
"**********************",
"......................",
"++++++++++++++++++++++",
"@@@@@@@@@@@@@@@@@@@@@@",
"######################",
"$$$$$$$$$$$$$$$$$$$$$$",
"======================",
"----------------------",
"----------------------",
"----------------------",
"$$$$$$$$$$$$$$$$$$$$$$",
"**********************",
"**********************",
"**********************",
"**********************",
"**********************",
"**********************",
"**********************"};
