/* XPM */
static char * linux_start_xpm[] = {
"50 20 68 1",
" 	c None",
".	c #424447",
"+	c #404144",
"@	c #3F4144",
"#	c #3D3E41",
"$	c #3D3F41",
"%	c #55642A",
"&	c #73940F",
"*	c #6B8716",
"=	c #6B8816",
"-	c #3A3C3F",
";	c #3A3C3E",
">	c #5B6F22",
",	c #84AE00",
"'	c #799E08",
")	c #38393C",
"!	c #5A6E20",
"~	c #799D08",
"{	c #353739",
"]	c #353639",
"^	c #3E4531",
"/	c #4B5728",
"(	c #4B5828",
"_	c #3C4233",
":	c #586D1F",
"<	c #7CA205",
"[	c #3C4133",
"}	c #333436",
"|	c #576B1D",
"1	c #506022",
"2	c #303134",
"3	c #56691C",
"4	c #4E5E21",
"5	c #2D2F31",
"6	c #2D2E31",
"7	c #54681A",
"8	c #789D06",
"9	c #2F322F",
"0	c #2D2F30",
"a	c #789C06",
"b	c #2E3030",
"c	c #81AA01",
"d	c #4C5C1F",
"e	c #2B2C2E",
"f	c #536719",
"g	c #729409",
"h	c #445120",
"i	c #779C06",
"j	c #6F900A",
"k	c #4B5A1D",
"l	c #83AD00",
"m	c #28292B",
"n	c #516517",
"o	c #49581B",
"p	c #779B05",
"q	c #262729",
"r	c #3C471F",
"s	c #586F13",
"t	c #82AC00",
"u	c #47571A",
"v	c #506416",
"w	c #7EA502",
"x	c #566C13",
"y	c #374021",
"z	c #343B22",
"A	c #44531B",
"B	c #82AB00",
"C	c #7BA103",
"..................................................",
"+@@+@@@+@@@+@@@+@@@+@@@@+@@+@@@+@@@+@@@+@@@+@@@@+@",
"##$###$###$###$%&*$###$$##$###$###$#%&=###$###$$##",
"-----;---;---;->,'---;-------;---;-->,'--;---;----",
")))))))))))))))!,~))))))))))))))))))!,~)))))))))))",
"{{{{{]{{^/(((/_:,<((([^(((((_^(((/(_:,<((/_{{]{{{{",
"}}}}}}}}|,,,,,1|,,,,,1|,,,,,1|,,,,,1|,,,,,1}}}}}}}",
"222222223,,,,,43,,,,,43,,,,,43,,,,,43,,,,,42222222",
"555556557,899907,a9990b999c,d7,89c,d7,899905565555",
"eeeeeeeef,cggghf,iejghkgggl,kf,iec,kf,iejgheeeeeee",
"mmmmmmmmn,,,,,on,pmc,on,,,,,on,pmc,on,pmc,ommmmmmm",
"qqqqqqqqrssst,uv,pqc,uv,wst,uv,pqxsyv,pqc,uqqqqqqq",
"qqqqqqqqzAAAB,uv,CAB,uv,CAB,uv,pqqqqv,CAB,uqqqqqqq",
"qqqqqqqqv,,,,,uv,,,,,uv,,,,,uv,pqqqqv,,,,,uqqqqqqq",
"qqqqqqqqv,,,,,uv,,,,,uv,,,,,uv,pqqqqv,,,,,uqqqqqqq",
"qqqqqqqqqqqqqqqqqqqqqqqqqqqqqqqqqqqqqqqqqqqqqqqqqq",
"qqqqqqqqqqqqqqqqqqqqqqqqqqqqqqqqqqqqqqqqqqqqqqqqqq",
"qqqqqqqqqqqqqqqqqqqqqqqqqqqqqqqqqqqqqqqqqqqqqqqqqq",
"qqqqqqqqqqqqqqqqqqqqqqqqqqqqqqqqqqqqqqqqqqqqqqqqqq",
"qqqqqqqqqqqqqqqqqqqqqqqqqqqqqqqqqqqqqqqqqqqqqqqqqq"};
