/* XPM */
static char * linux_xpm[] = {
"50 21 146 2",
"  	c None",
". 	c #5C5B56",
"+ 	c #595853",
"@ 	c #757571",
"# 	c #676661",
"$ 	c #575652",
"% 	c #61605D",
"& 	c #B4B4B2",
"* 	c #868583",
"= 	c #666562",
"- 	c #565550",
"; 	c #5A5956",
"> 	c #656460",
", 	c #B0AFAD",
"' 	c #BDBCBB",
") 	c #D7D6D6",
"! 	c #CBCBCA",
"~ 	c #CFCFCE",
"{ 	c #949491",
"] 	c #605F5A",
"^ 	c #53524E",
"/ 	c #595854",
"( 	c #999996",
"_ 	c #7D7D7A",
": 	c #A4A3A2",
"< 	c #D8D8D8",
"[ 	c #E9E9E9",
"} 	c #E6E5E5",
"| 	c #D0D0CF",
"1 	c #767572",
"2 	c #BBBBBA",
"3 	c #878784",
"4 	c #52514C",
"5 	c #585752",
"6 	c #7B7A76",
"7 	c #82817D",
"8 	c #C4C4C3",
"9 	c #969592",
"0 	c #908F8C",
"a 	c #EAEAEA",
"b 	c #DCDCDB",
"c 	c #5F5E5A",
"d 	c #6E6D69",
"e 	c #E0E0E0",
"f 	c #A09F9D",
"g 	c #51504B",
"h 	c #565651",
"i 	c #898885",
"j 	c #BEBEBD",
"k 	c #DDDDDD",
"l 	c #BBBBB9",
"m 	c #82817E",
"n 	c #EBEBEB",
"o 	c #55544F",
"p 	c #8C8B88",
"q 	c #E8E8E8",
"r 	c #E5E5E5",
"s 	c #CACACA",
"t 	c #848380",
"u 	c #7C7B77",
"v 	c #CCCCCB",
"w 	c #E1E1E1",
"x 	c #B2B2B0",
"y 	c #DADAD9",
"z 	c #666561",
"A 	c #4E4D48",
"B 	c #9C9C9A",
"C 	c #AFAFAD",
"D 	c #878683",
"E 	c #D6D6D5",
"F 	c #ECECEC",
"G 	c #BAB9B8",
"H 	c #C7C7C6",
"I 	c #D7D7D6",
"J 	c #92928F",
"K 	c #4D4C47",
"L 	c #555551",
"M 	c #72726E",
"N 	c #4B4A46",
"O 	c #51504C",
"P 	c #939290",
"Q 	c #A5A4A2",
"R 	c #6F6E6B",
"S 	c #CDCDCC",
"T 	c #A3A2A0",
"U 	c #B8B8B7",
"V 	c #D1D0D0",
"W 	c #8E8D8B",
"X 	c #4A4945",
"Y 	c #737370",
"Z 	c #C2C2C1",
"` 	c #D8D8D7",
" .	c #E6E6E5",
"..	c #BBBAB9",
"+.	c #E0DFDF",
"@.	c #DCDCDC",
"#.	c #E7E6E6",
"$.	c #C1C1C0",
"%.	c #676663",
"&.	c #474642",
"*.	c #72716E",
"=.	c #ACACAA",
"-.	c #D4D3D3",
";.	c #B0B0AE",
">.	c #777673",
",.	c #898886",
"'.	c #E4E4E4",
").	c #E0E0DF",
"!.	c #706F6B",
"~.	c #696864",
"{.	c #706F6D",
"].	c #AEAEAC",
"^.	c #82827F",
"/.	c #72726F",
"(.	c #E7E7E7",
"_.	c #CCCCCC",
":.	c #62615D",
"<.	c #ADACAB",
"[.	c #908F8D",
"}.	c #494845",
"|.	c #464541",
"1.	c #838280",
"2.	c #656561",
"3.	c #82827E",
"4.	c #C1C1BF",
"5.	c #E2E2E2",
"6.	c #D9D9D9",
"7.	c #B3B3B1",
"8.	c #5B5B58",
"9.	c #ACABAA",
"0.	c #767573",
"a.	c #484744",
"b.	c #45443F",
"c.	c #494843",
"d.	c #4F4E49",
"e.	c #91918E",
"f.	c #B7B6B5",
"g.	c #7C7B78",
"h.	c #42413D",
"i.	c #8D8C8A",
"j.	c #686764",
"k.	c #504F4B",
"l.	c #454441",
"m.	c #41403B",
"n.	c #52514D",
"o.	c #3F3E3A",
". . . . . . . . . . . . . . . . . . . . . . . . . . . . . . . . . . . . . . . . . . . . . . . . . . ",
"+ + + + + + + + + + + + + + + + + + + + + + + + + + + + + + + + + + + + + + + + + + + + + + + + + + ",
"+ + + + + + + + + + + + + + + + + + + + + + + @ # + + + + + + + + + + + + + + + + + + + + + + + + + ",
"$ $ $ $ $ $ $ $ $ $ $ $ $ $ $ $ $ $ $ $ $ % % & * = $ $ $ $ $ $ $ $ $ $ $ $ $ $ $ $ $ $ $ $ $ $ $ $ ",
"- - - - - - - - - - - - - - - - - - - ; > , ' ) ! ~ { ] - - - - - - - - - - - - - - - - - - - - - - ",
"^ ^ ^ ^ ^ ^ ^ ^ ^ ^ ^ ^ ^ ^ ^ ^ ^ ^ / ( _ : < [ } | 1 2 3 ^ $ ^ ^ ^ ^ ^ ^ ^ ^ ^ ^ ^ ^ ^ ^ ^ ^ ^ ^ ^ ",
"4 4 4 4 4 4 4 4 4 4 4 4 4 4 4 4 5 6 7 8 9 - 0 a b c d e ' f 7 - 4 4 4 4 4 4 4 4 4 4 4 4 4 4 4 4 4 4 ",
"g g g g g g g g g g g g g g g g h i j k l / m n b o p q r s t g g g g g g g g g g g g g g g g g g g ",
"g g g g g g g g g g g g g g g g g u v e q w x n w y n n [ s z g g g g g g g g g g g g g g g g g g g ",
"A A A A A A A A A A A A A A A A 5 B C D E n n F n n a G H I J A A A A A A A A A A A A A A A A A A A ",
"K K K K K K K K K K K K K K K K K = g g L H n F F n / L g M L K K K K K K K K K K K K K K K K K K K ",
"N N N N N N N N N N N N N N N N O P Q R S n n F n n [ T U V W N N N N N N N N N N N N N N N N N N N ",
"X X X X X X X X X X X X X X X X X Y Z `  .w ..n +.@.a a #.$.%.X X X X X X X X X X X X X X X X X X X ",
"&.&.&.&.&.&.&.&.&.&.&.&.&.&.&.&.N *.=.-.;.O >.n -.N ,.'.).2 !.&.&.&.&.&.&.&.&.&.&.&.&.&.&.&.&.&.&.&.",
"&.&.&.&.&.&.&.&.&.&.&.&.&.&.&.&.N ~.{.].^.N /.(._.N :.I <.[./.}.&.&.&.&.&.&.&.&.&.&.&.&.&.&.&.&.&.&.",
"|.|.|.|.|.|.|.|.|.|.|.|.|.|.|.|.|.|.X 1.2.3.4.5.6.7.8.9.0.|.a.|.|.|.|.|.|.|.|.|.|.|.|.|.|.|.|.|.|.|.",
"b.b.b.b.b.b.b.b.b.b.b.b.b.b.b.b.b.b.b.c.d.e.Q j 7.f.g.K b.b.b.b.b.b.b.b.b.b.b.b.b.b.b.b.b.b.b.b.b.b.",
"h.h.h.h.h.h.h.h.h.h.h.h.h.h.h.h.h.h.h.h.h.X X i.j.k.l.h.h.h.h.h.h.h.h.h.h.h.h.h.h.h.h.h.h.h.h.h.h.h.",
"m.m.m.m.m.m.m.m.m.m.m.m.m.m.m.m.m.m.m.m.m.m.m.n.c.m.m.m.m.m.m.m.m.m.m.m.m.m.m.m.m.m.m.m.m.m.m.m.m.m.",
"o.o.o.o.o.o.o.o.o.o.o.o.o.o.o.o.o.o.o.o.o.o.o.o.o.o.o.o.o.o.o.o.o.o.o.o.o.o.o.o.o.o.o.o.o.o.o.o.o.o.",
"o.o.o.o.o.o.o.o.o.o.o.o.o.o.o.o.o.o.o.o.o.o.o.o.o.o.o.o.o.o.o.o.o.o.o.o.o.o.o.o.o.o.o.o.o.o.o.o.o.o."};
