/* XPM */
static char * windows_xpm[] = {
"20 20 117 2",
"  	c None",
". 	c #EAEEF2",
"+ 	c #DFE5EC",
"@ 	c #D9E1EA",
"# 	c #D4DDE7",
"$ 	c #D0D8E4",
"% 	c #CBD4E0",
"& 	c #C8D2DF",
"* 	c #CCD5E1",
"= 	c #D1D9E4",
"- 	c #D5DDE6",
"; 	c #C1CCD7",
"> 	c #B7C4CF",
", 	c #D0D8E1",
"' 	c #C7D1DA",
") 	c #B5C3CC",
"! 	c #C1CCD3",
"~ 	c #C8C9CB",
"{ 	c #C6C8CB",
"] 	c #C7C8CB",
"^ 	c #C6C8CC",
"/ 	c #C6C9CC",
"( 	c #C7CACD",
"_ 	c #C9CCCF",
": 	c #CCCED0",
"< 	c #C5C8CB",
"[ 	c #C4C8CB",
"} 	c #C7CACC",
"| 	c #C5C9CB",
"1 	c #C3CCD3",
"2 	c #FAFAFA",
"3 	c #FDFDFD",
"4 	c #FDFDFC",
"5 	c #FDFCFD",
"6 	c #FCFDFD",
"7 	c #FDFDFE",
"8 	c #FDFEFE",
"9 	c #F6F6F6",
"0 	c #C5CFD5",
"a 	c #FCFCFC",
"b 	c #FFFFFF",
"c 	c #F7F7F6",
"d 	c #FBFCFC",
"e 	c #FAFBFB",
"f 	c #F1F4F5",
"g 	c #F1F3F5",
"h 	c #F0F3F5",
"i 	c #F0F2F4",
"j 	c #F0F2F5",
"k 	c #E8EBED",
"l 	c #C8D1D7",
"m 	c #E1E7EA",
"n 	c #EBEFF3",
"o 	c #E0E5ED",
"p 	c #DAE2EB",
"q 	c #D6DDE8",
"r 	c #D1D9E5",
"s 	c #CCD5E2",
"t 	c #D4DDE6",
"u 	c #B6C3CD",
"v 	c #B5C2CE",
"w 	c #B2C0CA",
"x 	c #AEBDC7",
"y 	c #B9C5CE",
"z 	c #DEE4E7",
"A 	c #C8C9CA",
"B 	c #C8CACB",
"C 	c #CACBCC",
"D 	c #CACBCD",
"E 	c #CBCCCE",
"F 	c #CBCDCE",
"G 	c #CDCECF",
"H 	c #CECFD0",
"I 	c #CFD0D1",
"J 	c #D1D2D3",
"K 	c #D4D4D5",
"L 	c #D5D5D6",
"M 	c #D7D7D8",
"N 	c #C5CCD1",
"O 	c #FBFBFB",
"P 	c #F4F4F5",
"Q 	c #FEFEFE",
"R 	c #CBD2D7",
"S 	c #F2F3F3",
"T 	c #FDFCFC",
"U 	c #CBD2D6",
"V 	c #FBFBFC",
"W 	c #DEE3E6",
"X 	c #BCC6CE",
"Y 	c #E2E4E6",
"Z 	c #E1E4E7",
"` 	c #C9D0D6",
" .	c #F3F4F4",
"..	c #748590",
"+.	c #EFF0F2",
"@.	c #BFC8D0",
"#.	c #EFF0F1",
"$.	c #FEFFFE",
"%.	c #FFFEFF",
"&.	c #C2CAD2",
"*.	c #FFFFFE",
"=.	c #FEFFFF",
"-.	c #FEFEFF",
";.	c #FFFEFE",
">.	c #C5CDD3",
",.	c #F2F3F4",
"'.	c #C7CFD4",
").	c #D0D5D9",
"!.	c #CED4D9",
"~.	c #CCD2D8",
"{.	c #CBD1D7",
"].	c #C7CFD5",
"^.	c #CDD3D8",
"/.	c #D0D5DA",
"(.	c #D1D6DA",
"_.	c #D2D7DA",
":.	c #BFC8CE",
"                                        ",
"  . + @ # $ % & * = - ; > , ' ) !       ",
"  ~ { ] ] { ^ / ( _ : / < [ } | 1       ",
"  2 3 3 4 5 6 3 3 3 3 3 3 7 8 9 0       ",
"  a b b b b b b b b b b b b b c 0       ",
"  d b e f f g g h h i j h g i k l       ",
"  d b m n o p q r * & s = t ; u v w x y ",
"  a b z ] A B C D E F G H I J K L M M N ",
"  O b z P b b b b b b b b b b b b b Q R ",
"  O b z S b b b b b b b b b b b b b T U ",
"  O b z S b b b b b b b b b b b b b T R ",
"  V b W S b b b b b b b b b b b b b a X ",
"  Y Z `  .b b b b b b b b b b b b b a X ",
"      ..+.b b b b b b b b b b b b b a @.",
"        #.b b b b b b b b b b $.%.b a &.",
"        +.*.%.=.b -.=.*.b -.Q ;.8 3 O >.",
"        ,.b b b b b b b b -.b b Q Q a '.",
"        ).).!.~.{.` ].` {.^.!./.(._._.:.",
"                                        ",
"                                        "};
