/* XPM */
static char * expand_xpm[] = {
"10 20 7 1",
" 	c None",
".	c #3F3F3F",
"+	c #7C4C00",
"@	c #985D00",
"#	c #000000",
"$	c #555555",
"%	c #CFCFCF",
"..........",
"++++++++++",
"@@@@@@@@@@",
"##########",
"#$$$$$$$$#",
"#$......$#",
"#$....%.$#",
"#$...%..$#",
"#$..%...$#",
"#$.%....$#",
"#$.%....$#",
"#$..%...$#",
"#$...%..$#",
"#$....%.$#",
"#$......$#",
"#$$$$$$$$#",
"##########",
"@@@@@@@@@@",
"++++++++++",
".........."};
