/* XPM */
static char * taskbuttonactive_xpm[] = {
"1 25 5 1",
" 	c None",
".	c #3F3F3F",
"+	c #7C4C00",
"@	c #985D00",
"#	c #A46400",
".",
".",
".",
"+",
"@",
"#",
"#",
"#",
"#",
"#",
"#",
"#",
"#",
"#",
"#",
"#",
"#",
"#",
"#",
"@",
"+",
".",
".",
".",
"."};
