/* XPM */
static char * taskbuttonactive_xpm[] = {
"4 25 63 1",
" 	c None",
".	c #BE2223",
"+	c #BD2323",
"@	c #DE4E4E",
"#	c #DD4D4D",
"$	c #DC4C4C",
"%	c #DB4D4C",
"&	c #D22E2F",
"*	c #D02D2E",
"=	c #CF2C2D",
"-	c #CD2D2D",
";	c #D02C2B",
">	c #CE2B2C",
",	c #CD2A2B",
"'	c #CF2B2C",
")	c #CC292A",
"!	c #C92929",
"~	c #CE2A2B",
"{	c #CB2829",
"]	c #CA2728",
"^	c #C82828",
"/	c #C92627",
"(	c #C82526",
"_	c #C62626",
":	c #C52525",
"<	c #C42424",
"[	c #C32323",
"}	c #C22222",
"|	c #C12322",
"1	c #C12121",
"2	c #C02221",
"3	c #BF2120",
"4	c #BE2021",
"5	c #BE201F",
"6	c #BD1F20",
"7	c #BC1E1F",
"8	c #BA1E1F",
"9	c #B91D1E",
"0	c #B81C1D",
"a	c #B71B1C",
"b	c #B51B1B",
"c	c #B61A1B",
"d	c #B41A1A",
"e	c #B31919",
"f	c #B21A19",
"g	c #B11918",
"h	c #B01817",
"i	c #AD1716",
"j	c #AD1718",
"k	c #AE1615",
"l	c #AC1615",
"m	c #AA1616",
"n	c #AA1415",
"o	c #A91515",
"p	c #A71313",
"q	c #A61212",
"r	c #A41212",
"s	c #A21010",
"t	c #A31111",
"u	c #A11111",
"v	c #A01010",
"w	c #9F1110",
"x	c #9E100F",
"...+",
"@#$%",
"&*==",
"**--",
";>,,",
"',)!",
"~){!",
"){]^",
"]/(_",
"/(::",
":<[}",
"<<[|",
"}123",
"2344",
"5467",
"8890",
"00ab",
"cbde",
"defg",
"hhij",
"klmm",
"nopp",
"qprr",
"stuu",
"vvwx"};
