/* XPM */
static char * taskbarbg_xpm[] = {
"4 25 7 1",
" 	c None",
".	c #3E3E3E",
"+	c #3D3D3D",
"@	c #202020",
"#	c #1F1F1F",
"$	c #1E1E1E",
"%	c #1D1D1D",
".+..",
"@@@@",
"@@@@",
"@@@@",
"@@@@",
"@@@@",
"@@@@",
"@@@@",
"@@@@",
"@@@@",
"@@@@",
"@@@@",
"####",
"####",
"####",
"####",
"####",
"####",
"####",
"@###",
"####",
"####",
"###$",
"$###",
"$$%%"};
