/* XPM */
static char * windows_xpm[] = {
"20 20 107 2",
"  	c None",
". 	c #535353",
"+ 	c #5B5B5B",
"@ 	c #2C2C2C",
"# 	c #383838",
"$ 	c #595959",
"% 	c #1E1E1E",
"& 	c #7B7B7B",
"* 	c #8C8C8C",
"= 	c #4E4E4E",
"- 	c #0E0E0E",
"; 	c #636363",
"> 	c #858585",
", 	c #848484",
"' 	c #797979",
") 	c #565656",
"! 	c #3F3F3F",
"~ 	c #838383",
"{ 	c #777777",
"] 	c #6B6B6B",
"^ 	c #0F0F0F",
"/ 	c #303030",
"( 	c #818181",
"_ 	c #747474",
": 	c #6C6C6C",
"< 	c #606060",
"[ 	c #6D6D6D",
"} 	c #616161",
"| 	c #191919",
"1 	c #363636",
"2 	c #4C4C4C",
"3 	c #5F5F5F",
"4 	c #717171",
"5 	c #5A5A5A",
"6 	c #515151",
"7 	c #3E3E3E",
"8 	c #353535",
"9 	c #545454",
"0 	c #787878",
"a 	c #6A6A6A",
"b 	c #6E6E6E",
"c 	c #040404",
"d 	c #4D4D4D",
"e 	c #878787",
"f 	c #686868",
"g 	c #5C5C5C",
"h 	c #434343",
"i 	c #3B3B3B",
"j 	c #323232",
"k 	c #313131",
"l 	c #333333",
"m 	c #3D3D3D",
"n 	c #676767",
"o 	c #8B8B8B",
"p 	c #2B2B2B",
"q 	c #707070",
"r 	c #3C3C3C",
"s 	c #343434",
"t 	c #373737",
"u 	c #2D2D2D",
"v 	c #292929",
"w 	c #2E2E2E",
"x 	c #444444",
"y 	c #939393",
"z 	c #4A4A4A",
"A 	c #2F2F2F",
"B 	c #222222",
"C 	c #242424",
"D 	c #252525",
"E 	c #262626",
"F 	c #272727",
"G 	c #505050",
"H 	c #767676",
"I 	c #5D5D5D",
"J 	c #121212",
"K 	c #090909",
"L 	c #454545",
"M 	c #393939",
"N 	c #131313",
"O 	c #1C1C1C",
"P 	c #1D1D1D",
"Q 	c #202020",
"R 	c #212121",
"S 	c #494949",
"T 	c #626262",
"U 	c #141414",
"V 	c #0C0C0C",
"W 	c #0A0A0A",
"X 	c #000000",
"Y 	c #030303",
"Z 	c #101010",
"` 	c #181818",
" .	c #282828",
"..	c #1A1A1A",
"+.	c #060606",
"@.	c #0D0D0D",
"#.	c #151515",
"$.	c #1B1B1B",
"%.	c #050505",
"&.	c #010101",
"*.	c #020202",
"=.	c #080808",
"-.	c #0B0B0B",
";.	c #111111",
">.	c #070707",
",.	c #171717",
"'.	c #161616",
"                  . +                   ",
"                  @ # $                 ",
"                % & * =                 ",
"              - ; > , ' )               ",
"              ! ~ { ' > ]               ",
"          ^ / ( _ : ] < [ }             ",
"  | 1 2 3 ' * 4 5 6 7 8 9 0 a 0 b +     ",
"c d e 4 f g 2 h i j k l j m n > o * } p ",
"  / q r s 1 t u v p @ u w x + } a y z   ",
"    ! 5 A p B B C D E F t G ) $ H I J   ",
"    K L M N | O P Q R p m S 2 T } U     ",
"      V m W X Y W Z `  .A m 2 g U       ",
"        B ..X X X X X +.@.#.7 F         ",
"        $.Z X X X X X X X X ` $.        ",
"        #.%.X X X X X X X X V |         ",
"      5 K X X X &.&.*.X X X *.-         ",
"      1 N =.-.^ - %.W ;.- >.%.@.        ",
"      c ,.,.N N       ,.` #.'.;.        ",
"        %.>.                >.Y         ",
"                                        "};
