/* XPM */
static char * linux_xpm[] = {
"72 21 90 1",
" 	c None",
".	c #9ADC94",
"+	c #38BC2B",
"@	c #97DB91",
"#	c #FFFFFF",
"$	c #E2F4E1",
"%	c #93DA8C",
"&	c #F5FBF4",
"*	c #DAF2D7",
"=	c #A1DF9B",
"-	c #C3EABF",
";	c #86D57E",
">	c #E1F4DF",
",	c #F7FBF7",
"'	c #DCF2DA",
")	c #75D06C",
"!	c #49C13E",
"~	c #B1E4AC",
"{	c #EAF7E9",
"]	c #DEF3DC",
"^	c #9CDD96",
"/	c #41BE34",
"(	c #3ABC2D",
"_	c #92D98B",
":	c #DBF2D9",
"<	c #F8FCF8",
"[	c #F2FAF1",
"}	c #C6EBC2",
"|	c #66CB5C",
"1	c #F0F9EF",
"2	c #FBFDFB",
"3	c #F9FCF9",
"4	c #54C549",
"5	c #3EBD32",
"6	c #C8ECC4",
"7	c #38BB2B",
"8	c #C1E9BD",
"9	c #76D06D",
"0	c #7DD275",
"a	c #5EC853",
"b	c #8AD783",
"c	c #85D57D",
"d	c #6CCD62",
"e	c #7ED375",
"f	c #6FCE66",
"g	c #77D06E",
"h	c #8BD783",
"i	c #3BBC2F",
"j	c #47C03B",
"k	c #C5EBC1",
"l	c #E9F7E8",
"m	c #E5F5E3",
"n	c #E7F6E6",
"o	c #9BDD94",
"p	c #B2E4AD",
"q	c #CAECC7",
"r	c #71CE68",
"s	c #51C446",
"t	c #B4E5AF",
"u	c #DDF3DB",
"v	c #5AC750",
"w	c #62C957",
"x	c #D9F1D7",
"y	c #BCE8B8",
"z	c #B9E7B5",
"A	c #43BF37",
"B	c #73CF6A",
"C	c #ACE2A7",
"D	c #D3EFD0",
"E	c #79D171",
"F	c #7BD273",
"G	c #52C447",
"H	c #B5E5B0",
"I	c #5BC751",
"J	c #78D16F",
"K	c #7AD171",
"L	c #82D47A",
"M	c #7BD272",
"N	c #8CD784",
"O	c #D4F0D1",
"P	c #AFE3AA",
"Q	c #ADE3A7",
"R	c #ECF8EA",
"S	c #DBF2D8",
"T	c #39BC2C",
"U	c #3BBC2E",
"V	c #94DA8D",
"W	c #F3FAF2",
"X	c #C7EBC4",
"Y	c #67CB5D",
"........................................................................",
".++++++++++++++++++++++++++++++++++++++++++++++++++++++++++++++++++++++.",
".++++++++++++++++++++++++++++++++++++++++++++++++++++++++++++++++++++++.",
".++++++++++++++++++++++++++++++++++++++++++++++++++++++++++++++++++++++.",
".++++++++++++++++++++++++++++++++++++++++++++++++++++++++++++++++++++++.",
".+++++++++++++++++@#$+++++++++@#$+++++++++@#$++++++++++++++++++++++++++.",
".+++++++++++++++++%&*+++++++++%&*+++++++++%&*++++++++++++++++++++++++++.",
".++++++++++++++++++++++++++++++++++++++++++++++++++++++++++++++++++++++.",
".+++++++++++++++++@#$=#-;>,')+@#$+!~{,]^/+@#$+(_:<[}|++++++++++++++++++.",
".+++++++++++++++++@#$=#1#2##34@#$5>##2##67@#$78##2##29+++++++++++++++++.",
".+++++++++++++++++@#$=##07a2#b@#$c#2d7e##f@#$g##hijk#l(++++++++++++++++.",
".+++++++++++++++++@#$=#m+++n#o@#$p#q+++r)s@#$t#u+++v##w++++++++++++++++.",
".+++++++++++++++++@#$=#x+++$#o@#$y#z++++++@#$}#}+++A##B++++++++++++++++.",
".+++++++++++++++++@#$=#x+++$#o@#$C#D+++EFG@#$H#]+++I##w++++++++++++++++.",
".+++++++++++++++++@#$=#x+++$#o@#$J##K7L##w@#$M##Nij}#l(++++++++++++++++.",
".+++++++++++++++++@#$=#x+++$#o@#$(O##2##P+@#$7}##2##29+++++++++++++++++.",
".+++++++++++++++++@#$=#x+++$#o@#$+AQR,SbT+@#$+UVu3WXY++++++++++++++++++.",
".++++++++++++++++++++++++++++++++++++++++++++++++++++++++++++++++++++++.",
".++++++++++++++++++++++++++++++++++++++++++++++++++++++++++++++++++++++.",
".++++++++++++++++++++++++++++++++++++++++++++++++++++++++++++++++++++++.",
"........................................................................"};
