/* XPM */
static char * taskbarbg_xpm[] = {
"1 27 3 1",
" 	c None",
".	c #255BC5",
"+	c #2965DD",
".",
"+",
"+",
"+",
"+",
"+",
"+",
"+",
"+",
"+",
"+",
"+",
"+",
"+",
"+",
"+",
"+",
"+",
"+",
"+",
"+",
"+",
"+",
"+",
"+",
"+",
"."};
