/* XPM */
static char * taskbuttonminimized_xpm[] = {
"1 24 3 1",
" 	c None",
".	c #255BC7",
"+	c #37A8F8",
".",
"+",
"+",
"+",
"+",
"+",
"+",
"+",
"+",
"+",
"+",
"+",
"+",
"+",
"+",
"+",
"+",
"+",
"+",
"+",
"+",
"+",
"+",
"."};
