/* XPM */
static char * taskbuttonactive_xpm[] = {
"1 21 4 1",
" 	c None",
".	c #5393EB",
"+	c #1B50BA",
"@	c #1B48AF",
".",
"+",
"+",
"+",
"+",
"+",
"+",
"+",
"+",
"+",
"+",
"+",
"+",
"+",
"+",
"+",
"+",
"+",
"+",
"+",
"@"};
