/* XPM */
static char * desktop_xpm[] = {
"20 20 99 2",
"  	c None",
". 	c #8E908B",
"+ 	c #8B8C88",
"@ 	c #8B8D88",
"# 	c #8A8C87",
"$ 	c #898B86",
"% 	c #8D908A",
"& 	c #898B87",
"* 	c #E9E9E7",
"= 	c #EAEAE8",
"- 	c #EAEAE7",
"; 	c #E8E9E6",
"> 	c #E8E8E5",
", 	c #E7E8E5",
"' 	c #E7E8E4",
") 	c #E6E7E4",
"! 	c #E6E7E3",
"~ 	c #E5E6E3",
"{ 	c #E5E6E2",
"] 	c #E4E6E2",
"^ 	c #E4E5E1",
"/ 	c #E3E5E0",
"( 	c #E1E2DE",
"_ 	c #ECECEA",
": 	c #1091C7",
"< 	c #019FE0",
"[ 	c #01B5EA",
"} 	c #01D2F6",
"| 	c #E1E3DE",
"1 	c #EBEBE8",
"2 	c #F1F1F1",
"3 	c #97A9C4",
"4 	c #01D2F7",
"5 	c #01CCF4",
"6 	c #DFE2DC",
"7 	c #EBEBEB",
"8 	c #01A2E1",
"9 	c #01C8F2",
"0 	c #01C7F2",
"a 	c #DEE1DB",
"b 	c #E9E9E6",
"c 	c #E4E4E4",
"d 	c #01A7E4",
"e 	c #01CEF5",
"f 	c #01D3F7",
"g 	c #01C6F1",
"h 	c #01C0EF",
"i 	c #DDE0DA",
"j 	c #E8E9E5",
"k 	c #DEDEDE",
"l 	c #01D6F9",
"m 	c #01BAEC",
"n 	c #DCDFD9",
"o 	c #01A0E0",
"p 	c #01C3F0",
"q 	c #01D8F9",
"r 	c #01BBEC",
"s 	c #01B4E9",
"t 	c #DBDED8",
"u 	c #E5E7E3",
"v 	c #95ADCB",
"w 	c #01A5E2",
"x 	c #01D8FA",
"y 	c #01AEE7",
"z 	c #DADDD7",
"A 	c #01AFE7",
"B 	c #01D6F8",
"C 	c #01A8E4",
"D 	c #D9DCD6",
"E 	c #E3E5E1",
"F 	c #E5E5E5",
"G 	c #01C2F0",
"H 	c #01DAFA",
"I 	c #D8DBD5",
"J 	c #E2E4E0",
"K 	c #F7F7F7",
"L 	c #02DBFB",
"M 	c #01A3E1",
"N 	c #D7DBD4",
"O 	c #E0E2DD",
"P 	c #D5D9D1",
"Q 	c #DDDFDA",
"R 	c #DFE1DC",
"S 	c #DEE0DB",
"T 	c #DEE0DA",
"U 	c #DBDDD7",
"V 	c #DADCD6",
"W 	c #D9DCD5",
"X 	c #D8DBD4",
"Y 	c #D6D9D3",
"Z 	c #D6D9D2",
"` 	c #D5D8D2",
" .	c #D4D7D0",
"..	c #D3D7CF",
"+.	c #D3D6CF",
"@.	c #D0D4CC",
"#.	c #878A84",
"$.	c #888A85",
"%.	c #878884",
"                                        ",
"                                        ",
"                                        ",
". + + @ @ @ @ # # # # # # # # # $ $ $ % ",
"& * = - = * ; > ; , ' ) ! ~ { ] ^ / ( $ ",
"$ _ : < < < < < < < < < < < < [ } : | $ ",
"$ 1 : < 2 3 < < < < < < < < < 4 5 : 6 $ ",
"$ - : < 7 7 < < < < < < < 8 9 5 0 : a $ ",
"$ b : < c c < < < < < < d e f g h : i $ ",
"$ j : < k k < < < < < [ l 4 5 h m : n $ ",
"$ ' : < < < < < < o p q 4 5 g r s : t $ ",
"$ u : < 2 v < < w 5 x 4 5 g h s y : z $ ",
"$ ] : < 7 7 < A B x f 5 0 h m y C : D $ ",
"$ E : < c F G H q f 5 g h r s C 8 : I $ ",
"$ J : < k K L q 4 5 g h m s y M < : N $ ",
"$ O : : : : : : : : : : : : : : : : P $ ",
"$ Q R S T t U z V W I X Y Z `  ...+.@.$ ",
"#.$ $.$.$ $ $ $ $ $ $ $ $ $.$.$.$.$ $ %.",
"                                        ",
"                                        "};
