/* XPM */
static char * linux_xpm[] = {
"60 20 295 2",
"  	c None",
". 	c #4A4A4A",
"+ 	c #494949",
"@ 	c #484848",
"# 	c #474747",
"$ 	c #405B65",
"% 	c #2A97BA",
"& 	c #2699BD",
"* 	c #2A92B6",
"= 	c #3A697B",
"- 	c #454545",
"; 	c #464646",
"> 	c #444444",
", 	c #3F525A",
"' 	c #3E535D",
") 	c #12B8E2",
"! 	c #01D3F7",
"~ 	c #15B4DC",
"{ 	c #35687B",
"] 	c #434343",
"^ 	c #424242",
"/ 	c #3A5865",
"( 	c #268EB2",
"_ 	c #3C4F58",
": 	c #3F3F3F",
"< 	c #2B7C9A",
"[ 	c #00CBF4",
"} 	c #01CEF5",
"| 	c #10B2DC",
"1 	c #2E6E88",
"2 	c #3D4143",
"3 	c #414141",
"4 	c #404040",
"5 	c #345C6D",
"6 	c #2488AB",
"7 	c #2A7A99",
"8 	c #394144",
"9 	c #1F8DB4",
"0 	c #01C9F3",
"a 	c #04C0EC",
"b 	c #1B96BE",
"c 	c #2B6E87",
"d 	c #374E58",
"e 	c #3D3F3F",
"f 	c #3E3E3E",
"g 	c #3E3E3D",
"h 	c #3D3D3C",
"i 	c #3D3D3D",
"j 	c #35515B",
"k 	c #0FADDA",
"l 	c #1A97C0",
"m 	c #35474E",
"n 	c #35474D",
"o 	c #1C8DB4",
"p 	c #00C2EF",
"q 	c #01C5F1",
"r 	c #01C4F1",
"s 	c #01C1EE",
"t 	c #0CB1DE",
"u 	c #1E89AE",
"v 	c #2F5C6D",
"w 	c #3C3C3B",
"x 	c #3C3C3C",
"y 	c #3B3B3B",
"z 	c #305260",
"A 	c #305565",
"B 	c #363A3D",
"C 	c #393939",
"D 	c #31505B",
"E 	c #1E80A4",
"F 	c #139CC7",
"G 	c #227797",
"H 	c #344349",
"I 	c #256B86",
"J 	c #217999",
"K 	c #256F8B",
"L 	c #27647B",
"M 	c #266982",
"N 	c #217898",
"O 	c #1791B9",
"P 	c #08AFDF",
"Q 	c #07B0E1",
"R 	c #227897",
"S 	c #383A3A",
"T 	c #3A3A3A",
"U 	c #383838",
"V 	c #1C82A7",
"W 	c #04B1E2",
"X 	c #1688B2",
"Y 	c #2C5669",
"Z 	c #158EB8",
"` 	c #01BBEC",
" .	c #0D9FCE",
"..	c #344248",
"+.	c #363737",
"@.	c #324147",
"#.	c #2D4F5D",
"$.	c #2A596B",
"%.	c #2A5668",
"&.	c #265F76",
"*.	c #1884AA",
"=.	c #00BAEB",
"-.	c #1F799A",
";.	c #373738",
">.	c #FFFFFF",
",.	c #01A0E1",
"'.	c #363636",
").	c #167DA3",
"!.	c #00B5EA",
"~.	c #079ED0",
"{.	c #20647F",
"].	c #353535",
"^.	c #21657F",
"/.	c #0F92C0",
"(.	c #1F6C89",
"_.	c #343435",
":.	c #304149",
"<.	c #22637C",
"[.	c #1781A8",
"}.	c #0C9AC8",
"|.	c #0F95C2",
"1.	c #138BB6",
"2.	c #1488B2",
"3.	c #0F93C1",
"4.	c #0C98C7",
"5.	c #1B7597",
"6.	c #1480A8",
"7.	c #01AEE3",
"8.	c #235E76",
"9.	c #373737",
"0.	c #16799F",
"a.	c #00AEE8",
"b.	c #02A6DD",
"c.	c #1D6984",
"d.	c #333333",
"e.	c #2F393D",
"f.	c #2D3D44",
"g.	c #1E6681",
"h.	c #0C90C0",
"i.	c #00ABE3",
"j.	c #0997C8",
"k.	c #1F6681",
"l.	c #2D3F46",
"m.	c #323537",
"n.	c #2F3C41",
"o.	c #215F76",
"p.	c #0C92C1",
"q.	c #0E8AB7",
"r.	c #0898CA",
"s.	c #0F88B3",
"t.	c #343434",
"u.	c #F3F3F3",
"v.	c #0098D6",
"w.	c #14769C",
"x.	c #00A9E5",
"y.	c #01A0DB",
"z.	c #167295",
"A.	c #186B8D",
"B.	c #0A8CBC",
"C.	c #00A6E1",
"D.	c #098EBE",
"E.	c #234F61",
"F.	c #284855",
"G.	c #1E617E",
"H.	c #187092",
"I.	c #1C6785",
"J.	c #274C5B",
"K.	c #254F60",
"L.	c #0892C4",
"M.	c #029FD8",
"N.	c #039DD6",
"O.	c #323232",
"P.	c #DBDBDB",
"Q.	c #0089C1",
"R.	c #1B607D",
"S.	c #009DDA",
"T.	c #00A3E1",
"U.	c #00A3E2",
"V.	c #00A1E0",
"W.	c #009CD8",
"X.	c #166686",
"Y.	c #16698B",
"Z.	c #0591C9",
"`.	c #0E81AD",
" +	c #1177A1",
".+	c #0B85B5",
"++	c #0592CB",
"@+	c #1C607B",
"#+	c #1A5F7C",
"$+	c #00A1DF",
"%+	c #009EDD",
"&+	c #313131",
"*+	c #C3C3C3",
"=+	c #007AAC",
"-+	c #303335",
";+	c #1B5B75",
">+	c #048DC6",
",+	c #009DDF",
"'+	c #0097D6",
")+	c #0787BC",
"!+	c #0099D8",
"~+	c #16617F",
"{+	c #14678A",
"]+	c #0688BE",
"^+	c #048CC7",
"/+	c #0099DA",
"(+	c #0689C2",
"_+	c #29404A",
":+	c #27434F",
"<+	c #0392CE",
"[+	c #009BDD",
"}+	c #1C556E",
"|+	c #028ECC",
"1+	c #0098DD",
"2+	c #106C92",
"3+	c #1C5268",
"4+	c #0092D5",
"5+	c #0095D9",
"6+	c #1F4F63",
"7+	c #2B3A41",
"8+	c #0686BF",
"9+	c #185E7B",
"0+	c #0093D7",
"a+	c #0097DD",
"b+	c #0091D4",
"c+	c #1D5166",
"d+	c #175E7D",
"e+	c #0094D8",
"f+	c #1D5368",
"g+	c #254350",
"h+	c #028CCC",
"i+	c #0191D2",
"j+	c #313334",
"k+	c #146386",
"l+	c #0094DA",
"m+	c #0096DC",
"n+	c #0485C2",
"o+	c #0092D7",
"p+	c #0090D3",
"q+	c #1D5065",
"r+	c #1D5167",
"s+	c #018FD1",
"t+	c #018ED0",
"u+	c #214858",
"v+	c #175C79",
"w+	c #0094D9",
"x+	c #087BAF",
"y+	c #2F3436",
"z+	c #156283",
"A+	c #008ED2",
"B+	c #0094DC",
"C+	c #1B5369",
"D+	c #0F6B94",
"E+	c #106993",
"F+	c #2E3133",
"G+	c #1C536B",
"H+	c #0A74A3",
"I+	c #0092D9",
"J+	c #087AAF",
"K+	c #1C4F65",
"L+	c #067EB6",
"M+	c #0092D8",
"N+	c #185B77",
"O+	c #323233",
"P+	c #1A566E",
"Q+	c #0B75A5",
"R+	c #303334",
"S+	c #234857",
"T+	c #067FB6",
"U+	c #0091D9",
"V+	c #136183",
"W+	c #24424D",
"X+	c #0F678E",
"Y+	c #0093DB",
"Z+	c #028ACA",
"`+	c #0482BC",
" @	c #0D709E",
".@	c #2C393F",
"+@	c #2F383C",
"@@	c #313335",
"#@	c #1D5168",
"$@	c #067EB7",
"%@	c #0090D8",
"&@	c #0385C3",
"*@	c #0092DA",
"=@	c #0976A9",
"-@	c #244856",
";@	c #21495B",
">@	c #0D6995",
",@	c #0187CA",
"'@	c #008ED6",
")@	c #008ED7",
"!@	c #018ACD",
"~@	c #0C6B96",
"{@	c #234655",
". . . . . . . . . . . . . + @ @ @ @ @ + + . . . . . . . . . . . . . . . . . . . . . . . . . . . . . . . . . . . . . . . ",
"# # # # # # # # # # # # # $ % & & & * = - ; # # # # # # # # # # # # # # # # # # # # # # # # # # # # # # # # # # # # # # ",
"- - - > - - - > - - > , > ' ) ! ! ! ! ~ { ] > > - - - > - - - > - - - > - - - > - - - > - - - > - - - > - - - > - - - > ",
"^ ^ ^ ^ ^ ^ ^ ^ ^ ^ / ( _ : < [ } } } } | 1 2 3 3 ^ ^ ^ ^ ^ ^ ^ ^ ^ ^ ^ ^ ^ ^ ^ ^ ^ ^ ^ ^ ^ ^ ^ ^ ^ ^ ^ ^ ^ ^ ^ ^ ^ ^ ^ ",
"4 4 4 4 4 4 4 4 4 4 : 5 6 7 8 9 0 0 0 0 0 a b c d e : : 4 4 4 4 4 4 4 4 4 4 4 4 4 4 4 4 4 4 4 4 4 4 4 4 4 4 4 4 4 4 4 4 ",
"f f f g f f f h i f i j k l m n o p q r p p p s t u v w i f f g f f f g f f f g f f f g f f f g f f f g f f f g f f f g ",
"x y x y x y y z A B y C D E F G H I J J K L M N O P Q R S T x y x y x y x y x y x y x y x y x y x y x y x y x y x y x y ",
"T T T T T T U V W X Y U B Z `  ...C U +.@.#.$.$.%.&.*.=.-.;.C T T T T T T T T T T T >.>.T T T ,.,.T T T >.>.T T T T T T ",
"U U U U U U '.).!.!.~.{.].^./.(._.:.<.[.}.|.1.2.3.4.5.6.7.8.9.U U U U U U U U U U U U >.>.U U U ,.,.U U U >.>.U U U U U ",
"9.9.9.9.9.9.].0.a.a.a.b.c.d.e.f.g.h.i.j.k.l.m.m.n.o.p.q.r.s.t.9.9.9.9.9.9.9.9.9.9.9.9.9.u.u.9.9.9.v.v.9.9.9.u.u.9.9.9.9.",
"'.'.'.'.'.'.t.w.x.x.x.x.y.z.A.B.C.x.D.E.F.G.H.I.J.d.K.L.M.N.O.'.'.'.'.'.'.'.'.'.'.'.'.P.P.'.'.'.Q.Q.'.'.'.P.P.'.'.'.'.'.",
"].].].].].].t.R.S.T.T.U.T.V.V.T.T.W.X.Y.Z.`. +.+++@+O.#+$+%+&+].].].].].].].].].].].*+*+].].].=+=+].].].*+*+].].].].].].",
"].].].].].].t.-+;+>+,+,+,+,+,+,+,+'+)+!+~+{+]+^+/+(+_+:+<+[+&+].].].].].].].].].].].].].].].].].].].].].].].].].].].].].",
"].].].].].].].t.d.}+|+1+1+1+1+1+1+1+1+2+3+4+1+1+1+5+6+7+8+5+&+].].].].].].].].].].].].].].].].].].].].].].].].].].].].].",
"].].].].].].].].t.d.9+0+a+a+a+a+a+a+b+c+d+a+a+a+a+e+f+g+h+i+&+].].].].].].].].].].].].].].].].].].].].].].].].].].].].].",
"].].].].].].].].].t.j+k+l+m+m+m+n+o+p+q+r+s+m+m+m+t+u+v+w+x+O.].].].].].].].].].].].].].].].].].].].].].].].].].].].].].",
"].].].].].].].].].].t.y+z+A+B+s+C+D+B+E+F+G+H+I+B+J+K+L+M+N+d.].].].].].].].].].].].].].].].].].].].].].].].].].].].].].",
"].].].].].].].].].].].t.O+P+Q+k+R+S+T+U+V+W+X+Y+Y+Z+`+Y+ @.@t.].].].].].].].].].].].].].].].].].].].].].].].].].].].].].",
"].].].].].].].].].].].].t.t.+@@@t.d.#@$@%@&@*@*@*@*@*@=@-@t.].].].].].].].].].].].].].].].].].].].].].].].].].].].].].].",
"].].].].].].].].].].].].].].].].].t.d.;@>@,@'@)@)@!@~@{@t.t.].].].].].].].].].].].].].].].].].].].].].].].].].].].].].]."};
