/* XPM */
static char * windows_xpm[] = {
"20 20 20 1",
" 	c None",
".	c #0F92C8",
"+	c #02A0E0",
"@	c #0197D4",
"#	c #0196D4",
"$	c #018BC3",
"%	c #0F91C7",
"&	c #FFFFFF",
"*	c #E5E5E3",
"=	c #888A85",
"-	c #E3E4E0",
";	c #0194CF",
">	c #0193CF",
",	c #DFE0DD",
"'	c #0188BE",
")	c #0187BE",
"!	c #E0E1DE",
"~	c #DFDFDC",
"{	c #80827D",
"]	c #868783",
"                    ",
"     .............. ",
"     +++++++++++++. ",
"     @###########@. ",
"     $$$$$$$$$$$$$% ",
"     &***********&= ",
" ..............--&= ",
" .+++++++++++++--&= ",
" .;>>>>>>>>>>>;,,&= ",
" .')))))))))))',,&= ",
" =&***********&!!&= ",
" =&***********&~~&= ",
" =&-----------&&&&= ",
" =&-----------&==={ ",
" =&,,,,,,,,,,,&     ",
" =&!!!!!!!!!!!&     ",
" =&~~~~~~~~~~~&     ",
" =&&&&&&&&&&&&&     ",
" {========]====     ",
"                    "};
