/* XPM */
static char * closeA_xpm[] = {
"19 38 38 1",
" 	c None",
".	c #D9D9D9",
"+	c #9D9C9A",
"@	c #9E9D9C",
"#	c #929291",
"$	c #969593",
"%	c #949392",
"&	c #939292",
"*	c #AAAAAA",
"=	c #9A9A9A",
"-	c #9D9B9A",
";	c #999897",
">	c #9B9B9A",
",	c #ACACAB",
"'	c #E0E0E0",
")	c #AFAFAF",
"!	c #A09F9F",
"~	c #A0A09F",
"{	c #B4B4B4",
"]	c #E7E6E6",
"^	c #B5B4B4",
"/	c #A8A8A7",
"(	c #B0B0AF",
"_	c #A8A6A5",
":	c #AAAAA9",
"<	c #B9B9B9",
"[	c #ABAAAA",
"}	c #A7A6A5",
"|	c #B3B2B0",
"1	c #B0B0B0",
"2	c #BDBDBD",
"3	c #E3E3E3",
"4	c #BCBCBC",
"5	c #B1B1B0",
"6	c #B3B2B1",
"7	c #C5C5C5",
"8	c #F3F2F2",
"9	c #000000",
"...................",
"...................",
"...................",
"...................",
"...................",
"...................",
"......+....+.......",
".....@#$..%&@......",
"......*=-;>,.......",
"......')!~{].......",
".......^//(........",
"......_:<<[}.......",
".....|12]3456......",
"......73..37.......",
"......8....8.......",
"...................",
"...................",
"...................",
"...................",
"9999999999999999999",
"9999999999999999999",
"9999999999999999999",
"9999999999999999999",
"9999999999999999999",
"9999999999999999999",
"9999999999999999999",
"9999999999999999999",
"9999999999999999999",
"9999999999999999999",
"9999999999999999999",
"9999999999999999999",
"9999999999999999999",
"9999999999999999999",
"9999999999999999999",
"9999999999999999999",
"9999999999999999999",
"9999999999999999999",
"9999999999999999999"};
