/* XPM */
static char * closeO_xpm[] = {
"19 38 75 1",
" 	c None",
".	c #D9D9D9",
"+	c #D7D7D6",
"@	c #7E7D7C",
"#	c #7D7C7B",
"$	c #646363",
"%	c #727170",
"&	c #6F6E6E",
"*	c #7F7E7D",
"=	c #838383",
"-	c #6F6F6F",
";	c #7B7B7A",
">	c #787776",
",	c #878786",
"'	c #8E8E8E",
")	c #7A7979",
"!	c #7B7A7A",
"~	c #939392",
"{	c #999999",
"]	c #868686",
"^	c #959595",
"/	c #939291",
"(	c #8D8C8C",
"_	c #A0A0A0",
":	c #9E9E9E",
"<	c #8D8D8D",
"[	c #929291",
"}	c #A3A2A1",
"|	c #989797",
"1	c #A6A6A6",
"2	c #DBDBDB",
"3	c #989898",
"4	c #A4A3A2",
"5	c #B2B2B2",
"6	c #F2F1F0",
"7	c #D5D6D7",
"8	c #769FBD",
"9	c #759EBD",
"0	c #759EBF",
"a	c #5189B5",
"b	c #6796BB",
"c	c #D7D7D8",
"d	c #6595B9",
"e	c #759FBF",
"f	c #D9DADB",
"g	c #719FC3",
"h	c #5C92BC",
"i	c #729FC1",
"j	c #6E9CBF",
"k	c #75A2C5",
"l	c #DBDCDD",
"m	c #E0E4E6",
"n	c #7CA8CA",
"o	c #669BC3",
"p	c #81ACCD",
"q	c #E4E8E9",
"r	c #88B1D2",
"s	c #70A3CB",
"t	c #84AED0",
"u	c #8AB3D3",
"v	c #7AACD2",
"w	c #8DB8D8",
"x	c #8CB7D8",
"y	c #88B2D2",
"z	c #9BBFDA",
"A	c #84B4D9",
"B	c #94BCDC",
"C	c #E7EAED",
"D	c #E6E9ED",
"E	c #93BCDC",
"F	c #DEE1E3",
"G	c #A3C6E3",
"H	c #E6ECF1",
"I	c #E7ECF1",
"J	c #A2C7E3",
"...................",
"...................",
"...................",
"...................",
"...................",
"...................",
".....+@....#+......",
".....@$%..&$*......",
"......=-;>-,.......",
".......')!~........",
".......{]]^........",
"....../(_:<[.......",
".....}|12.134......",
"......52...5.......",
"......6....6.......",
"...................",
"...................",
"...................",
"...................",
"...................",
"...................",
"...................",
"...................",
"...................",
".....78...797......",
".....0ab.cdae......",
".....fghijhkl......",
"......mnoopq.......",
".......rsst........",
"......uvwxvy.......",
".....zABCDEAz......",
".....FGH..IJF......",
"......6....6.......",
"...................",
"...................",
"...................",
"...................",
"..................."};
