/* XPM */
static char * frameATL_xpm[] = {
"5 22 9 1",
" 	c None",
".	c #F6F8F5",
"+	c #FAF9FE",
"@	c #E6E8E5",
"#	c #DFDEE3",
"$	c #E3E5E2",
"%	c #D8D7DC",
"&	c #D6D8D3",
"*	c #D9D9D9",
".++++",
"@####",
"$%%%%",
"&****",
"&****",
"&****",
"&****",
"&****",
"&****",
"&****",
"&****",
"&****",
"&****",
"&****",
"&****",
"&****",
"&****",
"&****",
"&****",
"&****",
"&****",
"&****"};
