/* XPM */
static char *minimizeO_xpm[] = {
"19 38 7 1",
" 	c None",
"1	c #D9D9D9",
"2	c #7B7B7A",
"3	c #999999",
"4	c #F8F7F7",
"5	c #669BC3",
"6	c #70A3CB",
"1111111111111111111",
"1111111111111111111",
"1111111111111111111",
"1111111111111111111",
"1111111111111111111",
"1111111111111111111",
"1111111111111111111",
"1111111111111111111",
"1111122222222111111",
"1111133333333111111",
"1111144444444111111",
"1111111111111111111",
"1111111111111111111",
"1111111111111111111",
"1111111111111111111",
"1111111111111111111",
"1111111111111111111",
"1111111111111111111",
"1111111111111111111",
"1111111111111111111",
"1111111111111111111",
"1111111111111111111",
"1111111111111111111",
"1111111111111111111",
"1111111111111111111",
"1111111111111111111",
"1111111111111111111",
"1111155555555111111",
"1111166666666111111",
"1111144444444111111",
"1111111111111111111",
"1111111111111111111",
"1111111111111111111",
"1111111111111111111",
"1111111111111111111",
"1111111111111111111",
"1111111111111111111",
"1111111111111111111"
};
