/* XPM */
static char * restoreA_xpm[] = {
"19 38 15 1",
" 	c None",
".	c #D9D9D9",
"+	c #A5A4A2",
"@	c #878685",
"#	c #A9A7A6",
"$	c #DBDBDB",
"%	c #B0AFAF",
"&	c #9E9E9E",
"*	c #B6B6B5",
"=	c #ABAAAA",
"-	c #A4A4A4",
";	c #B1B1B1",
">	c #ABABAB",
",	c #B0B0AF",
"'	c #000000",
"...................",
"...................",
"...................",
"...................",
"...................",
"...................",
"...................",
"...................",
".....+@@@@@@#......",
".....$%&&&&*$......",
".......=--;$.......",
"........>,.........",
"...................",
"........$..........",
"...................",
"...................",
"...................",
"...................",
"...................",
"'''''''''''''''''''",
"'''''''''''''''''''",
"'''''''''''''''''''",
"'''''''''''''''''''",
"'''''''''''''''''''",
"'''''''''''''''''''",
"'''''''''''''''''''",
"'''''''''''''''''''",
"'''''''''''''''''''",
"'''''''''''''''''''",
"'''''''''''''''''''",
"'''''''''''''''''''",
"'''''''''''''''''''",
"'''''''''''''''''''",
"'''''''''''''''''''",
"'''''''''''''''''''",
"'''''''''''''''''''",
"'''''''''''''''''''",
"'''''''''''''''''''"};
