/* XPM */
static char * taskbuttonactive_xpm[] = {
"4 25 3 1",
" 	c None",
".	c #F4452A",
"+	c #FF4829",
"....",
"++++",
"++++",
"++++",
"++++",
"++++",
"++++",
"++++",
"++++",
"++++",
"++++",
"++++",
"++++",
"++++",
"++++",
"++++",
"++++",
"++++",
"++++",
"++++",
"++++",
"++++",
"++++",
"++++",
"...."};
