/* XPM */
static char * closeA_xpm[] = {
"26 50 6 1",
" 	c None",
".	c #2F343F",
"+	c #E07D7D",
"@	c #DE6969",
"#	c #DE6565",
"$	c #E87F7F",
"..........................",
"..........................",
"..........................",
"..........................",
"..........................",
"..........................",
"...........+@@+...........",
".........@######@.........",
"........##########........",
".......@##########@.......",
".......###..##..###.......",
"......+###......###+......",
"......@####....####@......",
"......@####....####@......",
"......+###......###+......",
".......###..##..###.......",
".......@##########@.......",
"........##########........",
".........@######@.........",
"...........+@@+...........",
"..........................",
"..........................",
"..........................",
"..........................",
"..........................",
"..........................",
"..........................",
"..........................",
"..........................",
"..........................",
"..........................",
"...........$$$$...........",
".........$$$$$$$$.........",
"........$$$$$$$$$$........",
".......$$$$$$$$$$$$.......",
".......$$$..$$..$$$.......",
"......$$$$......$$$$......",
"......$$$$$....$$$$$......",
"......$$$$$....$$$$$......",
"......$$$$......$$$$......",
".......$$$..$$..$$$.......",
".......$$$$$$$$$$$$.......",
"........$$$$$$$$$$........",
".........$$$$$$$$.........",
"...........$$$$...........",
"..........................",
"..........................",
"..........................",
"..........................",
".........................."};
