/* XPM */
static char * closeO_xpm[] = {
"26 50 4 1",
" 	c None",
".	c #2F343F",
"+	c #E87F7F",
"@	c #CD6262",
"..........................",
"..........................",
"..........................",
"..........................",
"..........................",
"..........................",
"...........++++...........",
".........++++++++.........",
"........++++++++++........",
".......++++++++++++.......",
".......+++..++..+++.......",
"......++++......++++......",
"......+++++....+++++......",
"......+++++....+++++......",
"......++++......++++......",
".......+++..++..+++.......",
".......++++++++++++.......",
"........++++++++++........",
".........++++++++.........",
"...........++++...........",
"..........................",
"..........................",
"..........................",
"..........................",
"..........................",
"..........................",
"..........................",
"..........................",
"..........................",
"..........................",
"..........................",
"...........@@@@...........",
".........@@@@@@@@.........",
"........@@@@@@@@@@........",
".......@@@@@@@@@@@@.......",
".......@@@..@@..@@@.......",
"......@@@@......@@@@......",
"......@@@@@....@@@@@......",
"......@@@@@....@@@@@......",
"......@@@@......@@@@......",
".......@@@..@@..@@@.......",
".......@@@@@@@@@@@@.......",
"........@@@@@@@@@@........",
".........@@@@@@@@.........",
"...........@@@@...........",
"..........................",
"..........................",
"..........................",
"..........................",
".........................."};
