/* XPM */
static char * frameAT_xpm[] = {
"1 30 3 1",
" 	c None",
".	c #2F343F",
"+	c #82858B",
" ",
" ",
" ",
" ",
".",
"+",
".",
".",
".",
".",
".",
".",
".",
".",
".",
".",
".",
".",
".",
".",
".",
".",
".",
".",
".",
".",
".",
".",
".",
"."};
