/* XPM */
static char * frameATR_xpm[] = {
"5 30 2 1",
" 	c None",
".	c #2F343F",
"     ",
"     ",
"     ",
"     ",
"     ",
"..   ",
"...  ",
".... ",
".... ",
".....",
".....",
".....",
".....",
".....",
".....",
".....",
".....",
".....",
".....",
".....",
".....",
".....",
".....",
".....",
".....",
".....",
".....",
".....",
".....",
"....."};
