/* XPM */
static char * maximizeI_xpm[] = {
"26 50 3 1",
" 	c None",
".	c #2F343F",
"+	c #83858F",
"..........................",
"..........................",
"..........................",
"..........................",
"..........................",
"..........................",
"..........................",
"..........................",
"..........................",
"..........................",
"............++++..........",
".............+++..........",
"..........+...++..........",
"..........++...+..........",
"..........+++.............",
"..........++++............",
"..........................",
"..........................",
"..........................",
"..........................",
"..........................",
"..........................",
"..........................",
"..........................",
"..........................",
"..........................",
"..........................",
"..........................",
"..........................",
"..........................",
"..........................",
"..........................",
"..........................",
"..........................",
"..........................",
"............++++..........",
".............+++..........",
"..........+...++..........",
"..........++...+..........",
"..........+++.............",
"..........++++............",
"..........................",
"..........................",
"..........................",
"..........................",
"..........................",
"..........................",
"..........................",
"..........................",
".........................."};
