/* XPM */
static char * minimizeO_xpm[] = {
"26 50 9 1",
" 	c None",
".	c #2F343F",
"+	c #80848E",
"@	c #666971",
"#	c #F5F6F7",
"$	c #6DAAE9",
"%	c #6FABE9",
"&	c #6AA8E9",
"*	c #6BA9E9",
"..........................",
"..........................",
"..........................",
"..........................",
"..........................",
"..........................",
"..........................",
"...........+@@+...........",
".........+@@@@@@+.........",
"........+@@@@@@@@+........",
"........@@@@@@@@@@........",
".......+@@@@@@@@@@+.......",
".......@@@######@@@.......",
".......@@@######@@@.......",
".......+@@@@@@@@@@+.......",
"........@@@@@@@@@@........",
"........+@@@@@@@@+........",
".........+@@@@@@+.........",
"...........+@@+...........",
"..........................",
"..........................",
"..........................",
"..........................",
"..........................",
"..........................",
"..........................",
"..........................",
"..........................",
"..........................",
"..........................",
"..........................",
"..........................",
"...........$%%$...........",
".........$&&&&&&$.........",
"........$&&&&&&&&$........",
"........&&&$$$$$&&........",
".......$&&$&$$$$&&$.......",
".......%&*######&&%.......",
".......%&*######&&%.......",
".......$&*$$$$&$&&$.......",
"........&&$$$$$&&&........",
"........$&&&&&&&&$........",
".........$&&&&&&$.........",
"...........$%%$...........",
"..........................",
"..........................",
"..........................",
"..........................",
"..........................",
".........................."};
