<svg height="48" width="48" xmlns="http://www.w3.org/2000/svg"><g fill="#FFBF00"><path d="M22.366 15.6a3.458 3.458 0 0 0-3.466 3.466h5.2V20.8h-6.934a3.458 3.458 0 0 0-3.466 3.466v3.468a3.458 3.458 0 0 0 3.466 3.466v-1.734A5.161 5.161 0 0 1 18.9 25.61l.003-.005a5.39 5.39 0 0 1 .738-.554c.003 0 .005-.004.008-.005a5.317 5.317 0 0 1 .815-.41c.052-.021.108-.033.16-.053a5.044 5.044 0 0 1 .747-.22c.323-.062.654-.098.995-.098H29.3v-5.2a3.458 3.458 0 0 0-3.466-3.466zm0 .866a.868.868 0 1 1 .001 1.735.868.868 0 0 1-.001-1.735z" stroke-width="1.333"/><path d="M30.6 26L28 28.6l.92.92 1.68-1.682V35.1H28v1.3h6.5v-1.3h-2.6V26zm-7.15 0c-.914 0-1.813.467-2.384 1.353-.57.887-.866 2.145-.866 3.847 0 1.703.295 2.96.866 3.847.57.886 1.469 1.353 2.384 1.353s1.814-.467 2.384-1.353c.57-.887.866-2.145.866-3.847 0-1.703-.295-2.96-.866-3.847-.57-.886-1.469-1.353-2.384-1.353zm0 1.3c.521 0 .923.183 1.292.76.11.168.206.387.295.634l-3.489 3.489a10.417 10.417 0 0 1-.048-.983c0-1.547.286-2.565.658-3.14.37-.577.77-.76 1.292-.76zm1.902 2.917c.029.303.048.624.048.983 0 1.547-.286 2.565-.658 3.14-.37.577-.77.76-1.292.76s-.923-.183-1.292-.76a3.224 3.224 0 0 1-.295-.634z"/></g><g fill="none" stroke="#616161" stroke-linecap="round"><path d="M7.504 43.64c0 .912.946 1.876 1.838 1.876h29.353c.892 0 1.838-.964 1.838-1.875m0 0V14.599l-10.948-12.1L9.342 2.5c-.946 0-1.838.912-1.838 1.876V43.64" stroke-width=".988" stroke-linejoin="round"/><path d="M29.585 2.48l10.948 12.104-8.968-.036c-.927-.003-1.97-1.053-1.97-1.98z" stroke-linejoin="bevel"/></g></svg>