<svg height="48" width="48" xmlns="http://www.w3.org/2000/svg"><path d="M26.804 15.601a1.062 1.062 0 0 0-.443.116c-.213.117-.213.117-.787.029-.314-.05-.877-.104-1.25-.124-.59-.03-.679-.023-.679.047 0 .056-.091.1-.28.138a2.622 2.622 0 0 0-.503.167c-.124.06-.239.098-.256.08-.018-.013.004-.033.047-.034.065 0 .064-.008-.005-.053s-.064-.062.029-.045c.135.013.305-.052.305-.117 0-.06-.298-.067-.489-.018-.075.018-.115.06-.099.103.02.047-.039.08-.176.103a5.453 5.453 0 0 0-.4.078c-.188.042-.19.041-.068-.038.069-.046.122-.102.122-.128 0-.088-.17-.048-.56.138-.212.103-.428.177-.48.16-.193-.058-2.262 1.638-2.702 2.214-.1.133-.197.21-.256.192-.06-.011-.124.046-.184.158-.052.096-.249.412-.44.702-.431.659-.573.92-.676 1.26a3.809 3.809 0 0 1-.156.426c-.041.087-.111.412-.156.72-.083.564-.166.814-.257.76-.026-.011-.061-.006-.075.015-.073.114-.211 1.202-.254 2.007-.044.848-.039.935.064 1.188.06.151.204.63.32 1.065.466 1.75.629 2.263.928 2.925.897 1.995 2.349 3.592 4.57 5.031 1.013.654 2.647 1.295 3.787 1.482v-.01c.29.041.797.075 1.54.057.943-.01 1.19-.03 1.648-.135.35-.082.538-.151.538-.195 0-.065-.07-.067-.29-.047-1.482.129-1.859.083-2.604-.315-.531-.285-.689-.331-.54-.158.101.115-.067.105-.47-.026a2.14 2.14 0 0 0-.455-.106c-.111 0-.12-.013-.072-.1.093-.166.067-.214-.112-.214-.182 0-.394-.091-.744-.316-.175-.12-.255-.137-.38-.103-.135.035-.192.012-.414-.18-.351-.302-.449-.413-.451-.522-.003-.099-.113-.122-.2-.044-.032.03-.26-.125-.6-.406-.301-.25-.52-.455-.486-.473.117-.036.069-.16-.086-.216-.25-.09-.362-.2-.323-.316.026-.081-.026-.156-.241-.327a2.467 2.467 0 0 1-.357-.337c-.076-.11-.073-.113.08-.092.24.034.204-.065-.156-.424-.346-.347-.572-.468-.793-.428-.101.02-.195-.013-.322-.115-.25-.2-.523-.59-.436-.62.044-.015.007-.09-.109-.206a.833.833 0 0 1-.238-.465.905.905 0 0 0-.188-.419c-.334-.34-.509-.89-.809-2.532-.247-1.35-.248-1.32-.022-2.28.156-.657.164-.78.05-.78-.107 0-.111.016.086-.46.444-1.07 1.273-2.237 1.745-2.454.212-.099.358-.265.358-.416 0-.043-.04-.041-.088-.023-.067.026-.06 0 .025-.113.215-.285.485-.484.902-.663.25-.108.453-.234.492-.302.06-.106.054-.116-.057-.087-.068.018-.114.033-.102.016.01-.008.213-.182.451-.39.395-.346 1.008-.736.823-.523-.041.047-.048.095-.018.113.029.016.08-.006.117-.05.082-.093.565-.31 1.054-.475 1.004-.338 2.41-.419 3.237-.19.975.27 2.01.875 2.829 1.66.57.546.933 1.05 1.141 1.572a1.199 1.199 0 0 0 .159.308c.086.05.452 1.495.489 1.924.027.324.056.421.12.421.068 0 .077.08.062.45-.017.415-.03.46-.185.615-.161.161-.166.182-.13.502l.037.331-.338.508c-.3.454-.882 1.161-.635.773.076-.12.08-.147.016-.147-.042 0-.182.153-.312.342-.234.338-.436.517-.758.673a18.43 18.43 0 0 0-.473.242c-.419.22-.875.325-1.438.325-1.086 0-2.23-.515-2.938-1.326-.294-.335-.718-1.088-.718-1.274 0-.055-.026-.091-.075-.073-.059.022-.091-.065-.14-.364-.08-.52-.077-.666.027-1.188.156-.78.591-1.388 1.378-1.916.556-.373.938-.473 1.718-.473.557.003.712.022.956.118.161.064.325.117.361.117.156-.004-.355-.33-.763-.485-.359-.137-.544-.17-.976-.19-.893-.039-1.58.224-2.243.854-.377.358-.74.91-.74 1.118a.688.688 0 0 1-.114.26c-.245.377-.387 1.584-.253 2.133.366 1.5 1.1 2.29 2.873 3.076.559.247.723.394.304.273-.382-.11-.915-.327-1.088-.444-.191-.13-.228-.136-.228-.032 0 .055-.101.017-.341-.13-.189-.111-.364-.193-.392-.176-.143.084.783.694 1.407.928.92.34 1.965.482 2.744.357.458-.072 1.229-.397 1.142-.48-.037-.023-.108-.02-.215.018-.266.097-.855.201-1.357.239-.384.03-.54.015-.805-.061l-.325-.095.663-.04a5.824 5.824 0 0 0 1.83-.351c1.11-.388 2.09-1.207 2.71-2.266.23-.392.305-.46.305-.273 0 .15.133.102.156-.056a.822.822 0 0 0-.044-.316.602.602 0 0 1-.003-.416c.059-.208.073-.219.156-.15.208.17.234.16.2-.078a2.587 2.587 0 0 1 .058-.668 5.68 5.68 0 0 0 .096-.763l.01-.325.032.304c.033.312.13.414.162.17.017-.13-.047-.462-.129-.685-.039-.1-.035-.1.051 0 .134.158.15.075.06-.26a2.027 2.027 0 0 1-.047-.747c.034-.43.007-.512-.13-.381-.09.085-.253-.234-.26-.503-.004-.148-.039-.242-.117-.302a1.148 1.148 0 0 1-.22-.26l-.106-.176.156.117c.087.065.169.111.182.093.015-.013-.047-.148-.138-.303a4.196 4.196 0 0 1-.234-.465c-.123-.312-.396-.533-.455-.365-.01.03-.074-.049-.14-.173l-.124-.227.124-.018a.329.329 0 0 0 .184-.09c.052-.066.119-.015.37.279.166.195.473.603.68.907.209.303.385.524.397.491.027-.078-.084-.288-.489-.915-.178-.28-.325-.535-.325-.572a.792.792 0 0 0-.09-.231l-.093-.166.12.1c.208.176.193.045-.026-.245-.923-1.22-2.166-2.086-3.692-2.574-.474-.153-.596-.156-.472-.014.065.075.052.075-.1 0a.941.941 0 0 1-.242-.168c-.055-.06-.183-.088-.332-.082zm-2.838.232c.04-.02.088-.017.108 0v.002c.018.01-.016.029-.074.029-.065-.001-.078-.013-.034-.031zm.386.044a1.8 1.8 0 0 1 .419.002c.058.006.005.021-.212.02-.243 0-.337-.005-.207-.022zm.802.056a.361.361 0 0 1 .194 0c.052.006.01.023-.098.023-.105 0-.149-.005-.096-.023zm-1.341.018c.06-.013.095-.005.078.02s-.065.05-.11.05c-.115 0-.098-.036.032-.07zm1.761.039c.04-.02.087-.018.104 0v.005c.02.01-.013.029-.071.029-.065-.002-.077-.017-.033-.034zm-2.093.043h.193l-.221.039v.005a2.84 2.84 0 0 0-.333.074c-.072.026-.063.013.026-.04a.8.8 0 0 1 .335-.078zm-1.403.217c.012.01-.155.074-.37.14-.266.086-.408.107-.447.07-.04-.035-.14-.025-.324.033a2.902 2.902 0 0 0-.429.178l-.158.091.149-.114c.216-.167.72-.328.772-.247.031.048.133.036.414-.053.204-.064.382-.116.394-.098zm.726.008c.013.012-.11.056-.272.103-.323.09-.325.09-.325.058 0-.031.572-.186.598-.161zm-2.49.5c.015 0-.02.048-.074.106a.433.433 0 0 1-.127.105c-.016 0 .018-.047.073-.104a.436.436 0 0 1 .127-.107zm-.656.528c.003.003-.013.025-.047.065-.073.091-.12.116-.12.073a.36.36 0 0 1 .1-.091c.044-.034.064-.05.067-.047zm8.904 5.598c-.052-.01-.095.03-.12.126-.026.091 0 .18.086.29h.002c.21.27.338.112.189-.232-.05-.11-.107-.174-.157-.184zm3.65.035c.014.039.013.083-.005.101-.018.019-.031-.013-.029-.07.003-.06.016-.073.034-.031zm-3.52 1.361c-.026-.017-.068.101-.089.26-.022.17-.08.335-.145.406l-.113.12.026-.13c.014-.074.042-.211.065-.304.062-.262-.049-.208-.156.077-.125.332-.117.43.03.486v.003c.245.093.305.065.369-.18.075-.28.082-.698.013-.738zm-1.068 1.63c-.011-.01-.132.026-.269.085a3.198 3.198 0 0 1-.512.158c-.25.052-.347.163-.192.221.039.013.205.032.373.032.303.003.307 0 .465-.237.087-.133.147-.242.135-.26zm-4.483 1.185c-.117 0-.026.153.266.435.174.168.326.306.334.306.01 0 .016-.03.016-.067 0-.078-.545-.674-.616-.674zm-.172.527c-.023 0-.044.07-.044.15 0 .152.21.35.775.734.147.095.26.149.273.113.02-.058-.923-.997-1.004-.997zm1.313.624l.152.091c.083.05.153.091.153.108 0 .042-.046.018-.174-.087z" fill="#FE003F"/><g fill="none" stroke="#616161" stroke-linecap="round"><path d="M7.504 43.64c0 .912.946 1.876 1.838 1.876h29.353c.892 0 1.838-.964 1.838-1.875m0 0V14.599l-10.948-12.1L9.342 2.5c-.946 0-1.838.912-1.838 1.876V43.64" stroke-width=".988" stroke-linejoin="round"/><path d="M29.585 2.48l10.948 12.104-8.968-.036c-.927-.003-1.97-1.053-1.97-1.98z" stroke-linejoin="bevel"/></g></svg>