<svg height="48" width="48" xmlns="http://www.w3.org/2000/svg"><path d="M34.5 18.2l-12.132.008L18.25 30.55 15.434 26H13.7v1.3H15l3.25 6.5 5.123-14.3H34.5zM28 22.1a5.2 5.2 0 1 0 0 10.4 5.2 5.2 0 0 0 3.9-1.77v1.77h1.3V22.1h-1.3v1.77A5.2 5.2 0 0 0 28 22.1zm0 1.3a3.9 3.9 0 1 1 0 7.8 3.9 3.9 0 0 1 0-7.8z" color="#7F8080" fill="#7F8080"/><g fill="none" stroke="#616161" stroke-linecap="round"><path d="M7.504 43.64c0 .912.946 1.876 1.838 1.876h29.353c.892 0 1.838-.964 1.838-1.875m0 0V14.599l-10.948-12.1L9.342 2.5c-.946 0-1.838.912-1.838 1.876V43.64" stroke-width=".988" stroke-linejoin="round"/><path d="M29.585 2.48l10.948 12.104-8.968-.036c-.927-.003-1.97-1.053-1.97-1.98z" stroke-linejoin="bevel"/></g></svg>