<svg height="48" width="48" xmlns="http://www.w3.org/2000/svg"><path d="M26.84 22.612a4.93 4.93 0 0 0 .045-.624c0-.21-.019-.42-.045-.624l1.355-1.06a.32.32 0 0 0 .077-.41l-1.282-2.22a.317.317 0 0 0-.39-.137l-1.595.644a4.86 4.86 0 0 0-1.082-.631l-.24-1.696a.329.329 0 0 0-.32-.27H20.8a.324.324 0 0 0-.318.27l-.24 1.696c-.39.164-.751.374-1.082.63l-1.595-.643a.32.32 0 0 0-.39.138l-1.282 2.219a.321.321 0 0 0 .078.41l1.351 1.06a4.947 4.947 0 0 0-.044.624c0 .212.018.42.044.624l-1.352 1.061a.32.32 0 0 0-.077.41l1.282 2.219c.08.137.247.195.39.137l1.595-.643c.33.252.692.468 1.082.63l.24 1.698a.325.325 0 0 0 .318.27h2.56a.324.324 0 0 0 .318-.27l.24-1.698a4.71 4.71 0 0 0 1.083-.63l1.594.643a.32.32 0 0 0 .391-.137l1.28-2.22a.321.321 0 0 0-.076-.409l-1.352-1.06zm-4.758 1.617a2.24 2.24 0 0 1-2.242-2.24 2.242 2.242 0 1 1 4.484 0 2.24 2.24 0 0 1-2.243 2.24zm8.423 9.701a3.67 3.67 0 0 0 .248-.385c.075-.136.136-.277.19-.417l1.243-.207a.234.234 0 0 0 .192-.235l-.044-1.876a.231.231 0 0 0-.203-.226l-1.25-.146a3.558 3.558 0 0 0-.475-.784l.442-1.175a.24.24 0 0 0-.111-.286l-1.648-.897a.237.237 0 0 0-.299.061l-.748 1.006a3.471 3.471 0 0 0-.917.026l-.8-.973a.234.234 0 0 0-.298-.048l-1.602.976a.234.234 0 0 0-.095.291l.498 1.154a3.674 3.674 0 0 0-.248.387 3.683 3.683 0 0 0-.19.416l-1.24.208a.234.234 0 0 0-.194.236l.046 1.876a.23.23 0 0 0 .201.225l1.252.146c.122.278.28.543.473.785l-.44 1.175a.237.237 0 0 0 .109.283l1.647.9a.236.236 0 0 0 .297-.062l.75-1.007c.309.032.615.024.917-.026l.8.973a.234.234 0 0 0 .299.05l1.601-.978a.234.234 0 0 0 .094-.29l-.497-1.156zm-3.624-.63a1.641 1.641 0 1 1 1.573-2.88 1.641 1.641 0 1 1-1.573 2.88z" fill="#7F8080"/><g fill="none" stroke="#616161" stroke-linecap="round"><path d="M7.504 43.64c0 .912.946 1.876 1.838 1.876h29.353c.892 0 1.838-.964 1.838-1.875m0 0V14.599l-10.948-12.1L9.342 2.5c-.946 0-1.838.912-1.838 1.876V43.64" stroke-width=".988" stroke-linejoin="round"/><path d="M29.585 2.48l10.948 12.104-8.968-.036c-.927-.003-1.97-1.053-1.97-1.98z" stroke-linejoin="bevel"/></g></svg>