<svg height="48" width="48" xmlns="http://www.w3.org/2000/svg"><path d="M24.1 15.6c-5.743 0-10.4 1.552-10.4 3.467v13.866c0 1.915 4.657 3.467 10.4 3.467s10.4-1.552 10.4-3.467V19.067c0-1.915-4.657-3.467-10.4-3.467m-.03 1.28c4.787 0 8.697 1.229 8.697 2.187 0 .957-3.88 1.733-8.667 1.733s-8.667-.776-8.667-1.733c0-.958 3.85-2.158 8.637-2.158m-9 3.886c1.922.97 5.51 1.616 9 1.617 3.488 0 7.227-.494 9.152-1.462v5.019c0 .957-4.365 2.036-9.152 2.036s-9-1.23-9-2.187zm0 6.994c1.922.97 5.54 1.677 9.03 1.677 3.488 0 7.228-.584 9.152-1.554v5.02c0 .958-4.427 2.128-9.213 2.128s-8.97-1.291-8.97-2.25z" fill="#FE3F00"/><g fill="none" stroke="#616161" stroke-linecap="round"><path d="M7.504 43.64c0 .912.946 1.876 1.838 1.876h29.353c.892 0 1.838-.964 1.838-1.875m0 0V14.599l-10.948-12.1L9.342 2.5c-.946 0-1.838.912-1.838 1.876V43.64" stroke-width=".988" stroke-linejoin="round"/><path d="M29.585 2.48l10.948 12.104-8.968-.036c-.927-.003-1.97-1.053-1.97-1.98z" stroke-linejoin="bevel"/></g></svg>