<svg height="48" width="48" xmlns="http://www.w3.org/2000/svg"><g fill="#7F8080"><path d="M30.405 15.691a4.852 4.852 0 0 0-.452.543l-.368.49-.132-.09c-.185-.123-.364-.149-.53-.075-.116.052-.386.4-2.162 2.754-1.12 1.483-2.033 2.709-2.03 2.728.002.016.455.371 1.003.784l1.004.757 1.326-1.758c.728-.967 1.334-1.75 1.348-1.738.048.035.131.793.114 1.039a2.535 2.535 0 0 1-.109.532c-.092.283-.103.301-1.745 2.488-.908 1.209-1.664 2.233-1.677 2.275-.039.112.003.322.087.442.142.203.493.266.692.122.138-.1 3.39-4.462 3.494-4.689.302-.65.366-1.48.177-2.3a5.314 5.314 0 0 0-.269-.858c-.028-.062.02-.139.324-.546.286-.39.35-.499.357-.599.012-.215-.053-.335-.264-.5l-.195-.153.39-.522c.322-.432.39-.546.394-.646.02-.43-.425-.705-.777-.481z"/><path d="M21.448 26.364c-2.337 3.104-2.669 3.565-2.885 3.958-.429.787-.895 1.986-1.206 3.081-.202.703-.21.64.069.49.86-.462 1.985-1.214 2.639-1.767.64-.542.75-.68 3.464-4.281l2.612-3.47-1.01-.762a35.126 35.126 0 0 0-1.027-.759c-.01.001-1.204 1.582-2.656 3.51zm2.595 4.532c-.406.086-.857.435-1.074.84a3.745 3.745 0 0 0-.21.52 4.486 4.486 0 0 1-.108.338c-.032.039-.806.226-1.261.304-1.07.187-1.362.257-1.466.353-.206.192-.046.383.245.297a10.543 10.543 0 0 1 .728-.143c.318-.056.805-.156 1.08-.219.276-.066.51-.109.52-.097.013.012-.034.234-.108.494l-.132.467-.292.128a3.653 3.653 0 0 0-.51.272c-.364.24-.435.545-.179.738.14.106.53.102.771-.003.214-.097.334-.234.502-.587.089-.183.159-.28.213-.292.043-.012.43-.09.856-.178.429-.086.817-.168.867-.18.082-.02.09-.011.066.063a2.19 2.19 0 0 1-.16.303.888.888 0 0 0-.131.322c0 .12.1.242.182.21a.359.359 0 0 1 .094-.023.715.715 0 0 0 .19-.14c.16-.143.545-.848.545-.996 0-.073.057-.092.093-.034a.57.57 0 0 0 .199.078c.135.034.174.061.174.124 0 .12.199.295.373.33a.935.935 0 0 0 .498-.08c.066-.028.07-.02.047.08-.016.062-.128.26-.249.443-.257.382-.568.988-.65 1.257-.065.229-.039.4.082.481.11.07.287.04.381-.06.082-.09.525-1.028.689-1.456.117-.299.17-.38.436-.661.217-.23.287-.284.24-.195-.078.169-.073.296.013.374.182.168.446.004.676-.416.135-.25.237-.322.742-.559l.266-.122-.028.144a3.029 3.029 0 0 1-.199.49c-.182.385-.217.63-.109.84.074.143.152.148.51.024.498-.168 1.148-.553 1.314-.774.23-.312.299-.611.16-.712-.143-.104-.225-.063-.408.206-.246.366-.549.65-.84.793-.137.07-.257.117-.27.104-.015-.014.297-.85.464-1.243a.763.763 0 0 0 .062-.226c0-.109-.135-.234-.252-.234-.055 0-.312.107-.568.238-.533.265-.498.287-.362-.21.082-.307.055-.39-.132-.407-.18-.02-.249.039-.412.33-.104.197-.245.361-.514.61-.353.326-.37.339-.451.28-.125-.09-.195-.078-.498.074-.295.147-.392.167-.467.078-.062-.074.036-.113.576-.218.526-.101.592-.129.592-.238 0-.174-.144-.342-.4-.455-.445-.197-.495-.21-.69-.158-.21.053-.52.353-.564.54-.043.195-.174.136-.174-.078 0-.09-.11-.314-.172-.355-.132-.088-.345.106-.51.463l-.128.277-.286.063c-.374.08-1.46.299-1.603.326-.093.015-.109.008-.09-.047.016-.039.063-.21.11-.385.12-.48.156-.544.33-.607.21-.073.918-.377 1.1-.47a2.32 2.32 0 0 0 .39-.292c.392-.365.455-.703.174-.953a1.187 1.187 0 0 0-.225-.156 1.66 1.66 0 0 0-.67-.039zm.496.535c.078.078.078.082.008.23a.9.9 0 0 1-.291.296c-.237.163-.98.462-1.004.408-.03-.089.207-.622.36-.793.2-.229.26-.252.582-.234.206.013.288.032.345.095zm-2.535 3.237c-.05.097-.182.167-.256.14-.086-.036-.062-.082.073-.151.18-.091.234-.086.183.011z"/></g><g fill="none" stroke="#616161" stroke-linecap="round"><path d="M7.504 43.64c0 .912.946 1.876 1.838 1.876h29.353c.892 0 1.838-.964 1.838-1.875m0 0V14.599l-10.948-12.1L9.342 2.5c-.946 0-1.838.912-1.838 1.876V43.64" stroke-width=".988" stroke-linejoin="round"/><path d="M29.585 2.48l10.948 12.104-8.968-.036c-.927-.003-1.97-1.053-1.97-1.98z" stroke-linejoin="bevel"/></g></svg>