<svg height="48" width="48" xmlns="http://www.w3.org/2000/svg"><path d="M24.1 15.6c-3.025 0-5.301 2.32-5.2 5.2V26H15v10.4h18.2V26h-3.9v-5.2c0-2.88-2.175-5.2-5.2-5.2zm0 1.3c2.267 0 3.9 1.38 3.9 3.9V26h-7.8v-5.2c0-2.52 1.633-3.9 3.9-3.9z" fill="#7F8080"/><g fill="none" stroke="#616161" stroke-linecap="round"><path d="M7.504 43.64c0 .912.946 1.876 1.838 1.876h29.353c.892 0 1.838-.964 1.838-1.875m0 0V14.599l-10.948-12.1L9.342 2.5c-.946 0-1.838.912-1.838 1.876V43.64" stroke-width=".988" stroke-linejoin="round"/><path d="M29.585 2.48l10.948 12.104-8.968-.036c-.927-.003-1.97-1.053-1.97-1.98z" stroke-linejoin="bevel"/></g></svg>