<svg height="48" width="48" xmlns="http://www.w3.org/2000/svg"><path d="M18.9 15.6a5.2 5.2 0 0 0-5.2 5.2v1.3l.408.642 1.036 1.63.003.003L22.8 36.4V26h6.5a5.2 5.2 0 0 0 0-10.4H18.9zm10.4 1.3a3.9 3.9 0 0 1 .749.077 3.9 3.9 0 0 1 .026.002c.023.004.044.013.067.017a3.9 3.9 0 0 1 .676.21 3.9 3.9 0 0 1 .622.336c.018.012.036.021.053.034a3.9 3.9 0 0 1 .008.004 3.9 3.9 0 0 1 .533.442l.034.031a3.9 3.9 0 0 1 .418.507l.07.098a3.9 3.9 0 0 1 .314.583l.031.07a3.9 3.9 0 0 1 .2.639l.026.106a3.9 3.9 0 0 1 .073.744 3.9 3.9 0 0 1-.077.749 3.9 3.9 0 0 1-.002.026c-.004.023-.013.044-.017.067a3.9 3.9 0 0 1-.21.676 3.9 3.9 0 0 1-.336.622c-.012.018-.021.036-.034.053a3.9 3.9 0 0 1-.004.008 3.9 3.9 0 0 1-.442.533l-.031.034a3.9 3.9 0 0 1-.507.418l-.098.07a3.9 3.9 0 0 1-.583.314l-.07.031a3.9 3.9 0 0 1-.639.2l-.106.026a3.9 3.9 0 0 1-.744.073 3.9 3.9 0 0 1-3.9-3.9 3.9 3.9 0 0 1 3.9-3.9z" fill="#007FFF" stroke-width="6"/><g fill="none" stroke="#616161" stroke-linecap="round"><path d="M7.504 43.64c0 .912.946 1.876 1.838 1.876h29.353c.892 0 1.838-.964 1.838-1.875m0 0V14.599l-10.948-12.1L9.342 2.5c-.946 0-1.838.912-1.838 1.876V43.64" stroke-width=".988" stroke-linejoin="round"/><path d="M29.585 2.48l10.948 12.104-8.968-.036c-.927-.003-1.97-1.053-1.97-1.98z" stroke-linejoin="bevel"/></g></svg>