<svg height="48" width="48" xmlns="http://www.w3.org/2000/svg"><g fill="#00BFFE"><path d="M13.7 15.6v20.8h20.8V15.6H13.7zm1.3 1.3h18.2v15.6H15V16.9zm0 16.9h18.2v1.3H15v-1.3z"/><path d="M17.6 18.2v5.2h5.2v-5.2h-5.2zm7.8 0v5.2h5.2v-5.2h-5.2zM17.6 26v5.2h5.2V26h-5.2zm7.8 0v5.2h5.2V26h-5.2z" stroke-width="2"/></g><g fill="none" stroke="#616161" stroke-linecap="round"><path d="M7.504 43.64c0 .912.946 1.876 1.838 1.876h29.353c.892 0 1.838-.964 1.838-1.875m0 0V14.599l-10.948-12.1L9.342 2.5c-.946 0-1.838.912-1.838 1.876V43.64" stroke-width=".988" stroke-linejoin="round"/><path d="M29.585 2.48l10.948 12.104-8.968-.036c-.927-.003-1.97-1.053-1.97-1.98z" stroke-linejoin="bevel"/></g></svg>