<svg height="48" width="48" xmlns="http://www.w3.org/2000/svg"><path d="M13.7 15.6v15.6l-2.6 2.6h2.6v2.6h20.8v-2.6h2.6l-2.6-2.97V15.6H13.7zm1.3 1.3h18.2v12.444L28 23.4l-5.2 5.2-.65.65-.65-.65-2.6-2.6-3.9 3.9v-13zm3.9 1.3a2.6 2.6 0 0 0-2.6 2.6 2.6 2.6 0 0 0 2.6 2.6 2.6 2.6 0 0 0 2.6-2.6 2.6 2.6 0 0 0-2.6-2.6zm9.036 7.102L34.5 32.5h-9.1l-1.3-1.3-1.03-1.03 1.03-1.03v-.002l3.836-3.836zM18.9 27.838l2.6 2.6v.003l2.06 2.059h-9.322l4.662-4.662zM15 33.8h18.2v1.3H15v-1.3z" fill="#00FFFE" stroke-width="2"/><g fill="none" stroke="#616161" stroke-linecap="round"><path d="M7.504 43.64c0 .912.946 1.876 1.838 1.876h29.353c.892 0 1.838-.964 1.838-1.875m0 0V14.599l-10.948-12.1L9.342 2.5c-.946 0-1.838.912-1.838 1.876V43.64" stroke-width=".988" stroke-linejoin="round"/><path d="M29.585 2.48l10.948 12.104-8.968-.036c-.927-.003-1.97-1.053-1.97-1.98z" stroke-linejoin="bevel"/></g></svg>