<svg height="48" width="48" xmlns="http://www.w3.org/2000/svg"><g transform="matrix(1.3 0 0 1.3 -414 -682.97)" fill="#7F8080" stroke-width="2"><path d="M331 537.362v16h15v-16h-15zm1 1h13v14h-13v-14z"/><rect width="5" x="333" y="543.362" rx="0" height="5"/><rect width="11" x="333" y="550.362" rx="0" height="1"/><rect width="5" x="339" y="547.362" rx="0" height="1"/><rect width="5" x="339" y="543.362" rx="0" height="1"/><rect width="11" x="333" y="540.362" rx="0" height="1"/><rect width="1" x="328" y="541.362" rx="0" height="9"/><rect width="2" x="329" y="541.362" rx="0" height="1"/><path d="M328 550.362a3 3 0 0 0 3 3v-1a2 2 0 0 1-2-2h-1z"/></g><g fill="none" stroke="#616161" stroke-linecap="round"><path d="M7.504 43.64c0 .912.946 1.876 1.838 1.876h29.353c.892 0 1.838-.964 1.838-1.875m0 0V14.599l-10.948-12.1L9.342 2.5c-.946 0-1.838.912-1.838 1.876V43.64" stroke-width=".988" stroke-linejoin="round"/><path d="M29.585 2.48l10.948 12.104-8.968-.036c-.927-.003-1.97-1.053-1.97-1.98z" stroke-linejoin="bevel"/></g></svg>