<svg height="48" width="48" xmlns="http://www.w3.org/2000/svg"><g fill="#7F8080"><path d="M9.8 18.2v15.73h28.6V18.2zm1.3 1.3h26v13.13h-26z"/><path d="M12.4 20.8v10.4H15v-6.726l2.6 2.6 2.6-2.6V31.2h2.6V20.8h-2.603L17.6 23.397 15.003 20.8H12.4zm16.9 0V26h-3.9l5.2 5.2 5.2-5.2h-3.9v-5.2h-2.6z"/></g><g fill="none" stroke="#616161" stroke-linecap="round"><path d="M7.504 43.64c0 .912.946 1.876 1.838 1.876h29.353c.892 0 1.838-.964 1.838-1.875m0 0V14.599l-10.948-12.1L9.342 2.5c-.946 0-1.838.912-1.838 1.876V43.64" stroke-width=".988" stroke-linejoin="round"/><path d="M29.585 2.48l10.948 12.104-8.968-.036c-.927-.003-1.97-1.053-1.97-1.98z" stroke-linejoin="bevel"/></g></svg>