/* XPM */
static char * closeA_xpm[] = {
"26 36 134 2",
"  	c None",
". 	c #363632",
"+ 	c #393834",
"@ 	c #3A3A36",
"# 	c #3B3A36",
"$ 	c #3C3B37",
"% 	c #3D3C38",
"& 	c #4B4A46",
"* 	c #504F4B",
"= 	c #3C3A36",
"- 	c #393835",
"; 	c #383734",
"> 	c #383735",
", 	c #403F3B",
"' 	c #4E4D48",
") 	c #393935",
"! 	c #857C71",
"~ 	c #C3B6A5",
"{ 	c #E6D2BF",
"] 	c #EEDBC6",
"^ 	c #847B71",
"/ 	c #3A3935",
"( 	c #4A4944",
"_ 	c #4C4B46",
": 	c #544E48",
"< 	c #D5BFAA",
"[ 	c #F9DCC2",
"} 	c #F9DBBF",
"| 	c #F9DABE",
"1 	c #D4BEA9",
"2 	c #544E47",
"3 	c #4A4844",
"4 	c #3A3835",
"5 	c #564E47",
"6 	c #ECCAB1",
"7 	c #F9D2B4",
"8 	c #F9D1B2",
"9 	c #544D46",
"0 	c #3E3D39",
"a 	c #474642",
"b 	c #3B3A37",
"c 	c #D8B399",
"d 	c #F9CAA8",
"e 	c #F9C9A6",
"f 	c #D6B397",
"g 	c #43423E",
"h 	c #454440",
"i 	c #826D5E",
"j 	c #F8C29E",
"k 	c #F8C099",
"l 	c #EEB893",
"m 	c #CFA383",
"n 	c #7F6A5D",
"o 	c #393934",
"p 	c #43423D",
"q 	c #C2977A",
"r 	c #F8B98F",
"s 	c #F8B88D",
"t 	c #CF9D7A",
"u 	c #453E37",
"v 	c #C99876",
"w 	c #D09E7B",
"x 	c #C19779",
"y 	c #E8A981",
"z 	c #F8AF80",
"A 	c #F8B387",
"B 	c #D3A687",
"C 	c #473F37",
"D 	c #9D755A",
"E 	c #D4A588",
"F 	c #F8B386",
"G 	c #E6A880",
"H 	c #F3A97A",
"I 	c #F8A774",
"J 	c #F8AD7D",
"K 	c #A8836A",
"L 	c #35332F",
"M 	c #A9836A",
"N 	c #F8AC7C",
"O 	c #383634",
"P 	c #393734",
"Q 	c #E69969",
"R 	c #F89E69",
"S 	c #F89E68",
"T 	c #C48159",
"U 	c #473E36",
"V 	c #B4876C",
"W 	c #C58259",
"X 	c #E59869",
"Y 	c #383733",
"Z 	c #C17E55",
"` 	c #F8965C",
" .	c #F8955B",
"..	c #CF8151",
"+.	c #453B33",
"@.	c #CA906D",
"#.	c #F9A26F",
"$.	c #D08152",
"%.	c #C07E56",
"&.	c #7F5741",
"*.	c #F88F53",
"=.	c #F88D4F",
"-.	c #EE8E56",
";.	c #D18F69",
">.	c #D18F68",
",.	c #7D5741",
"'.	c #3C3B36",
").	c #3A3934",
"!.	c #D47943",
"~.	c #F78543",
"{.	c #F78442",
"].	c #F78544",
"^.	c #F78B4C",
"/.	c #F78A4C",
"(.	c #D37842",
"_.	c #534033",
":.	c #E9793A",
"<.	c #F77C37",
"[.	c #F77B36",
"}.	c #523F33",
"|.	c #513E32",
"1.	c #D0692F",
"2.	c #F7742B",
"3.	c #F7732A",
"4.	c #F7742C",
"5.	c #CF692F",
"6.	c #3A3834",
"7.	c #7E4A2C",
"8.	c #BC5D26",
"9.	c #E46620",
"0.	c #F76C1F",
"a.	c #7D492B",
"b.	c #383834",
"c.	c #000000",
". . . . . . . + @ # $ # # % & * * * * * * * * * * * ",
"$ $ $ $ $ $ = - ; ; > ; ; + # , ' ' ' ' ' ' ' ' ' ' ",
"$ $ $ $ $ ) - ! ~ { ] { ~ ^ / - % ( _ _ _ _ _ _ _ _ ",
"$ $ $ $ + : < [ } | | | } [ 1 2 - % 3 3 3 3 3 3 3 3 ",
"# $ $ 4 5 6 7 8 8 8 8 8 8 8 7 6 9 / 0 a a a a a a a ",
"# $ b 4 c d e e e e e e e e e d f / # g h h h h h h ",
"# $ 4 i j k k l m k k k m l k k j n o % p p p p p p ",
"/ $ ; q r s s t u v s v u w s s r x ; $ , , , , , , ",
"/ $ ; y z z z A B C D C E F z z z G ; $ 0 0 0 0 0 0 ",
"/ $ ; H I I I I J K L M N I I I I H O $ $ $ $ $ $ $ ",
"/ $ P Q R S S S T U V U W S S S R X Y $ $ $ $ $ $ $ ",
"/ $ ; Z `  . ...+.@.#.@.+.$. . .` %.; $ $ $ $ $ $ $ ",
"# $ 4 &.*.=.=.-.;. .=. .>.-.=.=.*.,.o $ $ $ $ $ $ $ ",
"# $ '.).!.~.{.].^.{.{.{./.].{.~.(.4 b $ $ $ $ $ $ $ ",
"# $ $ 4 _.:.<.[.[.[.[.[.[.[.<.:.}./ $ $ $ $ $ $ $ $ ",
"$ $ $ $ + |.1.2.2.3.3.3.2.4.5.|.- $ $ $ $ $ $ $ $ $ ",
"$ $ $ $ $ 6.6.7.8.9.0.9.8.a.6.- $ $ $ $ $ $ $ $ $ $ ",
"$ $ $ $ $ $ # - b.> ; > ; ) # $ $ $ $ $ $ $ $ $ $ $ ",
"c.c.c.c.c.c.c.c.c.c.c.c.c.c.c.c.c.c.c.c.c.c.c.c.c.c.",
"c.c.c.c.c.c.c.c.c.c.c.c.c.c.c.c.c.c.c.c.c.c.c.c.c.c.",
"c.c.c.c.c.c.c.c.c.c.c.c.c.c.c.c.c.c.c.c.c.c.c.c.c.c.",
"c.c.c.c.c.c.c.c.c.c.c.c.c.c.c.c.c.c.c.c.c.c.c.c.c.c.",
"c.c.c.c.c.c.c.c.c.c.c.c.c.c.c.c.c.c.c.c.c.c.c.c.c.c.",
"c.c.c.c.c.c.c.c.c.c.c.c.c.c.c.c.c.c.c.c.c.c.c.c.c.c.",
"c.c.c.c.c.c.c.c.c.c.c.c.c.c.c.c.c.c.c.c.c.c.c.c.c.c.",
"c.c.c.c.c.c.c.c.c.c.c.c.c.c.c.c.c.c.c.c.c.c.c.c.c.c.",
"c.c.c.c.c.c.c.c.c.c.c.c.c.c.c.c.c.c.c.c.c.c.c.c.c.c.",
"c.c.c.c.c.c.c.c.c.c.c.c.c.c.c.c.c.c.c.c.c.c.c.c.c.c.",
"c.c.c.c.c.c.c.c.c.c.c.c.c.c.c.c.c.c.c.c.c.c.c.c.c.c.",
"c.c.c.c.c.c.c.c.c.c.c.c.c.c.c.c.c.c.c.c.c.c.c.c.c.c.",
"c.c.c.c.c.c.c.c.c.c.c.c.c.c.c.c.c.c.c.c.c.c.c.c.c.c.",
"c.c.c.c.c.c.c.c.c.c.c.c.c.c.c.c.c.c.c.c.c.c.c.c.c.c.",
"c.c.c.c.c.c.c.c.c.c.c.c.c.c.c.c.c.c.c.c.c.c.c.c.c.c.",
"c.c.c.c.c.c.c.c.c.c.c.c.c.c.c.c.c.c.c.c.c.c.c.c.c.c.",
"c.c.c.c.c.c.c.c.c.c.c.c.c.c.c.c.c.c.c.c.c.c.c.c.c.c.",
"c.c.c.c.c.c.c.c.c.c.c.c.c.c.c.c.c.c.c.c.c.c.c.c.c.c."};
