/* XPM */
static char * frameABR_xpm[] = {
"22 21 9 1",
" 	c None",
".	c #ECECEC",
"+	c #BAB8B4",
"@	c #AAA6A4",
"#	c #4D3F45",
"$	c #797170",
"%	c #B5B3AF",
"&	c #ABA7A4",
"*	c #45373E",
"                  ...+",
"                  ...+",
"                  ...+",
"                  ...+",
"                  ...+",
"                  ...+",
"                  ...+",
"                  ...+",
"                  ...+",
"                  ...+",
"                  ...+",
"                  ...+",
"                  ...+",
"                  ...+",
"                  ...+",
"                  ...+",
"                  ...+",
"                  ...@",
".....................#",
"....................$ ",
"%%%%%%%%%%%%%%%%%%&*  "};
