/* XPM */
static char * maximizeI_xpm[] = {
"21 36 124 2",
"  	c None",
". 	c #363632",
"+ 	c #31312D",
"@ 	c #2E2D2A",
"# 	c #2A2926",
"$ 	c #262523",
"% 	c #2A2927",
"& 	c #2F2D2A",
"* 	c #33322E",
"= 	c #3C3B37",
"- 	c #393834",
"; 	c #2C2C28",
"> 	c #232220",
", 	c #201F1D",
"' 	c #1E1D1B",
") 	c #1C1C1A",
"! 	c #2C2B27",
"~ 	c #3B3A36",
"{ 	c #353431",
"] 	c #262524",
"^ 	c #201F1E",
"/ 	c #242322",
"( 	c #727270",
"_ 	c #969693",
": 	c #B3B3B1",
"< 	c #343330",
"[ 	c #4B4A48",
"} 	c #AEAEAD",
"| 	c #C0C0BE",
"1 	c #2E2E2A",
"2 	c #4C4C4A",
"3 	c #BDBDBC",
"4 	c #B8B8B6",
"5 	c #2D2D2A",
"6 	c #373732",
"7 	c #2B2A28",
"8 	c #2A2929",
"9 	c #AFAFAE",
"0 	c #4E4E4E",
"a 	c #373632",
"b 	c #3A3935",
"c 	c #373633",
"d 	c #2E2D2B",
"e 	c #777774",
"f 	c #363532",
"g 	c #3A3936",
"h 	c #302F2E",
"i 	c #9A9997",
"j 	c #B4B4B2",
"k 	c #393936",
"l 	c #3E3E3C",
"m 	c #323230",
"n 	c #BEBEBC",
"o 	c #BDBDBB",
"p 	c #3E3E3B",
"q 	c #383733",
"r 	c #444441",
"s 	c #373735",
"t 	c #B4B4B3",
"u 	c #B2B2AF",
"v 	c #B8B8B5",
"w 	c #B7B7B4",
"x 	c #464642",
"y 	c #3F3F3D",
"z 	c #9D9D9A",
"A 	c #BFBFBD",
"B 	c #B3B3B0",
"C 	c #ADADA9",
"D 	c #B3B2AE",
"E 	c #B2B1AD",
"F 	c #454542",
"G 	c #494846",
"H 	c #80807F",
"I 	c #BBBBB8",
"J 	c #AFAFAB",
"K 	c #A5A49F",
"L 	c #A6A6A0",
"M 	c #494847",
"N 	c #454441",
"O 	c #41403C",
"P 	c #565553",
"Q 	c #4B4A49",
"R 	c #AAAAA7",
"S 	c #ABABA6",
"T 	c #403F3B",
"U 	c #50504D",
"V 	c #555552",
"W 	c #656562",
"X 	c #AEADA8",
"Y 	c #A4A39D",
"Z 	c #9F9E98",
"` 	c #9C9B94",
" .	c #9A9991",
"..	c #504F4C",
"+.	c #3D3C38",
"@.	c #60605D",
"#.	c #545451",
"$.	c #9C9C96",
"%.	c #A2A19A",
"&.	c #9E9D95",
"*.	c #9B9A91",
"=.	c #3B3A37",
"-.	c #454440",
";.	c #565655",
">.	c #767670",
",.	c #83837B",
"'.	c #88877E",
").	c #666562",
"!.	c #444440",
"~.	c #5C5C58",
"{.	c #6E6E6B",
"].	c #646462",
"^.	c #5F5F5C",
"/.	c #5A5A57",
"(.	c #3C3B38",
"_.	c #484743",
":.	c #565653",
"<.	c #646461",
"[.	c #71716E",
"}.	c #646460",
"|.	c #474642",
"1.	c #000000",
"2.	c #010101",
"3.	c #020202",
". . . . . . + @ # $ $ % & * . . . . . . . ",
"= = = = - ; > , ' ) ) ' , > ! - ~ = = = = ",
"= = = { ] ^ / ( _ : : _ ( / ^ ] < ~ = = = ",
"= = - ] ' [ } | | | | | | } [ ' $ - ~ ~ = ",
"= ~ 1 > 2 3 4 4 4 4 4 4 4 4 3 2 > 5 ~ ~ ~ ",
"= 6 7 8 9 4 0 0 0 0 0 0 0 0 4 9 8 7 a b ~ ",
"= c d e | 4 0 0 0 0 0 0 0 0 4 | e d f - ~ ",
"= g h i | 4 0 j 4 4 4 4 j 0 4 | i h k - b ",
"= l m j | 4 0 4 n o o n 4 0 4 | j m p q b ",
"= r s t | 4 0 u v w w v u 0 4 | t s r q b ",
"= x y z A B 0 C D E E D C 0 B A z y F q b ",
"= F G H I J 0 K L K K L K 0 J I H M N - b ",
"= O P Q R S 0 0 0 0 0 0 0 0 S R Q P T - ~ ",
"= ~ U V W X Y Z `  . .` Z Y X W V ..b b ~ ",
"= ~ +.@.#.W $.%.&.*.*.&.%.$.W #.@.=.~ ~ ~ ",
"= = ~ -.W @.;.>.,.'.'.,.>.;.@.).!.~ ~ ~ = ",
"= = = ~ +.~.{.].^././.^.].{.~.(.b ~ = = = ",
"= = = = ~ ~ _.:.<.[.[.}.:.|.b ~ ~ = = = = ",
"1.1.1.1.1.1.2.2.3.3.3.3.3.2.2.1.1.1.1.1.1.",
"1.1.1.1.1.1.1.1.1.1.1.1.1.1.1.1.1.1.1.1.1.",
"1.1.1.1.1.1.1.1.1.1.1.1.1.1.1.1.1.1.1.1.1.",
"1.1.1.1.1.1.1.1.1.1.1.1.1.1.1.1.1.1.1.1.1.",
"1.1.1.1.1.1.1.1.1.1.1.1.1.1.1.1.1.1.1.1.1.",
"1.1.1.1.1.1.1.1.1.1.1.1.1.1.1.1.1.1.1.1.1.",
"1.1.1.1.1.1.1.1.1.1.1.1.1.1.1.1.1.1.1.1.1.",
"1.1.1.1.1.1.1.1.1.1.1.1.1.1.1.1.1.1.1.1.1.",
"1.1.1.1.1.1.1.1.1.1.1.1.1.1.1.1.1.1.1.1.1.",
"1.1.1.1.1.1.1.1.1.1.1.1.1.1.1.1.1.1.1.1.1.",
"1.1.1.1.1.1.1.1.1.1.1.1.1.1.1.1.1.1.1.1.1.",
"1.1.1.1.1.1.1.1.1.1.1.1.1.1.1.1.1.1.1.1.1.",
"1.1.1.1.1.1.1.1.1.1.1.1.1.1.1.1.1.1.1.1.1.",
"1.1.1.1.1.1.1.1.1.1.1.1.1.1.1.1.1.1.1.1.1.",
"1.1.1.1.1.1.1.1.1.1.1.1.1.1.1.1.1.1.1.1.1.",
"1.1.1.1.1.1.1.1.1.1.1.1.1.1.1.1.1.1.1.1.1.",
"1.1.1.1.1.1.1.1.1.1.1.1.1.1.1.1.1.1.1.1.1.",
"1.1.1.1.1.1.1.1.1.1.1.1.1.1.1.1.1.1.1.1.1."};
