/* XPM */
static char * minimizeA_xpm[] = {
"21 36 120 2",
"  	c None",
". 	c #504F4B",
"+ 	c #4F4E4A",
"@ 	c #4E4D49",
"# 	c #474643",
"$ 	c #3A3A36",
"% 	c #383733",
"& 	c #373733",
"* 	c #373632",
"= 	c #353531",
"- 	c #363632",
"; 	c #4E4D48",
"> 	c #4D4C47",
", 	c #4B4A45",
"' 	c #3D3C37",
") 	c #373633",
"! 	c #393834",
"~ 	c #3A3935",
"{ 	c #3B3A36",
"] 	c #3C3B37",
"^ 	c #4C4B46",
"/ 	c #474641",
"( 	c #595854",
"_ 	c #74736E",
": 	c #878682",
"< 	c #989792",
"[ 	c #4A4844",
"} 	c #494743",
"| 	c #474642",
"1 	c #42423E",
"2 	c #82817D",
"3 	c #94938D",
"4 	c #91908B",
"5 	c #8E8D89",
"6 	c #8C8B85",
"7 	c #454441",
"8 	c #3D3C38",
"9 	c #444340",
"0 	c #8A8985",
"a 	c #8D8D86",
"b 	c #888781",
"c 	c #878780",
"d 	c #86857F",
"e 	c #43423F",
"f 	c #454440",
"g 	c #41403C",
"h 	c #7E7D77",
"i 	c #898881",
"j 	c #84837D",
"k 	c #83827C",
"l 	c #82817B",
"m 	c #81807A",
"n 	c #807F79",
"o 	c #84837C",
"p 	c #898882",
"q 	c #7D7C75",
"r 	c #383734",
"s 	c #43423D",
"t 	c #3B3A35",
"u 	c #55544F",
"v 	c #7F7E78",
"w 	c #7F7E77",
"x 	c #7E7D76",
"y 	c #7C7B74",
"z 	c #7B7A73",
"A 	c #7A7973",
"B 	c #54544F",
"C 	c #403F3B",
"D 	c #6E6E68",
"E 	c #7D7C76",
"F 	c #797871",
"G 	c #787770",
"H 	c #77766F",
"I 	c #3E3D39",
"J 	c #76756E",
"K 	c #75746D",
"L 	c #797872",
"M 	c #7A7A73",
"N 	c #73726B",
"O 	c #74736C",
"P 	c #72716A",
"Q 	c #797972",
"R 	c #71706B",
"S 	c #706F68",
"T 	c #71706A",
"U 	c #6F6F68",
"V 	c #706F6A",
"W 	c #605F5B",
"X 	c #6D6C66",
"Y 	c #6C6B64",
"Z 	c #6E6D66",
"` 	c #706F69",
" .	c #6B6A64",
"..	c #686761",
"+.	c #696862",
"@.	c #6F6E67",
"#.	c #676660",
"$.	c #4A4945",
"%.	c #393835",
"&.	c #5F5F5A",
"*.	c #66655F",
"=.	c #64635D",
"-.	c #65655E",
";.	c #6A6962",
">.	c #595954",
",.	c #3E3D3A",
"'.	c #61605A",
").	c #62615B",
"!.	c #63625C",
"~.	c #62625C",
"{.	c #3B3A37",
"].	c #5F5E59",
"^.	c #5E5D58",
"/.	c #5D5C57",
"(.	c #51514B",
"_.	c #595953",
":.	c #5A5A55",
"<.	c #000000",
"[.	c #010101",
"}.	c #020202",
". . . + + @ # $ % % % & * * = = = = - - - ",
"; ; > > , ' % ) % % % % % ) % ! ~ { { ] ] ",
"^ , , / ! ) % ( _ : < : _ ( % % % ~ { { ] ",
"[ } | ~ * 1 2 3 4 5 6 5 4 3 2 1 * % ~ { ] ",
"| 7 8 ) 9 0 a b c d d d c b a 0 e ) ! ~ { ",
"f g % ! h i j k l m n m l k o p q r % ~ { ",
"s t ) u d v w x y z A z y x w v d B ) ! { ",
"C ! ) D E A A F G H H H G F A A E D % % ~ ",
"I % % A H H J J J J K J J J J H H L % % ~ ",
"] % % M N N O ~ ~ ~ ~ ~ ~ ~ O N P Q % % ~ ",
"] % % R S S T A z y y y z A T U S V % % ~ ",
"] % % W X Y Z ` P N O N P S Z Y X W % % ~ ",
"] ! * ^  ...+. .Z @.S @.Z  .+.#. .$.) %.{ ",
"] ~ % ! &.*.=.-...+.;.+...-.=.*.>.% % ~ { ",
"] ~ ! * ,.'.).'.).!.=.!.).'.~.W ' ) ! ~ { ",
"] { ~ ! * {.u ].^./././.^.].u ] * % ~ { ] ",
"] { { ~ % * % f (._.:._.(.f % ) % ~ { { ] ",
"] ] { { ~ r % ) ) % % % ) ) % ! ~ { { ] ] ",
"<.<.<.<.<.<.[.[.}.}.}.}.}.[.[.<.<.<.<.<.<.",
"<.<.<.<.<.<.<.<.<.<.<.<.<.<.<.<.<.<.<.<.<.",
"<.<.<.<.<.<.<.<.<.<.<.<.<.<.<.<.<.<.<.<.<.",
"<.<.<.<.<.<.<.<.<.<.<.<.<.<.<.<.<.<.<.<.<.",
"<.<.<.<.<.<.<.<.<.<.<.<.<.<.<.<.<.<.<.<.<.",
"<.<.<.<.<.<.<.<.<.<.<.<.<.<.<.<.<.<.<.<.<.",
"<.<.<.<.<.<.<.<.<.<.<.<.<.<.<.<.<.<.<.<.<.",
"<.<.<.<.<.<.<.<.<.<.<.<.<.<.<.<.<.<.<.<.<.",
"<.<.<.<.<.<.<.<.<.<.<.<.<.<.<.<.<.<.<.<.<.",
"<.<.<.<.<.<.<.<.<.<.<.<.<.<.<.<.<.<.<.<.<.",
"<.<.<.<.<.<.<.<.<.<.<.<.<.<.<.<.<.<.<.<.<.",
"<.<.<.<.<.<.<.<.<.<.<.<.<.<.<.<.<.<.<.<.<.",
"<.<.<.<.<.<.<.<.<.<.<.<.<.<.<.<.<.<.<.<.<.",
"<.<.<.<.<.<.<.<.<.<.<.<.<.<.<.<.<.<.<.<.<.",
"<.<.<.<.<.<.<.<.<.<.<.<.<.<.<.<.<.<.<.<.<.",
"<.<.<.<.<.<.<.<.<.<.<.<.<.<.<.<.<.<.<.<.<.",
"<.<.<.<.<.<.<.<.<.<.<.<.<.<.<.<.<.<.<.<.<.",
"<.<.<.<.<.<.<.<.<.<.<.<.<.<.<.<.<.<.<.<.<."};
