/* XPM */
static char * minimizeI_xpm[] = {
"21 36 129 2",
"  	c None",
". 	c #504F4B",
"+ 	c #4F4E4A",
"@ 	c #403F3C",
"# 	c #302F2C",
"$ 	c #2A2927",
"% 	c #262523",
"& 	c #2F2D2A",
"* 	c #33322E",
"= 	c #363632",
"- 	c #4E4D48",
"; 	c #4A4944",
"> 	c #2E2D29",
", 	c #232220",
"' 	c #201F1D",
") 	c #1E1D1B",
"! 	c #1C1C1A",
"~ 	c #2C2B27",
"{ 	c #393834",
"] 	c #3B3A36",
"^ 	c #3C3B37",
"/ 	c #4C4B46",
"( 	c #403F3B",
"_ 	c #262524",
": 	c #201F1E",
"< 	c #242322",
"[ 	c #727270",
"} 	c #969693",
"| 	c #B3B3B1",
"1 	c #343330",
"2 	c #4A4844",
"3 	c #464441",
"4 	c #4B4A48",
"5 	c #AEAEAD",
"6 	c #C0C0BE",
"7 	c #383733",
"8 	c #474642",
"9 	c #464542",
"0 	c #4C4C4A",
"a 	c #BFBFBE",
"b 	c #2D2D2A",
"c 	c #454440",
"d 	c #3D3C38",
"e 	c #2B2A28",
"f 	c #2A2929",
"g 	c #AFAFAE",
"h 	c #373632",
"i 	c #43423D",
"j 	c #383734",
"k 	c #2E2D2B",
"l 	c #777774",
"m 	c #363533",
"n 	c #3A3A36",
"o 	c #302F2E",
"p 	c #9A9997",
"q 	c #BEBEBC",
"r 	c #B8B8B6",
"s 	c #393936",
"t 	c #3A3935",
"u 	c #3E3D39",
"v 	c #3E3E3C",
"w 	c #323230",
"x 	c #B4B4B2",
"y 	c #4E4E4E",
"z 	c #444441",
"A 	c #373735",
"B 	c #B4B4B3",
"C 	c #464642",
"D 	c #3F3F3D",
"E 	c #9D9D9A",
"F 	c #BFBFBD",
"G 	c #B9B9B6",
"H 	c #B0AFAC",
"I 	c #ADADA9",
"J 	c #ABAAA6",
"K 	c #AAA9A6",
"L 	c #454542",
"M 	c #494846",
"N 	c #80807F",
"O 	c #BBBBB8",
"P 	c #B7B7B3",
"Q 	c #B3B3AE",
"R 	c #B0AFAA",
"S 	c #ADADA7",
"T 	c #ACABA6",
"U 	c #494847",
"V 	c #454441",
"W 	c #41403C",
"X 	c #565553",
"Y 	c #4B4A49",
"Z 	c #AAAAA7",
"` 	c #AEAEA9",
" .	c #ABAAA4",
"..	c #A8A7A1",
"+.	c #A6A69F",
"@.	c #50504D",
"#.	c #555552",
"$.	c #656562",
"%.	c #A6A59F",
"&.	c #A3A29B",
"*.	c #A1A098",
"=.	c #50504C",
"-.	c #60605D",
";.	c #545451",
">.	c #9C9C96",
",.	c #A2A19A",
"'.	c #9E9D95",
").	c #9B9A91",
"!.	c #3B3A37",
"~.	c #464541",
"{.	c #565655",
"].	c #767670",
"^.	c #83837B",
"/.	c #88877E",
"(.	c #666562",
"_.	c #444440",
":.	c #5C5C58",
"<.	c #6E6E6B",
"[.	c #646462",
"}.	c #5F5F5C",
"|.	c #5A5A57",
"1.	c #3C3B38",
"2.	c #3A3936",
"3.	c #484743",
"4.	c #565653",
"5.	c #646461",
"6.	c #71716E",
"7.	c #646460",
"8.	c #000000",
". . . . . + @ # $ % % $ & * = = = = = = = ",
"- - - - ; > , ' ) ! ! ) ' , ~ { ] ^ ^ ^ ^ ",
"/ / / ( _ : < [ } | | } [ < : _ 1 ] ^ ^ ^ ",
"2 2 3 _ ) 4 5 6 6 6 6 6 6 5 4 ) % 7 ] ^ ^ ",
"8 9 # , 0 a 6 6 6 6 6 6 6 6 a 0 , b ] ] ] ",
"c d e f g 6 6 6 6 6 6 6 6 6 6 g f e h ] ] ",
"i j k l 6 6 6 6 6 6 6 6 6 6 6 6 l k m ] ] ",
"( n o p 6 q r r r r r r r r q 6 p o s t t ",
"u v w x 6 r y y y y y y y y r 6 x w v t t ",
"^ z A B 6 r y y y y y y y y r 6 B A z t t ",
"^ C D E F G H I J K K J I H G F E D L t t ",
"^ L M N O P Q R S T T S R Q P O N U V t t ",
"^ W X Y Z Q `  ...+.+... .` Q Z Y X ( ] ] ",
"^ ] @.#.$.R  .%.&.*.*.&.%. .R $.#.=.t ] ] ",
"^ ] d -.;.$.>.,.'.).).'.,.>.$.;.-.!.] ] ] ",
"^ ^ ] ~.$.-.{.].^././.^.].{.-.(._.t ] ^ ^ ",
"^ ^ ^ ] d :.<.[.}.|.|.}.[.<.:.1.t ] ^ ^ ^ ",
"^ ^ ^ ^ ] 2.3.4.5.6.6.7.X 8 t ] ] ^ ^ ^ ^ ",
"8.8.8.8.8.8.8.8.8.8.8.8.8.8.8.8.8.8.8.8.8.",
"8.8.8.8.8.8.8.8.8.8.8.8.8.8.8.8.8.8.8.8.8.",
"8.8.8.8.8.8.8.8.8.8.8.8.8.8.8.8.8.8.8.8.8.",
"8.8.8.8.8.8.8.8.8.8.8.8.8.8.8.8.8.8.8.8.8.",
"8.8.8.8.8.8.8.8.8.8.8.8.8.8.8.8.8.8.8.8.8.",
"8.8.8.8.8.8.8.8.8.8.8.8.8.8.8.8.8.8.8.8.8.",
"8.8.8.8.8.8.8.8.8.8.8.8.8.8.8.8.8.8.8.8.8.",
"8.8.8.8.8.8.8.8.8.8.8.8.8.8.8.8.8.8.8.8.8.",
"8.8.8.8.8.8.8.8.8.8.8.8.8.8.8.8.8.8.8.8.8.",
"8.8.8.8.8.8.8.8.8.8.8.8.8.8.8.8.8.8.8.8.8.",
"8.8.8.8.8.8.8.8.8.8.8.8.8.8.8.8.8.8.8.8.8.",
"8.8.8.8.8.8.8.8.8.8.8.8.8.8.8.8.8.8.8.8.8.",
"8.8.8.8.8.8.8.8.8.8.8.8.8.8.8.8.8.8.8.8.8.",
"8.8.8.8.8.8.8.8.8.8.8.8.8.8.8.8.8.8.8.8.8.",
"8.8.8.8.8.8.8.8.8.8.8.8.8.8.8.8.8.8.8.8.8.",
"8.8.8.8.8.8.8.8.8.8.8.8.8.8.8.8.8.8.8.8.8.",
"8.8.8.8.8.8.8.8.8.8.8.8.8.8.8.8.8.8.8.8.8.",
"8.8.8.8.8.8.8.8.8.8.8.8.8.8.8.8.8.8.8.8.8."};
