/* XPM */
static char * restoreI_xpm[] = {
"21 36 114 2",
"  	c None",
". 	c #363632",
"+ 	c #383733",
"@ 	c #393834",
"# 	c #393935",
"$ 	c #3A3935",
"% 	c #3C3B37",
"& 	c #3B3A36",
"* 	c #343330",
"= 	c #2F2D2A",
"- 	c #2A2926",
"; 	c #262522",
"> 	c #2F2D2B",
", 	c #353430",
"' 	c #373633",
") 	c #2B2B27",
"! 	c #232220",
"~ 	c #201F1D",
"{ 	c #1E1D1B",
"] 	c #1C1C1A",
"^ 	c #333330",
"/ 	c #272624",
"( 	c #201F1E",
"_ 	c #232221",
": 	c #686865",
"< 	c #8D8D8B",
"[ 	c #AFAFAE",
"} 	c #262523",
"| 	c #353431",
"1 	c #272625",
"2 	c #434340",
"3 	c #AAAAA8",
"4 	c #C0C0BE",
"5 	c #262524",
"6 	c #2D2D2A",
"7 	c #454442",
"8 	c #BEBEBD",
"9 	c #2E2D2A",
"0 	c #363531",
"a 	c #2B2A28",
"b 	c #292928",
"c 	c #ABAAA9",
"d 	c #BCBCBA",
"e 	c #B8B8B6",
"f 	c #363532",
"g 	c #2E2D2B",
"h 	c #6E6E6C",
"i 	c #4E4E4E",
"j 	c #302F2E",
"k 	c #939290",
"l 	c #3E3E3B",
"m 	c #323230",
"n 	c #B1B1B0",
"o 	c #B2B2B0",
"p 	c #B5B5B3",
"q 	c #444441",
"r 	c #373735",
"s 	c #B5B5B2",
"t 	c #B0B0AD",
"u 	c #B7B7B4",
"v 	c #464542",
"w 	c #3F3F3D",
"x 	c #979794",
"y 	c #BFBFBD",
"z 	c #BBBBB8",
"A 	c #B0AFAC",
"B 	c #A8A7A3",
"C 	c #AAA9A6",
"D 	c #454441",
"E 	c #494846",
"F 	c #7B7B79",
"G 	c #B7B7B3",
"H 	c #ABABA6",
"I 	c #494847",
"J 	c #40403C",
"K 	c #565553",
"L 	c #4A4948",
"M 	c #A8A8A5",
"N 	c #B3B3AE",
"O 	c #A4A39D",
"P 	c #A1A09A",
"Q 	c #9F9F98",
"R 	c #50504D",
"S 	c #555552",
"T 	c #63635F",
"U 	c #B0AFAA",
"V 	c #ABAAA4",
"W 	c #A6A59F",
"X 	c #A3A29B",
"Y 	c #A1A098",
"Z 	c #51504D",
"` 	c #60605D",
" .	c #545451",
"..	c #646461",
"+.	c #9B9B95",
"@.	c #A2A19A",
"#.	c #9E9D95",
"$.	c #9B9A91",
"%.	c #3D3C38",
"&.	c #454440",
"*.	c #656562",
"=.	c #565655",
"-.	c #767671",
";.	c #83837B",
">.	c #88877F",
",.	c #464541",
"'.	c #3E3D39",
").	c #5D5C58",
"!.	c #6E6E6B",
"~.	c #646462",
"{.	c #5F5F5C",
"].	c #5A5A57",
"^.	c #5D5D59",
"/.	c #000000",
". . . . . . . + @ # $ # @ + . . . . . . . ",
"% % % % & & $ * = - ; ; - > , & & % % % % ",
"% % % & $ ' ) ! ~ { ] ] { ~ ! ) + & % % % ",
"% % & $ ^ / ( _ : < [ [ < : _ ( } | & & % ",
"% & & ' 1 { 2 3 4 4 4 4 4 4 3 2 { 5 @ & & ",
"% & $ 6 ! 7 8 4 4 4 4 4 4 4 4 8 7 ! 9 $ & ",
"% & 0 a b c 4 d e e e e e e d 4 c b a 0 & ",
"% $ f g h 4 4 e i i i i i i e 4 4 h g f $ ",
"% $ # j k 4 4 e i i i i i i e 4 4 k j # $ ",
"% $ l m n 4 4 e i o p p o i e 4 4 n m l $ ",
"% $ q r n 4 4 s i t u u t i s 4 4 n r q $ ",
"% $ v w x y z A i B C C B i A z y x w v $ ",
"% & D E F z G H i i i i i i H G z F I D & ",
"% & J K L M N H O P Q Q P O H N M L K J & ",
"% & & R S T U V W X Y Y X W V U T S Z & & ",
"% % & % `  ...+.@.#.$.$.#.@.+... .` %.& % ",
"% % % & &.*.` =.-.;.>.>.;.-.=.` *.,.% % % ",
"% % % % & '.).!.~.{.].].{.~.!.^.'.% % % % ",
"/././././././././././././././././././././.",
"/././././././././././././././././././././.",
"/././././././././././././././././././././.",
"/././././././././././././././././././././.",
"/././././././././././././././././././././.",
"/././././././././././././././././././././.",
"/././././././././././././././././././././.",
"/././././././././././././././././././././.",
"/././././././././././././././././././././.",
"/././././././././././././././././././././.",
"/././././././././././././././././././././.",
"/././././././././././././././././././././.",
"/././././././././././././././././././././.",
"/././././././././././././././././././././.",
"/././././././././././././././././././././.",
"/././././././././././././././././././././.",
"/././././././././././././././././././././.",
"/././././././././././././././././././././."};
