/* XPM */
static char * restoreA_xpm[] = {
"21 36 114 2",
"  	c None",
". 	c #363632",
"+ 	c #353531",
"@ 	c #373632",
"# 	c #373733",
"$ 	c #383733",
"% 	c #3C3B37",
"& 	c #3B3A36",
"* 	c #3A3935",
"= 	c #393835",
"- 	c #373633",
"; 	c #393834",
"> 	c #53524E",
", 	c #777671",
"' 	c #878782",
") 	c #94938E",
"! 	c #888782",
"~ 	c #787773",
"{ 	c #555450",
"] 	c #41403B",
"^ 	c #7C7B77",
"/ 	c #93928D",
"( 	c #91908B",
"_ 	c #8E8D89",
": 	c #8C8B85",
"< 	c #94938D",
"[ 	c #807F7A",
"} 	c #43423E",
"| 	c #41403C",
"1 	c #878681",
"2 	c #8D8D86",
"3 	c #888781",
"4 	c #878780",
"5 	c #878680",
"6 	c #86857F",
"7 	c #898884",
"8 	c #41403D",
"9 	c #7A7A74",
"0 	c #898881",
"a 	c #84837D",
"b 	c #83827C",
"c 	c #82817B",
"d 	c #81807A",
"e 	c #807F79",
"f 	c #898882",
"g 	c #7D7C75",
"h 	c #51504C",
"i 	c #7F7E78",
"j 	c #7E7D76",
"k 	c #7C7B74",
"l 	c #7B7A73",
"m 	c #7A7973",
"n 	c #54544F",
"o 	c #6B6A64",
"p 	c #3E3D39",
"q 	c #706F69",
"r 	c #76756F",
"s 	c #787770",
"t 	c #77766F",
"u 	c #363531",
"v 	c #777670",
"w 	c #73726B",
"x 	c #74736C",
"y 	c #75746D",
"z 	c #6F6E69",
"A 	c #706F68",
"B 	c #72716A",
"C 	c #73726C",
"D 	c #605F5B",
"E 	c #6D6C66",
"F 	c #6C6B65",
"G 	c #6E6D67",
"H 	c #3E3D38",
"I 	c #64635E",
"J 	c #4C4B46",
"K 	c #686761",
"L 	c #6A6962",
"M 	c #75746E",
"N 	c #767670",
"O 	c #75746F",
"P 	c #73736D",
"Q 	c #4E4D48",
"R 	c #5F5F5A",
"S 	c #66655F",
"T 	c #64645E",
"U 	c #6A6963",
"V 	c #61615B",
"W 	c #383734",
"X 	c #3F3E3B",
"Y 	c #61605C",
"Z 	c #62625C",
"` 	c #61605A",
" .	c #62615B",
"..	c #63625C",
"+.	c #64635D",
"@.	c #61605B",
"#.	c #62615D",
"$.	c #403F3B",
"%.	c #3C3B38",
"&.	c #565550",
"*.	c #5F5E59",
"=.	c #5E5D58",
"-.	c #5E5D57",
";.	c #5C5B56",
">.	c #484742",
",.	c #53534D",
"'.	c #5A5A54",
").	c #5A5955",
"!.	c #54544E",
"~.	c #494843",
"{.	c #000000",
"].	c #010101",
"^.	c #020202",
"/.	c #030302",
". . . + + + + @ @ # $ # @ @ + + + + . . . ",
"% % & & * = $ - $ $ $ $ $ - $ ; * & & % % ",
"% & & * $ - $ > , ' ) ! ~ { $ - $ * & & % ",
"% & * $ $ ] ^ / ( _ : _ ( < [ } @ ; * * % ",
"% * = - | 1 2 3 4 5 6 6 4 3 2 7 8 - ; * & ",
"% * $ $ 9 0 a b c d e d c b a f g ; $ ; & ",
"% = - h 6 i i j k l m l k j i i 6 n - - & ",
"% $ - o j l m p * * * * * * m l j q $ @ * ",
"% $ $ r s t t p g g k g g p t t s m $ u * ",
"% $ $ v w w x p y y y y y p x w w m $ u * ",
"% $ $ z A q B p x y y y y p B q A C $ u * ",
"% $ $ D E F G H * * * * * * G F E I - @ * ",
"% ; @ J o K L w M N , N O P L K F Q @ - & ",
"% * $ ; R S T S K L U L K S T S V W $ ; & ",
"% * ; - X Y Z `  ...+.+. .@.Z #.$.- ; * & ",
"% & * $ @ %.&.*.=.-.-.-.=.*.;.$.@ ; * * % ",
"% & & * $ - $ >.,.'.).'.!.~.$ - $ * & & % ",
"% % & & * ; $ - - $ $ $ - @ $ ; * & & % % ",
"{.{.{.{.{.{.].].^.^./.^.^.].].{.{.{.{.{.{.",
"{.{.{.{.{.{.{.{.{.{.{.{.{.{.{.{.{.{.{.{.{.",
"{.{.{.{.{.{.{.{.{.{.{.{.{.{.{.{.{.{.{.{.{.",
"{.{.{.{.{.{.{.{.{.{.{.{.{.{.{.{.{.{.{.{.{.",
"{.{.{.{.{.{.{.{.{.{.{.{.{.{.{.{.{.{.{.{.{.",
"{.{.{.{.{.{.{.{.{.{.{.{.{.{.{.{.{.{.{.{.{.",
"{.{.{.{.{.{.{.{.{.{.{.{.{.{.{.{.{.{.{.{.{.",
"{.{.{.{.{.{.{.{.{.{.{.{.{.{.{.{.{.{.{.{.{.",
"{.{.{.{.{.{.{.{.{.{.{.{.{.{.{.{.{.{.{.{.{.",
"{.{.{.{.{.{.{.{.{.{.{.{.{.{.{.{.{.{.{.{.{.",
"{.{.{.{.{.{.{.{.{.{.{.{.{.{.{.{.{.{.{.{.{.",
"{.{.{.{.{.{.{.{.{.{.{.{.{.{.{.{.{.{.{.{.{.",
"{.{.{.{.{.{.{.{.{.{.{.{.{.{.{.{.{.{.{.{.{.",
"{.{.{.{.{.{.{.{.{.{.{.{.{.{.{.{.{.{.{.{.{.",
"{.{.{.{.{.{.{.{.{.{.{.{.{.{.{.{.{.{.{.{.{.",
"{.{.{.{.{.{.{.{.{.{.{.{.{.{.{.{.{.{.{.{.{.",
"{.{.{.{.{.{.{.{.{.{.{.{.{.{.{.{.{.{.{.{.{.",
"{.{.{.{.{.{.{.{.{.{.{.{.{.{.{.{.{.{.{.{.{."};
