/* XPM */
static char * closeA_xpm[] = {
"26 50 42 1",
" 	c None",
".	c #2C2C2C",
"+	c #303030",
"@	c #343434",
"#	c #383838",
"$	c #155174",
"%	c #3B3B3B",
"&	c #5B99BC",
"*	c #3F3F3F",
"=	c #5591B3",
"-	c #414141",
";	c #4783A6",
">	c #3A7293",
",	c #3D3D3D",
"'	c #29698E",
")	c #1B5E85",
"!	c #FFFFFF",
"~	c #393939",
"{	c #14567C",
"]	c #373737",
"^	c #104A6B",
"/	c #353535",
"(	c #0E425F",
"_	c #333333",
":	c #313131",
"<	c #135276",
"[	c #2F2F2F",
"}	c #095885",
"|	c #2D2D2D",
"1	c #06649A",
"2	c #2B2B2B",
"3	c #0075B8",
"4	c #292929",
"5	c #0084D0",
"6	c #272727",
"7	c #008CDC",
"8	c #252525",
"9	c #06A4FF",
"0	c #232323",
"a	c #212121",
"b	c #191919",
"c	c #151515",
"..........................",
"++++++++++++++++++++++++++",
"@@@@@@@@@@@@@@@@@@@@@@@@@@",
"########$$$$$#############",
"%%%%%%$$&&&&&$$%%%%%%%%%%%",
"****$$=========$$*********",
"$$-$;;;;;;;;;;;;;$--------",
"&**$&>>>>>>>>>>>&$********",
"$,$&'''''''''''''&$,,,,,,,",
"%%$&)))!)))))!)))&$%%%%%%%",
"~$&{{{{{!{{{!{{{{{&$~~~~~~",
"]$&^^^^^^!^!^^^^^^&$]]]]]]",
"/$&(((((((!(((((((&$//////",
"_$&^^^^^^!^!^^^^^^&$______",
":$&<<<<<!<<<!<<<<<&$::::::",
"[[$&}}}!}}}}}!}}}&$[[[[[[[",
"$|$&1111111111111&$|||||||",
"&22$&33333333333&$22222222",
"$$4$5555555555555$44444444",
"6666$$777777777$$666666666",
"888888$$99999$$88888888888",
"00000000$$$$$0000000000000",
"aaaaaaaaaaaaaaaaaaaaaaaaaa",
"bbbbbbbbbbbbbbbbbbbbbbbbbb",
"cccccccccccccccccccccccccc",
"..........................",
"++++++++++++++++++++++++++",
"@@@@@@@@@@@@@@@@@@@@@@@@@@",
"########$$$$$#############",
"%%%%%%$$&&&&&$$%%%%%%%%%%%",
"****$$=========$$*********",
"$$-$;;;;;;;;;;;;;$--------",
"&**$&>>>>>>>>>>>&$********",
"$,$&'''''''''''''&$,,,,,,,",
"%%$&)))!)))))!)))&$%%%%%%%",
"~$&{{{{{!{{{!{{{{{&$~~~~~~",
"]$&^^^^^^!^!^^^^^^&$]]]]]]",
"/$&(((((((!(((((((&$//////",
"_$&^^^^^^!^!^^^^^^&$______",
":$&<<<<<!<<<!<<<<<&$::::::",
"[[$&}}}!}}}}}!}}}&$[[[[[[[",
"$|$&1111111111111&$|||||||",
"&22$&33333333333&$22222222",
"$$4$5555555555555$44444444",
"6666$$777777777$$666666666",
"888888$$99999$$88888888888",
"00000000$$$$$0000000000000",
"aaaaaaaaaaaaaaaaaaaaaaaaaa",
"bbbbbbbbbbbbbbbbbbbbbbbbbb",
"cccccccccccccccccccccccccc"};
