/* XPM */
static char * close_xpm[] = {
"26 50 32 1",
" 	c None",
".	c #2C2C2C",
"+	c #303030",
"@	c #343434",
"#	c #383838",
"$	c #474747",
"%	c #3B3B3B",
"&	c #858585",
"*	c #3F3F3F",
"=	c #7B7B7B",
"-	c #414141",
";	c #727272",
">	c #5F5F5F",
",	c #3D3D3D",
"'	c #555555",
")	c #FFFFFF",
"!	c #393939",
"~	c #373737",
"{	c #2E2E2E",
"]	c #353535",
"^	c #292929",
"/	c #333333",
"(	c #313131",
"_	c #2F2F2F",
":	c #2D2D2D",
"<	c #2B2B2B",
"[	c #272727",
"}	c #252525",
"|	c #232323",
"1	c #212121",
"2	c #191919",
"3	c #151515",
"..........................",
"++++++++++++++++++++++++++",
"@@@@@@@@@@@@@@@@@@@@@@@@@@",
"########$$$$$#############",
"%%%%%%$$&&&&&$$%%%%%%%%%%%",
"****$$=========$$*********",
"$$-$;;;;;;;;;;;;;$--------",
"&**$&>>>>>>>>>>>&$********",
"$,$&'''''''''''''&$,,,,,,,",
"%%$&$$$)$$$$$)$$$&$%%%%%%%",
"!$&,,,,,),,,),,,,,&$!!!!!!",
"~$&{{{{{{){){{{{{{&$~~~~~~",
"]$&^^^^^^^)^^^^^^^&$]]]]]]",
"/$&{{{{{{){){{{{{{&$//////",
"($&,,,,,),,,),,,,,&$((((((",
"__$&$$$)$$$$$)$$$&$_______",
"$:$&'''''''''''''&$:::::::",
"&<<$&>>>>>>>>>>>&$<<<<<<<<",
"$$^$;;;;;;;;;;;;;$^^^^^^^^",
"[[[[$$=========$$[[[[[[[[[",
"}}}}}}$$&&&&&$$}}}}}}}}}}}",
"||||||||$$$$$|||||||||||||",
"11111111111111111111111111",
"22222222222222222222222222",
"33333333333333333333333333",
"..........................",
"++++++++++++++++++++++++++",
"@@@@@@@@@@@@@@@@@@@@@@@@@@",
"########$$$$$#############",
"%%%%%%$$&&&&&$$%%%%%%%%%%%",
"****$$=========$$*********",
"$$-$;;;;;;;;;;;;;$--------",
"&**$&>>>>>>>>>>>&$********",
"$,$&'''''''''''''&$,,,,,,,",
"%%$&$$$)$$$$$)$$$&$%%%%%%%",
"!$&,,,,,),,,),,,,,&$!!!!!!",
"~$&{{{{{{){){{{{{{&$~~~~~~",
"]$&^^^^^^^)^^^^^^^&$]]]]]]",
"/$&{{{{{{){){{{{{{&$//////",
"($&,,,,,),,,),,,,,&$((((((",
"__$&$$$)$$$$$)$$$&$_______",
"$:$&'''''''''''''&$:::::::",
"&<<$&>>>>>>>>>>>&$<<<<<<<<",
"$$^$;;;;;;;;;;;;;$^^^^^^^^",
"[[[[$$=========$$[[[[[[[[[",
"}}}}}}$$&&&&&$$}}}}}}}}}}}",
"||||||||$$$$$|||||||||||||",
"11111111111111111111111111",
"22222222222222222222222222",
"33333333333333333333333333"};
