/* XPM */
static char * frameAB_xpm[] = {
"1 5 4 1",
" 	c None",
".	c #000000",
"+	c #272727",
"@	c #2C2C2C",
".",
"+",
"@",
"+",
"."};
