/* XPM */
static char * maximizeA_xpm[] = {
"20 50 36 1",
" 	c None",
".	c #2C2C2C",
"+	c #303030",
"@	c #343434",
"#	c #383838",
"$	c #3B3B3B",
"%	c #3F3F3F",
"&	c #155174",
"*	c #414141",
"=	c #5B99BC",
"-	c #3D3D3D",
";	c #4783A6",
">	c #3A7293",
",	c #FFFFFF",
"'	c #393939",
")	c #265C7B",
"!	c #373737",
"~	c #104A6B",
"{	c #353535",
"]	c #0E425F",
"^	c #333333",
"/	c #313131",
"(	c #06649A",
"_	c #2F2F2F",
":	c #0075B8",
"<	c #2D2D2D",
"[	c #0084D0",
"}	c #2B2B2B",
"|	c #06A4FF",
"1	c #292929",
"2	c #272727",
"3	c #252525",
"4	c #232323",
"5	c #212121",
"6	c #191919",
"7	c #151515",
"....................",
"++++++++++++++++++++",
"@@@@@@@@@@@@@@@@@@@@",
"####################",
"$$$$$$$$$$$$$$$$$$$$",
"%%%%%%%%%%%%%%%%%%%%",
"&&**&&&&&&&&&&&&&&&&",
"=%%&================",
"&-&=;;;;;;;;;;;;;;;=",
"$$&=>>>>>>,>>>>>>>>=",
"'&=)))))),),))))))=&",
"!&=~~~~,~~~~~,~~~~=&",
"{&=]]],]]]]]]],]]]=&",
"^&=~~~~,~~~~~,~~~~=&",
"/&=((((((,(,((((((=&",
"__&=::::::,::::::::=",
"&<&=[[[[[[[[[[[[[[[=",
"=}}&||||||||||||||||",
"&&11&&&&&&&&&&&&&&&&",
"22222222222222222222",
"33333333333333333333",
"44444444444444444444",
"55555555555555555555",
"66666666666666666666",
"77777777777777777777",
"....................",
"++++++++++++++++++++",
"@@@@@@@@@@@@@@@@@@@@",
"####################",
"$$$$$$$$$$$$$$$$$$$$",
"%%%%%%%%%%%%%%%%%%%%",
"&&**&&&&&&&&&&&&&&&&",
"=%%&================",
"&-&=;;;;;;;;;;;;;;;=",
"$$&=>>>>>>,>>>>>>>>=",
"'&=)))))),),))))))=&",
"!&=~~~~,~~~~~,~~~~=&",
"{&=]]],]]]]]]],]]]=&",
"^&=~~~~,~~~~~,~~~~=&",
"/&=((((((,(,((((((=&",
"__&=::::::,::::::::=",
"&<&=[[[[[[[[[[[[[[[=",
"=}}&||||||||||||||||",
"&&11&&&&&&&&&&&&&&&&",
"22222222222222222222",
"33333333333333333333",
"44444444444444444444",
"55555555555555555555",
"66666666666666666666",
"77777777777777777777"};
