/* XPM */
static char * maximizeO_xpm[] = {
"20 50 50 1",
" 	c None",
".	c #2C2C2C",
"+	c #303030",
"@	c #343434",
"#	c #383838",
"$	c #3B3B3B",
"%	c #3F3F3F",
"&	c #155174",
"*	c #414141",
"=	c #5B99BC",
"-	c #44B4D0",
";	c #3D3D3D",
">	c #41AEC9",
",	c #34A3BF",
"'	c #FFFFFF",
")	c #393939",
"!	c #2D9AB5",
"~	c #373737",
"{	c #2A91AB",
"]	c #353535",
"^	c #178CA9",
"/	c #333333",
"(	c #0099BF",
"_	c #313131",
":	c #00AAD4",
"<	c #2F2F2F",
"[	c #00C2F3",
"}	c #2D2D2D",
"|	c #47DAFF",
"1	c #2B2B2B",
"2	c #98EAFF",
"3	c #292929",
"4	c #0E5364",
"5	c #272727",
"6	c #252525",
"7	c #232323",
"8	c #212121",
"9	c #191919",
"0	c #151515",
"a	c #3C9FB8",
"b	c #3895AC",
"c	c #358CA2",
"d	c #328296",
"e	c #307A8C",
"f	c #2F7485",
"g	c #2D8398",
"h	c #268CA6",
"i	c #2099B7",
"j	c #17A3C6",
"k	c #0FADD5",
"....................",
"++++++++++++++++++++",
"@@@@@@@@@@@@@@@@@@@@",
"####################",
"$$$$$$$$$$$$$$$$$$$$",
"%%%%%%%%%%%%%%%%%%%%",
"&&**&&&&&&&&&&&&&&&&",
"=%%&----------------",
"&;&->>>>>>>>>>>>>>>-",
"$$&-,,,,,,',,,,,,,,-",
")&-!!!!!!'!'!!!!!!-&",
"~&-{{{{'{{{{{'{{{{-&",
"]&-^^^'^^^^^^^'^^^-&",
"/&-(((('((((('((((-&",
"_&-::::::':'::::::-&",
"<<&-[[[[[['[[[[[[[[-",
"&}&-|||||||||||||||-",
"=11&2222222222222222",
"&&33&&&&&&&4&&&&&&&&",
"55555555555555555555",
"66666666666666666666",
"77777777777777777777",
"88888888888888888888",
"99999999999999999999",
"00000000000000000000",
"....................",
"++++++++++++++++++++",
"@@@@@@@@@@@@@@@@@@@@",
"####################",
"$$$$$$$$$$$$$$$$$$$$",
"%%%%%%%%%%%%%%%%%%%%",
"&&**&&&&&&&&&&&&&&&&",
"=%%&aaaaaaaaaaaaaaaa",
"&;&abbbbbbbbbbbbbbba",
"$$&acccccc'cccccccca",
")&adddddd'd'dddddda&",
"~&aeeee'eeeee'eeeea&",
"]&afff'fffffff'fffa&",
"/&agggg'ggggg'gggga&",
"_&ahhhhhh'h'hhhhhha&",
"<<&aiiiiii'iiiiiiiia",
"&}&ajjjjjjjjjjjjjjja",
"=11&kkkkkkkkkkkkkkkk",
"&&33&&&&&&&&&&&&&&&&",
"55555555555555555555",
"66666666666666666666",
"77777777777777777777",
"88888888888888888888",
"99999999999999999999",
"00000000000000000000"};
