/* XPM */
static char * menusel_xpm[] = {
"1 20 18 1",
" 	c None",
".	c #383838",
"+	c #3B3B3B",
"@	c #155174",
"#	c #5B99BC",
"$	c #4783A6",
"%	c #2D6E94",
"&	c #266182",
"*	c #215370",
"=	c #104A6B",
"-	c #0E425F",
";	c #14577E",
">	c #19638E",
",	c #0075B8",
"'	c #0084D0",
")	c #06A4FF",
"!	c #232323",
"~	c #212121",
".",
"+",
"@",
"#",
"$",
"%",
"&",
"*",
"=",
"-",
"-",
"=",
";",
">",
",",
"'",
")",
"@",
"!",
"~"};
