/* XPM */
static char * minimizeO_xpm[] = {
"20 50 48 1",
" 	c None",
".	c #2C2C2C",
"+	c #303030",
"@	c #343434",
"#	c #383838",
"$	c #3B3B3B",
"%	c #3F3F3F",
"&	c #414141",
"*	c #155174",
"=	c #44B4D0",
"-	c #3D3D3D",
";	c #41AEC9",
">	c #34A3BF",
",	c #393939",
"'	c #2D9AB5",
")	c #373737",
"!	c #2A91AB",
"~	c #353535",
"{	c #178CA9",
"]	c #333333",
"^	c #0099BF",
"/	c #313131",
"(	c #00AAD4",
"_	c #2F2F2F",
":	c #00C2F3",
"<	c #FFFFFF",
"[	c #2D2D2D",
"}	c #47DAFF",
"|	c #2B2B2B",
"1	c #98EAFF",
"2	c #292929",
"3	c #272727",
"4	c #252525",
"5	c #232323",
"6	c #212121",
"7	c #191919",
"8	c #151515",
"9	c #3C9FB8",
"0	c #3895AC",
"a	c #358CA2",
"b	c #328296",
"c	c #307A8C",
"d	c #2F7485",
"e	c #2D8398",
"f	c #268CA6",
"g	c #2099B7",
"h	c #17A3C6",
"i	c #0FADD5",
"....................",
"++++++++++++++++++++",
"@@@@@@@@@@@@@@@@@@@@",
"####################",
"$$$$$$$$$$$$$$$$$$$$",
"%%%%%%%%%%%%%%%%%%%%",
"&&&&****************",
"%%%*================",
"--*=;;;;;;;;;;;;;;;=",
"$$*=>>>>>>>>>>>>>>>=",
",*='''''''''''''''=*",
")*=!!!!!!!!!!!!!!!=*",
"~*={{{{{{{{{{{{{{{=*",
"]*=^^^^^^^^^^^^^^^=*",
"/*=(((((((((((((((=*",
"__*=::::<<<<<<:::::=",
"[[*=}}}}}}}}}}}}}}}=",
"|||*1111111111111111",
"2222****************",
"33333333333333333333",
"44444444444444444444",
"55555555555555555555",
"66666666666666666666",
"77777777777777777777",
"88888888888888888888",
"....................",
"++++++++++++++++++++",
"@@@@@@@@@@@@@@@@@@@@",
"####################",
"$$$$$$$$$$$$$$$$$$$$",
"%%%%%%%%%%%%%%%%%%%%",
"&&&&****************",
"%%%*9999999999999999",
"--*90000000000000009",
"$$*9aaaaaaaaaaaaaaa9",
",*9bbbbbbbbbbbbbbb9*",
")*9ccccccccccccccc9*",
"~*9ddddddddddddddd9*",
"]*9eeeeeeeeeeeeeee9*",
"/*9fffffffffffffff9*",
"__*9gggg<<<<<<ggggg9",
"[[*9hhhhhhhhhhhhhhh9",
"|||*iiiiiiiiiiiiiiii",
"2222****************",
"33333333333333333333",
"44444444444444444444",
"55555555555555555555",
"66666666666666666666",
"77777777777777777777",
"88888888888888888888"};
