/* XPM */
static char * restore_xpm[] = {
"20 50 30 1",
" 	c None",
".	c #2C2C2C",
"+	c #303030",
"@	c #343434",
"#	c #383838",
"$	c #3B3B3B",
"%	c #3F3F3F",
"&	c #474747",
"*	c #414141",
"=	c #858585",
"-	c #3D3D3D",
";	c #727272",
">	c #5F5F5F",
",	c #FFFFFF",
"'	c #393939",
")	c #373737",
"!	c #2E2E2E",
"~	c #353535",
"{	c #292929",
"]	c #333333",
"^	c #313131",
"/	c #2F2F2F",
"(	c #2D2D2D",
"_	c #2B2B2B",
":	c #272727",
"<	c #252525",
"[	c #232323",
"}	c #212121",
"|	c #191919",
"1	c #151515",
"....................",
"++++++++++++++++++++",
"@@@@@@@@@@@@@@@@@@@@",
"####################",
"$$$$$$$$$$$$$$$$$$$$",
"%%%%%%%%%%%%%%%%%%%%",
"&&**&&&&&&&&&&&&&&&&",
"=%%&================",
"&-&=;;;;;;;;;;;;;;;=",
"$$&=>>>>>,>,>>>>>>>=",
"'&=&&&&&&&,&&&&&&&=&",
")&=!!!,!!!!!!!,!!!=&",
"~&={{{{,{{{{{,{{{{=&",
"]&=!!!,!!!!!!!,!!!=&",
"^&=&&&&&&&,&&&&&&&=&",
"//&=>>>>>,>,>>>>>>>=",
"&(&=;;;;;;;;;;;;;;;=",
"=__&================",
"&&{{&&&&&&&&&&&&&&&&",
"::::::::::::::::::::",
"<<<<<<<<<<<<<<<<<<<<",
"[[[[[[[[[[[[[[[[[[[[",
"}}}}}}}}}}}}}}}}}}}}",
"||||||||||||||||||||",
"11111111111111111111",
"....................",
"++++++++++++++++++++",
"@@@@@@@@@@@@@@@@@@@@",
"####################",
"$$$$$$$$$$$$$$$$$$$$",
"%%%%%%%%%%%%%%%%%%%%",
"&&**&&&&&&&&&&&&&&&&",
"=%%&================",
"&-&=;;;;;;;;;;;;;;;=",
"$$&=>>>>>,>,>>>>>>>=",
"'&=&&&&&&&,&&&&&&&=&",
")&=!!!,!!!!!!!,!!!=&",
"~&={{{{,{{{{{,{{{{=&",
"]&=!!!,!!!!!!!,!!!=&",
"^&=&&&&&&&,&&&&&&&=&",
"//&=>>>>>,>,>>>>>>>=",
"&(&=;;;;;;;;;;;;;;;=",
"=__&================",
"&&{{&&&&&&&&&&&&&&&&",
"::::::::::::::::::::",
"<<<<<<<<<<<<<<<<<<<<",
"[[[[[[[[[[[[[[[[[[[[",
"}}}}}}}}}}}}}}}}}}}}",
"||||||||||||||||||||",
"11111111111111111111"};
