/* XPM */
static char * titleIM_xpm[] = {
"6 25 30 1",
" 	c None",
".	c #2C2C2C",
"+	c #303030",
"@	c #343434",
"#	c #3F3F3F",
"$	c #383838",
"%	c #777777",
"&	c #3B3B3B",
"*	c #686868",
"=	c #5F5F5F",
"-	c #414141",
";	c #505050",
">	c #3D3D3D",
",	c #373737",
"'	c #2E2E2E",
")	c #393939",
"!	c #202020",
"~	c #353535",
"{	c #333333",
"]	c #313131",
"^	c #2F2F2F",
"/	c #2D2D2D",
"(	c #2B2B2B",
"_	c #292929",
":	c #272727",
"<	c #252525",
"[	c #232323",
"}	c #212121",
"|	c #191919",
"1	c #151515",
"......",
"++++++",
"@@@@@@",
"###$$$",
"%%%#&&",
"***%##",
"===%#-",
";;;%##",
"###%#>",
",,,%#&",
"'''%#)",
"!!!%#,",
"!!!%#~",
"'''%#{",
",,,%#]",
"###%#^",
";;;%#/",
"===%#(",
"***%__",
"%%%#::",
"###<<<",
"[[[[[[",
"}}}}}}",
"||||||",
"111111"};
