/* XPM */
static char * titleAM_xpm[] = {
"6 25 38 1",
" 	c None",
".	c #2C2C2C",
"+	c #303030",
"@	c #343434",
"#	c #155174",
"$	c #383838",
"%	c #6AA6C8",
"&	c #3B3B3B",
"*	c #5B99BC",
"=	c #3F3F3F",
"-	c #4783A6",
";	c #414141",
">	c #3A7293",
",	c #29698E",
"'	c #3D3D3D",
")	c #14557B",
"!	c #135074",
"~	c #393939",
"{	c #104A6B",
"]	c #373737",
"^	c #0E425F",
"/	c #353535",
"(	c #333333",
"_	c #313131",
":	c #2F2F2F",
"<	c #06649A",
"[	c #2D2D2D",
"}	c #0075B8",
"|	c #2B2B2B",
"1	c #0084D0",
"2	c #292929",
"3	c #06A4FF",
"4	c #272727",
"5	c #252525",
"6	c #232323",
"7	c #212121",
"8	c #191919",
"9	c #151515",
"......",
"++++++",
"@@@@@@",
"###$$$",
"%%%#&&",
"***%#=",
"---%#;",
">>>%#=",
",,,%#'",
")))%#&",
"!!!%#~",
"{{{%#]",
"^^^%#/",
"{{{%#(",
"!!!%#_",
")))%#:",
"<<<%#[",
"}}}%#|",
"111%#2",
"333#44",
"###555",
"666666",
"777777",
"888888",
"999999"};
