/* XPM */
static char * titleIT_xpm[] = {
"1 25 16 1",
" 	c None",
".	c #2C2C2C",
"+	c #303030",
"@	c #343434",
"#	c #3F3F3F",
"$	c #777777",
"%	c #686868",
"&	c #5F5F5F",
"*	c #505050",
"=	c #373737",
"-	c #2E2E2E",
";	c #202020",
">	c #232323",
",	c #212121",
"'	c #191919",
")	c #151515",
".",
"+",
"@",
"#",
"$",
"%",
"&",
"*",
"#",
"=",
"-",
";",
";",
"-",
"=",
"#",
"*",
"&",
"%",
"$",
"#",
">",
",",
"'",
")"};
