/* XPM */
static char * frameATL_xpm[] = {
"5 35 5 1",
" 	c None",
".	c #000000",
"+	c #A46400",
"@	c #985D00",
"#	c #7C4C00",
"     ",
"     ",
"     ",
"     ",
"     ",
".....",
".++@#",
".++@#",
".++@#",
".++@#",
".++@#",
".++@#",
".++@#",
".++@#",
".++@#",
".++@#",
".++@#",
".++@#",
".++@#",
".++@#",
".++@#",
".++@#",
".++@#",
".++@#",
".++@#",
".++@#",
".++@#",
".++@#",
".++@#",
".++@#",
".++@#",
".++@#",
".++@#",
".++@#",
".++@#"};
