/* XPM */
static char * frameATR_xpm[] = {
"5 35 5 1",
" 	c None",
".	c #000000",
"+	c #7C4C00",
"@	c #985D00",
"#	c #A46400",
"     ",
"     ",
"     ",
"     ",
"     ",
".....",
"+@##.",
"+@##.",
"+@##.",
"+@##.",
"+@##.",
"+@##.",
"+@##.",
"+@##.",
"+@##.",
"+@##.",
"+@##.",
"+@##.",
"+@##.",
"+@##.",
"+@##.",
"+@##.",
"+@##.",
"+@##.",
"+@##.",
"+@##.",
"+@##.",
"+@##.",
"+@##.",
"+@##.",
"+@##.",
"+@##.",
"+@##.",
"+@##.",
"+@##."};
