/* XPM */
static char * rollupO_xpm[] = {
"30 60 9 1",
" 	c None",
".	c #000000",
"+	c #7C4C00",
"@	c #985D00",
"#	c #A46400",
"$	c #3F3F3F",
"%	c #555555",
"&	c #8E8E8E",
"*	c #CFCFCF",
"..............................",
"++++++++++++++++++++++++++++++",
"@@@@@@@@@@@@@@@@@@@@@@@@@@@@@@",
"##############################",
"##############################",
"$$$$$$$$$$$$$$$$$$$$$$$$$$$$$$",
"$$$$$$$$$$$$$$$$$$$$$$$$$$$$$$",
"$............................$",
"$.%%%%%%%%%%%%%%%%%%%%%%%%%%.$",
"$.%........................%.$",
"$.%.++++++++++++++++++++++.%.$",
"$.%.@...@@@@@@@@@@@@@@...@.%.$",
"$.%.#.&.######..######.&.#.%.$",
"$.%.#...#####.**.#####...#.%.$",
"$.%.#########.**.#########.%.$",
"$.%.########.****.########.%.$",
"$.%.#######.******.#######.%.$",
"$.%.########..**..########.%.$",
"$.%.######....**....######.%.$",
"$.%.######.********.######.%.$",
"$.%.#...##..........##...#.%.$",
"$.%.#.&.##############.&.#.%.$",
"$.%.@...@@@@@@@@@@@@@@...@.%.$",
"$.%.++++++++++++++++++++++.%.$",
"$.%........................%.$",
"$.%%%%%%%%%%%%%%%%%%%%%%%%%%.$",
"$............................$",
"$$$$$$$$$$$$$$$$$$$$$$$$$$$$$$",
"$$$$$$$$$$$$$$$$$$$$$$$$$$$$$$",
"$$$$$$$$$$$$$$$$$$$$$$$$$$$$$$",
"..............................",
"++++++++++++++++++++++++++++++",
"@@@@@@@@@@@@@@@@@@@@@@@@@@@@@@",
"##############################",
"##############################",
"$$$$$$$$$$$$$$$$$$$$$$$$$$$$$$",
"$$$$$$$$$$$$$$$$$$$$$$$$$$$$$$",
"$............................$",
"$.%%%%%%%%%%%%%%%%%%%%%%%%%%.$",
"$.%........................%.$",
"$.%.++++++++++++++++++++++.%.$",
"$.%.@...@@@@@@@@@@@@@@...@.%.$",
"$.%.#.&.##############.&.#.%.$",
"$.%.#...######..######...#.%.$",
"$.%.#########.**.#########.%.$",
"$.%.#########.**.#########.%.$",
"$.%.########.****.########.%.$",
"$.%.#######.******.#######.%.$",
"$.%.########..**..########.%.$",
"$.%.######....**....######.%.$",
"$.%.#...##.********.##...#.%.$",
"$.%.#.&.##..........##.&.#.%.$",
"$.%.@...@@@@@@@@@@@@@@...@.%.$",
"$.%.++++++++++++++++++++++.%.$",
"$.%........................%.$",
"$.%%%%%%%%%%%%%%%%%%%%%%%%%%.$",
"$............................$",
"$$$$$$$$$$$$$$$$$$$$$$$$$$$$$$",
"$$$$$$$$$$$$$$$$$$$$$$$$$$$$$$",
"$$$$$$$$$$$$$$$$$$$$$$$$$$$$$$"};
