/* XPM */
static char * titleAT_xpm[] = {
"1 30 6 1",
" 	c None",
".	c #000000",
"+	c #7C4C00",
"@	c #985D00",
"#	c #A46400",
"$	c #3F3F3F",
".",
"+",
"@",
"#",
"#",
"$",
"$",
"$",
"$",
"$",
"$",
"$",
"$",
"$",
"$",
"$",
"$",
"$",
"$",
"$",
"$",
"$",
"$",
"$",
"$",
"$",
"$",
"$",
"$",
"$"};
