<svg width="128" height="128" viewBox="0 0 128 128" fill="none" xmlns="http://www.w3.org/2000/svg">
<g clip-path="url(#clip0)">
<path d="M111.651 16.0985L96.6515 1.0985C95.9485 0.39525 94.9948 0 94 0H34C33.0052 0 32.0515 0.39525 31.3485 1.0985L16.3485 16.0985C15.645 16.8017 15.25 17.7555 15.25 18.75V109.25C15.25 110.244 15.645 111.198 16.3485 111.901L31.3485 126.901C32.0515 127.605 33.0052 128 34 128H94C94.9948 128 95.9485 127.605 96.6515 126.901L111.651 111.901C112.355 111.198 112.75 110.244 112.75 109.25V18.75C112.75 17.7555 112.355 16.8017 111.651 16.0985ZM35.5532 120.5L22.75 107.697V92.049C25.9392 92.9475 28.992 94.2263 31.8813 95.8755L31.5688 96.461C30.706 98.0792 30.25 99.9082 30.25 101.75C30.25 107.953 35.2968 113 41.5 113C43.6432 113 45.6482 112.397 47.355 111.353C48.9945 114.236 50.2868 117.316 51.1915 120.5H35.5532ZM37.75 101.75C37.75 101.126 37.897 100.533 38.1867 99.99C39.9272 96.727 43.5215 89.9885 45.25 86.748V101.75C45.25 103.818 43.5677 105.5 41.5 105.5C39.4323 105.5 37.75 103.818 37.75 101.75V101.75ZM49.9098 68.112C48.717 67.8145 47.4923 68.125 46.5933 68.8777C41.0665 63.9105 37.75 56.599 37.75 49C37.75 34.3877 49.5258 22.5 64 22.5C78.4742 22.5 90.25 34.3877 90.25 49C90.25 63.6123 78.4742 75.5 64 75.5C60.0945 75.5 56.2465 74.628 52.75 72.9697V71.75C52.75 70.0293 51.5788 68.5295 49.9098 68.112V68.112ZM105.25 107.697L92.4467 120.5H58.9383C57.6353 115.013 55.364 109.741 52.265 105.016C52.5795 103.982 52.75 102.886 52.75 101.75V81.07C56.345 82.3385 60.1515 83 64 83C82.6098 83 97.75 67.7477 97.75 49C97.75 30.2523 82.6098 15 64 15C45.3902 15 30.25 30.2523 30.25 49C30.25 59.1225 34.7668 68.9402 42.7653 75.4705L35.4115 89.257C31.4352 87.0098 27.1978 85.3545 22.75 84.308V20.3032L35.5532 7.5H92.4467L105.25 20.3032V107.697ZM64 60.25C70.2032 60.25 75.25 55.2032 75.25 49C75.25 42.7968 70.2032 37.75 64 37.75C57.7968 37.75 52.75 42.7968 52.75 49C52.75 55.2032 57.7968 60.25 64 60.25ZM64 45.25C66.0677 45.25 67.75 46.9323 67.75 49C67.75 51.0677 66.0677 52.75 64 52.75C61.9323 52.75 60.25 51.0677 60.25 49C60.25 46.9323 61.9323 45.25 64 45.25ZM71.5 98C69.429 98 67.75 99.679 67.75 101.75V109.25C67.75 111.321 69.429 113 71.5 113C73.571 113 75.25 111.321 75.25 109.25V101.75C75.25 99.679 73.571 98 71.5 98ZM86.5 98C84.429 98 82.75 99.679 82.75 101.75V109.25C82.75 111.321 84.429 113 86.5 113C88.571 113 90.25 111.321 90.25 109.25V101.75C90.25 99.679 88.571 98 86.5 98Z" fill="url(#paint0_linear)" stroke="url(#paint1_linear)" stroke-width="3"/>
</g>
<defs>
<linearGradient id="paint0_linear" x1="64" y1="128" x2="64" y2="0" gradientUnits="userSpaceOnUse">
<stop stop-color="#5558FF"/>
<stop offset="1" stop-color="#00C0FF"/>
</linearGradient>
<linearGradient id="paint1_linear" x1="64" y1="128" x2="64" y2="0" gradientUnits="userSpaceOnUse">
<stop stop-color="#5558FF"/>
<stop offset="1" stop-color="#00C0FF"/>
</linearGradient>
<clipPath id="clip0">
<rect width="128" height="128" fill="white"/>
</clipPath>
</defs>
</svg>
