<?xml version="1.0" encoding="utf-8"?>
<!-- Generator: Adobe Illustrator 19.0.0, SVG Export Plug-In . SVG Version: 6.00 Build 0)  -->
<svg xmlns="http://www.w3.org/2000/svg" xmlns:xlink="http://www.w3.org/1999/xlink" version="1.1" id="Layer_1" x="0px" y="0px" viewBox="0 2 98 98" style="enable-background:new 0 2 98 98;" xml:space="preserve" width="512" height="512">
<style type="text/css">
	.st0{fill:url(#SVGID_1_);}
</style>
<linearGradient id="SVGID_1_" gradientUnits="userSpaceOnUse" x1="49" y1="8" x2="49" y2="94">
	<stop offset="0" style="stop-color:#00EFD1"/>
	<stop offset="1" style="stop-color:#00ACEA"/>
</linearGradient>
<path class="st0" d="M91,27.9L68.8,8.7c-0.5-0.5-1.2-0.7-2-0.7H9c-1.7,0-3,1.3-3,3v80c0,1.7,1.3,3,3,3h80c1.7,0,3-1.3,3-3V30.2  C92,29.3,91.6,28.5,91,27.9z M32,14h24v17.5H32V14z M61,88H27V63.5h34V88z M86,88H67V60.5c0-1.7-1.3-3-3-3H24c-1.7,0-3,1.3-3,3V88  h-9V14h14v20.5c0,1.7,1.3,3,3,3h30c1.7,0,3-1.3,3-3V14h3.7L86,31.6V88z"/>
</svg>
