<?xml version="1.0" encoding="UTF-8" ?>
<!DOCTYPE svg PUBLIC "-//W3C//DTD SVG 1.1//EN" "http://www.w3.org/Graphics/SVG/1.1/DTD/svg11.dtd">
<svg width="192pt" height="192pt" viewBox="0 0 192 192" version="1.1" xmlns="http://www.w3.org/2000/svg">
<g id="#1ba1c0ff">
<path fill="#1ba1c0" opacity="1.00" d=" M 72.04 18.05 C 76.20 13.76 81.95 10.97 87.96 10.83 C 92.71 10.71 97.47 10.84 102.22 10.79 C 99.64 15.10 96.69 19.17 93.89 23.33 C 90.04 23.74 85.26 22.07 82.25 25.23 C 68.91 38.24 55.93 51.61 42.86 64.89 C 41.81 66.11 40.35 67.30 40.44 69.08 C 40.19 78.26 40.50 87.45 40.31 96.63 C 35.77 100.01 33.40 105.35 29.26 109.14 C 28.67 95.04 29.32 80.91 28.77 66.81 C 29.44 62.06 32.20 57.86 35.55 54.54 C 47.72 42.38 59.87 30.21 72.04 18.05 Z" />
</g>
<g id="#19aec3ff">
<path fill="#19aec3" opacity="1.00" d=" M 102.22 10.79 C 116.47 10.62 130.73 10.91 144.99 10.78 C 148.11 10.62 151.19 11.26 154.09 12.38 C 152.02 14.99 150.10 17.72 148.37 20.56 C 148.94 21.78 149.51 22.99 150.13 24.18 C 146.54 22.98 142.71 23.41 138.99 23.35 C 123.96 23.38 108.92 23.38 93.89 23.33 C 96.69 19.17 99.64 15.10 102.22 10.79 Z" />
<path fill="#19aec3" opacity="1.00" d=" M 28.13 80.00 C 28.18 75.60 27.81 71.15 28.77 66.81 C 29.32 80.91 28.67 95.04 29.26 109.14 C 33.40 105.35 35.77 100.01 40.31 96.63 C 40.37 117.34 40.43 138.06 40.29 158.78 C 35.67 162.62 31.48 167.52 30.59 173.68 C 29.10 171.03 28.00 168.13 28.16 165.05 C 28.20 136.70 28.08 108.35 28.13 80.00 Z" />
</g>
<g id="#17c0c7ff">
<path fill="#17c0c7" opacity="1.00" d=" M 148.37 20.56 C 150.10 17.72 152.02 14.99 154.09 12.38 C 157.87 14.80 161.16 18.30 162.16 22.79 C 162.02 40.78 162.18 58.77 162.06 76.75 C 157.96 80.45 155.24 85.31 151.68 89.47 C 151.07 84.67 151.00 79.83 151.13 75.00 C 151.08 63.67 151.05 52.33 151.00 41.00 C 150.94 35.61 151.28 30.17 150.46 24.83 L 150.13 24.18 C 149.51 22.99 148.94 21.78 148.37 20.56 Z" />
</g>
<g id="#00000038">
<path fill="#000000" opacity="0.22" d=" M 82.25 25.23 C 85.26 22.07 90.04 23.74 93.89 23.33 C 108.92 23.38 123.96 23.38 138.99 23.35 C 142.71 23.41 146.54 22.98 150.13 24.18 L 150.46 24.83 C 147.98 25.16 145.50 25.41 143.00 25.41 C 124.99 25.30 106.99 25.40 88.98 25.34 C 86.36 25.10 84.09 26.51 82.36 28.35 C 71.03 39.69 59.70 51.03 48.40 62.41 C 46.14 64.76 43.52 66.85 41.84 69.69 C 40.91 72.69 41.38 75.91 41.29 79.01 C 41.36 104.00 41.28 129.00 41.34 154.00 C 41.43 158.11 41.45 162.24 40.71 166.30 C 40.35 163.81 40.31 161.29 40.29 158.78 C 40.43 138.06 40.37 117.34 40.31 96.63 C 40.50 87.45 40.19 78.26 40.44 69.08 C 40.35 67.30 41.81 66.11 42.86 64.89 C 55.93 51.61 68.91 38.24 82.25 25.23 Z" />
<path fill="#000000" opacity="0.22" d=" M 135.92 51.93 C 136.36 52.28 137.25 52.99 137.69 53.34 C 137.69 59.90 137.66 66.47 137.74 73.04 C 137.70 75.70 137.84 78.74 135.80 80.78 C 133.44 83.96 127.69 83.84 126.04 80.00 C 128.68 80.13 131.83 81.06 134.01 79.01 C 136.12 77.37 135.96 74.46 136.02 72.07 C 135.95 65.36 136.10 58.64 135.92 51.93 Z" />
</g>
<g id="#04262664">
<path fill="#042626" opacity="0.39" d=" M 162.16 22.79 C 162.39 24.18 162.63 25.56 162.72 26.96 C 162.64 71.64 162.74 116.32 162.66 161.00 C 162.62 165.73 163.04 170.49 162.22 175.18 C 161.85 142.37 162.39 109.56 162.06 76.75 C 162.18 58.77 162.02 40.78 162.16 22.79 Z" />
</g>
<g id="#15d0caff">
<path fill="#15d0ca" opacity="1.00" d=" M 150.46 24.83 C 151.28 30.17 150.94 35.61 151.00 41.00 C 151.05 52.33 151.08 63.67 151.13 75.00 C 151.00 79.83 151.07 84.67 151.68 89.47 C 155.24 85.31 157.96 80.45 162.06 76.75 C 162.39 109.56 161.85 142.37 162.22 175.18 C 161.68 179.08 156.87 181.65 153.43 179.54 C 150.64 178.18 150.04 174.85 150.25 172.05 C 150.41 122.98 150.09 73.89 150.46 24.83 Z" />
</g>
<g id="#1aaac2ff">
<path fill="#1aaac2" opacity="1.00" d=" M 74.65 47.70 C 78.12 45.35 83.29 47.82 83.68 51.96 C 83.58 59.62 83.83 67.29 83.57 74.94 C 83.62 78.23 80.29 80.98 77.09 80.32 C 75.52 79.86 74.09 79.07 72.62 78.37 C 71.34 71.32 72.21 64.12 71.94 57.00 C 72.02 53.81 71.38 49.60 74.65 47.70 Z" />
</g>
<g id="#19b2c4ff">
<path fill="#19b2c4" opacity="1.00" d=" M 98.53 50.41 C 100.41 45.29 108.74 45.75 110.44 50.85 C 110.65 57.90 110.49 64.97 110.57 72.03 C 110.52 74.56 110.59 77.69 108.22 79.29 C 105.69 81.30 102.43 80.03 99.67 79.38 C 97.17 74.62 98.36 69.14 98.12 64.00 C 98.31 59.48 97.63 54.86 98.53 50.41 Z" />
</g>
<g id="#18bac6ff">
<path fill="#18bac6" opacity="1.00" d=" M 123.98 51.07 C 125.26 44.98 135.66 45.62 135.92 51.93 C 136.10 58.64 135.95 65.36 136.02 72.07 C 135.96 74.46 136.12 77.37 134.01 79.01 C 131.83 81.06 128.68 80.13 126.04 80.00 C 124.77 77.87 123.36 75.64 123.70 73.04 C 123.93 65.72 123.41 58.37 123.98 51.07 Z" />
<path fill="#18bac6" opacity="1.00" d=" M 30.59 173.68 C 31.48 167.52 35.67 162.62 40.29 158.78 C 40.31 161.29 40.35 163.81 40.71 166.30 C 41.55 167.27 42.81 167.60 44.05 167.53 C 55.16 167.58 66.27 167.45 77.38 167.57 C 75.35 171.42 72.98 175.06 70.51 178.63 C 59.93 179.13 49.33 178.58 38.75 179.22 C 38.11 179.10 36.83 178.85 36.19 178.73 C 34.04 177.40 32.17 175.63 30.59 173.68 Z" />
</g>
<g id="#00000037">
<path fill="#000000" opacity="0.22" d=" M 110.44 50.85 C 112.72 54.86 112.02 59.59 112.10 64.00 C 111.92 68.88 112.56 73.83 111.58 78.65 C 110.31 83.96 101.52 84.71 99.67 79.38 C 102.43 80.03 105.69 81.30 108.22 79.29 C 110.59 77.69 110.52 74.56 110.57 72.03 C 110.49 64.97 110.65 57.90 110.44 50.85 Z" />
</g>
<g id="#00000036">
<path fill="#000000" opacity="0.21" d=" M 83.68 51.96 C 86.20 53.86 85.63 57.23 85.70 59.98 C 85.47 65.52 86.01 71.09 85.43 76.62 C 85.09 79.83 82.60 83.33 79.01 82.92 C 75.84 83.48 74.16 80.55 72.62 78.37 C 74.09 79.07 75.52 79.86 77.09 80.32 C 80.29 80.98 83.62 78.23 83.57 74.94 C 83.83 67.29 83.58 59.62 83.68 51.96 Z" />
</g>
<g id="#16cbc9ff">
<path fill="#16cbc9" opacity="1.00" d=" M 77.38 167.57 C 95.59 167.51 113.81 167.51 132.02 167.55 C 135.04 167.26 136.95 169.80 138.61 171.89 C 138.17 174.73 137.62 178.40 134.38 179.36 C 130.66 180.25 126.78 179.66 123.00 179.76 C 96.98 179.79 70.96 179.63 44.95 179.67 C 42.87 179.66 40.80 179.56 38.75 179.22 C 49.33 178.58 59.93 179.13 70.51 178.63 C 72.98 175.06 75.35 171.42 77.38 167.57 Z" />
</g>
<g id="#0001013b">
<path fill="#000101" opacity="0.23" d=" M 138.61 171.89 C 138.81 174.33 139.63 177.04 138.30 179.29 C 136.66 181.59 133.71 182.29 131.05 182.30 C 102.69 182.26 74.33 182.25 45.97 182.28 C 42.48 182.16 38.48 181.72 36.19 178.73 C 36.83 178.85 38.11 179.10 38.75 179.22 C 40.80 179.56 42.87 179.66 44.95 179.67 C 70.96 179.63 96.98 179.79 123.00 179.76 C 126.78 179.66 130.66 180.25 134.38 179.36 C 137.62 178.40 138.17 174.73 138.61 171.89 Z" />
</g>
</svg>
