<?xml version="1.0" encoding="UTF-8" ?>
<!DOCTYPE svg PUBLIC "-//W3C//DTD SVG 1.1//EN" "http://www.w3.org/Graphics/SVG/1.1/DTD/svg11.dtd">
<svg width="192pt" height="192pt" viewBox="0 0 192 192" version="1.1" xmlns="http://www.w3.org/2000/svg">
<g id="#0382ffff">
<path fill="#0382ff" opacity="1.00" d=" M 41.57 26.99 C 41.42 17.68 49.77 9.52 59.00 9.42 C 69.14 9.37 79.28 9.38 89.43 9.43 C 87.51 13.46 85.26 17.31 82.83 21.05 C 74.48 21.28 66.08 20.53 57.78 21.56 C 56.12 22.19 54.88 23.52 53.65 24.76 C 52.76 37.38 53.62 50.07 53.20 62.73 C 49.01 66.67 45.85 71.55 41.59 75.44 C 41.50 59.29 41.54 43.14 41.57 26.99 Z" />
</g>
<g id="#0a92ffff">
<path fill="#0a92ff" opacity="1.00" d=" M 89.43 9.43 C 99.80 9.39 110.17 9.36 120.55 9.44 C 118.67 13.52 116.33 17.35 113.78 21.04 C 103.46 21.08 93.14 21.06 82.83 21.05 C 85.26 17.31 87.51 13.46 89.43 9.43 Z" />
</g>
<g id="#13a2ffff">
<path fill="#13a2ff" opacity="1.00" d=" M 120.55 9.44 C 126.85 9.64 133.64 8.35 139.45 11.47 C 142.73 13.06 145.02 15.97 147.26 18.73 L 146.90 19.14 C 143.66 22.62 140.76 26.39 137.82 30.12 C 137.63 28.69 137.38 27.27 137.06 25.87 C 136.54 23.94 135.02 22.38 133.20 21.62 C 126.78 20.59 120.25 21.19 113.78 21.04 C 116.33 17.35 118.67 13.52 120.55 9.44 Z" />
</g>
<g id="#1cb7ffff">
<path fill="#1cb7ff" opacity="1.00" d=" M 137.82 30.12 C 140.76 26.39 143.66 22.62 146.90 19.14 C 148.32 21.43 149.03 24.08 149.07 26.77 C 149.00 38.44 149.06 50.12 149.01 61.80 C 145.35 66.35 142.19 71.36 137.79 75.27 C 137.59 60.22 137.53 45.17 137.82 30.12 Z" />
</g>
<g id="#021e3475">
<path fill="#021e34" opacity="0.46" d=" M 57.78 21.56 C 66.08 20.53 74.48 21.28 82.83 21.05 C 93.14 21.06 103.46 21.08 113.78 21.04 C 120.25 21.19 126.78 20.59 133.20 21.62 C 117.14 22.15 101.06 21.70 85.00 21.87 C 75.92 21.84 66.85 21.98 57.78 21.56 Z" />
</g>
<g id="#053f6a83">
<path fill="#053f6a" opacity="0.51" d=" M 53.20 62.73 C 53.62 50.07 52.76 37.38 53.65 24.76 C 53.68 72.21 53.63 119.67 53.70 167.12 C 52.86 159.70 53.45 152.22 53.22 144.77 C 53.33 132.41 53.34 120.06 53.19 107.71 C 53.36 92.71 53.33 77.72 53.20 62.73 Z" />
</g>
<g id="#1b98c2cf">
<path fill="#1b98c2" opacity="0.81" d=" M 137.06 25.87 C 137.38 27.27 137.63 28.69 137.82 30.12 C 137.53 45.17 137.59 60.22 137.79 75.27 C 137.57 90.28 137.58 105.28 137.79 120.28 C 137.55 132.52 137.63 144.77 137.71 157.01 C 137.69 160.06 137.59 163.13 137.11 166.15 C 137.00 119.39 137.19 72.63 137.06 25.87 Z" />
</g>
<g id="#020c0f2c">
<path fill="#020c0f" opacity="0.17" d=" M 149.07 26.77 C 149.99 31.46 149.73 36.25 149.68 41.00 C 149.69 77.66 149.69 114.33 149.68 151.00 C 149.73 155.75 150.00 160.54 149.08 165.23 C 148.95 146.01 149.13 126.80 148.97 107.58 C 149.10 92.32 149.02 77.06 149.01 61.80 C 149.06 50.12 149.00 38.44 149.07 26.77 Z" />
</g>
<g id="#26cbffff">
<path fill="#26cbff" opacity="1.00" d=" M 137.79 75.27 C 142.19 71.36 145.35 66.35 149.01 61.80 C 149.02 77.06 149.10 92.32 148.97 107.58 C 144.63 111.27 141.87 116.35 137.79 120.28 C 137.58 105.28 137.57 90.28 137.79 75.27 Z" />
</g>
<g id="#0b93ffff">
<path fill="#0b93ff" opacity="1.00" d=" M 41.59 75.44 C 45.85 71.55 49.01 66.67 53.20 62.73 C 53.33 77.72 53.36 92.71 53.19 107.71 C 48.94 111.65 46.09 116.87 41.61 120.59 C 41.49 105.54 41.53 90.49 41.59 75.44 Z" />
</g>
<g id="#13a3ffff">
<path fill="#13a3ff" opacity="1.00" d=" M 41.61 120.59 C 46.09 116.87 48.94 111.65 53.19 107.71 C 53.34 120.06 53.33 132.41 53.22 144.77 C 49.16 149.16 45.93 154.27 41.59 158.41 C 41.52 145.80 41.51 133.19 41.61 120.59 Z" />
</g>
<g id="#2fddffff">
<path fill="#2fddff" opacity="1.00" d=" M 137.79 120.28 C 141.87 116.35 144.63 111.27 148.97 107.58 C 149.13 126.80 148.95 146.01 149.08 165.23 C 149.09 169.42 147.39 173.46 144.81 176.71 C 140.94 180.62 135.61 183.10 130.05 182.82 C 105.55 182.65 81.04 183.06 56.56 182.57 C 67.05 182.12 77.56 182.19 88.07 182.05 C 90.21 181.84 92.81 182.10 94.39 180.35 C 96.95 177.66 98.54 174.25 100.26 171.01 C 110.19 170.99 120.13 171.03 130.06 171.00 C 133.14 171.22 136.56 169.37 137.11 166.15 C 137.59 163.13 137.69 160.06 137.71 157.01 C 137.63 144.77 137.55 132.52 137.79 120.28 Z" />
</g>
<g id="#1bb4ffff">
<path fill="#1bb4ff" opacity="1.00" d=" M 41.59 158.41 C 45.93 154.27 49.16 149.16 53.22 144.77 C 53.45 152.22 52.86 159.70 53.70 167.12 C 55.25 170.90 59.71 171.23 63.22 171.05 C 61.20 175.00 58.92 178.81 56.56 182.57 C 52.07 181.73 48.10 179.22 45.08 175.85 C 41.28 170.85 41.31 164.38 41.59 158.41 Z" />
</g>
<g id="#26caffff">
<path fill="#26caff" opacity="1.00" d=" M 77.61 157.01 C 77.62 153.76 80.72 151.02 83.94 151.35 C 91.62 151.33 99.29 151.30 106.96 151.35 C 110.78 151.07 113.98 155.16 112.82 158.80 C 112.36 161.06 110.35 162.64 108.19 163.17 C 99.72 162.96 91.25 162.93 82.78 163.19 C 79.84 162.75 77.38 160.05 77.61 157.01 Z" />
</g>
<g id="#051b2167">
<path fill="#051b21" opacity="0.40" d=" M 82.78 163.19 C 91.25 162.93 99.72 162.96 108.19 163.17 C 104.85 163.96 101.41 164.04 97.99 163.96 C 92.92 163.85 87.77 164.35 82.78 163.19 Z" />
</g>
<g id="#25c9ffff">
<path fill="#25c9ff" opacity="1.00" d=" M 63.22 171.05 C 75.57 170.97 87.91 171.00 100.26 171.01 C 98.54 174.25 96.95 177.66 94.39 180.35 C 92.81 182.10 90.21 181.84 88.07 182.05 C 77.56 182.19 67.05 182.12 56.56 182.57 C 58.92 178.81 61.20 175.00 63.22 171.05 Z" />
</g>
<g id="#0104053f">
<path fill="#010405" opacity="0.25" d=" M 45.08 175.85 C 48.10 179.22 52.07 181.73 56.56 182.57 C 81.04 183.06 105.55 182.65 130.05 182.82 C 135.61 183.10 140.94 180.62 144.81 176.71 C 143.35 183.04 135.67 184.90 130.04 185.25 C 107.35 185.31 84.66 185.22 61.97 185.29 C 55.43 185.28 47.22 182.77 45.08 175.85 Z" />
</g>
</svg>
