/* XPM */
static char * collapse_xpm[] = {
"14 20 33 1",
" 	c None",
".	c #343434",
"+	c #383838",
"@	c #3B3B3B",
"#	c #155174",
"$	c #3F3F3F",
"%	c #5B99BC",
"&	c #414141",
"*	c #4783A6",
"=	c #29698E",
"-	c #3D3D3D",
";	c #266182",
">	c #215370",
",	c #FFFFFF",
"'	c #393939",
")	c #104A6B",
"!	c #373737",
"~	c #0E425F",
"{	c #353535",
"]	c #313131",
"^	c #2F2F2F",
"/	c #14577E",
"(	c #2D2D2D",
"_	c #19638E",
":	c #2B2B2B",
"<	c #0075B8",
"[	c #292929",
"}	c #0084D0",
"|	c #272727",
"1	c #06A4FF",
"2	c #252525",
"3	c #232323",
"4	c #212121",
"..............",
"++++++++++++++",
"@@@########@@@",
"$$#%%%%%%%%#$$",
"&#%********%#&",
"$#%========%#$",
"-#%;;;;;;;;%#-",
"@#%>,>>,>>>%#@",
"'#%)),)),))%#'",
"!#%~~~,~~,~%#!",
"{#%~~~,~~,~%#{",
"]#%)),)),))%#]",
"^#%/,//,///%#^",
"(#%________%#(",
":#%<<<<<<<<%#:",
"[#%}}}}}}}}%#[",
"||#11111111#||",
"222########222",
"33333333333333",
"44444444444444"};
