/* XPM */
static char * icewm_xpm[] = {
"60 20 31 1",
" 	c None",
".	c #383838",
"+	c #3B3B3B",
"@	c #3F3F3F",
"#	c #155174",
"$	c #414141",
"%	c #5B99BC",
"&	c #4783A6",
"*	c #3D3D3D",
"=	c #29698E",
"-	c #FFFFFF",
";	c #1B5E85",
">	c #393939",
",	c #145B83",
"'	c #373737",
")	c #104A6B",
"!	c #353535",
"~	c #0E425F",
"{	c #333333",
"]	c #313131",
"^	c #2F2F2F",
"/	c #2D2D2D",
"(	c #2B2B2B",
"_	c #0075B8",
":	c #292929",
"<	c #0084D0",
"[	c #272727",
"}	c #06A4FF",
"|	c #252525",
"1	c #232323",
"2	c #212121",
"............................................................",
"++++++++++++++++++++++++++++++++++++++++++++++++++++++++++++",
"@@@@@##################################################@@@@@",
"$$$$#%%%%%%%%%%%%%%%%%%%%%%%%%%%%%%%%%%%%%%%%%%%%%%%%%%#$$$$",
"@@@#%&&&&&&&&&&&&&&&&&&&&&&&&&&&&&&&&&&&&&&&&&&&&&&&&&&%#@@@",
"***#%====================================-==========-==%#***",
"+++#%;;;;;;;;;;;;;;;;;;;;;;;;;;;;;;;;;;;;-;;;;;;;;;-;;;%#+++",
">>>#%,,,,,---,,,,---,-------,-----,,--,,,-,---,,,,-,,,,%#>>>",
"'''#%))))))-)))--))--))-)))))-))-)))--))---))--))--))))%#'''",
"!!!#%~~~~~~-~~-~~~~~-~~-~~~~~-~~-~---~~-~-~~-~-~-~-~~~~%#!!!",
"{{{#%~~~~~-~~-~~~~~~~~~---~~~~~~-~-~-~~-~-~~-~-~--~~~~~%#{{{",
"]]]#%)))))-))-))))))))-)))))))))--))-)-))))-))--)-)))))%#]]]",
"^^^#%,,,,,-,,-,,,,,,,,-,,,,-,,,,-,,,--,,,,,-,,-,,-,,,,,%#^^^",
"///#%;;;----;-;;;;-;-------;;;;-;;;;-;;;;--;;;;;;---;;;%#///",
"(((#%_________----_____________________________________%#(((",
":::#%<<<<<<<<<<<<<<<<<<<<<<<<<<<<<<<<<<<<<<<<<<<<<<<<<<%#:::",
"[[[[#}}}}}}}}}}}}}}}}}}}}}}}}}}}}}}}}}}}}}}}}}}}}}}}}}}#[[[[",
"|||||##################################################|||||",
"111111111111111111111111111111111111111111111111111111111111",
"222222222222222222222222222222222222222222222222222222222222"};
