<svg width="64" height="64" viewBox="0 0 64 64" fill="none" xmlns="http://www.w3.org/2000/svg">
<path d="M46.826 55.9999C46.3996 56.0016 45.9789 55.901 45.5994 55.7066L31.9994 48.5866L18.3994 55.7066C17.9577 55.9388 17.4598 56.0424 16.9622 56.0058C16.4646 55.9691 15.9873 55.7935 15.5845 55.4991C15.1817 55.2046 14.8696 54.8031 14.6837 54.3401C14.4977 53.877 14.4454 53.3712 14.5327 52.8799L17.1994 37.8666L6.2127 27.1999C5.86992 26.8578 5.62676 26.4289 5.50931 25.9591C5.39186 25.4893 5.40455 24.9964 5.54603 24.5332C5.70059 24.0593 5.9849 23.6382 6.3667 23.3176C6.7485 22.9971 7.21249 22.79 7.70603 22.7199L22.906 20.5066L29.5994 6.82656C29.8177 6.3757 30.1587 5.99547 30.5831 5.72942C31.0076 5.46337 31.4984 5.32227 31.9994 5.32227C32.5003 5.32227 32.9911 5.46337 33.4156 5.72942C33.8401 5.99547 34.181 6.3757 34.3994 6.82656L41.1727 20.4799L56.3727 22.6932C56.8662 22.7634 57.3302 22.9705 57.712 23.291C58.0938 23.6115 58.3781 24.0326 58.5327 24.5066C58.6742 24.9697 58.6869 25.4626 58.5694 25.9324C58.452 26.4022 58.2088 26.8312 57.866 27.1732L46.8794 37.8399L49.546 52.8532C49.6412 53.3532 49.5914 53.8699 49.4024 54.3424C49.2134 54.815 48.8931 55.2235 48.4794 55.5199C47.9965 55.8583 47.4151 56.0271 46.826 55.9999V55.9999ZM31.9994 42.9332C32.4268 42.9224 32.8497 43.0236 33.226 43.2266L43.2794 48.5599L41.3594 37.3332C41.2849 36.9046 41.3164 36.4642 41.4512 36.0505C41.586 35.6368 41.82 35.2624 42.1327 34.9599L50.1327 27.1466L38.9327 25.4932C38.522 25.4105 38.1365 25.2322 37.8076 24.9728C37.4787 24.7133 37.2155 24.38 37.0394 23.9999L31.9994 13.9999L26.9594 23.9999C26.7664 24.3831 26.4839 24.7141 26.1357 24.9648C25.7875 25.2155 25.384 25.3785 24.9594 25.4399L13.7594 27.0932L21.7594 34.9066C22.0721 35.2091 22.3061 35.5835 22.4409 35.9972C22.5757 36.4108 22.6072 36.8512 22.5327 37.2799L20.6127 48.3732L30.666 43.0399C31.092 42.8815 31.5536 42.8446 31.9994 42.9332V42.9332Z" fill="url(#paint0_linear)"/>
<defs>
<linearGradient id="paint0_linear" x1="32.0394" y1="56.013" x2="32.0394" y2="5.32227" gradientUnits="userSpaceOnUse">
<stop stop-color="#FDA700"/>
<stop offset="1" stop-color="#FFDE00"/>
</linearGradient>
</defs>
</svg>
