<svg width="64" height="64" viewBox="0 0 64 64" fill="none" xmlns="http://www.w3.org/2000/svg">
<path d="M18.683 9.89058C20.9709 5.14757 26.443 2.00722 32.0645 2C31.0306 3.56657 29.867 5.05733 28.7899 6.59863C25.8848 7.54795 23.4003 9.66678 22.4058 12.3776C22.0205 13.2222 21.8829 14.3448 20.8569 14.7635C19.9567 15.2436 18.966 14.796 18.1601 14.3809C17.0987 12.9623 18.0619 11.2839 18.683 9.89058Z" fill="#2ADA84"/>
<path d="M32.0645 2C35.0404 2.04692 37.9612 2.89157 40.4221 4.42204C39.5179 5.50853 38.716 6.6636 38.0359 7.88003C35.3863 6.14382 31.8798 5.66374 28.7899 6.59863C29.867 5.05733 31.0307 3.56656 32.0645 2Z" fill="#32DD7E"/>
<path d="M40.4221 4.422C42.4349 5.74311 44.0702 7.49015 45.2535 9.47904C44.1017 10.6197 43.0403 11.8325 42.0221 13.0742C41.4835 11.6953 40.7563 10.3526 39.6556 9.26969C39.1563 8.76795 38.6138 8.30231 38.0359 7.87999C38.716 6.66356 39.518 5.50849 40.4221 4.422Z" fill="#3CE078"/>
<path opacity="0.26" d="M28.79 6.59862C31.8798 5.66373 35.3864 6.14381 38.036 7.88002C38.6138 8.30235 39.1563 8.76799 39.6556 9.26972C38.2365 8.999 37.234 7.91973 35.8621 7.53711C31.5653 5.99581 26.2898 7.76452 23.9193 11.3633C23.2078 12.3631 22.8933 13.5363 22.3272 14.6011C21.6746 16.2362 18.5769 16.1316 18.1602 14.3809C18.9661 14.796 19.9567 15.2436 20.857 14.7635C21.883 14.3448 22.0206 13.2222 22.4058 12.3776C23.4004 9.66677 25.8849 7.54794 28.79 6.59862Z" fill="black"/>
<path d="M42.0221 13.0742C43.0403 11.8325 44.1017 10.6196 45.2535 9.479L45.3636 9.71724C47.4471 13.5506 46.7198 17.9002 46.8417 22.0187C47.0304 22.0187 47.3999 22.0151 47.5886 22.0151C48.9016 22.0151 50.2106 22.026 51.5236 22.0224C49.7782 23.1016 48.7994 24.8523 47.62 26.3936C42.9027 26.4261 38.1814 26.3972 33.4641 26.408C34.5962 25.0292 35.7048 23.6322 36.7347 22.1848C38.6256 22.1559 40.5165 22.1343 42.4074 22.1559V22.0187C42.3091 19.0408 42.7179 16.0124 42.0221 13.0742Z" fill="#48E46F"/>
<path opacity="0.16" d="M45.3635 9.71729C45.5208 9.82196 45.8392 10.0241 45.9964 10.1252C48.1664 13.7817 47.4431 18.0338 47.5885 22.0152C47.3998 22.0152 47.0303 22.0188 46.8416 22.0188C46.7198 17.9002 47.447 13.5507 45.3635 9.71729Z" fill="#010402"/>
<path d="M11.0409 22.5495C12.3971 21.8817 13.9775 22.0333 15.4595 22.0152C24.4421 22.0225 33.4247 22.0188 42.4073 22.0188V22.156C40.5165 22.1344 38.6256 22.156 36.7347 22.1849C32.6503 22.1849 28.5619 22.2715 24.4775 22.3257C23.6402 22.3618 22.7792 22.3365 21.9734 22.5711C20.7547 23.6973 19.9567 25.1375 18.9346 26.4081C17.6531 26.4117 16.3636 26.3468 15.0821 26.4514C13.7927 26.5453 12.7627 27.6607 12.7745 28.8338C12.692 30.8227 12.7863 32.8115 12.747 34.8004C11.3829 36.1721 10.1643 37.6665 9.07142 39.233C8.2734 40.3051 8.37168 41.6587 8.3245 42.8968C8.33236 45.9649 8.22229 49.0331 8.30878 52.0976C8.29305 53.5306 8.12795 54.9564 8.07684 56.3858C7.92353 46.7229 8.05719 37.0528 8.01001 27.3863C7.87635 25.4083 9.09107 23.4194 11.0409 22.5495Z" fill="#2EDC81"/>
<path d="M21.9733 22.571C22.7792 22.3364 23.6401 22.3617 24.4775 22.3256C28.5619 22.2714 32.6503 22.1848 36.7347 22.1848C35.7047 23.6323 34.5962 25.0292 33.464 26.408C28.6209 26.408 23.7777 26.408 18.9346 26.408C19.9567 25.1375 20.7547 23.6972 21.9733 22.571Z" fill="#3BE078"/>
<path d="M47.62 26.3936C48.7993 24.8523 49.7782 23.1016 51.5236 22.0223C54.0788 22.4808 56.2095 24.5815 56.1663 27.0252C56.1741 30.8695 56.2174 34.7209 56.1466 38.5651C56.1309 40.0306 54.2439 41.0413 52.8287 40.4096C51.8892 40.0631 51.3585 39.1282 51.3939 38.2294C51.3664 34.9555 51.4135 31.6816 51.386 28.4077C51.0243 26.8195 49.22 26.1842 47.62 26.3936Z" fill="#5BEA63"/>
<path opacity="0.25" d="M12.7745 28.8337C12.7627 27.6605 13.7927 26.5452 15.0821 26.4513C16.3637 26.3467 17.6531 26.4116 18.9346 26.408C23.7777 26.408 28.6209 26.408 33.464 26.408C38.1814 26.3972 42.9027 26.4261 47.62 26.3936C49.22 26.1842 51.0244 26.8195 51.386 28.4077C50.5094 27.8446 49.617 27.1155 48.4613 27.231C37.7096 27.2563 26.9502 27.213 16.1985 27.2527C14.5829 27.1552 13.1519 28.3969 13.2974 29.9057C13.2699 38.363 13.317 46.8239 13.2777 55.2812C12.9121 54.7145 12.7234 54.0684 12.747 53.4078C12.7274 51.2998 12.7706 49.1954 12.747 47.091C12.7549 42.9941 12.7549 38.8972 12.747 34.8003C12.7863 32.8114 12.692 30.8226 12.7745 28.8337Z" fill="black"/>
<path d="M9.07142 39.233C10.1643 37.6664 11.3829 36.1721 12.747 34.8004C12.7549 38.8973 12.7549 42.9942 12.747 47.0911C11.033 48.5819 9.95592 50.5527 8.30878 52.0976C8.2223 49.0331 8.33237 45.9649 8.32451 42.8967C8.37168 41.6586 8.2734 40.305 9.07142 39.233Z" fill="#38DF7A"/>
<path d="M51.4175 45.4668C51.4529 44.2864 52.6951 43.301 53.9727 43.4201C55.0891 43.5031 56.0169 44.3622 56.1702 45.3693C56.127 48.7587 56.1977 52.1553 56.1466 55.5448C56.182 57.364 55.0813 59.1471 53.3437 60.0243C51.386 61.0241 49.0588 60.5874 46.9203 60.674C43.5002 60.5621 40.0487 60.9195 36.6522 60.4683C34.9068 59.5081 35.178 56.7395 37.2772 56.3641C41.1219 56.162 44.9901 56.3786 48.8426 56.2631C50.2774 56.2631 51.4764 55.0178 51.3821 53.7183C51.4332 50.9678 51.331 48.2173 51.4175 45.4668Z" fill="#68EE5A"/>
<path opacity="0.25" d="M56.1702 45.3693L56.4454 44.9939C56.7992 48.8562 56.5476 52.7473 56.6026 56.6204C56.8031 59.2554 54.0356 61.645 51.217 61.5222C47.1443 61.5403 43.0717 61.5114 38.999 61.5367C38.0988 61.5367 36.7937 61.5403 36.6522 60.4682C40.0487 60.9194 43.5002 60.5621 46.9202 60.674C49.0588 60.5874 51.386 61.0241 53.3437 60.0243C55.0813 59.1471 56.182 57.364 56.1466 55.5447C56.1977 52.1553 56.1269 48.7587 56.1702 45.3693Z" fill="black"/>
<path d="M8.30872 52.0976C9.95586 50.5527 11.033 48.5818 12.747 47.0911C12.7705 49.1955 12.7273 51.2999 12.747 53.4079C12.7234 54.0684 12.9121 54.7145 13.2777 55.2812C13.5489 55.5484 13.8398 55.7938 14.1268 56.0429C12.7666 57.2088 11.7131 58.6273 10.7067 60.0531C9.37798 59.1904 8.25761 57.9162 8.07678 56.3858C8.12789 54.9564 8.29299 53.5306 8.30872 52.0976Z" fill="#42E274"/>
<path d="M10.7068 60.0531C11.7132 58.6273 12.7667 57.2087 14.1269 56.0428C14.4492 56.097 15.09 56.2053 15.4123 56.2594C20.566 56.4146 25.7473 56.0862 30.8892 56.4219C28.8764 56.5554 26.8558 56.5698 24.8392 56.5843C24.2023 56.6493 23.424 56.5446 22.9522 57.0355C21.7808 58.1075 20.9749 59.4539 20.0629 60.7101C16.9533 60.5079 13.6473 61.2479 10.7068 60.0531Z" fill="#4CE56D"/>
<path d="M22.9522 57.0355C23.4239 56.5446 24.2023 56.6493 24.8391 56.5843C26.8558 56.5699 28.8764 56.5554 30.8891 56.4219C31.7304 56.7828 32.3594 57.5445 32.3947 58.4108C32.4851 59.6128 31.3097 60.7353 30.0007 60.6956C26.6867 60.739 23.3728 60.6956 20.0628 60.7101C20.9748 59.4539 21.7807 58.1076 22.9522 57.0355Z" fill="#56E866"/>
</svg>
