<svg width="32" height="32" viewBox="0 0 32 32" fill="none" xmlns="http://www.w3.org/2000/svg">
<path d="M25.0754 18.5931C25.1367 18.0369 25.5813 17.5762 26.1409 17.5762H28C28.5523 17.5762 29.0042 18.0246 28.9586 18.575C28.7207 21.4418 27.4595 24.265 25.2047 26.3987C20.1305 31.2004 11.8798 31.2004 6.80563 26.3987C1.73146 21.5971 1.73146 13.7895 6.80563 8.9878C8.87983 7.025 11.5194 5.8804 14.2465 5.52576C14.7696 5.45773 15.1801 5.02475 15.1801 4.49724V3.68504C15.1801 2.92586 15.9928 2.44356 16.6592 2.80726L23.5197 6.55165C24.213 6.93009 24.2145 7.92522 23.5223 8.30575L16.6618 12.0771C15.9954 12.4434 15.1801 11.9613 15.1801 11.2008V10.1835C15.1801 9.60145 14.683 9.13754 14.1119 9.24997C12.4404 9.57906 10.8643 10.3782 9.56962 11.6033C5.98056 14.9606 5.98056 20.4259 9.56962 23.7832C13.1174 27.1795 18.8929 27.1795 22.4407 23.7832C23.9801 22.3595 24.8668 20.4866 25.0754 18.5931Z" fill="url(#paint0_linear)"/>
<defs>
<linearGradient id="paint0_linear" x1="16" y1="30" x2="16" y2="2" gradientUnits="userSpaceOnUse">
<stop stop-color="#00B59C"/>
<stop offset="1" stop-color="#9CFFAC"/>
</linearGradient>
</defs>
</svg>
