<svg width="32" height="32" viewBox="0 0 32 32" fill="none" xmlns="http://www.w3.org/2000/svg">
<path d="M9.50033 6C7.52798 7.07342 5.88746 8.62829 4.74568 10.5066C3.6039 12.3849 3.00158 14.5194 3 16.6932C3 19.9568 4.35274 23.0869 6.76067 25.3949C9.16867 27.7027 12.4345 28.9995 15.8401 29C18.1049 28.9972 20.3286 28.4203 22.2858 27.328C24.2429 26.2356 25.8637 24.6668 26.9839 22.7804C26.9893 22.7773 26.9947 22.7743 27 22.7712L25.8131 21.6358C25.8109 21.639 25.8088 21.6421 25.8066 21.645C24.2142 22.4336 22.448 22.8455 20.6555 22.8466C17.6758 22.8457 14.8185 21.7109 12.7118 19.6914C10.6051 17.672 9.4216 14.9335 9.4216 12.0781C9.4239 10.3576 9.8562 8.66275 10.6825 7.13531L9.50033 6ZM8.30532 8.72441C7.98156 9.81532 7.8167 10.9439 7.81543 12.0781C7.81543 15.3417 9.16813 18.4718 11.5762 20.7798C13.9841 23.0877 17.2499 24.3844 20.6555 24.3849C21.8446 24.381 23.0273 24.219 24.17 23.9034C23.118 25.0215 21.8333 25.9158 20.3986 26.5287C18.9638 27.1415 17.4109 27.4594 15.8401 27.4616C12.8603 27.4607 10.003 26.3259 7.89633 24.3064C5.78967 22.2871 4.60621 19.5486 4.60621 16.6932C4.60877 15.1911 4.93918 13.7062 5.57624 12.3338C6.21331 10.9614 7.14291 9.73202 8.30532 8.72441Z" fill="url(#paint0_linear)"/>
<path d="M14 8.14286V9.85714H17.8216L14.4883 13.2857L14 13.7879V15H20.6667V13.2857H16.8451L20.1784 9.85714L20.6667 9.35491V8.14286H19.4883H14ZM22.3333 3V4.71429H26.1549L22.8216 8.14286L22.3333 8.64509V9.85714H29V8.14286H25.1784L28.5117 4.71429L29 4.212V3H27.8216H22.3333Z" fill="url(#paint1_linear)"/>
<defs>
<linearGradient id="paint0_linear" x1="3.00352" y1="17.1592" x2="27.004" y2="17.1592" gradientUnits="userSpaceOnUse">
<stop stop-color="#A93AFF"/>
<stop offset="1" stop-color="#FF81FF"/>
</linearGradient>
<linearGradient id="paint1_linear" x1="14.0022" y1="8.8222" x2="29.0025" y2="8.8222" gradientUnits="userSpaceOnUse">
<stop stop-color="#A93AFF"/>
<stop offset="1" stop-color="#FF81FF"/>
</linearGradient>
</defs>
</svg>
