<svg width="32" height="32" viewBox="0 0 32 32" fill="none" xmlns="http://www.w3.org/2000/svg">
<path d="M16.0086 3H16.7941C17.7345 3.18964 18.4956 4.02617 18.5126 4.9923C18.5349 8.36582 18.5115 11.7404 18.5232 15.1139C18.5359 15.7102 18.4267 16.3519 18.0133 16.8102C17.4843 17.4412 16.5599 17.7036 15.7743 17.4497C15.1086 17.2579 14.5541 16.708 14.3792 16.0389C14.2848 15.7071 14.2764 15.3594 14.2774 15.0159C14.2901 11.6761 14.2668 8.33526 14.2891 4.99546C14.3039 4.02723 15.0662 3.18859 16.0086 3Z" fill="url(#paint0_linear)"/>
<path d="M8.49843 5.79917C9.2755 5.47994 10.272 5.88241 10.5646 6.67469C10.8455 7.33738 10.5932 8.15284 10.0123 8.57111C7.36623 10.655 5.87464 14.1128 6.2372 17.4537C6.51283 20.6144 8.40726 23.5717 11.1498 25.189C12.6297 26.0887 14.345 26.5576 16.0719 26.6461C18.5505 26.7061 21.0524 25.8685 22.9468 24.2682C25.5876 22.1178 26.9975 18.5715 26.5321 15.2096C26.2607 12.9391 25.1476 10.8036 23.5193 9.20114C23.0168 8.72598 22.3224 8.34775 22.1613 7.62185C21.9132 6.71051 22.6563 5.73175 23.5967 5.68328C24.414 5.61059 25.0013 6.26801 25.5589 6.75581C27.2657 8.33933 28.5474 10.3716 29.2195 12.5957C29.9054 14.8324 29.9924 17.2461 29.4506 19.5229C28.6407 23.0597 26.2883 26.212 23.1207 28.0125C21.0958 29.201 18.7413 29.7888 16.3963 29.8173C14.2125 29.7878 12.0223 29.28 10.0971 28.2422C7.5263 26.8884 5.42303 24.6748 4.21767 22.043C2.83528 19.0804 2.62537 15.6131 3.61128 12.5009C4.27492 10.3621 5.50572 8.40149 7.13724 6.86012C7.55493 6.46819 7.97579 6.04782 8.49843 5.79917Z" fill="url(#paint1_linear)"/>
<defs>
<linearGradient id="paint0_linear" x1="16.4008" y1="17.5457" x2="16.4008" y2="3" gradientUnits="userSpaceOnUse">
<stop stop-color="#FD3A84"/>
<stop offset="1" stop-color="#FFA68D"/>
</linearGradient>
<linearGradient id="paint1_linear" x1="16.4016" y1="29.8173" x2="16.4016" y2="5.67773" gradientUnits="userSpaceOnUse">
<stop stop-color="#FD3A84"/>
<stop offset="1" stop-color="#FFA68D"/>
</linearGradient>
</defs>
</svg>
