<svg width="256" height="256" viewBox="0 0 256 256" fill="none" xmlns="http://www.w3.org/2000/svg">
<g clip-path="url(#clip0)">
<path d="M128 234.667C69.0882 234.667 21.3335 186.913 21.3335 128.001C21.3335 69.0887 69.0882 21.334 128 21.334C144.562 21.3216 160.898 25.1716 175.711 32.5782C187.539 38.4919 198.135 46.5428 206.979 56.2959C209.746 59.3469 207.461 64.0007 203.343 64.0007H186.316C185.099 64.0007 183.927 63.5516 182.996 62.7666C170.942 52.603 156.296 45.9694 140.68 43.6209C124.44 41.1787 107.841 43.4743 92.8736 50.2323C77.9064 56.9902 65.2071 67.9235 56.2996 81.72C47.3921 95.5166 42.6548 111.59 42.6561 128.012C42.6575 144.435 47.3975 160.508 56.3073 174.303C65.2171 188.098 77.9182 199.029 92.8866 205.784C107.855 212.54 124.455 214.833 140.694 212.388C156.309 210.037 170.954 203.401 183.006 193.235C183.937 192.45 185.11 192.001 186.328 192.001H203.354C207.472 192.001 209.756 196.655 206.99 199.705C198.144 209.46 187.547 217.512 175.717 223.426C160.902 230.832 144.564 234.681 128 234.667Z" fill="url(#paint0_linear)"/>
<path d="M202.667 143.667V160.264C202.667 164.457 207.516 166.788 210.79 164.169L251.12 131.905C253.622 129.903 253.622 126.098 251.12 124.096L210.79 91.8328C207.517 89.2137 202.667 91.5446 202.667 95.7371V112.334C202.667 115.095 200.428 117.334 197.667 117.334H122.333C119.572 117.334 117.333 119.573 117.333 122.334V133.667C117.333 136.429 119.572 138.667 122.334 138.667H197.667C200.428 138.667 202.667 140.906 202.667 143.667Z" fill="url(#paint1_linear)"/>
</g>
<defs>
<linearGradient id="paint0_linear" x1="21.3054" y1="124.84" x2="213.302" y2="124.84" gradientUnits="userSpaceOnUse">
<stop stop-color="#FD3A84"/>
<stop offset="1" stop-color="#FFA68D"/>
</linearGradient>
<linearGradient id="paint1_linear" x1="117.313" y1="126.736" x2="255.97" y2="126.736" gradientUnits="userSpaceOnUse">
<stop stop-color="#FD3A84"/>
<stop offset="1" stop-color="#FFA68D"/>
</linearGradient>
<clipPath id="clip0">
<rect width="256" height="256" fill="white"/>
</clipPath>
</defs>
</svg>
