/* XPM */
static char * closeA_xpm[] = {
"27 36 108 2",
"  	c None",
". 	c #2E2E2E",
"+ 	c #2D2D2D",
"@ 	c #2C2C2C",
"# 	c #2B2B2B",
"$ 	c #292929",
"% 	c #1D1D1D",
"& 	c #161616",
"* 	c #171717",
"= 	c #282828",
"- 	c #151515",
"; 	c #1F1F1F",
"> 	c #747474",
", 	c #CBCBCB",
"' 	c #EBEBEB",
") 	c #CECECE",
"! 	c #767676",
"~ 	c #404040",
"{ 	c #DEDEDE",
"] 	c #E6E6E6",
"^ 	c #F2F2F2",
"/ 	c #F9F9F9",
"( 	c #F4F4F4",
"_ 	c #E9E9E9",
": 	c #E1E1E1",
"< 	c #252525",
"[ 	c #D6D6D6",
"} 	c #E2E2E2",
"| 	c #EFEFEF",
"1 	c #F3F3F3",
"2 	c #F5F5F5",
"3 	c #F1F1F1",
"4 	c #E4E4E4",
"5 	c #D9D9D9",
"6 	c #191919",
"7 	c #7B7B7B",
"8 	c #D5D5D5",
"9 	c #E7E7E7",
"0 	c #EEEEEE",
"a 	c #ECECEC",
"b 	c #D7D7D7",
"c 	c #7D7D7D",
"d 	c #B2B2B2",
"e 	c #DDDDDD",
"f 	c #E0E0E0",
"g 	c #E3E3E3",
"h 	c #B5B5B5",
"i 	c #2A2A2A",
"j 	c #181818",
"k 	c #ABABAB",
"l 	c #C8C8C8",
"m 	c #D1D1D1",
"n 	c #D4D4D4",
"o 	c #D8D8D8",
"p 	c #D2D2D2",
"q 	c #CACACA",
"r 	c #B4B4B4",
"s 	c #C2C2C2",
"t 	c #C5C5C5",
"u 	c #C9C9C9",
"v 	c #C7C7C7",
"w 	c #C4C4C4",
"x 	c #232323",
"y 	c #A9A9A9",
"z 	c #AFAFAF",
"A 	c #B9B9B9",
"B 	c #B8B8B8",
"C 	c #AAAAAA",
"D 	c #141414",
"E 	c #424242",
"F 	c #A2A2A2",
"G 	c #A4A4A4",
"H 	c #454545",
"I 	c #1E1E1E",
"J 	c #303030",
"K 	c #6F6F6F",
"L 	c #929292",
"M 	c #9A9A9A",
"N 	c #707070",
"O 	c #343434",
"P 	c #242424",
"Q 	c #373737",
"R 	c #383838",
"S 	c #484848",
"T 	c #525252",
"U 	c #464646",
"V 	c #3C3C3C",
"W 	c #3F3F3F",
"X 	c #4C4C4C",
"Y 	c #5C5C5C",
"Z 	c #555555",
"` 	c #272727",
" .	c #515151",
"..	c #636363",
"+.	c #757575",
"@.	c #858585",
"#.	c #8F8F8F",
"$.	c #8D8D8D",
"%.	c #818181",
"&.	c #717171",
"*.	c #5F5F5F",
"=.	c #323232",
"-.	c #8B8B8B",
";.	c #9B9B9B",
">.	c #989898",
",.	c #696969",
"'.	c #262626",
").	c #000000",
". + + + . + + + . + + + . + + + . + + + . + + + . + + ",
"+ + + + + + + + + + + + + + + + + + + + + + + + + + + ",
"@ @ + @ @ @ + @ @ # $ % & & * % = # + @ @ @ + @ @ @ + ",
"@ @ @ @ @ @ @ @ # - ; > , ' ) ! ; - # @ @ @ @ @ @ @ @ ",
"@ @ @ @ @ @ @ # - ~ { ] ^ / ( _ : ~ - # @ @ @ @ @ @ @ ",
"# # # # # # # < < [ } | 1 2 ( 3 4 5 < < # # # # # # # ",
"# # # # # # # 6 7 8 9 ' 0 | 0 a _ b c 6 # # # # # # # ",
"# # # # # # # 6 d 8 e f g 4 4 } { b h 6 # # # # # # # ",
"i i i i i i i j k l m n [ o b [ p q k j i i i i i i i ",
"i i i i i i i j ! r s t l u l v w r ! j i i i i i i i ",
"$ $ $ $ $ $ $ x < y z A A A A B z C < x $ $ $ $ $ $ $ ",
"$ $ $ $ $ $ $ = D E F G k z k G F H & = $ $ $ $ $ $ $ ",
"= = = = = = = = + I J K L M L N O P Q = = = = = = = = ",
"= = = = = = = = R S T U V ~ W X Y Z H = = = = = = = = ",
"` ` ` ` ` ` ` ` `  ...+.@.#.$.%.&.*.= ` ` ` ` ` ` ` ` ",
"` ` ` ` ` ` ` ` ` ` =.*.-.;.>.,.O ` ` ` ` ` ` ` ` ` ` ",
"'.'.'.'.'.'.'.'.'.'.'.'.'.'.'.'.'.'.'.'.'.'.'.'.'.'.'.",
"'.'.'.'.'.'.'.'.'.'.'.'.'.'.'.'.'.'.'.'.'.'.'.'.'.'.'.",
").).).).).).).).).).).).).).).).).).).).).).).).).).).",
").).).).).).).).).).).).).).).).).).).).).).).).).).).",
").).).).).).).).).).).).).).).).).).).).).).).).).).).",
").).).).).).).).).).).).).).).).).).).).).).).).).).).",
").).).).).).).).).).).).).).).).).).).).).).).).).).).",
").).).).).).).).).).).).).).).).).).).).).).).).).).).",
").).).).).).).).).).).).).).).).).).).).).).).).).).).",
").).).).).).).).).).).).).).).).).).).).).).).).).).).",
").).).).).).).).).).).).).).).).).).).).).).).).).).).",
").).).).).).).).).).).).).).).).).).).).).).).).).).).",
").).).).).).).).).).).).).).).).).).).).).).).).).).).",
").).).).).).).).).).).).).).).).).).).).).).).).).).).",
").).).).).).).).).).).).).).).).).).).).).).).).).).).",
").).).).).).).).).).).).).).).).).).).).).).).).).).).",
").).).).).).).).).).).).).).).).).).).).).).).).).).).",
").).).).).).).).).).).).).).).).).).).).).).).).).).).",
").).).).).).).).).).).).).).).).).).).).).).).).).).).",
").).).).).).).).).).).).).).).).).).).).).).).).).).)."};
