/* XPM */
static char * frameAR_xpm[] = {
"4 1 3 1",
" 	c None",
".	c #262626",
"+	c #0F0F0F",
"...+"};
