/* XPM */
static char * frameAB_xpm[] = {
"2 3 4 1",
" 	c None",
".	c #0F0F0F",
"+	c #101010",
"@	c #0D0D0D",
".+",
"..",
"@@"};
