/* XPM */
static char * frameATL_xpm[] = {
"22 21 20 1",
" 	c None",
".	c #2C2C2C",
"+	c #2E2E2E",
"@	c #3C3C3C",
"#	c #434343",
"$	c #444444",
"%	c #161616",
"&	c #2D2D2D",
"*	c #2F2F2F",
"=	c #121212",
"-	c #212121",
";	c #111111",
">	c #292929",
",	c #101010",
"'	c #2B2B2B",
")	c #2A2A2A",
"!	c #0F0F0F",
"~	c #282828",
"{	c #272727",
"]	c #262626",
"  .+@#############$##$",
" %&++++&+++*+&++++++++",
"=-+++++++++++++*+++++&",
";>&&                  ",
";&&&                  ",
";&&&                  ",
",...                  ",
",...                  ",
",..'                  ",
";'''                  ",
",'''                  ",
",'''                  ",
",)))                  ",
"!)')                  ",
"!>>>                  ",
",>>>                  ",
"!~~~                  ",
",~~~                  ",
"!{{{                  ",
"!{{{                  ",
"!]]]                  "};
