/* XPM */
static char * titleAB_xpm[] = {
"4 18 10 1",
" 	c None",
".	c #2D2D2D",
"+	c #2E2E2E",
"@	c #2C2C2C",
"#	c #2B2B2B",
"$	c #2A2A2A",
"%	c #292929",
"&	c #282828",
"*	c #272727",
"=	c #262626",
"..+.",
"....",
".@@@",
"@@@@",
"@@@@",
"####",
"####",
"####",
"$$$$",
"$$$$",
"%%%%",
"%%%%",
"&&&&",
"&&&&",
"****",
"****",
"====",
"===="};
