/* XPM */
static char * n7_xpm[] = {
"10 20 22 1",
" 	c None",
".	c #3F3F3F",
"+	c #7C4C00",
"@	c #985D00",
"#	c #A46400",
"$	c #FFFFFF",
"%	c #FAF6F1",
"&	c #C19653",
"*	c #D5B88B",
"=	c #EBDEC9",
"-	c #AD741B",
";	c #BF934E",
">	c #DCC49E",
",	c #B27C29",
"'	c #BE9049",
")	c #E3D0B2",
"!	c #EADCC6",
"~	c #B9873B",
"{	c #BC8D44",
"]	c #EADBC5",
"^	c #E8D9C1",
"/	c #C0944F",
"..........",
"++++++++++",
"@@@@@@@@@@",
"##########",
"##########",
"##########",
"##$$$$$%##",
"######&*##",
"######=-##",
"#####;>###",
"#####=,###",
"####')####",
"####!~####",
"###{]#####",
"###^/#####",
"##########",
"##########",
"@@@@@@@@@@",
"++++++++++",
".........."};
