/* XPM */
static char * n8_xpm[] = {
"10 20 30 1",
" 	c None",
".	c #3F3F3F",
"+	c #7C4C00",
"@	c #985D00",
"#	c #A46400",
"$	c #AD741B",
"%	c #D7BB90",
"&	c #F1E8DA",
"*	c #DAC199",
"=	c #B07923",
"-	c #DBC29B",
";	c #DAC098",
">	c #F6F1E8",
",	c #AE751D",
"'	c #AF761F",
")	c #DAC19A",
"!	c #D9BF96",
"~	c #AF7821",
"{	c #B07822",
"]	c #A76909",
"^	c #EEE2D0",
"/	c #FFFFFF",
"(	c #E1CBAB",
"_	c #E0CBAA",
":	c #F7F1E9",
"<	c #AE761E",
"[	c #D8BD94",
"}	c #D8BC92",
"|	c #F2E9DB",
"1	c #AD751C",
"..........",
"++++++++++",
"@@@@@@@@@@",
"##########",
"##########",
"##########",
"##$%&&%$##",
"##**==-;##",
"##>,##'>##",
"##)!~{;)##",
"##]^//^]##",
"##(-==-_##",
"##:<##'>##",
"##;;{{)[##",
"##<}||}1##",
"##########",
"##########",
"@@@@@@@@@@",
"++++++++++",
".........."};
