/* XPM */
static char * p_xpm[] = {
"10 20 29 1",
" 	c None",
".	c #3F3F3F",
"+	c #7C4C00",
"@	c #985D00",
"#	c #A46400",
"$	c #FFFFFF",
"%	c #C9A46A",
"&	c #F2EADD",
"*	c #F0E6D6",
"=	c #C59D5F",
"-	c #A56604",
";	c #EBDCC7",
">	c #B9873B",
",	c #EBDDC8",
"'	c #C69E61",
")	c #BE904A",
"!	c #BE914B",
"~	c #E2CEB0",
"{	c #AA6E12",
"]	c #F8F3EC",
"^	c #BE9049",
"/	c #E3CFB1",
"(	c #EADBC5",
"_	c #B88639",
":	c #C69F62",
"<	c #F3EADE",
"[	c #F0E6D7",
"}	c #C7A063",
"|	c #A56705",
"..........",
"++++++++++",
"@@@@@@@@@@",
"##########",
"##########",
"##########",
"##########",
"##########",
"##$%&*=-##",
"##$;>>,'##",
"##$)##!~##",
"##${##{]##",
"##$^##)/##",
"##$(__(:##",
"##$%<[}|##",
"##$#######",
"##$#######",
"@@$@@@@@@@",
"++++++++++",
".........."};
