/* XPM */
static char * colon_xpm[] = {
"5 20 34 1",
" 	c None",
".	c #424447",
"+	c #3F4144",
"@	c #404144",
"#	c #3D3F41",
"$	c #3D3E41",
"%	c #3A3C3F",
"&	c #3A3C3E",
"*	c #38393C",
"=	c #353739",
"-	c #353639",
";	c #333436",
">	c #303134",
",	c #55691C",
"'	c #7BA105",
")	c #576C1B",
"!	c #2D2F31",
"~	c #7AA005",
"{	c #84AE00",
"]	c #7CA304",
"^	c #2B2C2E",
"/	c #49581E",
"(	c #6F8F0A",
"_	c #4B5B1D",
":	c #28292B",
"<	c #262729",
"[	c #46551B",
"}	c #6D8D09",
"|	c #47571A",
"1	c #799F04",
"2	c #7BA203",
"3	c #506416",
"4	c #7BA103",
"5	c #536815",
".....",
"+@++@",
"#$$$$",
"%%%&%",
"*****",
"===-=",
";;;;;",
">,')>",
"!~{]!",
"^/(_^",
":::::",
"<[}|<",
"<1{2<",
"<345<",
"<<<<<",
"<<<<<",
"<<<<<",
"<<<<<",
"<<<<<",
"<<<<<"};
