/* XPM */
static char * dot_xpm[] = {
"5 20 27 1",
" 	c None",
".	c #424447",
"+	c #3F4144",
"@	c #404144",
"#	c #3D3F41",
"$	c #3D3E41",
"%	c #3A3C3F",
"&	c #3A3C3E",
"*	c #38393C",
"=	c #353739",
"-	c #353639",
";	c #333436",
">	c #303134",
",	c #2D2F31",
"'	c #2D2E31",
")	c #2B2C2E",
"!	c #28292B",
"~	c #262729",
"{	c #46551B",
"]	c #6D8D09",
"^	c #47571A",
"/	c #799F04",
"(	c #84AE00",
"_	c #7BA203",
":	c #506416",
"<	c #7BA103",
"[	c #536815",
".....",
"+@++@",
"#$$$$",
"%%%&%",
"*****",
"===-=",
";;;;;",
">>>>>",
",,,',",
")))))",
"!!!!!",
"~{]^~",
"~/(_~",
"~:<[~",
"~~~~~",
"~~~~~",
"~~~~~",
"~~~~~",
"~~~~~",
"~~~~~"};
