/* XPM */
static char * m_xpm[] = {
"12 20 38 1",
" 	c None",
".	c #424447",
"+	c #3F4144",
"@	c #404144",
"#	c #3D3F41",
"$	c #3D3E41",
"%	c #3A3C3F",
"&	c #3A3C3E",
"*	c #38393C",
"=	c #353739",
"-	c #353639",
";	c #333436",
">	c #84AE00",
",	c #80A902",
"'	c #668212",
")	c #7BA105",
"!	c #81AA01",
"~	c #759808",
"{	c #53651D",
"]	c #6A880F",
"^	c #7EA603",
"/	c #70900C",
"(	c #455126",
"_	c #6B8A0D",
":	c #353A28",
"<	c #49581E",
"[	c #3F4A23",
"}	c #80A801",
"|	c #2A2D29",
"1	c #282B27",
"2	c #353D22",
"3	c #2C3026",
"4	c #80A901",
"5	c #495919",
"6	c #262728",
"7	c #81A901",
"8	c #48581A",
"9	c #262729",
"............",
"+@++@++@++@+",
"#$$#$$$$$#$$",
"%%%%%%&%%%%%",
"************",
"======-=====",
";;;;;;;;;;;;",
">>,')!~{]^/(",
">>>>>>>>>>>_",
">>>:<>>>[>>}",
">>>||>>>|>>>",
">>>11>>>1>>>",
">>>21>>>3>>>",
">>>41>>>5>>>",
">>>>67>>87>>",
"999999999999",
"999999999999",
"999999999999",
"999999999999",
"999999999999"};
