/* XPM */
static char * 1_xpm[] = {
"10 20 27 1",
" 	c None",
".	c #424447",
"+	c #3F4144",
"@	c #404144",
"#	c #3D3F41",
"$	c #3D3E41",
"%	c #3A3C3F",
"&	c #3A3C3E",
"*	c #38393C",
"=	c #84AE00",
"-	c #353739",
";	c #83AD00",
">	c #353639",
",	c #333436",
"'	c #454F29",
")	c #303134",
"!	c #323432",
"~	c #2D2F31",
"{	c #2F322F",
"]	c #2D2E31",
"^	c #2B2C2E",
"/	c #2D302C",
"(	c #28292B",
"_	c #2A2D29",
":	c #262729",
"<	c #282B27",
"[	c #3C471F",
"..........",
"+@++@++@++",
"#$$$$$#$$$",
"%%%&%%%%%&",
"***====***",
"---;===-->",
",,,'===,,,",
")))!===)))",
"~~~{===~~]",
"^^^/===^^^",
"(((_===(((",
":::<===:::",
":::[===:::",
":::;===:::",
":::====:::",
"::::::::::",
"::::::::::",
"::::::::::",
"::::::::::",
"::::::::::"};
