/* XPM */
static char * 4_xpm[] = {
"10 20 39 1",
" 	c None",
".	c #424447",
"+	c #3F4144",
"@	c #404144",
"#	c #3D3F41",
"$	c #3D3E41",
"%	c #3A3C3F",
"&	c #3A3C3E",
"*	c #38393C",
"=	c #5A6E20",
"-	c #84AE00",
";	c #353739",
">	c #434B2E",
",	c #81AA01",
"'	c #353639",
")	c #333436",
"!	c #343634",
"~	c #759709",
"{	c #303134",
"]	c #5D7417",
"^	c #70900C",
"/	c #2D2F31",
"(	c #414D25",
"_	c #83AD00",
":	c #799E06",
"<	c #363C2B",
"[	c #2D2E31",
"}	c #2B2C2E",
"|	c #789D05",
"1	c #80A901",
"2	c #3B4425",
"3	c #2D302C",
"4	c #28292B",
"5	c #566B15",
"6	c #262729",
"7	c #556A14",
"8	c #374021",
"9	c #556B14",
"0	c #2E3325",
"..........",
"+@++@++@++",
"#$$$$$#$$$",
"%%%&%%%%%&",
"****=----*",
";;;>,----'",
"))!~-----)",
"{{]--^---{",
"/(_-:<---[",
"}|-123---}",
"4--------5",
"6--------7",
"688889---0",
"66666----6",
"66666----6",
"6666666666",
"6666666666",
"6666666666",
"6666666666",
"6666666666"};
