/* XPM */
static char * 5_xpm[] = {
"10 20 54 1",
" 	c None",
".	c #424447",
"+	c #3F4144",
"@	c #404144",
"#	c #3D3F41",
"$	c #3D3E41",
"%	c #3A3C3F",
"&	c #3A3C3E",
"*	c #38393C",
"=	c #84AE00",
"-	c #71910E",
";	c #353739",
">	c #75970A",
",	c #7FA702",
"'	c #70900E",
")	c #353639",
"!	c #333436",
"~	c #353734",
"{	c #3C422F",
"]	c #5B711A",
"^	c #516121",
"/	c #303134",
"(	c #6F8F0C",
"_	c #7A9F05",
":	c #678211",
"<	c #485524",
"[	c #313233",
"}	c #2D2F31",
"|	c #576C19",
"1	c #2D2E31",
"2	c #2B2C2E",
"3	c #769A07",
"4	c #5B7215",
"5	c #637E10",
"6	c #759907",
"7	c #28292B",
"8	c #49581B",
"9	c #282A2A",
"0	c #2D3028",
"a	c #262729",
"b	c #2B2E26",
"c	c #292B27",
"d	c #7EA602",
"e	c #5A7212",
"f	c #566C13",
"g	c #729407",
"h	c #4C5E18",
"i	c #2C3026",
"j	c #556A14",
"k	c #6F9009",
"l	c #7CA303",
"m	c #729507",
"n	c #4D5F17",
"o	c #262828",
"..........",
"+@++@++@++",
"#$$$$$#$$$",
"%%%&%%%%%&",
"*=======-*",
";===>,==')",
"!===~{]]^!",
"/===(_:<[/",
"}=======|1",
"233345==62",
"788890==,7",
"a===bc==da",
"a===ef==ga",
"ad======ha",
"aijkldmnoa",
"aaaaaaaaaa",
"aaaaaaaaaa",
"aaaaaaaaaa",
"aaaaaaaaaa",
"aaaaaaaaaa"};
