/* XPM */
static char * 6_xpm[] = {
"10 20 57 1",
" 	c None",
".	c #424447",
"+	c #3F4144",
"@	c #404144",
"#	c #3D3F41",
"$	c #3D3E41",
"%	c #3A3C3F",
"&	c #3A3C3E",
"*	c #38393C",
"=	c #3A3C3A",
"-	c #5C701F",
";	c #779A09",
">	c #80A802",
",	c #7FA603",
"'	c #779A0A",
")	c #678116",
"!	c #4B572C",
"~	c #353739",
"{	c #5B701D",
"]	c #84AE00",
"^	c #7FA703",
"/	c #353639",
"(	c #333436",
"_	c #769A08",
":	c #3E442E",
"<	c #3E452E",
"[	c #303134",
"}	c #434E27",
"|	c #4E5E21",
"1	c #475325",
"2	c #3A402D",
"3	c #2D2F31",
"4	c #70910A",
"5	c #3A4329",
"6	c #2D2E31",
"7	c #2B2C2E",
"8	c #7FA702",
"9	c #596F16",
"0	c #28292B",
"a	c #353C24",
"b	c #363D24",
"c	c #729408",
"d	c #262729",
"e	c #80A801",
"f	c #2A2D26",
"g	c #7FA701",
"h	c #759906",
"i	c #587012",
"j	c #597112",
"k	c #749706",
"l	c #556A14",
"m	c #526715",
"n	c #282B27",
"o	c #546914",
"p	c #749806",
"q	c #516615",
"r	c #282A28",
"..........",
"+@++@++@++",
"#$$$$$#$$$",
"%%%&%%%%%&",
"*=-;>,')!*",
"~{]]^^]]]/",
"(_]]:<]]](",
"[>]]}|122[",
"3]]]]]]456",
"7]]]88]]97",
"0]]]ab]]c0",
"de]]ff]]gd",
"dh]]ij]]kd",
"dl]]]]]]md",
"dnop88kqrd",
"dddddddddd",
"dddddddddd",
"dddddddddd",
"dddddddddd",
"dddddddddd"};
