/* XPM */
static char * 7_xpm[] = {
"10 20 46 1",
" 	c None",
".	c #424447",
"+	c #3F4144",
"@	c #404144",
"#	c #3D3F41",
"$	c #3D3E41",
"%	c #3A3C3F",
"&	c #3A3C3E",
"*	c #38393C",
"=	c #84AE00",
"-	c #353739",
";	c #80A802",
">	c #81A902",
",	c #353639",
"'	c #333436",
")	c #424A2B",
"!	c #7FA603",
"~	c #698512",
"{	c #303134",
"]	c #4E5E21",
"^	c #4B5923",
"/	c #2D2F31",
"(	c #33382D",
"_	c #69870E",
":	c #7FA702",
"<	c #2F322F",
"[	c #2D2E31",
"}	c #2B2C2E",
"|	c #31352A",
"1	c #81AA01",
"2	c #637E10",
"3	c #28292B",
"4	c #4D5F19",
"5	c #424F1E",
"6	c #262729",
"7	c #6D8E09",
"8	c #7CA303",
"9	c #272928",
"0	c #313723",
"a	c #83AD00",
"b	c #5E7710",
"c	c #536815",
"d	c #3D481E",
"e	c #749806",
"f	c #7AA004",
"g	c #262828",
"..........",
"+@++@++@++",
"#$$$$$#$$$",
"%%%&%%%%%&",
"*========*",
"-===;;==>,",
"'===)!==~'",
"{===]===^{",
"/(((_==:<[",
"}}}|1==2}}",
"3334===533",
"6667==8966",
"660a==b666",
"66c===d666",
"66e==fg666",
"6666666666",
"6666666666",
"6666666666",
"6666666666",
"6666666666"};
