/* XPM */
static char * 9_xpm[] = {
"10 20 65 1",
" 	c None",
".	c #424447",
"+	c #3F4144",
"@	c #404144",
"#	c #3D3F41",
"$	c #3D3E41",
"%	c #3A3C3F",
"&	c #3A3C3E",
"*	c #38393C",
"=	c #3A3C3A",
"-	c #5C711E",
";	c #779A09",
">	c #7FA703",
",	c #80A803",
"'	c #779B09",
")	c #5E741D",
"!	c #3A3D39",
"~	c #353739",
"{	c #5E761A",
"]	c #84AE00",
"^	c #5F761A",
"/	c #353639",
"(	c #333436",
"_	c #789D07",
":	c #3E452E",
"<	c #3C422F",
"[	c #799E06",
"}	c #303134",
"|	c #80A802",
"1	c #333531",
"2	c #303133",
"3	c #82AB01",
"4	c #2D2F31",
"5	c #6C8C0D",
"6	c #50621D",
"7	c #4E601D",
"8	c #2F322F",
"9	c #2B2C2E",
"0	c #526519",
"a	c #2D302C",
"b	c #28292B",
"c	c #2E3227",
"d	c #566C15",
"e	c #779B06",
"f	c #7A9F04",
"g	c #2A2D29",
"h	c #262729",
"i	c #43511B",
"j	c #4C5E18",
"k	c #2E3325",
"l	c #282A28",
"m	c #82AB00",
"n	c #262828",
"o	c #6F9008",
"p	c #566C13",
"q	c #556B14",
"r	c #779C05",
"s	c #6E8F09",
"t	c #2D3225",
"u	c #546A14",
"v	c #709108",
"w	c #7CA203",
"x	c #80A801",
"y	c #759906",
"z	c #292B27",
"..........",
"+@++@++@++",
"#$$$$$#$$$",
"%%%&%%%%%&",
"*=-;>,')!*",
"~{]]>>]]^/",
"(_]]:<]][(",
"}|]]12]]32",
"45]]67]]]8",
"90]]]]]]]a",
"bcde]f]]]g",
"hijjkl]]mn",
"ho]]pq]]rh",
"hs]]]]]]ph",
"htuvwxypzh",
"hhhhhhhhhh",
"hhhhhhhhhh",
"hhhhhhhhhh",
"hhhhhhhhhh",
"hhhhhhhhhh"};
