/* XPM */
static char * p_xpm[] = {
"10 20 42 1",
" 	c None",
".	c #424447",
"+	c #3F4144",
"@	c #404144",
"#	c #3D3F41",
"$	c #3D3E41",
"%	c #3A3C3F",
"&	c #3A3C3E",
"*	c #38393C",
"=	c #353739",
"-	c #353639",
";	c #333436",
">	c #303134",
",	c #84AE00",
"'	c #80A902",
")	c #678311",
"!	c #7CA204",
"~	c #7EA503",
"{	c #404929",
"]	c #2D2F31",
"^	c #658210",
"/	c #2D2E31",
"(	c #2B2C2E",
"_	c #343929",
":	c #49571E",
"<	c #7EA602",
"[	c #28292B",
"}	c #2A2D29",
"|	c #262729",
"1	c #282B27",
"2	c #292B27",
"3	c #353D22",
"4	c #46551A",
"5	c #7FA701",
"6	c #709108",
"7	c #68860C",
"8	c #7CA303",
"9	c #7DA402",
"0	c #627E0E",
"a	c #394220",
"b	c #3D481E",
"c	c #83AD00",
"..........",
"+@++@++@++",
"#$$$$$#$$$",
"%%%&%%%%%&",
"**********",
"===-=====-",
";;;;;;;;;;",
">,,')!~){>",
"],,,,,,,^/",
"(,,,_:,,<(",
"[,,,}},,,[",
"|,,,12,,,|",
"|,,,34,,5|",
"|,,,,,,,6|",
"|,,,7890a|",
"|,,,b|||||",
"|,,,c|||||",
"|,,,,|||||",
"||||||||||",
"||||||||||"};
