/* XPM */
static char * crawl_11x11_xpm[] = {
"16 16 62 1",
" 	c None",
".	c #555555",
"+	c #BDBDBD",
"@	c #525252",
"#	c #979797",
"$	c #515151",
"%	c #FFFFFF",
"&	c #FCFCFC",
"*	c #CECECE",
"=	c #8C8C8C",
"-	c #616161",
";	c #5D5D5D",
">	c #7F7F7F",
",	c #AEAEAE",
"'	c #E0E0E0",
")	c #E2E2E2",
"!	c #FEFEFE",
"~	c #F7F7F7",
"{	c #FDFDFD",
"]	c #FAFAFA",
"^	c #F2F2F2",
"/	c #EAEAEA",
"(	c #C2C2C2",
"_	c #D8D8D8",
":	c #D4D4D4",
"<	c #C9C9C9",
"[	c #BCBCBC",
"}	c #AAAAAA",
"|	c #DCDCDC",
"1	c #C7C7C7",
"2	c #B4B4B4",
"3	c #A2A2A2",
"4	c #949494",
"5	c #8F8F8F",
"6	c #A8A8A8",
"7	c #D7D7D7",
"8	c #F1F1F1",
"9	c #A5A5A5",
"0	c #F4F4F4",
"a	c #DEDEDE",
"b	c #919191",
"c	c #B2B2B2",
"d	c #CFCFCF",
"e	c #545454",
"f	c #F9F9F9",
"g	c #E1E1E1",
"h	c #989898",
"i	c #B8B8B8",
"j	c #E5E5E5",
"k	c #9E9E9E",
"l	c #A1A1A1",
"m	c #DADADA",
"n	c #8D8D8D",
"o	c #EEEEEE",
"p	c #C0C0C0",
"q	c #AFAFAF",
"r	c #C1C1C1",
"s	c #F6F6F6",
"t	c #E3E3E3",
"u	c #585858",
"v	c #C6C6C6",
"w	c #ACACAC",
"                ",
"                ",
"  .+@      @#.  ",
"  $%&*=-;>,')$  ",
"  $!~{&]~^/(_$  ",
"  $!^':<[}#}_$  ",
"  $!^|123456_$  ",
"  $!^|1234567$  ",
"  $!8|1234597$  ",
"  @&0a1234bcd@  ",
"  e8fg1234h<[e  ",
"   i&j*23klmn   ",
"   .o]:pq6are   ",
"    ;jsdrtpu    ",
"     .v/gwe     ",
"      .@@.      "};
