/* XPM */
static char * fd_11x11_xpm[] = {
"16 16 102 2",
"  	c None",
". 	c #888A85",
"+ 	c #BEBFBE",
"@ 	c #D2D2D2",
"# 	c #D3D3D3",
"$ 	c #BDBDBB",
"% 	c #D4D5D3",
"& 	c #F6F6F6",
"* 	c #D3D4D2",
"= 	c #DDDDDD",
"- 	c #DEDEDE",
"; 	c #777775",
"> 	c #858682",
", 	c #7E7E7C",
"' 	c #535352",
") 	c #FFFFFF",
"! 	c #525352",
"~ 	c #7F807E",
"{ 	c #878886",
"] 	c #939492",
"^ 	c #E0E0E0",
"/ 	c #70726E",
"( 	c #9B9D99",
"_ 	c #929390",
": 	c #646463",
"< 	c #616261",
"[ 	c #626262",
"} 	c #636463",
"| 	c #929490",
"1 	c #9E9F9C",
"2 	c #E1E1E1",
"3 	c #6D6E6B",
"4 	c #878985",
"5 	c #7C7E7B",
"6 	c #747572",
"7 	c #767875",
"8 	c #787A77",
"9 	c #7A7C79",
"0 	c #868884",
"a 	c #939592",
"b 	c #80827E",
"c 	c #E2E2E2",
"d 	c #666764",
"e 	c #686866",
"f 	c #5F615D",
"g 	c #575956",
"h 	c #525350",
"i 	c #545553",
"j 	c #565654",
"k 	c #5D5F5D",
"l 	c #686967",
"m 	c #757774",
"n 	c #E4E4E4",
"o 	c #E5E5E5",
"p 	c #787977",
"q 	c #858683",
"r 	c #7E7F7E",
"s 	c #535353",
"t 	c #80817E",
"u 	c #888986",
"v 	c #949593",
"w 	c #E7E7E7",
"x 	c #727471",
"y 	c #959692",
"z 	c #656564",
"A 	c #636362",
"B 	c #626362",
"C 	c #969795",
"D 	c #A1A29F",
"E 	c #898A88",
"F 	c #E8E8E8",
"G 	c #969894",
"H 	c #8C8D8A",
"I 	c #828481",
"J 	c #7A7B78",
"K 	c #7B7D79",
"L 	c #7E7F7C",
"M 	c #989996",
"N 	c #838582",
"O 	c #EAEAEA",
"P 	c #6E6F6B",
"Q 	c #8E908C",
"R 	c #848581",
"S 	c #797B77",
"T 	c #71736F",
"U 	c #737571",
"V 	c #757773",
"W 	c #777975",
"X 	c #838581",
"Y 	c #90918E",
"Z 	c #EBEBEB",
"` 	c #676865",
" .	c #666865",
"..	c #5E605C",
"+.	c #565854",
"@.	c #50524F",
"#.	c #525351",
"$.	c #535553",
"%.	c #555653",
"&.	c #5D5E5C",
"*.	c #676866",
"=.	c #ECECEC",
"    . . . . . . . . . . .       ",
"  . + @ # # # # # # # # $ .     ",
". % & & & & & & & & & & & * .   ",
". = = = = = = = = = = = = = .   ",
". - ; > , ' ) ) ) ! ~ { ] - .   ",
". ^ / ( _ : < < [ } | 1 { ^ .   ",
". 2 3 | 4 5 6 7 8 9 0 a b 2 .   ",
". c d e f g h ' i j k l m c .   ",
". n n n n n n n n n n n n n .   ",
". o p q r ' ) ) ) s t u v o .   ",
". w x 1 y z A B A z C D E w .   ",
". F / G H I J K L t H M N F .   ",
". O P Q R S T U V W X Y , O .   ",
". Z `  ...+.@.#.$.%.&.*.6 Z .   ",
". =.=.=.=.=.=.=.=.=.=.=.=.=..   ",
". . . . . . . . . . . . . . .   "};
