/* XPM */
static char * gimp_11x11_xpm[] = {
"22 22 105 2",
"  	c None",
". 	c #BDBDBD",
"+ 	c #BABABA",
"@ 	c #BEBEBE",
"# 	c #C4C4C4",
"$ 	c #C5C4C4",
"% 	c #CECDCD",
"& 	c #CDCCCC",
"* 	c #BFBFBF",
"= 	c #C1C0C0",
"- 	c #D0CFCF",
"; 	c #D2D2D2",
"> 	c #CDCDCD",
", 	c #D5D5D5",
"' 	c #DAD9D9",
") 	c #CFCECE",
"! 	c #DEDDDD",
"~ 	c #D6D5D5",
"{ 	c #DFDEDE",
"] 	c #E2E1E1",
"^ 	c #D0D0D0",
"/ 	c #D1D0D0",
"( 	c #D4D4D4",
"_ 	c #DADADA",
": 	c #E0DFDF",
"< 	c #DFE0E0",
"[ 	c #C7C7C7",
"} 	c #6A6A6A",
"| 	c #F2F2F2",
"1 	c #ECECEC",
"2 	c #E6E6E6",
"3 	c #D8D8D8",
"4 	c #FFFFFF",
"5 	c #DDDDDD",
"6 	c #E5E4E4",
"7 	c #E5E5E5",
"8 	c #CFCFCF",
"9 	c #696969",
"0 	c #717171",
"a 	c #6B6B6B",
"b 	c #939393",
"c 	c #1A1A1A",
"d 	c #535353",
"e 	c #EBEBEB",
"f 	c #E8E8E8",
"g 	c #6D6D6D",
"h 	c #7C7C7C",
"i 	c #E7E7E7",
"j 	c #EDEDED",
"k 	c #C3C2C2",
"l 	c #5B5B5B",
"m 	c #626262",
"n 	c #646464",
"o 	c #3C3C3C",
"p 	c #9A9A9A",
"q 	c #CCCCCC",
"r 	c #0A0A0A",
"s 	c #313131",
"t 	c #E0E0E0",
"u 	c #F0F0F0",
"v 	c #EEEEEE",
"w 	c #DBDBDB",
"x 	c #C5C5C5",
"y 	c #3B3B3B",
"z 	c #515151",
"A 	c #474747",
"B 	c #0E0E0E",
"C 	c #868686",
"D 	c #E4E4E4",
"E 	c #E2E2E2",
"F 	c #E3E3E3",
"G 	c #CBCBCB",
"H 	c #BCBCBC",
"I 	c #EAEAEA",
"J 	c #C8C8C8",
"K 	c #202020",
"L 	c #2C2C2C",
"M 	c #232323",
"N 	c #7E7E7E",
"O 	c #DFDFDF",
"P 	c #A9A9A9",
"Q 	c #DCDDDD",
"R 	c #B9B9B9",
"S 	c #3F3F3F",
"T 	c #636363",
"U 	c #6F6E6E",
"V 	c #AEAEAE",
"W 	c #E1E1E1",
"X 	c #DCDCDC",
"Y 	c #B1B1B1",
"Z 	c #9B9B9B",
"` 	c #C3C3C3",
" .	c #B6B5B5",
"..	c #808080",
"+.	c #858585",
"@.	c #8C8B8B",
"#.	c #7B7B7B",
"$.	c #777777",
"%.	c #ACACAC",
"&.	c #C2C1C1",
"*.	c #AFAEAE",
"=.	c #989897",
"-.	c #CECECE",
";.	c #D1D1D1",
">.	c #B8B8B8",
"                                            ",
"                                            ",
"                                            ",
"                                            ",
"          .                             .   ",
"          + @                         # +   ",
"            + $                     % & *   ",
"            = - ; >             & , ' ) @   ",
"            ! ~ { , ] ^ ) / ( _ : < ' [     ",
"    }     | 1 2 3 4 4 4 5 6 7 2 7 : 8 .     ",
"  9 0 a b , c d e f g h i 1 j e 7 , k       ",
"  l m n o ^ g p f q r s t u v f w x         ",
"  y z A B C D j E F * G j H I 5 J           ",
"  r K L M N _ i 2 D O F P x Q G R           ",
"    S T U V w W F X Y Z [ 1 `  .            ",
"        ..+.@.C #.$.%.3 1 &.*.              ",
"            =.P . -.( ;.>.                  ",
"                                            ",
"                                            ",
"                                            ",
"                                            ",
"                                            "};
