/* XPM */
static char * xterm_xpm[] = {
"20 20 156 2",
"  	c None",
". 	c #484848",
"+ 	c #585858",
"@ 	c #59595A",
"# 	c #595A5A",
"$ 	c #5A5A5A",
"% 	c #5B5B5B",
"& 	c #5C5C5C",
"* 	c #5D5D5D",
"= 	c #4C4C4C",
"- 	c #DFE0E2",
"; 	c #B5B6B6",
"> 	c #B7B8B9",
", 	c #BBBBBC",
"' 	c #BEBFC0",
") 	c #C1C1C2",
"! 	c #C3C4C5",
"~ 	c #C6C7C7",
"{ 	c #C8C9CA",
"] 	c #CBCBCC",
"^ 	c #CCCDCD",
"/ 	c #CDCDCE",
"( 	c #CFCFCF",
"_ 	c #D0D0D1",
": 	c #D2D2D2",
"< 	c #D4D4D5",
"[ 	c #CFCFD0",
"} 	c #F4F4F5",
"| 	c #4D4D4D",
"1 	c #C3C4C6",
"2 	c #000000",
"3 	c #2B2B2B",
"4 	c #1F1F1F",
"5 	c #191919",
"6 	c #1A1A1A",
"7 	c #191918",
"8 	c #171717",
"9 	c #161616",
"0 	c #161615",
"a 	c #151515",
"b 	c #131313",
"c 	c #121212",
"d 	c #010101",
"e 	c #C1C2C4",
"f 	c #C4C5C7",
"g 	c #A8A8A8",
"h 	c #979797",
"i 	c #565656",
"j 	c #575757",
"k 	c #535353",
"l 	c #515151",
"m 	c #4E4E4E",
"n 	c #4A4A4A",
"o 	c #494949",
"p 	c #474747",
"q 	c #323232",
"r 	c #0C0C0C",
"s 	c #C5C6C8",
"t 	c #141414",
"u 	c #7B7B7B",
"v 	c #B7B7B7",
"w 	c #939393",
"x 	c #464646",
"y 	c #444444",
"z 	c #424242",
"A 	c #3C3C3C",
"B 	c #202020",
"C 	c #040404",
"D 	c #909090",
"E 	c #BCBCBC",
"F 	c #7A7A7A",
"G 	c #646464",
"H 	c #3F3F3F",
"I 	c #3D3D3D",
"J 	c #3B3B3B",
"K 	c #1E1E1E",
"L 	c #9E9E9E",
"M 	c #707070",
"N 	c #B9B9B9",
"O 	c #3A3A3A",
"P 	c #353535",
"Q 	c #363636",
"R 	c #252525",
"S 	c #080808",
"T 	c #0F0F0F",
"U 	c #393939",
"V 	c #7F7F7F",
"W 	c #555555",
"X 	c #343434",
"Y 	c #020202",
"Z 	c #373737",
"` 	c #383838",
" .	c #212121",
"..	c #111111",
"+.	c #0E0E0E",
"@.	c #0B0B0B",
"#.	c #030303",
"$.	c #0D0D0C",
"%.	c #262626",
"&.	c #232323",
"*.	c #1C1C1C",
"=.	c #181818",
"-.	c #101010",
";.	c #C5C6C7",
">.	c #0D0D0D",
",.	c #404040",
"'.	c #414141",
").	c #2F2F2F",
"!.	c #313131",
"~.	c #2D2D2D",
"{.	c #2A2A2A",
"].	c #3E3E3E",
"^.	c #2C2C2C",
"/.	c #050505",
"(.	c #4B4B4B",
"_.	c #4F4F4F",
":.	c #454545",
"<.	c #080707",
"[.	c #C2C3C5",
"}.	c #242424",
"|.	c #272727",
"1.	c #292929",
"2.	c #282828",
"3.	c #C4C5C6",
"4.	c #EEEFF0",
"5.	c #969797",
"6.	c #99999A",
"7.	c #989999",
"8.	c #979798",
"9.	c #959696",
"0.	c #949595",
"a.	c #939494",
"b.	c #929293",
"c.	c #919292",
"d.	c #909191",
"e.	c #8F9090",
"f.	c #8E8F8F",
"g.	c #8D8E8F",
"h.	c #8D8E8E",
"i.	c #838485",
"j.	c #D4D6D7",
"k.	c #828282",
"l.	c #878787",
"m.	c #858586",
"n.	c #848585",
"o.	c #848484",
"p.	c #838383",
"q.	c #828383",
"r.	c #818182",
"s.	c #808181",
"t.	c #808081",
"u.	c #7F8080",
"v.	c #7F7F80",
"w.	c #7E7F7F",
"x.	c #7D7E7E",
"y.	c #737474",
"                                        ",
". + @ # $ $ % % % & & & & * * * * * % . ",
"= - ; > , ' ) ! ~ { ] ^ / ( _ : < [ } | ",
"= 1 2 3 4 5 6 7 8 9 0 a b c c c d 2 e = ",
"= f 4 g h $ i j k l m = n o p q r 2 s = ",
"= f t u v w n x p x y z z A B C 2 2 s = ",
"= f 8 D E F G y H I J A q b d 2 2 2 s = ",
"= f K L M j N w O P Q R S 2 2 d 2 2 s = ",
"= s T z U P V W X P 4 S C C Y 2 2 2 s = ",
"= s r Q Z Z ` O Z  .b a t ..+.@.#.2 s = ",
"= s $.U O A H O %. .&.&. .K *.=.-.2 ;.= ",
"= s >.I ,.'.O ).).!.!.!.).~.{.R K Y f = ",
"= s +.'.y ].Z J ].H H ].I O Z q ^./.f = ",
"= s T y z z p (.| _._.m = o :.'.J <.f = ",
"= [.2 4 B }.|.1.{.3 3 3 {.2.%.}. .2 3.= ",
"| 4.5.6.7.8.9.0.a.b.c.d.e.e.f.g.h.i.j.= ",
"o k.l.m.n.o.p.q.k.r.s.t.u.u.v.w.w.x.y.o ",
"                                        ",
"                                        ",
"                                        "};
