/* XPM */
static char * crawl_11x11_xpm[] = {
"32 32 581 2",
"  	c None",
". 	c #E1DAD6",
"+ 	c #AB8F79",
"@ 	c #9B6D53",
"# 	c #C8B5AD",
"$ 	c #AF9279",
"% 	c #944D1A",
"& 	c #884A2A",
"* 	c #C1B1AB",
"= 	c #CACACA",
"- 	c #B8B8B8",
"; 	c #BCBCBC",
"> 	c #BBBBBB",
", 	c #BCBBBB",
"' 	c #BABAB9",
") 	c #C2C2C2",
"! 	c #BAA896",
"~ 	c #9E571D",
"{ 	c #91400F",
"] 	c #A9897B",
"^ 	c #B9B9B9",
"/ 	c #A4A4A4",
"( 	c #A0A0A0",
"_ 	c #929292",
": 	c #8A8A8A",
"< 	c #858585",
"[ 	c #7C7C7C",
"} 	c #777777",
"| 	c #747473",
"1 	c #727272",
"2 	c #6F6F6F",
"3 	c #6C6C6C",
"4 	c #737373",
"5 	c #8E8E8E",
"6 	c #9B9B9B",
"7 	c #ABABAB",
"8 	c #D4D5D5",
"9 	c #C6C1BA",
"0 	c #9E6D41",
"a 	c #A34806",
"b 	c #8B5B43",
"c 	c #CEC9C9",
"d 	c #C1C1C0",
"e 	c #ABABAA",
"f 	c #858584",
"g 	c #6B6B6B",
"h 	c #6A6A6B",
"i 	c #646566",
"j 	c #5E5F60",
"k 	c #565759",
"l 	c #515354",
"m 	c #4E4F51",
"n 	c #4C4D4F",
"o 	c #48494B",
"p 	c #444546",
"q 	c #49494A",
"r 	c #4D4D4E",
"s 	c #4B4B4B",
"t 	c #5D5D5D",
"u 	c #7C7E80",
"v 	c #8D7361",
"w 	c #97440E",
"x 	c #934519",
"y 	c #A5948B",
"z 	c #D6D6D6",
"A 	c #AAAAAA",
"B 	c #8A8B8C",
"C 	c #77787A",
"D 	c #5F6062",
"E 	c #4D4E4F",
"F 	c #434445",
"G 	c #2F3031",
"H 	c #222323",
"I 	c #282827",
"J 	c #2E2D2B",
"K 	c #32312E",
"L 	c #333230",
"M 	c #302F2F",
"N 	c #29292A",
"O 	c #222222",
"P 	c #242525",
"Q 	c #2E2E2F",
"R 	c #333335",
"S 	c #383C3F",
"T 	c #444244",
"U 	c #7A3E27",
"V 	c #992F03",
"W 	c #7E4E3A",
"X 	c #CBC8C7",
"Y 	c #9F9F9F",
"Z 	c #838485",
"` 	c #4A4845",
" .	c #2C2922",
"..	c #201C12",
"+.	c #2C2614",
"@.	c #3A3117",
"#.	c #483D1C",
"$.	c #5B4D26",
"%.	c #685A35",
"&.	c #72663E",
"*.	c #73663A",
"=.	c #6A5B2F",
"-.	c #5F5026",
";.	c #4F431F",
">.	c #40361A",
",.	c #312B17",
"'.	c #211D13",
").	c #171B19",
"!.	c #472C22",
"~.	c #993516",
"{.	c #8A2C10",
"].	c #675652",
"^.	c #C1C5C7",
"/.	c #CECECE",
"(.	c #8A8A89",
"_.	c #726E63",
":.	c #534A2F",
"<.	c #5E4D1C",
"[.	c #766228",
"}.	c #7B692D",
"|.	c #8C7730",
"1.	c #A28C3F",
"2.	c #B69F4F",
"3.	c #CAB258",
"4.	c #D6C36C",
"5.	c #DFCF78",
"6.	c #DDC863",
"7.	c #D4BA52",
"8.	c #CDB456",
"9.	c #BCA553",
"0.	c #A68D3E",
"a.	c #937D32",
"b.	c #7C6D2F",
"c.	c #5F4F22",
"d.	c #7F370E",
"e.	c #A43107",
"f.	c #6D3A24",
"g.	c #595957",
"h.	c #949798",
"i.	c #BEBFBF",
"j.	c #73726F",
"k.	c #89816A",
"l.	c #9A8853",
"m.	c #B79942",
"n.	c #D4B246",
"o.	c #DCBC4A",
"p.	c #E2C44D",
"q.	c #EAD060",
"r.	c #F2DC79",
"s.	c #FAE57B",
"t.	c #FEEF7F",
"u.	c #FFF283",
"v.	c #FEEC73",
"w.	c #FCEB7D",
"x.	c #FDF093",
"y.	c #F6E284",
"z.	c #EACB5B",
"A.	c #E3C24B",
"B.	c #DBBF4D",
"C.	c #C1993A",
"D.	c #A95C1E",
"E.	c #8F4822",
"F.	c #66543F",
"G.	c #545651",
"H.	c #878788",
"I.	c #BEBEBE",
"J.	c #787671",
"K.	c #A39B85",
"L.	c #BCAA78",
"M.	c #CBB161",
"N.	c #D3B85A",
"O.	c #DDC15B",
"P.	c #E5C657",
"Q.	c #E8CA5A",
"R.	c #EAD05D",
"S.	c #EDD662",
"T.	c #EFD661",
"U.	c #F3DB64",
"V.	c #F1E07E",
"W.	c #ECDD81",
"X.	c #E4CB63",
"Y.	c #DFBE4F",
"Z.	c #D5B650",
"`.	c #CEB353",
" +	c #BCA04E",
".+	c #8E7449",
"++	c #695E51",
"@+	c #52524D",
"#+	c #474846",
"$+	c #939393",
"%+	c #7A7A7A",
"&+	c #555557",
"*+	c #676769",
"=+	c #807E79",
"-+	c #99937F",
";+	c #A69D84",
">+	c #B0A47E",
",+	c #BFAB6B",
"'+	c #C4AC60",
")+	c #C0A95F",
"!+	c #BFA85C",
"~+	c #C2AA5A",
"{+	c #C7B05D",
"]+	c #CBB158",
"^+	c #C0A346",
"/+	c #AB913F",
"(+	c #A08B4C",
"_+	c #92855C",
":+	c #887F63",
"<+	c #7C755F",
"[+	c #5F5E56",
"}+	c #47494B",
"|+	c #363738",
"1+	c #565556",
"2+	c #C9C9C8",
"3+	c #B3B3B3",
"4+	c #565656",
"5+	c #505051",
"6+	c #656769",
"7+	c #68696C",
"8+	c #737271",
"9+	c #8A867D",
"0+	c #959082",
"a+	c #8E887A",
"b+	c #857F6F",
"c+	c #807B6C",
"d+	c #898066",
"e+	c #B59E55",
"f+	c #C3A33F",
"g+	c #957F41",
"h+	c #686252",
"i+	c #515253",
"j+	c #48494C",
"k+	c #434446",
"l+	c #3C3C3E",
"m+	c #313031",
"n+	c #363636",
"o+	c #898989",
"p+	c #D0D0D0",
"q+	c #656565",
"r+	c #5C5C5C",
"s+	c #6A6A69",
"t+	c #626263",
"u+	c #5C5C5D",
"v+	c #555657",
"w+	c #5B5B5E",
"x+	c #606165",
"y+	c #5C5D61",
"z+	c #5B5C5F",
"A+	c #55585F",
"B+	c #5D5B58",
"C+	c #A39153",
"D+	c #D4B84D",
"E+	c #8E7C40",
"F+	c #454440",
"G+	c #3A3C42",
"H+	c #3B3B3C",
"I+	c #3A3A3A",
"J+	c #3C3C3C",
"K+	c #313130",
"L+	c #424242",
"M+	c #696969",
"N+	c #757575",
"O+	c #707070",
"P+	c #60605F",
"Q+	c #555554",
"R+	c #565655",
"S+	c #5A5A59",
"T+	c #575759",
"U+	c #545454",
"V+	c #7E734D",
"W+	c #AF9A49",
"X+	c #73683E",
"Y+	c #3E3E3E",
"Z+	c #454545",
"`+	c #444444",
" @	c #464646",
".@	c #3D3D3D",
"+@	c #B0B0B0",
"@@	c #B5B5B5",
"#@	c #4C4C4C",
"$@	c #575757",
"%@	c #686868",
"&@	c #6D6D6D",
"*@	c #6A6A6A",
"=@	c #626262",
"-@	c #5B5B5B",
";@	c #5A5A5B",
">@	c #58544B",
",@	c #675E3F",
"'@	c #555041",
")@	c #48484A",
"!@	c #4B4B4C",
"~@	c #494949",
"{@	c #474747",
"]@	c #353535",
"^@	c #393939",
"/@	c #969696",
"(@	c #747474",
"_@	c #4D4D4D",
":@	c #515151",
"<@	c #5D5C5C",
"[@	c #646464",
"}@	c #606060",
"|@	c #5E5E5E",
"1@	c #535353",
"2@	c #505050",
"3@	c #4E4E4E",
"4@	c #434241",
"5@	c #494847",
"6@	c #4A4A4A",
"7@	c #474748",
"8@	c #414141",
"9@	c #383838",
"0@	c #353534",
"a@	c #3D3D3C",
"b@	c #4C4C4B",
"c@	c #BABABA",
"d@	c #B6B5B6",
"e@	c #5C5E60",
"f@	c #636566",
"g@	c #676767",
"h@	c #616161",
"i@	c #555555",
"j@	c #464647",
"k@	c #464747",
"l@	c #434343",
"m@	c #3C3D3E",
"n@	c #515355",
"o@	c #535454",
"p@	c #585857",
"q@	c #909090",
"r@	c #D1D1D1",
"s@	c #505152",
"t@	c #3A3838",
"u@	c #5E5853",
"v@	c #6C6863",
"w@	c #797A79",
"x@	c #7B7B7B",
"y@	c #666666",
"z@	c #4A4A4B",
"A@	c #454544",
"B@	c #4B4846",
"C@	c #645E58",
"D@	c #413F3E",
"E@	c #4A4C4D",
"F@	c #707071",
"G@	c #C3C3C3",
"H@	c #BFBFBF",
"I@	c #7F7E7D",
"J@	c #332A25",
"K@	c #654326",
"L@	c #765E4A",
"M@	c #696867",
"N@	c #76787A",
"O@	c #828181",
"P@	c #7F7F7F",
"Q@	c #787878",
"R@	c #595959",
"S@	c #4E4E4D",
"T@	c #3F3F3F",
"U@	c #36383A",
"V@	c #57493B",
"W@	c #744F2D",
"X@	c #392B20",
"Y@	c #494A4B",
"Z@	c #6D6E6E",
"`@	c #B8B9B9",
" #	c #A9A5A0",
".#	c #64584C",
"+#	c #573A1F",
"@#	c #7A491F",
"##	c #775E48",
"$#	c #666565",
"%#	c #6A6B6D",
"&#	c #757474",
"*#	c #767676",
"=#	c #4F4F4F",
"-#	c #484848",
";#	c #383B3D",
">#	c #4F4032",
",#	c #754519",
"'#	c #5B3715",
")#	c #62503F",
"!#	c #88837E",
"~#	c #D2CECB",
"{#	c #836C56",
"]#	c #6E451D",
"^#	c #6E5338",
"/#	c #67625F",
"(#	c #656767",
"_#	c #686767",
":#	c #6E6E6E",
"<#	c #5F5F5F",
"[#	c #585858",
"}#	c #525252",
"|#	c #393B3C",
"1#	c #3A3837",
"2#	c #4E3925",
"3#	c #643A12",
"4#	c #79583A",
"5#	c #B5ADA5",
"6#	c #C6BDB6",
"7#	c #726357",
"8#	c #4A4643",
"9#	c #5A5B5D",
"0#	c #636464",
"a#	c #686869",
"b#	c #5A5A5A",
"c#	c #424141",
"d#	c #343537",
"e#	c #2B2928",
"f#	c #544539",
"g#	c #AB9F95",
"h#	c #BEBEC0",
"i#	c #666769",
"j#	c #5F5E5E",
"k#	c #636362",
"l#	c #616060",
"m#	c #515152",
"n#	c #444445",
"o#	c #474746",
"p#	c #464645",
"q#	c #393938",
"r#	c #313131",
"s#	c #464748",
"t#	c #9C9C9D",
"u#	c #48494A",
"v#	c #535557",
"w#	c #505254",
"x#	c #535456",
"y#	c #59595B",
"z#	c #595858",
"A#	c #535352",
"B#	c #484847",
"C#	c #434342",
"D#	c #474646",
"E#	c #474647",
"F#	c #414345",
"G#	c #3B3D3F",
"H#	c #2B2D2E",
"I#	c #3C3D3D",
"J#	c #979797",
"K#	c #5B5D5F",
"L#	c #4D4D49",
"M#	c #4E514B",
"N#	c #4D5251",
"O#	c #4F5458",
"P#	c #54575A",
"Q#	c #4D4C4D",
"R#	c #434444",
"S#	c #404244",
"T#	c #404348",
"U#	c #444849",
"V#	c #474C46",
"W#	c #444540",
"X#	c #2B2B2B",
"Y#	c #424446",
"Z#	c #BBBCBD",
"`#	c #AFB2B3",
" $	c #4D4B4B",
".$	c #5E3729",
"+$	c #8C4D24",
"@$	c #9B5E25",
"#$	c #8B663F",
"$$	c #756B56",
"%$	c #66685C",
"&$	c #5A5E60",
"*$	c #585D63",
"=$	c #575A61",
"-$	c #57575C",
";$	c #58575A",
">$	c #58595F",
",$	c #53565F",
"'$	c #4E5258",
")$	c #53544C",
"!$	c #65614E",
"~$	c #836645",
"{$	c #9B612B",
"]$	c #965322",
"^$	c #693620",
"/$	c #473C38",
"($	c #8B8C8E",
"_$	c #797773",
":$	c #5D432A",
"<$	c #793411",
"[$	c #A52A05",
"}$	c #D63304",
"|$	c #DC5419",
"1$	c #CB6A29",
"2$	c #B36D39",
"3$	c #977752",
"4$	c #94865C",
"5$	c #999263",
"6$	c #9A9E84",
"7$	c #9A9F97",
"8$	c #989977",
"9$	c #92925B",
"0$	c #908152",
"a$	c #A7693A",
"b$	c #C2672C",
"c$	c #DA551F",
"d$	c #E03708",
"e$	c #B52A02",
"f$	c #852F0E",
"g$	c #623D1D",
"h$	c #625950",
"i$	c #C5C5C6",
"j$	c #716B65",
"k$	c #735638",
"l$	c #956E57",
"m$	c #863A36",
"n$	c #950807",
"o$	c #B51900",
"p$	c #D13000",
"q$	c #E53E0B",
"r$	c #E35820",
"s$	c #E37925",
"t$	c #E7A730",
"u$	c #E7DA69",
"v$	c #E6E28F",
"w$	c #E5BE53",
"x$	c #E39826",
"y$	c #E16C21",
"z$	c #E23E12",
"A$	c #D82D01",
"B$	c #C51C00",
"C$	c #A10804",
"D$	c #82292A",
"E$	c #8F6353",
"F$	c #7B5C3D",
"G$	c #63574B",
"H$	c #BFBEBD",
"I$	c #B5B2B1",
"J$	c #AEA7A1",
"K$	c #D9D6D3",
"L$	c #B2A8A9",
"M$	c #754D4E",
"N$	c #6C2A2A",
"O$	c #791710",
"P$	c #930800",
"Q$	c #BA1400",
"R$	c #D02D00",
"S$	c #D65502",
"T$	c #DC8B1A",
"U$	c #CF982E",
"V$	c #C86A0F",
"W$	c #CA3E00",
"X$	c #B91A00",
"Y$	c #950802",
"Z$	c #88201B",
"`$	c #825858",
" %	c #A9A0A1",
".%	c #D3D1D0",
"+%	c #B9B5B0",
"@%	c #AAA6A3",
"#%	c #C6C6C6",
"$%	c #A29FA0",
"%%	c #827374",
"&%	c #6E4847",
"*%	c #6E2B28",
"=%	c #78211A",
"-%	c #8B2B22",
";%	c #8B3119",
">%	c #995939",
",%	c #9E5847",
"'%	c #792822",
")%	c #601E1D",
"!%	c #6B4B4C",
"~%	c #938B8B",
"{%	c #B5B2B3",
"]%	c #D3D4D4",
"^%	c #9E9B9B",
"/%	c #878081",
"(%	c #9B8E91",
"_%	c #8C7B7D",
":%	c #C1B7B7",
"<%	c #D9D2D3",
"[%	c #938C8E",
"}%	c #898686",
"|%	c #CBCDCD",
"                                                          .     ",
"                                                        + @ #   ",
"                                                      $ % & *   ",
"                      = - ; ; ; > , > ' )           ! ~ { ]     ",
"                ^ / ( _ : < [ } | 1 2 3 4 5 6 7 8 9 0 a b c     ",
"            d e f g g h i j k l m n o p q r s t u v w x y       ",
"        z A B C D E F G H I J K L M N O P Q R S T U V W X       ",
"        Y Z h `  ...+.@.#.$.%.&.*.=.-.;.>.,.'.).!.~.{.].^.      ",
"      /.(._.:.<.[.}.|.1.2.3.4.5.6.7.8.9.0.a.b.c.d.e.f.g.h.      ",
"      i.j.k.l.m.n.o.p.q.r.s.t.u.v.w.x.y.z.A.B.C.D.E.F.G.H.      ",
"      I.t J.K.L.M.N.O.P.Q.R.S.T.U.V.W.X.Y.Z.`. +.+++@+#+$+      ",
"        %+&+*+=+-+;+>+,+'+)+!+~+{+]+^+/+(+_+:+<+[+}+|+1+2+      ",
"        3+4+5+D 6+7+8+9+0+a+b+c+d+e+f+g+h+i+j+k+l+m+n+o+        ",
"        p+q+r+s+t+u+v+w+x+y+z+A+B+C+D+E+F+G+H+I+J+K+L+A         ",
"      ) : r+M+N+O+g P+4+Q+R+S+T+U+V+W+X+Y+F Z+`+ @.@.@2 +@      ",
"    @@M+#@$@%@&@*@M+M+=@-@r+t ;@&+>@,@'@)@!@~@{@`+.@]@^@-@/@    ",
"    (@_@:@<@[@[@=@}@=@|@1@2@2@3@3@{@4@5@6@7@Z+8@.@9@0@a@b@t c@  ",
"  d@-@3@e@f@g@g %@h@|@r+i@3@6@j@{@`+F k@Z+l@L+J+9@n+m@n@o@p@q@  ",
"r@o+s@t@u@v@g w@x@1 g y@[@|@4+3@z@{@Z+A@ @ @l@.@9@]@B@C@D@E@F@G@",
"H@I@v+J@K@L@M@N@O@P@Q@1 1 2 y@t R@U+S@6@#@6@Z+T@I+U@V@W@X@Y@Z@`@",
"   #.#+#@###$#%#&#Q@(@1 *#N+3 [@}@r+4+=#s -#Z+L+T@;#>#,#'#)#!#  ",
"  ~#{#]#^#/#(#q+_#3 *@*@:#g [@<#-@[#}#_@-#Z+Z+`+8@|#1#2#3#4#5#  ",
"    6#7#8#9#0#h@=@g@a#g@y@h@-@b#4+}##@-# @Z+`+l@c#a@d#e#f#g#    ",
"      h#i#2@-@|@-@j#k#l#|@r+b#[#m##@{@n#o#o#p# @c#q#r#s#t#      ",
"        > $@u#v#w#x#y#b#z#R+A#3@~@B#p#C#D#E#p F#G#H#I#J#        ",
"          K#H+L#M#N#O#P#v+:@Q#-#{@z@q R#S#T#U#V#W#X#Y#Z#        ",
"        `# $.$+$@$#$$$%$&$*$=$-$;$>$,$'$)$!$~${$]$^$/$($        ",
"        _$:$<$[$}$|$1$2$3$4$5$6$7$8$9$0$a$b$c$d$e$f$g$h$i$      ",
"        j$k$l$m$n$o$p$q$r$s$t$u$v$w$x$y$z$A$B$C$D$E$F$G$H$      ",
"        I$J$K$L$M$N$O$P$Q$R$S$T$U$V$W$X$Y$Z$m$`$ %.%+%@%        ",
"                #%$%%%&%*%=%-%;%>%,%'%)%!%~%{%                  ",
"                      ]%^%/%(%_%:%<%[%}%|%                      "};
