/* XPM */
static char * folder_11x11_xpm[] = {
"64 64 630 2",
"  	c None",
". 	c #6D91CD",
"+ 	c #7498D3",
"@ 	c #8BA9D8",
"# 	c #82A6DB",
"$ 	c #7093CE",
"% 	c #6E92CE",
"& 	c #D4EBFC",
"* 	c #F9FCFF",
"= 	c #D1E7FC",
"- 	c #B0D5FA",
"; 	c #B1D6FA",
"> 	c #B9DEFC",
", 	c #89ADDC",
"' 	c #789DD6",
") 	c #B5D6F4",
"! 	c #C5DAF8",
"~ 	c #90B7F1",
"{ 	c #8CB5F1",
"] 	c #8CB5F2",
"^ 	c #8DB5F1",
"/ 	c #8CB6F1",
"( 	c #A4CAF5",
"_ 	c #7295CE",
": 	c #779CD6",
"< 	c #9BC7F0",
"[ 	c #9BBFE9",
"} 	c #7295CF",
"| 	c #8DB6F1",
"1 	c #8CB6F2",
"2 	c #8DB6F2",
"3 	c #8DB5F2",
"4 	c #97BFF3",
"5 	c #81A5D8",
"6 	c #6E91CC",
"7 	c #9AC6F1",
"8 	c #BBD9F9",
"9 	c #A6C0E4",
"0 	c #6D90CC",
"a 	c #9EC1F3",
"b 	c #E6F1FD",
"c 	c #ECF7FF",
"d 	c #C4E8FE",
"e 	c #C7EAFF",
"f 	c #97BCE8",
"g 	c #759BD4",
"h 	c #9AC5F1",
"i 	c #93BBF2",
"j 	c #B6DBFB",
"k 	c #769BD5",
"l 	c #99C4F0",
"m 	c #8BB5F0",
"n 	c #8DB7F1",
"o 	c #8DB7F2",
"p 	c #90BAF3",
"q 	c #6F93CD",
"r 	c #759AD4",
"s 	c #98C4F0",
"t 	c #86AEEB",
"u 	c #8EB6F2",
"v 	c #6E92CD",
"w 	c #97C3F0",
"x 	c #83ABE8",
"y 	c #85AEEA",
"z 	c #8EB7F2",
"A 	c #749AD4",
"B 	c #96C2F0",
"C 	c #81A9E6",
"D 	c #82AAE7",
"E 	c #8DB7F3",
"F 	c #8EB7F3",
"G 	c #749AD3",
"H 	c #97C2F0",
"I 	c #7FA7E4",
"J 	c #81A8E5",
"K 	c #80A9E6",
"L 	c #84ACE9",
"M 	c #8BB4F0",
"N 	c #8CB5F0",
"O 	c #8EB6F1",
"P 	c #8DB5F0",
"Q 	c #7499D4",
"R 	c #95C1F0",
"S 	c #7CA4E2",
"T 	c #7EA5E2",
"U 	c #7EA7E4",
"V 	c #80A8E5",
"W 	c #80A9E7",
"X 	c #84ACE8",
"Y 	c #85AFEA",
"Z 	c #87B0EB",
"` 	c #86AFEC",
" .	c #87B1EC",
"..	c #88B1ED",
"+.	c #88B1EC",
"@.	c #88B0EC",
"#.	c #87B0ED",
"$.	c #89B1EE",
"%.	c #89B2EE",
"&.	c #8BB3F0",
"*.	c #8AB4EF",
"=.	c #8CB4EF",
"-.	c #8DB8F1",
";.	c #8EB8F3",
">.	c #6F92CD",
",.	c #7499D3",
"'.	c #94BFEE",
").	c #78A1DE",
"!.	c #7AA1DF",
"~.	c #7CA4E1",
"{.	c #7DA5E2",
"].	c #7FA8E4",
"^.	c #81A9E5",
"/.	c #81A8E6",
"(.	c #81ABE7",
"_.	c #82ACE8",
":.	c #83ABE7",
"<.	c #83AAE7",
"[.	c #84ADE9",
"}.	c #85ADE9",
"|.	c #83ACE8",
"1.	c #85ACE9",
"2.	c #85ACEA",
"3.	c #85ADEA",
"4.	c #86ADE9",
"5.	c #86ADEA",
"6.	c #86AEE9",
"7.	c #86AEEA",
"8.	c #86ACEA",
"9.	c #87ACEB",
"0.	c #87ADEB",
"a.	c #88AEEA",
"b.	c #88ADEB",
"c.	c #89AEEA",
"d.	c #88AEEB",
"e.	c #89AFEA",
"f.	c #89AFEC",
"g.	c #89ADEB",
"h.	c #6E91CD",
"i.	c #93BEED",
"j.	c #759BDA",
"k.	c #769EDC",
"l.	c #7AA0DD",
"m.	c #7AA2DF",
"n.	c #7AA2E0",
"o.	c #7CA4E0",
"p.	c #7DA5E3",
"q.	c #7EA6E3",
"r.	c #80A7E5",
"s.	c #80A8E4",
"t.	c #82A9E6",
"u.	c #82A8E6",
"v.	c #82AAE6",
"w.	c #82ABE7",
"x.	c #84AAE5",
"y.	c #84A9E6",
"z.	c #85ABE7",
"A.	c #85ABE6",
"B.	c #86ACE7",
"C.	c #87ABE8",
"D.	c #86ACE8",
"E.	c #87ADE8",
"F.	c #88ADE7",
"G.	c #87ADE9",
"H.	c #89AEE8",
"I.	c #88AEE9",
"J.	c #759DDB",
"K.	c #789FDC",
"L.	c #79A0DE",
"M.	c #79A1DF",
"N.	c #79A2DF",
"O.	c #7BA3E0",
"P.	c #7DA6E1",
"Q.	c #7DA6E2",
"R.	c #7EA7E3",
"S.	c #7FA8E5",
"T.	c #80A7E4",
"U.	c #7FA7E5",
"V.	c #7FA7E2",
"W.	c #81AAE5",
"X.	c #82ABE5",
"Y.	c #82AAE5",
"Z.	c #82ACE5",
"`.	c #82ACE6",
" +	c #83ADE5",
".+	c #84AEE7",
"++	c #85AFE7",
"@+	c #84AFE8",
"#+	c #85AFE8",
"$+	c #85AEE9",
"%+	c #86AFEA",
"&+	c #87AFE9",
"*+	c #86AFEB",
"=+	c #87AFEA",
"-+	c #88AFE9",
";+	c #81A8E2",
">+	c #7DA4DE",
",+	c #769BD6",
"'+	c #94BFEF",
")+	c #759DDA",
"!+	c #769EDB",
"~+	c #79A1DE",
"{+	c #7AA3DF",
"]+	c #7CA3E0",
"^+	c #7DA5E1",
"/+	c #7EA6E2",
"(+	c #C6DEFA",
"_+	c #EAF5FE",
":+	c #D4EAFD",
"<+	c #D1E9FD",
"[+	c #D0E8FD",
"}+	c #CFE8FD",
"|+	c #CEE7FD",
"1+	c #CEE6FD",
"2+	c #CCE6FD",
"3+	c #CBE6FD",
"4+	c #CAE6FD",
"5+	c #CAE5FD",
"6+	c #C8E5FD",
"7+	c #C7E4FD",
"8+	c #C6E4FD",
"9+	c #C5E3FD",
"0+	c #C4E3FD",
"a+	c #C3E2FD",
"b+	c #C2E1FD",
"c+	c #C1E1FD",
"d+	c #C0E1FD",
"e+	c #BEE0FD",
"f+	c #BDDFFD",
"g+	c #BCDFFD",
"h+	c #BBDFFD",
"i+	c #BBDEFD",
"j+	c #B9DEFD",
"k+	c #B8DDFD",
"l+	c #B7DDFD",
"m+	c #B6DCFD",
"n+	c #ABD2FB",
"o+	c #83ABE4",
"p+	c #7499D2",
"q+	c #94C0EF",
"r+	c #749AD9",
"s+	c #769CDB",
"t+	c #779EDB",
"u+	c #789FDD",
"v+	c #7BA4E0",
"w+	c #B0CFF8",
"x+	c #FDFEFF",
"y+	c #D7E6FB",
"z+	c #8FB9F4",
"A+	c #8EB9F4",
"B+	c #8FBAF4",
"C+	c #90BBF5",
"D+	c #8FBBF5",
"E+	c #91BBF5",
"F+	c #90BCF6",
"G+	c #91BCF5",
"H+	c #91BCF6",
"I+	c #92BDF6",
"J+	c #93BDF6",
"K+	c #92BEF7",
"L+	c #93BEF7",
"M+	c #94BFF7",
"N+	c #93BFF8",
"O+	c #95BFF8",
"P+	c #94BFF8",
"Q+	c #94C0F7",
"R+	c #95C0F8",
"S+	c #82AAE4",
"T+	c #7398D2",
"U+	c #7299D7",
"V+	c #739AD8",
"W+	c #749BDA",
"X+	c #749CDA",
"Y+	c #769DDB",
"Z+	c #779EDC",
"`+	c #78A0DC",
" @	c #7BA1DF",
".@	c #9AC6EE",
"+@	c #A4C8F6",
"@@	c #8FB9F2",
"#@	c #8DB8F3",
"$@	c #8EB8F4",
"%@	c #8FB9F5",
"&@	c #90BAF4",
"*@	c #90BAF5",
"=@	c #90BCF5",
"-@	c #91BBF6",
";@	c #92BCF6",
">@	c #92BDF7",
",@	c #93BEF6",
"'@	c #93BDF7",
")@	c #94BEF7",
"!@	c #6F93CE",
"~@	c #6F97D5",
"{@	c #7198D6",
"]@	c #749BD9",
"^@	c #769CDA",
"/@	c #7EA7E2",
"(@	c #9DC9EF",
"_@	c #91B9F2",
":@	c #8BB5F2",
"<@	c #8CB6F3",
"[@	c #8CB7F3",
"}@	c #90BBF6",
"|@	c #94C0F8",
"1@	c #95C0F7",
"2@	c #89B1EB",
"3@	c #94C0EE",
"4@	c #6E95D3",
"5@	c #6F96D4",
"6@	c #7097D6",
"7@	c #729AD8",
"8@	c #94C0EB",
"9@	c #97C1F1",
"0@	c #88B2F0",
"a@	c #8BB5F3",
"b@	c #8BB6F2",
"c@	c #8DB8F4",
"d@	c #93BFF7",
"e@	c #94BEF8",
"f@	c #7398D1",
"g@	c #94C0ED",
"h@	c #6C93D1",
"i@	c #6D94D2",
"j@	c #7096D4",
"k@	c #7197D5",
"l@	c #7199D7",
"m@	c #9DC9EE",
"n@	c #8CB5EF",
"o@	c #87B1F0",
"p@	c #8AB4F2",
"q@	c #8BB5F1",
"r@	c #8AB5F2",
"s@	c #8EB9F5",
"t@	c #8EB8F1",
"u@	c #6D91CC",
"v@	c #94BFEC",
"w@	c #6A91D0",
"x@	c #6B92D1",
"y@	c #6C93D2",
"z@	c #6D94D3",
"A@	c #6F95D4",
"B@	c #7097D4",
"C@	c #8BB5E6",
"D@	c #98C1F0",
"E@	c #84AEEE",
"F@	c #89B3F1",
"G@	c #89B3F2",
"H@	c #8AB3F2",
"I@	c #8AB4F1",
"J@	c #8BB6F3",
"K@	c #8DB6F3",
"L@	c #8FBAF5",
"M@	c #90BBF4",
"N@	c #91BDF6",
"O@	c #93BEF8",
"P@	c #7BA1DB",
"Q@	c #688FCE",
"R@	c #6990CF",
"S@	c #6B91D0",
"T@	c #6C92D1",
"U@	c #6D93D2",
"V@	c #6E94D3",
"W@	c #9BC7ED",
"X@	c #8DB5EE",
"Y@	c #84AEED",
"Z@	c #87B1F1",
"`@	c #88B2F1",
" #	c #88B3F0",
".#	c #89B2F1",
"+#	c #8EB7F4",
"@#	c #8EBAF4",
"##	c #91BDF5",
"$#	c #678DCC",
"%#	c #688DCD",
"&#	c #6A90CF",
"*#	c #7EA6DE",
"=#	c #98C3EF",
"-#	c #82AAEB",
";#	c #85AFEE",
">#	c #86B0F0",
",#	c #89B4F2",
"'#	c #8CB5F3",
")#	c #8DB7F4",
"!#	c #7298D1",
"~#	c #94C0EC",
"{#	c #658BCA",
"]#	c #668CCB",
"^#	c #688ECD",
"/#	c #698FCE",
"(#	c #6A90D0",
"_#	c #97C3EC",
":#	c #8CB5ED",
"<#	c #81AAEB",
"[#	c #85AFEF",
"}#	c #87B0EF",
"|#	c #87B0F0",
"1#	c #87B1EF",
"2#	c #89B3F0",
"3#	c #88B3F1",
"4#	c #89B4F1",
"5#	c #8BB4F2",
"6#	c #94BEF6",
"7#	c #6389C8",
"8#	c #648AC9",
"9#	c #668CCC",
"0#	c #678DCD",
"a#	c #7198D5",
"b#	c #99C4ED",
"c#	c #7FA8E8",
"d#	c #80AAEC",
"e#	c #85AEEE",
"f#	c #86AFEF",
"g#	c #86B0EF",
"h#	c #88B1F0",
"i#	c #90B9F5",
"j#	c #92BCF7",
"k#	c #86AFE9",
"l#	c #95C0EC",
"m#	c #6187C7",
"n#	c #6288C8",
"o#	c #6389C9",
"p#	c #658BCB",
"q#	c #91BCE8",
"r#	c #8DB5EC",
"s#	c #7BA3E5",
"t#	c #83ACED",
"u#	c #83ADED",
"v#	c #84ADEE",
"w#	c #84AEEF",
"x#	c #85AEEF",
"y#	c #86AFF0",
"z#	c #88B1F1",
"A#	c #7297D2",
"B#	c #6085C5",
"C#	c #6086C6",
"D#	c #6388C8",
"E#	c #678CCC",
"F#	c #81A8E7",
"G#	c #7DA6E7",
"H#	c #82ACED",
"I#	c #83ACEE",
"J#	c #83ADEE",
"K#	c #84AFEE",
"L#	c #8BB4EE",
"M#	c #7297D0",
"N#	c #5E83C4",
"O#	c #5F84C4",
"P#	c #6186C6",
"Q#	c #86AFE2",
"R#	c #8FB8EB",
"S#	c #7AA2E5",
"T#	c #80AAEB",
"U#	c #81ABED",
"V#	c #82ABED",
"W#	c #82ADEE",
"X#	c #86B1F0",
"Y#	c #87B2F0",
"Z#	c #789ED9",
"`#	c #94BFEB",
" $	c #5C81C2",
".$	c #5D82C3",
"+$	c #5F84C5",
"@$	c #79A2E5",
"#$	c #80A9EC",
"$$	c #81AAEC",
"%$	c #81AAED",
"&$	c #86AFEE",
"*$	c #86B1EF",
"=$	c #8CB7F2",
"-$	c #6C90CC",
";$	c #5B80C1",
">$	c #5C81C1",
",$	c #5D82C2",
"'$	c #79A1DA",
")$	c #93BCEC",
"!$	c #769EE2",
"~$	c #7DA6EA",
"{$	c #7FA8EC",
"]$	c #7FA9EB",
"^$	c #82ABEC",
"/$	c #81ACED",
"($	c #83AEEE",
"_$	c #89B2EF",
":$	c #8FB8F4",
"<$	c #7DA4DF",
"[$	c #5A7EBF",
"}$	c #5A7FC0",
"|$	c #94BFED",
"1$	c #779FE3",
"2$	c #7EA8EB",
"3$	c #7FA8EB",
"4$	c #84AFEF",
"5$	c #87B2F1",
"6$	c #8AB3F1",
"7$	c #84AEEC",
"8$	c #587DBE",
"9$	c #597DBF",
"0$	c #92BCEE",
"a$	c #769EE1",
"b$	c #7BA3E7",
"c$	c #7DA7EA",
"d$	c #7EA7EB",
"e$	c #7FA7EB",
"f$	c #80A9EB",
"g$	c #84AFED",
"h$	c #94C0EA",
"i$	c #577BBD",
"j$	c #587CBD",
"k$	c #8EB8EF",
"l$	c #749DE1",
"m$	c #7DA5EA",
"n$	c #7EA6EA",
"o$	c #7DA7EB",
"p$	c #80AAED",
"q$	c #81ABEC",
"r$	c #82ACEE",
"s$	c #81AAE9",
"t$	c #7094D0",
"u$	c #95C0EA",
"v$	c #567ABC",
"w$	c #6288C7",
"x$	c #90BAF2",
"y$	c #769EE0",
"z$	c #77A0E4",
"A$	c #7CA5EA",
"B$	c #7CA6EA",
"C$	c #7CA5E9",
"D$	c #7EA7EA",
"E$	c #7EA8EA",
"F$	c #7FA9EC",
"G$	c #81A9EC",
"H$	c #83ACEB",
"I$	c #7FA8E9",
"J$	c #5579BB",
"K$	c #83ABEA",
"L$	c #739BDF",
"M$	c #7BA4E9",
"N$	c #7BA5EA",
"O$	c #7EA7E7",
"P$	c #83ABEB",
"Q$	c #749AD6",
"R$	c #ADCEEF",
"S$	c #789FE1",
"T$	c #759DE2",
"U$	c #7CA4E9",
"V$	c #7BA5E9",
"W$	c #7DA6E9",
"X$	c #82ACEC",
"Y$	c #82ABEB",
"Z$	c #7CA5E6",
"`$	c #6C8FCC",
" %	c #BDD8F2",
".%	c #86AEEC",
"+%	c #6F97DB",
"@%	c #7BA4EA",
"#%	c #7EA6E8",
"$%	c #7398D0",
"%%	c #B3D5F4",
"&%	c #E7F1FD",
"*%	c #769DDE",
"=%	c #6F96DB",
"-%	c #7199DD",
";%	c #749CE0",
">%	c #749CE1",
",%	c #759DE1",
"'%	c #769DE2",
")%	c #769EE3",
"!%	c #769FE3",
"~%	c #78A0E4",
"{%	c #78A1E5",
"]%	c #78A1E4",
"^%	c #79A1E5",
"/%	c #79A2E6",
"(%	c #7AA2E6",
"_%	c #7AA3E7",
":%	c #7AA4E7",
"<%	c #7BA4E7",
"[%	c #7BA5E7",
"}%	c #7CA5E7",
"|%	c #7CA6E7",
"1%	c #7DA6E8",
"2%	c #7EA6E9",
"3%	c #7EA7E9",
"4%	c #7FA9E9",
"5%	c #80A9EA",
"6%	c #7BA4E6",
"7%	c #759EE0",
"8%	c #81ABEB",
"9%	c #7097DB",
"0%	c #6F96DA",
"a%	c #7098DC",
"b%	c #7097DC",
"c%	c #7198DC",
"d%	c #7299DD",
"e%	c #729ADD",
"f%	c #729ADE",
"g%	c #739BDE",
"h%	c #739ADE",
"i%	c #749CDF",
"j%	c #749DDF",
"k%	c #759DE0",
"l%	c #79A1E4",
"m%	c #7BA2E1",
"n%	c #779CD7",
"o%	c #87AEED",
"p%	c #739CDF",
"q%	c #6F93D0",
"r%	c #7BAAEE",
"s%	c #79A7EA",
"t%	c #6B8ECB",
"u%	c #7B9ECC",
"v%	c #80A8E1",
"w%	c #688BC8",
"x%	c #6D93D3",
"y%	c #7298D9",
"z%	c #7399DA",
"A%	c #739ADA",
"B%	c #7499DA",
"C%	c #749ADA",
"D%	c #749BDB",
"E%	c #759BDB",
"F%	c #759BDC",
"G%	c #759CDC",
"H%	c #769CDC",
"I%	c #779DDC",
"J%	c #779DDD",
"K%	c #759ADA",
"L%	c #6C8FCB",
"M%	c #476088",
"                                                                                                                                ",
"                                                                                                                                ",
"                                                                                                                                ",
"                                                                                                                                ",
"                                                                                                                                ",
"                                                                                                                                ",
"                                                                                                                                ",
"                                                                                                                                ",
"                                                                                                                                ",
"  . + @ @ @ @ @ @ @ @ @ @ @ @ @ @ @ @ @ # $                                                                                     ",
"  % & * = - - - - - - - - - - - - - - ; > ,                                                                                     ",
"  ' ) ! ~ { { { { { { { { { { { ] { ^ / / ( _                                                                                   ",
"  : < / { { / ^ { ] { / { { { / { / ^ ^ { { [ }                                                                                 ",
"  : < ^ | ] 1 / { ] { { 1 / { ] 2 | / 3 3 | 4 5 6                                                                               ",
"  : 7 { ^ | 3 { / 1 | 2 2 | | 1 { ^ / 2 ^ ] / 8 9 @ @ @ @ @ @ @ @ @ @ @ @ @ @ @ @ @ @ @ @ @ @ @ @ @ @ 0                         ",
"  : 7 ^ 2 | | ] 3 / / 2 2 { 2 ^ / { | { 2 | | a b c d d d d d d d d d d d d d d d d d d d d d d d d e f 0                       ",
"  g h 2 3 2 | 1 1 2 2 | 2 / | | / 2 / 2 | / | / | 2 2 2 1 1 | 1 ] 1 | / 2 / | 1 ^ 2 3 2 1 1 | | | 2 i j 6                       ",
"  k l m | | | | 2 1 1 | 2 2 2 2 1 2 | 2 2 2 | 2 | | | 2 2 2 n 1 2 | 1 2 2 | 2 | 2 2 2 2 | o 1 | 2 | n p q                       ",
"  r s t { 2 2 2 u n o 2 o o | o 2 2 2 o 2 o o | 2 | 2 2 2 2 o o 2 | o 2 2 2 o 2 2 2 2 2 2 2 2 2 2 n | o v                       ",
"  r w x y u 2 o 2 z 2 2 o 2 u o o z 2 2 2 2 | | o o u o o u o u z o | o o 2 o 2 u z | z o o 2 2 o o o u v                       ",
"  A B C D y u | 2 2 z E z o 2 2 z 2 z o o z z F z o 2 o u o 2 E z z z z z 2 z 2 z z o E z z z u E u z o v                       ",
"  G H I J K L M { ^ E / | z 1 N o O / P 2 | o z z o o o o z o z z z z z u z o z z F z E E z o z E o z z v                       ",
"  Q R S T U V W X y Y Z `  ...+.@...#.$.$.%.%.&.*.=./ / 2 E z -.n n z | | ;.z 2 z o o z | | z o z E | z >.                      ",
"  ,.'.).!.~.~.{.I ].V ^./.(._.:.<.<.x X X [.}.|.1.}.L [.1.2.3.y 4.5.5.3.y 6.7.2.5.8.9.0.a.a.b.c.d.e.f.g.h.                      ",
"  ,.i.j.k.l.m.n.o.{.p.q.q.I I V V r.V s.].V V C ^.C t.J u.v.v.w.x |.|.|.|.x.y.z.A.B.B.C.D.E.F.G.G.E.H.I.6                       ",
"  ,.'.J.K.L.M.N.O.~.P.Q.R.I S.J V T.U.I I I I I I I U I V.V.s.W.X.Y.Z.`. +.+++@+#+$+6.6.%+&+%+*+=+%+-+Z ;+>+>+>+>+>+>+>+>+,+.   ",
"  ,.'+)+!+K.).~+{+]+^+{./+-.(+_+:+<+<+[+[+}+|+1+2+3+4+5+6+7+8+9+0+a+b+c+d+e+f+g+h+i+j+j+k+k+l+l+l+l+l+l+l+l+l+l+l+l+l+l+m+n+o+  ",
"  p+q+r+j.s+t+u+).M.v+O.v.w+x+y+z+A+z+B+C+D+C+E+F+G+H+H+H+I+J+K+L+L+L+M+N+M+O+P+O+Q+R+R+R+R+R+R+R+R+R+R+R+R+R+R+R+R+R+R+R+R+S+  ",
"  T+'.U+V+W+X+Y+Z+`+~+ @.@+@@@E #@A+$@z+%@%@&@D+*@C+=@-@E+I+;@;@>@I+,@'@L+)@M+M+M+O+Q+R+O+R+R+R+R+R+R+R+R+R+R+R+R+R+R+R+R+R+!@  ",
"  T+'.~@{@U+V+]@^@!+K./@(@_@:@<@E [@#@$@$@A+z+A+B+B+D+C+C+}@G+;@H+;@I+I+K+L+'@L+M+M+P+M+|@M+1@R+R+R+R+R+R+R+R+R+R+R+R+R+R+2@h.  ",
"  T+3@4@5@6@{@7@]@]@Y+8@9@0@:@a@b@<@E [@#@c@$@$@A+A+z+*@&@*@C+}@C+G+H+H+H+I+>@'@L+,@L+)@d@e@P+M+O+R+O+O+R+R+R+R+R+R+R+R+R+Q     ",
"  f@g@h@i@4@j@k@l@V+)+m@n@o@p@q@r@:@:@1 [@[@E E #@;.$@A+s@z+*@*@C+}@E+H+H+;@;@I+>@I+K+L+L+L+L+)@P+P+M+M+R+R+R+R+R+R+R+R+t@u@    ",
"  f@v@w@x@y@z@A@B@{@C@D@E@o@F@G@H@I@r@:@J@b@J@<@K@E #@;.$@A+A+z+L@%@M@*@C+H+H+H+N@I+I+>@J+K+L+L+M+O@L+M+M+M+P+R+|@R+R+R+P@      ",
"  f@v@Q@R@S@T@U@V@5@W@X@Y@Z@`@ #.#F@F@I@p@p@:@a@<@<@<@<@E c@+#$@$@A+@#%@L@C+C+C+E+H+;@H+H+I+'@'@,@,@L+M+d@)@P+M+|@1@1@##0       ",
"  f@v@$#%#Q@&#S@T@*#=#-#;#>#o@o@`@0@0@F@F@,#p@p@:@r@:@'#<@[@[@)#c@$@$@$@A+L@B+B+*@C+E+-@H+;@N@I+;@I+K+K+L+)@L+L+)@M+M+;+0       ",
"  !#~#{#]#$#^#/#(#_#:#<#[#>#>#}#|#1#o@0@`@2#3#4#F@I@r@5#:@:@'#b@<@<@E F #@A+%@%@L@%@*@C+*@C+-@-@H+I+H+I+I+I+'@L+L+d@6#v         ",
"  !#~#7#8#{#9#0#a#b#c#d#E@e#[#f#f#g#o@1#o@h#0@0@.#.#F@I@I@r@5#r@a@J@[@E [@#@+#c@$@A+z+L@i#M@C+E+}@}@H+;@I+I+j#J+##K+k#.         ",
"  !#l#m#n#o#8#p#q#r#s#t#u#v#E@w#x#x#[#y#g#}#o@o@z#Z@`@F@.#F@G@I@p@r@:@J@<@1 [@E E c@c@A+z+B+z+L@*@C+C+-@F+-@G+&@E+;@A#          ",
"  !#~#B#C#m#D#E#b#F#G#H#t#I#J#v#v#v#w#K#f#[#g#y#|#o@o@o@0@`@.#F@F@4#,#r@r@J@1 J@E [@c@)#$@$@z+z+z+z+&@L@*@C+L@o -@L#.           ",
"  M#8@N#O#B#P#Q#R#S#T#U#U#V#H#t#W#u#J#E@E@E@[#f#[#f#>#|#X#o@Y#Z@`@F@`@F@I@p@r@J@:@1 [@<@[@E c@c@;.s@%@%@B+B+b@;.E+Z#            ",
"  M#`# $.$N#+$_#F#@$#$$$%$$$%$U#V#t#t#t#u#v#J#E@x#[#&$[#>#g#*$|#h#h#`@3#0@F@,#p@5#5#:@J@<@=$<@E E c@c@$@A+#@I@%@=$-$            ",
"  M#`#;$>$,$'$)$!$~${$]$#$#$$$$$$$%$^$/$H#H#u#J#v#($w#e#x#[#g#y#g#X#}#Z@o@ #F@F@,#I@p@r@:@a@'#J@<@E E E )#_$2#:$<$-$            ",
"  M#8@[$}$;$|$r.1$2$2$3$3$3$#$T#d##$$$U#U#V#V#H#H#I#u#J#v#x#E@4$[#y#f#g#1#o@5$0@0@3#F@6$4#I@p@:@J@J@b@<@r@7$b@[@.               ",
"  M#8@8$9$h@0$a$b$c$d$d$d$e$2$3$3$f$#$d#$$d#%$%$U#U#H#H#t#J#J#E@e#E@;#f#[#g#|#o@o@o@0@3#F@F@F@,#r@p@:@:@g$7$<@^.0               ",
"  M#h$i$j$k$v.l$m$m$~$c$n$o$d$d$d$2$3${$f$#$d#p$%$q$q$V#V#H#H#r$u#v#E@w#K#[#f#>#*$|#1#o@5$0@3#.#F@F@p@2#s$1#a@t$                ",
"  M#u$v$w$x$y$z$A$B$C$B$~$~$~$c$D$E$2$2$3$F$f$]$d#G$d#$$%$U#/$H#t#H#J#J#v#E@w#[#[#[#g#>#X#o@Y#`@`@3#F@H$I$p@L 0                 ",
"  M#u$J$ .K$L$M$C$N$A$C$A$A$B$~$~$c$n$o$D$d$2$3$f$#$#$#$d#p$$$%$V#V#H#H#W#v#v#v#w#4$[#;#f#>#>#o@o@o@h#O$P$.#Q$                  ",
"  M#R$.$&@S$T$M$M$M$U$N$V$C$C$m$C$W$B$c$d$c$d$d$d$e$3${$F$#$#$d#p$%$q$U#X$H#I#I#J#($v#E@[#[#f#[#g#|#Y$Z$g#7$`$                  ",
"  M# %%+.%+%T$M$M$M$M$M$V$U$@%C$C$A$A$A$~$~$o$~$c$d$D$E$3$3$]${$]$d##$d#$$U#V#H#t#I#t#J#($E@4$4$;#f#Z$#%g#K.                    ",
"  $%%%&%*%=%+%-%;%;%;%;%>%>%,%,%T$'%T$!$)%!%!%!%z$~%{%]%^%^%/%(%_%_%:%<%[%}%W$|%1%2%3%E$4%f$5%f$G$6%7%8%K#-$                    ",
"  G 1@{ 9%0%0%0%=%=%=%=%+%+%+%+%+%9%9%9%9%a%b%a%a%a%c%c%c%c%-%-%d%-%d%e%e%f%g%h%L$g%g%g%i%i%i%i%j%k%l%E@m%-$                    ",
"  n%M+o%)%a%0%0%=%=%=%=%+%+%+%+%+%+%+%+%+%b%a%a%a%a%a%a%a%c%-%-%-%-%e%d%e%e%f%f%h%h%g%g%g%g%p%i%i%a$$$J#q%                      ",
"  t$t@r%r%r%r%r%r%r%r%r%r%r%r%r%r%r%r%r%r%r%r%r%r%r%r%r%r%r%r%r%r%r%r%r%r%r%r%r%r%r%r%r%r%r%r%r%r%r%r%s%t%                      ",
"u%v%w%x%y%z%z%z%z%z%z%z%z%z%z%z%z%z%z%z%z%z%z%z%z%z%z%z%A%B%C%C%C%W+C%W+D%D%E%F%G%G%G%G%G%G%H%I%I%J%K%L%M%                      ",
"                                                                                                                                ",
"                                                                                                                                ",
"                                                                                                                                ",
"                                                                                                                                ",
"                                                                                                                                ",
"                                                                                                                                ",
"                                                                                                                                ",
"                                                                                                                                ",
"                                                                                                                                ",
"                                                                                                                                "};
