/* XPM */
static char * gajim_11x11_xpm[] = {
"16 16 140 2",
"  	c None",
". 	c #C7A300",
"+ 	c #C5A200",
"@ 	c #C8A509",
"# 	c #ECDC7A",
"$ 	c #FBF5CD",
"% 	c #FAF3C0",
"& 	c #E8D660",
"* 	c #C7A406",
"= 	c #C7A401",
"- 	c #EEDF7F",
"; 	c #FDFADE",
"> 	c #F9EE8F",
", 	c #F7E869",
"' 	c #F9F0A1",
") 	c #E8D44E",
"! 	c #C5A100",
"~ 	c #FCF7CE",
"{ 	c #FCF097",
"] 	c #FCEF82",
"^ 	c #F8E861",
"/ 	c #F5E457",
"( 	c #F6EB8D",
"_ 	c #C6A302",
": 	c #F8EFB1",
"< 	c #F9ED82",
"[ 	c #FAEB72",
"} 	c #F7E65A",
"| 	c #F5E454",
"1 	c #F1E276",
"2 	c #C6A300",
"3 	c #A4A002",
"4 	c #CEB93E",
"5 	c #F8EFAA",
"6 	c #F6E55E",
"7 	c #F4E34D",
"8 	c #F3E781",
"9 	c #C3AF31",
"0 	c #A3A002",
"a 	c #509D07",
"b 	c #5BA317",
"c 	c #8CC555",
"d 	c #A7AA47",
"e 	c #52779A",
"f 	c #859D98",
"g 	c #849A8E",
"h 	c #507598",
"i 	c #98A14B",
"j 	c #81BC48",
"k 	c #5CA218",
"l 	c #4F9B06",
"m 	c #509C07",
"n 	c #8CC655",
"o 	c #C6EAA3",
"p 	c #AAE273",
"q 	c #AEE07F",
"r 	c #4C76AB",
"s 	c #779AC6",
"t 	c #6A90BF",
"u 	c #3D6CA7",
"v 	c #9ECB71",
"w 	c #90CE54",
"x 	c #A7D579",
"y 	c #7BB940",
"z 	c #5EA41C",
"A 	c #ABD682",
"B 	c #CCEBAD",
"C 	c #A3DD69",
"D 	c #73CF1B",
"E 	c #9DDB5E",
"F 	c #7FA454",
"G 	c #4D748F",
"H 	c #466F93",
"I 	c #779C58",
"J 	c #95D05C",
"K 	c #6BBE1C",
"L 	c #8AC94E",
"M 	c #A2D373",
"N 	c #86BF50",
"O 	c #569F0F",
"P 	c #559F0F",
"Q 	c #5EA51D",
"R 	c #6EAE31",
"S 	c #A7D37E",
"T 	c #8CCE4C",
"U 	c #74CC1F",
"V 	c #93D652",
"W 	c #A2D86C",
"X 	c #A0D76B",
"Y 	c #8FCF50",
"Z 	c #6CBF1B",
"` 	c #85C348",
" .	c #84BB4F",
"..	c #62A720",
"+.	c #5DA31B",
"@.	c #78B143",
"#.	c #94CF5B",
"$.	c #6AC512",
"%.	c #6AC412",
"&.	c #69C311",
"*.	c #67C011",
"=.	c #65BD10",
"-.	c #63BA0F",
";.	c #89C450",
">.	c #61A124",
",.	c #64A527",
"'.	c #9ED568",
").	c #68C111",
"!.	c #67C111",
"~.	c #66BF10",
"{.	c #63BB0F",
"].	c #62B80E",
"^.	c #8DC854",
"/.	c #559B13",
"(.	c #539D0F",
"_.	c #A4D672",
":.	c #64BB0F",
"<.	c #61B80E",
"[.	c #61B60F",
"}.	c #8CC853",
"|.	c #4E9907",
"1.	c #4F9C06",
"2.	c #9ACF66",
"3.	c #76C12C",
"4.	c #6BBD1C",
"5.	c #65B912",
"6.	c #63B712",
"7.	c #67B81A",
"8.	c #6FBA27",
"9.	c #7EBE40",
"0.	c #73B435",
"a.	c #83C148",
"b.	c #88C54D",
"c.	c #8BC751",
"d.	c #88C64D",
"e.	c #7DBE3F",
"f.	c #73B733",
"g.	c #63A920",
"h.	c #4E9B06",
"i.	c #4E9A06",
"            . + + .             ",
"          @ # $ % & *           ",
"        = - ; > , ' ) .         ",
"        ! ~ { ] ^ / ( !         ",
"        _ : < [ } | 1 2         ",
"        3 4 5 6 7 8 9 0         ",
"    a b c d e f g h i j k l     ",
"  m n o p q r s t u v w x y l   ",
"z A B C D E F G H I J K L M N O ",
"P Q R S T U V W X Y Z `  ...+.z ",
"      @.#.$.%.&.*.=.-.;.>.      ",
"      ,.'.).!.~.=.{.].^./.      ",
"      (._.=.=.:.-.<.[.}.|.      ",
"      1.2.3.4.5.6.7.8.9.l       ",
"      l 0.a.b.c.d.e.f.g.l       ",
"        h.1.1.h.h.l l i.        "};
