/* XPM */
static char * xterm_xpm[] = {
"20 20 70 1",
" 	c None",
".	c #A0A0A0",
"+	c #9B9B9B",
"@	c #9E9E9E",
"#	c #D2D2D2",
"$	c #F0F0F0",
"%	c #989898",
"&	c #EDEDED",
"*	c #5D5D5D",
"=	c #1E1F1F",
"-	c #969696",
";	c #EBEBEB",
">	c #545454",
",	c #555555",
"'	c #939393",
")	c #E7E7E7",
"!	c #505050",
"~	c #929292",
"{	c #E5E5E5",
"]	c #4D4D4D",
"^	c #909090",
"/	c #E3E3E3",
"(	c #4A4A4A",
"_	c #BDBDBC",
":	c #8F8F8F",
"<	c #E1E1E1",
"[	c #484848",
"}	c #EEEEEC",
"|	c #9B9B9A",
"1	c #4C4C4C",
"2	c #474747",
"3	c #8D8D8D",
"4	c #DFDFDF",
"5	c #454545",
"6	c #656564",
"7	c #E0E0DF",
"8	c #D7D7D6",
"9	c #777776",
"0	c #8C8C8C",
"a	c #DCDCDC",
"b	c #424242",
"c	c #AEAEAD",
"d	c #8B8B8B",
"e	c #DADADA",
"f	c #3F3F3F",
"g	c #60605F",
"h	c #DFDFDE",
"i	c #D6D6D5",
"j	c #737372",
"k	c #898989",
"l	c #D8D8D8",
"m	c #3C3C3C",
"n	c #959594",
"o	c #414141",
"p	c #888888",
"q	c #D6D6D6",
"r	c #3A3A3A",
"s	c #B8B8B7",
"t	c #393939",
"u	c #868686",
"v	c #D4D4D4",
"w	c #373737",
"x	c #838383",
"y	c #D0D0D0",
"z	c #525353",
"A	c #B4B4B4",
"B	c #CECECE",
"C	c #848484",
"D	c #828282",
"E	c #808080",
"                    ",
" .++++++++++++++++. ",
"@#$$$$$$$$$$$$$$$$#@",
"%&*==============*&%",
"-;=>,,,,,,,,,,,,>=;-",
"')=!!!!!!!!!!!!!!=)'",
"~{=]]]]]]]]]]]]]]={~",
"^/=(_((((((((((((=/^",
":<=[}|12222222222=<:",
"34=56789555555555=43",
"0a=bb[c}bbbbbbbbb=a0",
"de=fghijfffffffff=ed",
"kl=m}nommmmmmmmmm=lk",
"pq=rsrrrrrrrrtttt=qp",
"uv=wwwwww}}}}}www=vu",
"xyz==============zyx",
"uABBBBBBBBBBBBBBBBAC",
" DEEEEEEEEEEEEEEEEE ",
"                    ",
"                    "};
