/* XPM */
static char * desktop_xpm[] = {
"20 20 250 2",
"  	c None",
". 	c #95A9BD",
"+ 	c #ACBDD0",
"@ 	c #A9BCD0",
"# 	c #A9BDD1",
"$ 	c #A8BDD0",
"% 	c #A6BCCF",
"& 	c #A5BACE",
"* 	c #A3B9CE",
"= 	c #A1B5CC",
"- 	c #A0B5CB",
"; 	c #9BB2C8",
"> 	c #97B1C6",
", 	c #96ADC3",
"' 	c #93AAC2",
") 	c #90A6BF",
"! 	c #8CA4BD",
"~ 	c #86A0BB",
"{ 	c #809AB6",
"] 	c #7D97B3",
"^ 	c #6A869F",
"/ 	c #9BB1C5",
"( 	c #A3BCD5",
"_ 	c #9EB9D3",
": 	c #A2BBD4",
"< 	c #A1BCD6",
"[ 	c #A2BCD6",
"} 	c #A0BAD5",
"| 	c #9DB9D3",
"1 	c #9AB5D1",
"2 	c #97B3CF",
"3 	c #94B0CD",
"4 	c #91ADCA",
"5 	c #8CA9C7",
"6 	c #86A4C3",
"7 	c #809EC0",
"8 	c #7898BB",
"9 	c #7092B7",
"0 	c #7192B5",
"a 	c #67849F",
"b 	c #9BAFC3",
"c 	c #A5BDD6",
"d 	c #C1CEDC",
"e 	c #C1D0DF",
"f 	c #B3C5D9",
"g 	c #9EB6D0",
"h 	c #A6C0D9",
"i 	c #A4BED8",
"j 	c #A1BBD6",
"k 	c #9DB9D4",
"l 	c #8EABC9",
"m 	c #88A6C5",
"n 	c #80A0C1",
"o 	c #7296BD",
"p 	c #6A90B8",
"q 	c #6389B5",
"r 	c #6187B2",
"s 	c #5F7C9A",
"t 	c #9CAFC4",
"u 	c #A6BED8",
"v 	c #B6C3D4",
"w 	c #83A5C8",
"x 	c #6992BD",
"y 	c #6C91B9",
"z 	c #AAC4DD",
"A 	c #A7C1DA",
"B 	c #9DBAD7",
"C 	c #92B1D1",
"D 	c #8BACCD",
"E 	c #88A8CA",
"F 	c #88A8C7",
"G 	c #82A2C3",
"H 	c #7799BE",
"I 	c #6E93BB",
"J 	c #6D90B6",
"K 	c #6389B0",
"L 	c #5981AF",
"M 	c #537496",
"N 	c #99ADC3",
"O 	c #A5BFD8",
"P 	c #A1B3C5",
"Q 	c #5D85B1",
"R 	c #5680AD",
"S 	c #6A8CB1",
"T 	c #AAC3DD",
"U 	c #9CBAD8",
"V 	c #8FB0D3",
"W 	c #8FAED0",
"X 	c #88A9CC",
"Y 	c #7C9FC7",
"Z 	c #769BC3",
"` 	c #7B9DC0",
" .	c #7094BB",
"..	c #6A8FB7",
"+.	c #668BB2",
"@.	c #5982AD",
"#.	c #577FAB",
"$.	c #4F6F91",
"%.	c #99ADC2",
"&.	c #A5BDD7",
"*.	c #A4BFDA",
"=.	c #A1BCD8",
"-.	c #8EAFD2",
";.	c #94B3D1",
">.	c #88AACD",
",.	c #7FA3C8",
"'.	c #7FA1C4",
").	c #6D94BF",
"!.	c #6990BB",
"~.	c #6D91B8",
"{.	c #6088B3",
"].	c #5B84B1",
"^.	c #5B82AD",
"/.	c #537DAC",
"(.	c #4D6F91",
"_.	c #92A9BD",
":.	c #9FB9D4",
"<.	c #B6C7D9",
"[.	c #CED9E3",
"}.	c #BACBDA",
"|.	c #A7BFD4",
"1.	c #95B4D2",
"2.	c #81A6CC",
"3.	c #8AAACC",
"4.	c #81A3C8",
"5.	c #7096BF",
"6.	c #6C93BC",
"7.	c #618AB9",
"8.	c #6289B7",
"9.	c #6389B3",
"0.	c #5F85AF",
"a.	c #557DAC",
"b.	c #507BAC",
"c.	c #4E6F91",
"d.	c #889FB7",
"e.	c #90AECC",
"f.	c #ADBCCF",
"g.	c #99B6D1",
"h.	c #7299BE",
"i.	c #5681AD",
"j.	c #86A7C9",
"k.	c #779DC6",
"l.	c #799DC4",
"m.	c #769BC0",
"n.	c #6F95BD",
"o.	c #6990BA",
"p.	c #5E88B7",
"q.	c #5B84B5",
"r.	c #5681B2",
"s.	c #527EAF",
"t.	c #517BAB",
"u.	c #5880AB",
"v.	c #4F6E8E",
"w.	c #7993AE",
"x.	c #80A1C3",
"y.	c #95A9BC",
"z.	c #386EA7",
"A.	c #2863A0",
"B.	c #396A9E",
"C.	c #80A2C5",
"D.	c #7DA1C4",
"E.	c #7299C1",
"F.	c #6E95BE",
"G.	c #6E93BD",
"H.	c #7396BB",
"I.	c #628AB8",
"J.	c #5D86B5",
"K.	c #5F87B3",
"L.	c #5C84B0",
"M.	c #5981AC",
"N.	c #5C81AB",
"O.	c #5C82AB",
"P.	c #4D6D8C",
"Q.	c #758FAB",
"R.	c #7B9CBF",
"S.	c #7392B0",
"T.	c #6181A3",
"U.	c #6585AA",
"V.	c #799CC0",
"W.	c #789BBF",
"X.	c #7699BE",
"Y.	c #7497BC",
"Z.	c #7195BA",
"`.	c #6A8FB8",
" +	c #5C86B5",
".+	c #6289B3",
"++	c #5881AD",
"@+	c #5A81AB",
"#+	c #4C6B8C",
"$+	c #708CA7",
"%+	c #7497BB",
"&+	c #7094BA",
"*+	c #7295BB",
"=+	c #7396BC",
"-+	c #6E92B8",
";+	c #6C90B6",
">+	c #628AB4",
",+	c #5A84B2",
"'+	c #6187B0",
")+	c #5B82AB",
"!+	c #5B81AB",
"~+	c #4A6B8B",
"{+	c #6C88A4",
"]+	c #6E91B7",
"^+	c #6A8FB5",
"/+	c #6B90B6",
"(+	c #6C90B7",
"_+	c #6C91B7",
":+	c #688DB4",
"<+	c #5F85B1",
"[+	c #557FAE",
"}+	c #5C83AC",
"|+	c #557EAB",
"1+	c #577EAB",
"2+	c #567EAC",
"3+	c #66829F",
"4+	c #6181A2",
"5+	c #5F7FA1",
"6+	c #6080A1",
"7+	c #6080A2",
"8+	c #5D7EA1",
"9+	c #5B7C9F",
"0+	c #597A9E",
"a+	c #4D739D",
"b+	c #53759D",
"c+	c #55779C",
"d+	c #52759D",
"e+	c #53759C",
"f+	c #58799C",
"g+	c #496887",
"h+	c #546C7F",
"i+	c #464C53",
"j+	c #3A3B3C",
"k+	c #363636",
"l+	c #435C74",
"m+	c #475667",
"n+	c #425160",
"o+	c #40505F",
"p+	c #3F4F5E",
"q+	c #3E4D5D",
"r+	c #3C4C5C",
"s+	c #3B4B5C",
"t+	c #3B4B5B",
"u+	c #3A4B5B",
"v+	c #3A4A5B",
"w+	c #3A4A5A",
"x+	c #39495A",
"y+	c #36475A",
"z+	c #384959",
"A+	c #3A495C",
"                                        ",
"                                        ",
"                                        ",
". + @ # $ % & * = - ; > , ' ) ! ~ { ] ^ ",
"/ ( _ : < [ < } | 1 2 3 4 5 6 7 8 9 0 a ",
"b c d e f g h i j k 1 3 l m n o p q r s ",
"t u v w x y z A B C D E F G H I J K L M ",
"N O P Q R S T U V W X Y Z `  ...+.@.#.$.",
"%.&.< i *.*.=.-.;.>.,.'.).!.~.{.].^./.(.",
"_.:.<.[.}.|.1.2.3.4.'.5.6.7.8.9.0.a.b.c.",
"d.e.f.g.h.i.j.k.l.'.m.n.o.p.q.r.s.t.u.v.",
"w.x.y.z.A.B.C.D.E.F.G.H.I.J.K.L.M.N.O.P.",
"Q.R.S.T.T.U.V.W.X.Y.Z.`. +.+0.++@+O.O.#+",
"$+%+&+*+H.=+H.*+&+-+;+>+,+'+++)+/.!+O.~+",
"{+]+^+/+(+_+(+/+^+:++.<+[+}+|+O.1+2+O.~+",
"3+4+5+6+7+7+7+7+5+8+9+0+a+b+c+c+d+e+f+g+",
"h+i+j+k+k+k+k+k+k+k+k+k+k+k+k+k+k+k+k+l+",
"  m+n+o+p+q+r+s+t+u+v+w+x+x+y+y+z+z+A+  ",
"                                        ",
"                                        "};
