/* XPM */
static char * linux_xpm[] = {
"60 20 177 2",
"  	c None",
". 	c #010B15",
"+ 	c #061321",
"@ 	c #152B43",
"# 	c #1F3B5B",
"$ 	c #1F3A5B",
"% 	c #1D3755",
"& 	c #172E47",
"* 	c #091828",
"= 	c #030E1A",
"- 	c #04101C",
"; 	c #1A324E",
"> 	c #2D527F",
", 	c #335E95",
"' 	c #35629B",
") 	c #36649D",
"! 	c #3867A2",
"~ 	c #3766A1",
"{ 	c #38649B",
"] 	c #325987",
"^ 	c #203A58",
"/ 	c #2C4E76",
"( 	c #38659C",
"_ 	c #3D6CA5",
": 	c #4270A5",
"< 	c #3D6591",
"[ 	c #325478",
"} 	c #335579",
"| 	c #3C638D",
"1 	c #4370A5",
"2 	c #4172AE",
"3 	c #4071AD",
"4 	c #31547D",
"5 	c #010B16",
"6 	c #345881",
"7 	c #4170A9",
"8 	c #4777AE",
"9 	c #426B96",
"0 	c #1B3147",
"a 	c #061320",
"b 	c #426B97",
"c 	c #4879B3",
"d 	c #4678B3",
"e 	c #32557D",
"f 	c #05111D",
"g 	c #2C4B6D",
"h 	c #4878B0",
"i 	c #4D7BAD",
"j 	c #365779",
"k 	c #4A76A5",
"l 	c #4C7EB7",
"m 	c #4B7AB0",
"n 	c #182D43",
"o 	c #192E44",
"p 	c #4C7AAC",
"q 	c #517FB2",
"r 	c #142639",
"s 	c #41658B",
"t 	c #4D77A3",
"u 	c #3B5D81",
"v 	c #192D42",
"w 	c #5485BA",
"x 	c #5180B5",
"y 	c #1A2F46",
"z 	c #05101C",
"A 	c #40668D",
"B 	c #5688BE",
"C 	c #42678D",
"D 	c #5D8EC1",
"E 	c #5E8FC2",
"F 	c #5886B6",
"G 	c #507BA7",
"H 	c #355575",
"I 	c #5685B6",
"J 	c #5787BC",
"K 	c #192E43",
"L 	c #5583B2",
"M 	c #5C8CBF",
"N 	c #06121E",
"O 	c #5D8CBD",
"P 	c #6091C3",
"Q 	c #132536",
"R 	c #030E19",
"S 	c #5684B4",
"T 	c #5C8DC1",
"U 	c #1C3147",
"V 	c #FFFFFF",
"W 	c #6698CA",
"X 	c #071320",
"Y 	c #5E8DBE",
"Z 	c #5B8AB8",
"` 	c #6394C7",
" .	c #517BA5",
"..	c #142638",
"+.	c #21384F",
"@.	c #5987B6",
"#.	c #6192C5",
"$.	c #1C3045",
"%.	c #071421",
"&.	c #6191C2",
"*.	c #5885B1",
"=.	c #0D1C2B",
"-.	c #6597C9",
";.	c #4E77A0",
">.	c #253D55",
",.	c #1D3247",
"'.	c #5E8EBD",
").	c #5D8CBB",
"!.	c #F3F3F3",
"~.	c #081421",
"{.	c #6191C1",
"].	c #5580AC",
"^.	c #6697C9",
"/.	c #314F6C",
"(.	c #2A4560",
"_.	c #16283B",
":.	c #385878",
"<.	c #6394C5",
"[.	c #456A8F",
"}.	c #DBDBDB",
"|.	c #6799CA",
"1.	c #122233",
"2.	c #689AC9",
"3.	c #6A9CCC",
"4.	c #5F8DB9",
"5.	c #314E6C",
"6.	c #3E6083",
"7.	c #6292C2",
"8.	c #5682AF",
"9.	c #010C16",
"0.	c #C3C3C3",
"a.	c #5F91C5",
"b.	c #5986B3",
"c.	c #6596C6",
"d.	c #5A84AB",
"e.	c #70A2D0",
"f.	c #70A2D1",
"g.	c #6D9ECD",
"h.	c #6594C2",
"i.	c #6697C6",
"j.	c #6495C5",
"k.	c #5681AD",
"l.	c #44698C",
"m.	c #6A9BCB",
"n.	c #618FBB",
"o.	c #284055",
"p.	c #72A2CD",
"q.	c #75A7D2",
"r.	c #6FA0CC",
"s.	c #5F8BB5",
"t.	c #2B455F",
"u.	c #1A2E42",
"v.	c #6B9CCA",
"w.	c #73A4D1",
"x.	c #203448",
"y.	c #0E1C2A",
"z.	c #1A2C3D",
"A.	c #5A84AA",
"B.	c #7AACD7",
"C.	c #6088AA",
"D.	c #112130",
"E.	c #79A9D1",
"F.	c #87B7DB",
"G.	c #1D3040",
"H.	c #3A566F",
"I.	c #8DBEE1",
"J.	c #8BBADA",
"K.	c #040F19",
"L.	c #425F77",
"M.	c #8FBEDD",
"N.	c #8AB8D6",
"O.	c #1D2F3F",
"P.	c #1E3142",
"Q.	c #759FBC",
"R.	c #7BA6C4",
"S.	c #507089",
"T.	c #0A1723",
". . . . . . . . . . . . . + @ # $ % & * = . . . . . . . . . . . . . . . . . . . . . . . . . . . . . . . . . . . . . . . ",
". . . . . . . . . . . - ; > , ' ) ! ~ { ] ^ . . . . . . . . . . . . . . . . . . . . . . . . . . . . . . . . . . . . . . ",
". . . . . . . . . . * / ( _ : < [ } | 1 2 3 4 5 . . . . . . . . . . . . . . . . . . . . . . . . . . . . . . . . . . . . ",
". . . . . . . . . - 6 7 8 9 0 . . . . a b c d e . . . . . . . . . . . . . . . . . . . . . . . . . . . . . . . . . . . . ",
". . . . . . . . f g h i j . . . . . . . . k l m n . . . . . . . . . . . . . . . . . . . . . . . . . . . . . . . . . . . ",
". . . . . . . . o p q r . . . . s t u . . v w x y . . . . . . . . . . . . . . . . . . . . . . . . . . . . . . . . . . . ",
". . . . . . . z A B C . . . . D E F G H . . I J K . . . . . . . . . . . . . . . . . . . . . . . . . . . . . . . . . . . ",
". . . . . . . z L M N . . . O P . . . Q R . S T U . . . . . . . . . . . . . . . . . V V . . . W W . . . V V . . . . . . ",
". . . . . . . X Y Z . . . - `  .. . . ..+.. @.#.$.. . . . . . . . . . . . . . . . . . V V . . . W W . . . V V . . . . . ",
". . . . . . . %.&.*.. . . =.-.;.. . . >.,.. '.).N . . . . . . . . . . . . . . . . . . . !.!.. . . W W . . . !.!.. . . . ",
". . . . . . . ~.{.].. . . . W ^.. ~./.(._.:.<.[.%.. . . . . . . . . . . . . . . . . . }.}.. . . |.|.. . . }.}.. . . . . ",
". . . . . . . N &.'.. . . 1.2.3.4.z 5.. 6.7.8.9.. . . . . . . . . . . . . . . . . . 0.0.. . . a.a.. . . 0.0.. . . . . . ",
". . . . . . . . b.c.=.. . . d.e.f.g.h.i.j.k.R . . . . . . . . . . . . . . . . . . . . . . . . . . . . . . . . . . . . . ",
". . . . . . . . l.m.n.. . . . o.p.q.r.s.t.. . . . . . . . . . . . . . . . . . . . . . . . . . . . . . . . . . . . . . . ",
". . . . . . . . u.v.w.x.. . . . . y.z.. . . . . . . . . . . . . . . . . . . . . . . . . . . . . . . . . . . . . . . . . ",
". . . . . . . . . A.B.C.. . . . . . . . . . . . . . . . . . . . . . . . . . . . . . . . . . . . . . . . . . . . . . . . ",
". . . . . . . . . D.E.F.G.. . . . . . . . . . . . . . . . . . . . . . . . . . . . . . . . . . . . . . . . . . . . . . . ",
". . . . . . . . . . H.I.J.K.. . . . . . . . . . . . . . . . . . . . . . . . . . . . . . . . . . . . . . . . . . . . . . ",
". . . . . . . . . . . L.M.N.O.. . . . . . . . . . . . . . . . . . . . . . . . . . . . . . . . . . . . . . . . . . . . . ",
". . . . . . . . . . . . P.Q.R.S.T.. . . . . . . . . . . . . . . . . . . . . . . . . . . . . . . . . . . . . . . . . . . "};
