/* XPM */
static char * a_xpm[] = {
"5 20 16 1",
" 	c None",
".	c #383838",
"+	c #3B3B3B",
"@	c #0E425F",
"#	c #5B99BC",
"$	c #4783A6",
"%	c #29698E",
"&	c #1B5E85",
"*	c #145B83",
"=	c #104A6B",
"-	c #FFFFFF",
";	c #0075B8",
">	c #0084D0",
",	c #06A4FF",
"'	c #232323",
")	c #212121",
".....",
"+++++",
"@@@@@",
"#####",
"$$$$$",
"%%%%%",
"&&&&&",
"*****",
"==--=",
"@@@@@",
"@-@@-",
"==--=",
"*-**-",
"&&&&&",
";-;;-",
">>>>>",
",,,,,",
"@@@@@",
"'''''",
")))))"};
