/* XPM */
static char * m_xpm[] = {
"15 20 30 1",
" 	c None",
".	c #383838",
"+	c #3B3B3B",
"@	c #0E425F",
"#	c #3F3F3F",
"$	c #5B99BC",
"%	c #414141",
"&	c #4783A6",
"*	c #29698E",
"=	c #3D3D3D",
"-	c #1B5E85",
";	c #145B83",
">	c #393939",
",	c #104A6B",
"'	c #FFFFFF",
")	c #373737",
"!	c #353535",
"~	c #333333",
"{	c #313131",
"]	c #2F2F2F",
"^	c #2D2D2D",
"/	c #0075B8",
"(	c #2B2B2B",
"_	c #0084D0",
":	c #292929",
"<	c #06A4FF",
"[	c #272727",
"}	c #252525",
"|	c #232323",
"1	c #212121",
"...............",
"+++++++++++++++",
"@@@@@@@@@@@@###",
"$$$$$$$$$$$$@%%",
"&&&&&&&&&&&&$@#",
"************$@=",
"------------$@+",
";;;;;;;;;;;;$@>",
",,,'','',,,,$@)",
"@@@@@@@@@@@@$@!",
"@@'@@'@@'@@@$@~",
",,,,,,,,,,,,$@{",
";;';;';;';;;$@]",
"------------$@^",
"//'/////'///$@(",
"____________$@:",
"<<<<<<<<<<<<@[[",
"@@@@@@@@@@@@}}}",
"|||||||||||||||",
"111111111111111"};
