/* XPM */
static char * space_xpm[] = {
"4 20 20 1",
" 	c None",
".	c #383838",
"+	c #3B3B3B",
"@	c #3F3F3F",
"#	c #155174",
"$	c #414141",
"%	c #5B99BC",
"&	c #4783A6",
"*	c #29698E",
"=	c #1B5E85",
"-	c #145B83",
";	c #104A6B",
">	c #0E425F",
",	c #0075B8",
"'	c #0084D0",
")	c #272727",
"!	c #06A4FF",
"~	c #252525",
"{	c #232323",
"]	c #212121",
"....",
"++++",
"@@##",
"$#%%",
"#%&&",
"#%**",
"#%==",
"#%--",
"#%;;",
"#%>>",
"#%>>",
"#%;;",
"#%--",
"#%==",
"#%,,",
"#%''",
")#!!",
"~~##",
"{{{{",
"]]]]"};
