/* XPM */
static char * xterm_xpm[] = {
"20 20 201 2",
"  	c None",
". 	c #969696",
"+ 	c #BBBBBB",
"@ 	c #C0C0C0",
"# 	c #C8C8C8",
"$ 	c #D4D4D4",
"% 	c #DFDFDF",
"& 	c #E9E9E9",
"* 	c #EFEFEF",
"= 	c #F2F2F2",
"- 	c #D5D5D5",
"; 	c #BFBFBF",
"> 	c #A3A3A3",
", 	c #929292",
"' 	c #828282",
") 	c #868686",
"! 	c #A5A5A5",
"~ 	c #B2B2B2",
"{ 	c #BCBCBC",
"] 	c #C2C2C2",
"^ 	c #A4A4A4",
"/ 	c #959595",
"( 	c #838383",
"_ 	c #949494",
": 	c #ABACAB",
"< 	c #9C9D9C",
"[ 	c #8B8D8B",
"} 	c #8E908F",
"| 	c #9FA09F",
"1 	c #AFAFAF",
"2 	c #BDBDBD",
"3 	c #C6C8C6",
"4 	c #CDCECD",
"5 	c #AEAEAE",
"6 	c #9E9F9E",
"7 	c #8C8D8C",
"8 	c #9E9E9E",
"9 	c #494147",
"0 	c #443D43",
"a 	c #423A41",
"b 	c #453C44",
"c 	c #4D414B",
"d 	c #524651",
"e 	c #584B57",
"f 	c #5D4F5C",
"g 	c #615260",
"h 	c #4C414B",
"i 	c #463C45",
"j 	c #433942",
"k 	c #453D44",
"l 	c #32222F",
"m 	c #3B2738",
"n 	c #452C43",
"o 	c #4B2F47",
"p 	c #4F314D",
"q 	c #543353",
"r 	c #5A3759",
"s 	c #5F3A5E",
"t 	c #643C64",
"u 	c #553354",
"v 	c #4E314C",
"w 	c #472D45",
"x 	c #412A3E",
"y 	c #3A2638",
"z 	c #362433",
"A 	c #412B3F",
"B 	c #5A3D58",
"C 	c #5E3A5A",
"D 	c #5A3757",
"E 	c #5B3859",
"F 	c #5D395B",
"G 	c #603B5F",
"H 	c #633D62",
"I 	c #5C385A",
"J 	c #573655",
"K 	c #50334E",
"L 	c #4A3048",
"M 	c #442C41",
"N 	c #3E293B",
"O 	c #5D3F5B",
"P 	c #A994A8",
"Q 	c #845F82",
"R 	c #653F63",
"S 	c #5C395B",
"T 	c #5F3A5D",
"U 	c #583757",
"V 	c #543452",
"W 	c #4E324B",
"X 	c #492F46",
"Y 	c #422B40",
"Z 	c #3B2739",
"` 	c #352433",
" .	c #332330",
"..	c #633961",
"+.	c #AF95AE",
"@.	c #8F718E",
"#.	c #593557",
"$.	c #583756",
"%.	c #573654",
"&.	c #543552",
"*.	c #4B3048",
"=.	c #452D43",
"-.	c #402A3D",
";.	c #3A2738",
">.	c #3C283A",
",.	c #5C3E58",
"'.	c #9D879C",
").	c #755373",
"!.	c #573555",
"~.	c #523451",
"{.	c #523450",
"].	c #513350",
"^.	c #4F314C",
"/.	c #4B3049",
"(.	c #462E45",
"_.	c #422B3F",
":.	c #3D283A",
"<.	c #372534",
"[.	c #30202D",
"}.	c #392636",
"|.	c #483045",
"1.	c #4F324C",
"2.	c #4C304A",
"3.	c #533450",
"4.	c #573755",
"5.	c #563653",
"6.	c #51334E",
"7.	c #472D44",
"8.	c #392736",
"9.	c #342432",
"0.	c #2F202C",
"a.	c #2D1F2A",
"b.	c #382536",
"c.	c #3C2839",
"d.	c #886D86",
"e.	c #957A93",
"f.	c #977E97",
"g.	c #967C95",
"h.	c #563854",
"i.	c #472D43",
"j.	c #3A2636",
"k.	c #31222F",
"l.	c #2A1D27",
"m.	c #2D202B",
"n.	c #31212E",
"o.	c #342431",
"p.	c #442D42",
"q.	c #4E304C",
"r.	c #533350",
"s.	c #543351",
"t.	c #51314F",
"u.	c #40293D",
"v.	c #22151F",
"w.	c #231720",
"x.	c #271824",
"y.	c #291A26",
"z.	c #2B1B29",
"A.	c #301E2D",
"B.	c #342031",
"C.	c #362033",
"D.	c #372034",
"E.	c #331F31",
"F.	c #2F1D2C",
"G.	c #797478",
"H.	c #787377",
"I.	c #777277",
"J.	c #7C767A",
"K.	c #827C80",
"L.	c #898287",
"M.	c #8F898E",
"N.	c #969095",
"O.	c #9D979C",
"P.	c #9D969B",
"Q.	c #979196",
"R.	c #90898E",
"S.	c #888287",
"T.	c #777276",
"U.	c #797377",
"V.	c #878787",
"W.	c #8B8B8B",
"X.	c #9A9A9A",
"Y.	c #ABABAB",
"Z.	c #A8A8A8",
"`.	c #B5B5B5",
" +	c #CECFCE",
".+	c #BBBCBC",
"++	c #B4B5B5",
"@+	c #A9AAAA",
"#+	c #999999",
"$+	c #888888",
"%+	c #979797",
"&+	c #818181",
"*+	c #757575",
"=+	c #6A6A6A",
"-+	c #6D6D6D",
";+	c #7B7B7B",
">+	c #8F8F8F",
",+	c #A6A6A6",
"'+	c #A7A7A7",
")+	c #6B6B6B",
"!+	c #777777",
"                                        ",
"                                        ",
"  . + @ # $ % & * = = * & % - # ; + .   ",
"  > , ' ) . ! ~ { ] ] { ~ ^ / ) ( _ >   ",
"  : < [ } | 1 2 3 4 4 3 { 5 6 } 7 8 :   ",
"  9 0 a b c d e f g g f e d h i j k 9   ",
"  l m n o p q r s t t s r u v w x y l   ",
"  z A B C D E F G H H G I J K L M N z   ",
"  z x O P Q R S I T T I U V W X Y Z `   ",
"   .N K ..+.@.#.J $.$.%.&.K *.=.-.;. .  ",
"  l >.,.'.).!.~.{.V V ].^./.(._.:.<.l   ",
"  [.}.|.1.L 2.3.%.4.5.6.L 7.Y N 8.9.0.  ",
"  a.l b.c.-./.d.e.f.g.h.i.x N j.z k.a.  ",
"  l.m.n.o.j.p.q.r.s.t.L u.Z }.9.n.m.l.  ",
"  v.w.x.y.z.A.B.C.D.C.E.A.F.z.y.x.w.v.  ",
"  G.H.I.J.K.L.M.N.O.P.Q.R.S.K.J.T.U.G.  ",
"  ! . V.W.X.Y.Z.`. +; .+++@+#+W.$+%+!   ",
"  &+*+=+-+;+) >+#+,+'+8 >+) ;+-+)+!+'   ",
"                                        ",
"                                        "};
