/* XPM */
static char * frameABR_xpm[] = {
"22 22 2 1",
" 	c None",
".	c #080808",
"                  ....",
"                  ....",
"                  ....",
"                  ....",
"                  ....",
"                  ....",
"                  ....",
"                  ....",
"                  ....",
"                  ....",
"                  ....",
"                  ....",
"                  ....",
"                  ....",
"                  ....",
"                  ....",
"                  ....",
"                  ....",
"......................",
"......................",
"......................",
"......................"};
