/* XPM */
static char * frameAB_xpm[] = {
"4 4 3 1",
" 	c None",
".	c #080808",
"+	c #464646",
"....",
"....",
"++++",
"...."};
