/* XPM */
static char * titleAB_xpm[] = {
"2 19 3 1",
" 	c None",
".	c #080808",
"+	c #0A0A0A",
"..",
"..",
"..",
"..",
"..",
"..",
"..",
"..",
"..",
"..",
"..",
"..",
"..",
"..",
"..",
"..",
"..",
"..",
"++"};
